ISO-10303-21;
HEADER;
/* Generated by software containing ST-Developer
 * from STEP Tools, Inc. (www.steptools.com) 
 */
/* OPTION: using custom renumber hook */

FILE_DESCRIPTION(
/* description */ (
'CAx-IF Rec.Pracs.---Representation and Presentation of Product Manufa
cturing Information (PMI)---4.0---2014-10-13',
'CAx-IF Rec.Pracs.---3D Tessellated Geometry---0.4---2014-09-14','2;1'),

/* implementation_level */ '2;1');

FILE_NAME(
/* name */ 'C03-02',
/* time_stamp */ '2026-04-13T01:14:59+03:00',
/* author */ (''),
/* organization */ (''),
/* preprocessor_version */ 'ST-DEVELOPER v18.102',
/* originating_system */ 'SIEMENS PLM Software NX2206.9140',
/* authorisation */ $);

FILE_SCHEMA (('AP242_MANAGED_MODEL_BASED_3D_ENGINEERING_MIM_LF { 1 0 10303 442 3 1 4 }'));
ENDSEC;

DATA;
#10=SHAPE_REPRESENTATION_RELATIONSHIP('','',#491,#11);
#11=ADVANCED_BREP_SHAPE_REPRESENTATION('',(#489),#1011);
#12=(
BOUNDED_SURFACE()
B_SPLINE_SURFACE(3,2,((#926,#927,#928),(#929,#930,#931),(#932,#933,#934),
(#935,#936,#937)),.UNSPECIFIED.,.F.,.F.,.F.)
B_SPLINE_SURFACE_WITH_KNOTS((4,4),(3,3),(0.0589718470470096,0.0603755265651492),
(0.,1.),.PIECEWISE_BEZIER_KNOTS.)
GEOMETRIC_REPRESENTATION_ITEM()
RATIONAL_B_SPLINE_SURFACE(((1.,0.704744395851759,1.),(1.,0.704747641894857,
1.),(1.,0.704750860119997,1.),(1.,0.70475405123229,1.)))
REPRESENTATION_ITEM('')
SURFACE()
);
#13=(
BOUNDED_SURFACE()
B_SPLINE_SURFACE(3,2,((#938,#939,#940),(#941,#942,#943),(#944,#945,#946),
(#947,#948,#949)),.UNSPECIFIED.,.F.,.F.,.F.)
B_SPLINE_SURFACE_WITH_KNOTS((4,4),(3,3),(0.0588734140336645,0.0604453902178934),
(0.,1.),.PIECEWISE_BEZIER_KNOTS.)
GEOMETRIC_REPRESENTATION_ITEM()
RATIONAL_B_SPLINE_SURFACE(((1.,0.708030512860389,1.),(1.,0.70803724865253,
1.),(1.,0.708044045401538,1.),(1.,0.708050904711644,1.)))
REPRESENTATION_ITEM('')
SURFACE()
);
#14=(
BOUNDED_SURFACE()
B_SPLINE_SURFACE(3,2,((#950,#951,#952),(#953,#954,#955),(#956,#957,#958),
(#959,#960,#961)),.UNSPECIFIED.,.F.,.F.,.F.)
B_SPLINE_SURFACE_WITH_KNOTS((4,4),(3,3),(0.0590549700121495,0.0606272198945304),
(0.,1.),.PIECEWISE_BEZIER_KNOTS.)
GEOMETRIC_REPRESENTATION_ITEM()
RATIONAL_B_SPLINE_SURFACE(((1.,0.706160251303528,1.),(1.,0.706167141854872,
1.),(1.,0.70617396926612,1.),(1.,0.706180735185852,1.)))
REPRESENTATION_ITEM('')
SURFACE()
);
#15=(
BOUNDED_SURFACE()
B_SPLINE_SURFACE(3,2,((#962,#963,#964),(#965,#966,#967),(#968,#969,#970),
(#971,#972,#973)),.UNSPECIFIED.,.F.,.F.,.F.)
B_SPLINE_SURFACE_WITH_KNOTS((4,4),(3,3),(0.058812413232118,0.0602164180812631),
(0.,1.),.PIECEWISE_BEZIER_KNOTS.)
GEOMETRIC_REPRESENTATION_ITEM()
RATIONAL_B_SPLINE_SURFACE(((1.,0.709464131363194,1.),(1.,0.709460894269707,
1.),(1.,0.709457684889968,1.),(1.,0.709454502557746,1.)))
REPRESENTATION_ITEM('')
SURFACE()
);
#16=CIRCLE('',#496,161.165252410536);
#17=CIRCLE('',#498,160.922340908221);
#18=CIRCLE('',#501,160.922340908221);
#19=CIRCLE('',#502,161.165252410536);
#20=CIRCLE('',#506,162.171964574751);
#21=CIRCLE('',#509,162.414876077067);
#22=CONICAL_SURFACE('',#495,161.723928063178,0.0245390253972694);
#23=CONICAL_SURFACE('',#497,161.723928063178,0.0245390253972694);
#24=CONICAL_SURFACE('',#499,161.723928063178,0.0245390253972694);
#25=CONICAL_SURFACE('',#500,161.723928063178,0.0245390253972694);
#26=CONICAL_SURFACE('',#503,161.723928063178,0.0245390253972694);
#27=CONICAL_SURFACE('',#505,162.171964574751,1.54625730139763);
#28=CONICAL_SURFACE('',#508,162.414876077067,1.54625730139763);
#29=CONICAL_SURFACE('',#510,162.973551729709,0.0245390253972694);
#30=LINE('',#675,#38);
#31=LINE('',#688,#39);
#32=LINE('',#854,#40);
#33=LINE('',#892,#41);
#34=LINE('',#975,#42);
#35=LINE('',#977,#43);
#36=LINE('',#1005,#44);
#37=LINE('',#1007,#45);
#38=VECTOR('',#521,1000.);
#39=VECTOR('',#524,1000.);
#40=VECTOR('',#545,1000.);
#41=VECTOR('',#552,1000.);
#42=VECTOR('',#561,1000.);
#43=VECTOR('',#564,1000.);
#44=VECTOR('',#567,1000.);
#45=VECTOR('',#570,1000.);
#46=PLANE('',#493);
#47=PLANE('',#494);
#48=PLANE('',#504);
#49=PLANE('',#507);
#50=PLANE('',#511);
#51=PLANE('',#512);
#52=PLANE('',#513);
#53=PLANE('',#514);
#54=PLANE('',#515);
#55=PLANE('',#516);
#56=ORIENTED_EDGE('',*,*,#206,.T.);
#57=ORIENTED_EDGE('',*,*,#207,.F.);
#58=ORIENTED_EDGE('',*,*,#208,.T.);
#59=ORIENTED_EDGE('',*,*,#209,.T.);
#60=ORIENTED_EDGE('',*,*,#210,.F.);
#61=ORIENTED_EDGE('',*,*,#211,.T.);
#62=ORIENTED_EDGE('',*,*,#212,.T.);
#63=ORIENTED_EDGE('',*,*,#213,.F.);
#64=ORIENTED_EDGE('',*,*,#214,.F.);
#65=ORIENTED_EDGE('',*,*,#215,.T.);
#66=ORIENTED_EDGE('',*,*,#216,.T.);
#67=ORIENTED_EDGE('',*,*,#217,.F.);
#68=ORIENTED_EDGE('',*,*,#218,.F.);
#69=ORIENTED_EDGE('',*,*,#219,.F.);
#70=ORIENTED_EDGE('',*,*,#217,.T.);
#71=ORIENTED_EDGE('',*,*,#220,.T.);
#72=ORIENTED_EDGE('',*,*,#221,.T.);
#73=ORIENTED_EDGE('',*,*,#209,.F.);
#74=ORIENTED_EDGE('',*,*,#208,.F.);
#75=ORIENTED_EDGE('',*,*,#222,.F.);
#76=ORIENTED_EDGE('',*,*,#223,.T.);
#77=ORIENTED_EDGE('',*,*,#224,.T.);
#78=ORIENTED_EDGE('',*,*,#225,.F.);
#79=ORIENTED_EDGE('',*,*,#226,.T.);
#80=ORIENTED_EDGE('',*,*,#227,.T.);
#81=ORIENTED_EDGE('',*,*,#228,.T.);
#82=ORIENTED_EDGE('',*,*,#229,.T.);
#83=ORIENTED_EDGE('',*,*,#230,.F.);
#84=ORIENTED_EDGE('',*,*,#223,.F.);
#85=ORIENTED_EDGE('',*,*,#231,.F.);
#86=ORIENTED_EDGE('',*,*,#225,.T.);
#87=ORIENTED_EDGE('',*,*,#232,.T.);
#88=ORIENTED_EDGE('',*,*,#233,.T.);
#89=ORIENTED_EDGE('',*,*,#234,.F.);
#90=ORIENTED_EDGE('',*,*,#235,.F.);
#91=ORIENTED_EDGE('',*,*,#236,.F.);
#92=ORIENTED_EDGE('',*,*,#237,.F.);
#93=ORIENTED_EDGE('',*,*,#238,.F.);
#94=ORIENTED_EDGE('',*,*,#239,.F.);
#95=ORIENTED_EDGE('',*,*,#207,.T.);
#96=ORIENTED_EDGE('',*,*,#240,.T.);
#97=ORIENTED_EDGE('',*,*,#241,.F.);
#98=ORIENTED_EDGE('',*,*,#242,.T.);
#99=ORIENTED_EDGE('',*,*,#243,.T.);
#100=ORIENTED_EDGE('',*,*,#218,.T.);
#101=ORIENTED_EDGE('',*,*,#244,.T.);
#102=ORIENTED_EDGE('',*,*,#245,.T.);
#103=ORIENTED_EDGE('',*,*,#246,.T.);
#104=ORIENTED_EDGE('',*,*,#214,.T.);
#105=ORIENTED_EDGE('',*,*,#243,.F.);
#106=ORIENTED_EDGE('',*,*,#247,.T.);
#107=ORIENTED_EDGE('',*,*,#248,.T.);
#108=ORIENTED_EDGE('',*,*,#226,.F.);
#109=ORIENTED_EDGE('',*,*,#222,.T.);
#110=ORIENTED_EDGE('',*,*,#231,.T.);
#111=ORIENTED_EDGE('',*,*,#249,.T.);
#112=ORIENTED_EDGE('',*,*,#250,.T.);
#113=ORIENTED_EDGE('',*,*,#251,.F.);
#114=ORIENTED_EDGE('',*,*,#245,.F.);
#115=ORIENTED_EDGE('',*,*,#244,.F.);
#116=ORIENTED_EDGE('',*,*,#219,.T.);
#117=ORIENTED_EDGE('',*,*,#239,.T.);
#118=ORIENTED_EDGE('',*,*,#238,.T.);
#119=ORIENTED_EDGE('',*,*,#252,.F.);
#120=ORIENTED_EDGE('',*,*,#253,.T.);
#121=ORIENTED_EDGE('',*,*,#254,.T.);
#122=ORIENTED_EDGE('',*,*,#240,.F.);
#123=ORIENTED_EDGE('',*,*,#206,.F.);
#124=ORIENTED_EDGE('',*,*,#255,.T.);
#125=ORIENTED_EDGE('',*,*,#255,.F.);
#126=ORIENTED_EDGE('',*,*,#213,.T.);
#127=ORIENTED_EDGE('',*,*,#256,.F.);
#128=ORIENTED_EDGE('',*,*,#215,.F.);
#129=ORIENTED_EDGE('',*,*,#246,.F.);
#130=ORIENTED_EDGE('',*,*,#257,.T.);
#131=ORIENTED_EDGE('',*,*,#258,.F.);
#132=ORIENTED_EDGE('',*,*,#259,.T.);
#133=ORIENTED_EDGE('',*,*,#260,.F.);
#134=ORIENTED_EDGE('',*,*,#261,.T.);
#135=ORIENTED_EDGE('',*,*,#241,.T.);
#136=ORIENTED_EDGE('',*,*,#251,.T.);
#137=ORIENTED_EDGE('',*,*,#262,.T.);
#138=ORIENTED_EDGE('',*,*,#263,.F.);
#139=ORIENTED_EDGE('',*,*,#264,.T.);
#140=ORIENTED_EDGE('',*,*,#249,.F.);
#141=ORIENTED_EDGE('',*,*,#235,.T.);
#142=ORIENTED_EDGE('',*,*,#265,.F.);
#143=ORIENTED_EDGE('',*,*,#227,.F.);
#144=ORIENTED_EDGE('',*,*,#248,.F.);
#145=ORIENTED_EDGE('',*,*,#266,.T.);
#146=ORIENTED_EDGE('',*,*,#267,.F.);
#147=ORIENTED_EDGE('',*,*,#268,.T.);
#148=ORIENTED_EDGE('',*,*,#252,.T.);
#149=ORIENTED_EDGE('',*,*,#237,.T.);
#150=ORIENTED_EDGE('',*,*,#269,.T.);
#151=ORIENTED_EDGE('',*,*,#258,.T.);
#152=ORIENTED_EDGE('',*,*,#270,.T.);
#153=ORIENTED_EDGE('',*,*,#260,.T.);
#154=ORIENTED_EDGE('',*,*,#271,.T.);
#155=ORIENTED_EDGE('',*,*,#263,.T.);
#156=ORIENTED_EDGE('',*,*,#272,.T.);
#157=ORIENTED_EDGE('',*,*,#267,.T.);
#158=ORIENTED_EDGE('',*,*,#273,.T.);
#159=ORIENTED_EDGE('',*,*,#254,.F.);
#160=ORIENTED_EDGE('',*,*,#259,.F.);
#161=ORIENTED_EDGE('',*,*,#273,.F.);
#162=ORIENTED_EDGE('',*,*,#269,.F.);
#163=ORIENTED_EDGE('',*,*,#236,.T.);
#164=ORIENTED_EDGE('',*,*,#272,.F.);
#165=ORIENTED_EDGE('',*,*,#266,.F.);
#166=ORIENTED_EDGE('',*,*,#253,.F.);
#167=ORIENTED_EDGE('',*,*,#268,.F.);
#168=ORIENTED_EDGE('',*,*,#250,.F.);
#169=ORIENTED_EDGE('',*,*,#264,.F.);
#170=ORIENTED_EDGE('',*,*,#271,.F.);
#171=ORIENTED_EDGE('',*,*,#262,.F.);
#172=ORIENTED_EDGE('',*,*,#242,.F.);
#173=ORIENTED_EDGE('',*,*,#261,.F.);
#174=ORIENTED_EDGE('',*,*,#270,.F.);
#175=ORIENTED_EDGE('',*,*,#257,.F.);
#176=ORIENTED_EDGE('',*,*,#247,.F.);
#177=ORIENTED_EDGE('',*,*,#232,.F.);
#178=ORIENTED_EDGE('',*,*,#224,.F.);
#179=ORIENTED_EDGE('',*,*,#230,.T.);
#180=ORIENTED_EDGE('',*,*,#274,.T.);
#181=ORIENTED_EDGE('',*,*,#234,.T.);
#182=ORIENTED_EDGE('',*,*,#275,.F.);
#183=ORIENTED_EDGE('',*,*,#228,.F.);
#184=ORIENTED_EDGE('',*,*,#265,.T.);
#185=ORIENTED_EDGE('',*,*,#276,.T.);
#186=ORIENTED_EDGE('',*,*,#220,.F.);
#187=ORIENTED_EDGE('',*,*,#216,.F.);
#188=ORIENTED_EDGE('',*,*,#277,.F.);
#189=ORIENTED_EDGE('',*,*,#278,.T.);
#190=ORIENTED_EDGE('',*,*,#210,.T.);
#191=ORIENTED_EDGE('',*,*,#221,.F.);
#192=ORIENTED_EDGE('',*,*,#276,.F.);
#193=ORIENTED_EDGE('',*,*,#279,.T.);
#194=ORIENTED_EDGE('',*,*,#212,.F.);
#195=ORIENTED_EDGE('',*,*,#280,.F.);
#196=ORIENTED_EDGE('',*,*,#277,.T.);
#197=ORIENTED_EDGE('',*,*,#256,.T.);
#198=ORIENTED_EDGE('',*,*,#233,.F.);
#199=ORIENTED_EDGE('',*,*,#274,.F.);
#200=ORIENTED_EDGE('',*,*,#229,.F.);
#201=ORIENTED_EDGE('',*,*,#275,.T.);
#202=ORIENTED_EDGE('',*,*,#211,.F.);
#203=ORIENTED_EDGE('',*,*,#279,.F.);
#204=ORIENTED_EDGE('',*,*,#278,.F.);
#205=ORIENTED_EDGE('',*,*,#280,.T.);
#206=EDGE_CURVE('',#281,#282,#331,.F.);
#207=EDGE_CURVE('',#283,#282,#332,.F.);
#208=EDGE_CURVE('',#283,#284,#333,.T.);
#209=EDGE_CURVE('',#284,#285,#334,.T.);
#210=EDGE_CURVE('',#286,#285,#335,.T.);
#211=EDGE_CURVE('',#286,#287,#336,.T.);
#212=EDGE_CURVE('',#287,#288,#337,.T.);
#213=EDGE_CURVE('',#281,#288,#338,.T.);
#214=EDGE_CURVE('',#289,#290,#339,.F.);
#215=EDGE_CURVE('',#289,#291,#340,.T.);
#216=EDGE_CURVE('',#291,#292,#341,.F.);
#217=EDGE_CURVE('',#293,#292,#342,.T.);
#218=EDGE_CURVE('',#290,#293,#343,.T.);
#219=EDGE_CURVE('',#293,#283,#344,.T.);
#220=EDGE_CURVE('',#292,#294,#345,.F.);
#221=EDGE_CURVE('',#294,#285,#30,.T.);
#222=EDGE_CURVE('',#295,#296,#346,.T.);
#223=EDGE_CURVE('',#295,#297,#347,.T.);
#224=EDGE_CURVE('',#297,#298,#31,.T.);
#225=EDGE_CURVE('',#296,#298,#348,.T.);
#226=EDGE_CURVE('',#295,#299,#349,.F.);
#227=EDGE_CURVE('',#299,#300,#350,.T.);
#228=EDGE_CURVE('',#300,#301,#351,.F.);
#229=EDGE_CURVE('',#301,#302,#352,.F.);
#230=EDGE_CURVE('',#297,#302,#353,.F.);
#231=EDGE_CURVE('',#296,#303,#354,.F.);
#232=EDGE_CURVE('',#298,#304,#355,.F.);
#233=EDGE_CURVE('',#304,#305,#356,.F.);
#234=EDGE_CURVE('',#306,#305,#357,.F.);
#235=EDGE_CURVE('',#303,#306,#358,.T.);
#236=EDGE_CURVE('',#307,#308,#359,.T.);
#237=EDGE_CURVE('',#309,#307,#16,.F.);
#238=EDGE_CURVE('',#310,#309,#360,.T.);
#239=EDGE_CURVE('',#283,#310,#361,.F.);
#240=EDGE_CURVE('',#282,#308,#362,.F.);
#241=EDGE_CURVE('',#311,#312,#17,.T.);
#242=EDGE_CURVE('',#311,#313,#363,.T.);
#243=EDGE_CURVE('',#313,#290,#364,.F.);
#244=EDGE_CURVE('',#293,#314,#365,.F.);
#245=EDGE_CURVE('',#314,#312,#366,.F.);
#246=EDGE_CURVE('',#315,#289,#367,.T.);
#247=EDGE_CURVE('',#313,#315,#368,.T.);
#248=EDGE_CURVE('',#316,#299,#369,.T.);
#249=EDGE_CURVE('',#303,#317,#370,.T.);
#250=EDGE_CURVE('',#317,#318,#371,.T.);
#251=EDGE_CURVE('',#312,#318,#18,.T.);
#252=EDGE_CURVE('',#319,#309,#19,.F.);
#253=EDGE_CURVE('',#319,#316,#372,.T.);
#254=EDGE_CURVE('',#320,#308,#373,.T.);
#255=EDGE_CURVE('',#281,#320,#374,.T.);
#256=EDGE_CURVE('',#291,#288,#32,.T.);
#257=EDGE_CURVE('',#315,#321,#375,.T.);
#258=EDGE_CURVE('',#322,#321,#376,.T.);
#259=EDGE_CURVE('',#322,#320,#377,.T.);
#260=EDGE_CURVE('',#323,#324,#20,.T.);
#261=EDGE_CURVE('',#323,#311,#378,.T.);
#262=EDGE_CURVE('',#318,#324,#379,.T.);
#263=EDGE_CURVE('',#325,#326,#380,.T.);
#264=EDGE_CURVE('',#325,#317,#381,.T.);
#265=EDGE_CURVE('',#300,#306,#33,.T.);
#266=EDGE_CURVE('',#316,#326,#382,.T.);
#267=EDGE_CURVE('',#327,#328,#21,.F.);
#268=EDGE_CURVE('',#327,#319,#383,.T.);
#269=EDGE_CURVE('',#307,#328,#384,.T.);
#270=EDGE_CURVE('',#321,#323,#385,.T.);
#271=EDGE_CURVE('',#324,#325,#386,.T.);
#272=EDGE_CURVE('',#326,#327,#387,.T.);
#273=EDGE_CURVE('',#328,#322,#388,.T.);
#274=EDGE_CURVE('',#302,#304,#34,.T.);
#275=EDGE_CURVE('',#301,#305,#35,.T.);
#276=EDGE_CURVE('',#329,#294,#389,.T.);
#277=EDGE_CURVE('',#330,#291,#390,.T.);
#278=EDGE_CURVE('',#330,#329,#391,.T.);
#279=EDGE_CURVE('',#329,#286,#36,.T.);
#280=EDGE_CURVE('',#330,#287,#37,.T.);
#281=VERTEX_POINT('',#592);
#282=VERTEX_POINT('',#593);
#283=VERTEX_POINT('',#598);
#284=VERTEX_POINT('',#603);
#285=VERTEX_POINT('',#608);
#286=VERTEX_POINT('',#613);
#287=VERTEX_POINT('',#618);
#288=VERTEX_POINT('',#623);
#289=VERTEX_POINT('',#644);
#290=VERTEX_POINT('',#645);
#291=VERTEX_POINT('',#650);
#292=VERTEX_POINT('',#655);
#293=VERTEX_POINT('',#660);
#294=VERTEX_POINT('',#674);
#295=VERTEX_POINT('',#681);
#296=VERTEX_POINT('',#682);
#297=VERTEX_POINT('',#687);
#298=VERTEX_POINT('',#689);
#299=VERTEX_POINT('',#710);
#300=VERTEX_POINT('',#715);
#301=VERTEX_POINT('',#720);
#302=VERTEX_POINT('',#725);
#303=VERTEX_POINT('',#746);
#304=VERTEX_POINT('',#751);
#305=VERTEX_POINT('',#756);
#306=VERTEX_POINT('',#761);
#307=VERTEX_POINT('',#771);
#308=VERTEX_POINT('',#772);
#309=VERTEX_POINT('',#774);
#310=VERTEX_POINT('',#779);
#311=VERTEX_POINT('',#790);
#312=VERTEX_POINT('',#791);
#313=VERTEX_POINT('',#796);
#314=VERTEX_POINT('',#805);
#315=VERTEX_POINT('',#815);
#316=VERTEX_POINT('',#825);
#317=VERTEX_POINT('',#830);
#318=VERTEX_POINT('',#835);
#319=VERTEX_POINT('',#838);
#320=VERTEX_POINT('',#848);
#321=VERTEX_POINT('',#859);
#322=VERTEX_POINT('',#864);
#323=VERTEX_POINT('',#871);
#324=VERTEX_POINT('',#872);
#325=VERTEX_POINT('',#886);
#326=VERTEX_POINT('',#887);
#327=VERTEX_POINT('',#899);
#328=VERTEX_POINT('',#900);
#329=VERTEX_POINT('',#994);
#330=VERTEX_POINT('',#999);
#331=B_SPLINE_CURVE_WITH_KNOTS('',3,(#588,#589,#590,#591),.UNSPECIFIED.,
 .F.,.F.,(4,4),(0.942925123056308,0.987914715452814),.UNSPECIFIED.);
#332=B_SPLINE_CURVE_WITH_KNOTS('',3,(#594,#595,#596,#597),.UNSPECIFIED.,
 .F.,.F.,(4,4),(0.0120108743080994,0.012274738842328),.UNSPECIFIED.);
#333=B_SPLINE_CURVE_WITH_KNOTS('',3,(#599,#600,#601,#602),.UNSPECIFIED.,
 .F.,.F.,(4,4),(0.01321745250947,0.021332280875098),.UNSPECIFIED.);
#334=B_SPLINE_CURVE_WITH_KNOTS('',3,(#604,#605,#606,#607),.UNSPECIFIED.,
 .F.,.F.,(4,4),(0.00316825072585443,0.00516961620800242),.UNSPECIFIED.);
#335=B_SPLINE_CURVE_WITH_KNOTS('',3,(#609,#610,#611,#612),.UNSPECIFIED.,
 .F.,.F.,(4,4),(0.000723743794369461,0.00184123292108214),.UNSPECIFIED.);
#336=B_SPLINE_CURVE_WITH_KNOTS('',3,(#614,#615,#616,#617),.UNSPECIFIED.,
 .F.,.F.,(4,4),(0.00144748758733762,0.00368383406893722),.UNSPECIFIED.);
#337=B_SPLINE_CURVE_WITH_KNOTS('',3,(#619,#620,#621,#622),.UNSPECIFIED.,
 .F.,.F.,(4,4),(2.77555756156289E-17,0.000900022412726611),
 .UNSPECIFIED.);
#338=B_SPLINE_CURVE_WITH_KNOTS('',3,(#624,#625,#626,#627),.UNSPECIFIED.,
 .F.,.F.,(4,4),(0.,0.00825910492365383),.UNSPECIFIED.);
#339=B_SPLINE_CURVE_WITH_KNOTS('',3,(#640,#641,#642,#643),.UNSPECIFIED.,
 .F.,.F.,(4,4),(0.942785827987345,0.98786671003659),.UNSPECIFIED.);
#340=B_SPLINE_CURVE_WITH_KNOTS('',3,(#646,#647,#648,#649),.UNSPECIFIED.,
 .F.,.F.,(4,4),(0.038688469658201,0.0467852362725793),.UNSPECIFIED.);
#341=B_SPLINE_CURVE_WITH_KNOTS('',3,(#651,#652,#653,#654),.UNSPECIFIED.,
 .F.,.F.,(4,4),(-0.000100005957951516,0.00110006536632303),
 .UNSPECIFIED.);
#342=B_SPLINE_CURVE_WITH_KNOTS('',3,(#656,#657,#658,#659),.UNSPECIFIED.,
 .F.,.F.,(4,4),(0.038694976802939,0.0466479449450813),.UNSPECIFIED.);
#343=B_SPLINE_CURVE_WITH_KNOTS('',3,(#661,#662,#663,#664),.UNSPECIFIED.,
 .F.,.F.,(4,4),(0.0120265250153762,0.0122908257300656),.UNSPECIFIED.);
#344=B_SPLINE_CURVE_WITH_KNOTS('',3,(#666,#667,#668,#669),.UNSPECIFIED.,
 .F.,.F.,(4,4),(0.0113310112044298,0.0188311635478964),.UNSPECIFIED.);
#345=B_SPLINE_CURVE_WITH_KNOTS('',3,(#670,#671,#672,#673),.UNSPECIFIED.,
 .F.,.F.,(4,4),(0.01337063111524,0.0153711396316635),.UNSPECIFIED.);
#346=B_SPLINE_CURVE_WITH_KNOTS('',3,(#677,#678,#679,#680),.UNSPECIFIED.,
 .F.,.F.,(4,4),(0.0113370792787405,0.0188370879404541),.UNSPECIFIED.);
#347=B_SPLINE_CURVE_WITH_KNOTS('',3,(#683,#684,#685,#686),.UNSPECIFIED.,
 .F.,.F.,(4,4),(0.,0.00707710299175919),.UNSPECIFIED.);
#348=B_SPLINE_CURVE_WITH_KNOTS('',3,(#690,#691,#692,#693),.UNSPECIFIED.,
 .F.,.F.,(4,4),(0.0187302432187692,0.0256501957432895),.UNSPECIFIED.);
#349=B_SPLINE_CURVE_WITH_KNOTS('',3,(#706,#707,#708,#709),.UNSPECIFIED.,
 .F.,.F.,(4,4),(0.000155216881075767,0.00139564652998288),.UNSPECIFIED.);
#350=B_SPLINE_CURVE_WITH_KNOTS('',3,(#711,#712,#713,#714),.UNSPECIFIED.,
 .F.,.F.,(4,4),(0.0399891754424693,0.044751720829651),.UNSPECIFIED.);
#351=B_SPLINE_CURVE_WITH_KNOTS('',3,(#716,#717,#718,#719),.UNSPECIFIED.,
 .F.,.F.,(4,4),(0.00605144761632489,0.00695145131635504),.UNSPECIFIED.);
#352=B_SPLINE_CURVE_WITH_KNOTS('',3,(#721,#722,#723,#724),.UNSPECIFIED.,
 .F.,.F.,(4,4),(0.,0.00223648705983327),.UNSPECIFIED.);
#353=B_SPLINE_CURVE_WITH_KNOTS('',3,(#726,#727,#728,#729),.UNSPECIFIED.,
 .F.,.F.,(4,4),(0.,0.00109998014989767),.UNSPECIFIED.);
#354=B_SPLINE_CURVE_WITH_KNOTS('',3,(#742,#743,#744,#745),.UNSPECIFIED.,
 .F.,.F.,(4,4),(0.00015522247412176,0.00139569472222863),.UNSPECIFIED.);
#355=B_SPLINE_CURVE_WITH_KNOTS('',3,(#747,#748,#749,#750),.UNSPECIFIED.,
 .F.,.F.,(4,4),(0.,0.00109998015919768),.UNSPECIFIED.);
#356=B_SPLINE_CURVE_WITH_KNOTS('',3,(#752,#753,#754,#755),.UNSPECIFIED.,
 .F.,.F.,(4,4),(0.,0.00223648708939565),.UNSPECIFIED.);
#357=B_SPLINE_CURVE_WITH_KNOTS('',3,(#757,#758,#759,#760),.UNSPECIFIED.,
 .F.,.F.,(4,4),(0.00605145012773809,0.00695145383629338),.UNSPECIFIED.);
#358=B_SPLINE_CURVE_WITH_KNOTS('',3,(#762,#763,#764,#765),.UNSPECIFIED.,
 .F.,.F.,(4,4),(0.0391278813963543,0.0437331081289105),.UNSPECIFIED.);
#359=B_SPLINE_CURVE_WITH_KNOTS('',3,(#767,#768,#769,#770),.UNSPECIFIED.,
 .F.,.F.,(4,4),(0.000272902575773984,0.000341153038282296),
 .UNSPECIFIED.);
#360=B_SPLINE_CURVE_WITH_KNOTS('',3,(#775,#776,#777,#778),.UNSPECIFIED.,
 .F.,.F.,(4,4),(0.878788881007503,1.),.UNSPECIFIED.);
#361=B_SPLINE_CURVE_WITH_KNOTS('',3,(#780,#781,#782,#783),.UNSPECIFIED.,
 .F.,.F.,(4,4),(0.0570735612340849,0.930373661954111),.UNSPECIFIED.);
#362=B_SPLINE_CURVE_WITH_KNOTS('',3,(#784,#785,#786,#787),.UNSPECIFIED.,
 .F.,.F.,(4,4),(0.000235539908077708,0.121211380222022),.UNSPECIFIED.);
#363=B_SPLINE_CURVE_WITH_KNOTS('',3,(#792,#793,#794,#795),.UNSPECIFIED.,
 .F.,.F.,(4,4),(2.03133082137048E-16,5.54293089987415E-5),.UNSPECIFIED.);
#364=B_SPLINE_CURVE_WITH_KNOTS('',3,(#797,#798,#799,#800),.UNSPECIFIED.,
 .F.,.F.,(4,4),(0.878786658827672,0.999844344075425),.UNSPECIFIED.);
#365=B_SPLINE_CURVE_WITH_KNOTS('',3,(#801,#802,#803,#804),.UNSPECIFIED.,
 .F.,.F.,(4,4),(0.0572128477350047,0.930182926847952),.UNSPECIFIED.);
#366=B_SPLINE_CURVE_WITH_KNOTS('',3,(#806,#807,#808,#809),.UNSPECIFIED.,
 .F.,.F.,(4,4),(0.,0.121213588407921),.UNSPECIFIED.);
#367=B_SPLINE_CURVE_WITH_KNOTS('',3,(#811,#812,#813,#814),.UNSPECIFIED.,
 .F.,.F.,(4,4),(0.00188452875959009,0.00209114736079552),.UNSPECIFIED.);
#368=B_SPLINE_CURVE_WITH_KNOTS('',3,(#816,#817,#818,#819),.UNSPECIFIED.,
 .F.,.F.,(4,4),(5.54293089987415E-5,0.00156191553663191),.UNSPECIFIED.);
#369=B_SPLINE_CURVE_WITH_KNOTS('',3,(#821,#822,#823,#824),.UNSPECIFIED.,
 .F.,.F.,(4,4),(0.00186729366225555,0.0020700218641988),.UNSPECIFIED.);
#370=B_SPLINE_CURVE_WITH_KNOTS('',3,(#826,#827,#828,#829),.UNSPECIFIED.,
 .F.,.F.,(4,4),(0.,0.000197270116103523),.UNSPECIFIED.);
#371=B_SPLINE_CURVE_WITH_KNOTS('',3,(#831,#832,#833,#834),.UNSPECIFIED.,
 .F.,.F.,(4,4),(0.,0.00159133830590883),.UNSPECIFIED.);
#372=B_SPLINE_CURVE_WITH_KNOTS('',3,(#839,#840,#841,#842),.UNSPECIFIED.,
 .F.,.F.,(4,4),(0.,0.00158601364839561),.UNSPECIFIED.);
#373=B_SPLINE_CURVE_WITH_KNOTS('',3,(#844,#845,#846,#847),.UNSPECIFIED.,
 .F.,.F.,(4,4),(0.,0.00150705648315742),.UNSPECIFIED.);
#374=B_SPLINE_CURVE_WITH_KNOTS('',3,(#849,#850,#851,#852),.UNSPECIFIED.,
 .F.,.F.,(4,4),(0.00182879454005526,0.00202219270486879),.UNSPECIFIED.);
#375=B_SPLINE_CURVE_WITH_KNOTS('',3,(#855,#856,#857,#858),.UNSPECIFIED.,
 .F.,.F.,(4,4),(0.,0.00125958895464995),.UNSPECIFIED.);
#376=B_SPLINE_CURVE_WITH_KNOTS('',3,(#860,#861,#862,#863),.UNSPECIFIED.,
 .F.,.F.,(4,4),(0.,0.00790015812206774),.UNSPECIFIED.);
#377=B_SPLINE_CURVE_WITH_KNOTS('',3,(#865,#866,#867,#868),.UNSPECIFIED.,
 .F.,.F.,(4,4),(0.,0.00125953892300138),.UNSPECIFIED.);
#378=B_SPLINE_CURVE_WITH_KNOTS('',3,(#873,#874,#875,#876),.UNSPECIFIED.,
 .F.,.F.,(4,4),(0.,0.00126058601572857),.UNSPECIFIED.);
#379=B_SPLINE_CURVE_WITH_KNOTS('',3,(#877,#878,#879,#880),.UNSPECIFIED.,
 .F.,.F.,(4,4),(0.,0.00129094420118769),.UNSPECIFIED.);
#380=B_SPLINE_CURVE_WITH_KNOTS('',3,(#882,#883,#884,#885),.UNSPECIFIED.,
 .F.,.F.,(4,4),(0.,0.00790001003360432),.UNSPECIFIED.);
#381=B_SPLINE_CURVE_WITH_KNOTS('',3,(#888,#889,#890,#891),.UNSPECIFIED.,
 .F.,.F.,(4,4),(0.,0.00129311718244235),.UNSPECIFIED.);
#382=B_SPLINE_CURVE_WITH_KNOTS('',3,(#893,#894,#895,#896),.UNSPECIFIED.,
 .F.,.F.,(4,4),(0.,0.00129306886668725),.UNSPECIFIED.);
#383=B_SPLINE_CURVE_WITH_KNOTS('',3,(#901,#902,#903,#904),.UNSPECIFIED.,
 .F.,.F.,(4,4),(0.,0.00129092429540047),.UNSPECIFIED.);
#384=B_SPLINE_CURVE_WITH_KNOTS('',3,(#905,#906,#907,#908),.UNSPECIFIED.,
 .F.,.F.,(4,4),(0.,0.00126053850140849),.UNSPECIFIED.);
#385=B_SPLINE_CURVE_WITH_KNOTS('',3,(#910,#911,#912,#913),.UNSPECIFIED.,
 .F.,.F.,(4,4),(0.,0.00156181895930345),.UNSPECIFIED.);
#386=B_SPLINE_CURVE_WITH_KNOTS('',3,(#914,#915,#916,#917),.UNSPECIFIED.,
 .F.,.F.,(4,4),(0.,0.00159086326064007),.UNSPECIFIED.);
#387=B_SPLINE_CURVE_WITH_KNOTS('',3,(#918,#919,#920,#921),.UNSPECIFIED.,
 .F.,.F.,(4,4),(0.,0.00158558745188144),.UNSPECIFIED.);
#388=B_SPLINE_CURVE_WITH_KNOTS('',3,(#922,#923,#924,#925),.UNSPECIFIED.,
 .F.,.F.,(4,4),(0.,0.00157506991664809),.UNSPECIFIED.);
#389=B_SPLINE_CURVE_WITH_KNOTS('',3,(#990,#991,#992,#993),.UNSPECIFIED.,
 .F.,.F.,(4,4),(0.000718587114798572,0.001836076294338),.UNSPECIFIED.);
#390=B_SPLINE_CURVE_WITH_KNOTS('',3,(#995,#996,#997,#998),.UNSPECIFIED.,
 .F.,.F.,(4,4),(1.38777878078145E-17,0.000900022440447975),
 .UNSPECIFIED.);
#391=B_SPLINE_CURVE_WITH_KNOTS('',3,(#1000,#1001,#1002,#1003),
 .UNSPECIFIED.,.F.,.F.,(4,4),(0.00143717422846759,0.00367352061174181),
 .UNSPECIFIED.);
#392=EDGE_LOOP('',(#56,#57,#58,#59,#60,#61,#62,#63));
#393=EDGE_LOOP('',(#64,#65,#66,#67,#68));
#394=EDGE_LOOP('',(#69,#70,#71,#72,#73,#74));
#395=EDGE_LOOP('',(#75,#76,#77,#78));
#396=EDGE_LOOP('',(#79,#80,#81,#82,#83,#84));
#397=EDGE_LOOP('',(#85,#86,#87,#88,#89,#90));
#398=EDGE_LOOP('',(#91,#92,#93,#94,#95,#96));
#399=EDGE_LOOP('',(#97,#98,#99,#100,#101,#102));
#400=EDGE_LOOP('',(#103,#104,#105,#106));
#401=EDGE_LOOP('',(#107,#108,#109,#110,#111,#112,#113,#114,#115,#116,#117,
#118,#119,#120));
#402=EDGE_LOOP('',(#121,#122,#123,#124));
#403=EDGE_LOOP('',(#125,#126,#127,#128,#129,#130,#131,#132));
#404=EDGE_LOOP('',(#133,#134,#135,#136,#137));
#405=EDGE_LOOP('',(#138,#139,#140,#141,#142,#143,#144,#145));
#406=EDGE_LOOP('',(#146,#147,#148,#149,#150));
#407=EDGE_LOOP('',(#151,#152,#153,#154,#155,#156,#157,#158));
#408=EDGE_LOOP('',(#159,#160,#161,#162,#163));
#409=EDGE_LOOP('',(#164,#165,#166,#167));
#410=EDGE_LOOP('',(#168,#169,#170,#171));
#411=EDGE_LOOP('',(#172,#173,#174,#175,#176));
#412=EDGE_LOOP('',(#177,#178,#179,#180));
#413=EDGE_LOOP('',(#181,#182,#183,#184));
#414=EDGE_LOOP('',(#185,#186,#187,#188,#189));
#415=EDGE_LOOP('',(#190,#191,#192,#193));
#416=EDGE_LOOP('',(#194,#195,#196,#197));
#417=EDGE_LOOP('',(#198,#199,#200,#201));
#418=EDGE_LOOP('',(#202,#203,#204,#205));
#419=FACE_BOUND('',#392,.T.);
#420=FACE_BOUND('',#393,.T.);
#421=FACE_BOUND('',#394,.T.);
#422=FACE_BOUND('',#395,.T.);
#423=FACE_BOUND('',#396,.T.);
#424=FACE_BOUND('',#397,.T.);
#425=FACE_BOUND('',#398,.T.);
#426=FACE_BOUND('',#399,.T.);
#427=FACE_BOUND('',#400,.T.);
#428=FACE_BOUND('',#401,.T.);
#429=FACE_BOUND('',#402,.T.);
#430=FACE_BOUND('',#403,.T.);
#431=FACE_BOUND('',#404,.T.);
#432=FACE_BOUND('',#405,.T.);
#433=FACE_BOUND('',#406,.T.);
#434=FACE_BOUND('',#407,.T.);
#435=FACE_BOUND('',#408,.T.);
#436=FACE_BOUND('',#409,.T.);
#437=FACE_BOUND('',#410,.T.);
#438=FACE_BOUND('',#411,.T.);
#439=FACE_BOUND('',#412,.T.);
#440=FACE_BOUND('',#413,.T.);
#441=FACE_BOUND('',#414,.T.);
#442=FACE_BOUND('',#415,.T.);
#443=FACE_BOUND('',#416,.T.);
#444=FACE_BOUND('',#417,.T.);
#445=FACE_BOUND('',#418,.T.);
#446=B_SPLINE_SURFACE_WITH_KNOTS('',1,3,((#576,#577,#578,#579,#580,#581),
(#582,#583,#584,#585,#586,#587)),.RULED_SURF.,.F.,.F.,.F.,(2,2),(4,1,1,
4),(0.,1.07447354547691),(0.86253548932158,0.885850246112603,0.942925123056302,
0.988662504078322),.UNSPECIFIED.);
#447=B_SPLINE_SURFACE_WITH_KNOTS('',1,3,((#628,#629,#630,#631,#632,#633),
(#634,#635,#636,#637,#638,#639)),.RULED_SURF.,.F.,.F.,.F.,(2,2),(4,1,1,
4),(0.,0.850481078540957),(0.877262665819592,0.885571655974694,0.942785827987347,
0.988526376304765),.UNSPECIFIED.);
#448=B_SPLINE_SURFACE_WITH_KNOTS('',1,3,((#694,#695,#696,#697,#698,#699),
(#700,#701,#702,#703,#704,#705)),.RULED_SURF.,.F.,.F.,.F.,(2,2),(4,1,1,
4),(-0.00432415681740542,0.724709466260018),(-0.114042516758112,-0.0570735612340827,
0.,0.0492285564027514),.UNSPECIFIED.);
#449=B_SPLINE_SURFACE_WITH_KNOTS('',1,3,((#730,#731,#732,#733,#734,#735),
(#736,#737,#738,#739,#740,#741)),.RULED_SURF.,.F.,.F.,.F.,(2,2),(4,1,1,
4),(-0.00422813952804094,0.708609862359803),(-0.112269558558322,-0.0572128477350064,
0.,0.0493302127486519),.UNSPECIFIED.);
#450=B_SPLINE_SURFACE_WITH_KNOTS('',1,3,((#978,#979,#980,#981,#982,#983),
(#984,#985,#986,#987,#988,#989)),.RULED_SURF.,.F.,.F.,.F.,(2,2),(4,1,1,
4),(0.828435041180331,1.05444919717437),(0.863207070872636,0.885571655974694,
0.942785827987347,0.983208771419944),.UNSPECIFIED.);
#451=ADVANCED_FACE('',(#419),#446,.T.);
#452=ADVANCED_FACE('',(#420),#447,.F.);
#453=ADVANCED_FACE('',(#421),#46,.T.);
#454=ADVANCED_FACE('',(#422),#47,.T.);
#455=ADVANCED_FACE('',(#423),#448,.T.);
#456=ADVANCED_FACE('',(#424),#449,.F.);
#457=ADVANCED_FACE('',(#425),#22,.F.);
#458=ADVANCED_FACE('',(#426),#23,.F.);
#459=ADVANCED_FACE('',(#427),#24,.F.);
#460=ADVANCED_FACE('',(#428),#25,.F.);
#461=ADVANCED_FACE('',(#429),#26,.F.);
#462=ADVANCED_FACE('',(#430),#48,.F.);
#463=ADVANCED_FACE('',(#431),#27,.F.);
#464=ADVANCED_FACE('',(#432),#49,.F.);
#465=ADVANCED_FACE('',(#433),#28,.T.);
#466=ADVANCED_FACE('',(#434),#29,.T.);
#467=ADVANCED_FACE('',(#435),#12,.T.);
#468=ADVANCED_FACE('',(#436),#13,.T.);
#469=ADVANCED_FACE('',(#437),#14,.T.);
#470=ADVANCED_FACE('',(#438),#15,.T.);
#471=ADVANCED_FACE('',(#439),#50,.T.);
#472=ADVANCED_FACE('',(#440),#51,.F.);
#473=ADVANCED_FACE('',(#441),#450,.F.);
#474=ADVANCED_FACE('',(#442),#52,.T.);
#475=ADVANCED_FACE('',(#443),#53,.F.);
#476=ADVANCED_FACE('',(#444),#54,.T.);
#477=ADVANCED_FACE('',(#445),#55,.T.);
#478=CLOSED_SHELL('',(#451,#452,#453,#454,#455,#456,#457,#458,#459,#460,
#461,#462,#463,#464,#465,#466,#467,#468,#469,#470,#471,#472,#473,#474,#475,
#476,#477));
#479=STYLED_ITEM('',(#480),#489);
#480=PRESENTATION_STYLE_ASSIGNMENT((#481));
#481=SURFACE_STYLE_USAGE(.BOTH.,#482);
#482=SURFACE_SIDE_STYLE('',(#485,#483));
#483=SURFACE_STYLE_RENDERING_WITH_PROPERTIES(.CONSTANT_SHADING.,#488,(#484));
#484=SURFACE_STYLE_TRANSPARENT(0.5);
#485=SURFACE_STYLE_FILL_AREA(#486);
#486=FILL_AREA_STYLE('',(#487));
#487=FILL_AREA_STYLE_COLOUR('',#488);
#488=COLOUR_RGB('',0.941176470588235,0.262745098039216,0.207843137254902);
#489=MANIFOLD_SOLID_BREP('Body (1)',#478);
#490=SHAPE_DEFINITION_REPRESENTATION(#1016,#491);
#491=SHAPE_REPRESENTATION('C03-02',(#492),#1011);
#492=AXIS2_PLACEMENT_3D('',#575,#517,#518);
#493=AXIS2_PLACEMENT_3D('',#665,#519,#520);
#494=AXIS2_PLACEMENT_3D('',#676,#522,#523);
#495=AXIS2_PLACEMENT_3D('',#766,#525,#526);
#496=AXIS2_PLACEMENT_3D('',#773,#527,#528);
#497=AXIS2_PLACEMENT_3D('',#788,#529,#530);
#498=AXIS2_PLACEMENT_3D('',#789,#531,#532);
#499=AXIS2_PLACEMENT_3D('',#810,#533,#534);
#500=AXIS2_PLACEMENT_3D('',#820,#535,#536);
#501=AXIS2_PLACEMENT_3D('',#836,#537,#538);
#502=AXIS2_PLACEMENT_3D('',#837,#539,#540);
#503=AXIS2_PLACEMENT_3D('',#843,#541,#542);
#504=AXIS2_PLACEMENT_3D('',#853,#543,#544);
#505=AXIS2_PLACEMENT_3D('',#869,#546,#547);
#506=AXIS2_PLACEMENT_3D('',#870,#548,#549);
#507=AXIS2_PLACEMENT_3D('',#881,#550,#551);
#508=AXIS2_PLACEMENT_3D('',#897,#553,#554);
#509=AXIS2_PLACEMENT_3D('',#898,#555,#556);
#510=AXIS2_PLACEMENT_3D('',#909,#557,#558);
#511=AXIS2_PLACEMENT_3D('',#974,#559,#560);
#512=AXIS2_PLACEMENT_3D('',#976,#562,#563);
#513=AXIS2_PLACEMENT_3D('',#1004,#565,#566);
#514=AXIS2_PLACEMENT_3D('',#1006,#568,#569);
#515=AXIS2_PLACEMENT_3D('',#1008,#571,#572);
#516=AXIS2_PLACEMENT_3D('',#1009,#573,#574);
#517=DIRECTION('',(0.,0.,1.));
#518=DIRECTION('',(1.,0.,0.));
#519=DIRECTION('',(-0.427564127544126,-0.903978280817702,-0.00349065141522373));
#520=DIRECTION('',(-0.903983788196291,0.427566732426977,0.));
#521=DIRECTION('',(0.00467558608703819,0.0016499241791378,-0.999987708246929));
#522=DIRECTION('',(0.422336533809313,0.906432384440578,-0.00349065141522373));
#523=DIRECTION('',(0.906437906770498,-0.42233910684368,0.));
#524=DIRECTION('',(-0.00168980986623541,0.0046382691053386,0.999987815426929));
#525=DIRECTION('',(0.,0.,-1.));
#526=DIRECTION('',(-1.,0.,0.));
#527=DIRECTION('',(0.,0.,-1.));
#528=DIRECTION('',(-1.,0.,0.));
#529=DIRECTION('',(0.,0.,-1.));
#530=DIRECTION('',(-1.,0.,0.));
#531=DIRECTION('',(0.,0.,-1.));
#532=DIRECTION('',(-1.,0.,0.));
#533=DIRECTION('',(0.,0.,-1.));
#534=DIRECTION('',(-1.,0.,0.));
#535=DIRECTION('',(0.,0.,-1.));
#536=DIRECTION('',(-1.,0.,0.));
#537=DIRECTION('',(0.,0.,-1.));
#538=DIRECTION('',(-1.,0.,0.));
#539=DIRECTION('',(0.,0.,-1.));
#540=DIRECTION('',(-1.,0.,0.));
#541=DIRECTION('',(0.,0.,-1.));
#542=DIRECTION('',(-1.,0.,0.));
#543=DIRECTION('',(-0.427564127544126,-0.903978280817702,-0.00349065141522373));
#544=DIRECTION('',(-0.903983788196291,0.427566732426977,0.));
#545=DIRECTION('',(0.00467558608703819,0.0016499241791378,-0.999987708246929));
#546=DIRECTION('',(0.,0.,1.));
#547=DIRECTION('',(-1.,0.,0.));
#548=DIRECTION('',(0.,0.,-1.));
#549=DIRECTION('',(-1.,0.,0.));
#550=DIRECTION('',(0.422336533809313,0.906432384440578,-0.00349065141522373));
#551=DIRECTION('',(0.906437906770498,-0.42233910684368,0.));
#552=DIRECTION('',(-0.00168980986623541,0.0046382691053386,0.999987815426929));
#553=DIRECTION('',(0.,0.,1.));
#554=DIRECTION('',(-1.,0.,0.));
#555=DIRECTION('',(0.,0.,-1.));
#556=DIRECTION('',(-1.,0.,0.));
#557=DIRECTION('',(0.,0.,-1.));
#558=DIRECTION('',(-1.,0.,0.));
#559=DIRECTION('',(-0.906432384440579,0.422336533809312,-0.00349065141522373));
#560=DIRECTION('',(0.422339106843679,0.906437906770499,0.));
#561=DIRECTION('',(-0.0016898098662354,0.00463826910533861,0.999987815426929));
#562=DIRECTION('',(-0.906432384440579,0.422336533809312,-0.00349065141522373));
#563=DIRECTION('',(0.422339106843679,0.906437906770499,0.));
#564=DIRECTION('',(-0.00168980986623541,0.0046382691053386,0.999987815426929));
#565=DIRECTION('',(-0.900215627821394,0.435430406355404,-0.00349065141522373));
#566=DIRECTION('',(0.435433059162609,0.900221112276474,0.));
#567=DIRECTION('',(0.00467558608703819,0.0016499241791378,-0.999987708246929));
#568=DIRECTION('',(-0.900215627821394,0.435430406355404,-0.00349065141522373));
#569=DIRECTION('',(0.435433059162609,0.900221112276474,0.));
#570=DIRECTION('',(0.00467558608703819,0.0016499241791378,-0.999987708246929));
#571=DIRECTION('',(-0.783128043896809,-0.621858528969144,0.00156102872817503));
#572=DIRECTION('',(-0.00168980986623541,0.0046382691053386,0.999987815426929));
#573=DIRECTION('',(-0.0131378108503927,0.999912433665881,0.00158837225957922));
#574=DIRECTION('',(0.00467558608703819,0.0016499241791378,-0.999987708246929));
#575=CARTESIAN_POINT('',(0.,0.,0.));
#576=CARTESIAN_POINT('',(134.617900311189,-88.5668016286087,-25.7810518103687));
#577=CARTESIAN_POINT('',(134.706785390767,-88.4296885403826,-25.7810522735476));
#578=CARTESIAN_POINT('',(135.013262488334,-87.9569205402039,-25.7810538705953));
#579=CARTESIAN_POINT('',(135.494108582682,-87.2151729570289,-25.7810563762773));
#580=CARTESIAN_POINT('',(135.882004074661,-86.6079246169053,-25.7810587854044));
#581=CARTESIAN_POINT('',(136.053756820801,-86.3372697570202,-25.7810599325876));
#582=CARTESIAN_POINT('',(126.092803673675,-82.958033842091,-26.0315087419888));
#583=CARTESIAN_POINT('',(126.176059830134,-82.8296038664146,-26.0315092051677));
#584=CARTESIAN_POINT('',(126.463128315723,-82.3867753695216,-26.0315108022154));
#585=CARTESIAN_POINT('',(126.913523341001,-81.6920012578913,-26.0315133078974));
#586=CARTESIAN_POINT('',(127.276854149393,-81.1232088068949,-26.0315157170244));
#587=CARTESIAN_POINT('',(127.437730120968,-80.8696940075541,-26.0315168642076));
#588=CARTESIAN_POINT('',(135.536078703416,-87.1476921012014,-25.781056714497));
#589=CARTESIAN_POINT('',(135.70660922817,-86.8824752700946,-25.7810576973365));
#590=CARTESIAN_POINT('',(135.876361268482,-86.6167579281594,-25.781058750379));
#591=CARTESIAN_POINT('',(136.045331899188,-86.3505446555735,-25.7810598763801));
#592=CARTESIAN_POINT('',(136.045331898702,-86.3505446552649,-25.7810598763801));
#593=CARTESIAN_POINT('',(135.536078703417,-87.1476921012019,-25.7810567145421));
#594=CARTESIAN_POINT('',(135.536078703416,-87.1476921012011,-25.7810567144969));
#595=CARTESIAN_POINT('',(135.488503032551,-87.2216839491874,-25.7810564402982));
#596=CARTESIAN_POINT('',(135.440866853203,-87.2956367112844,-25.7810561715557));
#597=CARTESIAN_POINT('',(135.393170173739,-87.3695503928944,-25.7810562956458));
#598=CARTESIAN_POINT('',(135.393170169744,-87.3695503903168,-25.7810561019402));
#599=CARTESIAN_POINT('',(135.393170174294,-87.369550391721,-25.7810562956499));
#600=CARTESIAN_POINT('',(132.94876755751,-86.2131414588021,-25.8468568764963));
#601=CARTESIAN_POINT('',(130.504364411397,-85.0567323625433,-25.9126349209818));
#602=CARTESIAN_POINT('',(128.059961324957,-83.900323284702,-25.9784155050644));
#603=CARTESIAN_POINT('',(128.059961324957,-83.900323284702,-25.9784155050644));
#604=CARTESIAN_POINT('',(128.059961324957,-83.900323284702,-25.9784155050644));
#605=CARTESIAN_POINT('',(127.457096576481,-83.6151173496763,-25.9946390139847));
#606=CARTESIAN_POINT('',(126.854231827922,-83.3299114146249,-26.0108625193571));
#607=CARTESIAN_POINT('',(126.251367079276,-83.0447054795467,-26.0270860210402));
#608=CARTESIAN_POINT('',(126.251367079276,-83.0447054795467,-26.0270860210402));
#609=CARTESIAN_POINT('',(126.737967230649,-82.0387280219298,-26.0304915777346));
#610=CARTESIAN_POINT('',(126.575767197231,-82.374053881092,-26.0293657708402));
#611=CARTESIAN_POINT('',(126.413567133977,-82.7093796702914,-26.028223542162));
#612=CARTESIAN_POINT('',(126.251367079276,-83.0447054795468,-26.0270860210402));
#613=CARTESIAN_POINT('',(126.737967230649,-82.0387280219298,-26.0304915777346));
#614=CARTESIAN_POINT('',(126.737967230649,-82.0387280219297,-26.0304915777346));
#615=CARTESIAN_POINT('',(127.483196467692,-82.0289606759773,-26.0152620907334));
#616=CARTESIAN_POINT('',(128.228425067788,-82.0191933879644,-26.0000013979585));
#617=CARTESIAN_POINT('',(128.973652766756,-82.0094261815985,-25.9846967602237));
#618=CARTESIAN_POINT('',(128.973652766756,-82.0094261815984,-25.9846967602236));
#619=CARTESIAN_POINT('',(128.973652766756,-82.0094261815984,-25.9846967602236));
#620=CARTESIAN_POINT('',(128.843017444737,-82.2794968565609,-25.9838445744482));
#621=CARTESIAN_POINT('',(128.712382082266,-82.549567442164,-25.9829708094877));
#622=CARTESIAN_POINT('',(128.581746680979,-82.8196379420228,-25.9820763383207));
#623=CARTESIAN_POINT('',(128.581746680979,-82.8196379420228,-25.9820763383207));
#624=CARTESIAN_POINT('',(136.045331898702,-86.3505446552648,-25.7810598763801));
#625=CARTESIAN_POINT('',(133.557470810254,-85.1735759517446,-25.8480930525915));
#626=CARTESIAN_POINT('',(131.069609097708,-83.9966070555451,-25.9150996824268));
#627=CARTESIAN_POINT('',(128.581746680979,-82.8196379420228,-25.9820763383207));
#628=CARTESIAN_POINT('',(134.607580291257,-88.2439569567704,-18.2833298168299));
#629=CARTESIAN_POINT('',(134.639195666438,-88.1952210505694,-18.283329985311));
#630=CARTESIAN_POINT('',(134.888508677562,-87.8108986930038,-18.2833313139223));
#631=CARTESIAN_POINT('',(135.311862645412,-87.1582877671807,-18.2833335700134));
#632=CARTESIAN_POINT('',(135.699540439447,-86.5518001579719,-18.2833360375163));
#633=CARTESIAN_POINT('',(135.870972681679,-86.2818399821597,-18.2833372118702));
#634=CARTESIAN_POINT('',(127.852489196542,-83.8155587453986,-18.4815746989202));
#635=CARTESIAN_POINT('',(127.882517998995,-83.7692685818546,-18.4815748674014));
#636=CARTESIAN_POINT('',(128.119319590536,-83.4042328992932,-18.4815761960127));
#637=CARTESIAN_POINT('',(128.52142814043,-82.7843723315557,-18.4815784521038));
#638=CARTESIAN_POINT('',(128.889650875087,-82.208320447111,-18.4815809196066));
#639=CARTESIAN_POINT('',(129.052480033862,-81.9519078417843,-18.4815820939606));
#640=CARTESIAN_POINT('',(135.354265241969,-87.0901830468993,-18.2833339199848));
#641=CARTESIAN_POINT('',(135.524808062947,-86.8251279805082,-18.2833349265296));
#642=CARTESIAN_POINT('',(135.69457230445,-86.5595720005805,-18.2833360059116));
#643=CARTESIAN_POINT('',(135.863555036818,-86.2935196912298,-18.2833371611097));
#644=CARTESIAN_POINT('',(135.863555036818,-86.2935196912299,-18.2833371611097));
#645=CARTESIAN_POINT('',(135.354265241969,-87.0901830468993,-18.2833339199848));
#646=CARTESIAN_POINT('',(135.863555036818,-86.2935196912298,-18.2833371610954));
#647=CARTESIAN_POINT('',(133.424594485907,-85.1396850874856,-18.3490502183093));
#648=CARTESIAN_POINT('',(130.985633333402,-83.9858502980112,-18.4147376858505));
#649=CARTESIAN_POINT('',(128.546671498021,-82.8320152977964,-18.4803960849413));
#650=CARTESIAN_POINT('',(128.546671498021,-82.8320152977964,-18.4803960849413));
#651=CARTESIAN_POINT('',(128.024111721267,-83.9123343044781,-18.4767482178337));
#652=CARTESIAN_POINT('',(128.198298329375,-83.552228005911,-18.4779728773969));
#653=CARTESIAN_POINT('',(128.372484944512,-83.1921217237444,-18.4792013956994));
#654=CARTESIAN_POINT('',(128.546671498021,-82.8320152977964,-18.4803960849413));
#655=CARTESIAN_POINT('',(128.024111721267,-83.912334304478,-18.4767482178336));
#656=CARTESIAN_POINT('',(135.211050894295,-87.3123634709615,-18.2833334825685));
#657=CARTESIAN_POINT('',(132.815404828099,-86.179020515693,-18.3478188912788));
#658=CARTESIAN_POINT('',(130.419758248862,-85.0456774021167,-18.4122824554531));
#659=CARTESIAN_POINT('',(128.024111721266,-83.912334304478,-18.4767482178338));
#660=CARTESIAN_POINT('',(135.211050889716,-87.3123634695487,-18.2833332876934));
#661=CARTESIAN_POINT('',(135.354265241969,-87.0901830468992,-18.2833339199848));
#662=CARTESIAN_POINT('',(135.306587888874,-87.1642824661392,-18.2833336385928));
#663=CARTESIAN_POINT('',(135.258849769989,-87.2383426060744,-18.2833333628854));
#664=CARTESIAN_POINT('',(135.211050893735,-87.3123634721431,-18.2833334825643));
#665=CARTESIAN_POINT('',(-9.0406297724874,-19.1141689228806,-10.5033161188445));
#666=CARTESIAN_POINT('',(135.211050889717,-87.3123634695487,-18.2833332876934));
#667=CARTESIAN_POINT('',(135.27175974432,-87.3314269250954,-20.7825741580377));
#668=CARTESIAN_POINT('',(135.332466168122,-87.3504892306586,-23.2818150962059));
#669=CARTESIAN_POINT('',(135.393170169744,-87.3695503903168,-25.7810561019402));
#670=CARTESIAN_POINT('',(126.216291849808,-83.057082851733,-18.5253958202556));
#671=CARTESIAN_POINT('',(126.818898473715,-83.3421666693416,-18.5091799565069));
#672=CARTESIAN_POINT('',(127.421505097533,-83.627250486923,-18.4929640889847));
#673=CARTESIAN_POINT('',(128.024111721267,-83.912334304478,-18.4767482178338));
#674=CARTESIAN_POINT('',(126.216291849808,-83.057082851733,-18.5253958202556));
#675=CARTESIAN_POINT('',(126.176320799625,-83.0711878646524,-9.97661538391999));
#676=CARTESIAN_POINT('',(-16.9555563138889,-36.3905656005929,-10.5061086399766));
#677=CARTESIAN_POINT('',(124.463131839746,-102.340987415107,-25.7810596972109));
#678=CARTESIAN_POINT('',(124.411436014545,-102.307276114351,-23.281818707219));
#679=CARTESIAN_POINT('',(124.359739787346,-102.273564626333,-20.7825777280679));
#680=CARTESIAN_POINT('',(124.308043156728,-102.239852950391,-18.2833367597966));
#681=CARTESIAN_POINT('',(124.463131839747,-102.340987415107,-25.7810596972109));
#682=CARTESIAN_POINT('',(124.308043156728,-102.239852950391,-18.2833367597966));
#683=CARTESIAN_POINT('',(124.463131839747,-102.340987415107,-25.7810596972109));
#684=CARTESIAN_POINT('',(122.325334797316,-101.345133620607,-25.8371132418567));
#685=CARTESIAN_POINT('',(120.187535871097,-100.349278586697,-25.8930728646556));
#686=CARTESIAN_POINT('',(118.049735982191,-99.3534229189968,-25.9489843846486));
#687=CARTESIAN_POINT('',(118.049735982191,-99.3534229189968,-25.9489843846486));
#688=CARTESIAN_POINT('',(118.022761784663,-99.279382880803,-9.98631935465324));
#689=CARTESIAN_POINT('',(118.037059797607,-99.3186287350461,-18.4475308880502));
#690=CARTESIAN_POINT('',(124.308043156728,-102.239852950391,-18.2833367597966));
#691=CARTESIAN_POINT('',(122.217716887348,-101.266112543498,-18.3381438061199));
#692=CARTESIAN_POINT('',(120.127388829817,-100.292370960132,-18.3928617026979));
#693=CARTESIAN_POINT('',(118.037059797607,-99.3186287350461,-18.4475308880502));
#694=CARTESIAN_POINT('',(122.307113819869,-104.987185869085,-25.7800599129839));
#695=CARTESIAN_POINT('',(122.563843385277,-104.681262421678,-25.7800589439219));
#696=CARTESIAN_POINT('',(123.077773919828,-104.068853793916,-25.7800570040186));
#697=CARTESIAN_POINT('',(123.813552051456,-103.192087683258,-25.7800542267202));
#698=CARTESIAN_POINT('',(124.288629277154,-102.617937439076,-25.7800524879984));
#699=CARTESIAN_POINT('',(124.507781505873,-102.35134435298,-25.7800517013139));
#700=CARTESIAN_POINT('',(117.053122196547,-100.477212753922,-25.9499957155473));
#701=CARTESIAN_POINT('',(117.298823334902,-100.184430971793,-25.9499947464854));
#702=CARTESIAN_POINT('',(117.790676765085,-99.5983298051513,-25.9499928065821));
#703=CARTESIAN_POINT('',(118.494847802927,-98.7592272565695,-25.9499900292837));
#704=CARTESIAN_POINT('',(118.949516960266,-98.2097409942253,-25.9499882905618));
#705=CARTESIAN_POINT('',(119.159254985528,-97.9546000447609,-25.9499875038773));
#706=CARTESIAN_POINT('',(123.671625047634,-103.296069990242,-25.7810628444782));
#707=CARTESIAN_POINT('',(123.936686102252,-102.978724513652,-25.781060518366));
#708=CARTESIAN_POINT('',(124.200521720886,-102.660363672887,-25.78106064083));
#709=CARTESIAN_POINT('',(124.463131839747,-102.340987415107,-25.7810596972109));
#710=CARTESIAN_POINT('',(123.671625047637,-103.296069990245,-25.7810628444781));
#711=CARTESIAN_POINT('',(123.671625047637,-103.296069990245,-25.7810628444781));
#712=CARTESIAN_POINT('',(122.232990337145,-102.625907939918,-25.8187096305873));
#713=CARTESIAN_POINT('',(120.794355028051,-101.955745495574,-25.8563265261043));
#714=CARTESIAN_POINT('',(119.35571982351,-101.285583120044,-25.8939486406525));
#715=CARTESIAN_POINT('',(119.35571982351,-101.285583120044,-25.8939486406525));
#716=CARTESIAN_POINT('',(118.975602642041,-102.101355664669,-25.8882264159498));
#717=CARTESIAN_POINT('',(119.102308369198,-101.829431483135,-25.8901338252583));
#718=CARTESIAN_POINT('',(119.229014096354,-101.557507301593,-25.8920412334941));
#719=CARTESIAN_POINT('',(119.35571982351,-101.285583120044,-25.8939486406525));
#720=CARTESIAN_POINT('',(118.975602642041,-102.101355664669,-25.8882264159498));
#721=CARTESIAN_POINT('',(117.585158610156,-100.350456167699,-25.9419917812719));
#722=CARTESIAN_POINT('',(118.048639954187,-100.934089333456,-25.9240699978894));
#723=CARTESIAN_POINT('',(118.512121298148,-101.517722499111,-25.906148209378));
#724=CARTESIAN_POINT('',(118.975602642041,-102.101355664669,-25.8882264159498));
#725=CARTESIAN_POINT('',(117.585158610156,-100.350456167699,-25.9419917812719));
#726=CARTESIAN_POINT('',(117.585158610156,-100.350456167699,-25.9419917812719));
#727=CARTESIAN_POINT('',(117.740017734336,-100.01811175396,-25.9443229945155));
#728=CARTESIAN_POINT('',(117.894876859553,-99.6857673549523,-25.9466562596012));
#729=CARTESIAN_POINT('',(118.049735982191,-99.3534229189968,-25.9489843846486));
#730=CARTESIAN_POINT('',(122.178728948464,-104.852105455865,-18.2823591151069));
#731=CARTESIAN_POINT('',(122.426276130244,-104.5572061269,-18.2823581984715));
#732=CARTESIAN_POINT('',(122.931064963524,-103.955858589297,-18.2823563293031));
#733=CARTESIAN_POINT('',(123.657653373276,-103.09028446751,-18.2823536388393));
#734=CARTESIAN_POINT('',(124.132720561615,-102.51629894957,-18.2823519238905));
#735=CARTESIAN_POINT('',(124.351823647958,-102.249835231571,-18.2823511463821));
#736=CARTESIAN_POINT('',(117.040953184876,-100.442936930243,-18.448519761357));
#737=CARTESIAN_POINT('',(117.278090682325,-100.160438504157,-18.4485188447215));
#738=CARTESIAN_POINT('',(117.761652481752,-99.5843784178255,-18.4485169755531));
#739=CARTESIAN_POINT('',(118.457686893962,-98.7552028211125,-18.4485142850893));
#740=CARTESIAN_POINT('',(118.912776882697,-98.2053541457588,-18.4485125701405));
#741=CARTESIAN_POINT('',(119.122666396322,-97.9500955760155,-18.4485117926321));
#742=CARTESIAN_POINT('',(123.516383903128,-103.194864488571,-18.2833398667067));
#743=CARTESIAN_POINT('',(123.78149713082,-102.877544082089,-18.2833375537725));
#744=CARTESIAN_POINT('',(124.045383569998,-102.559206920354,-18.2833376926967));
#745=CARTESIAN_POINT('',(124.308043156728,-102.239852950391,-18.2833367597966));
#746=CARTESIAN_POINT('',(123.516383903132,-103.194864488574,-18.2833398667067));
#747=CARTESIAN_POINT('',(117.572482420095,-100.315661968714,-18.4405350432118));
#748=CARTESIAN_POINT('',(117.727341546163,-99.9833175609284,-18.4428674672043));
#749=CARTESIAN_POINT('',(117.88220067344,-99.6509731703606,-18.4452022884129));
#750=CARTESIAN_POINT('',(118.037059797607,-99.318628735046,-18.4475308880502));
#751=CARTESIAN_POINT('',(117.572482420095,-100.315661968714,-18.4405350432118));
#752=CARTESIAN_POINT('',(118.9629264494,-102.0665614586,-18.3867681507975));
#753=CARTESIAN_POINT('',(118.499445106365,-101.482928295402,-18.4046904531619));
#754=CARTESIAN_POINT('',(118.035963763265,-100.899295132107,-18.4226127507027));
#755=CARTESIAN_POINT('',(117.572482420095,-100.315661968714,-18.4405350432118));
#756=CARTESIAN_POINT('',(118.9629264494,-102.0665614586,-18.3867681507975));
#757=CARTESIAN_POINT('',(118.9629264494,-102.0665614586,-18.3867681507975));
#758=CARTESIAN_POINT('',(119.08963217823,-101.79463728166,-18.3886765505333));
#759=CARTESIAN_POINT('',(119.21633790706,-101.522713104712,-18.3905849492168));
#760=CARTESIAN_POINT('',(119.34304363589,-101.250788927757,-18.3924933468433));
#761=CARTESIAN_POINT('',(119.34304363589,-101.250788927757,-18.3924933468434));
#762=CARTESIAN_POINT('',(123.516383903132,-103.194864488574,-18.2833398667066));
#763=CARTESIAN_POINT('',(122.125270829182,-102.546839531008,-18.31974176155));
#764=CARTESIAN_POINT('',(120.734157188269,-101.898814200248,-18.356115344645));
#765=CARTESIAN_POINT('',(119.34304363589,-101.250788927757,-18.3924933468433));
#766=CARTESIAN_POINT('',(0.,0.,-49.742938984759));
#767=CARTESIAN_POINT('',(135.5279268492,-87.2147901935783,-26.9806857567381));
#768=CARTESIAN_POINT('',(135.540300925629,-87.1955614260559,-26.9806857567381));
#769=CARTESIAN_POINT('',(135.552697172188,-87.1762543005992,-26.9799159520422));
#770=CARTESIAN_POINT('',(135.565116244436,-87.1568666252652,-26.9783546182039));
#771=CARTESIAN_POINT('',(135.5279268492,-87.2147901935783,-26.980685756738));
#772=CARTESIAN_POINT('',(135.565116244436,-87.1568666252652,-26.9783546182039));
#773=CARTESIAN_POINT('',(0.,0.,-26.980685756738));
#774=CARTESIAN_POINT('',(124.60553758111,-102.213984310732,-26.980685756738));
#775=CARTESIAN_POINT('',(124.580737093164,-102.197792708309,-25.7810592761333));
#776=CARTESIAN_POINT('',(124.589003804697,-102.203190069516,-26.1809347699351));
#777=CARTESIAN_POINT('',(124.597270634296,-102.20858726998,-26.5808102634658));
#778=CARTESIAN_POINT('',(124.60553758111,-102.213984310732,-26.9806857567289));
#779=CARTESIAN_POINT('',(124.580737093164,-102.197792708309,-25.7810592761252));
#780=CARTESIAN_POINT('',(124.580737093164,-102.197792708309,-25.7810592761211));
#781=CARTESIAN_POINT('',(128.462600610415,-97.4657387154503,-25.7810454268977));
#782=CARTESIAN_POINT('',(132.074547949108,-92.5122884244825,-25.78103758638));
#783=CARTESIAN_POINT('',(135.393170165749,-87.3695503877386,-25.7810559082345));
#784=CARTESIAN_POINT('',(135.565116244436,-87.1568666252651,-26.978354618204));
#785=CARTESIAN_POINT('',(135.55543687767,-87.1538088625911,-26.5792553183627));
#786=CARTESIAN_POINT('',(135.545757697248,-87.1507506880143,-26.1801560171579));
#787=CARTESIAN_POINT('',(135.536078703418,-87.1476921012022,-25.7810567145873));
#788=CARTESIAN_POINT('',(0.,0.,-49.742938984759));
#789=CARTESIAN_POINT('',(0.,0.,-17.0836854103683));
#790=CARTESIAN_POINT('',(135.294892948721,-87.1280192898696,-17.0836854103694));
#791=CARTESIAN_POINT('',(124.400953368127,-102.080373257951,-17.0836854103683));
#792=CARTESIAN_POINT('',(135.294892948721,-87.1280192898696,-17.0836854103706));
#793=CARTESIAN_POINT('',(135.305040103507,-87.112262496226,-17.0836854103706));
#794=CARTESIAN_POINT('',(135.315147554812,-87.0965847665392,-17.0842028765351));
#795=CARTESIAN_POINT('',(135.32521622633,-87.0809842952246,-17.0852259371015));
#796=CARTESIAN_POINT('',(135.32521622633,-87.0809842952246,-17.0852259371014));
#797=CARTESIAN_POINT('',(135.354265241968,-87.0901830468989,-18.2833339199396));
#798=CARTESIAN_POINT('',(135.344582048262,-87.0871172113223,-17.8839645937112));
#799=CARTESIAN_POINT('',(135.334899042966,-87.0840509608745,-17.4845952660993));
#800=CARTESIAN_POINT('',(135.32521622633,-87.0809842952245,-17.0852259371013));
#801=CARTESIAN_POINT('',(124.425749109547,-102.096572322521,-18.2833363430439));
#802=CARTESIAN_POINT('',(128.297286039548,-97.3783048455611,-18.2833226791216));
#803=CARTESIAN_POINT('',(131.900144032333,-92.4395997866658,-18.2833143856696));
#804=CARTESIAN_POINT('',(135.211050885699,-87.3123634669535,-18.2833330928225));
#805=CARTESIAN_POINT('',(124.425749109548,-102.096572322521,-18.2833363430439));
#806=CARTESIAN_POINT('',(124.400953368127,-102.080373257951,-17.0836854103596));
#807=CARTESIAN_POINT('',(124.409218491311,-102.085773113995,-17.48356905488));
#808=CARTESIAN_POINT('',(124.417483738734,-102.091172801843,-17.8834526991037));
#809=CARTESIAN_POINT('',(124.425749109547,-102.096572322521,-18.2833363430342));
#810=CARTESIAN_POINT('',(0.,0.,-49.742938984759));
#811=CARTESIAN_POINT('',(135.858547140091,-86.2919486399737,-18.0767852326935));
#812=CARTESIAN_POINT('',(135.860216440741,-86.2924723245492,-18.1456358754504));
#813=CARTESIAN_POINT('',(135.861885739649,-86.2929960083013,-18.2144865182558));
#814=CARTESIAN_POINT('',(135.863555036818,-86.2935196912299,-18.2833371611097));
#815=CARTESIAN_POINT('',(135.858547140091,-86.2919486399737,-18.0767852326935));
#816=CARTESIAN_POINT('',(135.32521622633,-87.0809842952246,-17.0852259371015));
#817=CARTESIAN_POINT('',(135.598867751982,-86.6569866736636,-17.1130312026036));
#818=CARTESIAN_POINT('',(135.846198560909,-86.2880747060361,-17.5674655880829));
#819=CARTESIAN_POINT('',(135.858547140091,-86.2919486399737,-18.0767852326935));
#820=CARTESIAN_POINT('',(0.,0.,-49.742938984759));
#821=CARTESIAN_POINT('',(123.675821236309,-103.298805595521,-25.9837291523034));
#822=CARTESIAN_POINT('',(123.674422507088,-103.297893727252,-25.9161737163526));
#823=CARTESIAN_POINT('',(123.67302377753,-103.296981858827,-25.8486182804108));
#824=CARTESIAN_POINT('',(123.671625047633,-103.296069990243,-25.7810628444782));
#825=CARTESIAN_POINT('',(123.675821236309,-103.298805595521,-25.9837291523034));
#826=CARTESIAN_POINT('',(123.516383903132,-103.194864488574,-18.2833398667067));
#827=CARTESIAN_POINT('',(123.515022807103,-103.193977159029,-18.2176032379164));
#828=CARTESIAN_POINT('',(123.513661710747,-103.193089829332,-18.1518666091349));
#829=CARTESIAN_POINT('',(123.512300614076,-103.192202499487,-18.086129980362));
#830=CARTESIAN_POINT('',(123.512300614076,-103.192202499487,-18.086129980362));
#831=CARTESIAN_POINT('',(123.512300614076,-103.192202499487,-18.086129980362));
#832=CARTESIAN_POINT('',(123.501160513166,-103.1849400146,-17.5480986316406));
#833=CARTESIAN_POINT('',(123.8115540208,-102.795856093805,-17.0836854103705));
#834=CARTESIAN_POINT('',(124.153654683088,-102.381003278021,-17.0836854103706));
#835=CARTESIAN_POINT('',(124.153654683088,-102.381003278021,-17.0836854103706));
#836=CARTESIAN_POINT('',(0.,0.,-17.0836854103683));
#837=CARTESIAN_POINT('',(0.,0.,-26.980685756738));
#838=CARTESIAN_POINT('',(124.354903387886,-102.518762126459,-26.980685756738));
#839=CARTESIAN_POINT('',(124.354903387886,-102.518762126459,-26.980685756738));
#840=CARTESIAN_POINT('',(124.013819900165,-102.93249521573,-26.9806857567381));
#841=CARTESIAN_POINT('',(123.686930752062,-103.306048180249,-26.5202934627503));
#842=CARTESIAN_POINT('',(123.675821236309,-103.298805595521,-25.9837291523034));
#843=CARTESIAN_POINT('',(0.,0.,-49.742938984759));
#844=CARTESIAN_POINT('',(136.050019003367,-86.3520150114365,-25.9743956445551));
#845=CARTESIAN_POINT('',(136.06236956342,-86.3558894101297,-26.4838375658686));
#846=CARTESIAN_POINT('',(135.837759023465,-86.7312382388382,-26.9440777907443));
#847=CARTESIAN_POINT('',(135.565116244436,-87.1568666252652,-26.9783546182039));
#848=CARTESIAN_POINT('',(136.050019003367,-86.3520150114365,-25.9743956445551));
#849=CARTESIAN_POINT('',(136.045331899226,-86.3505446555129,-25.7810598763655));
#850=CARTESIAN_POINT('',(136.046894268793,-86.351034774873,-25.8455051323864));
#851=CARTESIAN_POINT('',(136.04845663684,-86.3515248935141,-25.9099503884496));
#852=CARTESIAN_POINT('',(136.050019003367,-86.3520150114365,-25.9743956445551));
#853=CARTESIAN_POINT('',(-8.52755281943445,-18.0293949858994,-10.4991273371462));
#854=CARTESIAN_POINT('',(128.50685816446,-82.8460646555607,-9.96534718110971));
#855=CARTESIAN_POINT('',(135.858547140091,-86.2919486399737,-18.0767852326935));
#856=CARTESIAN_POINT('',(136.237968878722,-86.4714471797193,-18.0665703142656));
#857=CARTESIAN_POINT('',(136.617390601429,-86.6509457145506,-18.0563547180137));
#858=CARTESIAN_POINT('',(136.996812308576,-86.8304442445795,-18.0461384594612));
#859=CARTESIAN_POINT('',(136.996812308576,-86.8304442445795,-18.0461384594612));
#860=CARTESIAN_POINT('',(137.188238928557,-86.8904892171899,-25.9437487818372));
#861=CARTESIAN_POINT('',(137.124432555293,-86.8704754090699,-23.3112119381216));
#862=CARTESIAN_POINT('',(137.060623685053,-86.8504604196598,-20.6786751639104));
#863=CARTESIAN_POINT('',(136.996812308576,-86.8304442445795,-18.0461384594612));
#864=CARTESIAN_POINT('',(137.188238928557,-86.8904892171899,-25.9437487818372));
#865=CARTESIAN_POINT('',(137.188238928557,-86.8904892171899,-25.9437487818372));
#866=CARTESIAN_POINT('',(136.808832302411,-86.7109978200818,-25.9539650660236));
#867=CARTESIAN_POINT('',(136.429425660801,-86.531506418201,-25.9641806920653));
#868=CARTESIAN_POINT('',(136.050019003367,-86.3520150114365,-25.9743956445551));
#869=CARTESIAN_POINT('',(0.,0.,-17.0530147069713));
#870=CARTESIAN_POINT('',(0.,0.,-17.05301470697));
#871=CARTESIAN_POINT('',(136.434048648894,-87.6669633516844,-17.0530147069713));
#872=CARTESIAN_POINT('',(125.323510322729,-102.926011554045,-17.0530147069713));
#873=CARTESIAN_POINT('',(136.434048648894,-87.6669633516844,-17.0530147069713));
#874=CARTESIAN_POINT('',(136.054330071167,-87.4873153924526,-17.0632389445702));
#875=CARTESIAN_POINT('',(135.674611504361,-87.3076673723166,-17.0734625175698));
#876=CARTESIAN_POINT('',(135.294892948721,-87.1280192898696,-17.0836854103706));
#877=CARTESIAN_POINT('',(124.153654683088,-102.381003278021,-17.0836854103706));
#878=CARTESIAN_POINT('',(124.543606565888,-102.562672845795,-17.0734644849184));
#879=CARTESIAN_POINT('',(124.933558445719,-102.744342270096,-17.0632408967628));
#880=CARTESIAN_POINT('',(125.323510322729,-102.926011554045,-17.0530147069713));
#881=CARTESIAN_POINT('',(-17.4623601544601,-37.4782844619216,-10.5019198582784));
#882=CARTESIAN_POINT('',(124.684145548168,-103.738085134981,-18.0554111551477));
#883=CARTESIAN_POINT('',(124.738638312476,-103.773612926178,-20.6879442268672));
#884=CARTESIAN_POINT('',(124.793130583972,-103.809140487808,-23.3204773118857));
#885=CARTESIAN_POINT('',(124.847622364471,-103.844667820718,-25.9530104101544));
#886=CARTESIAN_POINT('',(124.684145548168,-103.738085134981,-18.0554111551477));
#887=CARTESIAN_POINT('',(124.847622364471,-103.844667820718,-25.9530104101544));
#888=CARTESIAN_POINT('',(124.684145548168,-103.738085134981,-18.0554111551477));
#889=CARTESIAN_POINT('',(124.293530623198,-103.556124291389,-18.065653407828));
#890=CARTESIAN_POINT('',(123.902915645574,-103.37416341316,-18.0758930368287));
#891=CARTESIAN_POINT('',(123.512300614076,-103.192202499487,-18.086129980362));
#892=CARTESIAN_POINT('',(119.328819751739,-101.211746545693,-9.9751494062264));
#893=CARTESIAN_POINT('',(123.675821236309,-103.298805595521,-25.9837291523034));
#894=CARTESIAN_POINT('',(124.066421665709,-103.480759705681,-25.9734922302857));
#895=CARTESIAN_POINT('',(124.457022041358,-103.662713780479,-25.9632526290458));
#896=CARTESIAN_POINT('',(124.847622364471,-103.844667820718,-25.9530104101544));
#897=CARTESIAN_POINT('',(0.,0.,-26.9500150533388));
#898=CARTESIAN_POINT('',(0.,0.,-26.9500150533388));
#899=CARTESIAN_POINT('',(125.524781006018,-103.063676067372,-26.9500150533388));
#900=CARTESIAN_POINT('',(136.667060545193,-87.7536696273464,-26.9500150533388));
#901=CARTESIAN_POINT('',(125.524781006018,-103.063676067372,-26.9500150533388));
#902=CARTESIAN_POINT('',(125.13482190211,-102.882038015158,-26.9602412393505));
#903=CARTESIAN_POINT('',(124.744862696832,-102.700400034353,-26.9704648274566));
#904=CARTESIAN_POINT('',(124.354903387886,-102.518762126459,-26.980685756738));
#905=CARTESIAN_POINT('',(135.5279268492,-87.2147901935783,-26.980685756738));
#906=CARTESIAN_POINT('',(135.907638123779,-87.3944166196975,-26.9704628602808));
#907=CARTESIAN_POINT('',(136.287349355453,-87.5740430980114,-26.9602392873141));
#908=CARTESIAN_POINT('',(136.667060545193,-87.7536696273464,-26.9500150533388));
#909=CARTESIAN_POINT('',(0.,0.,-49.7122682813597));
#910=CARTESIAN_POINT('',(136.996812308576,-86.8304442445795,-18.0461384594612));
#911=CARTESIAN_POINT('',(136.984014950233,-86.8264300048107,-17.5181837683514));
#912=CARTESIAN_POINT('',(136.719478985848,-87.2227547811013,-17.0530147069713));
#913=CARTESIAN_POINT('',(136.434048648894,-87.6669633516844,-17.0530147069713));
#914=CARTESIAN_POINT('',(125.323510322729,-102.926011554045,-17.0530147069713));
#915=CARTESIAN_POINT('',(124.982156412814,-103.341646723493,-17.0530147069713));
#916=CARTESIAN_POINT('',(124.673004981944,-103.730821790652,-17.5172129302304));
#917=CARTESIAN_POINT('',(124.684145548168,-103.738085134981,-18.0554111551477));
#918=CARTESIAN_POINT('',(124.847622364471,-103.844667820718,-25.9530104101544));
#919=CARTESIAN_POINT('',(124.858719034586,-103.851902583277,-26.4890977079181));
#920=CARTESIAN_POINT('',(125.184792025952,-103.477760290792,-26.9500150533388));
#921=CARTESIAN_POINT('',(125.524781006018,-103.063676067372,-26.9500150533388));
#922=CARTESIAN_POINT('',(136.667060545193,-87.7536696273464,-26.9500150533388));
#923=CARTESIAN_POINT('',(136.9548024459,-87.3055420455334,-26.9500150533388));
#924=CARTESIAN_POINT('',(137.201145573189,-86.8945375762424,-26.4762538558392));
#925=CARTESIAN_POINT('',(137.188238928557,-86.8904892171899,-25.9437487818372));
#926=CARTESIAN_POINT('',(135.927336947804,-86.2939760332796,-25.97769865051));
#927=CARTESIAN_POINT('',(135.950980130048,-86.3012726948825,-26.9840875902995));
#928=CARTESIAN_POINT('',(135.520406146071,-87.2112324455949,-26.9808882351496));
#929=CARTESIAN_POINT('',(136.350162596736,-86.4940082910655,-25.9663148692342));
#930=CARTESIAN_POINT('',(136.373804702532,-86.5013044789989,-26.9726946228269));
#931=CARTESIAN_POINT('',(135.943236789057,-87.411256942966,-26.9695044538729));
#932=CARTESIAN_POINT('',(136.772988226142,-86.6940405428537,-25.9549302493331));
#933=CARTESIAN_POINT('',(136.796631223726,-86.7013371879712,-26.9613008427441));
#934=CARTESIAN_POINT('',(136.366067365007,-87.6112814985531,-26.9581198339711));
#935=CARTESIAN_POINT('',(137.195813836232,-86.894072788662,-25.9435448121715));
#936=CARTESIAN_POINT('',(137.219459595354,-86.9013707751899,-26.9499062720246));
#937=CARTESIAN_POINT('',(136.788897875438,-87.8113061107826,-26.9467343968111));
#938=CARTESIAN_POINT('',(125.091926977803,-103.958472670077,-25.9466039778768));
#939=CARTESIAN_POINT('',(125.111942485679,-103.971638365855,-26.94370520143));
#940=CARTESIAN_POINT('',(125.533227185652,-103.067610191769,-26.9497935625164));
#941=CARTESIAN_POINT('',(124.617076488967,-103.73727223104,-25.9590567069385));
#942=CARTESIAN_POINT('',(124.63709170356,-103.750437716939,-26.9561389069355));
#943=CARTESIAN_POINT('',(125.058364198599,-102.846424975221,-26.9622462915793));
#944=CARTESIAN_POINT('',(124.142225921455,-103.516071740518,-25.9715055861165));
#945=CARTESIAN_POINT('',(124.162236342677,-103.529234919534,-26.9685687084704));
#946=CARTESIAN_POINT('',(124.583500997395,-102.625239834759,-26.9746951707549));
#947=CARTESIAN_POINT('',(123.667375276225,-103.294871198535,-25.9839505050338));
#948=CARTESIAN_POINT('',(123.687376153105,-103.308029856856,-26.9809944974837));
#949=CARTESIAN_POINT('',(124.108637578718,-102.404054773553,-26.9871400896734));
#950=CARTESIAN_POINT('',(123.503782757071,-103.188234610597,-18.086353209495));
#951=CARTESIAN_POINT('',(123.483675399507,-103.175005751827,-17.083963144049));
#952=CARTESIAN_POINT('',(123.907195647242,-102.266183691605,-17.0901449276858));
#953=CARTESIAN_POINT('',(123.978716123508,-103.409473688444,-18.0739065622627));
#954=CARTESIAN_POINT('',(123.95859993201,-103.396240789722,-17.0715362483836));
#955=CARTESIAN_POINT('',(124.382116213765,-102.487438278022,-17.0776982804539));
#956=CARTESIAN_POINT('',(124.453649412089,-103.630712714726,-18.0614559444503));
#957=CARTESIAN_POINT('',(124.433529166634,-103.617478002021,-17.0591050780309));
#958=CARTESIAN_POINT('',(124.857036842687,-102.708692681756,-17.0652476626402));
#959=CARTESIAN_POINT('',(124.928582621764,-103.851951689378,-18.0490014668588));
#960=CARTESIAN_POINT('',(124.908462848368,-103.838717270383,-17.0466697548693));
#961=CARTESIAN_POINT('',(125.331957528598,-102.929946905876,-17.0527931850497));
#962=CARTESIAN_POINT('',(135.287370680374,-87.1244604406444,-17.0838879269661));
#963=CARTESIAN_POINT('',(135.712235037849,-86.2265676492988,-17.0870528347032));
#964=CARTESIAN_POINT('',(135.73556374763,-86.2337671045548,-18.0800962087752));
#965=CARTESIAN_POINT('',(135.710289322803,-87.3245468530449,-17.072501998934));
#966=CARTESIAN_POINT('',(136.135159332089,-86.4266466079917,-17.0756577608476));
#967=CARTESIAN_POINT('',(136.158487406488,-86.4338457274169,-18.0687102807433));
#968=CARTESIAN_POINT('',(136.133207993366,-87.5246331949052,-17.0611152266259));
#969=CARTESIAN_POINT('',(136.558081660178,-86.626724639503,-17.0642619732482));
#970=CARTESIAN_POINT('',(136.581411045694,-86.6339243442438,-18.0573235084342));
#971=CARTESIAN_POINT('',(136.556126690948,-87.7247194677786,-17.0497276315819));
#972=CARTESIAN_POINT('',(136.981002119664,-86.8268017898901,-17.052865488966));
#973=CARTESIAN_POINT('',(137.004334665451,-86.8340029550491,-18.0459359133911));
#974=CARTESIAN_POINT('',(134.97919921549,-62.8912295186908,-10.5069813028304));
#975=CARTESIAN_POINT('',(117.558832765246,-100.278195758077,-10.3630058452015));
#976=CARTESIAN_POINT('',(136.792063984371,-63.7359025863095,-10.5));
#977=CARTESIAN_POINT('',(118.949349955728,-102.029296064182,-10.352533933488));
#978=CARTESIAN_POINT('',(127.87499356898,-84.1655878395462,-18.4764349711106));
#979=CARTESIAN_POINT('',(127.955930178754,-84.0408219948261,-18.4764354245967));
#980=CARTESIAN_POINT('',(128.243922769787,-83.596874083077,-18.4764370382128));
#981=CARTESIAN_POINT('',(128.678204504284,-82.9274177319617,-18.4764394714839));
#982=CARTESIAN_POINT('',(129.028076004834,-82.3804924054433,-18.4764417929324));
#983=CARTESIAN_POINT('',(129.172329619649,-82.1536788069381,-18.4764428147508));
#984=CARTESIAN_POINT('',(126.081977268938,-82.9854488093423,-18.5291182709939));
#985=CARTESIAN_POINT('',(126.161779015361,-82.8624323856606,-18.5291187244799));
#986=CARTESIAN_POINT('',(126.445733480284,-82.4247093491447,-18.5291203380961));
#987=CARTESIAN_POINT('',(126.873925876148,-81.7646398701139,-18.5291227713671));
#988=CARTESIAN_POINT('',(127.218891607405,-81.2253833305261,-18.5291250928157));
#989=CARTESIAN_POINT('',(127.361122551195,-81.0017500293681,-18.5291261146341));
#990=CARTESIAN_POINT('',(126.702892038763,-82.0511053808541,-18.5288094147409));
#991=CARTESIAN_POINT('',(126.540691993613,-82.3864312464317,-18.5276813826066));
#992=CARTESIAN_POINT('',(126.378491917391,-82.7217570389227,-18.5265362201734));
#993=CARTESIAN_POINT('',(126.216291849808,-83.057082851733,-18.5253958202556));
#994=CARTESIAN_POINT('',(126.702892038763,-82.0511053808541,-18.5288094147409));
#995=CARTESIAN_POINT('',(128.93857760394,-82.0218035302644,-18.4830208146562));
#996=CARTESIAN_POINT('',(128.807942275172,-82.2918742077078,-18.4821671977469));
#997=CARTESIAN_POINT('',(128.677306906126,-82.561944795986,-18.4812920709606));
#998=CARTESIAN_POINT('',(128.546671498021,-82.8320152977964,-18.4803960849413));
#999=CARTESIAN_POINT('',(128.93857760394,-82.0218035302644,-18.4830208146562));
#1000=CARTESIAN_POINT('',(128.93857760394,-82.0218035302644,-18.4830208146562));
#1001=CARTESIAN_POINT('',(128.193349897049,-82.0315707398492,-18.4983234916037));
#1002=CARTESIAN_POINT('',(127.448121293631,-82.0413380307203,-18.5135824125518));
#1003=CARTESIAN_POINT('',(126.702892038763,-82.0511053808541,-18.5288094147409));
#1004=CARTESIAN_POINT('',(134.817456441164,-65.2106206865642,-10.5069813028304));
#1005=CARTESIAN_POINT('',(126.665693058825,-82.0642321836328,-10.5729035657007));
#1006=CARTESIAN_POINT('',(136.617887696807,-66.081481499275,-10.5));
#1007=CARTESIAN_POINT('',(128.901543609309,-82.0348721129092,-10.5624010829897));
#1008=CARTESIAN_POINT('',(117.558832765246,-100.278195758077,-10.3630058452015));
#1009=CARTESIAN_POINT('',(126.665693058825,-82.0642321836328,-10.5729035657007));
#1010=MECHANICAL_DESIGN_GEOMETRIC_PRESENTATION_REPRESENTATION('',(#479),
#1011);
#1011=(
GEOMETRIC_REPRESENTATION_CONTEXT(3)
GLOBAL_UNCERTAINTY_ASSIGNED_CONTEXT((#1012))
GLOBAL_UNIT_ASSIGNED_CONTEXT((#1015,#1014,#1013))
REPRESENTATION_CONTEXT('C03-02','TOP_LEVEL_ASSEMBLY_PART')
);
#1012=UNCERTAINTY_MEASURE_WITH_UNIT(LENGTH_MEASURE(0.005),#1015,
'DISTANCE_ACCURACY_VALUE','Maximum Tolerance applied to model');
#1013=(
NAMED_UNIT(*)
SI_UNIT($,.STERADIAN.)
SOLID_ANGLE_UNIT()
);
#1014=(
NAMED_UNIT(*)
PLANE_ANGLE_UNIT()
SI_UNIT($,.RADIAN.)
);
#1015=(
LENGTH_UNIT()
NAMED_UNIT(*)
SI_UNIT(.MILLI.,.METRE.)
);
#1016=PRODUCT_DEFINITION_SHAPE('','',#1017);
#1017=PRODUCT_DEFINITION('','',#1019,#1018);
#1018=PRODUCT_DEFINITION_CONTEXT('',#1025,'design');
#1019=PRODUCT_DEFINITION_FORMATION_WITH_SPECIFIED_SOURCE('','',#1021,
 .NOT_KNOWN.);
#1020=PRODUCT_RELATED_PRODUCT_CATEGORY('','',(#1021));
#1021=PRODUCT('C03-02','C03-02','C03-02',(#1023));
#1022=PRODUCT_CATEGORY('','');
#1023=PRODUCT_CONTEXT('',#1025,'mechanical');
#1024=APPLICATION_PROTOCOL_DEFINITION('international standard',
'ap242_managed_model_based_3d_engineering',2020,#1025);
#1025=APPLICATION_CONTEXT('managed model based 3d engineering');
ENDSEC;
END-ISO-10303-21;
