ISO-10303-21;
HEADER;
/* Generated by software containing ST-Developer
 * from STEP Tools, Inc. (www.steptools.com) 
 */
/* OPTION: using custom renumber hook */

FILE_DESCRIPTION(
/* description */ (
'CAx-IF Rec.Pracs.---Representation and Presentation of Product Manufa
cturing Information (PMI)---4.0---2014-10-13',
'CAx-IF Rec.Pracs.---3D Tessellated Geometry---0.4---2014-09-14','2;1'),

/* implementation_level */ '2;1');

FILE_NAME(
/* name */ 'C05-02',
/* time_stamp */ '2026-04-13T01:14:56+03:00',
/* author */ (''),
/* organization */ (''),
/* preprocessor_version */ 'ST-DEVELOPER v18.102',
/* originating_system */ 'SIEMENS PLM Software NX2206.9140',
/* authorisation */ $);

FILE_SCHEMA (('AP242_MANAGED_MODEL_BASED_3D_ENGINEERING_MIM_LF { 1 0 10303 442 3 1 4 }'));
ENDSEC;

DATA;
#10=SHAPE_REPRESENTATION_RELATIONSHIP('','',#729,#11);
#11=ADVANCED_BREP_SHAPE_REPRESENTATION('',(#727),#1157);
#12=CYLINDRICAL_SURFACE('',#769,0.85);
#13=CYLINDRICAL_SURFACE('',#772,1.15);
#14=CYLINDRICAL_SURFACE('',#773,1.15);
#15=LINE('',#958,#107);
#16=LINE('',#961,#108);
#17=LINE('',#963,#109);
#18=LINE('',#965,#110);
#19=LINE('',#967,#111);
#20=LINE('',#969,#112);
#21=LINE('',#971,#113);
#22=LINE('',#973,#114);
#23=LINE('',#975,#115);
#24=LINE('',#977,#116);
#25=LINE('',#979,#117);
#26=LINE('',#981,#118);
#27=LINE('',#983,#119);
#28=LINE('',#985,#120);
#29=LINE('',#987,#121);
#30=LINE('',#989,#122);
#31=LINE('',#991,#123);
#32=LINE('',#993,#124);
#33=LINE('',#995,#125);
#34=LINE('',#997,#126);
#35=LINE('',#998,#127);
#36=LINE('',#1001,#128);
#37=LINE('',#1003,#129);
#38=LINE('',#1005,#130);
#39=LINE('',#1007,#131);
#40=LINE('',#1009,#132);
#41=LINE('',#1011,#133);
#42=LINE('',#1013,#134);
#43=LINE('',#1015,#135);
#44=LINE('',#1017,#136);
#45=LINE('',#1019,#137);
#46=LINE('',#1021,#138);
#47=LINE('',#1025,#139);
#48=LINE('',#1029,#140);
#49=LINE('',#1033,#141);
#50=LINE('',#1035,#142);
#51=LINE('',#1037,#143);
#52=LINE('',#1038,#144);
#53=LINE('',#1040,#145);
#54=LINE('',#1042,#146);
#55=LINE('',#1045,#147);
#56=LINE('',#1046,#148);
#57=LINE('',#1048,#149);
#58=LINE('',#1050,#150);
#59=LINE('',#1052,#151);
#60=LINE('',#1054,#152);
#61=LINE('',#1056,#153);
#62=LINE('',#1058,#154);
#63=LINE('',#1060,#155);
#64=LINE('',#1062,#156);
#65=LINE('',#1064,#157);
#66=LINE('',#1066,#158);
#67=LINE('',#1068,#159);
#68=LINE('',#1070,#160);
#69=LINE('',#1072,#161);
#70=LINE('',#1075,#162);
#71=LINE('',#1077,#163);
#72=LINE('',#1079,#164);
#73=LINE('',#1081,#165);
#74=LINE('',#1083,#166);
#75=LINE('',#1085,#167);
#76=LINE('',#1087,#168);
#77=LINE('',#1089,#169);
#78=LINE('',#1091,#170);
#79=LINE('',#1093,#171);
#80=LINE('',#1095,#172);
#81=LINE('',#1097,#173);
#82=LINE('',#1099,#174);
#83=LINE('',#1102,#175);
#84=LINE('',#1104,#176);
#85=LINE('',#1106,#177);
#86=LINE('',#1108,#178);
#87=LINE('',#1110,#179);
#88=LINE('',#1112,#180);
#89=LINE('',#1114,#181);
#90=LINE('',#1116,#182);
#91=LINE('',#1118,#183);
#92=LINE('',#1120,#184);
#93=LINE('',#1122,#185);
#94=LINE('',#1124,#186);
#95=LINE('',#1126,#187);
#96=LINE('',#1128,#188);
#97=LINE('',#1130,#189);
#98=LINE('',#1132,#190);
#99=LINE('',#1134,#191);
#100=LINE('',#1136,#192);
#101=LINE('',#1138,#193);
#102=LINE('',#1140,#194);
#103=LINE('',#1142,#195);
#104=LINE('',#1144,#196);
#105=LINE('',#1146,#197);
#106=LINE('',#1148,#198);
#107=VECTOR('',#780,1000.);
#108=VECTOR('',#781,1000.);
#109=VECTOR('',#782,1000.);
#110=VECTOR('',#783,1000.);
#111=VECTOR('',#784,1000.);
#112=VECTOR('',#785,1000.);
#113=VECTOR('',#786,1000.);
#114=VECTOR('',#787,1000.);
#115=VECTOR('',#788,1000.);
#116=VECTOR('',#789,1000.);
#117=VECTOR('',#790,1000.);
#118=VECTOR('',#791,1000.);
#119=VECTOR('',#792,1000.);
#120=VECTOR('',#793,1000.);
#121=VECTOR('',#794,1000.);
#122=VECTOR('',#795,1000.);
#123=VECTOR('',#796,1000.);
#124=VECTOR('',#797,1000.);
#125=VECTOR('',#798,1000.);
#126=VECTOR('',#799,1000.);
#127=VECTOR('',#800,1000.);
#128=VECTOR('',#801,1000.);
#129=VECTOR('',#802,1000.);
#130=VECTOR('',#803,1000.);
#131=VECTOR('',#804,1000.);
#132=VECTOR('',#805,1000.);
#133=VECTOR('',#806,1000.);
#134=VECTOR('',#807,1000.);
#135=VECTOR('',#808,1000.);
#136=VECTOR('',#809,1000.);
#137=VECTOR('',#810,1000.);
#138=VECTOR('',#811,1000.);
#139=VECTOR('',#816,1000.);
#140=VECTOR('',#821,1000.);
#141=VECTOR('',#824,1000.);
#142=VECTOR('',#825,1000.);
#143=VECTOR('',#826,1000.);
#144=VECTOR('',#827,1000.);
#145=VECTOR('',#828,1000.);
#146=VECTOR('',#829,1000.);
#147=VECTOR('',#834,1000.);
#148=VECTOR('',#835,1000.);
#149=VECTOR('',#838,1000.);
#150=VECTOR('',#839,1000.);
#151=VECTOR('',#842,1000.);
#152=VECTOR('',#843,1000.);
#153=VECTOR('',#846,1000.);
#154=VECTOR('',#847,1000.);
#155=VECTOR('',#850,1000.);
#156=VECTOR('',#851,1000.);
#157=VECTOR('',#854,1000.);
#158=VECTOR('',#855,1000.);
#159=VECTOR('',#858,1000.);
#160=VECTOR('',#859,1000.);
#161=VECTOR('',#862,1000.);
#162=VECTOR('',#867,1000.);
#163=VECTOR('',#868,1000.);
#164=VECTOR('',#869,1000.);
#165=VECTOR('',#872,1000.);
#166=VECTOR('',#873,1000.);
#167=VECTOR('',#876,1000.);
#168=VECTOR('',#879,1000.);
#169=VECTOR('',#880,1000.);
#170=VECTOR('',#883,1000.);
#171=VECTOR('',#884,1000.);
#172=VECTOR('',#887,1000.);
#173=VECTOR('',#888,1000.);
#174=VECTOR('',#891,1000.);
#175=VECTOR('',#896,1000.);
#176=VECTOR('',#897,1000.);
#177=VECTOR('',#898,1000.);
#178=VECTOR('',#901,1000.);
#179=VECTOR('',#902,1000.);
#180=VECTOR('',#905,1000.);
#181=VECTOR('',#906,1000.);
#182=VECTOR('',#909,1000.);
#183=VECTOR('',#910,1000.);
#184=VECTOR('',#913,1000.);
#185=VECTOR('',#914,1000.);
#186=VECTOR('',#917,1000.);
#187=VECTOR('',#918,1000.);
#188=VECTOR('',#921,1000.);
#189=VECTOR('',#922,1000.);
#190=VECTOR('',#925,1000.);
#191=VECTOR('',#926,1000.);
#192=VECTOR('',#929,1000.);
#193=VECTOR('',#930,1000.);
#194=VECTOR('',#933,1000.);
#195=VECTOR('',#934,1000.);
#196=VECTOR('',#937,1000.);
#197=VECTOR('',#938,1000.);
#198=VECTOR('',#941,1000.);
#199=ORIENTED_EDGE('',*,*,#395,.F.);
#200=ORIENTED_EDGE('',*,*,#396,.F.);
#201=ORIENTED_EDGE('',*,*,#397,.F.);
#202=ORIENTED_EDGE('',*,*,#398,.F.);
#203=ORIENTED_EDGE('',*,*,#399,.F.);
#204=ORIENTED_EDGE('',*,*,#400,.F.);
#205=ORIENTED_EDGE('',*,*,#401,.F.);
#206=ORIENTED_EDGE('',*,*,#402,.F.);
#207=ORIENTED_EDGE('',*,*,#403,.F.);
#208=ORIENTED_EDGE('',*,*,#404,.F.);
#209=ORIENTED_EDGE('',*,*,#405,.F.);
#210=ORIENTED_EDGE('',*,*,#406,.F.);
#211=ORIENTED_EDGE('',*,*,#407,.F.);
#212=ORIENTED_EDGE('',*,*,#408,.F.);
#213=ORIENTED_EDGE('',*,*,#409,.F.);
#214=ORIENTED_EDGE('',*,*,#410,.F.);
#215=ORIENTED_EDGE('',*,*,#411,.F.);
#216=ORIENTED_EDGE('',*,*,#412,.F.);
#217=ORIENTED_EDGE('',*,*,#413,.F.);
#218=ORIENTED_EDGE('',*,*,#414,.F.);
#219=ORIENTED_EDGE('',*,*,#415,.F.);
#220=ORIENTED_EDGE('',*,*,#416,.F.);
#221=ORIENTED_EDGE('',*,*,#417,.F.);
#222=ORIENTED_EDGE('',*,*,#418,.F.);
#223=ORIENTED_EDGE('',*,*,#419,.F.);
#224=ORIENTED_EDGE('',*,*,#420,.F.);
#225=ORIENTED_EDGE('',*,*,#421,.F.);
#226=ORIENTED_EDGE('',*,*,#422,.F.);
#227=ORIENTED_EDGE('',*,*,#423,.F.);
#228=ORIENTED_EDGE('',*,*,#424,.F.);
#229=ORIENTED_EDGE('',*,*,#425,.F.);
#230=ORIENTED_EDGE('',*,*,#426,.F.);
#231=ORIENTED_EDGE('',*,*,#427,.F.);
#232=ORIENTED_EDGE('',*,*,#399,.T.);
#233=ORIENTED_EDGE('',*,*,#428,.T.);
#234=ORIENTED_EDGE('',*,*,#429,.F.);
#235=ORIENTED_EDGE('',*,*,#430,.T.);
#236=ORIENTED_EDGE('',*,*,#431,.F.);
#237=ORIENTED_EDGE('',*,*,#432,.T.);
#238=ORIENTED_EDGE('',*,*,#397,.T.);
#239=ORIENTED_EDGE('',*,*,#433,.F.);
#240=ORIENTED_EDGE('',*,*,#434,.F.);
#241=ORIENTED_EDGE('',*,*,#435,.T.);
#242=ORIENTED_EDGE('',*,*,#409,.T.);
#243=ORIENTED_EDGE('',*,*,#436,.F.);
#244=ORIENTED_EDGE('',*,*,#437,.F.);
#245=ORIENTED_EDGE('',*,*,#438,.T.);
#246=ORIENTED_EDGE('',*,*,#401,.T.);
#247=ORIENTED_EDGE('',*,*,#439,.T.);
#248=ORIENTED_EDGE('',*,*,#429,.T.);
#249=ORIENTED_EDGE('',*,*,#440,.T.);
#250=ORIENTED_EDGE('',*,*,#431,.T.);
#251=ORIENTED_EDGE('',*,*,#441,.T.);
#252=ORIENTED_EDGE('',*,*,#402,.T.);
#253=ORIENTED_EDGE('',*,*,#438,.F.);
#254=ORIENTED_EDGE('',*,*,#442,.F.);
#255=ORIENTED_EDGE('',*,*,#443,.T.);
#256=ORIENTED_EDGE('',*,*,#408,.T.);
#257=ORIENTED_EDGE('',*,*,#444,.F.);
#258=ORIENTED_EDGE('',*,*,#445,.F.);
#259=ORIENTED_EDGE('',*,*,#436,.T.);
#260=ORIENTED_EDGE('',*,*,#407,.T.);
#261=ORIENTED_EDGE('',*,*,#446,.F.);
#262=ORIENTED_EDGE('',*,*,#447,.F.);
#263=ORIENTED_EDGE('',*,*,#444,.T.);
#264=ORIENTED_EDGE('',*,*,#406,.T.);
#265=ORIENTED_EDGE('',*,*,#448,.F.);
#266=ORIENTED_EDGE('',*,*,#449,.F.);
#267=ORIENTED_EDGE('',*,*,#446,.T.);
#268=ORIENTED_EDGE('',*,*,#405,.T.);
#269=ORIENTED_EDGE('',*,*,#450,.F.);
#270=ORIENTED_EDGE('',*,*,#451,.F.);
#271=ORIENTED_EDGE('',*,*,#448,.T.);
#272=ORIENTED_EDGE('',*,*,#404,.T.);
#273=ORIENTED_EDGE('',*,*,#452,.F.);
#274=ORIENTED_EDGE('',*,*,#453,.F.);
#275=ORIENTED_EDGE('',*,*,#450,.T.);
#276=ORIENTED_EDGE('',*,*,#403,.T.);
#277=ORIENTED_EDGE('',*,*,#443,.F.);
#278=ORIENTED_EDGE('',*,*,#454,.F.);
#279=ORIENTED_EDGE('',*,*,#452,.T.);
#280=ORIENTED_EDGE('',*,*,#442,.T.);
#281=ORIENTED_EDGE('',*,*,#437,.T.);
#282=ORIENTED_EDGE('',*,*,#445,.T.);
#283=ORIENTED_EDGE('',*,*,#447,.T.);
#284=ORIENTED_EDGE('',*,*,#449,.T.);
#285=ORIENTED_EDGE('',*,*,#451,.T.);
#286=ORIENTED_EDGE('',*,*,#453,.T.);
#287=ORIENTED_EDGE('',*,*,#454,.T.);
#288=ORIENTED_EDGE('',*,*,#412,.T.);
#289=ORIENTED_EDGE('',*,*,#455,.F.);
#290=ORIENTED_EDGE('',*,*,#456,.F.);
#291=ORIENTED_EDGE('',*,*,#457,.T.);
#292=ORIENTED_EDGE('',*,*,#411,.T.);
#293=ORIENTED_EDGE('',*,*,#458,.F.);
#294=ORIENTED_EDGE('',*,*,#459,.F.);
#295=ORIENTED_EDGE('',*,*,#455,.T.);
#296=ORIENTED_EDGE('',*,*,#410,.T.);
#297=ORIENTED_EDGE('',*,*,#435,.F.);
#298=ORIENTED_EDGE('',*,*,#460,.F.);
#299=ORIENTED_EDGE('',*,*,#458,.T.);
#300=ORIENTED_EDGE('',*,*,#396,.T.);
#301=ORIENTED_EDGE('',*,*,#461,.F.);
#302=ORIENTED_EDGE('',*,*,#462,.F.);
#303=ORIENTED_EDGE('',*,*,#433,.T.);
#304=ORIENTED_EDGE('',*,*,#415,.T.);
#305=ORIENTED_EDGE('',*,*,#463,.F.);
#306=ORIENTED_EDGE('',*,*,#464,.F.);
#307=ORIENTED_EDGE('',*,*,#461,.T.);
#308=ORIENTED_EDGE('',*,*,#414,.T.);
#309=ORIENTED_EDGE('',*,*,#465,.F.);
#310=ORIENTED_EDGE('',*,*,#466,.F.);
#311=ORIENTED_EDGE('',*,*,#463,.T.);
#312=ORIENTED_EDGE('',*,*,#413,.T.);
#313=ORIENTED_EDGE('',*,*,#457,.F.);
#314=ORIENTED_EDGE('',*,*,#467,.F.);
#315=ORIENTED_EDGE('',*,*,#465,.T.);
#316=ORIENTED_EDGE('',*,*,#456,.T.);
#317=ORIENTED_EDGE('',*,*,#459,.T.);
#318=ORIENTED_EDGE('',*,*,#460,.T.);
#319=ORIENTED_EDGE('',*,*,#434,.T.);
#320=ORIENTED_EDGE('',*,*,#462,.T.);
#321=ORIENTED_EDGE('',*,*,#464,.T.);
#322=ORIENTED_EDGE('',*,*,#466,.T.);
#323=ORIENTED_EDGE('',*,*,#467,.T.);
#324=ORIENTED_EDGE('',*,*,#416,.T.);
#325=ORIENTED_EDGE('',*,*,#468,.F.);
#326=ORIENTED_EDGE('',*,*,#469,.F.);
#327=ORIENTED_EDGE('',*,*,#470,.T.);
#328=ORIENTED_EDGE('',*,*,#427,.T.);
#329=ORIENTED_EDGE('',*,*,#471,.F.);
#330=ORIENTED_EDGE('',*,*,#472,.F.);
#331=ORIENTED_EDGE('',*,*,#468,.T.);
#332=ORIENTED_EDGE('',*,*,#426,.T.);
#333=ORIENTED_EDGE('',*,*,#473,.F.);
#334=ORIENTED_EDGE('',*,*,#474,.F.);
#335=ORIENTED_EDGE('',*,*,#471,.T.);
#336=ORIENTED_EDGE('',*,*,#425,.T.);
#337=ORIENTED_EDGE('',*,*,#475,.F.);
#338=ORIENTED_EDGE('',*,*,#476,.F.);
#339=ORIENTED_EDGE('',*,*,#473,.T.);
#340=ORIENTED_EDGE('',*,*,#424,.T.);
#341=ORIENTED_EDGE('',*,*,#477,.F.);
#342=ORIENTED_EDGE('',*,*,#478,.F.);
#343=ORIENTED_EDGE('',*,*,#475,.T.);
#344=ORIENTED_EDGE('',*,*,#423,.T.);
#345=ORIENTED_EDGE('',*,*,#479,.F.);
#346=ORIENTED_EDGE('',*,*,#480,.F.);
#347=ORIENTED_EDGE('',*,*,#477,.T.);
#348=ORIENTED_EDGE('',*,*,#422,.T.);
#349=ORIENTED_EDGE('',*,*,#481,.F.);
#350=ORIENTED_EDGE('',*,*,#482,.F.);
#351=ORIENTED_EDGE('',*,*,#479,.T.);
#352=ORIENTED_EDGE('',*,*,#421,.T.);
#353=ORIENTED_EDGE('',*,*,#483,.F.);
#354=ORIENTED_EDGE('',*,*,#484,.F.);
#355=ORIENTED_EDGE('',*,*,#481,.T.);
#356=ORIENTED_EDGE('',*,*,#420,.T.);
#357=ORIENTED_EDGE('',*,*,#485,.F.);
#358=ORIENTED_EDGE('',*,*,#486,.F.);
#359=ORIENTED_EDGE('',*,*,#483,.T.);
#360=ORIENTED_EDGE('',*,*,#419,.T.);
#361=ORIENTED_EDGE('',*,*,#487,.F.);
#362=ORIENTED_EDGE('',*,*,#488,.F.);
#363=ORIENTED_EDGE('',*,*,#485,.T.);
#364=ORIENTED_EDGE('',*,*,#418,.T.);
#365=ORIENTED_EDGE('',*,*,#489,.F.);
#366=ORIENTED_EDGE('',*,*,#490,.F.);
#367=ORIENTED_EDGE('',*,*,#487,.T.);
#368=ORIENTED_EDGE('',*,*,#417,.T.);
#369=ORIENTED_EDGE('',*,*,#470,.F.);
#370=ORIENTED_EDGE('',*,*,#491,.F.);
#371=ORIENTED_EDGE('',*,*,#489,.T.);
#372=ORIENTED_EDGE('',*,*,#491,.T.);
#373=ORIENTED_EDGE('',*,*,#469,.T.);
#374=ORIENTED_EDGE('',*,*,#472,.T.);
#375=ORIENTED_EDGE('',*,*,#474,.T.);
#376=ORIENTED_EDGE('',*,*,#476,.T.);
#377=ORIENTED_EDGE('',*,*,#478,.T.);
#378=ORIENTED_EDGE('',*,*,#480,.T.);
#379=ORIENTED_EDGE('',*,*,#482,.T.);
#380=ORIENTED_EDGE('',*,*,#484,.T.);
#381=ORIENTED_EDGE('',*,*,#486,.T.);
#382=ORIENTED_EDGE('',*,*,#488,.T.);
#383=ORIENTED_EDGE('',*,*,#490,.T.);
#384=ORIENTED_EDGE('',*,*,#492,.F.);
#385=ORIENTED_EDGE('',*,*,#395,.T.);
#386=ORIENTED_EDGE('',*,*,#492,.T.);
#387=ORIENTED_EDGE('',*,*,#428,.F.);
#388=ORIENTED_EDGE('',*,*,#398,.T.);
#389=ORIENTED_EDGE('',*,*,#432,.F.);
#390=ORIENTED_EDGE('',*,*,#440,.F.);
#391=ORIENTED_EDGE('',*,*,#439,.F.);
#392=ORIENTED_EDGE('',*,*,#400,.T.);
#393=ORIENTED_EDGE('',*,*,#430,.F.);
#394=ORIENTED_EDGE('',*,*,#441,.F.);
#395=EDGE_CURVE('',#493,#493,#559,.F.);
#396=EDGE_CURVE('',#494,#495,#15,.T.);
#397=EDGE_CURVE('',#496,#494,#16,.T.);
#398=EDGE_CURVE('',#497,#496,#17,.T.);
#399=EDGE_CURVE('',#498,#497,#18,.T.);
#400=EDGE_CURVE('',#499,#498,#19,.T.);
#401=EDGE_CURVE('',#500,#499,#20,.T.);
#402=EDGE_CURVE('',#501,#500,#21,.T.);
#403=EDGE_CURVE('',#502,#501,#22,.T.);
#404=EDGE_CURVE('',#503,#502,#23,.T.);
#405=EDGE_CURVE('',#504,#503,#24,.T.);
#406=EDGE_CURVE('',#505,#504,#25,.T.);
#407=EDGE_CURVE('',#506,#505,#26,.T.);
#408=EDGE_CURVE('',#507,#506,#27,.T.);
#409=EDGE_CURVE('',#508,#507,#28,.T.);
#410=EDGE_CURVE('',#509,#508,#29,.T.);
#411=EDGE_CURVE('',#510,#509,#30,.T.);
#412=EDGE_CURVE('',#511,#510,#31,.T.);
#413=EDGE_CURVE('',#512,#511,#32,.T.);
#414=EDGE_CURVE('',#513,#512,#33,.T.);
#415=EDGE_CURVE('',#495,#513,#34,.T.);
#416=EDGE_CURVE('',#514,#515,#35,.T.);
#417=EDGE_CURVE('',#516,#514,#36,.T.);
#418=EDGE_CURVE('',#517,#516,#37,.T.);
#419=EDGE_CURVE('',#518,#517,#38,.T.);
#420=EDGE_CURVE('',#519,#518,#39,.T.);
#421=EDGE_CURVE('',#520,#519,#40,.T.);
#422=EDGE_CURVE('',#521,#520,#41,.T.);
#423=EDGE_CURVE('',#522,#521,#42,.T.);
#424=EDGE_CURVE('',#523,#522,#43,.T.);
#425=EDGE_CURVE('',#524,#523,#44,.T.);
#426=EDGE_CURVE('',#525,#524,#45,.T.);
#427=EDGE_CURVE('',#515,#525,#46,.T.);
#428=EDGE_CURVE('',#497,#526,#560,.F.);
#429=EDGE_CURVE('',#527,#526,#47,.T.);
#430=EDGE_CURVE('',#527,#498,#561,.F.);
#431=EDGE_CURVE('',#528,#529,#48,.T.);
#432=EDGE_CURVE('',#528,#496,#562,.F.);
#433=EDGE_CURVE('',#530,#494,#49,.T.);
#434=EDGE_CURVE('',#531,#530,#50,.F.);
#435=EDGE_CURVE('',#531,#508,#51,.T.);
#436=EDGE_CURVE('',#532,#507,#52,.T.);
#437=EDGE_CURVE('',#533,#532,#53,.F.);
#438=EDGE_CURVE('',#533,#500,#54,.T.);
#439=EDGE_CURVE('',#499,#529,#563,.F.);
#440=EDGE_CURVE('',#526,#528,#55,.T.);
#441=EDGE_CURVE('',#529,#527,#56,.T.);
#442=EDGE_CURVE('',#534,#533,#57,.F.);
#443=EDGE_CURVE('',#534,#501,#58,.T.);
#444=EDGE_CURVE('',#535,#506,#59,.T.);
#445=EDGE_CURVE('',#532,#535,#60,.F.);
#446=EDGE_CURVE('',#536,#505,#61,.T.);
#447=EDGE_CURVE('',#535,#536,#62,.F.);
#448=EDGE_CURVE('',#537,#504,#63,.T.);
#449=EDGE_CURVE('',#536,#537,#64,.F.);
#450=EDGE_CURVE('',#538,#503,#65,.T.);
#451=EDGE_CURVE('',#537,#538,#66,.F.);
#452=EDGE_CURVE('',#539,#502,#67,.T.);
#453=EDGE_CURVE('',#538,#539,#68,.F.);
#454=EDGE_CURVE('',#539,#534,#69,.F.);
#455=EDGE_CURVE('',#540,#510,#70,.T.);
#456=EDGE_CURVE('',#541,#540,#71,.F.);
#457=EDGE_CURVE('',#541,#511,#72,.T.);
#458=EDGE_CURVE('',#542,#509,#73,.T.);
#459=EDGE_CURVE('',#540,#542,#74,.F.);
#460=EDGE_CURVE('',#542,#531,#75,.F.);
#461=EDGE_CURVE('',#543,#495,#76,.T.);
#462=EDGE_CURVE('',#530,#543,#77,.F.);
#463=EDGE_CURVE('',#544,#513,#78,.T.);
#464=EDGE_CURVE('',#543,#544,#79,.F.);
#465=EDGE_CURVE('',#545,#512,#80,.T.);
#466=EDGE_CURVE('',#544,#545,#81,.F.);
#467=EDGE_CURVE('',#545,#541,#82,.F.);
#468=EDGE_CURVE('',#546,#515,#83,.T.);
#469=EDGE_CURVE('',#547,#546,#84,.T.);
#470=EDGE_CURVE('',#547,#514,#85,.T.);
#471=EDGE_CURVE('',#548,#525,#86,.T.);
#472=EDGE_CURVE('',#546,#548,#87,.T.);
#473=EDGE_CURVE('',#549,#524,#88,.T.);
#474=EDGE_CURVE('',#548,#549,#89,.T.);
#475=EDGE_CURVE('',#550,#523,#90,.T.);
#476=EDGE_CURVE('',#549,#550,#91,.T.);
#477=EDGE_CURVE('',#551,#522,#92,.T.);
#478=EDGE_CURVE('',#550,#551,#93,.T.);
#479=EDGE_CURVE('',#552,#521,#94,.T.);
#480=EDGE_CURVE('',#551,#552,#95,.T.);
#481=EDGE_CURVE('',#553,#520,#96,.T.);
#482=EDGE_CURVE('',#552,#553,#97,.T.);
#483=EDGE_CURVE('',#554,#519,#98,.T.);
#484=EDGE_CURVE('',#553,#554,#99,.T.);
#485=EDGE_CURVE('',#555,#518,#100,.T.);
#486=EDGE_CURVE('',#554,#555,#101,.T.);
#487=EDGE_CURVE('',#556,#517,#102,.T.);
#488=EDGE_CURVE('',#555,#556,#103,.T.);
#489=EDGE_CURVE('',#557,#516,#104,.T.);
#490=EDGE_CURVE('',#556,#557,#105,.T.);
#491=EDGE_CURVE('',#557,#547,#106,.T.);
#492=EDGE_CURVE('',#558,#558,#564,.T.);
#493=VERTEX_POINT('',#957);
#494=VERTEX_POINT('',#959);
#495=VERTEX_POINT('',#960);
#496=VERTEX_POINT('',#962);
#497=VERTEX_POINT('',#964);
#498=VERTEX_POINT('',#966);
#499=VERTEX_POINT('',#968);
#500=VERTEX_POINT('',#970);
#501=VERTEX_POINT('',#972);
#502=VERTEX_POINT('',#974);
#503=VERTEX_POINT('',#976);
#504=VERTEX_POINT('',#978);
#505=VERTEX_POINT('',#980);
#506=VERTEX_POINT('',#982);
#507=VERTEX_POINT('',#984);
#508=VERTEX_POINT('',#986);
#509=VERTEX_POINT('',#988);
#510=VERTEX_POINT('',#990);
#511=VERTEX_POINT('',#992);
#512=VERTEX_POINT('',#994);
#513=VERTEX_POINT('',#996);
#514=VERTEX_POINT('',#999);
#515=VERTEX_POINT('',#1000);
#516=VERTEX_POINT('',#1002);
#517=VERTEX_POINT('',#1004);
#518=VERTEX_POINT('',#1006);
#519=VERTEX_POINT('',#1008);
#520=VERTEX_POINT('',#1010);
#521=VERTEX_POINT('',#1012);
#522=VERTEX_POINT('',#1014);
#523=VERTEX_POINT('',#1016);
#524=VERTEX_POINT('',#1018);
#525=VERTEX_POINT('',#1020);
#526=VERTEX_POINT('',#1024);
#527=VERTEX_POINT('',#1026);
#528=VERTEX_POINT('',#1030);
#529=VERTEX_POINT('',#1031);
#530=VERTEX_POINT('',#1034);
#531=VERTEX_POINT('',#1036);
#532=VERTEX_POINT('',#1039);
#533=VERTEX_POINT('',#1041);
#534=VERTEX_POINT('',#1049);
#535=VERTEX_POINT('',#1053);
#536=VERTEX_POINT('',#1057);
#537=VERTEX_POINT('',#1061);
#538=VERTEX_POINT('',#1065);
#539=VERTEX_POINT('',#1069);
#540=VERTEX_POINT('',#1076);
#541=VERTEX_POINT('',#1078);
#542=VERTEX_POINT('',#1082);
#543=VERTEX_POINT('',#1088);
#544=VERTEX_POINT('',#1092);
#545=VERTEX_POINT('',#1096);
#546=VERTEX_POINT('',#1103);
#547=VERTEX_POINT('',#1105);
#548=VERTEX_POINT('',#1109);
#549=VERTEX_POINT('',#1113);
#550=VERTEX_POINT('',#1117);
#551=VERTEX_POINT('',#1121);
#552=VERTEX_POINT('',#1125);
#553=VERTEX_POINT('',#1129);
#554=VERTEX_POINT('',#1133);
#555=VERTEX_POINT('',#1137);
#556=VERTEX_POINT('',#1141);
#557=VERTEX_POINT('',#1145);
#558=VERTEX_POINT('',#1152);
#559=CIRCLE('',#732,0.85);
#560=CIRCLE('',#734,1.15);
#561=CIRCLE('',#735,1.15);
#562=CIRCLE('',#737,1.15);
#563=CIRCLE('',#738,1.15);
#564=CIRCLE('',#770,0.85);
#565=EDGE_LOOP('',(#199));
#566=EDGE_LOOP('',(#200,#201,#202,#203,#204,#205,#206,#207,#208,#209,#210,
#211,#212,#213,#214,#215,#216,#217,#218,#219));
#567=EDGE_LOOP('',(#220,#221,#222,#223,#224,#225,#226,#227,#228,#229,#230,
#231));
#568=EDGE_LOOP('',(#232,#233,#234,#235));
#569=EDGE_LOOP('',(#236,#237,#238,#239,#240,#241,#242,#243,#244,#245,#246,
#247));
#570=EDGE_LOOP('',(#248,#249,#250,#251));
#571=EDGE_LOOP('',(#252,#253,#254,#255));
#572=EDGE_LOOP('',(#256,#257,#258,#259));
#573=EDGE_LOOP('',(#260,#261,#262,#263));
#574=EDGE_LOOP('',(#264,#265,#266,#267));
#575=EDGE_LOOP('',(#268,#269,#270,#271));
#576=EDGE_LOOP('',(#272,#273,#274,#275));
#577=EDGE_LOOP('',(#276,#277,#278,#279));
#578=EDGE_LOOP('',(#280,#281,#282,#283,#284,#285,#286,#287));
#579=EDGE_LOOP('',(#288,#289,#290,#291));
#580=EDGE_LOOP('',(#292,#293,#294,#295));
#581=EDGE_LOOP('',(#296,#297,#298,#299));
#582=EDGE_LOOP('',(#300,#301,#302,#303));
#583=EDGE_LOOP('',(#304,#305,#306,#307));
#584=EDGE_LOOP('',(#308,#309,#310,#311));
#585=EDGE_LOOP('',(#312,#313,#314,#315));
#586=EDGE_LOOP('',(#316,#317,#318,#319,#320,#321,#322,#323));
#587=EDGE_LOOP('',(#324,#325,#326,#327));
#588=EDGE_LOOP('',(#328,#329,#330,#331));
#589=EDGE_LOOP('',(#332,#333,#334,#335));
#590=EDGE_LOOP('',(#336,#337,#338,#339));
#591=EDGE_LOOP('',(#340,#341,#342,#343));
#592=EDGE_LOOP('',(#344,#345,#346,#347));
#593=EDGE_LOOP('',(#348,#349,#350,#351));
#594=EDGE_LOOP('',(#352,#353,#354,#355));
#595=EDGE_LOOP('',(#356,#357,#358,#359));
#596=EDGE_LOOP('',(#360,#361,#362,#363));
#597=EDGE_LOOP('',(#364,#365,#366,#367));
#598=EDGE_LOOP('',(#368,#369,#370,#371));
#599=EDGE_LOOP('',(#372,#373,#374,#375,#376,#377,#378,#379,#380,#381,#382,
#383));
#600=EDGE_LOOP('',(#384));
#601=EDGE_LOOP('',(#385));
#602=EDGE_LOOP('',(#386));
#603=EDGE_LOOP('',(#387,#388,#389,#390));
#604=EDGE_LOOP('',(#391,#392,#393,#394));
#605=FACE_BOUND('',#565,.T.);
#606=FACE_BOUND('',#566,.T.);
#607=FACE_BOUND('',#567,.T.);
#608=FACE_BOUND('',#568,.T.);
#609=FACE_BOUND('',#569,.T.);
#610=FACE_BOUND('',#570,.T.);
#611=FACE_BOUND('',#571,.T.);
#612=FACE_BOUND('',#572,.T.);
#613=FACE_BOUND('',#573,.T.);
#614=FACE_BOUND('',#574,.T.);
#615=FACE_BOUND('',#575,.T.);
#616=FACE_BOUND('',#576,.T.);
#617=FACE_BOUND('',#577,.T.);
#618=FACE_BOUND('',#578,.T.);
#619=FACE_BOUND('',#579,.T.);
#620=FACE_BOUND('',#580,.T.);
#621=FACE_BOUND('',#581,.T.);
#622=FACE_BOUND('',#582,.T.);
#623=FACE_BOUND('',#583,.T.);
#624=FACE_BOUND('',#584,.T.);
#625=FACE_BOUND('',#585,.T.);
#626=FACE_BOUND('',#586,.T.);
#627=FACE_BOUND('',#587,.T.);
#628=FACE_BOUND('',#588,.T.);
#629=FACE_BOUND('',#589,.T.);
#630=FACE_BOUND('',#590,.T.);
#631=FACE_BOUND('',#591,.T.);
#632=FACE_BOUND('',#592,.T.);
#633=FACE_BOUND('',#593,.T.);
#634=FACE_BOUND('',#594,.T.);
#635=FACE_BOUND('',#595,.T.);
#636=FACE_BOUND('',#596,.T.);
#637=FACE_BOUND('',#597,.T.);
#638=FACE_BOUND('',#598,.T.);
#639=FACE_BOUND('',#599,.T.);
#640=FACE_BOUND('',#600,.T.);
#641=FACE_BOUND('',#601,.T.);
#642=FACE_BOUND('',#602,.T.);
#643=FACE_BOUND('',#603,.T.);
#644=FACE_BOUND('',#604,.T.);
#645=PLANE('',#731);
#646=PLANE('',#733);
#647=PLANE('',#736);
#648=PLANE('',#739);
#649=PLANE('',#740);
#650=PLANE('',#741);
#651=PLANE('',#742);
#652=PLANE('',#743);
#653=PLANE('',#744);
#654=PLANE('',#745);
#655=PLANE('',#746);
#656=PLANE('',#747);
#657=PLANE('',#748);
#658=PLANE('',#749);
#659=PLANE('',#750);
#660=PLANE('',#751);
#661=PLANE('',#752);
#662=PLANE('',#753);
#663=PLANE('',#754);
#664=PLANE('',#755);
#665=PLANE('',#756);
#666=PLANE('',#757);
#667=PLANE('',#758);
#668=PLANE('',#759);
#669=PLANE('',#760);
#670=PLANE('',#761);
#671=PLANE('',#762);
#672=PLANE('',#763);
#673=PLANE('',#764);
#674=PLANE('',#765);
#675=PLANE('',#766);
#676=PLANE('',#767);
#677=PLANE('',#768);
#678=PLANE('',#771);
#679=ADVANCED_FACE('',(#605,#606,#607),#645,.F.);
#680=ADVANCED_FACE('',(#608),#646,.F.);
#681=ADVANCED_FACE('',(#609),#647,.F.);
#682=ADVANCED_FACE('',(#610),#648,.T.);
#683=ADVANCED_FACE('',(#611),#649,.F.);
#684=ADVANCED_FACE('',(#612),#650,.F.);
#685=ADVANCED_FACE('',(#613),#651,.F.);
#686=ADVANCED_FACE('',(#614),#652,.F.);
#687=ADVANCED_FACE('',(#615),#653,.F.);
#688=ADVANCED_FACE('',(#616),#654,.F.);
#689=ADVANCED_FACE('',(#617),#655,.F.);
#690=ADVANCED_FACE('',(#618),#656,.F.);
#691=ADVANCED_FACE('',(#619),#657,.F.);
#692=ADVANCED_FACE('',(#620),#658,.F.);
#693=ADVANCED_FACE('',(#621),#659,.F.);
#694=ADVANCED_FACE('',(#622),#660,.F.);
#695=ADVANCED_FACE('',(#623),#661,.F.);
#696=ADVANCED_FACE('',(#624),#662,.F.);
#697=ADVANCED_FACE('',(#625),#663,.F.);
#698=ADVANCED_FACE('',(#626),#664,.F.);
#699=ADVANCED_FACE('',(#627),#665,.F.);
#700=ADVANCED_FACE('',(#628),#666,.F.);
#701=ADVANCED_FACE('',(#629),#667,.F.);
#702=ADVANCED_FACE('',(#630),#668,.F.);
#703=ADVANCED_FACE('',(#631),#669,.F.);
#704=ADVANCED_FACE('',(#632),#670,.F.);
#705=ADVANCED_FACE('',(#633),#671,.F.);
#706=ADVANCED_FACE('',(#634),#672,.F.);
#707=ADVANCED_FACE('',(#635),#673,.F.);
#708=ADVANCED_FACE('',(#636),#674,.F.);
#709=ADVANCED_FACE('',(#637),#675,.F.);
#710=ADVANCED_FACE('',(#638),#676,.F.);
#711=ADVANCED_FACE('',(#639),#677,.T.);
#712=ADVANCED_FACE('',(#640,#641),#12,.T.);
#713=ADVANCED_FACE('',(#642),#678,.T.);
#714=ADVANCED_FACE('',(#643),#13,.T.);
#715=ADVANCED_FACE('',(#644),#14,.T.);
#716=CLOSED_SHELL('',(#679,#680,#681,#682,#683,#684,#685,#686,#687,#688,
#689,#690,#691,#692,#693,#694,#695,#696,#697,#698,#699,#700,#701,#702,#703,
#704,#705,#706,#707,#708,#709,#710,#711,#712,#713,#714,#715));
#717=STYLED_ITEM('',(#718),#727);
#718=PRESENTATION_STYLE_ASSIGNMENT((#719));
#719=SURFACE_STYLE_USAGE(.BOTH.,#720);
#720=SURFACE_SIDE_STYLE('',(#723,#721));
#721=SURFACE_STYLE_RENDERING_WITH_PROPERTIES(.CONSTANT_SHADING.,#726,(#722));
#722=SURFACE_STYLE_TRANSPARENT(0.4);
#723=SURFACE_STYLE_FILL_AREA(#724);
#724=FILL_AREA_STYLE('',(#725));
#725=FILL_AREA_STYLE_COLOUR('',#726);
#726=COLOUR_RGB('',1.,0.188235294117647,0.188235294117647);
#727=MANIFOLD_SOLID_BREP('Extrude (45)',#716);
#728=SHAPE_DEFINITION_REPRESENTATION(#1162,#729);
#729=SHAPE_REPRESENTATION('C05-02',(#730),#1157);
#730=AXIS2_PLACEMENT_3D('',#954,#774,#775);
#731=AXIS2_PLACEMENT_3D('',#955,#776,#777);
#732=AXIS2_PLACEMENT_3D('',#956,#778,#779);
#733=AXIS2_PLACEMENT_3D('',#1022,#812,#813);
#734=AXIS2_PLACEMENT_3D('',#1023,#814,#815);
#735=AXIS2_PLACEMENT_3D('',#1027,#817,#818);
#736=AXIS2_PLACEMENT_3D('',#1028,#819,#820);
#737=AXIS2_PLACEMENT_3D('',#1032,#822,#823);
#738=AXIS2_PLACEMENT_3D('',#1043,#830,#831);
#739=AXIS2_PLACEMENT_3D('',#1044,#832,#833);
#740=AXIS2_PLACEMENT_3D('',#1047,#836,#837);
#741=AXIS2_PLACEMENT_3D('',#1051,#840,#841);
#742=AXIS2_PLACEMENT_3D('',#1055,#844,#845);
#743=AXIS2_PLACEMENT_3D('',#1059,#848,#849);
#744=AXIS2_PLACEMENT_3D('',#1063,#852,#853);
#745=AXIS2_PLACEMENT_3D('',#1067,#856,#857);
#746=AXIS2_PLACEMENT_3D('',#1071,#860,#861);
#747=AXIS2_PLACEMENT_3D('',#1073,#863,#864);
#748=AXIS2_PLACEMENT_3D('',#1074,#865,#866);
#749=AXIS2_PLACEMENT_3D('',#1080,#870,#871);
#750=AXIS2_PLACEMENT_3D('',#1084,#874,#875);
#751=AXIS2_PLACEMENT_3D('',#1086,#877,#878);
#752=AXIS2_PLACEMENT_3D('',#1090,#881,#882);
#753=AXIS2_PLACEMENT_3D('',#1094,#885,#886);
#754=AXIS2_PLACEMENT_3D('',#1098,#889,#890);
#755=AXIS2_PLACEMENT_3D('',#1100,#892,#893);
#756=AXIS2_PLACEMENT_3D('',#1101,#894,#895);
#757=AXIS2_PLACEMENT_3D('',#1107,#899,#900);
#758=AXIS2_PLACEMENT_3D('',#1111,#903,#904);
#759=AXIS2_PLACEMENT_3D('',#1115,#907,#908);
#760=AXIS2_PLACEMENT_3D('',#1119,#911,#912);
#761=AXIS2_PLACEMENT_3D('',#1123,#915,#916);
#762=AXIS2_PLACEMENT_3D('',#1127,#919,#920);
#763=AXIS2_PLACEMENT_3D('',#1131,#923,#924);
#764=AXIS2_PLACEMENT_3D('',#1135,#927,#928);
#765=AXIS2_PLACEMENT_3D('',#1139,#931,#932);
#766=AXIS2_PLACEMENT_3D('',#1143,#935,#936);
#767=AXIS2_PLACEMENT_3D('',#1147,#939,#940);
#768=AXIS2_PLACEMENT_3D('',#1149,#942,#943);
#769=AXIS2_PLACEMENT_3D('',#1150,#944,#945);
#770=AXIS2_PLACEMENT_3D('',#1151,#946,#947);
#771=AXIS2_PLACEMENT_3D('',#1153,#948,#949);
#772=AXIS2_PLACEMENT_3D('',#1154,#950,#951);
#773=AXIS2_PLACEMENT_3D('',#1155,#952,#953);
#774=DIRECTION('',(0.,0.,1.));
#775=DIRECTION('',(1.,0.,0.));
#776=DIRECTION('',(0.,0.,1.));
#777=DIRECTION('',(1.,0.,0.));
#778=DIRECTION('',(0.,0.,1.));
#779=DIRECTION('',(1.,0.,0.));
#780=DIRECTION('',(0.,-1.,0.));
#781=DIRECTION('',(-1.,0.,0.));
#782=DIRECTION('',(-2.31296463463574E-16,1.,0.));
#783=DIRECTION('',(1.,0.,0.));
#784=DIRECTION('',(-3.70074341541719E-15,-1.,0.));
#785=DIRECTION('',(-1.,0.,0.));
#786=DIRECTION('',(3.1540426835942E-15,1.,0.));
#787=DIRECTION('',(1.,0.,0.));
#788=DIRECTION('',(7.30409884621813E-15,1.,0.));
#789=DIRECTION('',(-1.,0.,0.));
#790=DIRECTION('',(2.28253088944317E-16,-1.,0.));
#791=DIRECTION('',(1.,0.,0.));
#792=DIRECTION('',(0.,-1.,0.));
#793=DIRECTION('',(-1.,0.,0.));
#794=DIRECTION('',(-3.94255335449275E-16,1.,0.));
#795=DIRECTION('',(1.,0.,0.));
#796=DIRECTION('',(-5.70632722360792E-16,1.,0.));
#797=DIRECTION('',(-1.,0.,0.));
#798=DIRECTION('',(0.,-1.,0.));
#799=DIRECTION('',(1.,0.,0.));
#800=DIRECTION('',(-0.581174613856884,0.813778881643105,0.));
#801=DIRECTION('',(-1.,0.,0.));
#802=DIRECTION('',(3.15404268359419E-15,-1.,0.));
#803=DIRECTION('',(1.,0.,0.));
#804=DIRECTION('',(0.581174613856884,-0.813778881643104,0.));
#805=DIRECTION('',(1.,0.,0.));
#806=DIRECTION('',(0.500620282467166,0.865666987231519,0.));
#807=DIRECTION('',(0.873741341054698,-0.486390860247125,0.));
#808=DIRECTION('',(8.26745245232203E-15,1.,0.));
#809=DIRECTION('',(-0.873741341054698,0.486390860247125,0.));
#810=DIRECTION('',(-0.500620282467166,-0.865666987231519,0.));
#811=DIRECTION('',(-1.,0.,0.));
#812=DIRECTION('',(0.,1.,0.));
#813=DIRECTION('',(0.,0.,1.));
#814=DIRECTION('',(0.,1.,0.));
#815=DIRECTION('',(0.,0.,1.));
#816=DIRECTION('',(1.,0.,0.));
#817=DIRECTION('',(0.,1.,0.));
#818=DIRECTION('',(0.,0.,1.));
#819=DIRECTION('',(0.,-1.,0.));
#820=DIRECTION('',(0.,0.,-1.));
#821=DIRECTION('',(-1.,0.,0.));
#822=DIRECTION('',(0.,-1.,0.));
#823=DIRECTION('',(0.,0.,-1.));
#824=DIRECTION('',(0.,0.,1.));
#825=DIRECTION('',(-1.,0.,0.));
#826=DIRECTION('',(0.,0.,1.));
#827=DIRECTION('',(0.,0.,1.));
#828=DIRECTION('',(-1.,0.,0.));
#829=DIRECTION('',(0.,0.,1.));
#830=DIRECTION('',(0.,-1.,0.));
#831=DIRECTION('',(0.,0.,-1.));
#832=DIRECTION('',(0.,0.,1.));
#833=DIRECTION('',(1.,0.,0.));
#834=DIRECTION('',(-2.31296463463574E-16,1.,0.));
#835=DIRECTION('',(-3.70074341541719E-15,-1.,0.));
#836=DIRECTION('',(1.,-3.1540426835942E-15,0.));
#837=DIRECTION('',(3.1540426835942E-15,1.,0.));
#838=DIRECTION('',(-3.1540426835942E-15,-1.,0.));
#839=DIRECTION('',(0.,0.,1.));
#840=DIRECTION('',(-1.,0.,0.));
#841=DIRECTION('',(0.,0.,1.));
#842=DIRECTION('',(0.,0.,1.));
#843=DIRECTION('',(0.,1.,0.));
#844=DIRECTION('',(0.,-1.,0.));
#845=DIRECTION('',(0.,0.,-1.));
#846=DIRECTION('',(0.,0.,1.));
#847=DIRECTION('',(-1.,0.,0.));
#848=DIRECTION('',(-1.,-2.28253088944317E-16,0.));
#849=DIRECTION('',(2.28253088944317E-16,-1.,0.));
#850=DIRECTION('',(0.,0.,1.));
#851=DIRECTION('',(-2.28253088944317E-16,1.,0.));
#852=DIRECTION('',(0.,1.,0.));
#853=DIRECTION('',(0.,0.,1.));
#854=DIRECTION('',(0.,0.,1.));
#855=DIRECTION('',(1.,0.,0.));
#856=DIRECTION('',(1.,-7.30409884621813E-15,0.));
#857=DIRECTION('',(7.30409884621813E-15,1.,0.));
#858=DIRECTION('',(0.,0.,1.));
#859=DIRECTION('',(-7.30409884621813E-15,-1.,0.));
#860=DIRECTION('',(0.,-1.,0.));
#861=DIRECTION('',(0.,0.,-1.));
#862=DIRECTION('',(-1.,0.,0.));
#863=DIRECTION('',(0.,0.,1.));
#864=DIRECTION('',(1.,0.,0.));
#865=DIRECTION('',(1.,5.70632722360792E-16,0.));
#866=DIRECTION('',(-5.70632722360792E-16,1.,0.));
#867=DIRECTION('',(0.,0.,1.));
#868=DIRECTION('',(5.70632722360792E-16,-1.,0.));
#869=DIRECTION('',(0.,0.,1.));
#870=DIRECTION('',(0.,-1.,0.));
#871=DIRECTION('',(0.,0.,-1.));
#872=DIRECTION('',(0.,0.,1.));
#873=DIRECTION('',(-1.,0.,0.));
#874=DIRECTION('',(1.,3.94255335449275E-16,0.));
#875=DIRECTION('',(-3.94255335449275E-16,1.,0.));
#876=DIRECTION('',(3.94255335449275E-16,-1.,0.));
#877=DIRECTION('',(-1.,0.,0.));
#878=DIRECTION('',(0.,0.,1.));
#879=DIRECTION('',(0.,0.,1.));
#880=DIRECTION('',(0.,1.,0.));
#881=DIRECTION('',(0.,-1.,0.));
#882=DIRECTION('',(0.,0.,-1.));
#883=DIRECTION('',(0.,0.,1.));
#884=DIRECTION('',(-1.,0.,0.));
#885=DIRECTION('',(-1.,0.,0.));
#886=DIRECTION('',(0.,0.,1.));
#887=DIRECTION('',(0.,0.,1.));
#888=DIRECTION('',(0.,1.,0.));
#889=DIRECTION('',(0.,1.,0.));
#890=DIRECTION('',(0.,0.,1.));
#891=DIRECTION('',(1.,0.,0.));
#892=DIRECTION('',(0.,0.,1.));
#893=DIRECTION('',(1.,0.,0.));
#894=DIRECTION('',(0.813778881643105,0.581174613856884,0.));
#895=DIRECTION('',(-0.581174613856884,0.813778881643105,0.));
#896=DIRECTION('',(0.,0.,1.));
#897=DIRECTION('',(-0.581174613856884,0.813778881643105,0.));
#898=DIRECTION('',(0.,0.,1.));
#899=DIRECTION('',(0.,1.,0.));
#900=DIRECTION('',(0.,0.,1.));
#901=DIRECTION('',(0.,0.,1.));
#902=DIRECTION('',(-1.,0.,0.));
#903=DIRECTION('',(-0.865666987231519,0.500620282467166,0.));
#904=DIRECTION('',(-0.500620282467166,-0.865666987231519,0.));
#905=DIRECTION('',(0.,0.,1.));
#906=DIRECTION('',(-0.500620282467166,-0.865666987231519,0.));
#907=DIRECTION('',(0.486390860247125,0.873741341054698,0.));
#908=DIRECTION('',(-0.873741341054698,0.486390860247125,0.));
#909=DIRECTION('',(0.,0.,1.));
#910=DIRECTION('',(-0.873741341054698,0.486390860247125,0.));
#911=DIRECTION('',(1.,-8.26745245232203E-15,0.));
#912=DIRECTION('',(8.26745245232203E-15,1.,0.));
#913=DIRECTION('',(0.,0.,1.));
#914=DIRECTION('',(8.26745245232203E-15,1.,0.));
#915=DIRECTION('',(-0.486390860247125,-0.873741341054698,0.));
#916=DIRECTION('',(0.873741341054698,-0.486390860247125,0.));
#917=DIRECTION('',(0.,0.,1.));
#918=DIRECTION('',(0.873741341054698,-0.486390860247125,0.));
#919=DIRECTION('',(0.865666987231519,-0.500620282467166,0.));
#920=DIRECTION('',(0.500620282467166,0.865666987231519,0.));
#921=DIRECTION('',(0.,0.,1.));
#922=DIRECTION('',(0.500620282467166,0.865666987231519,0.));
#923=DIRECTION('',(0.,-1.,0.));
#924=DIRECTION('',(0.,0.,-1.));
#925=DIRECTION('',(0.,0.,1.));
#926=DIRECTION('',(1.,0.,0.));
#927=DIRECTION('',(-0.813778881643104,-0.581174613856884,0.));
#928=DIRECTION('',(0.581174613856884,-0.813778881643104,0.));
#929=DIRECTION('',(0.,0.,1.));
#930=DIRECTION('',(0.581174613856884,-0.813778881643104,0.));
#931=DIRECTION('',(0.,-1.,0.));
#932=DIRECTION('',(0.,0.,-1.));
#933=DIRECTION('',(0.,0.,1.));
#934=DIRECTION('',(1.,0.,0.));
#935=DIRECTION('',(-1.,-3.15404268359419E-15,0.));
#936=DIRECTION('',(3.15404268359419E-15,-1.,0.));
#937=DIRECTION('',(0.,0.,1.));
#938=DIRECTION('',(3.15404268359419E-15,-1.,0.));
#939=DIRECTION('',(0.,1.,0.));
#940=DIRECTION('',(0.,0.,1.));
#941=DIRECTION('',(-1.,0.,0.));
#942=DIRECTION('',(0.,0.,-1.));
#943=DIRECTION('',(-1.,0.,0.));
#944=DIRECTION('',(0.,0.,1.));
#945=DIRECTION('',(1.,0.,0.));
#946=DIRECTION('',(0.,0.,-1.));
#947=DIRECTION('',(-1.,0.,0.));
#948=DIRECTION('',(0.,0.,-1.));
#949=DIRECTION('',(-1.,0.,0.));
#950=DIRECTION('',(2.31296463463574E-16,-1.,0.));
#951=DIRECTION('',(1.,2.31296463463574E-16,0.));
#952=DIRECTION('',(3.70074341541719E-15,1.,0.));
#953=DIRECTION('',(-1.,3.70074341541719E-15,0.));
#954=CARTESIAN_POINT('',(0.,0.,0.));
#955=CARTESIAN_POINT('',(0.,0.,6.55));
#956=CARTESIAN_POINT('',(0.,0.,6.55));
#957=CARTESIAN_POINT('',(0.85,0.,6.55));
#958=CARTESIAN_POINT('',(10.65,5.15,6.55));
#959=CARTESIAN_POINT('',(10.65,5.15,6.55));
#960=CARTESIAN_POINT('',(10.65,4.6,6.55));
#961=CARTESIAN_POINT('',(12.55,5.15,6.55));
#962=CARTESIAN_POINT('',(12.55,5.15000000000001,6.55));
#963=CARTESIAN_POINT('',(12.55,-9.85,6.55));
#964=CARTESIAN_POINT('',(12.55,-9.85,6.55));
#965=CARTESIAN_POINT('',(-14.25,-9.85,6.55));
#966=CARTESIAN_POINT('',(-14.25,-9.85,6.55));
#967=CARTESIAN_POINT('',(-14.2499999999999,5.15,6.55));
#968=CARTESIAN_POINT('',(-14.2499999999999,5.15,6.55));
#969=CARTESIAN_POINT('',(12.55,5.15,6.55));
#970=CARTESIAN_POINT('',(-12.3499999999999,5.15,6.55));
#971=CARTESIAN_POINT('',(-12.3499999999999,4.6,6.55));
#972=CARTESIAN_POINT('',(-12.3499999999999,4.6,6.55));
#973=CARTESIAN_POINT('',(-13.4999999999999,4.6,6.55));
#974=CARTESIAN_POINT('',(-13.4999999999999,4.6,6.55));
#975=CARTESIAN_POINT('',(-13.5,3.65,6.55));
#976=CARTESIAN_POINT('',(-13.5,3.65,6.55));
#977=CARTESIAN_POINT('',(-12.3499999999999,3.65,6.55));
#978=CARTESIAN_POINT('',(-1.05,3.65,6.55));
#979=CARTESIAN_POINT('',(-1.05,4.6,6.55));
#980=CARTESIAN_POINT('',(-1.05,4.6,6.55));
#981=CARTESIAN_POINT('',(-2.05,4.6,6.55));
#982=CARTESIAN_POINT('',(-2.05,4.6,6.55));
#983=CARTESIAN_POINT('',(-2.05,5.15,6.55));
#984=CARTESIAN_POINT('',(-2.05,5.15,6.55));
#985=CARTESIAN_POINT('',(12.55,5.15,6.55));
#986=CARTESIAN_POINT('',(1.95,5.15,6.55));
#987=CARTESIAN_POINT('',(1.95,4.6,6.55));
#988=CARTESIAN_POINT('',(1.95,4.6,6.55));
#989=CARTESIAN_POINT('',(0.949999999999998,4.6,6.55));
#990=CARTESIAN_POINT('',(0.949999999999999,4.6,6.55));
#991=CARTESIAN_POINT('',(0.949999999999999,3.65,6.55));
#992=CARTESIAN_POINT('',(0.949999999999999,3.65,6.55));
#993=CARTESIAN_POINT('',(1.95,3.65,6.55));
#994=CARTESIAN_POINT('',(11.75,3.65,6.55));
#995=CARTESIAN_POINT('',(11.75,4.6,6.55));
#996=CARTESIAN_POINT('',(11.75,4.6,6.55));
#997=CARTESIAN_POINT('',(10.65,4.6,6.55));
#998=CARTESIAN_POINT('',(1.74798607296415,1.24835523985455,6.55));
#999=CARTESIAN_POINT('',(5.03198298070313,-3.35,6.55));
#1000=CARTESIAN_POINT('',(1.17024929510165,2.05732035595443,6.55));
#1001=CARTESIAN_POINT('',(0.,-3.35,6.55));
#1002=CARTESIAN_POINT('',(10.6,-3.35,6.55));
#1003=CARTESIAN_POINT('',(10.6,3.34328524460984E-14,6.55));
#1004=CARTESIAN_POINT('',(10.6,-2.9,6.55));
#1005=CARTESIAN_POINT('',(0.,-2.9,6.55));
#1006=CARTESIAN_POINT('',(5.26358326920394,-2.9,6.55));
#1007=CARTESIAN_POINT('',(2.11418656970354,1.50988381609015,6.55));
#1008=CARTESIAN_POINT('',(1.40184958360245,2.50732035595443,6.55));
#1009=CARTESIAN_POINT('',(0.,2.50732035595443,6.55));
#1010=CARTESIAN_POINT('',(-1.49153741875856,2.50732035595443,6.55));
#1011=CARTESIAN_POINT('',(-2.20432587083163,1.27477454538794,6.55));
#1012=CARTESIAN_POINT('',(-5.42299221730208,-4.29090726303,6.55));
#1013=CARTESIAN_POINT('',(-3.10649910184505,-5.58044345210813,6.55));
#1014=CARTESIAN_POINT('',(-12.3,-0.462641878087901,6.55));
#1015=CARTESIAN_POINT('',(-12.3,1.01689665163561E-13,6.55));
#1016=CARTESIAN_POINT('',(-12.3,-0.977668441277415,6.55));
#1017=CARTESIAN_POINT('',(-3.32537498895626,-5.97362705558275,6.55));
#1018=CARTESIAN_POINT('',(-5.25506526629597,-4.89941473449375,6.55));
#1019=CARTESIAN_POINT('',(-1.81477572657745,1.04949541827772,6.55));
#1020=CARTESIAN_POINT('',(-1.23194466980962,2.05732035595443,6.55));
#1021=CARTESIAN_POINT('',(0.,2.05732035595443,6.55));
#1022=CARTESIAN_POINT('',(-14.25,-9.85,7.7));
#1023=CARTESIAN_POINT('',(11.4,-9.85,6.55));
#1024=CARTESIAN_POINT('',(11.4,-9.85,7.7));
#1025=CARTESIAN_POINT('',(-14.25,-9.85,7.7));
#1026=CARTESIAN_POINT('',(-13.1,-9.85,7.7));
#1027=CARTESIAN_POINT('',(-13.1,-9.85,6.55));
#1028=CARTESIAN_POINT('',(12.55,5.15,7.7));
#1029=CARTESIAN_POINT('',(12.55,5.15,7.7));
#1030=CARTESIAN_POINT('',(11.4,5.15,7.7));
#1031=CARTESIAN_POINT('',(-13.0999999999999,5.15,7.7));
#1032=CARTESIAN_POINT('',(11.4,5.15,6.55));
#1033=CARTESIAN_POINT('',(10.65,5.15,5.4));
#1034=CARTESIAN_POINT('',(10.65,5.15,0.));
#1035=CARTESIAN_POINT('',(12.55,5.15,0.));
#1036=CARTESIAN_POINT('',(1.95,5.15,0.));
#1037=CARTESIAN_POINT('',(1.95,5.15,5.4));
#1038=CARTESIAN_POINT('',(-2.05,5.15,5.4));
#1039=CARTESIAN_POINT('',(-2.05,5.15,0.));
#1040=CARTESIAN_POINT('',(12.55,5.15,0.));
#1041=CARTESIAN_POINT('',(-12.3499999999999,5.15,0.));
#1042=CARTESIAN_POINT('',(-12.3499999999999,5.15,5.4));
#1043=CARTESIAN_POINT('',(-13.0999999999999,5.15,6.55));
#1044=CARTESIAN_POINT('',(0.,0.,7.7));
#1045=CARTESIAN_POINT('',(11.4,5.15000000000001,7.7));
#1046=CARTESIAN_POINT('',(-13.1,-9.85,7.7));
#1047=CARTESIAN_POINT('',(-12.3499999999999,4.6,5.4));
#1048=CARTESIAN_POINT('',(-12.3499999999999,4.6,0.));
#1049=CARTESIAN_POINT('',(-12.3499999999999,4.6,0.));
#1050=CARTESIAN_POINT('',(-12.3499999999999,4.6,5.4));
#1051=CARTESIAN_POINT('',(-2.05,5.15,5.4));
#1052=CARTESIAN_POINT('',(-2.05,4.6,5.4));
#1053=CARTESIAN_POINT('',(-2.05,4.6,0.));
#1054=CARTESIAN_POINT('',(-2.05,5.15,0.));
#1055=CARTESIAN_POINT('',(-2.05,4.6,5.4));
#1056=CARTESIAN_POINT('',(-1.05,4.6,5.4));
#1057=CARTESIAN_POINT('',(-1.05,4.6,0.));
#1058=CARTESIAN_POINT('',(-2.05,4.6,0.));
#1059=CARTESIAN_POINT('',(-1.05,4.6,5.4));
#1060=CARTESIAN_POINT('',(-1.05,3.65,5.4));
#1061=CARTESIAN_POINT('',(-1.05,3.65,0.));
#1062=CARTESIAN_POINT('',(-1.05,4.6,0.));
#1063=CARTESIAN_POINT('',(-12.3499999999999,3.65,5.4));
#1064=CARTESIAN_POINT('',(-13.5,3.65,5.4));
#1065=CARTESIAN_POINT('',(-13.5,3.65,0.));
#1066=CARTESIAN_POINT('',(-12.3499999999999,3.65,0.));
#1067=CARTESIAN_POINT('',(-13.5,3.65,5.4));
#1068=CARTESIAN_POINT('',(-13.4999999999999,4.6,5.4));
#1069=CARTESIAN_POINT('',(-13.4999999999999,4.6,0.));
#1070=CARTESIAN_POINT('',(-13.5,3.65,0.));
#1071=CARTESIAN_POINT('',(-13.4999999999999,4.6,5.4));
#1072=CARTESIAN_POINT('',(-13.4999999999999,4.6,0.));
#1073=CARTESIAN_POINT('',(0.,0.,0.));
#1074=CARTESIAN_POINT('',(0.949999999999999,3.65,5.4));
#1075=CARTESIAN_POINT('',(0.949999999999999,4.6,5.4));
#1076=CARTESIAN_POINT('',(0.949999999999999,4.6,0.));
#1077=CARTESIAN_POINT('',(0.949999999999999,3.65,0.));
#1078=CARTESIAN_POINT('',(0.949999999999999,3.65,0.));
#1079=CARTESIAN_POINT('',(0.949999999999999,3.65,5.4));
#1080=CARTESIAN_POINT('',(0.949999999999998,4.6,5.4));
#1081=CARTESIAN_POINT('',(1.95,4.6,5.4));
#1082=CARTESIAN_POINT('',(1.95,4.6,0.));
#1083=CARTESIAN_POINT('',(0.949999999999998,4.6,0.));
#1084=CARTESIAN_POINT('',(1.95,4.6,5.4));
#1085=CARTESIAN_POINT('',(1.95,4.6,0.));
#1086=CARTESIAN_POINT('',(10.65,5.15,5.4));
#1087=CARTESIAN_POINT('',(10.65,4.6,5.4));
#1088=CARTESIAN_POINT('',(10.65,4.6,0.));
#1089=CARTESIAN_POINT('',(10.65,5.15,0.));
#1090=CARTESIAN_POINT('',(10.65,4.6,5.4));
#1091=CARTESIAN_POINT('',(11.75,4.6,5.4));
#1092=CARTESIAN_POINT('',(11.75,4.6,0.));
#1093=CARTESIAN_POINT('',(10.65,4.6,0.));
#1094=CARTESIAN_POINT('',(11.75,4.6,5.4));
#1095=CARTESIAN_POINT('',(11.75,3.65,5.4));
#1096=CARTESIAN_POINT('',(11.75,3.65,0.));
#1097=CARTESIAN_POINT('',(11.75,4.6,0.));
#1098=CARTESIAN_POINT('',(1.95,3.65,5.4));
#1099=CARTESIAN_POINT('',(1.95,3.65,0.));
#1100=CARTESIAN_POINT('',(0.,0.,0.));
#1101=CARTESIAN_POINT('',(5.04693855939631,-3.37094126930715,3.55));
#1102=CARTESIAN_POINT('',(1.17024929510165,2.05732035595443,3.55));
#1103=CARTESIAN_POINT('',(1.17024929510165,2.05732035595443,3.55));
#1104=CARTESIAN_POINT('',(5.04693855939631,-3.37094126930715,3.55));
#1105=CARTESIAN_POINT('',(5.03198298070313,-3.35,3.55));
#1106=CARTESIAN_POINT('',(5.03198298070313,-3.35,3.55));
#1107=CARTESIAN_POINT('',(1.14451592971267,2.05732035595443,3.55));
#1108=CARTESIAN_POINT('',(-1.23194466980962,2.05732035595443,3.55));
#1109=CARTESIAN_POINT('',(-1.23194466980962,2.05732035595443,3.55));
#1110=CARTESIAN_POINT('',(1.14451592971267,2.05732035595443,3.55));
#1111=CARTESIAN_POINT('',(-1.24638438039909,2.03235137007779,3.55));
#1112=CARTESIAN_POINT('',(-5.25506526629597,-4.89941473449375,3.55));
#1113=CARTESIAN_POINT('',(-5.25506526629597,-4.89941473449375,3.55));
#1114=CARTESIAN_POINT('',(-1.24638438039909,2.03235137007779,3.55));
#1115=CARTESIAN_POINT('',(-10.2765337630136,-2.10408359121274,3.55));
#1116=CARTESIAN_POINT('',(-12.3,-0.977668441277415,3.55));
#1117=CARTESIAN_POINT('',(-12.3,-0.977668441277415,3.55));
#1118=CARTESIAN_POINT('',(-10.2765337630136,-2.10408359121274,3.55));
#1119=CARTESIAN_POINT('',(-12.3,-1.00705981350738,3.55));
#1120=CARTESIAN_POINT('',(-12.3,-0.462641878087901,3.55));
#1121=CARTESIAN_POINT('',(-12.3,-0.462641878087901,3.55));
#1122=CARTESIAN_POINT('',(-12.3,-1.00705981350738,3.55));
#1123=CARTESIAN_POINT('',(-7.25737981435399,-3.26974765957148,3.55));
#1124=CARTESIAN_POINT('',(-5.42299221730208,-4.29090726303,3.55));
#1125=CARTESIAN_POINT('',(-5.42299221730208,-4.29090726303,3.55));
#1126=CARTESIAN_POINT('',(-7.25737981435399,-3.26974765957148,3.55));
#1127=CARTESIAN_POINT('',(-5.3983674180523,-4.24832633587961,3.55));
#1128=CARTESIAN_POINT('',(-1.49153741875856,2.50732035595443,3.55));
#1129=CARTESIAN_POINT('',(-1.49153741875856,2.50732035595443,3.55));
#1130=CARTESIAN_POINT('',(-5.3983674180523,-4.24832633587961,3.55));
#1131=CARTESIAN_POINT('',(-1.52038105753066,2.50732035595443,3.55));
#1132=CARTESIAN_POINT('',(1.40184958360245,2.50732035595443,3.55));
#1133=CARTESIAN_POINT('',(1.40184958360245,2.50732035595443,3.55));
#1134=CARTESIAN_POINT('',(-1.52038105753066,2.50732035595443,3.55));
#1135=CARTESIAN_POINT('',(1.38689400490927,2.52826162526159,3.55));
#1136=CARTESIAN_POINT('',(5.26358326920394,-2.9,3.55));
#1137=CARTESIAN_POINT('',(5.26358326920394,-2.9,3.55));
#1138=CARTESIAN_POINT('',(1.38689400490927,2.52826162526159,3.55));
#1139=CARTESIAN_POINT('',(9.25,-2.9,3.55));
#1140=CARTESIAN_POINT('',(10.6,-2.9,3.55));
#1141=CARTESIAN_POINT('',(10.6,-2.9,3.55));
#1142=CARTESIAN_POINT('',(9.25,-2.9,3.55));
#1143=CARTESIAN_POINT('',(10.6,-2.85,3.55));
#1144=CARTESIAN_POINT('',(10.6,-3.35,3.55));
#1145=CARTESIAN_POINT('',(10.6,-3.35,3.55));
#1146=CARTESIAN_POINT('',(10.6,-2.85,3.55));
#1147=CARTESIAN_POINT('',(10.65,-3.35,3.55));
#1148=CARTESIAN_POINT('',(10.65,-3.35,3.55));
#1149=CARTESIAN_POINT('',(0.,0.,3.55));
#1150=CARTESIAN_POINT('',(0.,0.,0.900000000000001));
#1151=CARTESIAN_POINT('',(0.,0.,0.900000000000001));
#1152=CARTESIAN_POINT('',(-0.85,0.,0.900000000000001));
#1153=CARTESIAN_POINT('',(0.,0.,0.900000000000001));
#1154=CARTESIAN_POINT('',(11.4,2.63677968348475E-15,6.55));
#1155=CARTESIAN_POINT('',(-13.1,4.8479738741965E-14,6.55));
#1156=MECHANICAL_DESIGN_GEOMETRIC_PRESENTATION_REPRESENTATION('',(#717),
#1157);
#1157=(
GEOMETRIC_REPRESENTATION_CONTEXT(3)
GLOBAL_UNCERTAINTY_ASSIGNED_CONTEXT((#1158))
GLOBAL_UNIT_ASSIGNED_CONTEXT((#1161,#1160,#1159))
REPRESENTATION_CONTEXT('C05-02','TOP_LEVEL_ASSEMBLY_PART')
);
#1158=UNCERTAINTY_MEASURE_WITH_UNIT(LENGTH_MEASURE(0.005),#1161,
'DISTANCE_ACCURACY_VALUE','Maximum Tolerance applied to model');
#1159=(
NAMED_UNIT(*)
SI_UNIT($,.STERADIAN.)
SOLID_ANGLE_UNIT()
);
#1160=(
NAMED_UNIT(*)
PLANE_ANGLE_UNIT()
SI_UNIT($,.RADIAN.)
);
#1161=(
LENGTH_UNIT()
NAMED_UNIT(*)
SI_UNIT(.MILLI.,.METRE.)
);
#1162=PRODUCT_DEFINITION_SHAPE('','',#1163);
#1163=PRODUCT_DEFINITION('','',#1165,#1164);
#1164=PRODUCT_DEFINITION_CONTEXT('',#1171,'design');
#1165=PRODUCT_DEFINITION_FORMATION_WITH_SPECIFIED_SOURCE('','',#1167,
 .NOT_KNOWN.);
#1166=PRODUCT_RELATED_PRODUCT_CATEGORY('','',(#1167));
#1167=PRODUCT('C05-02','C05-02','C05-02',(#1169));
#1168=PRODUCT_CATEGORY('','');
#1169=PRODUCT_CONTEXT('',#1171,'mechanical');
#1170=APPLICATION_PROTOCOL_DEFINITION('international standard',
'ap242_managed_model_based_3d_engineering',2020,#1171);
#1171=APPLICATION_CONTEXT('managed model based 3d engineering');
ENDSEC;
END-ISO-10303-21;
