ISO-10303-21;
HEADER;
/* Generated by software containing ST-Developer
 * from STEP Tools, Inc. (www.steptools.com) 
 */
/* OPTION: using custom renumber hook */

FILE_DESCRIPTION(
/* description */ (
'CAx-IF Rec.Pracs.---Representation and Presentation of Product Manufa
cturing Information (PMI)---4.0---2014-10-13',
'CAx-IF Rec.Pracs.---3D Tessellated Geometry---0.4---2014-09-14','2;1'),

/* implementation_level */ '2;1');

FILE_NAME(
/* name */ 'C05-03',
/* time_stamp */ '2026-04-13T01:14:56+03:00',
/* author */ (''),
/* organization */ (''),
/* preprocessor_version */ 'ST-DEVELOPER v18.102',
/* originating_system */ 'SIEMENS PLM Software NX2206.9140',
/* authorisation */ $);

FILE_SCHEMA (('AP242_MANAGED_MODEL_BASED_3D_ENGINEERING_MIM_LF { 1 0 10303 442 3 1 4 }'));
ENDSEC;

DATA;
#10=B_SPLINE_CURVE_WITH_KNOTS('',3,(#1011,#1012,#1013,#1014,#1015,#1016,
#1017),.UNSPECIFIED.,.T.,.F.,(1,1,1,1,1,1,1,1,1,1,1),(-0.0011743350519949,
-0.000782890034663192,-0.000391445017331485,2.21804023113839E-16,0.000391445017331929,
0.000782890034663636,0.00117433505199534,0.00156578006932705,0.00195722508665876,
0.00234867010399046,0.00274011512132217),.UNSPECIFIED.);
#11=B_SPLINE_CURVE_WITH_KNOTS('',3,(#1034,#1035,#1036,#1037,#1038,#1039,
#1040),.UNSPECIFIED.,.T.,.F.,(1,1,1,1,1,1,1,1,1,1,1),(-0.0011743350519949,
-0.000782890034663192,-0.000391445017331485,2.21590130162109E-16,0.000391445017331928,
0.000782890034663635,0.00117433505199534,0.00156578006932705,0.00195722508665875,
0.00234867010399046,0.00274011512132217),.UNSPECIFIED.);
#12=TOROIDAL_SURFACE('',#688,7.03692363308502,0.25);
#13=TOROIDAL_SURFACE('',#691,12.1093303937069,0.25);
#14=TOROIDAL_SURFACE('',#699,7.03692363308502,0.25);
#15=TOROIDAL_SURFACE('',#702,12.1093303937069,0.25);
#16=SPHERICAL_SURFACE('',#668,1.5);
#17=SPHERICAL_SURFACE('',#708,1.5);
#18=CIRCLE('',#661,0.3);
#19=CIRCLE('',#662,0.3);
#20=CIRCLE('',#666,1.5);
#21=CIRCLE('',#667,1.5);
#22=CIRCLE('',#670,2.);
#23=CIRCLE('',#672,2.);
#24=CIRCLE('',#689,0.25);
#25=CIRCLE('',#690,0.25);
#26=CIRCLE('',#695,0.3);
#27=CIRCLE('',#696,0.3);
#28=CIRCLE('',#700,0.25);
#29=CIRCLE('',#701,0.25);
#30=CIRCLE('',#706,1.5);
#31=CIRCLE('',#707,1.5);
#32=CIRCLE('',#710,2.);
#33=CIRCLE('',#712,2.);
#34=CYLINDRICAL_SURFACE('',#660,0.3);
#35=CYLINDRICAL_SURFACE('',#665,1.5);
#36=CYLINDRICAL_SURFACE('',#673,2.);
#37=CYLINDRICAL_SURFACE('',#694,0.3);
#38=CYLINDRICAL_SURFACE('',#705,1.5);
#39=CYLINDRICAL_SURFACE('',#713,2.);
#40=SHAPE_REPRESENTATION_RELATIONSHIP('','',#652,#41);
#41=ADVANCED_BREP_SHAPE_REPRESENTATION('',(#643,#644,#645,#646,#647,#648,
#649,#650),#1058);
#42=ORIENTED_EDGE('',*,*,#174,.F.);
#43=ORIENTED_EDGE('',*,*,#175,.F.);
#44=ORIENTED_EDGE('',*,*,#176,.F.);
#45=ORIENTED_EDGE('',*,*,#177,.F.);
#46=ORIENTED_EDGE('',*,*,#178,.T.);
#47=ORIENTED_EDGE('',*,*,#174,.T.);
#48=ORIENTED_EDGE('',*,*,#179,.F.);
#49=ORIENTED_EDGE('',*,*,#180,.T.);
#50=ORIENTED_EDGE('',*,*,#179,.T.);
#51=ORIENTED_EDGE('',*,*,#177,.T.);
#52=ORIENTED_EDGE('',*,*,#181,.F.);
#53=ORIENTED_EDGE('',*,*,#182,.T.);
#54=ORIENTED_EDGE('',*,*,#181,.T.);
#55=ORIENTED_EDGE('',*,*,#176,.T.);
#56=ORIENTED_EDGE('',*,*,#183,.F.);
#57=ORIENTED_EDGE('',*,*,#184,.T.);
#58=ORIENTED_EDGE('',*,*,#185,.F.);
#59=ORIENTED_EDGE('',*,*,#180,.F.);
#60=ORIENTED_EDGE('',*,*,#182,.F.);
#61=ORIENTED_EDGE('',*,*,#184,.F.);
#62=ORIENTED_EDGE('',*,*,#185,.T.);
#63=ORIENTED_EDGE('',*,*,#183,.T.);
#64=ORIENTED_EDGE('',*,*,#175,.T.);
#65=ORIENTED_EDGE('',*,*,#178,.F.);
#66=ORIENTED_EDGE('',*,*,#186,.F.);
#67=ORIENTED_EDGE('',*,*,#187,.T.);
#68=ORIENTED_EDGE('',*,*,#186,.T.);
#69=ORIENTED_EDGE('',*,*,#187,.F.);
#70=ORIENTED_EDGE('',*,*,#188,.T.);
#71=ORIENTED_EDGE('',*,*,#189,.T.);
#72=ORIENTED_EDGE('',*,*,#188,.F.);
#73=ORIENTED_EDGE('',*,*,#190,.F.);
#74=ORIENTED_EDGE('',*,*,#189,.F.);
#75=ORIENTED_EDGE('',*,*,#191,.F.);
#76=ORIENTED_EDGE('',*,*,#190,.T.);
#77=ORIENTED_EDGE('',*,*,#191,.T.);
#78=ORIENTED_EDGE('',*,*,#192,.T.);
#79=ORIENTED_EDGE('',*,*,#193,.F.);
#80=ORIENTED_EDGE('',*,*,#194,.F.);
#81=ORIENTED_EDGE('',*,*,#195,.T.);
#82=ORIENTED_EDGE('',*,*,#196,.F.);
#83=ORIENTED_EDGE('',*,*,#197,.F.);
#84=ORIENTED_EDGE('',*,*,#198,.T.);
#85=ORIENTED_EDGE('',*,*,#199,.T.);
#86=ORIENTED_EDGE('',*,*,#200,.F.);
#87=ORIENTED_EDGE('',*,*,#201,.T.);
#88=ORIENTED_EDGE('',*,*,#196,.T.);
#89=ORIENTED_EDGE('',*,*,#202,.T.);
#90=ORIENTED_EDGE('',*,*,#192,.F.);
#91=ORIENTED_EDGE('',*,*,#203,.T.);
#92=ORIENTED_EDGE('',*,*,#204,.F.);
#93=ORIENTED_EDGE('',*,*,#205,.F.);
#94=ORIENTED_EDGE('',*,*,#206,.T.);
#95=ORIENTED_EDGE('',*,*,#194,.T.);
#96=ORIENTED_EDGE('',*,*,#207,.T.);
#97=ORIENTED_EDGE('',*,*,#208,.T.);
#98=ORIENTED_EDGE('',*,*,#209,.T.);
#99=ORIENTED_EDGE('',*,*,#210,.F.);
#100=ORIENTED_EDGE('',*,*,#211,.F.);
#101=ORIENTED_EDGE('',*,*,#212,.T.);
#102=ORIENTED_EDGE('',*,*,#213,.T.);
#103=ORIENTED_EDGE('',*,*,#214,.F.);
#104=ORIENTED_EDGE('',*,*,#207,.F.);
#105=ORIENTED_EDGE('',*,*,#193,.T.);
#106=ORIENTED_EDGE('',*,*,#202,.F.);
#107=ORIENTED_EDGE('',*,*,#199,.F.);
#108=ORIENTED_EDGE('',*,*,#215,.F.);
#109=ORIENTED_EDGE('',*,*,#210,.T.);
#110=ORIENTED_EDGE('',*,*,#216,.T.);
#111=ORIENTED_EDGE('',*,*,#217,.F.);
#112=ORIENTED_EDGE('',*,*,#208,.F.);
#113=ORIENTED_EDGE('',*,*,#214,.T.);
#114=ORIENTED_EDGE('',*,*,#218,.F.);
#115=ORIENTED_EDGE('',*,*,#219,.T.);
#116=ORIENTED_EDGE('',*,*,#203,.F.);
#117=ORIENTED_EDGE('',*,*,#195,.F.);
#118=ORIENTED_EDGE('',*,*,#206,.F.);
#119=ORIENTED_EDGE('',*,*,#217,.T.);
#120=ORIENTED_EDGE('',*,*,#220,.T.);
#121=ORIENTED_EDGE('',*,*,#212,.F.);
#122=ORIENTED_EDGE('',*,*,#221,.F.);
#123=ORIENTED_EDGE('',*,*,#197,.T.);
#124=ORIENTED_EDGE('',*,*,#201,.F.);
#125=ORIENTED_EDGE('',*,*,#222,.F.);
#126=ORIENTED_EDGE('',*,*,#198,.F.);
#127=ORIENTED_EDGE('',*,*,#221,.T.);
#128=ORIENTED_EDGE('',*,*,#211,.T.);
#129=ORIENTED_EDGE('',*,*,#215,.T.);
#130=ORIENTED_EDGE('',*,*,#209,.F.);
#131=ORIENTED_EDGE('',*,*,#220,.F.);
#132=ORIENTED_EDGE('',*,*,#216,.F.);
#133=ORIENTED_EDGE('',*,*,#213,.F.);
#134=ORIENTED_EDGE('',*,*,#200,.T.);
#135=ORIENTED_EDGE('',*,*,#223,.T.);
#136=ORIENTED_EDGE('',*,*,#224,.T.);
#137=ORIENTED_EDGE('',*,*,#222,.T.);
#138=ORIENTED_EDGE('',*,*,#205,.T.);
#139=ORIENTED_EDGE('',*,*,#225,.T.);
#140=ORIENTED_EDGE('',*,*,#226,.T.);
#141=ORIENTED_EDGE('',*,*,#223,.F.);
#142=ORIENTED_EDGE('',*,*,#204,.T.);
#143=ORIENTED_EDGE('',*,*,#219,.F.);
#144=ORIENTED_EDGE('',*,*,#227,.T.);
#145=ORIENTED_EDGE('',*,*,#225,.F.);
#146=ORIENTED_EDGE('',*,*,#224,.F.);
#147=ORIENTED_EDGE('',*,*,#226,.F.);
#148=ORIENTED_EDGE('',*,*,#227,.F.);
#149=ORIENTED_EDGE('',*,*,#218,.T.);
#150=ORIENTED_EDGE('',*,*,#228,.T.);
#151=ORIENTED_EDGE('',*,*,#229,.F.);
#152=ORIENTED_EDGE('',*,*,#228,.F.);
#153=ORIENTED_EDGE('',*,*,#230,.T.);
#154=ORIENTED_EDGE('',*,*,#229,.T.);
#155=ORIENTED_EDGE('',*,*,#230,.F.);
#156=ORIENTED_EDGE('',*,*,#231,.F.);
#157=ORIENTED_EDGE('',*,*,#232,.T.);
#158=ORIENTED_EDGE('',*,*,#231,.T.);
#159=ORIENTED_EDGE('',*,*,#232,.F.);
#160=ORIENTED_EDGE('',*,*,#233,.T.);
#161=ORIENTED_EDGE('',*,*,#234,.F.);
#162=ORIENTED_EDGE('',*,*,#233,.F.);
#163=ORIENTED_EDGE('',*,*,#235,.T.);
#164=ORIENTED_EDGE('',*,*,#234,.T.);
#165=ORIENTED_EDGE('',*,*,#235,.F.);
#166=ORIENTED_EDGE('',*,*,#236,.T.);
#167=ORIENTED_EDGE('',*,*,#237,.T.);
#168=ORIENTED_EDGE('',*,*,#236,.F.);
#169=ORIENTED_EDGE('',*,*,#238,.F.);
#170=ORIENTED_EDGE('',*,*,#237,.F.);
#171=ORIENTED_EDGE('',*,*,#239,.F.);
#172=ORIENTED_EDGE('',*,*,#238,.T.);
#173=ORIENTED_EDGE('',*,*,#239,.T.);
#174=EDGE_CURVE('',#240,#241,#290,.T.);
#175=EDGE_CURVE('',#242,#240,#291,.T.);
#176=EDGE_CURVE('',#243,#242,#292,.T.);
#177=EDGE_CURVE('',#241,#243,#293,.T.);
#178=EDGE_CURVE('',#244,#240,#294,.T.);
#179=EDGE_CURVE('',#245,#241,#295,.T.);
#180=EDGE_CURVE('',#245,#244,#296,.T.);
#181=EDGE_CURVE('',#246,#243,#297,.T.);
#182=EDGE_CURVE('',#246,#245,#298,.T.);
#183=EDGE_CURVE('',#247,#242,#299,.T.);
#184=EDGE_CURVE('',#247,#246,#300,.T.);
#185=EDGE_CURVE('',#244,#247,#301,.T.);
#186=EDGE_CURVE('',#248,#248,#18,.T.);
#187=EDGE_CURVE('',#249,#249,#19,.T.);
#188=EDGE_CURVE('',#250,#250,#20,.F.);
#189=EDGE_CURVE('',#251,#251,#21,.T.);
#190=EDGE_CURVE('',#252,#252,#22,.T.);
#191=EDGE_CURVE('',#253,#253,#23,.T.);
#192=EDGE_CURVE('',#254,#255,#302,.T.);
#193=EDGE_CURVE('',#256,#255,#303,.F.);
#194=EDGE_CURVE('',#257,#256,#304,.F.);
#195=EDGE_CURVE('',#257,#254,#305,.T.);
#196=EDGE_CURVE('',#258,#259,#306,.T.);
#197=EDGE_CURVE('',#260,#258,#307,.T.);
#198=EDGE_CURVE('',#260,#261,#308,.T.);
#199=EDGE_CURVE('',#261,#259,#309,.F.);
#200=EDGE_CURVE('',#262,#263,#310,.T.);
#201=EDGE_CURVE('',#262,#258,#311,.T.);
#202=EDGE_CURVE('',#259,#255,#312,.T.);
#203=EDGE_CURVE('',#254,#264,#313,.T.);
#204=EDGE_CURVE('',#265,#264,#314,.T.);
#205=EDGE_CURVE('',#263,#265,#315,.T.);
#206=EDGE_CURVE('',#266,#257,#316,.T.);
#207=EDGE_CURVE('',#256,#267,#317,.T.);
#208=EDGE_CURVE('',#267,#266,#318,.T.);
#209=EDGE_CURVE('',#268,#269,#319,.T.);
#210=EDGE_CURVE('',#270,#269,#320,.T.);
#211=EDGE_CURVE('',#271,#270,#321,.T.);
#212=EDGE_CURVE('',#271,#268,#322,.T.);
#213=EDGE_CURVE('',#269,#272,#323,.T.);
#214=EDGE_CURVE('',#267,#272,#324,.T.);
#215=EDGE_CURVE('',#270,#261,#325,.T.);
#216=EDGE_CURVE('',#272,#273,#326,.T.);
#217=EDGE_CURVE('',#266,#273,#327,.T.);
#218=EDGE_CURVE('',#274,#275,#328,.T.);
#219=EDGE_CURVE('',#274,#264,#329,.T.);
#220=EDGE_CURVE('',#273,#268,#330,.T.);
#221=EDGE_CURVE('',#260,#271,#331,.T.);
#222=EDGE_CURVE('',#275,#262,#332,.T.);
#223=EDGE_CURVE('',#263,#276,#333,.F.);
#224=EDGE_CURVE('',#276,#275,#334,.F.);
#225=EDGE_CURVE('',#265,#277,#335,.F.);
#226=EDGE_CURVE('',#277,#276,#336,.F.);
#227=EDGE_CURVE('',#274,#277,#337,.F.);
#228=EDGE_CURVE('',#278,#278,#24,.T.);
#229=EDGE_CURVE('',#279,#279,#25,.T.);
#230=EDGE_CURVE('',#280,#280,#10,.T.);
#231=EDGE_CURVE('',#281,#281,#26,.T.);
#232=EDGE_CURVE('',#282,#282,#27,.T.);
#233=EDGE_CURVE('',#283,#283,#28,.T.);
#234=EDGE_CURVE('',#284,#284,#29,.T.);
#235=EDGE_CURVE('',#285,#285,#11,.T.);
#236=EDGE_CURVE('',#286,#286,#30,.F.);
#237=EDGE_CURVE('',#287,#287,#31,.T.);
#238=EDGE_CURVE('',#288,#288,#32,.T.);
#239=EDGE_CURVE('',#289,#289,#33,.T.);
#240=VERTEX_POINT('',#887);
#241=VERTEX_POINT('',#888);
#242=VERTEX_POINT('',#890);
#243=VERTEX_POINT('',#892);
#244=VERTEX_POINT('',#896);
#245=VERTEX_POINT('',#898);
#246=VERTEX_POINT('',#902);
#247=VERTEX_POINT('',#906);
#248=VERTEX_POINT('',#913);
#249=VERTEX_POINT('',#915);
#250=VERTEX_POINT('',#920);
#251=VERTEX_POINT('',#922);
#252=VERTEX_POINT('',#926);
#253=VERTEX_POINT('',#929);
#254=VERTEX_POINT('',#933);
#255=VERTEX_POINT('',#934);
#256=VERTEX_POINT('',#936);
#257=VERTEX_POINT('',#938);
#258=VERTEX_POINT('',#942);
#259=VERTEX_POINT('',#943);
#260=VERTEX_POINT('',#945);
#261=VERTEX_POINT('',#947);
#262=VERTEX_POINT('',#951);
#263=VERTEX_POINT('',#952);
#264=VERTEX_POINT('',#956);
#265=VERTEX_POINT('',#958);
#266=VERTEX_POINT('',#962);
#267=VERTEX_POINT('',#964);
#268=VERTEX_POINT('',#968);
#269=VERTEX_POINT('',#969);
#270=VERTEX_POINT('',#971);
#271=VERTEX_POINT('',#973);
#272=VERTEX_POINT('',#977);
#273=VERTEX_POINT('',#982);
#274=VERTEX_POINT('',#986);
#275=VERTEX_POINT('',#987);
#276=VERTEX_POINT('',#996);
#277=VERTEX_POINT('',#1000);
#278=VERTEX_POINT('',#1007);
#279=VERTEX_POINT('',#1009);
#280=VERTEX_POINT('',#1018);
#281=VERTEX_POINT('',#1023);
#282=VERTEX_POINT('',#1025);
#283=VERTEX_POINT('',#1030);
#284=VERTEX_POINT('',#1032);
#285=VERTEX_POINT('',#1041);
#286=VERTEX_POINT('',#1046);
#287=VERTEX_POINT('',#1048);
#288=VERTEX_POINT('',#1052);
#289=VERTEX_POINT('',#1055);
#290=LINE('',#886,#338);
#291=LINE('',#889,#339);
#292=LINE('',#891,#340);
#293=LINE('',#893,#341);
#294=LINE('',#895,#342);
#295=LINE('',#897,#343);
#296=LINE('',#899,#344);
#297=LINE('',#901,#345);
#298=LINE('',#903,#346);
#299=LINE('',#905,#347);
#300=LINE('',#907,#348);
#301=LINE('',#909,#349);
#302=LINE('',#932,#350);
#303=LINE('',#935,#351);
#304=LINE('',#937,#352);
#305=LINE('',#939,#353);
#306=LINE('',#941,#354);
#307=LINE('',#944,#355);
#308=LINE('',#946,#356);
#309=LINE('',#948,#357);
#310=LINE('',#950,#358);
#311=LINE('',#953,#359);
#312=LINE('',#954,#360);
#313=LINE('',#955,#361);
#314=LINE('',#957,#362);
#315=LINE('',#959,#363);
#316=LINE('',#961,#364);
#317=LINE('',#963,#365);
#318=LINE('',#965,#366);
#319=LINE('',#967,#367);
#320=LINE('',#970,#368);
#321=LINE('',#972,#369);
#322=LINE('',#974,#370);
#323=LINE('',#976,#371);
#324=LINE('',#978,#372);
#325=LINE('',#979,#373);
#326=LINE('',#981,#374);
#327=LINE('',#983,#375);
#328=LINE('',#985,#376);
#329=LINE('',#988,#377);
#330=LINE('',#989,#378);
#331=LINE('',#990,#379);
#332=LINE('',#991,#380);
#333=LINE('',#995,#381);
#334=LINE('',#997,#382);
#335=LINE('',#999,#383);
#336=LINE('',#1001,#384);
#337=LINE('',#1003,#385);
#338=VECTOR('',#718,1000.);
#339=VECTOR('',#719,1000.);
#340=VECTOR('',#720,1000.);
#341=VECTOR('',#721,1000.);
#342=VECTOR('',#724,1000.);
#343=VECTOR('',#725,1000.);
#344=VECTOR('',#726,1000.);
#345=VECTOR('',#729,1000.);
#346=VECTOR('',#730,1000.);
#347=VECTOR('',#733,1000.);
#348=VECTOR('',#734,1000.);
#349=VECTOR('',#737,1000.);
#350=VECTOR('',#770,1000.);
#351=VECTOR('',#771,1000.);
#352=VECTOR('',#772,1000.);
#353=VECTOR('',#773,1000.);
#354=VECTOR('',#776,1000.);
#355=VECTOR('',#777,1000.);
#356=VECTOR('',#778,1000.);
#357=VECTOR('',#779,1000.);
#358=VECTOR('',#782,1000.);
#359=VECTOR('',#783,1000.);
#360=VECTOR('',#784,1000.);
#361=VECTOR('',#785,1000.);
#362=VECTOR('',#786,1000.);
#363=VECTOR('',#787,1000.);
#364=VECTOR('',#790,1000.);
#365=VECTOR('',#791,1000.);
#366=VECTOR('',#792,1000.);
#367=VECTOR('',#795,1000.);
#368=VECTOR('',#796,1000.);
#369=VECTOR('',#797,1000.);
#370=VECTOR('',#798,1000.);
#371=VECTOR('',#801,1000.);
#372=VECTOR('',#802,1000.);
#373=VECTOR('',#803,1000.);
#374=VECTOR('',#806,1000.);
#375=VECTOR('',#807,1000.);
#376=VECTOR('',#810,1000.);
#377=VECTOR('',#811,1000.);
#378=VECTOR('',#812,1000.);
#379=VECTOR('',#813,1000.);
#380=VECTOR('',#814,1000.);
#381=VECTOR('',#821,1000.);
#382=VECTOR('',#822,1000.);
#383=VECTOR('',#825,1000.);
#384=VECTOR('',#826,1000.);
#385=VECTOR('',#829,1000.);
#386=EDGE_LOOP('',(#42,#43,#44,#45));
#387=EDGE_LOOP('',(#46,#47,#48,#49));
#388=EDGE_LOOP('',(#50,#51,#52,#53));
#389=EDGE_LOOP('',(#54,#55,#56,#57));
#390=EDGE_LOOP('',(#58,#59,#60,#61));
#391=EDGE_LOOP('',(#62,#63,#64,#65));
#392=EDGE_LOOP('',(#66));
#393=EDGE_LOOP('',(#67));
#394=EDGE_LOOP('',(#68));
#395=EDGE_LOOP('',(#69));
#396=EDGE_LOOP('',(#70));
#397=EDGE_LOOP('',(#71));
#398=EDGE_LOOP('',(#72));
#399=EDGE_LOOP('',(#73));
#400=EDGE_LOOP('',(#74));
#401=EDGE_LOOP('',(#75));
#402=EDGE_LOOP('',(#76));
#403=EDGE_LOOP('',(#77));
#404=EDGE_LOOP('',(#78,#79,#80,#81));
#405=EDGE_LOOP('',(#82,#83,#84,#85));
#406=EDGE_LOOP('',(#86,#87,#88,#89,#90,#91,#92,#93));
#407=EDGE_LOOP('',(#94,#95,#96,#97));
#408=EDGE_LOOP('',(#98,#99,#100,#101));
#409=EDGE_LOOP('',(#102,#103,#104,#105,#106,#107,#108,#109));
#410=EDGE_LOOP('',(#110,#111,#112,#113));
#411=EDGE_LOOP('',(#114,#115,#116,#117,#118,#119,#120,#121,#122,#123,#124,
#125));
#412=EDGE_LOOP('',(#126,#127,#128,#129));
#413=EDGE_LOOP('',(#130,#131,#132,#133));
#414=EDGE_LOOP('',(#134,#135,#136,#137));
#415=EDGE_LOOP('',(#138,#139,#140,#141));
#416=EDGE_LOOP('',(#142,#143,#144,#145));
#417=EDGE_LOOP('',(#146,#147,#148,#149));
#418=EDGE_LOOP('',(#150));
#419=EDGE_LOOP('',(#151));
#420=EDGE_LOOP('',(#152));
#421=EDGE_LOOP('',(#153));
#422=EDGE_LOOP('',(#154));
#423=EDGE_LOOP('',(#155));
#424=EDGE_LOOP('',(#156));
#425=EDGE_LOOP('',(#157));
#426=EDGE_LOOP('',(#158));
#427=EDGE_LOOP('',(#159));
#428=EDGE_LOOP('',(#160));
#429=EDGE_LOOP('',(#161));
#430=EDGE_LOOP('',(#162));
#431=EDGE_LOOP('',(#163));
#432=EDGE_LOOP('',(#164));
#433=EDGE_LOOP('',(#165));
#434=EDGE_LOOP('',(#166));
#435=EDGE_LOOP('',(#167));
#436=EDGE_LOOP('',(#168));
#437=EDGE_LOOP('',(#169));
#438=EDGE_LOOP('',(#170));
#439=EDGE_LOOP('',(#171));
#440=EDGE_LOOP('',(#172));
#441=EDGE_LOOP('',(#173));
#442=FACE_BOUND('',#386,.T.);
#443=FACE_BOUND('',#387,.T.);
#444=FACE_BOUND('',#388,.T.);
#445=FACE_BOUND('',#389,.T.);
#446=FACE_BOUND('',#390,.T.);
#447=FACE_BOUND('',#391,.T.);
#448=FACE_BOUND('',#392,.T.);
#449=FACE_BOUND('',#393,.T.);
#450=FACE_BOUND('',#394,.T.);
#451=FACE_BOUND('',#395,.T.);
#452=FACE_BOUND('',#396,.T.);
#453=FACE_BOUND('',#397,.T.);
#454=FACE_BOUND('',#398,.T.);
#455=FACE_BOUND('',#399,.T.);
#456=FACE_BOUND('',#400,.T.);
#457=FACE_BOUND('',#401,.T.);
#458=FACE_BOUND('',#402,.T.);
#459=FACE_BOUND('',#403,.T.);
#460=FACE_BOUND('',#404,.T.);
#461=FACE_BOUND('',#405,.T.);
#462=FACE_BOUND('',#406,.T.);
#463=FACE_BOUND('',#407,.T.);
#464=FACE_BOUND('',#408,.T.);
#465=FACE_BOUND('',#409,.T.);
#466=FACE_BOUND('',#410,.T.);
#467=FACE_BOUND('',#411,.T.);
#468=FACE_BOUND('',#412,.T.);
#469=FACE_BOUND('',#413,.T.);
#470=FACE_BOUND('',#414,.T.);
#471=FACE_BOUND('',#415,.T.);
#472=FACE_BOUND('',#416,.T.);
#473=FACE_BOUND('',#417,.T.);
#474=FACE_BOUND('',#418,.T.);
#475=FACE_BOUND('',#419,.T.);
#476=FACE_BOUND('',#420,.T.);
#477=FACE_BOUND('',#421,.T.);
#478=FACE_BOUND('',#422,.T.);
#479=FACE_BOUND('',#423,.T.);
#480=FACE_BOUND('',#424,.T.);
#481=FACE_BOUND('',#425,.T.);
#482=FACE_BOUND('',#426,.T.);
#483=FACE_BOUND('',#427,.T.);
#484=FACE_BOUND('',#428,.T.);
#485=FACE_BOUND('',#429,.T.);
#486=FACE_BOUND('',#430,.T.);
#487=FACE_BOUND('',#431,.T.);
#488=FACE_BOUND('',#432,.T.);
#489=FACE_BOUND('',#433,.T.);
#490=FACE_BOUND('',#434,.T.);
#491=FACE_BOUND('',#435,.T.);
#492=FACE_BOUND('',#436,.T.);
#493=FACE_BOUND('',#437,.T.);
#494=FACE_BOUND('',#438,.T.);
#495=FACE_BOUND('',#439,.T.);
#496=FACE_BOUND('',#440,.T.);
#497=FACE_BOUND('',#441,.T.);
#498=PLANE('',#654);
#499=PLANE('',#655);
#500=PLANE('',#656);
#501=PLANE('',#657);
#502=PLANE('',#658);
#503=PLANE('',#659);
#504=PLANE('',#663);
#505=PLANE('',#664);
#506=PLANE('',#669);
#507=PLANE('',#671);
#508=PLANE('',#674);
#509=PLANE('',#675);
#510=PLANE('',#676);
#511=PLANE('',#677);
#512=PLANE('',#678);
#513=PLANE('',#679);
#514=PLANE('',#680);
#515=PLANE('',#681);
#516=PLANE('',#682);
#517=PLANE('',#683);
#518=PLANE('',#684);
#519=PLANE('',#685);
#520=PLANE('',#686);
#521=PLANE('',#687);
#522=PLANE('',#692);
#523=PLANE('',#693);
#524=PLANE('',#697);
#525=PLANE('',#698);
#526=PLANE('',#703);
#527=PLANE('',#704);
#528=PLANE('',#709);
#529=PLANE('',#711);
#530=ADVANCED_FACE('',(#442),#498,.T.);
#531=ADVANCED_FACE('',(#443),#499,.T.);
#532=ADVANCED_FACE('',(#444),#500,.T.);
#533=ADVANCED_FACE('',(#445),#501,.T.);
#534=ADVANCED_FACE('',(#446),#502,.T.);
#535=ADVANCED_FACE('',(#447),#503,.T.);
#536=ADVANCED_FACE('',(#448,#449),#34,.T.);
#537=ADVANCED_FACE('',(#450),#504,.T.);
#538=ADVANCED_FACE('',(#451),#505,.F.);
#539=ADVANCED_FACE('',(#452,#453),#35,.T.);
#540=ADVANCED_FACE('',(#454),#16,.T.);
#541=ADVANCED_FACE('',(#455),#506,.T.);
#542=ADVANCED_FACE('',(#456,#457),#507,.T.);
#543=ADVANCED_FACE('',(#458,#459),#36,.T.);
#544=ADVANCED_FACE('',(#460),#508,.F.);
#545=ADVANCED_FACE('',(#461),#509,.T.);
#546=ADVANCED_FACE('',(#462),#510,.T.);
#547=ADVANCED_FACE('',(#463),#511,.T.);
#548=ADVANCED_FACE('',(#464),#512,.F.);
#549=ADVANCED_FACE('',(#465),#513,.F.);
#550=ADVANCED_FACE('',(#466),#514,.F.);
#551=ADVANCED_FACE('',(#467),#515,.F.);
#552=ADVANCED_FACE('',(#468),#516,.T.);
#553=ADVANCED_FACE('',(#469),#517,.F.);
#554=ADVANCED_FACE('',(#470),#518,.F.);
#555=ADVANCED_FACE('',(#471),#519,.F.);
#556=ADVANCED_FACE('',(#472),#520,.F.);
#557=ADVANCED_FACE('',(#473),#521,.T.);
#558=ADVANCED_FACE('',(#474,#475),#12,.T.);
#559=ADVANCED_FACE('',(#476,#477),#13,.T.);
#560=ADVANCED_FACE('',(#478),#522,.T.);
#561=ADVANCED_FACE('',(#479),#523,.F.);
#562=ADVANCED_FACE('',(#480,#481),#37,.T.);
#563=ADVANCED_FACE('',(#482),#524,.T.);
#564=ADVANCED_FACE('',(#483),#525,.F.);
#565=ADVANCED_FACE('',(#484,#485),#14,.T.);
#566=ADVANCED_FACE('',(#486,#487),#15,.T.);
#567=ADVANCED_FACE('',(#488),#526,.T.);
#568=ADVANCED_FACE('',(#489),#527,.F.);
#569=ADVANCED_FACE('',(#490,#491),#38,.T.);
#570=ADVANCED_FACE('',(#492),#17,.T.);
#571=ADVANCED_FACE('',(#493),#528,.T.);
#572=ADVANCED_FACE('',(#494,#495),#529,.T.);
#573=ADVANCED_FACE('',(#496,#497),#39,.T.);
#574=CLOSED_SHELL('',(#530,#531,#532,#533,#534,#535));
#575=CLOSED_SHELL('',(#536,#537,#538));
#576=CLOSED_SHELL('',(#539,#540,#541,#542,#543));
#577=CLOSED_SHELL('',(#544,#545,#546,#547,#548,#549,#550,#551,#552,#553,
#554,#555,#556,#557));
#578=CLOSED_SHELL('',(#558,#559,#560,#561));
#579=CLOSED_SHELL('',(#562,#563,#564));
#580=CLOSED_SHELL('',(#565,#566,#567,#568));
#581=CLOSED_SHELL('',(#569,#570,#571,#572,#573));
#582=STYLED_ITEM('',(#590),#643);
#583=STYLED_ITEM('',(#591),#644);
#584=STYLED_ITEM('',(#592),#645);
#585=STYLED_ITEM('',(#593),#646);
#586=STYLED_ITEM('',(#594),#647);
#587=STYLED_ITEM('',(#595),#648);
#588=STYLED_ITEM('',(#596),#649);
#589=STYLED_ITEM('',(#597),#650);
#590=PRESENTATION_STYLE_ASSIGNMENT((#598));
#591=PRESENTATION_STYLE_ASSIGNMENT((#599));
#592=PRESENTATION_STYLE_ASSIGNMENT((#600));
#593=PRESENTATION_STYLE_ASSIGNMENT((#601));
#594=PRESENTATION_STYLE_ASSIGNMENT((#602));
#595=PRESENTATION_STYLE_ASSIGNMENT((#603));
#596=PRESENTATION_STYLE_ASSIGNMENT((#604));
#597=PRESENTATION_STYLE_ASSIGNMENT((#605));
#598=SURFACE_STYLE_USAGE(.BOTH.,#606);
#599=SURFACE_STYLE_USAGE(.BOTH.,#607);
#600=SURFACE_STYLE_USAGE(.BOTH.,#608);
#601=SURFACE_STYLE_USAGE(.BOTH.,#609);
#602=SURFACE_STYLE_USAGE(.BOTH.,#610);
#603=SURFACE_STYLE_USAGE(.BOTH.,#611);
#604=SURFACE_STYLE_USAGE(.BOTH.,#612);
#605=SURFACE_STYLE_USAGE(.BOTH.,#613);
#606=SURFACE_SIDE_STYLE('',(#614));
#607=SURFACE_SIDE_STYLE('',(#615));
#608=SURFACE_SIDE_STYLE('',(#616));
#609=SURFACE_SIDE_STYLE('',(#617));
#610=SURFACE_SIDE_STYLE('',(#618));
#611=SURFACE_SIDE_STYLE('',(#619));
#612=SURFACE_SIDE_STYLE('',(#620));
#613=SURFACE_SIDE_STYLE('',(#621));
#614=SURFACE_STYLE_FILL_AREA(#622);
#615=SURFACE_STYLE_FILL_AREA(#623);
#616=SURFACE_STYLE_FILL_AREA(#624);
#617=SURFACE_STYLE_FILL_AREA(#625);
#618=SURFACE_STYLE_FILL_AREA(#626);
#619=SURFACE_STYLE_FILL_AREA(#627);
#620=SURFACE_STYLE_FILL_AREA(#628);
#621=SURFACE_STYLE_FILL_AREA(#629);
#622=FILL_AREA_STYLE('',(#630));
#623=FILL_AREA_STYLE('',(#631));
#624=FILL_AREA_STYLE('',(#632));
#625=FILL_AREA_STYLE('',(#633));
#626=FILL_AREA_STYLE('',(#634));
#627=FILL_AREA_STYLE('',(#635));
#628=FILL_AREA_STYLE('',(#636));
#629=FILL_AREA_STYLE('',(#637));
#630=FILL_AREA_STYLE_COLOUR('',#638);
#631=FILL_AREA_STYLE_COLOUR('',#639);
#632=FILL_AREA_STYLE_COLOUR('',#640);
#633=FILL_AREA_STYLE_COLOUR('',#641);
#634=FILL_AREA_STYLE_COLOUR('',#639);
#635=FILL_AREA_STYLE_COLOUR('',#639);
#636=FILL_AREA_STYLE_COLOUR('',#639);
#637=FILL_AREA_STYLE_COLOUR('',#642);
#638=COLOUR_RGB('',0.,0.674509803921569,0.396078431372549);
#639=COLOUR_RGB('',0.611764705882353,0.658823529411765,0.670588235294118);
#640=COLOUR_RGB('',0.949019607843137,0.949019607843137,0.949019607843137);
#641=COLOUR_RGB('',0.874509803921569,0.874509803921569,0.874509803921569);
#642=COLOUR_RGB('',0.4,0.4,0.4);
#643=MANIFOLD_SOLID_BREP('Block (53)',#574);
#644=MANIFOLD_SOLID_BREP('Tube (63)',#575);
#645=MANIFOLD_SOLID_BREP('Cylinder (45)',#576);
#646=MANIFOLD_SOLID_BREP('Extrude (68)',#577);
#647=MANIFOLD_SOLID_BREP('Tube (59)',#578);
#648=MANIFOLD_SOLID_BREP('Body (65)',#579);
#649=MANIFOLD_SOLID_BREP('Body (60)',#580);
#650=MANIFOLD_SOLID_BREP('Body (52)',#581);
#651=SHAPE_DEFINITION_REPRESENTATION(#1063,#652);
#652=SHAPE_REPRESENTATION('C05-03',(#653),#1058);
#653=AXIS2_PLACEMENT_3D('',#884,#714,#715);
#654=AXIS2_PLACEMENT_3D('',#885,#716,#717);
#655=AXIS2_PLACEMENT_3D('',#894,#722,#723);
#656=AXIS2_PLACEMENT_3D('',#900,#727,#728);
#657=AXIS2_PLACEMENT_3D('',#904,#731,#732);
#658=AXIS2_PLACEMENT_3D('',#908,#735,#736);
#659=AXIS2_PLACEMENT_3D('',#910,#738,#739);
#660=AXIS2_PLACEMENT_3D('',#911,#740,#741);
#661=AXIS2_PLACEMENT_3D('',#912,#742,#743);
#662=AXIS2_PLACEMENT_3D('',#914,#744,#745);
#663=AXIS2_PLACEMENT_3D('',#916,#746,#747);
#664=AXIS2_PLACEMENT_3D('',#917,#748,#749);
#665=AXIS2_PLACEMENT_3D('',#918,#750,#751);
#666=AXIS2_PLACEMENT_3D('',#919,#752,#753);
#667=AXIS2_PLACEMENT_3D('',#921,#754,#755);
#668=AXIS2_PLACEMENT_3D('',#923,#756,#757);
#669=AXIS2_PLACEMENT_3D('',#924,#758,#759);
#670=AXIS2_PLACEMENT_3D('',#925,#760,#761);
#671=AXIS2_PLACEMENT_3D('',#927,#762,#763);
#672=AXIS2_PLACEMENT_3D('',#928,#764,#765);
#673=AXIS2_PLACEMENT_3D('',#930,#766,#767);
#674=AXIS2_PLACEMENT_3D('',#931,#768,#769);
#675=AXIS2_PLACEMENT_3D('',#940,#774,#775);
#676=AXIS2_PLACEMENT_3D('',#949,#780,#781);
#677=AXIS2_PLACEMENT_3D('',#960,#788,#789);
#678=AXIS2_PLACEMENT_3D('',#966,#793,#794);
#679=AXIS2_PLACEMENT_3D('',#975,#799,#800);
#680=AXIS2_PLACEMENT_3D('',#980,#804,#805);
#681=AXIS2_PLACEMENT_3D('',#984,#808,#809);
#682=AXIS2_PLACEMENT_3D('',#992,#815,#816);
#683=AXIS2_PLACEMENT_3D('',#993,#817,#818);
#684=AXIS2_PLACEMENT_3D('',#994,#819,#820);
#685=AXIS2_PLACEMENT_3D('',#998,#823,#824);
#686=AXIS2_PLACEMENT_3D('',#1002,#827,#828);
#687=AXIS2_PLACEMENT_3D('',#1004,#830,#831);
#688=AXIS2_PLACEMENT_3D('',#1005,#832,#833);
#689=AXIS2_PLACEMENT_3D('',#1006,#834,#835);
#690=AXIS2_PLACEMENT_3D('',#1008,#836,#837);
#691=AXIS2_PLACEMENT_3D('',#1010,#838,#839);
#692=AXIS2_PLACEMENT_3D('',#1019,#840,#841);
#693=AXIS2_PLACEMENT_3D('',#1020,#842,#843);
#694=AXIS2_PLACEMENT_3D('',#1021,#844,#845);
#695=AXIS2_PLACEMENT_3D('',#1022,#846,#847);
#696=AXIS2_PLACEMENT_3D('',#1024,#848,#849);
#697=AXIS2_PLACEMENT_3D('',#1026,#850,#851);
#698=AXIS2_PLACEMENT_3D('',#1027,#852,#853);
#699=AXIS2_PLACEMENT_3D('',#1028,#854,#855);
#700=AXIS2_PLACEMENT_3D('',#1029,#856,#857);
#701=AXIS2_PLACEMENT_3D('',#1031,#858,#859);
#702=AXIS2_PLACEMENT_3D('',#1033,#860,#861);
#703=AXIS2_PLACEMENT_3D('',#1042,#862,#863);
#704=AXIS2_PLACEMENT_3D('',#1043,#864,#865);
#705=AXIS2_PLACEMENT_3D('',#1044,#866,#867);
#706=AXIS2_PLACEMENT_3D('',#1045,#868,#869);
#707=AXIS2_PLACEMENT_3D('',#1047,#870,#871);
#708=AXIS2_PLACEMENT_3D('',#1049,#872,#873);
#709=AXIS2_PLACEMENT_3D('',#1050,#874,#875);
#710=AXIS2_PLACEMENT_3D('',#1051,#876,#877);
#711=AXIS2_PLACEMENT_3D('',#1053,#878,#879);
#712=AXIS2_PLACEMENT_3D('',#1054,#880,#881);
#713=AXIS2_PLACEMENT_3D('',#1056,#882,#883);
#714=DIRECTION('',(0.,0.,1.));
#715=DIRECTION('',(1.,0.,0.));
#716=DIRECTION('',(0.,0.,1.));
#717=DIRECTION('',(1.,0.,0.));
#718=DIRECTION('',(-1.,0.,0.));
#719=DIRECTION('',(0.,-1.,0.));
#720=DIRECTION('',(1.,0.,0.));
#721=DIRECTION('',(0.,1.,0.));
#722=DIRECTION('',(0.,-1.,0.));
#723=DIRECTION('',(0.,0.,-1.));
#724=DIRECTION('',(0.,0.,1.));
#725=DIRECTION('',(0.,0.,1.));
#726=DIRECTION('',(1.,0.,0.));
#727=DIRECTION('',(-1.,0.,0.));
#728=DIRECTION('',(0.,0.,1.));
#729=DIRECTION('',(0.,0.,1.));
#730=DIRECTION('',(0.,-1.,0.));
#731=DIRECTION('',(0.,1.,0.));
#732=DIRECTION('',(0.,0.,1.));
#733=DIRECTION('',(0.,0.,1.));
#734=DIRECTION('',(-1.,0.,0.));
#735=DIRECTION('',(0.,0.,-1.));
#736=DIRECTION('',(-1.,0.,0.));
#737=DIRECTION('',(0.,1.,0.));
#738=DIRECTION('',(1.,0.,0.));
#739=DIRECTION('',(0.,0.,-1.));
#740=DIRECTION('',(0.,1.,0.));
#741=DIRECTION('',(0.,0.,1.));
#742=DIRECTION('',(0.,-1.,0.));
#743=DIRECTION('',(0.,0.,-1.));
#744=DIRECTION('',(0.,-1.,0.));
#745=DIRECTION('',(0.,0.,-1.));
#746=DIRECTION('',(0.,-1.,0.));
#747=DIRECTION('',(0.,0.,-1.));
#748=DIRECTION('',(0.,-1.,0.));
#749=DIRECTION('',(0.,0.,-1.));
#750=DIRECTION('',(0.501565669568365,0.865119575035982,0.));
#751=DIRECTION('',(0.755890737664609,-0.438238660755661,-0.486390860247124));
#752=DIRECTION('',(0.501565669568365,0.865119575035982,0.));
#753=DIRECTION('',(-0.865119575035982,0.501565669568365,0.));
#754=DIRECTION('',(0.501565669568365,0.865119575035982,0.));
#755=DIRECTION('',(0.755890737664609,-0.438238660755661,-0.486390860247124));
#756=DIRECTION('',(0.501565669568365,0.865119575035982,0.));
#757=DIRECTION('',(-0.865119575035982,0.501565669568365,0.));
#758=DIRECTION('',(-0.501565669568366,-0.865119575035981,0.));
#759=DIRECTION('',(0.865119575035981,-0.501565669568366,0.));
#760=DIRECTION('',(0.501565669568366,0.865119575035981,0.));
#761=DIRECTION('',(0.755890737664609,-0.438238660755661,0.486390860247125));
#762=DIRECTION('',(0.501565669568366,0.865119575035981,0.));
#763=DIRECTION('',(-0.865119575035981,0.501565669568366,0.));
#764=DIRECTION('',(-0.501565669568366,-0.865119575035981,0.));
#765=DIRECTION('',(0.755890737664609,-0.438238660755661,0.486390860247125));
#766=DIRECTION('',(-0.501565669568366,-0.865119575035981,0.));
#767=DIRECTION('',(0.755890737664609,-0.438238660755661,0.486390860247125));
#768=DIRECTION('',(-1.,0.,0.));
#769=DIRECTION('',(0.,0.,-1.));
#770=DIRECTION('',(0.,0.,-1.));
#771=DIRECTION('',(0.,1.,0.));
#772=DIRECTION('',(0.,0.,1.));
#773=DIRECTION('',(0.,-1.,0.));
#774=DIRECTION('',(-1.,0.,-3.71726459137887E-16));
#775=DIRECTION('',(3.71726459137887E-16,0.,-1.));
#776=DIRECTION('',(3.71726459137887E-16,0.,-1.));
#777=DIRECTION('',(0.,-1.,0.));
#778=DIRECTION('',(3.71726459137887E-16,0.,-1.));
#779=DIRECTION('',(0.,1.,0.));
#780=DIRECTION('',(0.,-1.,0.));
#781=DIRECTION('',(0.,0.,-1.));
#782=DIRECTION('',(0.,0.,-1.));
#783=DIRECTION('',(-1.,0.,-2.60208521396521E-16));
#784=DIRECTION('',(1.,0.,0.));
#785=DIRECTION('',(-1.,0.,-2.60208521396521E-16));
#786=DIRECTION('',(0.,0.,1.));
#787=DIRECTION('',(1.,0.,1.88556899562696E-16));
#788=DIRECTION('',(0.,-1.,0.));
#789=DIRECTION('',(0.,0.,-1.));
#790=DIRECTION('',(-1.,0.,-2.60208521396521E-16));
#791=DIRECTION('',(1.,0.,0.));
#792=DIRECTION('',(0.,0.,1.));
#793=DIRECTION('',(1.,0.,2.47817639425258E-16));
#794=DIRECTION('',(2.47817639425258E-16,0.,-1.));
#795=DIRECTION('',(2.47817639425258E-16,0.,-1.));
#796=DIRECTION('',(0.,1.,0.));
#797=DIRECTION('',(2.47817639425258E-16,0.,-1.));
#798=DIRECTION('',(0.,1.,0.));
#799=DIRECTION('',(0.,0.,1.));
#800=DIRECTION('',(1.,0.,0.));
#801=DIRECTION('',(1.,0.,0.));
#802=DIRECTION('',(0.,1.,0.));
#803=DIRECTION('',(1.,0.,0.));
#804=DIRECTION('',(-1.,0.,0.));
#805=DIRECTION('',(0.,0.,1.));
#806=DIRECTION('',(0.,0.,1.));
#807=DIRECTION('',(0.,1.,0.));
#808=DIRECTION('',(2.60208521396521E-16,0.,-1.));
#809=DIRECTION('',(-1.,0.,-2.60208521396521E-16));
#810=DIRECTION('',(-1.,0.,-1.88556899562696E-16));
#811=DIRECTION('',(0.,-1.,0.));
#812=DIRECTION('',(-1.,0.,-2.60208521396521E-16));
#813=DIRECTION('',(-1.,0.,-2.60208521396521E-16));
#814=DIRECTION('',(0.,-1.,0.));
#815=DIRECTION('',(0.,-1.,0.));
#816=DIRECTION('',(0.,0.,-1.));
#817=DIRECTION('',(0.,-1.,0.));
#818=DIRECTION('',(0.,0.,-1.));
#819=DIRECTION('',(-1.,0.,0.));
#820=DIRECTION('',(0.,0.,1.));
#821=DIRECTION('',(0.,-1.,0.));
#822=DIRECTION('',(0.,0.,-1.));
#823=DIRECTION('',(1.88556899562696E-16,0.,-1.));
#824=DIRECTION('',(-1.,0.,-1.88556899562696E-16));
#825=DIRECTION('',(0.,-1.,0.));
#826=DIRECTION('',(1.,0.,1.88556899562696E-16));
#827=DIRECTION('',(1.,0.,0.));
#828=DIRECTION('',(0.,0.,-1.));
#829=DIRECTION('',(0.,0.,1.));
#830=DIRECTION('',(0.,-1.,0.));
#831=DIRECTION('',(0.,0.,-1.));
#832=DIRECTION('',(-4.08800906625841E-14,1.61190682513979E-14,-1.));
#833=DIRECTION('',(-1.,0.,4.08800906625841E-14));
#834=DIRECTION('',(0.221540172869336,0.975151245605021,6.69826296111938E-15));
#835=DIRECTION('',(-0.975151245605022,0.221540172869336,4.40079702587869E-16));
#836=DIRECTION('',(0.577882092203148,0.816120265347524,-1.04324582329834E-14));
#837=DIRECTION('',(-0.816120265347524,0.577882092203148,-3.17221469922416E-16));
#838=DIRECTION('',(-4.14012754265034E-14,2.57406078828441E-15,1.));
#839=DIRECTION('',(1.,0.,4.14012754265034E-14));
#840=DIRECTION('',(0.577882092203148,0.816120265347524,-1.04324582329834E-14));
#841=DIRECTION('',(-0.816120265347524,0.577882092203148,-3.17221469922416E-16));
#842=DIRECTION('',(-0.00679009879829748,0.999976947013435,-2.81880436893772E-15));
#843=DIRECTION('',(-0.999976947013435,-0.00679009879829748,0.));
#844=DIRECTION('',(0.,1.,0.));
#845=DIRECTION('',(0.,0.,1.));
#846=DIRECTION('',(0.,-1.,0.));
#847=DIRECTION('',(0.,0.,-1.));
#848=DIRECTION('',(0.,-1.,0.));
#849=DIRECTION('',(0.,0.,-1.));
#850=DIRECTION('',(0.,-1.,0.));
#851=DIRECTION('',(0.,0.,-1.));
#852=DIRECTION('',(0.,-1.,0.));
#853=DIRECTION('',(0.,0.,-1.));
#854=DIRECTION('',(-4.08800906625841E-14,1.61190682513979E-14,-1.));
#855=DIRECTION('',(-1.,0.,4.08800906625841E-14));
#856=DIRECTION('',(0.221540172869336,0.975151245605021,6.69826296111938E-15));
#857=DIRECTION('',(-0.975151245605022,0.221540172869336,4.40079702587869E-16));
#858=DIRECTION('',(0.577882092203148,0.816120265347524,-1.04324582329834E-14));
#859=DIRECTION('',(-0.816120265347524,0.577882092203148,-3.17221469922416E-16));
#860=DIRECTION('',(-4.14012754265034E-14,2.57406078828441E-15,1.));
#861=DIRECTION('',(1.,0.,4.14012754265034E-14));
#862=DIRECTION('',(0.577882092203148,0.816120265347524,-1.04324582329834E-14));
#863=DIRECTION('',(-0.816120265347524,0.577882092203148,-3.17221469922416E-16));
#864=DIRECTION('',(-0.00679009879829748,0.999976947013435,-2.81880436893772E-15));
#865=DIRECTION('',(-0.999976947013435,-0.00679009879829748,0.));
#866=DIRECTION('',(0.00180882399436533,0.999998364076541,0.));
#867=DIRECTION('',(0.873739911680741,-0.00158044430256871,-0.486390860247124));
#868=DIRECTION('',(0.00180882399436533,0.999998364076541,0.));
#869=DIRECTION('',(-0.999998364076541,0.00180882399436533,0.));
#870=DIRECTION('',(0.00180882399436533,0.999998364076541,0.));
#871=DIRECTION('',(0.873739911680741,-0.00158044430256871,-0.486390860247124));
#872=DIRECTION('',(0.00180882399436533,0.999998364076541,0.));
#873=DIRECTION('',(-0.999998364076541,0.00180882399436533,0.));
#874=DIRECTION('',(-0.00180882399436627,-0.999998364076541,0.));
#875=DIRECTION('',(0.999998364076541,-0.00180882399436622,0.));
#876=DIRECTION('',(0.00180882399436627,0.999998364076541,0.));
#877=DIRECTION('',(0.873739911680741,-0.00158044430256926,0.486390860247125));
#878=DIRECTION('',(0.00180882399436627,0.999998364076541,0.));
#879=DIRECTION('',(-0.999998364076541,0.00180882399436622,0.));
#880=DIRECTION('',(-0.00180882399436627,-0.999998364076541,0.));
#881=DIRECTION('',(0.873739911680741,-0.00158044430256926,0.486390860247125));
#882=DIRECTION('',(-0.00180882399436627,-0.999998364076541,0.));
#883=DIRECTION('',(0.873739911680741,-0.00158044430256926,0.486390860247125));
#884=CARTESIAN_POINT('',(0.,0.,0.));
#885=CARTESIAN_POINT('',(-0.849999999999996,-8.25,6.55));
#886=CARTESIAN_POINT('',(-0.849999999999996,-8.85,6.55));
#887=CARTESIAN_POINT('',(10.9,-8.85,6.55));
#888=CARTESIAN_POINT('',(-12.6,-8.85,6.55));
#889=CARTESIAN_POINT('',(10.9,-8.25,6.55));
#890=CARTESIAN_POINT('',(10.9,-7.65,6.55));
#891=CARTESIAN_POINT('',(-0.849999999999996,-7.65,6.55));
#892=CARTESIAN_POINT('',(-12.6,-7.65,6.55));
#893=CARTESIAN_POINT('',(-12.6,-8.25,6.55));
#894=CARTESIAN_POINT('',(-0.849999999999996,-8.85,-0.0499999999999997));
#895=CARTESIAN_POINT('',(10.9,-8.85,-0.0499999999999997));
#896=CARTESIAN_POINT('',(10.9,-8.85,-0.0499999999999997));
#897=CARTESIAN_POINT('',(-12.6,-8.85,-0.0499999999999997));
#898=CARTESIAN_POINT('',(-12.6,-8.85,-0.0499999999999997));
#899=CARTESIAN_POINT('',(-0.849999999999996,-8.85,-0.0499999999999997));
#900=CARTESIAN_POINT('',(-12.6,-8.25,-0.0499999999999997));
#901=CARTESIAN_POINT('',(-12.6,-7.65,-0.0499999999999997));
#902=CARTESIAN_POINT('',(-12.6,-7.65,-0.0499999999999997));
#903=CARTESIAN_POINT('',(-12.6,-8.25,-0.0499999999999997));
#904=CARTESIAN_POINT('',(-0.849999999999996,-7.65,-0.0499999999999997));
#905=CARTESIAN_POINT('',(10.9,-7.65,-0.0499999999999997));
#906=CARTESIAN_POINT('',(10.9,-7.65,-0.0499999999999997));
#907=CARTESIAN_POINT('',(-0.849999999999996,-7.65,-0.0499999999999997));
#908=CARTESIAN_POINT('',(-0.849999999999996,-8.25,-0.0499999999999997));
#909=CARTESIAN_POINT('',(10.9,-8.25,-0.0499999999999997));
#910=CARTESIAN_POINT('',(10.9,-8.25,-0.0499999999999997));
#911=CARTESIAN_POINT('',(7.65459628293814,-11.1453192799284,4.65));
#912=CARTESIAN_POINT('',(7.65459628293814,-11.1453192799284,4.65));
#913=CARTESIAN_POINT('',(7.65459628293814,-11.1453192799284,4.35));
#914=CARTESIAN_POINT('',(7.65459628293814,-5.00870927992845,4.65));
#915=CARTESIAN_POINT('',(7.65459628293814,-5.00870927992845,4.35));
#916=CARTESIAN_POINT('',(7.65459628293814,-11.1453192799284,4.65));
#917=CARTESIAN_POINT('',(7.65459628293814,-5.00870927992845,4.65));
#918=CARTESIAN_POINT('',(-9.31482742938483,-3.51525526752904,3.15));
#919=CARTESIAN_POINT('',(-8.21138295633443,-1.61199220244988,3.15));
#920=CARTESIAN_POINT('',(-9.5090623188884,-0.859643698097328,3.15));
#921=CARTESIAN_POINT('',(-9.31482742938483,-3.51525526752904,3.15));
#922=CARTESIAN_POINT('',(-8.18099132288791,-4.17261325866253,2.42041370962931));
#923=CARTESIAN_POINT('',(-8.21138295633443,-1.61199220244988,3.15));
#924=CARTESIAN_POINT('',(-9.79131481547478,-4.33711886381322,3.15));
#925=CARTESIAN_POINT('',(-9.79131481547478,-4.33711886381322,3.15));
#926=CARTESIAN_POINT('',(-8.27953334014556,-5.21359618532454,4.12278172049425));
#927=CARTESIAN_POINT('',(-9.31482742938483,-3.51525526752904,3.15));
#928=CARTESIAN_POINT('',(-9.31482742938483,-3.51525526752904,3.15));
#929=CARTESIAN_POINT('',(-7.80304595405561,-4.39173258904036,4.12278172049425));
#930=CARTESIAN_POINT('',(-9.31482742938483,-3.51525526752904,3.15));
#931=CARTESIAN_POINT('',(2.15000000000001,-13.45,2.9));
#932=CARTESIAN_POINT('',(2.15000000000001,-13.45,2.9));
#933=CARTESIAN_POINT('',(2.15000000000001,-13.45,4.65));
#934=CARTESIAN_POINT('',(2.15,-13.45,1.14999999999999));
#935=CARTESIAN_POINT('',(2.15000000000001,-13.45,1.14999999999999));
#936=CARTESIAN_POINT('',(2.15000000000001,-11.45,1.14999999999999));
#937=CARTESIAN_POINT('',(2.15000000000001,-11.45,2.9));
#938=CARTESIAN_POINT('',(2.15000000000001,-11.45,4.65));
#939=CARTESIAN_POINT('',(2.15000000000001,-13.45,4.65));
#940=CARTESIAN_POINT('',(-3.85,-13.45,2.89999999999999));
#941=CARTESIAN_POINT('',(-3.85,-13.45,2.89999999999999));
#942=CARTESIAN_POINT('',(-3.85,-13.45,4.65));
#943=CARTESIAN_POINT('',(-3.85,-13.45,1.14999999999999));
#944=CARTESIAN_POINT('',(-3.85,-13.45,4.64999999999999));
#945=CARTESIAN_POINT('',(-3.85,-11.45,4.64999999999999));
#946=CARTESIAN_POINT('',(-3.85,-11.45,-1.43114686768086E-15));
#947=CARTESIAN_POINT('',(-3.85,-11.45,1.14999999999999));
#948=CARTESIAN_POINT('',(-3.85,-13.45,1.14999999999999));
#949=CARTESIAN_POINT('',(0.,-13.45,0.));
#950=CARTESIAN_POINT('',(-3.15,-13.45,4.65));
#951=CARTESIAN_POINT('',(-3.15,-13.45,4.65));
#952=CARTESIAN_POINT('',(-3.15,-13.45,1.84999999999999));
#953=CARTESIAN_POINT('',(4.15,-13.45,4.65));
#954=CARTESIAN_POINT('',(-5.85,-13.45,1.14999999999999));
#955=CARTESIAN_POINT('',(4.15,-13.45,4.65));
#956=CARTESIAN_POINT('',(1.45000000000001,-13.45,4.65));
#957=CARTESIAN_POINT('',(1.45000000000001,-13.45,1.84999999999999));
#958=CARTESIAN_POINT('',(1.45000000000001,-13.45,1.84999999999999));
#959=CARTESIAN_POINT('',(-3.15,-13.45,1.84999999999999));
#960=CARTESIAN_POINT('',(0.,-11.45,0.));
#961=CARTESIAN_POINT('',(4.15,-11.45,4.65));
#962=CARTESIAN_POINT('',(4.15,-11.45,4.65));
#963=CARTESIAN_POINT('',(-5.85,-11.45,1.14999999999999));
#964=CARTESIAN_POINT('',(4.15,-11.45,1.14999999999999));
#965=CARTESIAN_POINT('',(4.15,-11.45,1.14999999999999));
#966=CARTESIAN_POINT('',(-5.85,-13.45,4.64999999999999));
#967=CARTESIAN_POINT('',(-5.85,-8.85,4.64999999999999));
#968=CARTESIAN_POINT('',(-5.85,-8.85,4.64999999999999));
#969=CARTESIAN_POINT('',(-5.85,-8.85,1.14999999999999));
#970=CARTESIAN_POINT('',(-5.85,-13.45,1.14999999999999));
#971=CARTESIAN_POINT('',(-5.85,-11.45,1.14999999999999));
#972=CARTESIAN_POINT('',(-5.85,-11.45,4.64999999999999));
#973=CARTESIAN_POINT('',(-5.85,-11.45,4.64999999999999));
#974=CARTESIAN_POINT('',(-5.85,-13.45,4.64999999999999));
#975=CARTESIAN_POINT('',(-5.85,-13.45,1.14999999999999));
#976=CARTESIAN_POINT('',(-5.85,-8.85,1.14999999999999));
#977=CARTESIAN_POINT('',(4.15,-8.85,1.14999999999999));
#978=CARTESIAN_POINT('',(4.15,-13.45,1.14999999999999));
#979=CARTESIAN_POINT('',(-5.85,-11.45,1.14999999999999));
#980=CARTESIAN_POINT('',(4.15,-13.45,1.14999999999999));
#981=CARTESIAN_POINT('',(4.15,-8.85,1.14999999999999));
#982=CARTESIAN_POINT('',(4.15,-8.85,4.65));
#983=CARTESIAN_POINT('',(4.15,-13.45,4.65));
#984=CARTESIAN_POINT('',(4.15,-13.45,4.65));
#985=CARTESIAN_POINT('',(1.45000000000001,-10.65,4.65));
#986=CARTESIAN_POINT('',(1.45000000000001,-10.65,4.65));
#987=CARTESIAN_POINT('',(-3.15,-10.65,4.65));
#988=CARTESIAN_POINT('',(1.45000000000001,-10.65,4.65));
#989=CARTESIAN_POINT('',(4.15,-8.85,4.65));
#990=CARTESIAN_POINT('',(4.15,-11.45,4.65));
#991=CARTESIAN_POINT('',(-3.15,-10.65,4.65));
#992=CARTESIAN_POINT('',(0.,-11.45,0.));
#993=CARTESIAN_POINT('',(0.,-8.85,0.));
#994=CARTESIAN_POINT('',(-3.15,-10.65,4.65));
#995=CARTESIAN_POINT('',(-3.15,-10.65,1.84999999999999));
#996=CARTESIAN_POINT('',(-3.15,-10.65,1.84999999999999));
#997=CARTESIAN_POINT('',(-3.15,-10.65,4.65));
#998=CARTESIAN_POINT('',(-3.15,-10.65,1.84999999999999));
#999=CARTESIAN_POINT('',(1.45000000000001,-10.65,1.84999999999999));
#1000=CARTESIAN_POINT('',(1.45000000000001,-10.65,1.84999999999999));
#1001=CARTESIAN_POINT('',(-3.15,-10.65,1.84999999999999));
#1002=CARTESIAN_POINT('',(1.45000000000001,-10.65,1.84999999999999));
#1003=CARTESIAN_POINT('',(1.45000000000001,-10.65,1.84999999999999));
#1004=CARTESIAN_POINT('',(0.,-10.65,0.));
#1005=CARTESIAN_POINT('',(-4.04833883281117,-8.40363101557419,1.6499999999997));
#1006=CARTESIAN_POINT('',(-10.9104036788414,-6.8446697374322,1.65000000000001));
#1007=CARTESIAN_POINT('',(-11.1541914902427,-6.78928469421486,1.65000000000001));
#1008=CARTESIAN_POINT('',(-9.79131481547476,-4.33711886381322,1.65));
#1009=CARTESIAN_POINT('',(-9.99534488181164,-4.19264834076244,1.65));
#1010=CARTESIAN_POINT('',(0.898024938024621,-9.52737288618596,1.6500000000005));
#1011=CARTESIAN_POINT('',(-11.1632497891776,-10.6092950747547,2.02504443627735));
#1012=CARTESIAN_POINT('',(-10.7865186922191,-10.6067369744141,1.64997773180175));
#1013=CARTESIAN_POINT('',(-11.1627164269236,-10.6092914530888,1.27504463651565));
#1014=CARTESIAN_POINT('',(-11.5390729384069,-10.6118470098984,1.64984393344926));
#1015=CARTESIAN_POINT('',(-11.1632497891776,-10.6092950747547,2.02504443627735));
#1016=CARTESIAN_POINT('',(-10.7865186922191,-10.6067369744141,1.64997773180175));
#1017=CARTESIAN_POINT('',(-11.1627164269236,-10.6092914530888,1.27504463651565));
#1018=CARTESIAN_POINT('',(-10.912006830829,-10.6075890709167,1.65000000000013));
#1019=CARTESIAN_POINT('',(-9.79131481547476,-4.33711886381322,1.65));
#1020=CARTESIAN_POINT('',(-11.2042362006531,-10.6095733829539,1.65));
#1021=CARTESIAN_POINT('',(7.65459628293814,-11.1453192799284,1.65));
#1022=CARTESIAN_POINT('',(7.65459628293814,-11.1453192799284,1.65));
#1023=CARTESIAN_POINT('',(7.65459628293814,-11.1453192799284,1.35));
#1024=CARTESIAN_POINT('',(7.65459628293814,-5.00870927992845,1.65));
#1025=CARTESIAN_POINT('',(7.65459628293814,-5.00870927992845,1.35));
#1026=CARTESIAN_POINT('',(7.65459628293814,-11.1453192799284,1.65));
#1027=CARTESIAN_POINT('',(7.65459628293814,-5.00870927992845,1.65));
#1028=CARTESIAN_POINT('',(-4.04833883281117,-8.40363101557419,4.6499999999997));
#1029=CARTESIAN_POINT('',(-10.9104036788414,-6.8446697374322,4.65));
#1030=CARTESIAN_POINT('',(-11.1541914902427,-6.78928469421486,4.65));
#1031=CARTESIAN_POINT('',(-9.79131481547476,-4.33711886381322,4.65));
#1032=CARTESIAN_POINT('',(-9.99534488181164,-4.19264834076244,4.65));
#1033=CARTESIAN_POINT('',(0.898024938024621,-9.52737288618596,4.6500000000005));
#1034=CARTESIAN_POINT('',(-11.1632497891776,-10.6092950747547,5.02504443627735));
#1035=CARTESIAN_POINT('',(-10.7865186922191,-10.6067369744141,4.64997773180175));
#1036=CARTESIAN_POINT('',(-11.1627164269236,-10.6092914530888,4.27504463651566));
#1037=CARTESIAN_POINT('',(-11.5390729384069,-10.6118470098984,4.64984393344925));
#1038=CARTESIAN_POINT('',(-11.1632497891776,-10.6092950747547,5.02504443627735));
#1039=CARTESIAN_POINT('',(-10.7865186922191,-10.6067369744141,4.64997773180175));
#1040=CARTESIAN_POINT('',(-11.1627164269236,-10.6092914530888,4.27504463651566));
#1041=CARTESIAN_POINT('',(-10.912006830829,-10.6075890709167,4.65000000000013));
#1042=CARTESIAN_POINT('',(-9.79131481547476,-4.33711886381322,4.65));
#1043=CARTESIAN_POINT('',(-11.2042362006531,-10.6095733829539,4.65));
#1044=CARTESIAN_POINT('',(7.65631466573279,-4.05871083405573,3.15));
#1045=CARTESIAN_POINT('',(7.6602940785204,-1.85871443308734,3.15));
#1046=CARTESIAN_POINT('',(6.16029653240559,-1.85600119709579,3.15));
#1047=CARTESIAN_POINT('',(7.65631466573279,-4.05871083405573,3.15));
#1048=CARTESIAN_POINT('',(8.9669245332539,-4.06108150050958,2.42041370962931));
#1049=CARTESIAN_POINT('',(7.6602940785204,-1.85871443308734,3.15));
#1050=CARTESIAN_POINT('',(7.65459628293814,-5.00870927992845,3.15));
#1051=CARTESIAN_POINT('',(7.65459628293814,-5.00870927992845,3.15));
#1052=CARTESIAN_POINT('',(9.40207610629963,-5.01187016853358,4.12278172049425));
#1053=CARTESIAN_POINT('',(7.65631466573279,-4.05871083405573,3.15));
#1054=CARTESIAN_POINT('',(7.65631466573279,-4.05871083405573,3.15));
#1055=CARTESIAN_POINT('',(9.40379448909427,-4.06187172266087,4.12278172049425));
#1056=CARTESIAN_POINT('',(7.65631466573279,-4.05871083405573,3.15));
#1057=MECHANICAL_DESIGN_GEOMETRIC_PRESENTATION_REPRESENTATION('',(#582,
#583,#584,#585,#586,#587,#588,#589),#1058);
#1058=(
GEOMETRIC_REPRESENTATION_CONTEXT(3)
GLOBAL_UNCERTAINTY_ASSIGNED_CONTEXT((#1059))
GLOBAL_UNIT_ASSIGNED_CONTEXT((#1062,#1061,#1060))
REPRESENTATION_CONTEXT('C05-03','TOP_LEVEL_ASSEMBLY_PART')
);
#1059=UNCERTAINTY_MEASURE_WITH_UNIT(LENGTH_MEASURE(0.005),#1062,
'DISTANCE_ACCURACY_VALUE','Maximum Tolerance applied to model');
#1060=(
NAMED_UNIT(*)
SI_UNIT($,.STERADIAN.)
SOLID_ANGLE_UNIT()
);
#1061=(
NAMED_UNIT(*)
PLANE_ANGLE_UNIT()
SI_UNIT($,.RADIAN.)
);
#1062=(
LENGTH_UNIT()
NAMED_UNIT(*)
SI_UNIT(.MILLI.,.METRE.)
);
#1063=PRODUCT_DEFINITION_SHAPE('','',#1064);
#1064=PRODUCT_DEFINITION('','',#1066,#1065);
#1065=PRODUCT_DEFINITION_CONTEXT('',#1072,'design');
#1066=PRODUCT_DEFINITION_FORMATION_WITH_SPECIFIED_SOURCE('','',#1068,
 .NOT_KNOWN.);
#1067=PRODUCT_RELATED_PRODUCT_CATEGORY('','',(#1068));
#1068=PRODUCT('C05-03','C05-03','C05-03',(#1070));
#1069=PRODUCT_CATEGORY('','');
#1070=PRODUCT_CONTEXT('',#1072,'mechanical');
#1071=APPLICATION_PROTOCOL_DEFINITION('international standard',
'ap242_managed_model_based_3d_engineering',2020,#1072);
#1072=APPLICATION_CONTEXT('managed model based 3d engineering');
ENDSEC;
END-ISO-10303-21;
