ISO-10303-21;
HEADER;
/* Generated by software containing ST-Developer
 * from STEP Tools, Inc. (www.steptools.com) 
 */
/* OPTION: using custom renumber hook */

FILE_DESCRIPTION(
/* description */ (
'CAx-IF Rec.Pracs.---Representation and Presentation of Product Manufa
cturing Information (PMI)---4.0---2014-10-13',
'CAx-IF Rec.Pracs.---3D Tessellated Geometry---0.4---2014-09-14','2;1'),

/* implementation_level */ '2;1');

FILE_NAME(
/* name */ 'C07-02',
/* time_stamp */ '2026-04-13T01:14:58+03:00',
/* author */ (''),
/* organization */ (''),
/* preprocessor_version */ 'ST-DEVELOPER v18.102',
/* originating_system */ 'SIEMENS PLM Software NX2206.9140',
/* authorisation */ $);

FILE_SCHEMA (('AP242_MANAGED_MODEL_BASED_3D_ENGINEERING_MIM_LF { 1 0 10303 442 3 1 4 }'));
ENDSEC;

DATA;
#10=SHAPE_REPRESENTATION_RELATIONSHIP('','',#743,#11);
#11=ADVANCED_BREP_SHAPE_REPRESENTATION('',(#740,#741),#1125);
#12=PLANE('',#748);
#13=PLANE('',#752);
#14=PLANE('',#753);
#15=PLANE('',#758);
#16=PLANE('',#761);
#17=PLANE('',#762);
#18=PLANE('',#763);
#19=PLANE('',#770);
#20=PLANE('',#771);
#21=PLANE('',#772);
#22=PLANE('',#773);
#23=PLANE('',#774);
#24=PLANE('',#787);
#25=PLANE('',#788);
#26=PLANE('',#789);
#27=PLANE('',#790);
#28=PLANE('',#791);
#29=PLANE('',#792);
#30=PLANE('',#793);
#31=PLANE('',#794);
#32=PLANE('',#795);
#33=PLANE('',#796);
#34=PLANE('',#797);
#35=LINE('',#967,#91);
#36=LINE('',#971,#92);
#37=LINE('',#973,#93);
#38=LINE('',#975,#94);
#39=LINE('',#977,#95);
#40=LINE('',#983,#96);
#41=LINE('',#985,#97);
#42=LINE('',#986,#98);
#43=LINE('',#988,#99);
#44=LINE('',#993,#100);
#45=LINE('',#1000,#101);
#46=LINE('',#1001,#102);
#47=LINE('',#1003,#103);
#48=LINE('',#1005,#104);
#49=LINE('',#1009,#105);
#50=LINE('',#1011,#106);
#51=LINE('',#1018,#107);
#52=LINE('',#1023,#108);
#53=LINE('',#1027,#109);
#54=LINE('',#1031,#110);
#55=LINE('',#1035,#111);
#56=LINE('',#1037,#112);
#57=LINE('',#1039,#113);
#58=LINE('',#1041,#114);
#59=LINE('',#1043,#115);
#60=LINE('',#1045,#116);
#61=LINE('',#1047,#117);
#62=LINE('',#1050,#118);
#63=LINE('',#1051,#119);
#64=LINE('',#1053,#120);
#65=LINE('',#1056,#121);
#66=LINE('',#1057,#122);
#67=LINE('',#1074,#123);
#68=LINE('',#1077,#124);
#69=LINE('',#1079,#125);
#70=LINE('',#1081,#126);
#71=LINE('',#1082,#127);
#72=LINE('',#1085,#128);
#73=LINE('',#1087,#129);
#74=LINE('',#1089,#130);
#75=LINE('',#1091,#131);
#76=LINE('',#1094,#132);
#77=LINE('',#1096,#133);
#78=LINE('',#1098,#134);
#79=LINE('',#1100,#135);
#80=LINE('',#1101,#136);
#81=LINE('',#1103,#137);
#82=LINE('',#1104,#138);
#83=LINE('',#1108,#139);
#84=LINE('',#1111,#140);
#85=LINE('',#1113,#141);
#86=LINE('',#1115,#142);
#87=LINE('',#1117,#143);
#88=LINE('',#1118,#144);
#89=LINE('',#1120,#145);
#90=LINE('',#1121,#146);
#91=VECTOR('',#804,1000.);
#92=VECTOR('',#807,1000.);
#93=VECTOR('',#810,1000.);
#94=VECTOR('',#811,1000.);
#95=VECTOR('',#812,1000.);
#96=VECTOR('',#819,1000.);
#97=VECTOR('',#822,1000.);
#98=VECTOR('',#823,1000.);
#99=VECTOR('',#826,1000.);
#100=VECTOR('',#829,1000.);
#101=VECTOR('',#836,1000.);
#102=VECTOR('',#837,1000.);
#103=VECTOR('',#840,1000.);
#104=VECTOR('',#841,1000.);
#105=VECTOR('',#846,1000.);
#106=VECTOR('',#849,1000.);
#107=VECTOR('',#858,1000.);
#108=VECTOR('',#861,1000.);
#109=VECTOR('',#864,1000.);
#110=VECTOR('',#867,1000.);
#111=VECTOR('',#872,1000.);
#112=VECTOR('',#873,1000.);
#113=VECTOR('',#874,1000.);
#114=VECTOR('',#877,1000.);
#115=VECTOR('',#878,1000.);
#116=VECTOR('',#879,1000.);
#117=VECTOR('',#882,1000.);
#118=VECTOR('',#883,1000.);
#119=VECTOR('',#884,1000.);
#120=VECTOR('',#887,1000.);
#121=VECTOR('',#888,1000.);
#122=VECTOR('',#889,1000.);
#123=VECTOR('',#918,1000.);
#124=VECTOR('',#919,1000.);
#125=VECTOR('',#920,1000.);
#126=VECTOR('',#921,1000.);
#127=VECTOR('',#922,1000.);
#128=VECTOR('',#923,1000.);
#129=VECTOR('',#924,1000.);
#130=VECTOR('',#925,1000.);
#131=VECTOR('',#928,1000.);
#132=VECTOR('',#929,1000.);
#133=VECTOR('',#930,1000.);
#134=VECTOR('',#931,1000.);
#135=VECTOR('',#934,1000.);
#136=VECTOR('',#935,1000.);
#137=VECTOR('',#938,1000.);
#138=VECTOR('',#939,1000.);
#139=VECTOR('',#946,1000.);
#140=VECTOR('',#947,1000.);
#141=VECTOR('',#948,1000.);
#142=VECTOR('',#949,1000.);
#143=VECTOR('',#952,1000.);
#144=VECTOR('',#953,1000.);
#145=VECTOR('',#956,1000.);
#146=VECTOR('',#957,1000.);
#147=ORIENTED_EDGE('',*,*,#299,.F.);
#148=ORIENTED_EDGE('',*,*,#300,.T.);
#149=ORIENTED_EDGE('',*,*,#301,.T.);
#150=ORIENTED_EDGE('',*,*,#302,.F.);
#151=ORIENTED_EDGE('',*,*,#303,.F.);
#152=ORIENTED_EDGE('',*,*,#302,.T.);
#153=ORIENTED_EDGE('',*,*,#304,.T.);
#154=ORIENTED_EDGE('',*,*,#305,.F.);
#155=ORIENTED_EDGE('',*,*,#306,.F.);
#156=ORIENTED_EDGE('',*,*,#305,.T.);
#157=ORIENTED_EDGE('',*,*,#307,.T.);
#158=ORIENTED_EDGE('',*,*,#308,.F.);
#159=ORIENTED_EDGE('',*,*,#309,.F.);
#160=ORIENTED_EDGE('',*,*,#308,.T.);
#161=ORIENTED_EDGE('',*,*,#310,.T.);
#162=ORIENTED_EDGE('',*,*,#300,.F.);
#163=ORIENTED_EDGE('',*,*,#311,.T.);
#164=ORIENTED_EDGE('',*,*,#312,.T.);
#165=ORIENTED_EDGE('',*,*,#313,.T.);
#166=ORIENTED_EDGE('',*,*,#314,.T.);
#167=ORIENTED_EDGE('',*,*,#301,.F.);
#168=ORIENTED_EDGE('',*,*,#310,.F.);
#169=ORIENTED_EDGE('',*,*,#307,.F.);
#170=ORIENTED_EDGE('',*,*,#304,.F.);
#171=ORIENTED_EDGE('',*,*,#315,.T.);
#172=ORIENTED_EDGE('',*,*,#316,.T.);
#173=ORIENTED_EDGE('',*,*,#312,.F.);
#174=ORIENTED_EDGE('',*,*,#317,.F.);
#175=ORIENTED_EDGE('',*,*,#318,.T.);
#176=ORIENTED_EDGE('',*,*,#319,.T.);
#177=ORIENTED_EDGE('',*,*,#313,.F.);
#178=ORIENTED_EDGE('',*,*,#316,.F.);
#179=ORIENTED_EDGE('',*,*,#320,.T.);
#180=ORIENTED_EDGE('',*,*,#321,.T.);
#181=ORIENTED_EDGE('',*,*,#314,.F.);
#182=ORIENTED_EDGE('',*,*,#319,.F.);
#183=ORIENTED_EDGE('',*,*,#322,.T.);
#184=ORIENTED_EDGE('',*,*,#317,.T.);
#185=ORIENTED_EDGE('',*,*,#311,.F.);
#186=ORIENTED_EDGE('',*,*,#321,.F.);
#187=ORIENTED_EDGE('',*,*,#315,.F.);
#188=ORIENTED_EDGE('',*,*,#322,.F.);
#189=ORIENTED_EDGE('',*,*,#320,.F.);
#190=ORIENTED_EDGE('',*,*,#318,.F.);
#191=ORIENTED_EDGE('',*,*,#323,.T.);
#192=ORIENTED_EDGE('',*,*,#324,.T.);
#193=ORIENTED_EDGE('',*,*,#325,.T.);
#194=ORIENTED_EDGE('',*,*,#326,.T.);
#195=ORIENTED_EDGE('',*,*,#327,.T.);
#196=ORIENTED_EDGE('',*,*,#328,.T.);
#197=ORIENTED_EDGE('',*,*,#329,.T.);
#198=ORIENTED_EDGE('',*,*,#330,.T.);
#199=ORIENTED_EDGE('',*,*,#331,.T.);
#200=ORIENTED_EDGE('',*,*,#332,.T.);
#201=ORIENTED_EDGE('',*,*,#309,.T.);
#202=ORIENTED_EDGE('',*,*,#299,.T.);
#203=ORIENTED_EDGE('',*,*,#303,.T.);
#204=ORIENTED_EDGE('',*,*,#306,.T.);
#205=ORIENTED_EDGE('',*,*,#329,.F.);
#206=ORIENTED_EDGE('',*,*,#333,.T.);
#207=ORIENTED_EDGE('',*,*,#334,.T.);
#208=ORIENTED_EDGE('',*,*,#335,.T.);
#209=ORIENTED_EDGE('',*,*,#327,.F.);
#210=ORIENTED_EDGE('',*,*,#336,.T.);
#211=ORIENTED_EDGE('',*,*,#337,.T.);
#212=ORIENTED_EDGE('',*,*,#338,.T.);
#213=ORIENTED_EDGE('',*,*,#339,.T.);
#214=ORIENTED_EDGE('',*,*,#340,.T.);
#215=ORIENTED_EDGE('',*,*,#325,.F.);
#216=ORIENTED_EDGE('',*,*,#341,.T.);
#217=ORIENTED_EDGE('',*,*,#342,.T.);
#218=ORIENTED_EDGE('',*,*,#343,.T.);
#219=ORIENTED_EDGE('',*,*,#331,.F.);
#220=ORIENTED_EDGE('',*,*,#344,.T.);
#221=ORIENTED_EDGE('',*,*,#345,.F.);
#222=ORIENTED_EDGE('',*,*,#346,.F.);
#223=ORIENTED_EDGE('',*,*,#337,.F.);
#224=ORIENTED_EDGE('',*,*,#347,.T.);
#225=ORIENTED_EDGE('',*,*,#339,.F.);
#226=ORIENTED_EDGE('',*,*,#348,.T.);
#227=ORIENTED_EDGE('',*,*,#342,.F.);
#228=ORIENTED_EDGE('',*,*,#349,.T.);
#229=ORIENTED_EDGE('',*,*,#334,.F.);
#230=ORIENTED_EDGE('',*,*,#350,.T.);
#231=ORIENTED_EDGE('',*,*,#347,.F.);
#232=ORIENTED_EDGE('',*,*,#336,.F.);
#233=ORIENTED_EDGE('',*,*,#326,.F.);
#234=ORIENTED_EDGE('',*,*,#340,.F.);
#235=ORIENTED_EDGE('',*,*,#350,.F.);
#236=ORIENTED_EDGE('',*,*,#333,.F.);
#237=ORIENTED_EDGE('',*,*,#328,.F.);
#238=ORIENTED_EDGE('',*,*,#338,.F.);
#239=ORIENTED_EDGE('',*,*,#348,.F.);
#240=ORIENTED_EDGE('',*,*,#341,.F.);
#241=ORIENTED_EDGE('',*,*,#332,.F.);
#242=ORIENTED_EDGE('',*,*,#343,.F.);
#243=ORIENTED_EDGE('',*,*,#349,.F.);
#244=ORIENTED_EDGE('',*,*,#344,.F.);
#245=ORIENTED_EDGE('',*,*,#330,.F.);
#246=ORIENTED_EDGE('',*,*,#335,.F.);
#247=ORIENTED_EDGE('',*,*,#346,.T.);
#248=ORIENTED_EDGE('',*,*,#324,.F.);
#249=ORIENTED_EDGE('',*,*,#345,.T.);
#250=ORIENTED_EDGE('',*,*,#323,.F.);
#251=ORIENTED_EDGE('',*,*,#351,.T.);
#252=ORIENTED_EDGE('',*,*,#352,.F.);
#253=ORIENTED_EDGE('',*,*,#353,.F.);
#254=ORIENTED_EDGE('',*,*,#354,.T.);
#255=ORIENTED_EDGE('',*,*,#355,.F.);
#256=ORIENTED_EDGE('',*,*,#356,.F.);
#257=ORIENTED_EDGE('',*,*,#357,.T.);
#258=ORIENTED_EDGE('',*,*,#358,.T.);
#259=ORIENTED_EDGE('',*,*,#359,.T.);
#260=ORIENTED_EDGE('',*,*,#360,.F.);
#261=ORIENTED_EDGE('',*,*,#361,.F.);
#262=ORIENTED_EDGE('',*,*,#362,.T.);
#263=ORIENTED_EDGE('',*,*,#363,.T.);
#264=ORIENTED_EDGE('',*,*,#354,.F.);
#265=ORIENTED_EDGE('',*,*,#364,.F.);
#266=ORIENTED_EDGE('',*,*,#360,.T.);
#267=ORIENTED_EDGE('',*,*,#365,.T.);
#268=ORIENTED_EDGE('',*,*,#362,.F.);
#269=ORIENTED_EDGE('',*,*,#366,.F.);
#270=ORIENTED_EDGE('',*,*,#352,.T.);
#271=ORIENTED_EDGE('',*,*,#361,.T.);
#272=ORIENTED_EDGE('',*,*,#364,.T.);
#273=ORIENTED_EDGE('',*,*,#353,.T.);
#274=ORIENTED_EDGE('',*,*,#366,.T.);
#275=ORIENTED_EDGE('',*,*,#359,.F.);
#276=ORIENTED_EDGE('',*,*,#365,.F.);
#277=ORIENTED_EDGE('',*,*,#351,.F.);
#278=ORIENTED_EDGE('',*,*,#363,.F.);
#279=ORIENTED_EDGE('',*,*,#367,.F.);
#280=ORIENTED_EDGE('',*,*,#368,.F.);
#281=ORIENTED_EDGE('',*,*,#369,.T.);
#282=ORIENTED_EDGE('',*,*,#370,.T.);
#283=ORIENTED_EDGE('',*,*,#371,.F.);
#284=ORIENTED_EDGE('',*,*,#370,.F.);
#285=ORIENTED_EDGE('',*,*,#372,.T.);
#286=ORIENTED_EDGE('',*,*,#356,.T.);
#287=ORIENTED_EDGE('',*,*,#373,.F.);
#288=ORIENTED_EDGE('',*,*,#358,.F.);
#289=ORIENTED_EDGE('',*,*,#374,.T.);
#290=ORIENTED_EDGE('',*,*,#368,.T.);
#291=ORIENTED_EDGE('',*,*,#369,.F.);
#292=ORIENTED_EDGE('',*,*,#374,.F.);
#293=ORIENTED_EDGE('',*,*,#357,.F.);
#294=ORIENTED_EDGE('',*,*,#372,.F.);
#295=ORIENTED_EDGE('',*,*,#367,.T.);
#296=ORIENTED_EDGE('',*,*,#371,.T.);
#297=ORIENTED_EDGE('',*,*,#355,.T.);
#298=ORIENTED_EDGE('',*,*,#373,.T.);
#299=EDGE_CURVE('',#375,#376,#427,.T.);
#300=EDGE_CURVE('',#375,#377,#35,.F.);
#301=EDGE_CURVE('',#377,#378,#428,.T.);
#302=EDGE_CURVE('',#376,#378,#36,.F.);
#303=EDGE_CURVE('',#376,#379,#37,.T.);
#304=EDGE_CURVE('',#378,#380,#38,.T.);
#305=EDGE_CURVE('',#379,#380,#39,.F.);
#306=EDGE_CURVE('',#379,#381,#429,.T.);
#307=EDGE_CURVE('',#380,#382,#430,.T.);
#308=EDGE_CURVE('',#381,#382,#40,.F.);
#309=EDGE_CURVE('',#381,#375,#41,.T.);
#310=EDGE_CURVE('',#382,#377,#42,.T.);
#311=EDGE_CURVE('',#383,#384,#43,.T.);
#312=EDGE_CURVE('',#384,#385,#431,.T.);
#313=EDGE_CURVE('',#385,#386,#44,.T.);
#314=EDGE_CURVE('',#386,#383,#432,.T.);
#315=EDGE_CURVE('',#387,#388,#433,.T.);
#316=EDGE_CURVE('',#388,#385,#45,.T.);
#317=EDGE_CURVE('',#387,#384,#46,.F.);
#318=EDGE_CURVE('',#388,#389,#47,.T.);
#319=EDGE_CURVE('',#389,#386,#48,.F.);
#320=EDGE_CURVE('',#389,#390,#434,.T.);
#321=EDGE_CURVE('',#390,#383,#49,.F.);
#322=EDGE_CURVE('',#390,#387,#50,.T.);
#323=EDGE_CURVE('',#391,#391,#435,.T.);
#324=EDGE_CURVE('',#392,#392,#436,.T.);
#325=EDGE_CURVE('',#393,#394,#51,.F.);
#326=EDGE_CURVE('',#394,#395,#437,.F.);
#327=EDGE_CURVE('',#395,#396,#52,.F.);
#328=EDGE_CURVE('',#396,#397,#438,.F.);
#329=EDGE_CURVE('',#397,#398,#53,.F.);
#330=EDGE_CURVE('',#398,#399,#439,.F.);
#331=EDGE_CURVE('',#399,#400,#54,.F.);
#332=EDGE_CURVE('',#400,#393,#440,.F.);
#333=EDGE_CURVE('',#397,#401,#55,.F.);
#334=EDGE_CURVE('',#401,#402,#56,.F.);
#335=EDGE_CURVE('',#402,#398,#57,.T.);
#336=EDGE_CURVE('',#395,#403,#58,.F.);
#337=EDGE_CURVE('',#403,#404,#59,.F.);
#338=EDGE_CURVE('',#404,#396,#60,.T.);
#339=EDGE_CURVE('',#405,#406,#61,.F.);
#340=EDGE_CURVE('',#406,#394,#62,.T.);
#341=EDGE_CURVE('',#393,#405,#63,.F.);
#342=EDGE_CURVE('',#407,#408,#64,.F.);
#343=EDGE_CURVE('',#408,#400,#65,.T.);
#344=EDGE_CURVE('',#399,#407,#66,.F.);
#345=EDGE_CURVE('',#409,#409,#441,.T.);
#346=EDGE_CURVE('',#410,#410,#442,.T.);
#347=EDGE_CURVE('',#403,#406,#443,.T.);
#348=EDGE_CURVE('',#405,#408,#444,.T.);
#349=EDGE_CURVE('',#407,#402,#445,.T.);
#350=EDGE_CURVE('',#401,#404,#446,.T.);
#351=EDGE_CURVE('',#411,#412,#67,.T.);
#352=EDGE_CURVE('',#413,#412,#68,.T.);
#353=EDGE_CURVE('',#414,#413,#69,.T.);
#354=EDGE_CURVE('',#414,#411,#70,.T.);
#355=EDGE_CURVE('',#415,#416,#71,.T.);
#356=EDGE_CURVE('',#417,#415,#72,.T.);
#357=EDGE_CURVE('',#417,#418,#73,.T.);
#358=EDGE_CURVE('',#418,#416,#74,.T.);
#359=EDGE_CURVE('',#419,#420,#75,.T.);
#360=EDGE_CURVE('',#421,#420,#76,.T.);
#361=EDGE_CURVE('',#422,#421,#77,.T.);
#362=EDGE_CURVE('',#422,#419,#78,.T.);
#363=EDGE_CURVE('',#420,#411,#79,.T.);
#364=EDGE_CURVE('',#421,#414,#80,.T.);
#365=EDGE_CURVE('',#412,#419,#81,.T.);
#366=EDGE_CURVE('',#413,#422,#82,.T.);
#367=EDGE_CURVE('',#423,#424,#83,.T.);
#368=EDGE_CURVE('',#425,#423,#84,.T.);
#369=EDGE_CURVE('',#425,#426,#85,.T.);
#370=EDGE_CURVE('',#426,#424,#86,.T.);
#371=EDGE_CURVE('',#424,#415,#87,.T.);
#372=EDGE_CURVE('',#426,#417,#88,.T.);
#373=EDGE_CURVE('',#416,#423,#89,.T.);
#374=EDGE_CURVE('',#418,#425,#90,.T.);
#375=VERTEX_POINT('',#965);
#376=VERTEX_POINT('',#966);
#377=VERTEX_POINT('',#968);
#378=VERTEX_POINT('',#970);
#379=VERTEX_POINT('',#974);
#380=VERTEX_POINT('',#976);
#381=VERTEX_POINT('',#980);
#382=VERTEX_POINT('',#982);
#383=VERTEX_POINT('',#989);
#384=VERTEX_POINT('',#990);
#385=VERTEX_POINT('',#992);
#386=VERTEX_POINT('',#994);
#387=VERTEX_POINT('',#998);
#388=VERTEX_POINT('',#999);
#389=VERTEX_POINT('',#1004);
#390=VERTEX_POINT('',#1008);
#391=VERTEX_POINT('',#1015);
#392=VERTEX_POINT('',#1017);
#393=VERTEX_POINT('',#1019);
#394=VERTEX_POINT('',#1020);
#395=VERTEX_POINT('',#1022);
#396=VERTEX_POINT('',#1024);
#397=VERTEX_POINT('',#1026);
#398=VERTEX_POINT('',#1028);
#399=VERTEX_POINT('',#1030);
#400=VERTEX_POINT('',#1032);
#401=VERTEX_POINT('',#1036);
#402=VERTEX_POINT('',#1038);
#403=VERTEX_POINT('',#1042);
#404=VERTEX_POINT('',#1044);
#405=VERTEX_POINT('',#1048);
#406=VERTEX_POINT('',#1049);
#407=VERTEX_POINT('',#1054);
#408=VERTEX_POINT('',#1055);
#409=VERTEX_POINT('',#1060);
#410=VERTEX_POINT('',#1062);
#411=VERTEX_POINT('',#1075);
#412=VERTEX_POINT('',#1076);
#413=VERTEX_POINT('',#1078);
#414=VERTEX_POINT('',#1080);
#415=VERTEX_POINT('',#1083);
#416=VERTEX_POINT('',#1084);
#417=VERTEX_POINT('',#1086);
#418=VERTEX_POINT('',#1088);
#419=VERTEX_POINT('',#1092);
#420=VERTEX_POINT('',#1093);
#421=VERTEX_POINT('',#1095);
#422=VERTEX_POINT('',#1097);
#423=VERTEX_POINT('',#1109);
#424=VERTEX_POINT('',#1110);
#425=VERTEX_POINT('',#1112);
#426=VERTEX_POINT('',#1114);
#427=CIRCLE('',#746,1.6);
#428=CIRCLE('',#747,1.6);
#429=CIRCLE('',#750,1.6);
#430=CIRCLE('',#751,1.6);
#431=CIRCLE('',#754,1.25);
#432=CIRCLE('',#755,1.25);
#433=CIRCLE('',#757,1.25);
#434=CIRCLE('',#760,1.25);
#435=CIRCLE('',#764,2.);
#436=CIRCLE('',#765,2.000000000001);
#437=CIRCLE('',#766,0.8);
#438=CIRCLE('',#767,0.8);
#439=CIRCLE('',#768,0.8);
#440=CIRCLE('',#769,0.8);
#441=CIRCLE('',#775,2.);
#442=CIRCLE('',#776,2.000000000001);
#443=CIRCLE('',#777,0.8);
#444=CIRCLE('',#778,0.8);
#445=CIRCLE('',#779,0.8);
#446=CIRCLE('',#780,0.8);
#447=EDGE_LOOP('',(#147,#148,#149,#150));
#448=EDGE_LOOP('',(#151,#152,#153,#154));
#449=EDGE_LOOP('',(#155,#156,#157,#158));
#450=EDGE_LOOP('',(#159,#160,#161,#162));
#451=EDGE_LOOP('',(#163,#164,#165,#166));
#452=EDGE_LOOP('',(#167,#168,#169,#170));
#453=EDGE_LOOP('',(#171,#172,#173,#174));
#454=EDGE_LOOP('',(#175,#176,#177,#178));
#455=EDGE_LOOP('',(#179,#180,#181,#182));
#456=EDGE_LOOP('',(#183,#184,#185,#186));
#457=EDGE_LOOP('',(#187,#188,#189,#190));
#458=EDGE_LOOP('',(#191));
#459=EDGE_LOOP('',(#192));
#460=EDGE_LOOP('',(#193,#194,#195,#196,#197,#198,#199,#200));
#461=EDGE_LOOP('',(#201,#202,#203,#204));
#462=EDGE_LOOP('',(#205,#206,#207,#208));
#463=EDGE_LOOP('',(#209,#210,#211,#212));
#464=EDGE_LOOP('',(#213,#214,#215,#216));
#465=EDGE_LOOP('',(#217,#218,#219,#220));
#466=EDGE_LOOP('',(#221));
#467=EDGE_LOOP('',(#222));
#468=EDGE_LOOP('',(#223,#224,#225,#226,#227,#228,#229,#230));
#469=EDGE_LOOP('',(#231,#232,#233,#234));
#470=EDGE_LOOP('',(#235,#236,#237,#238));
#471=EDGE_LOOP('',(#239,#240,#241,#242));
#472=EDGE_LOOP('',(#243,#244,#245,#246));
#473=EDGE_LOOP('',(#247));
#474=EDGE_LOOP('',(#248));
#475=EDGE_LOOP('',(#249));
#476=EDGE_LOOP('',(#250));
#477=EDGE_LOOP('',(#251,#252,#253,#254));
#478=EDGE_LOOP('',(#255,#256,#257,#258));
#479=EDGE_LOOP('',(#259,#260,#261,#262));
#480=EDGE_LOOP('',(#263,#264,#265,#266));
#481=EDGE_LOOP('',(#267,#268,#269,#270));
#482=EDGE_LOOP('',(#271,#272,#273,#274));
#483=EDGE_LOOP('',(#275,#276,#277,#278));
#484=EDGE_LOOP('',(#279,#280,#281,#282));
#485=EDGE_LOOP('',(#283,#284,#285,#286));
#486=EDGE_LOOP('',(#287,#288,#289,#290));
#487=EDGE_LOOP('',(#291,#292,#293,#294));
#488=EDGE_LOOP('',(#295,#296,#297,#298));
#489=FACE_BOUND('',#447,.T.);
#490=FACE_BOUND('',#448,.T.);
#491=FACE_BOUND('',#449,.T.);
#492=FACE_BOUND('',#450,.T.);
#493=FACE_BOUND('',#451,.T.);
#494=FACE_BOUND('',#452,.T.);
#495=FACE_BOUND('',#453,.T.);
#496=FACE_BOUND('',#454,.T.);
#497=FACE_BOUND('',#455,.T.);
#498=FACE_BOUND('',#456,.T.);
#499=FACE_BOUND('',#457,.T.);
#500=FACE_BOUND('',#458,.T.);
#501=FACE_BOUND('',#459,.T.);
#502=FACE_BOUND('',#460,.T.);
#503=FACE_BOUND('',#461,.T.);
#504=FACE_BOUND('',#462,.T.);
#505=FACE_BOUND('',#463,.T.);
#506=FACE_BOUND('',#464,.T.);
#507=FACE_BOUND('',#465,.T.);
#508=FACE_BOUND('',#466,.T.);
#509=FACE_BOUND('',#467,.T.);
#510=FACE_BOUND('',#468,.T.);
#511=FACE_BOUND('',#469,.T.);
#512=FACE_BOUND('',#470,.T.);
#513=FACE_BOUND('',#471,.T.);
#514=FACE_BOUND('',#472,.T.);
#515=FACE_BOUND('',#473,.T.);
#516=FACE_BOUND('',#474,.T.);
#517=FACE_BOUND('',#475,.T.);
#518=FACE_BOUND('',#476,.T.);
#519=FACE_BOUND('',#477,.T.);
#520=FACE_BOUND('',#478,.T.);
#521=FACE_BOUND('',#479,.T.);
#522=FACE_BOUND('',#480,.T.);
#523=FACE_BOUND('',#481,.T.);
#524=FACE_BOUND('',#482,.T.);
#525=FACE_BOUND('',#483,.T.);
#526=FACE_BOUND('',#484,.T.);
#527=FACE_BOUND('',#485,.T.);
#528=FACE_BOUND('',#486,.T.);
#529=FACE_BOUND('',#487,.T.);
#530=FACE_BOUND('',#488,.T.);
#531=CYLINDRICAL_SURFACE('',#745,1.6);
#532=CYLINDRICAL_SURFACE('',#749,1.6);
#533=CYLINDRICAL_SURFACE('',#756,1.25);
#534=CYLINDRICAL_SURFACE('',#759,1.25);
#535=CYLINDRICAL_SURFACE('',#781,0.8);
#536=CYLINDRICAL_SURFACE('',#782,0.8);
#537=CYLINDRICAL_SURFACE('',#783,0.8);
#538=CYLINDRICAL_SURFACE('',#784,0.8);
#539=CYLINDRICAL_SURFACE('',#785,2.000000000001);
#540=CYLINDRICAL_SURFACE('',#786,2.);
#541=STYLED_ITEM('',(#564),#705);
#542=STYLED_ITEM('',(#565),#706);
#543=STYLED_ITEM('',(#566),#707);
#544=STYLED_ITEM('',(#567),#708);
#545=STYLED_ITEM('',(#568),#709);
#546=STYLED_ITEM('',(#569),#710);
#547=STYLED_ITEM('',(#570),#711);
#548=STYLED_ITEM('',(#571),#712);
#549=STYLED_ITEM('',(#572),#713);
#550=STYLED_ITEM('',(#573),#714);
#551=STYLED_ITEM('',(#574),#715);
#552=STYLED_ITEM('',(#575),#716);
#553=STYLED_ITEM('',(#576),#717);
#554=STYLED_ITEM('',(#577),#718);
#555=STYLED_ITEM('',(#578),#719);
#556=STYLED_ITEM('',(#579),#720);
#557=STYLED_ITEM('',(#580),#721);
#558=STYLED_ITEM('',(#581),#722);
#559=STYLED_ITEM('',(#582),#723);
#560=STYLED_ITEM('',(#583),#724);
#561=STYLED_ITEM('',(#584),#725);
#562=STYLED_ITEM('',(#585),#726);
#563=STYLED_ITEM('',(#586),#741);
#564=PRESENTATION_STYLE_ASSIGNMENT((#587));
#565=PRESENTATION_STYLE_ASSIGNMENT((#588));
#566=PRESENTATION_STYLE_ASSIGNMENT((#589));
#567=PRESENTATION_STYLE_ASSIGNMENT((#590));
#568=PRESENTATION_STYLE_ASSIGNMENT((#591));
#569=PRESENTATION_STYLE_ASSIGNMENT((#592));
#570=PRESENTATION_STYLE_ASSIGNMENT((#593));
#571=PRESENTATION_STYLE_ASSIGNMENT((#594));
#572=PRESENTATION_STYLE_ASSIGNMENT((#595));
#573=PRESENTATION_STYLE_ASSIGNMENT((#596));
#574=PRESENTATION_STYLE_ASSIGNMENT((#597));
#575=PRESENTATION_STYLE_ASSIGNMENT((#598));
#576=PRESENTATION_STYLE_ASSIGNMENT((#599));
#577=PRESENTATION_STYLE_ASSIGNMENT((#600));
#578=PRESENTATION_STYLE_ASSIGNMENT((#601));
#579=PRESENTATION_STYLE_ASSIGNMENT((#602));
#580=PRESENTATION_STYLE_ASSIGNMENT((#603));
#581=PRESENTATION_STYLE_ASSIGNMENT((#604));
#582=PRESENTATION_STYLE_ASSIGNMENT((#605));
#583=PRESENTATION_STYLE_ASSIGNMENT((#606));
#584=PRESENTATION_STYLE_ASSIGNMENT((#607));
#585=PRESENTATION_STYLE_ASSIGNMENT((#608));
#586=PRESENTATION_STYLE_ASSIGNMENT((#609));
#587=SURFACE_STYLE_USAGE(.BOTH.,#610);
#588=SURFACE_STYLE_USAGE(.BOTH.,#611);
#589=SURFACE_STYLE_USAGE(.BOTH.,#612);
#590=SURFACE_STYLE_USAGE(.BOTH.,#613);
#591=SURFACE_STYLE_USAGE(.BOTH.,#614);
#592=SURFACE_STYLE_USAGE(.BOTH.,#615);
#593=SURFACE_STYLE_USAGE(.BOTH.,#616);
#594=SURFACE_STYLE_USAGE(.BOTH.,#617);
#595=SURFACE_STYLE_USAGE(.BOTH.,#618);
#596=SURFACE_STYLE_USAGE(.BOTH.,#619);
#597=SURFACE_STYLE_USAGE(.BOTH.,#620);
#598=SURFACE_STYLE_USAGE(.BOTH.,#621);
#599=SURFACE_STYLE_USAGE(.BOTH.,#622);
#600=SURFACE_STYLE_USAGE(.BOTH.,#623);
#601=SURFACE_STYLE_USAGE(.BOTH.,#624);
#602=SURFACE_STYLE_USAGE(.BOTH.,#625);
#603=SURFACE_STYLE_USAGE(.BOTH.,#626);
#604=SURFACE_STYLE_USAGE(.BOTH.,#627);
#605=SURFACE_STYLE_USAGE(.BOTH.,#628);
#606=SURFACE_STYLE_USAGE(.BOTH.,#629);
#607=SURFACE_STYLE_USAGE(.BOTH.,#630);
#608=SURFACE_STYLE_USAGE(.BOTH.,#631);
#609=SURFACE_STYLE_USAGE(.BOTH.,#632);
#610=SURFACE_SIDE_STYLE('',(#633));
#611=SURFACE_SIDE_STYLE('',(#634));
#612=SURFACE_SIDE_STYLE('',(#635));
#613=SURFACE_SIDE_STYLE('',(#636));
#614=SURFACE_SIDE_STYLE('',(#637));
#615=SURFACE_SIDE_STYLE('',(#638));
#616=SURFACE_SIDE_STYLE('',(#639));
#617=SURFACE_SIDE_STYLE('',(#640));
#618=SURFACE_SIDE_STYLE('',(#641));
#619=SURFACE_SIDE_STYLE('',(#642));
#620=SURFACE_SIDE_STYLE('',(#643));
#621=SURFACE_SIDE_STYLE('',(#644));
#622=SURFACE_SIDE_STYLE('',(#645));
#623=SURFACE_SIDE_STYLE('',(#646));
#624=SURFACE_SIDE_STYLE('',(#647));
#625=SURFACE_SIDE_STYLE('',(#648));
#626=SURFACE_SIDE_STYLE('',(#649));
#627=SURFACE_SIDE_STYLE('',(#650));
#628=SURFACE_SIDE_STYLE('',(#651));
#629=SURFACE_SIDE_STYLE('',(#652));
#630=SURFACE_SIDE_STYLE('',(#653));
#631=SURFACE_SIDE_STYLE('',(#654));
#632=SURFACE_SIDE_STYLE('',(#655));
#633=SURFACE_STYLE_FILL_AREA(#656);
#634=SURFACE_STYLE_FILL_AREA(#657);
#635=SURFACE_STYLE_FILL_AREA(#658);
#636=SURFACE_STYLE_FILL_AREA(#659);
#637=SURFACE_STYLE_FILL_AREA(#660);
#638=SURFACE_STYLE_FILL_AREA(#661);
#639=SURFACE_STYLE_FILL_AREA(#662);
#640=SURFACE_STYLE_FILL_AREA(#663);
#641=SURFACE_STYLE_FILL_AREA(#664);
#642=SURFACE_STYLE_FILL_AREA(#665);
#643=SURFACE_STYLE_FILL_AREA(#666);
#644=SURFACE_STYLE_FILL_AREA(#667);
#645=SURFACE_STYLE_FILL_AREA(#668);
#646=SURFACE_STYLE_FILL_AREA(#669);
#647=SURFACE_STYLE_FILL_AREA(#670);
#648=SURFACE_STYLE_FILL_AREA(#671);
#649=SURFACE_STYLE_FILL_AREA(#672);
#650=SURFACE_STYLE_FILL_AREA(#673);
#651=SURFACE_STYLE_FILL_AREA(#674);
#652=SURFACE_STYLE_FILL_AREA(#675);
#653=SURFACE_STYLE_FILL_AREA(#676);
#654=SURFACE_STYLE_FILL_AREA(#677);
#655=SURFACE_STYLE_FILL_AREA(#678);
#656=FILL_AREA_STYLE('',(#679));
#657=FILL_AREA_STYLE('',(#680));
#658=FILL_AREA_STYLE('',(#681));
#659=FILL_AREA_STYLE('',(#682));
#660=FILL_AREA_STYLE('',(#683));
#661=FILL_AREA_STYLE('',(#684));
#662=FILL_AREA_STYLE('',(#685));
#663=FILL_AREA_STYLE('',(#686));
#664=FILL_AREA_STYLE('',(#687));
#665=FILL_AREA_STYLE('',(#688));
#666=FILL_AREA_STYLE('',(#689));
#667=FILL_AREA_STYLE('',(#690));
#668=FILL_AREA_STYLE('',(#691));
#669=FILL_AREA_STYLE('',(#692));
#670=FILL_AREA_STYLE('',(#693));
#671=FILL_AREA_STYLE('',(#694));
#672=FILL_AREA_STYLE('',(#695));
#673=FILL_AREA_STYLE('',(#696));
#674=FILL_AREA_STYLE('',(#697));
#675=FILL_AREA_STYLE('',(#698));
#676=FILL_AREA_STYLE('',(#699));
#677=FILL_AREA_STYLE('',(#700));
#678=FILL_AREA_STYLE('',(#701));
#679=FILL_AREA_STYLE_COLOUR('',#702);
#680=FILL_AREA_STYLE_COLOUR('',#702);
#681=FILL_AREA_STYLE_COLOUR('',#702);
#682=FILL_AREA_STYLE_COLOUR('',#702);
#683=FILL_AREA_STYLE_COLOUR('',#702);
#684=FILL_AREA_STYLE_COLOUR('',#702);
#685=FILL_AREA_STYLE_COLOUR('',#702);
#686=FILL_AREA_STYLE_COLOUR('',#702);
#687=FILL_AREA_STYLE_COLOUR('',#702);
#688=FILL_AREA_STYLE_COLOUR('',#702);
#689=FILL_AREA_STYLE_COLOUR('',#703);
#690=FILL_AREA_STYLE_COLOUR('',#703);
#691=FILL_AREA_STYLE_COLOUR('',#703);
#692=FILL_AREA_STYLE_COLOUR('',#703);
#693=FILL_AREA_STYLE_COLOUR('',#703);
#694=FILL_AREA_STYLE_COLOUR('',#703);
#695=FILL_AREA_STYLE_COLOUR('',#703);
#696=FILL_AREA_STYLE_COLOUR('',#703);
#697=FILL_AREA_STYLE_COLOUR('',#703);
#698=FILL_AREA_STYLE_COLOUR('',#703);
#699=FILL_AREA_STYLE_COLOUR('',#703);
#700=FILL_AREA_STYLE_COLOUR('',#703);
#701=FILL_AREA_STYLE_COLOUR('',#704);
#702=COLOUR_RGB('',0.6,0.6,0.6);
#703=COLOUR_RGB('',0.,0.674509803921569,0.396078431372549);
#704=COLOUR_RGB('',0.874509803921569,0.874509803921569,0.874509803921569);
#705=ADVANCED_FACE('',(#489),#531,.T.);
#706=ADVANCED_FACE('',(#490),#12,.T.);
#707=ADVANCED_FACE('',(#491),#532,.T.);
#708=ADVANCED_FACE('',(#492),#13,.T.);
#709=ADVANCED_FACE('',(#493,#494),#14,.F.);
#710=ADVANCED_FACE('',(#495),#533,.F.);
#711=ADVANCED_FACE('',(#496),#15,.F.);
#712=ADVANCED_FACE('',(#497),#534,.F.);
#713=ADVANCED_FACE('',(#498),#16,.F.);
#714=ADVANCED_FACE('',(#499),#17,.F.);
#715=ADVANCED_FACE('',(#500,#501,#502,#503),#18,.F.);
#716=ADVANCED_FACE('',(#504),#19,.T.);
#717=ADVANCED_FACE('',(#505),#20,.T.);
#718=ADVANCED_FACE('',(#506),#21,.T.);
#719=ADVANCED_FACE('',(#507),#22,.T.);
#720=ADVANCED_FACE('',(#508,#509,#510),#23,.T.);
#721=ADVANCED_FACE('',(#511),#535,.T.);
#722=ADVANCED_FACE('',(#512),#536,.T.);
#723=ADVANCED_FACE('',(#513),#537,.T.);
#724=ADVANCED_FACE('',(#514),#538,.T.);
#725=ADVANCED_FACE('',(#515,#516),#539,.F.);
#726=ADVANCED_FACE('',(#517,#518),#540,.F.);
#727=ADVANCED_FACE('',(#519,#520),#24,.F.);
#728=ADVANCED_FACE('',(#521),#25,.F.);
#729=ADVANCED_FACE('',(#522),#26,.F.);
#730=ADVANCED_FACE('',(#523),#27,.F.);
#731=ADVANCED_FACE('',(#524),#28,.T.);
#732=ADVANCED_FACE('',(#525),#29,.F.);
#733=ADVANCED_FACE('',(#526),#30,.T.);
#734=ADVANCED_FACE('',(#527),#31,.T.);
#735=ADVANCED_FACE('',(#528),#32,.T.);
#736=ADVANCED_FACE('',(#529),#33,.F.);
#737=ADVANCED_FACE('',(#530),#34,.T.);
#738=CLOSED_SHELL('',(#705,#706,#707,#708,#709,#710,#711,#712,#713,#714,
#715,#716,#717,#718,#719,#720,#721,#722,#723,#724,#725,#726));
#739=CLOSED_SHELL('',(#727,#728,#729,#730,#731,#732,#733,#734,#735,#736,
#737));
#740=MANIFOLD_SOLID_BREP('Extrude (5)',#738);
#741=MANIFOLD_SOLID_BREP('Extrude (17)',#739);
#742=SHAPE_DEFINITION_REPRESENTATION(#1130,#743);
#743=SHAPE_REPRESENTATION('C07-02',(#744),#1125);
#744=AXIS2_PLACEMENT_3D('',#962,#798,#799);
#745=AXIS2_PLACEMENT_3D('',#963,#800,#801);
#746=AXIS2_PLACEMENT_3D('',#964,#802,#803);
#747=AXIS2_PLACEMENT_3D('',#969,#805,#806);
#748=AXIS2_PLACEMENT_3D('',#972,#808,#809);
#749=AXIS2_PLACEMENT_3D('',#978,#813,#814);
#750=AXIS2_PLACEMENT_3D('',#979,#815,#816);
#751=AXIS2_PLACEMENT_3D('',#981,#817,#818);
#752=AXIS2_PLACEMENT_3D('',#984,#820,#821);
#753=AXIS2_PLACEMENT_3D('',#987,#824,#825);
#754=AXIS2_PLACEMENT_3D('',#991,#827,#828);
#755=AXIS2_PLACEMENT_3D('',#995,#830,#831);
#756=AXIS2_PLACEMENT_3D('',#996,#832,#833);
#757=AXIS2_PLACEMENT_3D('',#997,#834,#835);
#758=AXIS2_PLACEMENT_3D('',#1002,#838,#839);
#759=AXIS2_PLACEMENT_3D('',#1006,#842,#843);
#760=AXIS2_PLACEMENT_3D('',#1007,#844,#845);
#761=AXIS2_PLACEMENT_3D('',#1010,#847,#848);
#762=AXIS2_PLACEMENT_3D('',#1012,#850,#851);
#763=AXIS2_PLACEMENT_3D('',#1013,#852,#853);
#764=AXIS2_PLACEMENT_3D('',#1014,#854,#855);
#765=AXIS2_PLACEMENT_3D('',#1016,#856,#857);
#766=AXIS2_PLACEMENT_3D('',#1021,#859,#860);
#767=AXIS2_PLACEMENT_3D('',#1025,#862,#863);
#768=AXIS2_PLACEMENT_3D('',#1029,#865,#866);
#769=AXIS2_PLACEMENT_3D('',#1033,#868,#869);
#770=AXIS2_PLACEMENT_3D('',#1034,#870,#871);
#771=AXIS2_PLACEMENT_3D('',#1040,#875,#876);
#772=AXIS2_PLACEMENT_3D('',#1046,#880,#881);
#773=AXIS2_PLACEMENT_3D('',#1052,#885,#886);
#774=AXIS2_PLACEMENT_3D('',#1058,#890,#891);
#775=AXIS2_PLACEMENT_3D('',#1059,#892,#893);
#776=AXIS2_PLACEMENT_3D('',#1061,#894,#895);
#777=AXIS2_PLACEMENT_3D('',#1063,#896,#897);
#778=AXIS2_PLACEMENT_3D('',#1064,#898,#899);
#779=AXIS2_PLACEMENT_3D('',#1065,#900,#901);
#780=AXIS2_PLACEMENT_3D('',#1066,#902,#903);
#781=AXIS2_PLACEMENT_3D('',#1067,#904,#905);
#782=AXIS2_PLACEMENT_3D('',#1068,#906,#907);
#783=AXIS2_PLACEMENT_3D('',#1069,#908,#909);
#784=AXIS2_PLACEMENT_3D('',#1070,#910,#911);
#785=AXIS2_PLACEMENT_3D('',#1071,#912,#913);
#786=AXIS2_PLACEMENT_3D('',#1072,#914,#915);
#787=AXIS2_PLACEMENT_3D('',#1073,#916,#917);
#788=AXIS2_PLACEMENT_3D('',#1090,#926,#927);
#789=AXIS2_PLACEMENT_3D('',#1099,#932,#933);
#790=AXIS2_PLACEMENT_3D('',#1102,#936,#937);
#791=AXIS2_PLACEMENT_3D('',#1105,#940,#941);
#792=AXIS2_PLACEMENT_3D('',#1106,#942,#943);
#793=AXIS2_PLACEMENT_3D('',#1107,#944,#945);
#794=AXIS2_PLACEMENT_3D('',#1116,#950,#951);
#795=AXIS2_PLACEMENT_3D('',#1119,#954,#955);
#796=AXIS2_PLACEMENT_3D('',#1122,#958,#959);
#797=AXIS2_PLACEMENT_3D('',#1123,#960,#961);
#798=DIRECTION('',(0.,0.,1.));
#799=DIRECTION('',(1.,0.,0.));
#800=DIRECTION('',(0.,0.,1.));
#801=DIRECTION('',(1.,0.,0.));
#802=DIRECTION('',(0.,0.,1.));
#803=DIRECTION('',(1.,0.,0.));
#804=DIRECTION('',(0.,0.,1.));
#805=DIRECTION('',(0.,0.,1.));
#806=DIRECTION('',(1.,0.,0.));
#807=DIRECTION('',(0.,0.,1.));
#808=DIRECTION('',(0.,-1.,0.));
#809=DIRECTION('',(0.,0.,-1.));
#810=DIRECTION('',(1.,0.,0.));
#811=DIRECTION('',(1.,0.,0.));
#812=DIRECTION('',(0.,0.,1.));
#813=DIRECTION('',(0.,0.,1.));
#814=DIRECTION('',(1.,0.,0.));
#815=DIRECTION('',(0.,0.,1.));
#816=DIRECTION('',(1.,0.,0.));
#817=DIRECTION('',(0.,0.,1.));
#818=DIRECTION('',(1.,0.,0.));
#819=DIRECTION('',(0.,0.,1.));
#820=DIRECTION('',(-7.60843629814389E-16,1.,0.));
#821=DIRECTION('',(-1.,-7.60843629814389E-16,0.));
#822=DIRECTION('',(-1.,-7.60843629814389E-16,0.));
#823=DIRECTION('',(-1.,-7.60843629814389E-16,0.));
#824=DIRECTION('',(0.,0.,1.));
#825=DIRECTION('',(1.,0.,0.));
#826=DIRECTION('',(-1.,-7.60843629814389E-16,0.));
#827=DIRECTION('',(0.,0.,1.));
#828=DIRECTION('',(1.,0.,0.));
#829=DIRECTION('',(1.,0.,0.));
#830=DIRECTION('',(0.,0.,1.));
#831=DIRECTION('',(1.,0.,0.));
#832=DIRECTION('',(0.,0.,1.));
#833=DIRECTION('',(1.,0.,0.));
#834=DIRECTION('',(0.,0.,1.));
#835=DIRECTION('',(1.,0.,0.));
#836=DIRECTION('',(0.,0.,-1.));
#837=DIRECTION('',(0.,0.,1.));
#838=DIRECTION('',(0.,-1.,0.));
#839=DIRECTION('',(0.,0.,-1.));
#840=DIRECTION('',(1.,0.,0.));
#841=DIRECTION('',(0.,0.,1.));
#842=DIRECTION('',(0.,0.,1.));
#843=DIRECTION('',(1.,0.,0.));
#844=DIRECTION('',(0.,0.,1.));
#845=DIRECTION('',(1.,0.,0.));
#846=DIRECTION('',(0.,0.,1.));
#847=DIRECTION('',(-7.60843629814389E-16,1.,0.));
#848=DIRECTION('',(-1.,-7.60843629814389E-16,0.));
#849=DIRECTION('',(-1.,-7.60843629814389E-16,0.));
#850=DIRECTION('',(0.,0.,1.));
#851=DIRECTION('',(1.,0.,0.));
#852=DIRECTION('',(0.,0.,1.));
#853=DIRECTION('',(1.,0.,0.));
#854=DIRECTION('',(0.,0.,1.));
#855=DIRECTION('',(1.,0.,0.));
#856=DIRECTION('',(0.,0.,1.));
#857=DIRECTION('',(1.,0.,0.));
#858=DIRECTION('',(1.11917643611407E-15,1.,0.));
#859=DIRECTION('',(0.,0.,1.));
#860=DIRECTION('',(1.,0.,0.));
#861=DIRECTION('',(1.,0.,0.));
#862=DIRECTION('',(0.,0.,1.));
#863=DIRECTION('',(1.,0.,0.));
#864=DIRECTION('',(-1.11917643611407E-15,-1.,0.));
#865=DIRECTION('',(0.,0.,1.));
#866=DIRECTION('',(1.,0.,0.));
#867=DIRECTION('',(-1.,0.,0.));
#868=DIRECTION('',(0.,0.,1.));
#869=DIRECTION('',(1.,0.,0.));
#870=DIRECTION('',(-1.,1.11917643611407E-15,0.));
#871=DIRECTION('',(-1.11917643611407E-15,-1.,0.));
#872=DIRECTION('',(0.,0.,-1.));
#873=DIRECTION('',(-1.11917643611407E-15,-1.,0.));
#874=DIRECTION('',(0.,0.,-1.));
#875=DIRECTION('',(0.,-1.,0.));
#876=DIRECTION('',(0.,0.,-1.));
#877=DIRECTION('',(0.,0.,-1.));
#878=DIRECTION('',(1.,0.,0.));
#879=DIRECTION('',(0.,0.,-1.));
#880=DIRECTION('',(1.,-1.11917643611407E-15,0.));
#881=DIRECTION('',(1.11917643611407E-15,1.,0.));
#882=DIRECTION('',(1.11917643611407E-15,1.,0.));
#883=DIRECTION('',(0.,0.,-1.));
#884=DIRECTION('',(0.,0.,-1.));
#885=DIRECTION('',(0.,1.,0.));
#886=DIRECTION('',(0.,0.,1.));
#887=DIRECTION('',(-1.,0.,0.));
#888=DIRECTION('',(0.,0.,-1.));
#889=DIRECTION('',(0.,0.,-1.));
#890=DIRECTION('',(0.,0.,1.));
#891=DIRECTION('',(1.,0.,0.));
#892=DIRECTION('',(0.,0.,1.));
#893=DIRECTION('',(1.,0.,0.));
#894=DIRECTION('',(0.,0.,1.));
#895=DIRECTION('',(1.,0.,0.));
#896=DIRECTION('',(0.,0.,1.));
#897=DIRECTION('',(1.,0.,0.));
#898=DIRECTION('',(0.,0.,1.));
#899=DIRECTION('',(1.,0.,0.));
#900=DIRECTION('',(0.,0.,1.));
#901=DIRECTION('',(1.,0.,0.));
#902=DIRECTION('',(0.,0.,1.));
#903=DIRECTION('',(1.,0.,0.));
#904=DIRECTION('',(0.,0.,-1.));
#905=DIRECTION('',(-1.,0.,0.));
#906=DIRECTION('',(0.,0.,-1.));
#907=DIRECTION('',(-1.,0.,0.));
#908=DIRECTION('',(0.,0.,-1.));
#909=DIRECTION('',(-1.,0.,0.));
#910=DIRECTION('',(0.,0.,-1.));
#911=DIRECTION('',(-1.,0.,0.));
#912=DIRECTION('',(0.,0.,1.));
#913=DIRECTION('',(1.,0.,0.));
#914=DIRECTION('',(0.,0.,1.));
#915=DIRECTION('',(1.,0.,0.));
#916=DIRECTION('',(-1.,9.53144767020224E-16,0.));
#917=DIRECTION('',(-9.53144767020224E-16,-1.,0.));
#918=DIRECTION('',(-9.53144767020224E-16,-1.,0.));
#919=DIRECTION('',(0.,0.,1.));
#920=DIRECTION('',(-9.53144767020224E-16,-1.,0.));
#921=DIRECTION('',(0.,0.,1.));
#922=DIRECTION('',(-9.53144767020224E-16,-1.,0.));
#923=DIRECTION('',(0.,0.,1.));
#924=DIRECTION('',(-9.53144767020224E-16,-1.,0.));
#925=DIRECTION('',(0.,0.,1.));
#926=DIRECTION('',(1.,9.53144767020224E-17,0.));
#927=DIRECTION('',(-9.53144767020224E-17,1.,0.));
#928=DIRECTION('',(-9.53144767020224E-17,1.,0.));
#929=DIRECTION('',(0.,0.,1.));
#930=DIRECTION('',(-9.53144767020224E-17,1.,0.));
#931=DIRECTION('',(0.,0.,1.));
#932=DIRECTION('',(-2.55106393526001E-16,-1.,0.));
#933=DIRECTION('',(1.,-2.55106393526001E-16,0.));
#934=DIRECTION('',(1.,-2.55106393526001E-16,0.));
#935=DIRECTION('',(1.,-2.55106393526001E-16,0.));
#936=DIRECTION('',(3.40141858034668E-16,1.,0.));
#937=DIRECTION('',(-1.,3.40141858034668E-16,0.));
#938=DIRECTION('',(-1.,3.40141858034668E-16,0.));
#939=DIRECTION('',(-1.,3.40141858034668E-16,0.));
#940=DIRECTION('',(0.,0.,-1.));
#941=DIRECTION('',(-1.,0.,0.));
#942=DIRECTION('',(0.,0.,-1.));
#943=DIRECTION('',(-1.,0.,0.));
#944=DIRECTION('',(1.,9.53144767020224E-17,0.));
#945=DIRECTION('',(-9.53144767020224E-17,1.,0.));
#946=DIRECTION('',(-9.53144767020224E-17,1.,0.));
#947=DIRECTION('',(0.,0.,1.));
#948=DIRECTION('',(-9.53144767020224E-17,1.,0.));
#949=DIRECTION('',(0.,0.,1.));
#950=DIRECTION('',(-2.55106393526001E-16,-1.,0.));
#951=DIRECTION('',(1.,-2.55106393526001E-16,0.));
#952=DIRECTION('',(1.,-2.55106393526001E-16,0.));
#953=DIRECTION('',(1.,-2.55106393526001E-16,0.));
#954=DIRECTION('',(3.40141858034668E-16,1.,0.));
#955=DIRECTION('',(-1.,3.40141858034668E-16,0.));
#956=DIRECTION('',(-1.,3.40141858034668E-16,0.));
#957=DIRECTION('',(-1.,3.40141858034668E-16,0.));
#958=DIRECTION('',(0.,0.,-1.));
#959=DIRECTION('',(-1.,0.,0.));
#960=DIRECTION('',(0.,0.,-1.));
#961=DIRECTION('',(-1.,0.,0.));
#962=CARTESIAN_POINT('',(0.,0.,0.));
#963=CARTESIAN_POINT('',(-2.85,-1.04707301327099E-15,-2.02));
#964=CARTESIAN_POINT('',(-2.85,-1.04707301327099E-15,5.43));
#965=CARTESIAN_POINT('',(-2.85000000000001,1.6,5.43));
#966=CARTESIAN_POINT('',(-2.85,-1.6,5.43));
#967=CARTESIAN_POINT('',(-2.85000000000001,1.6,-2.02));
#968=CARTESIAN_POINT('',(-2.85000000000001,1.6,-2.02));
#969=CARTESIAN_POINT('',(-2.85,-1.04707301327099E-15,-2.02));
#970=CARTESIAN_POINT('',(-2.85,-1.6,-2.02));
#971=CARTESIAN_POINT('',(-2.85,-1.6,-2.02));
#972=CARTESIAN_POINT('',(-2.85,-1.6,-2.02));
#973=CARTESIAN_POINT('',(-2.85,-1.6,5.43));
#974=CARTESIAN_POINT('',(2.85,-1.6,5.43));
#975=CARTESIAN_POINT('',(-2.85,-1.6,-2.02));
#976=CARTESIAN_POINT('',(2.85,-1.6,-2.02));
#977=CARTESIAN_POINT('',(2.85,-1.6,-2.02));
#978=CARTESIAN_POINT('',(2.85,1.04707301327099E-15,-2.02));
#979=CARTESIAN_POINT('',(2.85,1.04707301327099E-15,5.43));
#980=CARTESIAN_POINT('',(2.85,1.6,5.43));
#981=CARTESIAN_POINT('',(2.85,1.04707301327099E-15,-2.02));
#982=CARTESIAN_POINT('',(2.85,1.6,-2.02));
#983=CARTESIAN_POINT('',(2.85,1.6,-2.02));
#984=CARTESIAN_POINT('',(2.85,1.6,-2.02));
#985=CARTESIAN_POINT('',(2.85,1.6,5.43));
#986=CARTESIAN_POINT('',(2.85,1.6,-2.02));
#987=CARTESIAN_POINT('',(-2.85,-1.04707301327099E-15,-2.02));
#988=CARTESIAN_POINT('',(-2.85000000000001,1.25,-2.02));
#989=CARTESIAN_POINT('',(2.85,1.25,-2.02));
#990=CARTESIAN_POINT('',(-2.85000000000001,1.25,-2.02));
#991=CARTESIAN_POINT('',(-2.85,-1.04707301327099E-15,-2.02));
#992=CARTESIAN_POINT('',(-2.85,-1.25,-2.02));
#993=CARTESIAN_POINT('',(-2.85,-1.25,-2.02));
#994=CARTESIAN_POINT('',(2.85,-1.25,-2.02));
#995=CARTESIAN_POINT('',(2.85,1.04707301327099E-15,-2.02));
#996=CARTESIAN_POINT('',(-2.85,-1.04707301327099E-15,-2.02));
#997=CARTESIAN_POINT('',(-2.85,-1.04707301327099E-15,5.08));
#998=CARTESIAN_POINT('',(-2.85000000000001,1.25,5.08));
#999=CARTESIAN_POINT('',(-2.85,-1.25,5.08));
#1000=CARTESIAN_POINT('',(-2.85,-1.25,-2.02));
#1001=CARTESIAN_POINT('',(-2.85000000000001,1.25,-2.02));
#1002=CARTESIAN_POINT('',(-2.85,-1.25,-2.02));
#1003=CARTESIAN_POINT('',(-2.85,-1.25,5.08));
#1004=CARTESIAN_POINT('',(2.85,-1.25,5.08));
#1005=CARTESIAN_POINT('',(2.85,-1.25,-2.02));
#1006=CARTESIAN_POINT('',(2.85,1.04707301327099E-15,-2.02));
#1007=CARTESIAN_POINT('',(2.85,1.04707301327099E-15,5.08));
#1008=CARTESIAN_POINT('',(2.85,1.25,5.08));
#1009=CARTESIAN_POINT('',(2.85,1.25,-2.02));
#1010=CARTESIAN_POINT('',(2.85,1.25,-2.02));
#1011=CARTESIAN_POINT('',(-2.85000000000001,1.25,5.08));
#1012=CARTESIAN_POINT('',(-2.85,-1.04707301327099E-15,5.08));
#1013=CARTESIAN_POINT('',(0.,0.,5.43));
#1014=CARTESIAN_POINT('',(0.,8.02365436845023,5.43));
#1015=CARTESIAN_POINT('',(2.,8.02365436845023,5.43));
#1016=CARTESIAN_POINT('',(0.,-7.94812044004499,5.43));
#1017=CARTESIAN_POINT('',(2.000000000001,-7.94812044004499,5.43));
#1018=CARTESIAN_POINT('',(11.15,-15.5,5.43));
#1019=CARTESIAN_POINT('',(11.15,14.7,5.43));
#1020=CARTESIAN_POINT('',(11.15,-14.7,5.43));
#1021=CARTESIAN_POINT('',(10.35,-14.7,5.43));
#1022=CARTESIAN_POINT('',(10.35,-15.5,5.43));
#1023=CARTESIAN_POINT('',(-11.15,-15.5,5.43));
#1024=CARTESIAN_POINT('',(-10.35,-15.5,5.43));
#1025=CARTESIAN_POINT('',(-10.35,-14.7,5.43));
#1026=CARTESIAN_POINT('',(-11.15,-14.7,5.43));
#1027=CARTESIAN_POINT('',(-11.15,15.5,5.43));
#1028=CARTESIAN_POINT('',(-11.15,14.7,5.43));
#1029=CARTESIAN_POINT('',(-10.35,14.7,5.43));
#1030=CARTESIAN_POINT('',(-10.35,15.5,5.43));
#1031=CARTESIAN_POINT('',(11.15,15.5,5.43));
#1032=CARTESIAN_POINT('',(10.35,15.5,5.43));
#1033=CARTESIAN_POINT('',(10.35,14.7,5.43));
#1034=CARTESIAN_POINT('',(-11.15,15.5,5.43));
#1035=CARTESIAN_POINT('',(-11.15,-14.7,5.43));
#1036=CARTESIAN_POINT('',(-11.15,-14.7,6.68));
#1037=CARTESIAN_POINT('',(-11.15,15.5,6.68));
#1038=CARTESIAN_POINT('',(-11.15,14.7,6.68));
#1039=CARTESIAN_POINT('',(-11.15,14.7,5.43));
#1040=CARTESIAN_POINT('',(-11.15,-15.5,5.43));
#1041=CARTESIAN_POINT('',(10.35,-15.5,5.43));
#1042=CARTESIAN_POINT('',(10.35,-15.5,6.68));
#1043=CARTESIAN_POINT('',(-11.15,-15.5,6.68));
#1044=CARTESIAN_POINT('',(-10.35,-15.5,6.68));
#1045=CARTESIAN_POINT('',(-10.35,-15.5,5.43));
#1046=CARTESIAN_POINT('',(11.15,-15.5,5.43));
#1047=CARTESIAN_POINT('',(11.15,-15.5,6.68));
#1048=CARTESIAN_POINT('',(11.15,14.7,6.68));
#1049=CARTESIAN_POINT('',(11.15,-14.7,6.68));
#1050=CARTESIAN_POINT('',(11.15,-14.7,5.43));
#1051=CARTESIAN_POINT('',(11.15,14.7,5.43));
#1052=CARTESIAN_POINT('',(11.15,15.5,5.43));
#1053=CARTESIAN_POINT('',(11.15,15.5,6.68));
#1054=CARTESIAN_POINT('',(-10.35,15.5,6.68));
#1055=CARTESIAN_POINT('',(10.35,15.5,6.68));
#1056=CARTESIAN_POINT('',(10.35,15.5,5.43));
#1057=CARTESIAN_POINT('',(-10.35,15.5,5.43));
#1058=CARTESIAN_POINT('',(0.,0.,6.68));
#1059=CARTESIAN_POINT('',(0.,8.02365436845023,6.68));
#1060=CARTESIAN_POINT('',(2.,8.02365436845023,6.68));
#1061=CARTESIAN_POINT('',(0.,-7.94812044004499,6.68));
#1062=CARTESIAN_POINT('',(2.000000000001,-7.94812044004499,6.68));
#1063=CARTESIAN_POINT('',(10.35,-14.7,6.68));
#1064=CARTESIAN_POINT('',(10.35,14.7,6.68));
#1065=CARTESIAN_POINT('',(-10.35,14.7,6.68));
#1066=CARTESIAN_POINT('',(-10.35,-14.7,6.68));
#1067=CARTESIAN_POINT('',(10.35,-14.7,5.43));
#1068=CARTESIAN_POINT('',(-10.35,-14.7,5.43));
#1069=CARTESIAN_POINT('',(10.35,14.7,5.43));
#1070=CARTESIAN_POINT('',(-10.35,14.7,5.43));
#1071=CARTESIAN_POINT('',(0.,-7.94812044004499,-2.02));
#1072=CARTESIAN_POINT('',(0.,8.02365436845023,-2.02));
#1073=CARTESIAN_POINT('',(10.6,-3.9,1.93));
#1074=CARTESIAN_POINT('',(10.6,-3.9,5.43));
#1075=CARTESIAN_POINT('',(10.6,-3.9,5.43));
#1076=CARTESIAN_POINT('',(10.6,-13.,5.43));
#1077=CARTESIAN_POINT('',(10.6,-13.,1.93));
#1078=CARTESIAN_POINT('',(10.6,-13.,1.93));
#1079=CARTESIAN_POINT('',(10.6,-3.9,1.93));
#1080=CARTESIAN_POINT('',(10.6,-3.9,1.93));
#1081=CARTESIAN_POINT('',(10.6,-3.9,1.93));
#1082=CARTESIAN_POINT('',(10.6,-3.9,4.93));
#1083=CARTESIAN_POINT('',(10.6,-4.4,4.93));
#1084=CARTESIAN_POINT('',(10.6,-12.5,4.93));
#1085=CARTESIAN_POINT('',(10.6,-4.4,1.93));
#1086=CARTESIAN_POINT('',(10.6,-4.4,2.43));
#1087=CARTESIAN_POINT('',(10.6,-3.9,2.43));
#1088=CARTESIAN_POINT('',(10.6,-12.5,2.43));
#1089=CARTESIAN_POINT('',(10.6,-12.5,1.93));
#1090=CARTESIAN_POINT('',(5.5,-13.,1.93));
#1091=CARTESIAN_POINT('',(5.5,-13.,5.43));
#1092=CARTESIAN_POINT('',(5.5,-13.,5.43));
#1093=CARTESIAN_POINT('',(5.5,-3.9,5.43));
#1094=CARTESIAN_POINT('',(5.5,-3.9,1.93));
#1095=CARTESIAN_POINT('',(5.5,-3.9,1.93));
#1096=CARTESIAN_POINT('',(5.5,-13.,1.93));
#1097=CARTESIAN_POINT('',(5.5,-13.,1.93));
#1098=CARTESIAN_POINT('',(5.5,-13.,1.93));
#1099=CARTESIAN_POINT('',(5.5,-3.9,1.93));
#1100=CARTESIAN_POINT('',(5.5,-3.9,5.43));
#1101=CARTESIAN_POINT('',(5.5,-3.9,1.93));
#1102=CARTESIAN_POINT('',(10.6,-13.,1.93));
#1103=CARTESIAN_POINT('',(10.6,-13.,5.43));
#1104=CARTESIAN_POINT('',(10.6,-13.,1.93));
#1105=CARTESIAN_POINT('',(0.,0.,1.93));
#1106=CARTESIAN_POINT('',(0.,0.,5.43));
#1107=CARTESIAN_POINT('',(6.,-13.,1.93));
#1108=CARTESIAN_POINT('',(6.,-13.,4.93));
#1109=CARTESIAN_POINT('',(6.,-12.5,4.93));
#1110=CARTESIAN_POINT('',(6.,-4.4,4.93));
#1111=CARTESIAN_POINT('',(6.,-12.5,1.93));
#1112=CARTESIAN_POINT('',(6.,-12.5,2.43));
#1113=CARTESIAN_POINT('',(6.,-13.,2.43));
#1114=CARTESIAN_POINT('',(6.,-4.4,2.43));
#1115=CARTESIAN_POINT('',(6.,-4.4,1.93));
#1116=CARTESIAN_POINT('',(5.5,-4.4,1.93));
#1117=CARTESIAN_POINT('',(5.5,-4.4,4.93));
#1118=CARTESIAN_POINT('',(5.5,-4.4,2.43));
#1119=CARTESIAN_POINT('',(10.6,-12.5,1.93));
#1120=CARTESIAN_POINT('',(10.6,-12.5,4.93));
#1121=CARTESIAN_POINT('',(10.6,-12.5,2.43));
#1122=CARTESIAN_POINT('',(0.,0.,2.43));
#1123=CARTESIAN_POINT('',(0.,0.,4.93));
#1124=MECHANICAL_DESIGN_GEOMETRIC_PRESENTATION_REPRESENTATION('',(#541,
#542,#543,#544,#545,#546,#547,#548,#549,#550,#551,#552,#553,#554,#555,#556,
#557,#558,#559,#560,#561,#562,#563),#1125);
#1125=(
GEOMETRIC_REPRESENTATION_CONTEXT(3)
GLOBAL_UNCERTAINTY_ASSIGNED_CONTEXT((#1126))
GLOBAL_UNIT_ASSIGNED_CONTEXT((#1129,#1128,#1127))
REPRESENTATION_CONTEXT('C07-02','TOP_LEVEL_ASSEMBLY_PART')
);
#1126=UNCERTAINTY_MEASURE_WITH_UNIT(LENGTH_MEASURE(0.005),#1129,
'DISTANCE_ACCURACY_VALUE','Maximum Tolerance applied to model');
#1127=(
NAMED_UNIT(*)
SI_UNIT($,.STERADIAN.)
SOLID_ANGLE_UNIT()
);
#1128=(
NAMED_UNIT(*)
PLANE_ANGLE_UNIT()
SI_UNIT($,.RADIAN.)
);
#1129=(
LENGTH_UNIT()
NAMED_UNIT(*)
SI_UNIT(.MILLI.,.METRE.)
);
#1130=PRODUCT_DEFINITION_SHAPE('','',#1131);
#1131=PRODUCT_DEFINITION('','',#1133,#1132);
#1132=PRODUCT_DEFINITION_CONTEXT('',#1139,'design');
#1133=PRODUCT_DEFINITION_FORMATION_WITH_SPECIFIED_SOURCE('','',#1135,
 .NOT_KNOWN.);
#1134=PRODUCT_RELATED_PRODUCT_CATEGORY('','',(#1135));
#1135=PRODUCT('C07-02','C07-02','C07-02',(#1137));
#1136=PRODUCT_CATEGORY('','');
#1137=PRODUCT_CONTEXT('',#1139,'mechanical');
#1138=APPLICATION_PROTOCOL_DEFINITION('international standard',
'ap242_managed_model_based_3d_engineering',2020,#1139);
#1139=APPLICATION_CONTEXT('managed model based 3d engineering');
ENDSEC;
END-ISO-10303-21;
