ISO-10303-21;
HEADER;
/* Generated by software containing ST-Developer
 * from STEP Tools, Inc. (www.steptools.com) 
 */
/* OPTION: using custom renumber hook */

FILE_DESCRIPTION(
/* description */ (
'CAx-IF Rec.Pracs.---Representation and Presentation of Product Manufa
cturing Information (PMI)---4.0---2014-10-13',
'CAx-IF Rec.Pracs.---3D Tessellated Geometry---0.4---2014-09-14','2;1'),

/* implementation_level */ '2;1');

FILE_NAME(
/* name */ 'E02',
/* time_stamp */ '2026-04-13T01:14:54+03:00',
/* author */ (''),
/* organization */ (''),
/* preprocessor_version */ 'ST-DEVELOPER v18.102',
/* originating_system */ 'SIEMENS PLM Software NX2206.9140',
/* authorisation */ $);

FILE_SCHEMA (('AP242_MANAGED_MODEL_BASED_3D_ENGINEERING_MIM_LF { 1 0 10303 442 3 1 4 }'));
ENDSEC;

DATA;
#10=LINE('',#323,#22);
#11=LINE('',#326,#23);
#12=LINE('',#328,#24);
#13=LINE('',#330,#25);
#14=LINE('',#334,#26);
#15=LINE('',#338,#27);
#16=LINE('',#340,#28);
#17=LINE('',#342,#29);
#18=LINE('',#346,#30);
#19=LINE('',#350,#31);
#20=LINE('',#352,#32);
#21=LINE('',#354,#33);
#22=VECTOR('',#269,1000.);
#23=VECTOR('',#270,1000.);
#24=VECTOR('',#271,1000.);
#25=VECTOR('',#272,1000.);
#26=VECTOR('',#277,1000.);
#27=VECTOR('',#282,1000.);
#28=VECTOR('',#283,1000.);
#29=VECTOR('',#284,1000.);
#30=VECTOR('',#289,1000.);
#31=VECTOR('',#294,1000.);
#32=VECTOR('',#295,1000.);
#33=VECTOR('',#296,1000.);
#34=SHAPE_REPRESENTATION_RELATIONSHIP('','',#219,#35);
#35=ADVANCED_BREP_SHAPE_REPRESENTATION('',(#215,#216,#217),#361);
#36=CYLINDRICAL_SURFACE('',#225,0.9);
#37=CYLINDRICAL_SURFACE('',#230,0.9);
#38=CYLINDRICAL_SURFACE('',#232,9.49999999989266);
#39=CYLINDRICAL_SURFACE('',#236,9.05000000029646);
#40=CYLINDRICAL_SURFACE('',#240,9.04999999999998);
#41=ORIENTED_EDGE('',*,*,#85,.F.);
#42=ORIENTED_EDGE('',*,*,#86,.F.);
#43=ORIENTED_EDGE('',*,*,#85,.T.);
#44=ORIENTED_EDGE('',*,*,#86,.T.);
#45=ORIENTED_EDGE('',*,*,#87,.F.);
#46=ORIENTED_EDGE('',*,*,#88,.F.);
#47=ORIENTED_EDGE('',*,*,#87,.T.);
#48=ORIENTED_EDGE('',*,*,#88,.T.);
#49=ORIENTED_EDGE('',*,*,#89,.T.);
#50=ORIENTED_EDGE('',*,*,#90,.F.);
#51=ORIENTED_EDGE('',*,*,#91,.F.);
#52=ORIENTED_EDGE('',*,*,#92,.T.);
#53=ORIENTED_EDGE('',*,*,#93,.T.);
#54=ORIENTED_EDGE('',*,*,#94,.F.);
#55=ORIENTED_EDGE('',*,*,#95,.F.);
#56=ORIENTED_EDGE('',*,*,#90,.T.);
#57=ORIENTED_EDGE('',*,*,#96,.T.);
#58=ORIENTED_EDGE('',*,*,#97,.F.);
#59=ORIENTED_EDGE('',*,*,#98,.F.);
#60=ORIENTED_EDGE('',*,*,#94,.T.);
#61=ORIENTED_EDGE('',*,*,#99,.T.);
#62=ORIENTED_EDGE('',*,*,#100,.F.);
#63=ORIENTED_EDGE('',*,*,#101,.F.);
#64=ORIENTED_EDGE('',*,*,#97,.T.);
#65=ORIENTED_EDGE('',*,*,#102,.T.);
#66=ORIENTED_EDGE('',*,*,#103,.F.);
#67=ORIENTED_EDGE('',*,*,#104,.F.);
#68=ORIENTED_EDGE('',*,*,#100,.T.);
#69=ORIENTED_EDGE('',*,*,#105,.T.);
#70=ORIENTED_EDGE('',*,*,#92,.F.);
#71=ORIENTED_EDGE('',*,*,#106,.F.);
#72=ORIENTED_EDGE('',*,*,#103,.T.);
#73=ORIENTED_EDGE('',*,*,#91,.T.);
#74=ORIENTED_EDGE('',*,*,#95,.T.);
#75=ORIENTED_EDGE('',*,*,#98,.T.);
#76=ORIENTED_EDGE('',*,*,#101,.T.);
#77=ORIENTED_EDGE('',*,*,#104,.T.);
#78=ORIENTED_EDGE('',*,*,#106,.T.);
#79=ORIENTED_EDGE('',*,*,#89,.F.);
#80=ORIENTED_EDGE('',*,*,#105,.F.);
#81=ORIENTED_EDGE('',*,*,#102,.F.);
#82=ORIENTED_EDGE('',*,*,#99,.F.);
#83=ORIENTED_EDGE('',*,*,#96,.F.);
#84=ORIENTED_EDGE('',*,*,#93,.F.);
#85=EDGE_CURVE('',#107,#107,#123,.T.);
#86=EDGE_CURVE('',#108,#108,#124,.T.);
#87=EDGE_CURVE('',#109,#109,#125,.T.);
#88=EDGE_CURVE('',#110,#110,#126,.T.);
#89=EDGE_CURVE('',#111,#112,#10,.T.);
#90=EDGE_CURVE('',#113,#112,#11,.T.);
#91=EDGE_CURVE('',#114,#113,#12,.T.);
#92=EDGE_CURVE('',#114,#111,#13,.T.);
#93=EDGE_CURVE('',#112,#115,#127,.T.);
#94=EDGE_CURVE('',#116,#115,#14,.T.);
#95=EDGE_CURVE('',#113,#116,#128,.T.);
#96=EDGE_CURVE('',#115,#117,#15,.T.);
#97=EDGE_CURVE('',#118,#117,#16,.T.);
#98=EDGE_CURVE('',#116,#118,#17,.T.);
#99=EDGE_CURVE('',#117,#119,#129,.T.);
#100=EDGE_CURVE('',#120,#119,#18,.T.);
#101=EDGE_CURVE('',#118,#120,#130,.T.);
#102=EDGE_CURVE('',#119,#121,#19,.T.);
#103=EDGE_CURVE('',#122,#121,#20,.T.);
#104=EDGE_CURVE('',#120,#122,#21,.T.);
#105=EDGE_CURVE('',#121,#111,#131,.T.);
#106=EDGE_CURVE('',#122,#114,#132,.T.);
#107=VERTEX_POINT('',#310);
#108=VERTEX_POINT('',#313);
#109=VERTEX_POINT('',#317);
#110=VERTEX_POINT('',#320);
#111=VERTEX_POINT('',#324);
#112=VERTEX_POINT('',#325);
#113=VERTEX_POINT('',#327);
#114=VERTEX_POINT('',#329);
#115=VERTEX_POINT('',#333);
#116=VERTEX_POINT('',#335);
#117=VERTEX_POINT('',#339);
#118=VERTEX_POINT('',#341);
#119=VERTEX_POINT('',#345);
#120=VERTEX_POINT('',#347);
#121=VERTEX_POINT('',#351);
#122=VERTEX_POINT('',#353);
#123=CIRCLE('',#222,0.9);
#124=CIRCLE('',#224,0.9);
#125=CIRCLE('',#227,0.9);
#126=CIRCLE('',#229,0.9);
#127=CIRCLE('',#233,9.49999999989266);
#128=CIRCLE('',#234,9.49999999989266);
#129=CIRCLE('',#237,9.05000000029646);
#130=CIRCLE('',#238,9.05000000029646);
#131=CIRCLE('',#241,9.04999999999998);
#132=CIRCLE('',#242,9.04999999999998);
#133=EDGE_LOOP('',(#41));
#134=EDGE_LOOP('',(#42));
#135=EDGE_LOOP('',(#43));
#136=EDGE_LOOP('',(#44));
#137=EDGE_LOOP('',(#45));
#138=EDGE_LOOP('',(#46));
#139=EDGE_LOOP('',(#47));
#140=EDGE_LOOP('',(#48));
#141=EDGE_LOOP('',(#49,#50,#51,#52));
#142=EDGE_LOOP('',(#53,#54,#55,#56));
#143=EDGE_LOOP('',(#57,#58,#59,#60));
#144=EDGE_LOOP('',(#61,#62,#63,#64));
#145=EDGE_LOOP('',(#65,#66,#67,#68));
#146=EDGE_LOOP('',(#69,#70,#71,#72));
#147=EDGE_LOOP('',(#73,#74,#75,#76,#77,#78));
#148=EDGE_LOOP('',(#79,#80,#81,#82,#83,#84));
#149=FACE_BOUND('',#133,.T.);
#150=FACE_BOUND('',#134,.T.);
#151=FACE_BOUND('',#135,.T.);
#152=FACE_BOUND('',#136,.T.);
#153=FACE_BOUND('',#137,.T.);
#154=FACE_BOUND('',#138,.T.);
#155=FACE_BOUND('',#139,.T.);
#156=FACE_BOUND('',#140,.T.);
#157=FACE_BOUND('',#141,.T.);
#158=FACE_BOUND('',#142,.T.);
#159=FACE_BOUND('',#143,.T.);
#160=FACE_BOUND('',#144,.T.);
#161=FACE_BOUND('',#145,.T.);
#162=FACE_BOUND('',#146,.T.);
#163=FACE_BOUND('',#147,.T.);
#164=FACE_BOUND('',#148,.T.);
#165=PLANE('',#221);
#166=PLANE('',#223);
#167=PLANE('',#226);
#168=PLANE('',#228);
#169=PLANE('',#231);
#170=PLANE('',#235);
#171=PLANE('',#239);
#172=PLANE('',#243);
#173=PLANE('',#244);
#174=ADVANCED_FACE('',(#149),#165,.T.);
#175=ADVANCED_FACE('',(#150),#166,.T.);
#176=ADVANCED_FACE('',(#151,#152),#36,.T.);
#177=ADVANCED_FACE('',(#153),#167,.T.);
#178=ADVANCED_FACE('',(#154),#168,.T.);
#179=ADVANCED_FACE('',(#155,#156),#37,.T.);
#180=ADVANCED_FACE('',(#157),#169,.F.);
#181=ADVANCED_FACE('',(#158),#38,.T.);
#182=ADVANCED_FACE('',(#159),#170,.F.);
#183=ADVANCED_FACE('',(#160),#39,.T.);
#184=ADVANCED_FACE('',(#161),#171,.F.);
#185=ADVANCED_FACE('',(#162),#40,.T.);
#186=ADVANCED_FACE('',(#163),#172,.T.);
#187=ADVANCED_FACE('',(#164),#173,.F.);
#188=CLOSED_SHELL('',(#174,#175,#176));
#189=CLOSED_SHELL('',(#177,#178,#179));
#190=CLOSED_SHELL('',(#180,#181,#182,#183,#184,#185,#186,#187));
#191=STYLED_ITEM('',(#194),#215);
#192=STYLED_ITEM('',(#195),#216);
#193=STYLED_ITEM('',(#196),#217);
#194=PRESENTATION_STYLE_ASSIGNMENT((#197));
#195=PRESENTATION_STYLE_ASSIGNMENT((#198));
#196=PRESENTATION_STYLE_ASSIGNMENT((#199));
#197=SURFACE_STYLE_USAGE(.BOTH.,#200);
#198=SURFACE_STYLE_USAGE(.BOTH.,#201);
#199=SURFACE_STYLE_USAGE(.BOTH.,#202);
#200=SURFACE_SIDE_STYLE('',(#203));
#201=SURFACE_SIDE_STYLE('',(#204));
#202=SURFACE_SIDE_STYLE('',(#205));
#203=SURFACE_STYLE_FILL_AREA(#206);
#204=SURFACE_STYLE_FILL_AREA(#207);
#205=SURFACE_STYLE_FILL_AREA(#208);
#206=FILL_AREA_STYLE('',(#209));
#207=FILL_AREA_STYLE('',(#210));
#208=FILL_AREA_STYLE('',(#211));
#209=FILL_AREA_STYLE_COLOUR('',#212);
#210=FILL_AREA_STYLE_COLOUR('',#213);
#211=FILL_AREA_STYLE_COLOUR('',#214);
#212=COLOUR_RGB('',1.,0.188235294117647,0.188235294117647);
#213=COLOUR_RGB('',0.2,0.2,0.2);
#214=COLOUR_RGB('',0.2,0.2,1.);
#215=MANIFOLD_SOLID_BREP('Cylinder (14)',#188);
#216=MANIFOLD_SOLID_BREP('Body (15)',#189);
#217=MANIFOLD_SOLID_BREP('Body (7)',#190);
#218=SHAPE_DEFINITION_REPRESENTATION(#366,#219);
#219=SHAPE_REPRESENTATION('E02',(#220),#361);
#220=AXIS2_PLACEMENT_3D('',#307,#245,#246);
#221=AXIS2_PLACEMENT_3D('',#308,#247,#248);
#222=AXIS2_PLACEMENT_3D('',#309,#249,#250);
#223=AXIS2_PLACEMENT_3D('',#311,#251,#252);
#224=AXIS2_PLACEMENT_3D('',#312,#253,#254);
#225=AXIS2_PLACEMENT_3D('',#314,#255,#256);
#226=AXIS2_PLACEMENT_3D('',#315,#257,#258);
#227=AXIS2_PLACEMENT_3D('',#316,#259,#260);
#228=AXIS2_PLACEMENT_3D('',#318,#261,#262);
#229=AXIS2_PLACEMENT_3D('',#319,#263,#264);
#230=AXIS2_PLACEMENT_3D('',#321,#265,#266);
#231=AXIS2_PLACEMENT_3D('',#322,#267,#268);
#232=AXIS2_PLACEMENT_3D('',#331,#273,#274);
#233=AXIS2_PLACEMENT_3D('',#332,#275,#276);
#234=AXIS2_PLACEMENT_3D('',#336,#278,#279);
#235=AXIS2_PLACEMENT_3D('',#337,#280,#281);
#236=AXIS2_PLACEMENT_3D('',#343,#285,#286);
#237=AXIS2_PLACEMENT_3D('',#344,#287,#288);
#238=AXIS2_PLACEMENT_3D('',#348,#290,#291);
#239=AXIS2_PLACEMENT_3D('',#349,#292,#293);
#240=AXIS2_PLACEMENT_3D('',#355,#297,#298);
#241=AXIS2_PLACEMENT_3D('',#356,#299,#300);
#242=AXIS2_PLACEMENT_3D('',#357,#301,#302);
#243=AXIS2_PLACEMENT_3D('',#358,#303,#304);
#244=AXIS2_PLACEMENT_3D('',#359,#305,#306);
#245=DIRECTION('',(0.,0.,1.));
#246=DIRECTION('',(1.,0.,0.));
#247=DIRECTION('',(0.,0.,1.));
#248=DIRECTION('',(1.,0.,0.));
#249=DIRECTION('',(0.,0.,-1.));
#250=DIRECTION('',(1.,0.,0.));
#251=DIRECTION('',(0.,0.,-1.));
#252=DIRECTION('',(-1.,0.,0.));
#253=DIRECTION('',(0.,0.,1.));
#254=DIRECTION('',(1.,0.,0.));
#255=DIRECTION('',(0.,0.,1.));
#256=DIRECTION('',(1.,0.,0.));
#257=DIRECTION('',(0.,0.,1.));
#258=DIRECTION('',(1.,0.,0.));
#259=DIRECTION('',(0.,0.,-1.));
#260=DIRECTION('',(1.,0.,0.));
#261=DIRECTION('',(0.,0.,-1.));
#262=DIRECTION('',(-1.,0.,0.));
#263=DIRECTION('',(0.,0.,1.));
#264=DIRECTION('',(1.,0.,0.));
#265=DIRECTION('',(0.,0.,1.));
#266=DIRECTION('',(1.,0.,0.));
#267=DIRECTION('',(0.850665308293706,-0.525707649997195,-6.40966367249787E-16));
#268=DIRECTION('',(0.525707649997195,0.850665308293706,0.));
#269=DIRECTION('',(-0.525707649997195,-0.850665308293706,1.5215112527942E-15));
#270=DIRECTION('',(-1.54631778437883E-15,-1.28290415313999E-15,-1.));
#271=DIRECTION('',(-0.525707649997195,-0.850665308293706,1.5215112527942E-15));
#272=DIRECTION('',(-1.54631778437883E-15,-1.28290415313999E-15,-1.));
#273=DIRECTION('',(-1.54631778437883E-15,-1.28290415313999E-15,-1.));
#274=DIRECTION('',(-1.,0.,1.54631778437883E-15));
#275=DIRECTION('',(3.84607097451123E-15,1.79422058062161E-15,1.));
#276=DIRECTION('',(0.103186920277767,-0.994661982526521,1.38777878078145E-15));
#277=DIRECTION('',(-1.54631778437883E-15,-1.28290415313999E-15,-1.));
#278=DIRECTION('',(3.84607097451123E-15,1.79422058062161E-15,1.));
#279=DIRECTION('',(0.103186920277767,-0.994661982526521,1.38777878078145E-15));
#280=DIRECTION('',(-1.00383869503161E-30,1.,-1.28290415313999E-15));
#281=DIRECTION('',(0.,1.28290415313999E-15,1.));
#282=DIRECTION('',(1.,0.,-7.82473649784862E-16));
#283=DIRECTION('',(-1.54631778437883E-15,-1.28290415313999E-15,-1.));
#284=DIRECTION('',(1.,0.,-7.82473649784862E-16));
#285=DIRECTION('',(-1.54631778437883E-15,-1.28290415313999E-15,-1.));
#286=DIRECTION('',(-1.,0.,1.54631778437883E-15));
#287=DIRECTION('',(8.21972259740961E-15,-2.52104399072077E-15,1.));
#288=DIRECTION('',(-0.552744314569316,-0.83335090010829,2.44249065417534E-15));
#289=DIRECTION('',(-1.54631778437883E-15,-1.28290415313999E-15,-1.));
#290=DIRECTION('',(8.21972259740961E-15,-2.52104399072077E-15,1.));
#291=DIRECTION('',(-0.552744314569316,-0.83335090010829,2.44249065417534E-15));
#292=DIRECTION('',(-0.87397825525634,-0.485965028926036,1.97489467315327E-15));
#293=DIRECTION('',(0.485965028926036,-0.87397825525634,0.));
#294=DIRECTION('',(-0.485965028926036,0.87397825525634,-4.82447822937667E-12));
#295=DIRECTION('',(-1.54631778437883E-15,-1.28290415313999E-15,-1.));
#296=DIRECTION('',(-0.485965028926036,0.87397825525634,-4.82447822937667E-12));
#297=DIRECTION('',(-1.54631778437883E-15,-1.28290415313999E-15,-1.));
#298=DIRECTION('',(-1.,0.,1.54631778437883E-15));
#299=DIRECTION('',(-2.02937137940914E-12,4.40050150923927E-12,1.));
#300=DIRECTION('',(0.908010500715802,0.418947407904426,-8.88178419699317E-16));
#301=DIRECTION('',(-2.02937137940914E-12,4.40050150923927E-12,1.));
#302=DIRECTION('',(0.908010500715802,0.418947407904426,-8.88178419699317E-16));
#303=DIRECTION('',(3.84607097451123E-15,1.79422058062161E-15,1.));
#304=DIRECTION('',(1.,0.,-3.84607097451123E-15));
#305=DIRECTION('',(3.84607097451123E-15,1.79422058062161E-15,1.));
#306=DIRECTION('',(1.,0.,-3.84607097451123E-15));
#307=CARTESIAN_POINT('',(0.,0.,0.));
#308=CARTESIAN_POINT('',(10.3225793803396,7.61996510466859,79.2499999999991));
#309=CARTESIAN_POINT('',(10.3225793803396,7.61996510466859,79.2499999999991));
#310=CARTESIAN_POINT('',(11.2225793803396,7.61996510466859,79.2499999999991));
#311=CARTESIAN_POINT('',(10.3225793803396,7.61996510466859,66.2499999999991));
#312=CARTESIAN_POINT('',(10.3225793803396,7.61996510466859,66.2499999999991));
#313=CARTESIAN_POINT('',(11.2225793803396,7.61996510466859,66.2499999999991));
#314=CARTESIAN_POINT('',(10.3225793803396,7.61996510466859,66.2499999999991));
#315=CARTESIAN_POINT('',(11.7804744671177,4.99803033889957,79.2500000000136));
#316=CARTESIAN_POINT('',(11.7804744671177,4.99803033889957,79.2500000000136));
#317=CARTESIAN_POINT('',(12.6804744671177,4.99803033889957,79.2500000000136));
#318=CARTESIAN_POINT('',(11.7804744671177,4.99803033889957,66.2500000000136));
#319=CARTESIAN_POINT('',(11.7804744671177,4.99803033889957,66.2500000000136));
#320=CARTESIAN_POINT('',(12.6804744671177,4.99803033889957,66.2500000000136));
#321=CARTESIAN_POINT('',(11.7804744671177,4.99803033889957,66.2500000000136));
#322=CARTESIAN_POINT('',(-7.50790201541054,15.5366927177004,66.25));
#323=CARTESIAN_POINT('',(-7.50790201541064,15.5366927177004,-4.2632564145606E-14));
#324=CARTESIAN_POINT('',(-7.50790201541064,15.5366927177004,-4.2632564145606E-14));
#325=CARTESIAN_POINT('',(-17.0683967153118,0.0665332642947273,-1.49624317664091E-14));
#326=CARTESIAN_POINT('',(-17.0683967153117,0.0665332642948123,66.25));
#327=CARTESIAN_POINT('',(-17.0683967153117,0.0665332642948123,66.25));
#328=CARTESIAN_POINT('',(-7.50790201541054,15.5366927177004,66.25));
#329=CARTESIAN_POINT('',(-7.50790201541054,15.5366927177004,66.25));
#330=CARTESIAN_POINT('',(-7.50790201541054,15.5366927177004,66.25));
#331=CARTESIAN_POINT('',(-8.98707628661295,-4.92768941062204,66.2499999999992));
#332=CARTESIAN_POINT('',(-8.98707628661305,-4.92768941062212,-7.8159700933611E-13));
#333=CARTESIAN_POINT('',(-8.98707628661272,-14.4276894105148,-7.64551913820399E-13));
#334=CARTESIAN_POINT('',(-8.98707628661262,-14.4276894105147,66.2499999999992));
#335=CARTESIAN_POINT('',(-8.98707628661262,-14.4276894105147,66.2499999999992));
#336=CARTESIAN_POINT('',(-8.98707628661295,-4.92768941062204,66.2499999999992));
#337=CARTESIAN_POINT('',(-8.98707628661237,-14.4276894105146,66.25));
#338=CARTESIAN_POINT('',(-8.98707628661247,-14.4276894105147,0.));
#339=CARTESIAN_POINT('',(9.17437198593858,-14.4276894105147,-1.4210854715202E-14));
#340=CARTESIAN_POINT('',(9.17437198593869,-14.4276894105146,66.25));
#341=CARTESIAN_POINT('',(9.17437198593869,-14.4276894105146,66.25));
#342=CARTESIAN_POINT('',(-8.98707628661237,-14.4276894105146,66.25));
#343=CARTESIAN_POINT('',(9.1743719859377,-5.37768941021773,66.2500000000046));
#344=CARTESIAN_POINT('',(9.17437198593759,-5.37768941021782,4.56168436357984E-12));
#345=CARTESIAN_POINT('',(17.0838751962666,-0.979705898293108,4.50775795121165E-12));
#346=CARTESIAN_POINT('',(17.0838751962667,-0.979705898293023,66.2500000000045));
#347=CARTESIAN_POINT('',(17.0838751962667,-0.979705898293023,66.2500000000045));
#348=CARTESIAN_POINT('',(9.1743719859377,-5.37768941021773,66.2500000000046));
#349=CARTESIAN_POINT('',(17.0838751962674,-0.979705898293446,66.2499999999996));
#350=CARTESIAN_POINT('',(17.0838751962673,-0.979705898293531,-3.83693077310454E-13));
#351=CARTESIAN_POINT('',(8.1001222347172,15.1770219970063,-8.95710172699182E-11));
#352=CARTESIAN_POINT('',(8.10012223471731,15.1770219970064,66.2499999999104));
#353=CARTESIAN_POINT('',(8.10012223471731,15.1770219970064,66.2499999999104));
#354=CARTESIAN_POINT('',(17.0838751962674,-0.979705898293446,66.2499999999996));
#355=CARTESIAN_POINT('',(0.190619024613759,10.7790384852071,66.2499999999529));
#356=CARTESIAN_POINT('',(0.190619024613656,10.779038485207,-4.7102939931192E-11));
#357=CARTESIAN_POINT('',(0.190619024613759,10.7790384852071,66.2499999999529));
#358=CARTESIAN_POINT('',(-8.98707628661295,-4.92768941062204,66.2499999999992));
#359=CARTESIAN_POINT('',(-8.98707628661305,-4.92768941062212,-7.8159700933611E-13));
#360=MECHANICAL_DESIGN_GEOMETRIC_PRESENTATION_REPRESENTATION('',(#191,#192,
#193),#361);
#361=(
GEOMETRIC_REPRESENTATION_CONTEXT(3)
GLOBAL_UNCERTAINTY_ASSIGNED_CONTEXT((#362))
GLOBAL_UNIT_ASSIGNED_CONTEXT((#365,#364,#363))
REPRESENTATION_CONTEXT('E02','TOP_LEVEL_ASSEMBLY_PART')
);
#362=UNCERTAINTY_MEASURE_WITH_UNIT(LENGTH_MEASURE(0.005),#365,
'DISTANCE_ACCURACY_VALUE','Maximum Tolerance applied to model');
#363=(
NAMED_UNIT(*)
SI_UNIT($,.STERADIAN.)
SOLID_ANGLE_UNIT()
);
#364=(
NAMED_UNIT(*)
PLANE_ANGLE_UNIT()
SI_UNIT($,.RADIAN.)
);
#365=(
LENGTH_UNIT()
NAMED_UNIT(*)
SI_UNIT(.MILLI.,.METRE.)
);
#366=PRODUCT_DEFINITION_SHAPE('','',#367);
#367=PRODUCT_DEFINITION('','',#369,#368);
#368=PRODUCT_DEFINITION_CONTEXT('',#375,'design');
#369=PRODUCT_DEFINITION_FORMATION_WITH_SPECIFIED_SOURCE('','',#371,
 .NOT_KNOWN.);
#370=PRODUCT_RELATED_PRODUCT_CATEGORY('','',(#371));
#371=PRODUCT('E02','E02','E02',(#373));
#372=PRODUCT_CATEGORY('','');
#373=PRODUCT_CONTEXT('',#375,'mechanical');
#374=APPLICATION_PROTOCOL_DEFINITION('international standard',
'ap242_managed_model_based_3d_engineering',2020,#375);
#375=APPLICATION_CONTEXT('managed model based 3d engineering');
ENDSEC;
END-ISO-10303-21;
