ISO-10303-21;
HEADER;
/* Generated by software containing ST-Developer
 * from STEP Tools, Inc. (www.steptools.com) 
 */
/* OPTION: using custom renumber hook */

FILE_DESCRIPTION(
/* description */ (
'CAx-IF Rec.Pracs.---Representation and Presentation of Product Manufa
cturing Information (PMI)---4.0---2014-10-13',
'CAx-IF Rec.Pracs.---3D Tessellated Geometry---0.4---2014-09-14','2;1'),

/* implementation_level */ '2;1');

FILE_NAME(
/* name */ 'E04-02',
/* time_stamp */ '2026-04-13T01:14:53+03:00',
/* author */ (''),
/* organization */ (''),
/* preprocessor_version */ 'ST-DEVELOPER v18.102',
/* originating_system */ 'SIEMENS PLM Software NX2206.9140',
/* authorisation */ $);

FILE_SCHEMA (('PROCESS_PLANNING_SCHEMA','AP242_MANAGED_MODEL_BASED_3D_ENGINEERING_MIM_LF { 1 0 10303 442 3 1 4 }'));
ENDSEC;

DATA;
#10=CONSTRUCTIVE_GEOMETRY_REPRESENTATION_RELATIONSHIP(
'supplemental geometry','',#640,#11);
#11=CONSTRUCTIVE_GEOMETRY_REPRESENTATION('supplemental geometry',(#708),
#1111);
#12=SHAPE_REPRESENTATION_RELATIONSHIP('','',#640,#13);
#13=ADVANCED_BREP_SHAPE_REPRESENTATION('',(#638),#1111);
#14=B_SPLINE_SURFACE_WITH_KNOTS('',3,1,((#1052,#1053),(#1054,#1055),(#1056,
#1057),(#1058,#1059),(#1060,#1061),(#1062,#1063),(#1064,#1065)),
 .SURF_OF_LINEAR_EXTRUSION.,.F.,.F.,.F.,(4,1,1,1,4),(2,2),(0.0801553581458215,
0.288068991054573,0.495982623963325,0.703896256872077,0.911809889780828),
(0.,1.),.UNSPECIFIED.);
#15=B_SPLINE_CURVE_WITH_KNOTS('',3,(#991,#992,#993,#994,#995,#996,#997),
 .UNSPECIFIED.,.F.,.F.,(4,1,1,1,4),(0.,0.00951637218358116,0.0190327443671623,
0.0285491165507435,0.0380654887343246),.UNSPECIFIED.);
#16=B_SPLINE_CURVE_WITH_KNOTS('',3,(#1066,#1067,#1068,#1069,#1070,#1071,
#1072),.UNSPECIFIED.,.F.,.F.,(4,1,1,1,4),(0.,0.00951637218307807,0.0190327443661561,
0.0285491165492342,0.0380654887323123),.UNSPECIFIED.);
#17=CIRCLE('',#645,0.35);
#18=CIRCLE('',#646,0.35);
#19=CIRCLE('',#649,0.988343385397038);
#20=CIRCLE('',#650,0.988343385397038);
#21=CIRCLE('',#653,2.1);
#22=CIRCLE('',#654,2.1);
#23=CIRCLE('',#656,13.4414947567817);
#24=CIRCLE('',#657,2.025);
#25=CIRCLE('',#659,13.4414947567817);
#26=CIRCLE('',#660,5.);
#27=CIRCLE('',#661,2.1);
#28=CIRCLE('',#662,0.988343385397038);
#29=CIRCLE('',#663,13.4414947567817);
#30=CIRCLE('',#664,2.15);
#31=CIRCLE('',#665,2.15);
#32=CIRCLE('',#666,3.025);
#33=CIRCLE('',#667,13.4414947567817);
#34=CIRCLE('',#668,0.35);
#35=CIRCLE('',#669,3.6);
#36=CIRCLE('',#670,3.6);
#37=CIRCLE('',#672,3.025);
#38=CIRCLE('',#673,2.025);
#39=CIRCLE('',#675,2.025);
#40=CIRCLE('',#676,2.025);
#41=CIRCLE('',#677,2.025);
#42=CIRCLE('',#680,2.15);
#43=CIRCLE('',#682,13.4414947567817);
#44=CIRCLE('',#683,13.4414947567817);
#45=CIRCLE('',#685,2.15);
#46=CIRCLE('',#687,3.6);
#47=CIRCLE('',#690,3.6);
#48=CIRCLE('',#694,5.);
#49=CIRCLE('',#696,0.988343385397038);
#50=CIRCLE('',#699,0.35);
#51=CIRCLE('',#705,2.1);
#52=CYLINDRICAL_SURFACE('',#644,0.35);
#53=CYLINDRICAL_SURFACE('',#648,0.988343385397038);
#54=CYLINDRICAL_SURFACE('',#652,2.1);
#55=CYLINDRICAL_SURFACE('',#674,2.025);
#56=CYLINDRICAL_SURFACE('',#679,2.15);
#57=CYLINDRICAL_SURFACE('',#681,13.4414947567817);
#58=CYLINDRICAL_SURFACE('',#684,2.15);
#59=CYLINDRICAL_SURFACE('',#686,3.6);
#60=CYLINDRICAL_SURFACE('',#689,3.6);
#61=CYLINDRICAL_SURFACE('',#695,0.988343385397038);
#62=CYLINDRICAL_SURFACE('',#698,0.35);
#63=CYLINDRICAL_SURFACE('',#701,3.025);
#64=CYLINDRICAL_SURFACE('',#702,5.);
#65=CYLINDRICAL_SURFACE('',#704,2.1);
#66=ORIENTED_EDGE('',*,*,#248,.F.);
#67=ORIENTED_EDGE('',*,*,#249,.T.);
#68=ORIENTED_EDGE('',*,*,#250,.F.);
#69=ORIENTED_EDGE('',*,*,#251,.T.);
#70=ORIENTED_EDGE('',*,*,#252,.T.);
#71=ORIENTED_EDGE('',*,*,#253,.F.);
#72=ORIENTED_EDGE('',*,*,#254,.T.);
#73=ORIENTED_EDGE('',*,*,#255,.T.);
#74=ORIENTED_EDGE('',*,*,#256,.T.);
#75=ORIENTED_EDGE('',*,*,#257,.F.);
#76=ORIENTED_EDGE('',*,*,#258,.F.);
#77=ORIENTED_EDGE('',*,*,#259,.T.);
#78=ORIENTED_EDGE('',*,*,#260,.F.);
#79=ORIENTED_EDGE('',*,*,#252,.F.);
#80=ORIENTED_EDGE('',*,*,#261,.T.);
#81=ORIENTED_EDGE('',*,*,#262,.T.);
#82=ORIENTED_EDGE('',*,*,#263,.F.);
#83=ORIENTED_EDGE('',*,*,#262,.F.);
#84=ORIENTED_EDGE('',*,*,#264,.T.);
#85=ORIENTED_EDGE('',*,*,#265,.T.);
#86=ORIENTED_EDGE('',*,*,#266,.F.);
#87=ORIENTED_EDGE('',*,*,#267,.F.);
#88=ORIENTED_EDGE('',*,*,#268,.T.);
#89=ORIENTED_EDGE('',*,*,#269,.T.);
#90=ORIENTED_EDGE('',*,*,#270,.F.);
#91=ORIENTED_EDGE('',*,*,#269,.F.);
#92=ORIENTED_EDGE('',*,*,#271,.T.);
#93=ORIENTED_EDGE('',*,*,#272,.T.);
#94=ORIENTED_EDGE('',*,*,#258,.T.);
#95=ORIENTED_EDGE('',*,*,#273,.F.);
#96=ORIENTED_EDGE('',*,*,#272,.F.);
#97=ORIENTED_EDGE('',*,*,#274,.T.);
#98=ORIENTED_EDGE('',*,*,#259,.F.);
#99=ORIENTED_EDGE('',*,*,#274,.F.);
#100=ORIENTED_EDGE('',*,*,#271,.F.);
#101=ORIENTED_EDGE('',*,*,#268,.F.);
#102=ORIENTED_EDGE('',*,*,#275,.F.);
#103=ORIENTED_EDGE('',*,*,#264,.F.);
#104=ORIENTED_EDGE('',*,*,#261,.F.);
#105=ORIENTED_EDGE('',*,*,#251,.F.);
#106=ORIENTED_EDGE('',*,*,#276,.F.);
#107=ORIENTED_EDGE('',*,*,#277,.F.);
#108=ORIENTED_EDGE('',*,*,#266,.T.);
#109=ORIENTED_EDGE('',*,*,#270,.T.);
#110=ORIENTED_EDGE('',*,*,#273,.T.);
#111=ORIENTED_EDGE('',*,*,#257,.T.);
#112=ORIENTED_EDGE('',*,*,#278,.T.);
#113=ORIENTED_EDGE('',*,*,#279,.T.);
#114=ORIENTED_EDGE('',*,*,#280,.T.);
#115=ORIENTED_EDGE('',*,*,#281,.T.);
#116=ORIENTED_EDGE('',*,*,#282,.T.);
#117=ORIENTED_EDGE('',*,*,#283,.F.);
#118=ORIENTED_EDGE('',*,*,#284,.F.);
#119=ORIENTED_EDGE('',*,*,#285,.F.);
#120=ORIENTED_EDGE('',*,*,#286,.F.);
#121=ORIENTED_EDGE('',*,*,#287,.T.);
#122=ORIENTED_EDGE('',*,*,#253,.T.);
#123=ORIENTED_EDGE('',*,*,#260,.T.);
#124=ORIENTED_EDGE('',*,*,#263,.T.);
#125=ORIENTED_EDGE('',*,*,#288,.F.);
#126=ORIENTED_EDGE('',*,*,#289,.T.);
#127=ORIENTED_EDGE('',*,*,#290,.T.);
#128=ORIENTED_EDGE('',*,*,#291,.T.);
#129=ORIENTED_EDGE('',*,*,#292,.F.);
#130=ORIENTED_EDGE('',*,*,#293,.F.);
#131=ORIENTED_EDGE('',*,*,#294,.F.);
#132=ORIENTED_EDGE('',*,*,#295,.F.);
#133=ORIENTED_EDGE('',*,*,#249,.F.);
#134=ORIENTED_EDGE('',*,*,#296,.F.);
#135=ORIENTED_EDGE('',*,*,#297,.F.);
#136=ORIENTED_EDGE('',*,*,#298,.F.);
#137=ORIENTED_EDGE('',*,*,#299,.F.);
#138=ORIENTED_EDGE('',*,*,#254,.F.);
#139=ORIENTED_EDGE('',*,*,#276,.T.);
#140=ORIENTED_EDGE('',*,*,#250,.T.);
#141=ORIENTED_EDGE('',*,*,#298,.T.);
#142=ORIENTED_EDGE('',*,*,#300,.F.);
#143=ORIENTED_EDGE('',*,*,#301,.T.);
#144=ORIENTED_EDGE('',*,*,#302,.T.);
#145=ORIENTED_EDGE('',*,*,#303,.T.);
#146=ORIENTED_EDGE('',*,*,#299,.T.);
#147=ORIENTED_EDGE('',*,*,#304,.F.);
#148=ORIENTED_EDGE('',*,*,#305,.F.);
#149=ORIENTED_EDGE('',*,*,#284,.T.);
#150=ORIENTED_EDGE('',*,*,#306,.T.);
#151=ORIENTED_EDGE('',*,*,#288,.T.);
#152=ORIENTED_EDGE('',*,*,#265,.F.);
#153=ORIENTED_EDGE('',*,*,#275,.T.);
#154=ORIENTED_EDGE('',*,*,#267,.T.);
#155=ORIENTED_EDGE('',*,*,#277,.T.);
#156=ORIENTED_EDGE('',*,*,#307,.T.);
#157=ORIENTED_EDGE('',*,*,#308,.F.);
#158=ORIENTED_EDGE('',*,*,#306,.F.);
#159=ORIENTED_EDGE('',*,*,#283,.T.);
#160=ORIENTED_EDGE('',*,*,#309,.F.);
#161=ORIENTED_EDGE('',*,*,#310,.T.);
#162=ORIENTED_EDGE('',*,*,#311,.T.);
#163=ORIENTED_EDGE('',*,*,#312,.F.);
#164=ORIENTED_EDGE('',*,*,#307,.F.);
#165=ORIENTED_EDGE('',*,*,#286,.T.);
#166=ORIENTED_EDGE('',*,*,#313,.T.);
#167=ORIENTED_EDGE('',*,*,#314,.F.);
#168=ORIENTED_EDGE('',*,*,#315,.F.);
#169=ORIENTED_EDGE('',*,*,#292,.T.);
#170=ORIENTED_EDGE('',*,*,#316,.T.);
#171=ORIENTED_EDGE('',*,*,#317,.F.);
#172=ORIENTED_EDGE('',*,*,#316,.F.);
#173=ORIENTED_EDGE('',*,*,#295,.T.);
#174=ORIENTED_EDGE('',*,*,#318,.T.);
#175=ORIENTED_EDGE('',*,*,#319,.F.);
#176=ORIENTED_EDGE('',*,*,#318,.F.);
#177=ORIENTED_EDGE('',*,*,#294,.T.);
#178=ORIENTED_EDGE('',*,*,#320,.T.);
#179=ORIENTED_EDGE('',*,*,#321,.F.);
#180=ORIENTED_EDGE('',*,*,#320,.F.);
#181=ORIENTED_EDGE('',*,*,#293,.T.);
#182=ORIENTED_EDGE('',*,*,#315,.T.);
#183=ORIENTED_EDGE('',*,*,#322,.F.);
#184=ORIENTED_EDGE('',*,*,#313,.F.);
#185=ORIENTED_EDGE('',*,*,#285,.T.);
#186=ORIENTED_EDGE('',*,*,#305,.T.);
#187=ORIENTED_EDGE('',*,*,#314,.T.);
#188=ORIENTED_EDGE('',*,*,#317,.T.);
#189=ORIENTED_EDGE('',*,*,#319,.T.);
#190=ORIENTED_EDGE('',*,*,#321,.T.);
#191=ORIENTED_EDGE('',*,*,#304,.T.);
#192=ORIENTED_EDGE('',*,*,#308,.T.);
#193=ORIENTED_EDGE('',*,*,#312,.T.);
#194=ORIENTED_EDGE('',*,*,#322,.T.);
#195=ORIENTED_EDGE('',*,*,#255,.F.);
#196=ORIENTED_EDGE('',*,*,#303,.F.);
#197=ORIENTED_EDGE('',*,*,#323,.F.);
#198=ORIENTED_EDGE('',*,*,#324,.F.);
#199=ORIENTED_EDGE('',*,*,#282,.F.);
#200=ORIENTED_EDGE('',*,*,#325,.F.);
#201=ORIENTED_EDGE('',*,*,#326,.T.);
#202=ORIENTED_EDGE('',*,*,#309,.T.);
#203=ORIENTED_EDGE('',*,*,#289,.F.);
#204=ORIENTED_EDGE('',*,*,#311,.F.);
#205=ORIENTED_EDGE('',*,*,#327,.T.);
#206=ORIENTED_EDGE('',*,*,#328,.T.);
#207=ORIENTED_EDGE('',*,*,#290,.F.);
#208=ORIENTED_EDGE('',*,*,#328,.F.);
#209=ORIENTED_EDGE('',*,*,#329,.T.);
#210=ORIENTED_EDGE('',*,*,#330,.T.);
#211=ORIENTED_EDGE('',*,*,#291,.F.);
#212=ORIENTED_EDGE('',*,*,#330,.F.);
#213=ORIENTED_EDGE('',*,*,#331,.T.);
#214=ORIENTED_EDGE('',*,*,#300,.T.);
#215=ORIENTED_EDGE('',*,*,#297,.T.);
#216=ORIENTED_EDGE('',*,*,#332,.T.);
#217=ORIENTED_EDGE('',*,*,#287,.F.);
#218=ORIENTED_EDGE('',*,*,#332,.F.);
#219=ORIENTED_EDGE('',*,*,#296,.T.);
#220=ORIENTED_EDGE('',*,*,#248,.T.);
#221=ORIENTED_EDGE('',*,*,#278,.F.);
#222=ORIENTED_EDGE('',*,*,#256,.F.);
#223=ORIENTED_EDGE('',*,*,#324,.T.);
#224=ORIENTED_EDGE('',*,*,#333,.T.);
#225=ORIENTED_EDGE('',*,*,#279,.F.);
#226=ORIENTED_EDGE('',*,*,#333,.F.);
#227=ORIENTED_EDGE('',*,*,#323,.T.);
#228=ORIENTED_EDGE('',*,*,#302,.F.);
#229=ORIENTED_EDGE('',*,*,#334,.T.);
#230=ORIENTED_EDGE('',*,*,#335,.T.);
#231=ORIENTED_EDGE('',*,*,#280,.F.);
#232=ORIENTED_EDGE('',*,*,#335,.F.);
#233=ORIENTED_EDGE('',*,*,#336,.T.);
#234=ORIENTED_EDGE('',*,*,#337,.T.);
#235=ORIENTED_EDGE('',*,*,#281,.F.);
#236=ORIENTED_EDGE('',*,*,#337,.F.);
#237=ORIENTED_EDGE('',*,*,#338,.T.);
#238=ORIENTED_EDGE('',*,*,#325,.T.);
#239=ORIENTED_EDGE('',*,*,#326,.F.);
#240=ORIENTED_EDGE('',*,*,#338,.F.);
#241=ORIENTED_EDGE('',*,*,#336,.F.);
#242=ORIENTED_EDGE('',*,*,#334,.F.);
#243=ORIENTED_EDGE('',*,*,#301,.F.);
#244=ORIENTED_EDGE('',*,*,#331,.F.);
#245=ORIENTED_EDGE('',*,*,#329,.F.);
#246=ORIENTED_EDGE('',*,*,#327,.F.);
#247=ORIENTED_EDGE('',*,*,#310,.F.);
#248=EDGE_CURVE('',#339,#340,#400,.T.);
#249=EDGE_CURVE('',#339,#341,#401,.T.);
#250=EDGE_CURVE('',#342,#341,#402,.T.);
#251=EDGE_CURVE('',#342,#343,#403,.T.);
#252=EDGE_CURVE('',#343,#344,#404,.T.);
#253=EDGE_CURVE('',#340,#344,#405,.T.);
#254=EDGE_CURVE('',#345,#346,#406,.T.);
#255=EDGE_CURVE('',#346,#347,#407,.T.);
#256=EDGE_CURVE('',#347,#348,#408,.T.);
#257=EDGE_CURVE('',#349,#348,#409,.T.);
#258=EDGE_CURVE('',#350,#349,#410,.T.);
#259=EDGE_CURVE('',#350,#345,#411,.T.);
#260=EDGE_CURVE('',#344,#351,#17,.T.);
#261=EDGE_CURVE('',#343,#352,#18,.T.);
#262=EDGE_CURVE('',#352,#351,#412,.T.);
#263=EDGE_CURVE('',#351,#353,#413,.T.);
#264=EDGE_CURVE('',#352,#354,#414,.T.);
#265=EDGE_CURVE('',#354,#353,#415,.T.);
#266=EDGE_CURVE('',#355,#356,#19,.T.);
#267=EDGE_CURVE('',#357,#355,#416,.T.);
#268=EDGE_CURVE('',#357,#358,#20,.T.);
#269=EDGE_CURVE('',#358,#356,#417,.T.);
#270=EDGE_CURVE('',#356,#359,#418,.T.);
#271=EDGE_CURVE('',#358,#360,#419,.T.);
#272=EDGE_CURVE('',#360,#359,#420,.T.);
#273=EDGE_CURVE('',#359,#349,#21,.T.);
#274=EDGE_CURVE('',#360,#350,#22,.T.);
#275=EDGE_CURVE('',#354,#357,#23,.T.);
#276=EDGE_CURVE('',#345,#342,#24,.T.);
#277=EDGE_CURVE('',#355,#361,#25,.T.);
#278=EDGE_CURVE('',#348,#362,#26,.T.);
#279=EDGE_CURVE('',#362,#363,#421,.T.);
#280=EDGE_CURVE('',#363,#364,#27,.T.);
#281=EDGE_CURVE('',#364,#365,#422,.T.);
#282=EDGE_CURVE('',#365,#366,#28,.T.);
#283=EDGE_CURVE('',#367,#366,#29,.T.);
#284=EDGE_CURVE('',#368,#367,#30,.T.);
#285=EDGE_CURVE('',#369,#368,#423,.T.);
#286=EDGE_CURVE('',#361,#369,#31,.T.);
#287=EDGE_CURVE('',#370,#340,#32,.T.);
#288=EDGE_CURVE('',#371,#353,#33,.T.);
#289=EDGE_CURVE('',#371,#372,#424,.T.);
#290=EDGE_CURVE('',#372,#373,#34,.T.);
#291=EDGE_CURVE('',#373,#370,#425,.T.);
#292=EDGE_CURVE('',#374,#375,#35,.T.);
#293=EDGE_CURVE('',#376,#374,#15,.T.);
#294=EDGE_CURVE('',#377,#376,#36,.T.);
#295=EDGE_CURVE('',#375,#377,#426,.T.);
#296=EDGE_CURVE('',#378,#339,#37,.T.);
#297=EDGE_CURVE('',#379,#378,#427,.T.);
#298=EDGE_CURVE('',#341,#379,#38,.F.);
#299=EDGE_CURVE('',#380,#380,#39,.T.);
#300=EDGE_CURVE('',#381,#379,#428,.T.);
#301=EDGE_CURVE('',#381,#382,#40,.T.);
#302=EDGE_CURVE('',#382,#383,#429,.T.);
#303=EDGE_CURVE('',#383,#346,#41,.F.);
#304=EDGE_CURVE('',#384,#385,#42,.T.);
#305=EDGE_CURVE('',#368,#384,#430,.T.);
#306=EDGE_CURVE('',#367,#385,#431,.T.);
#307=EDGE_CURVE('',#361,#386,#432,.T.);
#308=EDGE_CURVE('',#385,#386,#43,.T.);
#309=EDGE_CURVE('',#387,#366,#433,.T.);
#310=EDGE_CURVE('',#387,#388,#44,.T.);
#311=EDGE_CURVE('',#388,#371,#434,.T.);
#312=EDGE_CURVE('',#386,#389,#45,.T.);
#313=EDGE_CURVE('',#369,#389,#435,.T.);
#314=EDGE_CURVE('',#390,#391,#46,.T.);
#315=EDGE_CURVE('',#374,#390,#436,.T.);
#316=EDGE_CURVE('',#375,#391,#437,.F.);
#317=EDGE_CURVE('',#391,#392,#438,.T.);
#318=EDGE_CURVE('',#377,#392,#439,.T.);
#319=EDGE_CURVE('',#392,#393,#47,.T.);
#320=EDGE_CURVE('',#376,#393,#440,.T.);
#321=EDGE_CURVE('',#393,#390,#16,.T.);
#322=EDGE_CURVE('',#389,#384,#441,.T.);
#323=EDGE_CURVE('',#394,#383,#442,.T.);
#324=EDGE_CURVE('',#347,#394,#48,.T.);
#325=EDGE_CURVE('',#395,#365,#443,.T.);
#326=EDGE_CURVE('',#395,#387,#49,.T.);
#327=EDGE_CURVE('',#388,#396,#444,.T.);
#328=EDGE_CURVE('',#396,#372,#445,.T.);
#329=EDGE_CURVE('',#396,#397,#50,.T.);
#330=EDGE_CURVE('',#397,#373,#446,.T.);
#331=EDGE_CURVE('',#397,#381,#447,.T.);
#332=EDGE_CURVE('',#378,#370,#448,.T.);
#333=EDGE_CURVE('',#394,#362,#449,.T.);
#334=EDGE_CURVE('',#382,#398,#450,.T.);
#335=EDGE_CURVE('',#398,#363,#451,.T.);
#336=EDGE_CURVE('',#398,#399,#51,.T.);
#337=EDGE_CURVE('',#399,#364,#452,.T.);
#338=EDGE_CURVE('',#399,#395,#453,.T.);
#339=VERTEX_POINT('',#902);
#340=VERTEX_POINT('',#903);
#341=VERTEX_POINT('',#905);
#342=VERTEX_POINT('',#907);
#343=VERTEX_POINT('',#909);
#344=VERTEX_POINT('',#911);
#345=VERTEX_POINT('',#915);
#346=VERTEX_POINT('',#916);
#347=VERTEX_POINT('',#918);
#348=VERTEX_POINT('',#920);
#349=VERTEX_POINT('',#922);
#350=VERTEX_POINT('',#924);
#351=VERTEX_POINT('',#928);
#352=VERTEX_POINT('',#930);
#353=VERTEX_POINT('',#934);
#354=VERTEX_POINT('',#936);
#355=VERTEX_POINT('',#940);
#356=VERTEX_POINT('',#941);
#357=VERTEX_POINT('',#943);
#358=VERTEX_POINT('',#945);
#359=VERTEX_POINT('',#949);
#360=VERTEX_POINT('',#951);
#361=VERTEX_POINT('',#961);
#362=VERTEX_POINT('',#963);
#363=VERTEX_POINT('',#965);
#364=VERTEX_POINT('',#967);
#365=VERTEX_POINT('',#969);
#366=VERTEX_POINT('',#971);
#367=VERTEX_POINT('',#973);
#368=VERTEX_POINT('',#975);
#369=VERTEX_POINT('',#977);
#370=VERTEX_POINT('',#980);
#371=VERTEX_POINT('',#982);
#372=VERTEX_POINT('',#984);
#373=VERTEX_POINT('',#986);
#374=VERTEX_POINT('',#989);
#375=VERTEX_POINT('',#990);
#376=VERTEX_POINT('',#998);
#377=VERTEX_POINT('',#1000);
#378=VERTEX_POINT('',#1004);
#379=VERTEX_POINT('',#1006);
#380=VERTEX_POINT('',#1010);
#381=VERTEX_POINT('',#1012);
#382=VERTEX_POINT('',#1014);
#383=VERTEX_POINT('',#1016);
#384=VERTEX_POINT('',#1021);
#385=VERTEX_POINT('',#1022);
#386=VERTEX_POINT('',#1027);
#387=VERTEX_POINT('',#1030);
#388=VERTEX_POINT('',#1032);
#389=VERTEX_POINT('',#1036);
#390=VERTEX_POINT('',#1040);
#391=VERTEX_POINT('',#1041);
#392=VERTEX_POINT('',#1046);
#393=VERTEX_POINT('',#1050);
#394=VERTEX_POINT('',#1078);
#395=VERTEX_POINT('',#1082);
#396=VERTEX_POINT('',#1086);
#397=VERTEX_POINT('',#1090);
#398=VERTEX_POINT('',#1100);
#399=VERTEX_POINT('',#1104);
#400=LINE('',#901,#454);
#401=LINE('',#904,#455);
#402=LINE('',#906,#456);
#403=LINE('',#908,#457);
#404=LINE('',#910,#458);
#405=LINE('',#912,#459);
#406=LINE('',#914,#460);
#407=LINE('',#917,#461);
#408=LINE('',#919,#462);
#409=LINE('',#921,#463);
#410=LINE('',#923,#464);
#411=LINE('',#925,#465);
#412=LINE('',#931,#466);
#413=LINE('',#933,#467);
#414=LINE('',#935,#468);
#415=LINE('',#937,#469);
#416=LINE('',#942,#470);
#417=LINE('',#946,#471);
#418=LINE('',#948,#472);
#419=LINE('',#950,#473);
#420=LINE('',#952,#474);
#421=LINE('',#964,#475);
#422=LINE('',#968,#476);
#423=LINE('',#976,#477);
#424=LINE('',#983,#478);
#425=LINE('',#987,#479);
#426=LINE('',#1001,#480);
#427=LINE('',#1005,#481);
#428=LINE('',#1011,#482);
#429=LINE('',#1015,#483);
#430=LINE('',#1023,#484);
#431=LINE('',#1024,#485);
#432=LINE('',#1026,#486);
#433=LINE('',#1029,#487);
#434=LINE('',#1033,#488);
#435=LINE('',#1037,#489);
#436=LINE('',#1042,#490);
#437=LINE('',#1043,#491);
#438=LINE('',#1045,#492);
#439=LINE('',#1047,#493);
#440=LINE('',#1051,#494);
#441=LINE('',#1074,#495);
#442=LINE('',#1077,#496);
#443=LINE('',#1081,#497);
#444=LINE('',#1085,#498);
#445=LINE('',#1087,#499);
#446=LINE('',#1091,#500);
#447=LINE('',#1093,#501);
#448=LINE('',#1094,#502);
#449=LINE('',#1097,#503);
#450=LINE('',#1099,#504);
#451=LINE('',#1101,#505);
#452=LINE('',#1105,#506);
#453=LINE('',#1107,#507);
#454=VECTOR('',#713,1000.);
#455=VECTOR('',#714,1000.);
#456=VECTOR('',#715,1000.);
#457=VECTOR('',#716,1000.);
#458=VECTOR('',#717,1000.);
#459=VECTOR('',#718,1000.);
#460=VECTOR('',#721,1000.);
#461=VECTOR('',#722,1000.);
#462=VECTOR('',#723,1000.);
#463=VECTOR('',#724,1000.);
#464=VECTOR('',#725,1000.);
#465=VECTOR('',#726,1000.);
#466=VECTOR('',#733,1000.);
#467=VECTOR('',#736,1000.);
#468=VECTOR('',#737,1000.);
#469=VECTOR('',#738,1000.);
#470=VECTOR('',#743,1000.);
#471=VECTOR('',#746,1000.);
#472=VECTOR('',#749,1000.);
#473=VECTOR('',#750,1000.);
#474=VECTOR('',#751,1000.);
#475=VECTOR('',#770,1000.);
#476=VECTOR('',#773,1000.);
#477=VECTOR('',#780,1000.);
#478=VECTOR('',#787,1000.);
#479=VECTOR('',#790,1000.);
#480=VECTOR('',#795,1000.);
#481=VECTOR('',#800,1000.);
#482=VECTOR('',#807,1000.);
#483=VECTOR('',#810,1000.);
#484=VECTOR('',#819,1000.);
#485=VECTOR('',#820,1000.);
#486=VECTOR('',#823,1000.);
#487=VECTOR('',#826,1000.);
#488=VECTOR('',#829,1000.);
#489=VECTOR('',#834,1000.);
#490=VECTOR('',#839,1000.);
#491=VECTOR('',#840,1000.);
#492=VECTOR('',#843,1000.);
#493=VECTOR('',#844,1000.);
#494=VECTOR('',#849,1000.);
#495=VECTOR('',#852,1000.);
#496=VECTOR('',#857,1000.);
#497=VECTOR('',#862,1000.);
#498=VECTOR('',#867,1000.);
#499=VECTOR('',#868,1000.);
#500=VECTOR('',#873,1000.);
#501=VECTOR('',#876,1000.);
#502=VECTOR('',#877,1000.);
#503=VECTOR('',#882,1000.);
#504=VECTOR('',#885,1000.);
#505=VECTOR('',#886,1000.);
#506=VECTOR('',#891,1000.);
#507=VECTOR('',#894,1000.);
#508=EDGE_LOOP('',(#66,#67,#68,#69,#70,#71));
#509=EDGE_LOOP('',(#72,#73,#74,#75,#76,#77));
#510=EDGE_LOOP('',(#78,#79,#80,#81));
#511=EDGE_LOOP('',(#82,#83,#84,#85));
#512=EDGE_LOOP('',(#86,#87,#88,#89));
#513=EDGE_LOOP('',(#90,#91,#92,#93));
#514=EDGE_LOOP('',(#94,#95,#96,#97));
#515=EDGE_LOOP('',(#98,#99,#100,#101,#102,#103,#104,#105,#106));
#516=EDGE_LOOP('',(#107,#108,#109,#110,#111,#112,#113,#114,#115,#116,#117,
#118,#119,#120));
#517=EDGE_LOOP('',(#121,#122,#123,#124,#125,#126,#127,#128));
#518=EDGE_LOOP('',(#129,#130,#131,#132));
#519=EDGE_LOOP('',(#133,#134,#135,#136));
#520=EDGE_LOOP('',(#137));
#521=EDGE_LOOP('',(#138,#139,#140,#141,#142,#143,#144,#145));
#522=EDGE_LOOP('',(#146));
#523=EDGE_LOOP('',(#147,#148,#149,#150));
#524=EDGE_LOOP('',(#151,#152,#153,#154,#155,#156,#157,#158,#159,#160,#161,
#162));
#525=EDGE_LOOP('',(#163,#164,#165,#166));
#526=EDGE_LOOP('',(#167,#168,#169,#170));
#527=EDGE_LOOP('',(#171,#172,#173,#174));
#528=EDGE_LOOP('',(#175,#176,#177,#178));
#529=EDGE_LOOP('',(#179,#180,#181,#182));
#530=EDGE_LOOP('',(#183,#184,#185,#186));
#531=EDGE_LOOP('',(#187,#188,#189,#190));
#532=EDGE_LOOP('',(#191,#192,#193,#194));
#533=EDGE_LOOP('',(#195,#196,#197,#198));
#534=EDGE_LOOP('',(#199,#200,#201,#202));
#535=EDGE_LOOP('',(#203,#204,#205,#206));
#536=EDGE_LOOP('',(#207,#208,#209,#210));
#537=EDGE_LOOP('',(#211,#212,#213,#214,#215,#216));
#538=EDGE_LOOP('',(#217,#218,#219,#220));
#539=EDGE_LOOP('',(#221,#222,#223,#224));
#540=EDGE_LOOP('',(#225,#226,#227,#228,#229,#230));
#541=EDGE_LOOP('',(#231,#232,#233,#234));
#542=EDGE_LOOP('',(#235,#236,#237,#238));
#543=EDGE_LOOP('',(#239,#240,#241,#242,#243,#244,#245,#246,#247));
#544=FACE_BOUND('',#508,.T.);
#545=FACE_BOUND('',#509,.T.);
#546=FACE_BOUND('',#510,.T.);
#547=FACE_BOUND('',#511,.T.);
#548=FACE_BOUND('',#512,.T.);
#549=FACE_BOUND('',#513,.T.);
#550=FACE_BOUND('',#514,.T.);
#551=FACE_BOUND('',#515,.T.);
#552=FACE_BOUND('',#516,.T.);
#553=FACE_BOUND('',#517,.T.);
#554=FACE_BOUND('',#518,.T.);
#555=FACE_BOUND('',#519,.T.);
#556=FACE_BOUND('',#520,.T.);
#557=FACE_BOUND('',#521,.T.);
#558=FACE_BOUND('',#522,.T.);
#559=FACE_BOUND('',#523,.T.);
#560=FACE_BOUND('',#524,.T.);
#561=FACE_BOUND('',#525,.T.);
#562=FACE_BOUND('',#526,.T.);
#563=FACE_BOUND('',#527,.T.);
#564=FACE_BOUND('',#528,.T.);
#565=FACE_BOUND('',#529,.T.);
#566=FACE_BOUND('',#530,.T.);
#567=FACE_BOUND('',#531,.T.);
#568=FACE_BOUND('',#532,.T.);
#569=FACE_BOUND('',#533,.T.);
#570=FACE_BOUND('',#534,.T.);
#571=FACE_BOUND('',#535,.T.);
#572=FACE_BOUND('',#536,.T.);
#573=FACE_BOUND('',#537,.T.);
#574=FACE_BOUND('',#538,.T.);
#575=FACE_BOUND('',#539,.T.);
#576=FACE_BOUND('',#540,.T.);
#577=FACE_BOUND('',#541,.T.);
#578=FACE_BOUND('',#542,.T.);
#579=FACE_BOUND('',#543,.T.);
#580=PLANE('',#642);
#581=PLANE('',#643);
#582=PLANE('',#647);
#583=PLANE('',#651);
#584=PLANE('',#655);
#585=PLANE('',#658);
#586=PLANE('',#671);
#587=PLANE('',#678);
#588=PLANE('',#688);
#589=PLANE('',#691);
#590=PLANE('',#692);
#591=PLANE('',#693);
#592=PLANE('',#697);
#593=PLANE('',#700);
#594=PLANE('',#703);
#595=PLANE('',#706);
#596=PLANE('',#707);
#597=ADVANCED_FACE('',(#544),#580,.T.);
#598=ADVANCED_FACE('',(#545),#581,.T.);
#599=ADVANCED_FACE('',(#546),#52,.F.);
#600=ADVANCED_FACE('',(#547),#582,.T.);
#601=ADVANCED_FACE('',(#548),#53,.F.);
#602=ADVANCED_FACE('',(#549),#583,.T.);
#603=ADVANCED_FACE('',(#550),#54,.T.);
#604=ADVANCED_FACE('',(#551),#584,.T.);
#605=ADVANCED_FACE('',(#552,#553,#554),#585,.F.);
#606=ADVANCED_FACE('',(#555),#586,.F.);
#607=ADVANCED_FACE('',(#556,#557),#55,.T.);
#608=ADVANCED_FACE('',(#558),#587,.T.);
#609=ADVANCED_FACE('',(#559),#56,.F.);
#610=ADVANCED_FACE('',(#560),#57,.F.);
#611=ADVANCED_FACE('',(#561),#58,.F.);
#612=ADVANCED_FACE('',(#562),#59,.T.);
#613=ADVANCED_FACE('',(#563),#588,.T.);
#614=ADVANCED_FACE('',(#564),#60,.T.);
#615=ADVANCED_FACE('',(#565),#14,.T.);
#616=ADVANCED_FACE('',(#566),#589,.T.);
#617=ADVANCED_FACE('',(#567,#568),#590,.T.);
#618=ADVANCED_FACE('',(#569),#591,.F.);
#619=ADVANCED_FACE('',(#570),#61,.F.);
#620=ADVANCED_FACE('',(#571),#592,.T.);
#621=ADVANCED_FACE('',(#572),#62,.F.);
#622=ADVANCED_FACE('',(#573),#593,.T.);
#623=ADVANCED_FACE('',(#574),#63,.T.);
#624=ADVANCED_FACE('',(#575),#64,.T.);
#625=ADVANCED_FACE('',(#576),#594,.T.);
#626=ADVANCED_FACE('',(#577),#65,.T.);
#627=ADVANCED_FACE('',(#578),#595,.T.);
#628=ADVANCED_FACE('',(#579),#596,.T.);
#629=CLOSED_SHELL('',(#597,#598,#599,#600,#601,#602,#603,#604,#605,#606,
#607,#608,#609,#610,#611,#612,#613,#614,#615,#616,#617,#618,#619,#620,#621,
#622,#623,#624,#625,#626,#627,#628));
#630=STYLED_ITEM('',(#631),#638);
#631=PRESENTATION_STYLE_ASSIGNMENT((#632));
#632=SURFACE_STYLE_USAGE(.BOTH.,#633);
#633=SURFACE_SIDE_STYLE('',(#634));
#634=SURFACE_STYLE_FILL_AREA(#635);
#635=FILL_AREA_STYLE('',(#636));
#636=FILL_AREA_STYLE_COLOUR('',#637);
#637=COLOUR_RGB('',0.611764705882353,0.658823529411765,0.670588235294118);
#638=MANIFOLD_SOLID_BREP('Extrude (20)',#629);
#639=SHAPE_DEFINITION_REPRESENTATION(#1116,#640);
#640=SHAPE_REPRESENTATION('E04-02',(#641),#1111);
#641=AXIS2_PLACEMENT_3D('',#899,#709,#710);
#642=AXIS2_PLACEMENT_3D('',#900,#711,#712);
#643=AXIS2_PLACEMENT_3D('',#913,#719,#720);
#644=AXIS2_PLACEMENT_3D('',#926,#727,#728);
#645=AXIS2_PLACEMENT_3D('',#927,#729,#730);
#646=AXIS2_PLACEMENT_3D('',#929,#731,#732);
#647=AXIS2_PLACEMENT_3D('',#932,#734,#735);
#648=AXIS2_PLACEMENT_3D('',#938,#739,#740);
#649=AXIS2_PLACEMENT_3D('',#939,#741,#742);
#650=AXIS2_PLACEMENT_3D('',#944,#744,#745);
#651=AXIS2_PLACEMENT_3D('',#947,#747,#748);
#652=AXIS2_PLACEMENT_3D('',#953,#752,#753);
#653=AXIS2_PLACEMENT_3D('',#954,#754,#755);
#654=AXIS2_PLACEMENT_3D('',#955,#756,#757);
#655=AXIS2_PLACEMENT_3D('',#956,#758,#759);
#656=AXIS2_PLACEMENT_3D('',#957,#760,#761);
#657=AXIS2_PLACEMENT_3D('',#958,#762,#763);
#658=AXIS2_PLACEMENT_3D('',#959,#764,#765);
#659=AXIS2_PLACEMENT_3D('',#960,#766,#767);
#660=AXIS2_PLACEMENT_3D('',#962,#768,#769);
#661=AXIS2_PLACEMENT_3D('',#966,#771,#772);
#662=AXIS2_PLACEMENT_3D('',#970,#774,#775);
#663=AXIS2_PLACEMENT_3D('',#972,#776,#777);
#664=AXIS2_PLACEMENT_3D('',#974,#778,#779);
#665=AXIS2_PLACEMENT_3D('',#978,#781,#782);
#666=AXIS2_PLACEMENT_3D('',#979,#783,#784);
#667=AXIS2_PLACEMENT_3D('',#981,#785,#786);
#668=AXIS2_PLACEMENT_3D('',#985,#788,#789);
#669=AXIS2_PLACEMENT_3D('',#988,#791,#792);
#670=AXIS2_PLACEMENT_3D('',#999,#793,#794);
#671=AXIS2_PLACEMENT_3D('',#1002,#796,#797);
#672=AXIS2_PLACEMENT_3D('',#1003,#798,#799);
#673=AXIS2_PLACEMENT_3D('',#1007,#801,#802);
#674=AXIS2_PLACEMENT_3D('',#1008,#803,#804);
#675=AXIS2_PLACEMENT_3D('',#1009,#805,#806);
#676=AXIS2_PLACEMENT_3D('',#1013,#808,#809);
#677=AXIS2_PLACEMENT_3D('',#1017,#811,#812);
#678=AXIS2_PLACEMENT_3D('',#1018,#813,#814);
#679=AXIS2_PLACEMENT_3D('',#1019,#815,#816);
#680=AXIS2_PLACEMENT_3D('',#1020,#817,#818);
#681=AXIS2_PLACEMENT_3D('',#1025,#821,#822);
#682=AXIS2_PLACEMENT_3D('',#1028,#824,#825);
#683=AXIS2_PLACEMENT_3D('',#1031,#827,#828);
#684=AXIS2_PLACEMENT_3D('',#1034,#830,#831);
#685=AXIS2_PLACEMENT_3D('',#1035,#832,#833);
#686=AXIS2_PLACEMENT_3D('',#1038,#835,#836);
#687=AXIS2_PLACEMENT_3D('',#1039,#837,#838);
#688=AXIS2_PLACEMENT_3D('',#1044,#841,#842);
#689=AXIS2_PLACEMENT_3D('',#1048,#845,#846);
#690=AXIS2_PLACEMENT_3D('',#1049,#847,#848);
#691=AXIS2_PLACEMENT_3D('',#1073,#850,#851);
#692=AXIS2_PLACEMENT_3D('',#1075,#853,#854);
#693=AXIS2_PLACEMENT_3D('',#1076,#855,#856);
#694=AXIS2_PLACEMENT_3D('',#1079,#858,#859);
#695=AXIS2_PLACEMENT_3D('',#1080,#860,#861);
#696=AXIS2_PLACEMENT_3D('',#1083,#863,#864);
#697=AXIS2_PLACEMENT_3D('',#1084,#865,#866);
#698=AXIS2_PLACEMENT_3D('',#1088,#869,#870);
#699=AXIS2_PLACEMENT_3D('',#1089,#871,#872);
#700=AXIS2_PLACEMENT_3D('',#1092,#874,#875);
#701=AXIS2_PLACEMENT_3D('',#1095,#878,#879);
#702=AXIS2_PLACEMENT_3D('',#1096,#880,#881);
#703=AXIS2_PLACEMENT_3D('',#1098,#883,#884);
#704=AXIS2_PLACEMENT_3D('',#1102,#887,#888);
#705=AXIS2_PLACEMENT_3D('',#1103,#889,#890);
#706=AXIS2_PLACEMENT_3D('',#1106,#892,#893);
#707=AXIS2_PLACEMENT_3D('',#1108,#895,#896);
#708=AXIS2_PLACEMENT_3D('DATUM_CSYS(0)',#1109,#897,#898);
#709=DIRECTION('',(0.,0.,1.));
#710=DIRECTION('',(1.,0.,0.));
#711=DIRECTION('',(0.71661213062312,0.697471902117778,0.));
#712=DIRECTION('',(-0.697471902117778,0.71661213062312,0.));
#713=DIRECTION('',(0.,0.,-1.));
#714=DIRECTION('',(-0.697471902117778,0.71661213062312,0.));
#715=DIRECTION('',(0.,0.,-1.));
#716=DIRECTION('',(0.697471902117779,-0.71661213062312,0.));
#717=DIRECTION('',(0.,0.,-1.));
#718=DIRECTION('',(0.697471902117778,-0.71661213062312,0.));
#719=DIRECTION('',(-0.71661213062312,-0.697471902117778,0.));
#720=DIRECTION('',(0.697471902117779,-0.71661213062312,0.));
#721=DIRECTION('',(0.,0.,-1.));
#722=DIRECTION('',(0.697471902117779,-0.71661213062312,0.));
#723=DIRECTION('',(0.,0.,-1.));
#724=DIRECTION('',(-0.697471902117778,0.71661213062312,0.));
#725=DIRECTION('',(0.,0.,-1.));
#726=DIRECTION('',(-0.697471902117779,0.71661213062312,0.));
#727=DIRECTION('',(0.,0.,-1.));
#728=DIRECTION('',(-1.,0.,0.));
#729=DIRECTION('',(0.,0.,1.));
#730=DIRECTION('',(-1.,1.22464679914735E-16,0.));
#731=DIRECTION('',(0.,0.,1.));
#732=DIRECTION('',(-1.,1.22464679914735E-16,0.));
#733=DIRECTION('',(0.,0.,-1.));
#734=DIRECTION('',(-1.,0.,0.));
#735=DIRECTION('',(0.,0.,1.));
#736=DIRECTION('',(0.,1.,0.));
#737=DIRECTION('',(0.,1.,0.));
#738=DIRECTION('',(0.,0.,-1.));
#739=DIRECTION('',(0.,0.,-1.));
#740=DIRECTION('',(-1.,0.,0.));
#741=DIRECTION('',(0.,0.,1.));
#742=DIRECTION('',(-1.,1.22464679914735E-16,0.));
#743=DIRECTION('',(0.,0.,-1.));
#744=DIRECTION('',(0.,0.,1.));
#745=DIRECTION('',(-1.,1.22464679914735E-16,0.));
#746=DIRECTION('',(0.,0.,-1.));
#747=DIRECTION('',(1.,-1.53140982475884E-16,0.));
#748=DIRECTION('',(1.53140982475884E-16,1.,0.));
#749=DIRECTION('',(-1.53140982475884E-16,-1.,0.));
#750=DIRECTION('',(-1.53140982475884E-16,-1.,0.));
#751=DIRECTION('',(0.,0.,-1.));
#752=DIRECTION('',(0.,0.,-1.));
#753=DIRECTION('',(-1.,0.,0.));
#754=DIRECTION('',(0.,0.,-1.));
#755=DIRECTION('',(-1.,0.,0.));
#756=DIRECTION('',(0.,0.,-1.));
#757=DIRECTION('',(-1.,0.,0.));
#758=DIRECTION('',(0.,0.,1.));
#759=DIRECTION('',(1.,0.,0.));
#760=DIRECTION('',(0.,0.,-1.));
#761=DIRECTION('',(1.,1.22464679914735E-16,0.));
#762=DIRECTION('',(0.,0.,1.));
#763=DIRECTION('',(1.,0.,0.));
#764=DIRECTION('',(0.,0.,1.));
#765=DIRECTION('',(1.,0.,0.));
#766=DIRECTION('',(0.,0.,-1.));
#767=DIRECTION('',(1.,1.22464679914735E-16,0.));
#768=DIRECTION('',(0.,0.,-1.));
#769=DIRECTION('',(-1.,0.,0.));
#770=DIRECTION('',(-0.697471902117777,-0.716612130623122,0.));
#771=DIRECTION('',(0.,0.,-1.));
#772=DIRECTION('',(1.,1.22464679914735E-16,0.));
#773=DIRECTION('',(-2.45025571961415E-15,1.,0.));
#774=DIRECTION('',(0.,0.,1.));
#775=DIRECTION('',(1.,0.,0.));
#776=DIRECTION('',(0.,0.,-1.));
#777=DIRECTION('',(1.,1.22464679914735E-16,0.));
#778=DIRECTION('',(0.,0.,-1.));
#779=DIRECTION('',(1.,1.22464679914735E-16,0.));
#780=DIRECTION('',(-1.,0.,0.));
#781=DIRECTION('',(0.,0.,-1.));
#782=DIRECTION('',(1.,1.22464679914735E-16,0.));
#783=DIRECTION('',(0.,0.,-1.));
#784=DIRECTION('',(-1.,0.,0.));
#785=DIRECTION('',(0.,0.,-1.));
#786=DIRECTION('',(1.,1.22464679914735E-16,0.));
#787=DIRECTION('',(2.31927442007157E-15,-1.,0.));
#788=DIRECTION('',(0.,0.,1.));
#789=DIRECTION('',(1.,0.,0.));
#790=DIRECTION('',(0.697471902117777,0.716612130623122,0.));
#791=DIRECTION('',(0.,0.,1.));
#792=DIRECTION('',(1.,0.,0.));
#793=DIRECTION('',(0.,0.,1.));
#794=DIRECTION('',(1.,0.,0.));
#795=DIRECTION('',(1.,0.,0.));
#796=DIRECTION('',(0.,0.,-1.));
#797=DIRECTION('',(-1.,0.,0.));
#798=DIRECTION('',(0.,0.,-1.));
#799=DIRECTION('',(-1.,0.,0.));
#800=DIRECTION('',(-0.697471902117777,-0.716612130623122,0.));
#801=DIRECTION('',(0.,0.,-1.));
#802=DIRECTION('',(-1.,0.,0.));
#803=DIRECTION('',(0.,0.,1.));
#804=DIRECTION('',(1.,0.,0.));
#805=DIRECTION('',(0.,0.,1.));
#806=DIRECTION('',(1.,0.,0.));
#807=DIRECTION('',(0.,0.,-1.));
#808=DIRECTION('',(0.,0.,1.));
#809=DIRECTION('',(1.,0.,0.));
#810=DIRECTION('',(0.,0.,-1.));
#811=DIRECTION('',(0.,0.,-1.));
#812=DIRECTION('',(-1.,0.,0.));
#813=DIRECTION('',(0.,0.,1.));
#814=DIRECTION('',(1.,0.,0.));
#815=DIRECTION('',(0.,0.,1.));
#816=DIRECTION('',(1.,0.,0.));
#817=DIRECTION('',(0.,0.,-1.));
#818=DIRECTION('',(1.,1.22464679914735E-16,0.));
#819=DIRECTION('',(0.,0.,1.));
#820=DIRECTION('',(0.,0.,1.));
#821=DIRECTION('',(0.,0.,1.));
#822=DIRECTION('',(1.,0.,0.));
#823=DIRECTION('',(0.,0.,1.));
#824=DIRECTION('',(0.,0.,-1.));
#825=DIRECTION('',(1.,1.22464679914735E-16,0.));
#826=DIRECTION('',(0.,0.,-1.));
#827=DIRECTION('',(0.,0.,-1.));
#828=DIRECTION('',(1.,1.22464679914735E-16,0.));
#829=DIRECTION('',(0.,0.,-1.));
#830=DIRECTION('',(0.,0.,1.));
#831=DIRECTION('',(1.,0.,0.));
#832=DIRECTION('',(0.,0.,-1.));
#833=DIRECTION('',(1.,1.22464679914735E-16,0.));
#834=DIRECTION('',(0.,0.,1.));
#835=DIRECTION('',(-4.2848305306533E-15,-1.69856787450598E-14,1.));
#836=DIRECTION('',(0.,-1.,-1.69856787450598E-14));
#837=DIRECTION('',(0.,0.,1.));
#838=DIRECTION('',(1.,0.,0.));
#839=DIRECTION('',(-4.2848305306533E-15,-1.69856787450598E-14,1.));
#840=DIRECTION('',(4.2848305306533E-15,0.,-1.));
#841=DIRECTION('',(0.,-1.,0.));
#842=DIRECTION('',(0.,0.,-1.));
#843=DIRECTION('',(1.,0.,0.));
#844=DIRECTION('',(-4.2848305306533E-15,0.,1.));
#845=DIRECTION('',(-4.2848305306533E-15,-1.69856787450598E-14,1.));
#846=DIRECTION('',(0.,-1.,-1.69856787450598E-14));
#847=DIRECTION('',(0.,0.,1.));
#848=DIRECTION('',(1.,0.,0.));
#849=DIRECTION('',(-4.2848305306533E-15,-1.69856787450598E-14,1.));
#850=DIRECTION('',(0.,1.,0.));
#851=DIRECTION('',(0.,0.,1.));
#852=DIRECTION('',(-1.,0.,0.));
#853=DIRECTION('',(0.,0.,1.));
#854=DIRECTION('',(1.,0.,0.));
#855=DIRECTION('',(0.,0.,-1.));
#856=DIRECTION('',(-1.,0.,0.));
#857=DIRECTION('',(0.697471902117777,0.716612130623122,0.));
#858=DIRECTION('',(0.,0.,-1.));
#859=DIRECTION('',(-1.,0.,0.));
#860=DIRECTION('',(0.,0.,-1.));
#861=DIRECTION('',(-1.,0.,0.));
#862=DIRECTION('',(0.,0.,-1.));
#863=DIRECTION('',(0.,0.,1.));
#864=DIRECTION('',(1.,0.,0.));
#865=DIRECTION('',(1.,2.31927442007157E-15,0.));
#866=DIRECTION('',(-2.31927442007157E-15,1.,0.));
#867=DIRECTION('',(2.21385285552286E-15,-1.,0.));
#868=DIRECTION('',(0.,0.,-1.));
#869=DIRECTION('',(0.,0.,-1.));
#870=DIRECTION('',(-1.,0.,0.));
#871=DIRECTION('',(0.,0.,1.));
#872=DIRECTION('',(1.,0.,0.));
#873=DIRECTION('',(0.,0.,-1.));
#874=DIRECTION('',(-0.716612130623122,0.697471902117777,0.));
#875=DIRECTION('',(-0.697471902117777,-0.716612130623122,0.));
#876=DIRECTION('',(0.697471902117777,0.716612130623122,0.));
#877=DIRECTION('',(0.,0.,-1.));
#878=DIRECTION('',(0.,0.,-1.));
#879=DIRECTION('',(-1.,0.,0.));
#880=DIRECTION('',(0.,0.,-1.));
#881=DIRECTION('',(-1.,0.,0.));
#882=DIRECTION('',(0.,0.,-1.));
#883=DIRECTION('',(0.716612130623122,-0.697471902117777,0.));
#884=DIRECTION('',(0.697471902117777,0.716612130623122,0.));
#885=DIRECTION('',(-0.697471902117777,-0.716612130623122,0.));
#886=DIRECTION('',(0.,0.,-1.));
#887=DIRECTION('',(0.,0.,-1.));
#888=DIRECTION('',(-1.,0.,0.));
#889=DIRECTION('',(0.,0.,-1.));
#890=DIRECTION('',(1.,1.22464679914735E-16,0.));
#891=DIRECTION('',(0.,0.,-1.));
#892=DIRECTION('',(-1.,-2.45025571961415E-15,0.));
#893=DIRECTION('',(2.45025571961415E-15,-1.,0.));
#894=DIRECTION('',(-2.45025571961415E-15,1.,0.));
#895=DIRECTION('',(0.,0.,1.));
#896=DIRECTION('',(1.,0.,0.));
#897=DIRECTION('',(0.,0.,1.));
#898=DIRECTION('',(1.,0.,0.));
#899=CARTESIAN_POINT('',(0.,0.,0.));
#900=CARTESIAN_POINT('',(2.67986865266948,-1.40318530652099,-3.85));
#901=CARTESIAN_POINT('',(2.67986865267064,-1.40318530651986,-5.1));
#902=CARTESIAN_POINT('',(2.67986865266985,-1.40318530652137,-5.1));
#903=CARTESIAN_POINT('',(2.67986865266985,-1.40318530652137,-6.));
#904=CARTESIAN_POINT('',(2.67986865266948,-1.40318530652099,-5.1));
#905=CARTESIAN_POINT('',(1.92521722838394,-0.627824516512108,-5.1));
#906=CARTESIAN_POINT('',(1.92521722838394,-0.627824516512108,-3.85));
#907=CARTESIAN_POINT('',(1.92521722838394,-0.627824516512109,-3.85));
#908=CARTESIAN_POINT('',(1.92521722838394,-0.627824516512109,-3.85));
#909=CARTESIAN_POINT('',(4.14235873070665,-2.90580946622572,-3.85));
#910=CARTESIAN_POINT('',(4.14235873070665,-2.90580946622572,-3.85));
#911=CARTESIAN_POINT('',(4.14235873070665,-2.90580946622572,-6.));
#912=CARTESIAN_POINT('',(2.67986865266948,-1.40318530652099,-6.));
#913=CARTESIAN_POINT('',(2.88828750211619,-4.12638529493183,-3.85));
#914=CARTESIAN_POINT('',(0.715792407204908,-1.89427195243656,-3.85));
#915=CARTESIAN_POINT('',(0.715792407204908,-1.89427195243656,-3.85));
#916=CARTESIAN_POINT('',(0.715792407204908,-1.89427195243656,-5.1));
#917=CARTESIAN_POINT('',(2.88828750211619,-4.12638529493183,-5.1));
#918=CARTESIAN_POINT('',(1.80203995466055,-3.01032862368419,-5.1));
#919=CARTESIAN_POINT('',(1.80203995466055,-3.01032862368419,-5.1));
#920=CARTESIAN_POINT('',(1.80203995466055,-3.01032862368419,-6.));
#921=CARTESIAN_POINT('',(2.88828750211619,-4.12638529493183,-6.));
#922=CARTESIAN_POINT('',(2.88828750211619,-4.12638529493183,-6.));
#923=CARTESIAN_POINT('',(2.88828750211619,-4.12638529493183,-3.85));
#924=CARTESIAN_POINT('',(2.88828750211619,-4.12638529493183,-3.85));
#925=CARTESIAN_POINT('',(1.80203995466055,-3.01032862368419,-3.85));
#926=CARTESIAN_POINT('',(4.39317297642474,-2.6616943004845,-3.85));
#927=CARTESIAN_POINT('',(4.39317297642474,-2.6616943004845,-6.));
#928=CARTESIAN_POINT('',(4.74317297642474,-2.6616943004845,-6.));
#929=CARTESIAN_POINT('',(4.39317297642474,-2.6616943004845,-3.85));
#930=CARTESIAN_POINT('',(4.74317297642474,-2.6616943004845,-3.85));
#931=CARTESIAN_POINT('',(4.74317297642474,-2.6616943004845,-3.85));
#932=CARTESIAN_POINT('',(4.74317297642474,-2.6616943004845,-3.85));
#933=CARTESIAN_POINT('',(4.74317297642474,-2.6616943004845,-6.));
#934=CARTESIAN_POINT('',(4.74317297642474,5.60452632691448,-6.));
#935=CARTESIAN_POINT('',(4.74317297642474,-2.6616943004845,-3.85));
#936=CARTESIAN_POINT('',(4.74317297642474,5.60452632691448,-3.85));
#937=CARTESIAN_POINT('',(4.74317297642474,5.60452632691448,-3.85));
#938=CARTESIAN_POINT('',(7.48151636182178,3.00211772400079,-3.85));
#939=CARTESIAN_POINT('',(7.48151636182178,3.00211772400079,-6.));
#940=CARTESIAN_POINT('',(8.07121796548579,3.79525999755212,-6.));
#941=CARTESIAN_POINT('',(6.49317297642474,3.00211772400079,-6.));
#942=CARTESIAN_POINT('',(8.07121796548579,3.79525999755212,-3.85));
#943=CARTESIAN_POINT('',(8.07121796548323,3.79525999755403,-3.85));
#944=CARTESIAN_POINT('',(7.48151636182178,3.00211772400079,-3.85));
#945=CARTESIAN_POINT('',(6.49317297642474,3.00211772400079,-3.85));
#946=CARTESIAN_POINT('',(6.49317297642474,3.00211772400079,-3.85));
#947=CARTESIAN_POINT('',(6.49317297642474,3.00211772400079,-3.85));
#948=CARTESIAN_POINT('',(6.49317297642474,3.00211772400079,-6.));
#949=CARTESIAN_POINT('',(6.49317297642474,-2.6616943004845,-6.));
#950=CARTESIAN_POINT('',(6.49317297642474,3.00211772400079,-3.85));
#951=CARTESIAN_POINT('',(6.49317297642474,-2.6616943004845,-3.85));
#952=CARTESIAN_POINT('',(6.49317297642474,-2.6616943004845,-3.85));
#953=CARTESIAN_POINT('',(4.39317297642474,-2.6616943004845,-3.85));
#954=CARTESIAN_POINT('',(4.39317297642474,-2.6616943004845,-6.));
#955=CARTESIAN_POINT('',(4.39317297642474,-2.6616943004845,-3.85));
#956=CARTESIAN_POINT('',(0.,0.,-3.85));
#957=CARTESIAN_POINT('',(0.051261409091687,-6.99149475678164,-3.85));
#958=CARTESIAN_POINT('',(0.,0.,-3.85));
#959=CARTESIAN_POINT('',(0.,0.,-6.));
#960=CARTESIAN_POINT('',(0.0512614090916887,-6.99149475678164,-6.));
#961=CARTESIAN_POINT('',(12.9089944663065,-3.07327042349016,-6.));
#962=CARTESIAN_POINT('',(-2.19416350069465E-15,1.65364521863171,-6.));
#963=CARTESIAN_POINT('',(-1.80203995466054,-3.0103286236842,-6.));
#964=CARTESIAN_POINT('',(-1.80203995466054,-3.0103286236842,-6.));
#965=CARTESIAN_POINT('',(-2.88828750211618,-4.12638529493184,-6.));
#966=CARTESIAN_POINT('',(-4.39317297642474,-2.6616943004845,-6.));
#967=CARTESIAN_POINT('',(-6.49317297642474,-2.6616943004845,-6.));
#968=CARTESIAN_POINT('',(-6.49317297642474,-2.66169430048451,-6.));
#969=CARTESIAN_POINT('',(-6.49317297642474,3.00211772400079,-6.));
#970=CARTESIAN_POINT('',(-7.48151636182178,3.00211772400079,-6.));
#971=CARTESIAN_POINT('',(-7.75273268581844,3.9525199299409,-6.));
#972=CARTESIAN_POINT('',(0.0512614090916887,-6.99149475678164,-6.));
#973=CARTESIAN_POINT('',(-12.806471648123,-3.07327042349018,-6.));
#974=CARTESIAN_POINT('',(-10.7498457614028,-3.7,-6.));
#975=CARTESIAN_POINT('',(-10.7498457614028,-5.85,-6.));
#976=CARTESIAN_POINT('',(10.8523685795862,-5.85,-6.));
#977=CARTESIAN_POINT('',(10.8523685795862,-5.85,-6.));
#978=CARTESIAN_POINT('',(10.8523685795862,-3.7,-6.));
#979=CARTESIAN_POINT('',(0.,0.,-6.));
#980=CARTESIAN_POINT('',(-2.67986865266985,-1.40318530652137,-6.));
#981=CARTESIAN_POINT('',(0.0512614090916887,-6.99149475678164,-6.));
#982=CARTESIAN_POINT('',(-4.74317297642476,5.56586086530569,-6.));
#983=CARTESIAN_POINT('',(-4.74317297642476,5.56586086530569,-6.));
#984=CARTESIAN_POINT('',(-4.74317297642474,-2.66169430048451,-6.));
#985=CARTESIAN_POINT('',(-4.39317297642474,-2.6616943004845,-6.));
#986=CARTESIAN_POINT('',(-4.14235873070665,-2.90580946622572,-6.));
#987=CARTESIAN_POINT('',(-4.14235873070664,-2.90580946622573,-6.));
#988=CARTESIAN_POINT('',(-10.5597435023372,-3.69999999999995,-6.));
#989=CARTESIAN_POINT('',(-14.0329954303586,-2.75315204783799,-6.));
#990=CARTESIAN_POINT('',(-10.5597435023372,-7.3,-6.));
#991=CARTESIAN_POINT('',(14.252457775995,-2.75928648749116,-6.));
#992=CARTESIAN_POINT('',(13.4115153523274,0.3470930760499,-6.));
#993=CARTESIAN_POINT('',(9.68545642739002,5.88132159322265,-6.));
#994=CARTESIAN_POINT('',(0.129830131356658,9.1504413124182,-6.));
#995=CARTESIAN_POINT('',(-9.432721860268,5.91173561445728,-6.));
#996=CARTESIAN_POINT('',(-13.1860309851058,0.353713436749527,-6.));
#997=CARTESIAN_POINT('',(-14.0329954303575,-2.75315204783861,-6.));
#998=CARTESIAN_POINT('',(14.252457775995,-2.75928648749116,-6.));
#999=CARTESIAN_POINT('',(10.7775393471122,-3.69999999999998,-6.));
#1000=CARTESIAN_POINT('',(10.7775393471122,-7.3,-6.));
#1001=CARTESIAN_POINT('',(-10.7498457614028,-7.3,-6.));
#1002=CARTESIAN_POINT('',(0.,0.,-5.1));
#1003=CARTESIAN_POINT('',(0.,0.,-5.1));
#1004=CARTESIAN_POINT('',(-2.67986865266985,-1.40318530652137,-5.1));
#1005=CARTESIAN_POINT('',(-2.8138674917385,-1.5408613810334,-5.1));
#1006=CARTESIAN_POINT('',(-1.92521722838394,-0.627824516512113,-5.1));
#1007=CARTESIAN_POINT('',(0.,0.,-5.1));
#1008=CARTESIAN_POINT('',(0.,0.,-6.));
#1009=CARTESIAN_POINT('',(0.,0.,3.6));
#1010=CARTESIAN_POINT('',(2.025,0.,3.6));
#1011=CARTESIAN_POINT('',(-1.92521722838394,-0.627824516512113,-3.85));
#1012=CARTESIAN_POINT('',(-1.92521722838394,-0.627824516512113,-3.85));
#1013=CARTESIAN_POINT('',(0.,0.,-3.85));
#1014=CARTESIAN_POINT('',(-0.715792407204903,-1.89427195243656,-3.85));
#1015=CARTESIAN_POINT('',(-0.715792407204903,-1.89427195243656,-3.85));
#1016=CARTESIAN_POINT('',(-0.715792407204903,-1.89427195243656,-5.1));
#1017=CARTESIAN_POINT('',(0.,0.,-5.1));
#1018=CARTESIAN_POINT('',(0.,0.,3.6));
#1019=CARTESIAN_POINT('',(-10.7498457614028,-3.7,-6.));
#1020=CARTESIAN_POINT('',(-10.7498457614028,-3.7,0.));
#1021=CARTESIAN_POINT('',(-10.7498457614028,-5.85,0.));
#1022=CARTESIAN_POINT('',(-12.806471648123,-3.07327042349018,0.));
#1023=CARTESIAN_POINT('',(-10.7498457614028,-5.85,-6.));
#1024=CARTESIAN_POINT('',(-12.806471648123,-3.07327042349018,-6.));
#1025=CARTESIAN_POINT('',(0.0512614090916887,-6.99149475678164,-6.));
#1026=CARTESIAN_POINT('',(12.9089944663065,-3.07327042349016,-6.));
#1027=CARTESIAN_POINT('',(12.9089944663065,-3.07327042349016,0.));
#1028=CARTESIAN_POINT('',(0.0512614090916887,-6.99149475678164,0.));
#1029=CARTESIAN_POINT('',(-7.75273268582793,3.95251992993819,-5.1));
#1030=CARTESIAN_POINT('',(-7.75273268582793,3.95251992993819,-3.85));
#1031=CARTESIAN_POINT('',(0.0512614090916861,-6.99149475678164,-3.85));
#1032=CARTESIAN_POINT('',(-4.74317297642476,5.5658608653057,-3.85));
#1033=CARTESIAN_POINT('',(-4.74317297642476,5.56586086530569,-5.1));
#1034=CARTESIAN_POINT('',(10.8523685795862,-3.7,-6.));
#1035=CARTESIAN_POINT('',(10.8523685795862,-3.7,0.));
#1036=CARTESIAN_POINT('',(10.8523685795862,-5.85,0.));
#1037=CARTESIAN_POINT('',(10.8523685795862,-5.85,-6.));
#1038=CARTESIAN_POINT('',(-10.5597435023372,-3.7,-3.));
#1039=CARTESIAN_POINT('',(-10.5597435023372,-3.70000000000005,0.));
#1040=CARTESIAN_POINT('',(-14.0329954300926,-2.75315204686706,-1.08412119866052E-15));
#1041=CARTESIAN_POINT('',(-10.5597435023372,-7.3,0.));
#1042=CARTESIAN_POINT('',(-14.0329954303586,-2.75315204783799,-6.));
#1043=CARTESIAN_POINT('',(-10.5597435023372,-7.3,-3.));
#1044=CARTESIAN_POINT('',(-10.7498457614028,-7.3,-6.));
#1045=CARTESIAN_POINT('',(-10.7498457614028,-7.3,0.));
#1046=CARTESIAN_POINT('',(10.7775393471122,-7.3,0.));
#1047=CARTESIAN_POINT('',(10.7775393471122,-7.3,-5.99999999999991));
#1048=CARTESIAN_POINT('',(10.7775393471122,-3.70000000000003,-3.));
#1049=CARTESIAN_POINT('',(10.7775393471122,-3.70000000000008,0.));
#1050=CARTESIAN_POINT('',(14.2524577757261,-2.75928648649484,-3.69229532453518E-16));
#1051=CARTESIAN_POINT('',(14.252457775995,-2.75928648749116,-6.));
#1052=CARTESIAN_POINT('',(14.252457775995,-2.75928648749116,-6.));
#1053=CARTESIAN_POINT('',(14.252457775995,-2.75928648749126,1.23165366794353E-13));
#1054=CARTESIAN_POINT('',(13.4185104184606,0.321253815394083,-5.99999999999997));
#1055=CARTESIAN_POINT('',(13.4185104184605,0.321253815393981,1.57859836313889E-13));
#1056=CARTESIAN_POINT('',(9.67495985842406,5.90182715679941,-5.99999999999988));
#1057=CARTESIAN_POINT('',(9.67495985842403,5.9018271567993,2.48065457064683E-13));
#1058=CARTESIAN_POINT('',(0.117748470798143,9.14670154797057,-5.99999999999986));
#1059=CARTESIAN_POINT('',(0.117748470798117,9.14670154797047,2.61943244872498E-13));
#1060=CARTESIAN_POINT('',(-9.45022586341624,5.90611667643779,-5.99999999999996));
#1061=CARTESIAN_POINT('',(-9.45022586341627,5.90611667643769,1.6306400674182E-13));
#1062=CARTESIAN_POINT('',(-13.1934971525761,0.326325772313324,-6.00000000000007));
#1063=CARTESIAN_POINT('',(-13.1934971525762,0.326325772313223,5.63785129692462E-14));
#1064=CARTESIAN_POINT('',(-14.0329954303574,-2.75315204783831,-6.00000000000012));
#1065=CARTESIAN_POINT('',(-14.0329954303574,-2.75315204783841,0.));
#1066=CARTESIAN_POINT('',(14.2524577757261,-2.75928648649484,-3.69229532453518E-16));
#1067=CARTESIAN_POINT('',(13.4115153518852,0.347093076822925,-3.69229532453518E-16));
#1068=CARTESIAN_POINT('',(9.68545642687351,5.88132159346818,-3.85680088514303E-17));
#1069=CARTESIAN_POINT('',(0.129830131343116,9.15044131229722,1.90843393937343E-16));
#1070=CARTESIAN_POINT('',(-9.43272185976224,5.911735614695,-2.49978267632046E-15));
#1071=CARTESIAN_POINT('',(-13.1860309846746,0.353713437495829,-4.33518921344206E-16));
#1072=CARTESIAN_POINT('',(-14.0329954300926,-2.75315204686707,-4.33518921344206E-16));
#1073=CARTESIAN_POINT('',(10.8523685795862,-5.85,-6.));
#1074=CARTESIAN_POINT('',(10.8523685795862,-5.85,0.));
#1075=CARTESIAN_POINT('',(-10.7498457614028,-3.7,0.));
#1076=CARTESIAN_POINT('',(0.,0.,-5.1));
#1077=CARTESIAN_POINT('',(-1.55979626314804,-2.76143720973951,-5.1));
#1078=CARTESIAN_POINT('',(-1.80203995466054,-3.0103286236842,-5.1));
#1079=CARTESIAN_POINT('',(-2.19416350069465E-15,1.65364521863171,-5.1));
#1080=CARTESIAN_POINT('',(-7.48151636182178,3.00211772400079,-5.1));
#1081=CARTESIAN_POINT('',(-6.49317297642474,3.00211772400079,-5.1));
#1082=CARTESIAN_POINT('',(-6.49317297642474,3.00211772400079,-3.85));
#1083=CARTESIAN_POINT('',(-7.48151636182178,3.00211772400079,-3.85));
#1084=CARTESIAN_POINT('',(-4.74317297642476,5.56586086530569,-5.1));
#1085=CARTESIAN_POINT('',(-4.74317297642476,5.56586086530569,-3.85));
#1086=CARTESIAN_POINT('',(-4.74317297642474,-2.66169430048451,-3.85));
#1087=CARTESIAN_POINT('',(-4.74317297642474,-2.66169430048451,-5.1));
#1088=CARTESIAN_POINT('',(-4.39317297642474,-2.6616943004845,-5.1));
#1089=CARTESIAN_POINT('',(-4.39317297642474,-2.6616943004845,-3.85));
#1090=CARTESIAN_POINT('',(-4.14235873070665,-2.90580946622572,-3.85));
#1091=CARTESIAN_POINT('',(-4.14235873070665,-2.90580946622572,-5.1));
#1092=CARTESIAN_POINT('',(-4.14235873070664,-2.90580946622573,-5.1));
#1093=CARTESIAN_POINT('',(-4.14235873070664,-2.90580946622573,-3.85));
#1094=CARTESIAN_POINT('',(-2.67986865266985,-1.40318530652137,-5.1));
#1095=CARTESIAN_POINT('',(0.,0.,-5.1));
#1096=CARTESIAN_POINT('',(-2.19416350069465E-15,1.65364521863171,-5.1));
#1097=CARTESIAN_POINT('',(-1.80203995466054,-3.0103286236842,-5.1));
#1098=CARTESIAN_POINT('',(-1.80203995466054,-3.0103286236842,-5.1));
#1099=CARTESIAN_POINT('',(-0.715792407204902,-1.89427195243656,-3.85));
#1100=CARTESIAN_POINT('',(-2.88828750211618,-4.12638529493184,-3.85));
#1101=CARTESIAN_POINT('',(-2.88828750211618,-4.12638529493184,-5.1));
#1102=CARTESIAN_POINT('',(-4.39317297642474,-2.6616943004845,-5.1));
#1103=CARTESIAN_POINT('',(-4.39317297642474,-2.6616943004845,-3.85));
#1104=CARTESIAN_POINT('',(-6.49317297642475,-2.6616943004845,-3.85));
#1105=CARTESIAN_POINT('',(-6.49317297642474,-2.6616943004845,-5.1));
#1106=CARTESIAN_POINT('',(-6.49317297642474,-2.66169430048451,-5.1));
#1107=CARTESIAN_POINT('',(-6.49317297642474,-2.6616943004845,-3.85));
#1108=CARTESIAN_POINT('',(-7.48151636182178,3.00211772400079,-3.85));
#1109=CARTESIAN_POINT('',(0.,0.,0.));
#1110=MECHANICAL_DESIGN_GEOMETRIC_PRESENTATION_REPRESENTATION('',(#630),
#1111);
#1111=(
GEOMETRIC_REPRESENTATION_CONTEXT(3)
GLOBAL_UNCERTAINTY_ASSIGNED_CONTEXT((#1112))
GLOBAL_UNIT_ASSIGNED_CONTEXT((#1115,#1114,#1113))
REPRESENTATION_CONTEXT('E04-02','TOP_LEVEL_ASSEMBLY_PART')
);
#1112=UNCERTAINTY_MEASURE_WITH_UNIT(LENGTH_MEASURE(0.005),#1115,
'DISTANCE_ACCURACY_VALUE','Maximum Tolerance applied to model');
#1113=(
NAMED_UNIT(*)
SI_UNIT($,.STERADIAN.)
SOLID_ANGLE_UNIT()
);
#1114=(
NAMED_UNIT(*)
PLANE_ANGLE_UNIT()
SI_UNIT($,.RADIAN.)
);
#1115=(
LENGTH_UNIT()
NAMED_UNIT(*)
SI_UNIT(.MILLI.,.METRE.)
);
#1116=PRODUCT_DEFINITION_SHAPE('','',#1117);
#1117=PRODUCT_DEFINITION('','',#1119,#1118);
#1118=PRODUCT_DEFINITION_CONTEXT('',#1125,'design');
#1119=PRODUCT_DEFINITION_FORMATION_WITH_SPECIFIED_SOURCE('','',#1121,
 .NOT_KNOWN.);
#1120=PRODUCT_RELATED_PRODUCT_CATEGORY('','',(#1121));
#1121=PRODUCT('E04-02','E04-02','E04-02',(#1123));
#1122=PRODUCT_CATEGORY('','');
#1123=PRODUCT_CONTEXT('',#1125,'mechanical');
#1124=APPLICATION_PROTOCOL_DEFINITION('international standard',
'ap242_managed_model_based_3d_engineering',2020,#1125);
#1125=APPLICATION_CONTEXT('managed model based 3d engineering');
ENDSEC;
END-ISO-10303-21;
