ISO-10303-21;
HEADER;
/* Generated by software containing ST-Developer
 * from STEP Tools, Inc. (www.steptools.com) 
 */
/* OPTION: using custom renumber hook */

FILE_DESCRIPTION(
/* description */ (
'CAx-IF Rec.Pracs.---Representation and Presentation of Product Manufa
cturing Information (PMI)---4.0---2014-10-13',
'CAx-IF Rec.Pracs.---3D Tessellated Geometry---0.4---2014-09-14','2;1'),

/* implementation_level */ '2;1');

FILE_NAME(
/* name */ 'E05L',
/* time_stamp */ '2026-04-13T01:14:53+03:00',
/* author */ (''),
/* organization */ (''),
/* preprocessor_version */ 'ST-DEVELOPER v18.102',
/* originating_system */ 'SIEMENS PLM Software NX2206.9140',
/* authorisation */ $);

FILE_SCHEMA (('AP242_MANAGED_MODEL_BASED_3D_ENGINEERING_MIM_LF { 1 0 10303 442 3 1 4 }'));
ENDSEC;

DATA;
#10=SHAPE_REPRESENTATION_RELATIONSHIP('','',#857,#11);
#11=ADVANCED_BREP_SHAPE_REPRESENTATION('',(#853,#854,#855),#1379);
#12=PLANE('',#862);
#13=PLANE('',#866);
#14=PLANE('',#867);
#15=PLANE('',#868);
#16=PLANE('',#869);
#17=PLANE('',#870);
#18=PLANE('',#874);
#19=PLANE('',#878);
#20=PLANE('',#879);
#21=PLANE('',#880);
#22=PLANE('',#881);
#23=PLANE('',#882);
#24=PLANE('',#886);
#25=PLANE('',#887);
#26=PLANE('',#888);
#27=PLANE('',#889);
#28=PLANE('',#905);
#29=PLANE('',#906);
#30=PLANE('',#907);
#31=PLANE('',#908);
#32=PLANE('',#909);
#33=PLANE('',#910);
#34=PLANE('',#911);
#35=PLANE('',#912);
#36=PLANE('',#913);
#37=PLANE('',#914);
#38=PLANE('',#915);
#39=PLANE('',#916);
#40=PLANE('',#917);
#41=PLANE('',#918);
#42=PLANE('',#919);
#43=PLANE('',#920);
#44=PLANE('',#921);
#45=PLANE('',#922);
#46=PLANE('',#923);
#47=LINE('',#1151,#137);
#48=LINE('',#1155,#138);
#49=LINE('',#1157,#139);
#50=LINE('',#1159,#140);
#51=LINE('',#1161,#141);
#52=LINE('',#1167,#142);
#53=LINE('',#1169,#143);
#54=LINE('',#1171,#144);
#55=LINE('',#1173,#145);
#56=LINE('',#1175,#146);
#57=LINE('',#1177,#147);
#58=LINE('',#1179,#148);
#59=LINE('',#1181,#149);
#60=LINE('',#1183,#150);
#61=LINE('',#1185,#151);
#62=LINE('',#1187,#152);
#63=LINE('',#1189,#153);
#64=LINE('',#1191,#154);
#65=LINE('',#1193,#155);
#66=LINE('',#1195,#156);
#67=LINE('',#1197,#157);
#68=LINE('',#1203,#158);
#69=LINE('',#1205,#159);
#70=LINE('',#1207,#160);
#71=LINE('',#1209,#161);
#72=LINE('',#1215,#162);
#73=LINE('',#1217,#163);
#74=LINE('',#1219,#164);
#75=LINE('',#1221,#165);
#76=LINE('',#1223,#166);
#77=LINE('',#1225,#167);
#78=LINE('',#1227,#168);
#79=LINE('',#1229,#169);
#80=LINE('',#1231,#170);
#81=LINE('',#1233,#171);
#82=LINE('',#1235,#172);
#83=LINE('',#1237,#173);
#84=LINE('',#1239,#174);
#85=LINE('',#1241,#175);
#86=LINE('',#1243,#176);
#87=LINE('',#1245,#177);
#88=LINE('',#1251,#178);
#89=LINE('',#1253,#179);
#90=LINE('',#1255,#180);
#91=LINE('',#1257,#181);
#92=LINE('',#1259,#182);
#93=LINE('',#1261,#183);
#94=LINE('',#1263,#184);
#95=LINE('',#1265,#185);
#96=LINE('',#1267,#186);
#97=LINE('',#1269,#187);
#98=LINE('',#1271,#188);
#99=LINE('',#1273,#189);
#100=LINE('',#1275,#190);
#101=LINE('',#1302,#191);
#102=LINE('',#1305,#192);
#103=LINE('',#1307,#193);
#104=LINE('',#1309,#194);
#105=LINE('',#1311,#195);
#106=LINE('',#1313,#196);
#107=LINE('',#1315,#197);
#108=LINE('',#1317,#198);
#109=LINE('',#1319,#199);
#110=LINE('',#1321,#200);
#111=LINE('',#1323,#201);
#112=LINE('',#1324,#202);
#113=LINE('',#1326,#203);
#114=LINE('',#1329,#204);
#115=LINE('',#1331,#205);
#116=LINE('',#1333,#206);
#117=LINE('',#1336,#207);
#118=LINE('',#1339,#208);
#119=LINE('',#1340,#209);
#120=LINE('',#1342,#210);
#121=LINE('',#1344,#211);
#122=LINE('',#1346,#212);
#123=LINE('',#1348,#213);
#124=LINE('',#1350,#214);
#125=LINE('',#1353,#215);
#126=LINE('',#1356,#216);
#127=LINE('',#1358,#217);
#128=LINE('',#1360,#218);
#129=LINE('',#1362,#219);
#130=LINE('',#1364,#220);
#131=LINE('',#1366,#221);
#132=LINE('',#1368,#222);
#133=LINE('',#1370,#223);
#134=LINE('',#1372,#224);
#135=LINE('',#1374,#225);
#136=LINE('',#1375,#226);
#137=VECTOR('',#930,1000.);
#138=VECTOR('',#933,1000.);
#139=VECTOR('',#936,1000.);
#140=VECTOR('',#937,1000.);
#141=VECTOR('',#938,1000.);
#142=VECTOR('',#945,1000.);
#143=VECTOR('',#948,1000.);
#144=VECTOR('',#949,1000.);
#145=VECTOR('',#950,1000.);
#146=VECTOR('',#953,1000.);
#147=VECTOR('',#954,1000.);
#148=VECTOR('',#955,1000.);
#149=VECTOR('',#958,1000.);
#150=VECTOR('',#959,1000.);
#151=VECTOR('',#960,1000.);
#152=VECTOR('',#963,1000.);
#153=VECTOR('',#964,1000.);
#154=VECTOR('',#965,1000.);
#155=VECTOR('',#968,1000.);
#156=VECTOR('',#969,1000.);
#157=VECTOR('',#970,1000.);
#158=VECTOR('',#977,1000.);
#159=VECTOR('',#980,1000.);
#160=VECTOR('',#981,1000.);
#161=VECTOR('',#982,1000.);
#162=VECTOR('',#989,1000.);
#163=VECTOR('',#992,1000.);
#164=VECTOR('',#993,1000.);
#165=VECTOR('',#994,1000.);
#166=VECTOR('',#997,1000.);
#167=VECTOR('',#998,1000.);
#168=VECTOR('',#999,1000.);
#169=VECTOR('',#1002,1000.);
#170=VECTOR('',#1003,1000.);
#171=VECTOR('',#1004,1000.);
#172=VECTOR('',#1007,1000.);
#173=VECTOR('',#1008,1000.);
#174=VECTOR('',#1009,1000.);
#175=VECTOR('',#1012,1000.);
#176=VECTOR('',#1013,1000.);
#177=VECTOR('',#1014,1000.);
#178=VECTOR('',#1021,1000.);
#179=VECTOR('',#1024,1000.);
#180=VECTOR('',#1025,1000.);
#181=VECTOR('',#1026,1000.);
#182=VECTOR('',#1029,1000.);
#183=VECTOR('',#1030,1000.);
#184=VECTOR('',#1031,1000.);
#185=VECTOR('',#1034,1000.);
#186=VECTOR('',#1035,1000.);
#187=VECTOR('',#1036,1000.);
#188=VECTOR('',#1039,1000.);
#189=VECTOR('',#1040,1000.);
#190=VECTOR('',#1041,1000.);
#191=VECTOR('',#1078,1000.);
#192=VECTOR('',#1079,1000.);
#193=VECTOR('',#1080,1000.);
#194=VECTOR('',#1081,1000.);
#195=VECTOR('',#1084,1000.);
#196=VECTOR('',#1085,1000.);
#197=VECTOR('',#1086,1000.);
#198=VECTOR('',#1089,1000.);
#199=VECTOR('',#1090,1000.);
#200=VECTOR('',#1091,1000.);
#201=VECTOR('',#1094,1000.);
#202=VECTOR('',#1095,1000.);
#203=VECTOR('',#1098,1000.);
#204=VECTOR('',#1099,1000.);
#205=VECTOR('',#1100,1000.);
#206=VECTOR('',#1101,1000.);
#207=VECTOR('',#1106,1000.);
#208=VECTOR('',#1107,1000.);
#209=VECTOR('',#1108,1000.);
#210=VECTOR('',#1111,1000.);
#211=VECTOR('',#1112,1000.);
#212=VECTOR('',#1115,1000.);
#213=VECTOR('',#1116,1000.);
#214=VECTOR('',#1119,1000.);
#215=VECTOR('',#1124,1000.);
#216=VECTOR('',#1125,1000.);
#217=VECTOR('',#1126,1000.);
#218=VECTOR('',#1127,1000.);
#219=VECTOR('',#1130,1000.);
#220=VECTOR('',#1131,1000.);
#221=VECTOR('',#1132,1000.);
#222=VECTOR('',#1135,1000.);
#223=VECTOR('',#1136,1000.);
#224=VECTOR('',#1137,1000.);
#225=VECTOR('',#1140,1000.);
#226=VECTOR('',#1141,1000.);
#227=ORIENTED_EDGE('',*,*,#447,.T.);
#228=ORIENTED_EDGE('',*,*,#448,.T.);
#229=ORIENTED_EDGE('',*,*,#449,.F.);
#230=ORIENTED_EDGE('',*,*,#450,.F.);
#231=ORIENTED_EDGE('',*,*,#451,.T.);
#232=ORIENTED_EDGE('',*,*,#450,.T.);
#233=ORIENTED_EDGE('',*,*,#452,.F.);
#234=ORIENTED_EDGE('',*,*,#453,.F.);
#235=ORIENTED_EDGE('',*,*,#454,.T.);
#236=ORIENTED_EDGE('',*,*,#453,.T.);
#237=ORIENTED_EDGE('',*,*,#455,.F.);
#238=ORIENTED_EDGE('',*,*,#456,.F.);
#239=ORIENTED_EDGE('',*,*,#457,.T.);
#240=ORIENTED_EDGE('',*,*,#456,.T.);
#241=ORIENTED_EDGE('',*,*,#458,.F.);
#242=ORIENTED_EDGE('',*,*,#459,.F.);
#243=ORIENTED_EDGE('',*,*,#460,.T.);
#244=ORIENTED_EDGE('',*,*,#459,.T.);
#245=ORIENTED_EDGE('',*,*,#461,.F.);
#246=ORIENTED_EDGE('',*,*,#462,.F.);
#247=ORIENTED_EDGE('',*,*,#463,.T.);
#248=ORIENTED_EDGE('',*,*,#462,.T.);
#249=ORIENTED_EDGE('',*,*,#464,.F.);
#250=ORIENTED_EDGE('',*,*,#465,.F.);
#251=ORIENTED_EDGE('',*,*,#466,.T.);
#252=ORIENTED_EDGE('',*,*,#465,.T.);
#253=ORIENTED_EDGE('',*,*,#467,.F.);
#254=ORIENTED_EDGE('',*,*,#468,.F.);
#255=ORIENTED_EDGE('',*,*,#469,.T.);
#256=ORIENTED_EDGE('',*,*,#468,.T.);
#257=ORIENTED_EDGE('',*,*,#470,.F.);
#258=ORIENTED_EDGE('',*,*,#471,.F.);
#259=ORIENTED_EDGE('',*,*,#472,.T.);
#260=ORIENTED_EDGE('',*,*,#471,.T.);
#261=ORIENTED_EDGE('',*,*,#473,.F.);
#262=ORIENTED_EDGE('',*,*,#474,.F.);
#263=ORIENTED_EDGE('',*,*,#475,.T.);
#264=ORIENTED_EDGE('',*,*,#474,.T.);
#265=ORIENTED_EDGE('',*,*,#476,.F.);
#266=ORIENTED_EDGE('',*,*,#477,.F.);
#267=ORIENTED_EDGE('',*,*,#478,.T.);
#268=ORIENTED_EDGE('',*,*,#477,.T.);
#269=ORIENTED_EDGE('',*,*,#479,.F.);
#270=ORIENTED_EDGE('',*,*,#480,.F.);
#271=ORIENTED_EDGE('',*,*,#481,.T.);
#272=ORIENTED_EDGE('',*,*,#480,.T.);
#273=ORIENTED_EDGE('',*,*,#482,.F.);
#274=ORIENTED_EDGE('',*,*,#483,.F.);
#275=ORIENTED_EDGE('',*,*,#484,.T.);
#276=ORIENTED_EDGE('',*,*,#483,.T.);
#277=ORIENTED_EDGE('',*,*,#485,.F.);
#278=ORIENTED_EDGE('',*,*,#486,.F.);
#279=ORIENTED_EDGE('',*,*,#487,.T.);
#280=ORIENTED_EDGE('',*,*,#486,.T.);
#281=ORIENTED_EDGE('',*,*,#488,.F.);
#282=ORIENTED_EDGE('',*,*,#489,.F.);
#283=ORIENTED_EDGE('',*,*,#490,.T.);
#284=ORIENTED_EDGE('',*,*,#489,.T.);
#285=ORIENTED_EDGE('',*,*,#491,.F.);
#286=ORIENTED_EDGE('',*,*,#492,.F.);
#287=ORIENTED_EDGE('',*,*,#493,.T.);
#288=ORIENTED_EDGE('',*,*,#492,.T.);
#289=ORIENTED_EDGE('',*,*,#494,.F.);
#290=ORIENTED_EDGE('',*,*,#495,.F.);
#291=ORIENTED_EDGE('',*,*,#496,.T.);
#292=ORIENTED_EDGE('',*,*,#495,.T.);
#293=ORIENTED_EDGE('',*,*,#497,.F.);
#294=ORIENTED_EDGE('',*,*,#498,.F.);
#295=ORIENTED_EDGE('',*,*,#499,.T.);
#296=ORIENTED_EDGE('',*,*,#498,.T.);
#297=ORIENTED_EDGE('',*,*,#500,.F.);
#298=ORIENTED_EDGE('',*,*,#501,.F.);
#299=ORIENTED_EDGE('',*,*,#502,.T.);
#300=ORIENTED_EDGE('',*,*,#501,.T.);
#301=ORIENTED_EDGE('',*,*,#503,.F.);
#302=ORIENTED_EDGE('',*,*,#504,.F.);
#303=ORIENTED_EDGE('',*,*,#505,.T.);
#304=ORIENTED_EDGE('',*,*,#504,.T.);
#305=ORIENTED_EDGE('',*,*,#506,.F.);
#306=ORIENTED_EDGE('',*,*,#507,.F.);
#307=ORIENTED_EDGE('',*,*,#508,.T.);
#308=ORIENTED_EDGE('',*,*,#507,.T.);
#309=ORIENTED_EDGE('',*,*,#509,.F.);
#310=ORIENTED_EDGE('',*,*,#510,.F.);
#311=ORIENTED_EDGE('',*,*,#511,.T.);
#312=ORIENTED_EDGE('',*,*,#512,.F.);
#313=ORIENTED_EDGE('',*,*,#513,.T.);
#314=ORIENTED_EDGE('',*,*,#514,.F.);
#315=ORIENTED_EDGE('',*,*,#515,.T.);
#316=ORIENTED_EDGE('',*,*,#516,.F.);
#317=ORIENTED_EDGE('',*,*,#517,.T.);
#318=ORIENTED_EDGE('',*,*,#510,.T.);
#319=ORIENTED_EDGE('',*,*,#518,.F.);
#320=ORIENTED_EDGE('',*,*,#448,.F.);
#321=ORIENTED_EDGE('',*,*,#519,.T.);
#322=ORIENTED_EDGE('',*,*,#520,.F.);
#323=ORIENTED_EDGE('',*,*,#449,.T.);
#324=ORIENTED_EDGE('',*,*,#518,.T.);
#325=ORIENTED_EDGE('',*,*,#509,.T.);
#326=ORIENTED_EDGE('',*,*,#506,.T.);
#327=ORIENTED_EDGE('',*,*,#503,.T.);
#328=ORIENTED_EDGE('',*,*,#500,.T.);
#329=ORIENTED_EDGE('',*,*,#497,.T.);
#330=ORIENTED_EDGE('',*,*,#494,.T.);
#331=ORIENTED_EDGE('',*,*,#491,.T.);
#332=ORIENTED_EDGE('',*,*,#488,.T.);
#333=ORIENTED_EDGE('',*,*,#485,.T.);
#334=ORIENTED_EDGE('',*,*,#482,.T.);
#335=ORIENTED_EDGE('',*,*,#479,.T.);
#336=ORIENTED_EDGE('',*,*,#476,.T.);
#337=ORIENTED_EDGE('',*,*,#473,.T.);
#338=ORIENTED_EDGE('',*,*,#470,.T.);
#339=ORIENTED_EDGE('',*,*,#467,.T.);
#340=ORIENTED_EDGE('',*,*,#464,.T.);
#341=ORIENTED_EDGE('',*,*,#461,.T.);
#342=ORIENTED_EDGE('',*,*,#458,.T.);
#343=ORIENTED_EDGE('',*,*,#455,.T.);
#344=ORIENTED_EDGE('',*,*,#452,.T.);
#345=ORIENTED_EDGE('',*,*,#515,.F.);
#346=ORIENTED_EDGE('',*,*,#513,.F.);
#347=ORIENTED_EDGE('',*,*,#511,.F.);
#348=ORIENTED_EDGE('',*,*,#519,.F.);
#349=ORIENTED_EDGE('',*,*,#447,.F.);
#350=ORIENTED_EDGE('',*,*,#451,.F.);
#351=ORIENTED_EDGE('',*,*,#454,.F.);
#352=ORIENTED_EDGE('',*,*,#457,.F.);
#353=ORIENTED_EDGE('',*,*,#460,.F.);
#354=ORIENTED_EDGE('',*,*,#463,.F.);
#355=ORIENTED_EDGE('',*,*,#466,.F.);
#356=ORIENTED_EDGE('',*,*,#469,.F.);
#357=ORIENTED_EDGE('',*,*,#472,.F.);
#358=ORIENTED_EDGE('',*,*,#475,.F.);
#359=ORIENTED_EDGE('',*,*,#478,.F.);
#360=ORIENTED_EDGE('',*,*,#481,.F.);
#361=ORIENTED_EDGE('',*,*,#484,.F.);
#362=ORIENTED_EDGE('',*,*,#487,.F.);
#363=ORIENTED_EDGE('',*,*,#490,.F.);
#364=ORIENTED_EDGE('',*,*,#493,.F.);
#365=ORIENTED_EDGE('',*,*,#496,.F.);
#366=ORIENTED_EDGE('',*,*,#499,.F.);
#367=ORIENTED_EDGE('',*,*,#502,.F.);
#368=ORIENTED_EDGE('',*,*,#505,.F.);
#369=ORIENTED_EDGE('',*,*,#508,.F.);
#370=ORIENTED_EDGE('',*,*,#517,.F.);
#371=ORIENTED_EDGE('',*,*,#516,.T.);
#372=ORIENTED_EDGE('',*,*,#514,.T.);
#373=ORIENTED_EDGE('',*,*,#512,.T.);
#374=ORIENTED_EDGE('',*,*,#520,.T.);
#375=ORIENTED_EDGE('',*,*,#521,.T.);
#376=ORIENTED_EDGE('',*,*,#522,.T.);
#377=ORIENTED_EDGE('',*,*,#523,.F.);
#378=ORIENTED_EDGE('',*,*,#524,.F.);
#379=ORIENTED_EDGE('',*,*,#525,.T.);
#380=ORIENTED_EDGE('',*,*,#524,.T.);
#381=ORIENTED_EDGE('',*,*,#526,.F.);
#382=ORIENTED_EDGE('',*,*,#527,.F.);
#383=ORIENTED_EDGE('',*,*,#528,.T.);
#384=ORIENTED_EDGE('',*,*,#527,.T.);
#385=ORIENTED_EDGE('',*,*,#529,.F.);
#386=ORIENTED_EDGE('',*,*,#530,.F.);
#387=ORIENTED_EDGE('',*,*,#531,.T.);
#388=ORIENTED_EDGE('',*,*,#530,.T.);
#389=ORIENTED_EDGE('',*,*,#532,.F.);
#390=ORIENTED_EDGE('',*,*,#522,.F.);
#391=ORIENTED_EDGE('',*,*,#533,.F.);
#392=ORIENTED_EDGE('',*,*,#534,.F.);
#393=ORIENTED_EDGE('',*,*,#535,.F.);
#394=ORIENTED_EDGE('',*,*,#536,.F.);
#395=ORIENTED_EDGE('',*,*,#523,.T.);
#396=ORIENTED_EDGE('',*,*,#532,.T.);
#397=ORIENTED_EDGE('',*,*,#529,.T.);
#398=ORIENTED_EDGE('',*,*,#526,.T.);
#399=ORIENTED_EDGE('',*,*,#521,.F.);
#400=ORIENTED_EDGE('',*,*,#525,.F.);
#401=ORIENTED_EDGE('',*,*,#528,.F.);
#402=ORIENTED_EDGE('',*,*,#531,.F.);
#403=ORIENTED_EDGE('',*,*,#537,.F.);
#404=ORIENTED_EDGE('',*,*,#538,.T.);
#405=ORIENTED_EDGE('',*,*,#533,.T.);
#406=ORIENTED_EDGE('',*,*,#539,.F.);
#407=ORIENTED_EDGE('',*,*,#540,.F.);
#408=ORIENTED_EDGE('',*,*,#541,.T.);
#409=ORIENTED_EDGE('',*,*,#534,.T.);
#410=ORIENTED_EDGE('',*,*,#538,.F.);
#411=ORIENTED_EDGE('',*,*,#542,.F.);
#412=ORIENTED_EDGE('',*,*,#543,.T.);
#413=ORIENTED_EDGE('',*,*,#535,.T.);
#414=ORIENTED_EDGE('',*,*,#541,.F.);
#415=ORIENTED_EDGE('',*,*,#544,.F.);
#416=ORIENTED_EDGE('',*,*,#539,.T.);
#417=ORIENTED_EDGE('',*,*,#536,.T.);
#418=ORIENTED_EDGE('',*,*,#543,.F.);
#419=ORIENTED_EDGE('',*,*,#537,.T.);
#420=ORIENTED_EDGE('',*,*,#544,.T.);
#421=ORIENTED_EDGE('',*,*,#542,.T.);
#422=ORIENTED_EDGE('',*,*,#540,.T.);
#423=ORIENTED_EDGE('',*,*,#545,.T.);
#424=ORIENTED_EDGE('',*,*,#546,.T.);
#425=ORIENTED_EDGE('',*,*,#547,.F.);
#426=ORIENTED_EDGE('',*,*,#548,.F.);
#427=ORIENTED_EDGE('',*,*,#549,.T.);
#428=ORIENTED_EDGE('',*,*,#548,.T.);
#429=ORIENTED_EDGE('',*,*,#550,.F.);
#430=ORIENTED_EDGE('',*,*,#551,.F.);
#431=ORIENTED_EDGE('',*,*,#552,.T.);
#432=ORIENTED_EDGE('',*,*,#551,.T.);
#433=ORIENTED_EDGE('',*,*,#553,.F.);
#434=ORIENTED_EDGE('',*,*,#554,.F.);
#435=ORIENTED_EDGE('',*,*,#555,.T.);
#436=ORIENTED_EDGE('',*,*,#554,.T.);
#437=ORIENTED_EDGE('',*,*,#556,.F.);
#438=ORIENTED_EDGE('',*,*,#546,.F.);
#439=ORIENTED_EDGE('',*,*,#547,.T.);
#440=ORIENTED_EDGE('',*,*,#556,.T.);
#441=ORIENTED_EDGE('',*,*,#553,.T.);
#442=ORIENTED_EDGE('',*,*,#550,.T.);
#443=ORIENTED_EDGE('',*,*,#545,.F.);
#444=ORIENTED_EDGE('',*,*,#549,.F.);
#445=ORIENTED_EDGE('',*,*,#552,.F.);
#446=ORIENTED_EDGE('',*,*,#555,.F.);
#447=EDGE_CURVE('',#557,#558,#633,.F.);
#448=EDGE_CURVE('',#558,#559,#47,.F.);
#449=EDGE_CURVE('',#560,#559,#634,.F.);
#450=EDGE_CURVE('',#557,#560,#48,.F.);
#451=EDGE_CURVE('',#561,#557,#49,.F.);
#452=EDGE_CURVE('',#562,#560,#50,.F.);
#453=EDGE_CURVE('',#561,#562,#51,.F.);
#454=EDGE_CURVE('',#563,#561,#635,.F.);
#455=EDGE_CURVE('',#564,#562,#636,.F.);
#456=EDGE_CURVE('',#563,#564,#52,.F.);
#457=EDGE_CURVE('',#565,#563,#53,.F.);
#458=EDGE_CURVE('',#566,#564,#54,.F.);
#459=EDGE_CURVE('',#565,#566,#55,.F.);
#460=EDGE_CURVE('',#567,#565,#56,.F.);
#461=EDGE_CURVE('',#568,#566,#57,.F.);
#462=EDGE_CURVE('',#567,#568,#58,.F.);
#463=EDGE_CURVE('',#569,#567,#59,.F.);
#464=EDGE_CURVE('',#570,#568,#60,.F.);
#465=EDGE_CURVE('',#569,#570,#61,.F.);
#466=EDGE_CURVE('',#571,#569,#62,.F.);
#467=EDGE_CURVE('',#572,#570,#63,.F.);
#468=EDGE_CURVE('',#571,#572,#64,.F.);
#469=EDGE_CURVE('',#573,#571,#65,.F.);
#470=EDGE_CURVE('',#574,#572,#66,.F.);
#471=EDGE_CURVE('',#573,#574,#67,.F.);
#472=EDGE_CURVE('',#575,#573,#637,.F.);
#473=EDGE_CURVE('',#576,#574,#638,.F.);
#474=EDGE_CURVE('',#575,#576,#68,.F.);
#475=EDGE_CURVE('',#577,#575,#69,.F.);
#476=EDGE_CURVE('',#578,#576,#70,.F.);
#477=EDGE_CURVE('',#577,#578,#71,.F.);
#478=EDGE_CURVE('',#579,#577,#639,.F.);
#479=EDGE_CURVE('',#580,#578,#640,.F.);
#480=EDGE_CURVE('',#579,#580,#72,.F.);
#481=EDGE_CURVE('',#581,#579,#73,.F.);
#482=EDGE_CURVE('',#582,#580,#74,.F.);
#483=EDGE_CURVE('',#581,#582,#75,.F.);
#484=EDGE_CURVE('',#583,#581,#76,.F.);
#485=EDGE_CURVE('',#584,#582,#77,.F.);
#486=EDGE_CURVE('',#583,#584,#78,.F.);
#487=EDGE_CURVE('',#585,#583,#79,.F.);
#488=EDGE_CURVE('',#586,#584,#80,.F.);
#489=EDGE_CURVE('',#585,#586,#81,.F.);
#490=EDGE_CURVE('',#587,#585,#82,.F.);
#491=EDGE_CURVE('',#588,#586,#83,.F.);
#492=EDGE_CURVE('',#587,#588,#84,.F.);
#493=EDGE_CURVE('',#589,#587,#85,.F.);
#494=EDGE_CURVE('',#590,#588,#86,.F.);
#495=EDGE_CURVE('',#589,#590,#87,.F.);
#496=EDGE_CURVE('',#591,#589,#641,.F.);
#497=EDGE_CURVE('',#592,#590,#642,.F.);
#498=EDGE_CURVE('',#591,#592,#88,.F.);
#499=EDGE_CURVE('',#593,#591,#89,.F.);
#500=EDGE_CURVE('',#594,#592,#90,.F.);
#501=EDGE_CURVE('',#593,#594,#91,.F.);
#502=EDGE_CURVE('',#595,#593,#92,.F.);
#503=EDGE_CURVE('',#596,#594,#93,.F.);
#504=EDGE_CURVE('',#595,#596,#94,.F.);
#505=EDGE_CURVE('',#597,#595,#95,.F.);
#506=EDGE_CURVE('',#598,#596,#96,.F.);
#507=EDGE_CURVE('',#597,#598,#97,.F.);
#508=EDGE_CURVE('',#599,#597,#98,.F.);
#509=EDGE_CURVE('',#600,#598,#99,.F.);
#510=EDGE_CURVE('',#599,#600,#100,.F.);
#511=EDGE_CURVE('',#601,#601,#643,.F.);
#512=EDGE_CURVE('',#602,#602,#644,.F.);
#513=EDGE_CURVE('',#603,#603,#645,.F.);
#514=EDGE_CURVE('',#604,#604,#646,.F.);
#515=EDGE_CURVE('',#605,#605,#647,.F.);
#516=EDGE_CURVE('',#606,#606,#648,.F.);
#517=EDGE_CURVE('',#558,#599,#649,.F.);
#518=EDGE_CURVE('',#559,#600,#650,.F.);
#519=EDGE_CURVE('',#607,#607,#651,.F.);
#520=EDGE_CURVE('',#608,#608,#652,.F.);
#521=EDGE_CURVE('',#609,#610,#101,.F.);
#522=EDGE_CURVE('',#610,#611,#102,.F.);
#523=EDGE_CURVE('',#612,#611,#103,.F.);
#524=EDGE_CURVE('',#609,#612,#104,.F.);
#525=EDGE_CURVE('',#613,#609,#105,.F.);
#526=EDGE_CURVE('',#614,#612,#106,.F.);
#527=EDGE_CURVE('',#613,#614,#107,.F.);
#528=EDGE_CURVE('',#615,#613,#108,.F.);
#529=EDGE_CURVE('',#616,#614,#109,.F.);
#530=EDGE_CURVE('',#615,#616,#110,.F.);
#531=EDGE_CURVE('',#610,#615,#111,.F.);
#532=EDGE_CURVE('',#611,#616,#112,.F.);
#533=EDGE_CURVE('',#617,#618,#113,.F.);
#534=EDGE_CURVE('',#619,#617,#114,.F.);
#535=EDGE_CURVE('',#620,#619,#115,.F.);
#536=EDGE_CURVE('',#618,#620,#116,.F.);
#537=EDGE_CURVE('',#621,#622,#117,.F.);
#538=EDGE_CURVE('',#621,#617,#118,.F.);
#539=EDGE_CURVE('',#622,#618,#119,.F.);
#540=EDGE_CURVE('',#623,#621,#120,.F.);
#541=EDGE_CURVE('',#623,#619,#121,.F.);
#542=EDGE_CURVE('',#624,#623,#122,.F.);
#543=EDGE_CURVE('',#624,#620,#123,.F.);
#544=EDGE_CURVE('',#622,#624,#124,.F.);
#545=EDGE_CURVE('',#625,#626,#125,.F.);
#546=EDGE_CURVE('',#626,#627,#126,.F.);
#547=EDGE_CURVE('',#628,#627,#127,.F.);
#548=EDGE_CURVE('',#625,#628,#128,.F.);
#549=EDGE_CURVE('',#629,#625,#129,.F.);
#550=EDGE_CURVE('',#630,#628,#130,.F.);
#551=EDGE_CURVE('',#629,#630,#131,.F.);
#552=EDGE_CURVE('',#631,#629,#132,.F.);
#553=EDGE_CURVE('',#632,#630,#133,.F.);
#554=EDGE_CURVE('',#631,#632,#134,.F.);
#555=EDGE_CURVE('',#626,#631,#135,.F.);
#556=EDGE_CURVE('',#627,#632,#136,.F.);
#557=VERTEX_POINT('',#1149);
#558=VERTEX_POINT('',#1150);
#559=VERTEX_POINT('',#1152);
#560=VERTEX_POINT('',#1154);
#561=VERTEX_POINT('',#1158);
#562=VERTEX_POINT('',#1160);
#563=VERTEX_POINT('',#1164);
#564=VERTEX_POINT('',#1166);
#565=VERTEX_POINT('',#1170);
#566=VERTEX_POINT('',#1172);
#567=VERTEX_POINT('',#1176);
#568=VERTEX_POINT('',#1178);
#569=VERTEX_POINT('',#1182);
#570=VERTEX_POINT('',#1184);
#571=VERTEX_POINT('',#1188);
#572=VERTEX_POINT('',#1190);
#573=VERTEX_POINT('',#1194);
#574=VERTEX_POINT('',#1196);
#575=VERTEX_POINT('',#1200);
#576=VERTEX_POINT('',#1202);
#577=VERTEX_POINT('',#1206);
#578=VERTEX_POINT('',#1208);
#579=VERTEX_POINT('',#1212);
#580=VERTEX_POINT('',#1214);
#581=VERTEX_POINT('',#1218);
#582=VERTEX_POINT('',#1220);
#583=VERTEX_POINT('',#1224);
#584=VERTEX_POINT('',#1226);
#585=VERTEX_POINT('',#1230);
#586=VERTEX_POINT('',#1232);
#587=VERTEX_POINT('',#1236);
#588=VERTEX_POINT('',#1238);
#589=VERTEX_POINT('',#1242);
#590=VERTEX_POINT('',#1244);
#591=VERTEX_POINT('',#1248);
#592=VERTEX_POINT('',#1250);
#593=VERTEX_POINT('',#1254);
#594=VERTEX_POINT('',#1256);
#595=VERTEX_POINT('',#1260);
#596=VERTEX_POINT('',#1262);
#597=VERTEX_POINT('',#1266);
#598=VERTEX_POINT('',#1268);
#599=VERTEX_POINT('',#1272);
#600=VERTEX_POINT('',#1274);
#601=VERTEX_POINT('',#1278);
#602=VERTEX_POINT('',#1280);
#603=VERTEX_POINT('',#1283);
#604=VERTEX_POINT('',#1285);
#605=VERTEX_POINT('',#1288);
#606=VERTEX_POINT('',#1290);
#607=VERTEX_POINT('',#1296);
#608=VERTEX_POINT('',#1298);
#609=VERTEX_POINT('',#1303);
#610=VERTEX_POINT('',#1304);
#611=VERTEX_POINT('',#1306);
#612=VERTEX_POINT('',#1308);
#613=VERTEX_POINT('',#1312);
#614=VERTEX_POINT('',#1314);
#615=VERTEX_POINT('',#1318);
#616=VERTEX_POINT('',#1320);
#617=VERTEX_POINT('',#1327);
#618=VERTEX_POINT('',#1328);
#619=VERTEX_POINT('',#1330);
#620=VERTEX_POINT('',#1332);
#621=VERTEX_POINT('',#1337);
#622=VERTEX_POINT('',#1338);
#623=VERTEX_POINT('',#1343);
#624=VERTEX_POINT('',#1347);
#625=VERTEX_POINT('',#1354);
#626=VERTEX_POINT('',#1355);
#627=VERTEX_POINT('',#1357);
#628=VERTEX_POINT('',#1359);
#629=VERTEX_POINT('',#1363);
#630=VERTEX_POINT('',#1365);
#631=VERTEX_POINT('',#1369);
#632=VERTEX_POINT('',#1371);
#633=CIRCLE('',#860,0.657115076155959);
#634=CIRCLE('',#861,0.657115076155959);
#635=CIRCLE('',#864,20.8694152479155);
#636=CIRCLE('',#865,20.8694152479155);
#637=CIRCLE('',#872,6.3);
#638=CIRCLE('',#873,6.3);
#639=CIRCLE('',#876,2.65);
#640=CIRCLE('',#877,2.65);
#641=CIRCLE('',#884,3.2);
#642=CIRCLE('',#885,3.2);
#643=CIRCLE('',#891,2.05);
#644=CIRCLE('',#892,2.05);
#645=CIRCLE('',#894,1.325);
#646=CIRCLE('',#895,1.325);
#647=CIRCLE('',#897,1.);
#648=CIRCLE('',#898,1.);
#649=CIRCLE('',#900,3.88854804052463);
#650=CIRCLE('',#901,3.88854804052463);
#651=CIRCLE('',#903,1.);
#652=CIRCLE('',#904,1.);
#653=EDGE_LOOP('',(#227,#228,#229,#230));
#654=EDGE_LOOP('',(#231,#232,#233,#234));
#655=EDGE_LOOP('',(#235,#236,#237,#238));
#656=EDGE_LOOP('',(#239,#240,#241,#242));
#657=EDGE_LOOP('',(#243,#244,#245,#246));
#658=EDGE_LOOP('',(#247,#248,#249,#250));
#659=EDGE_LOOP('',(#251,#252,#253,#254));
#660=EDGE_LOOP('',(#255,#256,#257,#258));
#661=EDGE_LOOP('',(#259,#260,#261,#262));
#662=EDGE_LOOP('',(#263,#264,#265,#266));
#663=EDGE_LOOP('',(#267,#268,#269,#270));
#664=EDGE_LOOP('',(#271,#272,#273,#274));
#665=EDGE_LOOP('',(#275,#276,#277,#278));
#666=EDGE_LOOP('',(#279,#280,#281,#282));
#667=EDGE_LOOP('',(#283,#284,#285,#286));
#668=EDGE_LOOP('',(#287,#288,#289,#290));
#669=EDGE_LOOP('',(#291,#292,#293,#294));
#670=EDGE_LOOP('',(#295,#296,#297,#298));
#671=EDGE_LOOP('',(#299,#300,#301,#302));
#672=EDGE_LOOP('',(#303,#304,#305,#306));
#673=EDGE_LOOP('',(#307,#308,#309,#310));
#674=EDGE_LOOP('',(#311));
#675=EDGE_LOOP('',(#312));
#676=EDGE_LOOP('',(#313));
#677=EDGE_LOOP('',(#314));
#678=EDGE_LOOP('',(#315));
#679=EDGE_LOOP('',(#316));
#680=EDGE_LOOP('',(#317,#318,#319,#320));
#681=EDGE_LOOP('',(#321));
#682=EDGE_LOOP('',(#322));
#683=EDGE_LOOP('',(#323,#324,#325,#326,#327,#328,#329,#330,#331,#332,#333,
#334,#335,#336,#337,#338,#339,#340,#341,#342,#343,#344));
#684=EDGE_LOOP('',(#345));
#685=EDGE_LOOP('',(#346));
#686=EDGE_LOOP('',(#347));
#687=EDGE_LOOP('',(#348));
#688=EDGE_LOOP('',(#349,#350,#351,#352,#353,#354,#355,#356,#357,#358,#359,
#360,#361,#362,#363,#364,#365,#366,#367,#368,#369,#370));
#689=EDGE_LOOP('',(#371));
#690=EDGE_LOOP('',(#372));
#691=EDGE_LOOP('',(#373));
#692=EDGE_LOOP('',(#374));
#693=EDGE_LOOP('',(#375,#376,#377,#378));
#694=EDGE_LOOP('',(#379,#380,#381,#382));
#695=EDGE_LOOP('',(#383,#384,#385,#386));
#696=EDGE_LOOP('',(#387,#388,#389,#390));
#697=EDGE_LOOP('',(#391,#392,#393,#394));
#698=EDGE_LOOP('',(#395,#396,#397,#398));
#699=EDGE_LOOP('',(#399,#400,#401,#402));
#700=EDGE_LOOP('',(#403,#404,#405,#406));
#701=EDGE_LOOP('',(#407,#408,#409,#410));
#702=EDGE_LOOP('',(#411,#412,#413,#414));
#703=EDGE_LOOP('',(#415,#416,#417,#418));
#704=EDGE_LOOP('',(#419,#420,#421,#422));
#705=EDGE_LOOP('',(#423,#424,#425,#426));
#706=EDGE_LOOP('',(#427,#428,#429,#430));
#707=EDGE_LOOP('',(#431,#432,#433,#434));
#708=EDGE_LOOP('',(#435,#436,#437,#438));
#709=EDGE_LOOP('',(#439,#440,#441,#442));
#710=EDGE_LOOP('',(#443,#444,#445,#446));
#711=FACE_BOUND('',#653,.T.);
#712=FACE_BOUND('',#654,.T.);
#713=FACE_BOUND('',#655,.T.);
#714=FACE_BOUND('',#656,.T.);
#715=FACE_BOUND('',#657,.T.);
#716=FACE_BOUND('',#658,.T.);
#717=FACE_BOUND('',#659,.T.);
#718=FACE_BOUND('',#660,.T.);
#719=FACE_BOUND('',#661,.T.);
#720=FACE_BOUND('',#662,.T.);
#721=FACE_BOUND('',#663,.T.);
#722=FACE_BOUND('',#664,.T.);
#723=FACE_BOUND('',#665,.T.);
#724=FACE_BOUND('',#666,.T.);
#725=FACE_BOUND('',#667,.T.);
#726=FACE_BOUND('',#668,.T.);
#727=FACE_BOUND('',#669,.T.);
#728=FACE_BOUND('',#670,.T.);
#729=FACE_BOUND('',#671,.T.);
#730=FACE_BOUND('',#672,.T.);
#731=FACE_BOUND('',#673,.T.);
#732=FACE_BOUND('',#674,.T.);
#733=FACE_BOUND('',#675,.T.);
#734=FACE_BOUND('',#676,.T.);
#735=FACE_BOUND('',#677,.T.);
#736=FACE_BOUND('',#678,.T.);
#737=FACE_BOUND('',#679,.T.);
#738=FACE_BOUND('',#680,.T.);
#739=FACE_BOUND('',#681,.T.);
#740=FACE_BOUND('',#682,.T.);
#741=FACE_BOUND('',#683,.T.);
#742=FACE_BOUND('',#684,.T.);
#743=FACE_BOUND('',#685,.T.);
#744=FACE_BOUND('',#686,.T.);
#745=FACE_BOUND('',#687,.T.);
#746=FACE_BOUND('',#688,.T.);
#747=FACE_BOUND('',#689,.T.);
#748=FACE_BOUND('',#690,.T.);
#749=FACE_BOUND('',#691,.T.);
#750=FACE_BOUND('',#692,.T.);
#751=FACE_BOUND('',#693,.T.);
#752=FACE_BOUND('',#694,.T.);
#753=FACE_BOUND('',#695,.T.);
#754=FACE_BOUND('',#696,.T.);
#755=FACE_BOUND('',#697,.T.);
#756=FACE_BOUND('',#698,.T.);
#757=FACE_BOUND('',#699,.T.);
#758=FACE_BOUND('',#700,.T.);
#759=FACE_BOUND('',#701,.T.);
#760=FACE_BOUND('',#702,.T.);
#761=FACE_BOUND('',#703,.T.);
#762=FACE_BOUND('',#704,.T.);
#763=FACE_BOUND('',#705,.T.);
#764=FACE_BOUND('',#706,.T.);
#765=FACE_BOUND('',#707,.T.);
#766=FACE_BOUND('',#708,.T.);
#767=FACE_BOUND('',#709,.T.);
#768=FACE_BOUND('',#710,.T.);
#769=CYLINDRICAL_SURFACE('',#859,0.657115076155959);
#770=CYLINDRICAL_SURFACE('',#863,20.8694152479155);
#771=CYLINDRICAL_SURFACE('',#871,6.3);
#772=CYLINDRICAL_SURFACE('',#875,2.65);
#773=CYLINDRICAL_SURFACE('',#883,3.2);
#774=CYLINDRICAL_SURFACE('',#890,2.05);
#775=CYLINDRICAL_SURFACE('',#893,1.325);
#776=CYLINDRICAL_SURFACE('',#896,1.);
#777=CYLINDRICAL_SURFACE('',#899,3.88854804052463);
#778=CYLINDRICAL_SURFACE('',#902,1.);
#779=ADVANCED_FACE('',(#711),#769,.T.);
#780=ADVANCED_FACE('',(#712),#12,.F.);
#781=ADVANCED_FACE('',(#713),#770,.T.);
#782=ADVANCED_FACE('',(#714),#13,.F.);
#783=ADVANCED_FACE('',(#715),#14,.F.);
#784=ADVANCED_FACE('',(#716),#15,.F.);
#785=ADVANCED_FACE('',(#717),#16,.F.);
#786=ADVANCED_FACE('',(#718),#17,.F.);
#787=ADVANCED_FACE('',(#719),#771,.F.);
#788=ADVANCED_FACE('',(#720),#18,.F.);
#789=ADVANCED_FACE('',(#721),#772,.T.);
#790=ADVANCED_FACE('',(#722),#19,.F.);
#791=ADVANCED_FACE('',(#723),#20,.F.);
#792=ADVANCED_FACE('',(#724),#21,.F.);
#793=ADVANCED_FACE('',(#725),#22,.F.);
#794=ADVANCED_FACE('',(#726),#23,.F.);
#795=ADVANCED_FACE('',(#727),#773,.T.);
#796=ADVANCED_FACE('',(#728),#24,.F.);
#797=ADVANCED_FACE('',(#729),#25,.F.);
#798=ADVANCED_FACE('',(#730),#26,.F.);
#799=ADVANCED_FACE('',(#731),#27,.F.);
#800=ADVANCED_FACE('',(#732,#733),#774,.F.);
#801=ADVANCED_FACE('',(#734,#735),#775,.F.);
#802=ADVANCED_FACE('',(#736,#737),#776,.F.);
#803=ADVANCED_FACE('',(#738),#777,.F.);
#804=ADVANCED_FACE('',(#739,#740),#778,.F.);
#805=ADVANCED_FACE('',(#741,#742,#743,#744,#745),#28,.T.);
#806=ADVANCED_FACE('',(#746,#747,#748,#749,#750),#29,.F.);
#807=ADVANCED_FACE('',(#751),#30,.F.);
#808=ADVANCED_FACE('',(#752),#31,.F.);
#809=ADVANCED_FACE('',(#753),#32,.F.);
#810=ADVANCED_FACE('',(#754),#33,.F.);
#811=ADVANCED_FACE('',(#755,#756),#34,.T.);
#812=ADVANCED_FACE('',(#757),#35,.F.);
#813=ADVANCED_FACE('',(#758),#36,.T.);
#814=ADVANCED_FACE('',(#759),#37,.T.);
#815=ADVANCED_FACE('',(#760),#38,.T.);
#816=ADVANCED_FACE('',(#761),#39,.T.);
#817=ADVANCED_FACE('',(#762),#40,.T.);
#818=ADVANCED_FACE('',(#763),#41,.F.);
#819=ADVANCED_FACE('',(#764),#42,.F.);
#820=ADVANCED_FACE('',(#765),#43,.F.);
#821=ADVANCED_FACE('',(#766),#44,.F.);
#822=ADVANCED_FACE('',(#767),#45,.T.);
#823=ADVANCED_FACE('',(#768),#46,.F.);
#824=CLOSED_SHELL('',(#779,#780,#781,#782,#783,#784,#785,#786,#787,#788,
#789,#790,#791,#792,#793,#794,#795,#796,#797,#798,#799,#800,#801,#802,#803,
#804,#805,#806));
#825=CLOSED_SHELL('',(#807,#808,#809,#810,#811,#812,#813,#814,#815,#816,
#817));
#826=CLOSED_SHELL('',(#818,#819,#820,#821,#822,#823));
#827=STYLED_ITEM('',(#830),#853);
#828=STYLED_ITEM('',(#831),#854);
#829=STYLED_ITEM('',(#832),#855);
#830=PRESENTATION_STYLE_ASSIGNMENT((#833));
#831=PRESENTATION_STYLE_ASSIGNMENT((#834));
#832=PRESENTATION_STYLE_ASSIGNMENT((#835));
#833=SURFACE_STYLE_USAGE(.BOTH.,#836);
#834=SURFACE_STYLE_USAGE(.BOTH.,#837);
#835=SURFACE_STYLE_USAGE(.BOTH.,#838);
#836=SURFACE_SIDE_STYLE('',(#841,#839));
#837=SURFACE_SIDE_STYLE('',(#842));
#838=SURFACE_SIDE_STYLE('',(#843));
#839=SURFACE_STYLE_RENDERING_WITH_PROPERTIES(.CONSTANT_SHADING.,#850,(#840));
#840=SURFACE_STYLE_TRANSPARENT(0.4);
#841=SURFACE_STYLE_FILL_AREA(#844);
#842=SURFACE_STYLE_FILL_AREA(#845);
#843=SURFACE_STYLE_FILL_AREA(#846);
#844=FILL_AREA_STYLE('',(#847));
#845=FILL_AREA_STYLE('',(#848));
#846=FILL_AREA_STYLE('',(#849));
#847=FILL_AREA_STYLE_COLOUR('',#850);
#848=FILL_AREA_STYLE_COLOUR('',#851);
#849=FILL_AREA_STYLE_COLOUR('',#852);
#850=COLOUR_RGB('',0.,0.674509803921569,0.396078431372549);
#851=COLOUR_RGB('',0.8,0.8,0.8);
#852=COLOUR_RGB('',0.298039215686275,0.298039215686275,0.298039215686275);
#853=MANIFOLD_SOLID_BREP('Body (7)',#824);
#854=MANIFOLD_SOLID_BREP('Body (5)',#825);
#855=MANIFOLD_SOLID_BREP('Body (3)',#826);
#856=SHAPE_DEFINITION_REPRESENTATION(#1384,#857);
#857=SHAPE_REPRESENTATION('E05L',(#858),#1379);
#858=AXIS2_PLACEMENT_3D('',#1146,#924,#925);
#859=AXIS2_PLACEMENT_3D('',#1147,#926,#927);
#860=AXIS2_PLACEMENT_3D('',#1148,#928,#929);
#861=AXIS2_PLACEMENT_3D('',#1153,#931,#932);
#862=AXIS2_PLACEMENT_3D('',#1156,#934,#935);
#863=AXIS2_PLACEMENT_3D('',#1162,#939,#940);
#864=AXIS2_PLACEMENT_3D('',#1163,#941,#942);
#865=AXIS2_PLACEMENT_3D('',#1165,#943,#944);
#866=AXIS2_PLACEMENT_3D('',#1168,#946,#947);
#867=AXIS2_PLACEMENT_3D('',#1174,#951,#952);
#868=AXIS2_PLACEMENT_3D('',#1180,#956,#957);
#869=AXIS2_PLACEMENT_3D('',#1186,#961,#962);
#870=AXIS2_PLACEMENT_3D('',#1192,#966,#967);
#871=AXIS2_PLACEMENT_3D('',#1198,#971,#972);
#872=AXIS2_PLACEMENT_3D('',#1199,#973,#974);
#873=AXIS2_PLACEMENT_3D('',#1201,#975,#976);
#874=AXIS2_PLACEMENT_3D('',#1204,#978,#979);
#875=AXIS2_PLACEMENT_3D('',#1210,#983,#984);
#876=AXIS2_PLACEMENT_3D('',#1211,#985,#986);
#877=AXIS2_PLACEMENT_3D('',#1213,#987,#988);
#878=AXIS2_PLACEMENT_3D('',#1216,#990,#991);
#879=AXIS2_PLACEMENT_3D('',#1222,#995,#996);
#880=AXIS2_PLACEMENT_3D('',#1228,#1000,#1001);
#881=AXIS2_PLACEMENT_3D('',#1234,#1005,#1006);
#882=AXIS2_PLACEMENT_3D('',#1240,#1010,#1011);
#883=AXIS2_PLACEMENT_3D('',#1246,#1015,#1016);
#884=AXIS2_PLACEMENT_3D('',#1247,#1017,#1018);
#885=AXIS2_PLACEMENT_3D('',#1249,#1019,#1020);
#886=AXIS2_PLACEMENT_3D('',#1252,#1022,#1023);
#887=AXIS2_PLACEMENT_3D('',#1258,#1027,#1028);
#888=AXIS2_PLACEMENT_3D('',#1264,#1032,#1033);
#889=AXIS2_PLACEMENT_3D('',#1270,#1037,#1038);
#890=AXIS2_PLACEMENT_3D('',#1276,#1042,#1043);
#891=AXIS2_PLACEMENT_3D('',#1277,#1044,#1045);
#892=AXIS2_PLACEMENT_3D('',#1279,#1046,#1047);
#893=AXIS2_PLACEMENT_3D('',#1281,#1048,#1049);
#894=AXIS2_PLACEMENT_3D('',#1282,#1050,#1051);
#895=AXIS2_PLACEMENT_3D('',#1284,#1052,#1053);
#896=AXIS2_PLACEMENT_3D('',#1286,#1054,#1055);
#897=AXIS2_PLACEMENT_3D('',#1287,#1056,#1057);
#898=AXIS2_PLACEMENT_3D('',#1289,#1058,#1059);
#899=AXIS2_PLACEMENT_3D('',#1291,#1060,#1061);
#900=AXIS2_PLACEMENT_3D('',#1292,#1062,#1063);
#901=AXIS2_PLACEMENT_3D('',#1293,#1064,#1065);
#902=AXIS2_PLACEMENT_3D('',#1294,#1066,#1067);
#903=AXIS2_PLACEMENT_3D('',#1295,#1068,#1069);
#904=AXIS2_PLACEMENT_3D('',#1297,#1070,#1071);
#905=AXIS2_PLACEMENT_3D('',#1299,#1072,#1073);
#906=AXIS2_PLACEMENT_3D('',#1300,#1074,#1075);
#907=AXIS2_PLACEMENT_3D('',#1301,#1076,#1077);
#908=AXIS2_PLACEMENT_3D('',#1310,#1082,#1083);
#909=AXIS2_PLACEMENT_3D('',#1316,#1087,#1088);
#910=AXIS2_PLACEMENT_3D('',#1322,#1092,#1093);
#911=AXIS2_PLACEMENT_3D('',#1325,#1096,#1097);
#912=AXIS2_PLACEMENT_3D('',#1334,#1102,#1103);
#913=AXIS2_PLACEMENT_3D('',#1335,#1104,#1105);
#914=AXIS2_PLACEMENT_3D('',#1341,#1109,#1110);
#915=AXIS2_PLACEMENT_3D('',#1345,#1113,#1114);
#916=AXIS2_PLACEMENT_3D('',#1349,#1117,#1118);
#917=AXIS2_PLACEMENT_3D('',#1351,#1120,#1121);
#918=AXIS2_PLACEMENT_3D('',#1352,#1122,#1123);
#919=AXIS2_PLACEMENT_3D('',#1361,#1128,#1129);
#920=AXIS2_PLACEMENT_3D('',#1367,#1133,#1134);
#921=AXIS2_PLACEMENT_3D('',#1373,#1138,#1139);
#922=AXIS2_PLACEMENT_3D('',#1376,#1142,#1143);
#923=AXIS2_PLACEMENT_3D('',#1377,#1144,#1145);
#924=DIRECTION('',(0.,0.,1.));
#925=DIRECTION('',(1.,0.,0.));
#926=DIRECTION('',(2.52141672414956E-15,-6.14357158907659E-16,-1.));
#927=DIRECTION('',(0.882947592858924,-0.469471562785895,2.51470204268317E-15));
#928=DIRECTION('',(2.52141672414956E-15,-6.14357158907659E-16,-1.));
#929=DIRECTION('',(-0.882947592858924,0.469471562785895,-2.51470204268317E-15));
#930=DIRECTION('',(2.52141672414956E-15,-6.14357158907659E-16,-1.));
#931=DIRECTION('',(2.52141672414956E-15,-6.14357158907659E-16,-1.));
#932=DIRECTION('',(-0.882947592858924,0.469471562785895,-2.51470204268317E-15));
#933=DIRECTION('',(2.52141672414956E-15,-6.14357158907659E-16,-1.));
#934=DIRECTION('',(-0.838670567954445,0.544639035001136,-2.44924088626585E-15));
#935=DIRECTION('',(0.544639035001136,0.838670567954445,8.58018704088574E-16));
#936=DIRECTION('',(-0.544639035001136,-0.838670567954445,-8.58018704088574E-16));
#937=DIRECTION('',(-0.544639035001136,-0.838670567954445,-8.58018704088574E-16));
#938=DIRECTION('',(2.52141672414956E-15,-6.14357158907659E-16,-1.));
#939=DIRECTION('',(2.52141672414956E-15,-6.14357158907659E-16,-1.));
#940=DIRECTION('',(0.882947592858924,-0.469471562785895,2.51470204268317E-15));
#941=DIRECTION('',(2.52141672414956E-15,-6.14357158907659E-16,-1.));
#942=DIRECTION('',(-0.882947592858924,0.469471562785895,-2.51470204268317E-15));
#943=DIRECTION('',(2.52141672414956E-15,-6.14357158907659E-16,-1.));
#944=DIRECTION('',(-0.882947592858924,0.469471562785895,-2.51470204268317E-15));
#945=DIRECTION('',(2.52141672414956E-15,-6.14357158907659E-16,-1.));
#946=DIRECTION('',(0.30901699437495,0.951056516295153,1.94872238351723E-16));
#947=DIRECTION('',(0.951056516295153,-0.30901699437495,2.58785660851639E-15));
#948=DIRECTION('',(-0.951056516295153,0.30901699437495,-2.58785660851639E-15));
#949=DIRECTION('',(-0.951056516295153,0.30901699437495,-2.58785660851639E-15));
#950=DIRECTION('',(2.52141672414956E-15,-6.14357158907659E-16,-1.));
#951=DIRECTION('',(0.754709580222775,0.656059028990503,1.49988279632328E-15));
#952=DIRECTION('',(0.656059028990503,-0.754709580222776,2.11785944123203E-15));
#953=DIRECTION('',(-0.656059028990503,0.754709580222776,-2.11785944123203E-15));
#954=DIRECTION('',(-0.656059028990503,0.754709580222776,-2.11785944123203E-15));
#955=DIRECTION('',(2.52141672414956E-15,-6.14357158907659E-16,-1.));
#956=DIRECTION('',(0.998629534754574,-0.0523359562429453,2.55011417954601E-15));
#957=DIRECTION('',(-0.0523359562429454,-0.998629534754574,4.81554448427775E-16));
#958=DIRECTION('',(0.0523359562429454,0.998629534754574,-4.81554448427775E-16));
#959=DIRECTION('',(0.0523359562429454,0.998629534754574,-4.81554448427775E-16));
#960=DIRECTION('',(2.52141672414956E-15,-6.14357158907659E-16,-1.));
#961=DIRECTION('',(0.667360814967622,-0.744734545086873,2.1402277191614E-15));
#962=DIRECTION('',(-0.744734545086873,-0.667360814967622,-1.46778824278415E-15));
#963=DIRECTION('',(0.744734545086873,0.667360814967622,1.46778824278415E-15));
#964=DIRECTION('',(0.744734545086873,0.667360814967622,1.46778824278415E-15));
#965=DIRECTION('',(2.52141672414956E-15,-6.14357158907659E-16,-1.));
#966=DIRECTION('',(-0.0523359562429469,-0.998629534754574,4.81554448427771E-16));
#967=DIRECTION('',(-0.998629534754574,0.0523359562429468,-2.55011417954601E-15));
#968=DIRECTION('',(0.998629534754574,-0.0523359562429468,2.55011417954601E-15));
#969=DIRECTION('',(0.998629534754574,-0.0523359562429468,2.55011417954601E-15));
#970=DIRECTION('',(2.52141672414956E-15,-6.14357158907659E-16,-1.));
#971=DIRECTION('',(2.52141672414956E-15,-6.14357158907659E-16,-1.));
#972=DIRECTION('',(0.882947592858924,-0.469471562785895,2.51470204268317E-15));
#973=DIRECTION('',(-2.52141672414956E-15,6.14357158907659E-16,1.));
#974=DIRECTION('',(-0.882947592858924,0.469471562785895,-2.51470204268317E-15));
#975=DIRECTION('',(-2.52141672414956E-15,6.14357158907659E-16,1.));
#976=DIRECTION('',(-0.882947592858924,0.469471562785895,-2.51470204268317E-15));
#977=DIRECTION('',(2.52141672414956E-15,-6.14357158907659E-16,-1.));
#978=DIRECTION('',(0.998629534754574,-0.0523359562429452,2.55011417954601E-15));
#979=DIRECTION('',(-0.0523359562429453,-0.998629534754574,4.81554448427776E-16));
#980=DIRECTION('',(0.0523359562429453,0.998629534754574,-4.81554448427775E-16));
#981=DIRECTION('',(0.0523359562429453,0.998629534754574,-4.81554448427775E-16));
#982=DIRECTION('',(2.52141672414956E-15,-6.14357158907659E-16,-1.));
#983=DIRECTION('',(2.52141672414956E-15,-6.14357158907659E-16,-1.));
#984=DIRECTION('',(0.882947592858924,-0.469471562785895,2.51470204268317E-15));
#985=DIRECTION('',(2.52141672414956E-15,-6.14357158907659E-16,-1.));
#986=DIRECTION('',(-0.882947592858924,0.469471562785895,-2.51470204268317E-15));
#987=DIRECTION('',(2.52141672414956E-15,-6.14357158907659E-16,-1.));
#988=DIRECTION('',(-0.882947592858924,0.469471562785895,-2.51470204268317E-15));
#989=DIRECTION('',(2.52141672414956E-15,-6.14357158907659E-16,-1.));
#990=DIRECTION('',(0.998629534754574,-0.0523359562429456,2.55011417954601E-15));
#991=DIRECTION('',(-0.0523359562429457,-0.998629534754574,4.81554448427774E-16));
#992=DIRECTION('',(0.0523359562429457,0.998629534754574,-4.81554448427774E-16));
#993=DIRECTION('',(0.0523359562429457,0.998629534754574,-4.81554448427774E-16));
#994=DIRECTION('',(2.52141672414956E-15,-6.14357158907659E-16,-1.));
#995=DIRECTION('',(0.669130606358857,-0.743144825477395,2.14371344515078E-15));
#996=DIRECTION('',(-0.743144825477395,-0.669130606358858,-1.46269261316312E-15));
#997=DIRECTION('',(0.743144825477395,0.669130606358857,1.46269261316312E-15));
#998=DIRECTION('',(0.743144825477395,0.669130606358857,1.46269261316312E-15));
#999=DIRECTION('',(2.52141672414956E-15,-6.14357158907659E-16,-1.));
#1000=DIRECTION('',(-0.121869343405148,-0.992546151641322,3.02494433184228E-16));
#1001=DIRECTION('',(-0.992546151641322,0.121869343405148,-2.57749376981104E-15));
#1002=DIRECTION('',(0.992546151641322,-0.121869343405147,2.57749376981104E-15));
#1003=DIRECTION('',(0.992546151641322,-0.121869343405147,2.57749376981104E-15));
#1004=DIRECTION('',(2.52141672414956E-15,-6.14357158907659E-16,-1.));
#1005=DIRECTION('',(-0.707106781186549,-0.707106781186546,-1.34849475070922E-15));
#1006=DIRECTION('',(-0.707106781186545,0.707106781186549,-2.21732697697743E-15));
#1007=DIRECTION('',(0.707106781186546,-0.707106781186549,2.21732697697743E-15));
#1008=DIRECTION('',(0.707106781186546,-0.707106781186549,2.21732697697743E-15));
#1009=DIRECTION('',(2.52141672414956E-15,-6.14357158907659E-16,-1.));
#1010=DIRECTION('',(-0.906307787036652,-0.422618261740695,-2.02554105687568E-15));
#1011=DIRECTION('',(-0.422618261740695,0.906307787036652,-1.62239343022373E-15));
#1012=DIRECTION('',(0.422618261740695,-0.906307787036652,1.62239343022373E-15));
#1013=DIRECTION('',(0.422618261740695,-0.906307787036652,1.62239343022373E-15));
#1014=DIRECTION('',(2.52141672414956E-15,-6.14357158907659E-16,-1.));
#1015=DIRECTION('',(2.52141672414956E-15,-6.14357158907659E-16,-1.));
#1016=DIRECTION('',(0.882947592858924,-0.469471562785895,2.51470204268317E-15));
#1017=DIRECTION('',(2.52141672414956E-15,-6.14357158907659E-16,-1.));
#1018=DIRECTION('',(-0.882947592858924,0.469471562785895,-2.51470204268317E-15));
#1019=DIRECTION('',(2.52141672414956E-15,-6.14357158907659E-16,-1.));
#1020=DIRECTION('',(-0.882947592858924,0.469471562785895,-2.51470204268317E-15));
#1021=DIRECTION('',(2.52141672414956E-15,-6.14357158907659E-16,-1.));
#1022=DIRECTION('',(-0.998629534754574,-0.052335956242943,-2.48580824077374E-15));
#1023=DIRECTION('',(-0.0523359562429429,0.998629534754574,-7.45475959118413E-16));
#1024=DIRECTION('',(0.0523359562429429,-0.998629534754574,7.45475959118413E-16));
#1025=DIRECTION('',(0.0523359562429429,-0.998629534754574,7.45475959118413E-16));
#1026=DIRECTION('',(2.52141672414956E-15,-6.14357158907659E-16,-1.));
#1027=DIRECTION('',(-0.927183854566786,0.374606593415916,-2.56795911970522E-15));
#1028=DIRECTION('',(0.374606593415916,0.927183854566786,3.74917290938881E-16));
#1029=DIRECTION('',(-0.374606593415916,-0.927183854566786,-3.74917290938881E-16));
#1030=DIRECTION('',(-0.374606593415916,-0.927183854566786,-3.74917290938881E-16));
#1031=DIRECTION('',(2.52141672414956E-15,-6.14357158907659E-16,-1.));
#1032=DIRECTION('',(-0.46947156278589,0.882947592858927,-1.72617862453414E-15));
#1033=DIRECTION('',(0.882947592858927,0.46947156278589,1.93785561168102E-15));
#1034=DIRECTION('',(-0.882947592858927,-0.46947156278589,-1.93785561168102E-15));
#1035=DIRECTION('',(-0.882947592858927,-0.46947156278589,-1.93785561168102E-15));
#1036=DIRECTION('',(2.52141672414956E-15,-6.14357158907659E-16,-1.));
#1037=DIRECTION('',(-0.9135454576426,0.406736643075801,-2.5533103636346E-15));
#1038=DIRECTION('',(0.406736643075801,0.9135454576426,4.6430938228547E-16));
#1039=DIRECTION('',(-0.406736643075801,-0.9135454576426,-4.6430938228547E-16));
#1040=DIRECTION('',(-0.406736643075801,-0.9135454576426,-4.6430938228547E-16));
#1041=DIRECTION('',(2.52141672414956E-15,-6.14357158907659E-16,-1.));
#1042=DIRECTION('',(2.52141672414956E-15,-6.14357158907659E-16,-1.));
#1043=DIRECTION('',(0.882947592858924,-0.469471562785895,2.51470204268317E-15));
#1044=DIRECTION('',(2.52141672414956E-15,-6.14357158907659E-16,-1.));
#1045=DIRECTION('',(-0.882947592858924,0.469471562785895,-2.51470204268317E-15));
#1046=DIRECTION('',(2.52141672414956E-15,-6.14357158907659E-16,-1.));
#1047=DIRECTION('',(-0.882947592858924,0.469471562785895,-2.51470204268317E-15));
#1048=DIRECTION('',(2.52141672414956E-15,-6.14357158907659E-16,-1.));
#1049=DIRECTION('',(0.882947592858924,-0.469471562785895,2.51470204268317E-15));
#1050=DIRECTION('',(2.52141672414956E-15,-6.14357158907659E-16,-1.));
#1051=DIRECTION('',(-0.882947592858924,0.469471562785895,-2.51470204268317E-15));
#1052=DIRECTION('',(2.52141672414956E-15,-6.14357158907659E-16,-1.));
#1053=DIRECTION('',(-0.882947592858924,0.469471562785895,-2.51470204268317E-15));
#1054=DIRECTION('',(2.52141672414956E-15,-6.14357158907659E-16,-1.));
#1055=DIRECTION('',(0.882947592858924,-0.469471562785895,2.51470204268317E-15));
#1056=DIRECTION('',(2.52141672414956E-15,-6.14357158907659E-16,-1.));
#1057=DIRECTION('',(-0.882947592858924,0.469471562785895,-2.51470204268317E-15));
#1058=DIRECTION('',(2.52141672414956E-15,-6.14357158907659E-16,-1.));
#1059=DIRECTION('',(-0.882947592858924,0.469471562785895,-2.51470204268317E-15));
#1060=DIRECTION('',(2.52141672414956E-15,-6.14357158907659E-16,-1.));
#1061=DIRECTION('',(0.882947592858924,-0.469471562785895,2.51470204268317E-15));
#1062=DIRECTION('',(-2.52141672414956E-15,6.14357158907659E-16,1.));
#1063=DIRECTION('',(-0.882947592858924,0.469471562785895,-2.51470204268317E-15));
#1064=DIRECTION('',(-2.52141672414956E-15,6.14357158907659E-16,1.));
#1065=DIRECTION('',(-0.882947592858924,0.469471562785895,-2.51470204268317E-15));
#1066=DIRECTION('',(2.52141672414956E-15,-6.14357158907659E-16,-1.));
#1067=DIRECTION('',(0.882947592858924,-0.469471562785895,2.51470204268317E-15));
#1068=DIRECTION('',(2.52141672414956E-15,-6.14357158907659E-16,-1.));
#1069=DIRECTION('',(-0.882947592858924,0.469471562785895,-2.51470204268317E-15));
#1070=DIRECTION('',(2.52141672414956E-15,-6.14357158907659E-16,-1.));
#1071=DIRECTION('',(-0.882947592858924,0.469471562785895,-2.51470204268317E-15));
#1072=DIRECTION('',(-2.52141672414956E-15,6.14357158907659E-16,1.));
#1073=DIRECTION('',(-0.882947592858924,0.469471562785895,-2.51470204268317E-15));
#1074=DIRECTION('',(-2.52141672414956E-15,6.14357158907659E-16,1.));
#1075=DIRECTION('',(-0.882947592858924,0.469471562785895,-2.51470204268317E-15));
#1076=DIRECTION('',(0.0523359562429464,0.998629534754574,-4.81554448427772E-16));
#1077=DIRECTION('',(0.998629534754574,-0.0523359562429463,2.55011417954601E-15));
#1078=DIRECTION('',(-0.998629534754574,0.0523359562429464,-2.55011417954601E-15));
#1079=DIRECTION('',(2.52141672414956E-15,-6.14357158907659E-16,-1.));
#1080=DIRECTION('',(-0.998629534754574,0.0523359562429464,-2.55011417954601E-15));
#1081=DIRECTION('',(2.52141672414956E-15,-6.14357158907659E-16,-1.));
#1082=DIRECTION('',(0.998629534754573,-0.0523359562429461,2.55011417954601E-15));
#1083=DIRECTION('',(-0.0523359562429462,-0.998629534754574,4.81554448427773E-16));
#1084=DIRECTION('',(0.0523359562429462,0.998629534754574,-4.81554448427773E-16));
#1085=DIRECTION('',(0.0523359562429462,0.998629534754574,-4.81554448427773E-16));
#1086=DIRECTION('',(2.52141672414956E-15,-6.14357158907659E-16,-1.));
#1087=DIRECTION('',(-0.0523359562429474,-0.998629534754574,4.8155444842777E-16));
#1088=DIRECTION('',(-0.998629534754574,0.0523359562429473,-2.55011417954601E-15));
#1089=DIRECTION('',(0.998629534754574,-0.0523359562429473,2.55011417954601E-15));
#1090=DIRECTION('',(0.998629534754574,-0.0523359562429473,2.55011417954601E-15));
#1091=DIRECTION('',(2.52141672414956E-15,-6.14357158907659E-16,-1.));
#1092=DIRECTION('',(-0.998629534754574,0.0523359562429448,-2.55011417954601E-15));
#1093=DIRECTION('',(0.0523359562429449,0.998629534754574,-4.81554448427777E-16));
#1094=DIRECTION('',(-0.0523359562429448,-0.998629534754574,4.81554448427777E-16));
#1095=DIRECTION('',(-0.0523359562429448,-0.998629534754574,4.81554448427777E-16));
#1096=DIRECTION('',(-2.52141672414956E-15,6.14357158907659E-16,1.));
#1097=DIRECTION('',(-0.882947592858924,0.469471562785895,-2.51470204268317E-15));
#1098=DIRECTION('',(-0.998629534754574,0.0523359562429463,-2.55011417954601E-15));
#1099=DIRECTION('',(0.0523359562429462,0.998629534754574,-4.81554448427773E-16));
#1100=DIRECTION('',(0.998629534754574,-0.0523359562429473,2.55011417954601E-15));
#1101=DIRECTION('',(-0.0523359562429449,-0.998629534754574,4.81554448427777E-16));
#1102=DIRECTION('',(-2.52141672414956E-15,6.14357158907659E-16,1.));
#1103=DIRECTION('',(-0.882947592858924,0.469471562785895,-2.51470204268317E-15));
#1104=DIRECTION('',(0.0523359562429464,0.998629534754574,-4.81554448427772E-16));
#1105=DIRECTION('',(0.998629534754574,-0.0523359562429463,2.55011417954601E-15));
#1106=DIRECTION('',(-0.998629534754574,0.0523359562429463,-2.55011417954601E-15));
#1107=DIRECTION('',(2.52141672414956E-15,-6.14357158907659E-16,-1.));
#1108=DIRECTION('',(2.52141672414956E-15,-6.14357158907659E-16,-1.));
#1109=DIRECTION('',(0.998629534754573,-0.0523359562429461,2.55011417954601E-15));
#1110=DIRECTION('',(-0.0523359562429462,-0.998629534754574,4.81554448427773E-16));
#1111=DIRECTION('',(0.0523359562429462,0.998629534754574,-4.81554448427773E-16));
#1112=DIRECTION('',(2.52141672414956E-15,-6.14357158907659E-16,-1.));
#1113=DIRECTION('',(-0.0523359562429474,-0.998629534754574,4.8155444842777E-16));
#1114=DIRECTION('',(-0.998629534754574,0.0523359562429473,-2.55011417954601E-15));
#1115=DIRECTION('',(0.998629534754574,-0.0523359562429473,2.55011417954601E-15));
#1116=DIRECTION('',(2.52141672414956E-15,-6.14357158907659E-16,-1.));
#1117=DIRECTION('',(-0.998629534754574,0.0523359562429448,-2.55011417954601E-15));
#1118=DIRECTION('',(0.0523359562429449,0.998629534754574,-4.81554448427777E-16));
#1119=DIRECTION('',(-0.0523359562429449,-0.998629534754574,4.81554448427777E-16));
#1120=DIRECTION('',(-2.52141672414956E-15,6.14357158907659E-16,1.));
#1121=DIRECTION('',(-0.882947592858924,0.469471562785895,-2.51470204268317E-15));
#1122=DIRECTION('',(-0.788010753606723,0.615661475325657,-2.36513952778366E-15));
#1123=DIRECTION('',(0.615661475325657,0.788010753606723,1.06821909252619E-15));
#1124=DIRECTION('',(-0.615661475325657,-0.788010753606723,-1.06821909252619E-15));
#1125=DIRECTION('',(2.52141672414956E-15,-6.14357158907659E-16,-1.));
#1126=DIRECTION('',(-0.615661475325657,-0.788010753606723,-1.06821909252619E-15));
#1127=DIRECTION('',(2.52141672414956E-15,-6.14357158907659E-16,-1.));
#1128=DIRECTION('',(0.615661475325656,0.788010753606723,1.06821909252619E-15));
#1129=DIRECTION('',(0.788010753606723,-0.615661475325656,2.36513952778366E-15));
#1130=DIRECTION('',(-0.788010753606723,0.615661475325656,-2.36513952778366E-15));
#1131=DIRECTION('',(-0.788010753606723,0.615661475325656,-2.36513952778366E-15));
#1132=DIRECTION('',(2.52141672414956E-15,-6.14357158907659E-16,-1.));
#1133=DIRECTION('',(0.788010753606722,-0.615661475325658,2.36513952778365E-15));
#1134=DIRECTION('',(-0.615661475325658,-0.788010753606723,-1.06821909252619E-15));
#1135=DIRECTION('',(0.615661475325658,0.788010753606723,1.06821909252619E-15));
#1136=DIRECTION('',(0.615661475325658,0.788010753606723,1.06821909252619E-15));
#1137=DIRECTION('',(2.52141672414956E-15,-6.14357158907659E-16,-1.));
#1138=DIRECTION('',(-0.615661475325655,-0.788010753606724,-1.06821909252619E-15));
#1139=DIRECTION('',(-0.788010753606724,0.615661475325655,-2.36513952778366E-15));
#1140=DIRECTION('',(0.788010753606724,-0.615661475325655,2.36513952778366E-15));
#1141=DIRECTION('',(0.788010753606724,-0.615661475325655,2.36513952778366E-15));
#1142=DIRECTION('',(-2.52141672414956E-15,6.14357158907659E-16,1.));
#1143=DIRECTION('',(-0.882947592858924,0.469471562785895,-2.51470204268317E-15));
#1144=DIRECTION('',(-2.52141672414956E-15,6.14357158907659E-16,1.));
#1145=DIRECTION('',(-0.882947592858924,0.469471562785895,-2.51470204268317E-15));
#1146=CARTESIAN_POINT('',(0.,0.,0.));
#1147=CARTESIAN_POINT('',(265.164620409755,-97.0199910467978,1.2));
#1148=CARTESIAN_POINT('',(265.164620409755,-97.0199910467978,-5.03529120277746E-16));
#1149=CARTESIAN_POINT('',(265.715723483882,-97.3778815677665,1.10590399121862E-15));
#1150=CARTESIAN_POINT('',(265.813410642795,-96.915724768343,1.06828468917384E-15));
#1151=CARTESIAN_POINT('',(265.813410642795,-96.915724768343,1.2));
#1152=CARTESIAN_POINT('',(265.813410642795,-96.915724768343,1.2));
#1153=CARTESIAN_POINT('',(265.164620409755,-97.0199910467978,1.2));
#1154=CARTESIAN_POINT('',(265.715723483882,-97.3778815677665,1.2));
#1155=CARTESIAN_POINT('',(265.715723483882,-97.3778815677665,1.2));
#1156=CARTESIAN_POINT('',(265.715723483882,-97.3778815677665,1.2));
#1157=CARTESIAN_POINT('',(265.715723483882,-97.3778815677665,1.10590399121862E-15));
#1158=CARTESIAN_POINT('',(256.346688008034,-111.804931042283,-1.36539776201495E-14));
#1159=CARTESIAN_POINT('',(265.715723483882,-97.3778815677665,1.2));
#1160=CARTESIAN_POINT('',(256.346688008034,-111.804931042283,1.19999999999999));
#1161=CARTESIAN_POINT('',(256.346688008034,-111.804931042283,1.19999999999999));
#1162=CARTESIAN_POINT('',(238.844123669203,-100.438632860597,1.19999999999994));
#1163=CARTESIAN_POINT('',(238.844123669203,-100.438632860597,-6.47682027177797E-14));
#1164=CARTESIAN_POINT('',(249.382297944268,-118.451943931532,-2.71304672465696E-14));
#1165=CARTESIAN_POINT('',(238.844123669203,-100.438632860597,1.19999999999994));
#1166=CARTESIAN_POINT('',(249.382297944268,-118.451943931532,1.19999999999997));
#1167=CARTESIAN_POINT('',(249.382297944268,-118.451943931532,1.19999999999997));
#1168=CARTESIAN_POINT('',(249.382297944341,-118.451943931558,1.19999999999997));
#1169=CARTESIAN_POINT('',(249.382297944341,-118.451943931558,-2.71304672463691E-14));
#1170=CARTESIAN_POINT('',(245.761730266648,-117.275550181531,-3.6982153061842E-14));
#1171=CARTESIAN_POINT('',(249.382297944341,-118.451943931558,1.19999999999997));
#1172=CARTESIAN_POINT('',(245.761730266648,-117.275550181531,1.19999999999996));
#1173=CARTESIAN_POINT('',(245.761730266648,-117.275550181531,1.19999999999996));
#1174=CARTESIAN_POINT('',(245.761730266648,-117.275550181531,1.19999999999996));
#1175=CARTESIAN_POINT('',(245.761730266648,-117.275550181531,-3.6982153061842E-14));
#1176=CARTESIAN_POINT('',(238.944604901896,-109.433344533855,-5.89888821484294E-14));
#1177=CARTESIAN_POINT('',(245.761730266648,-117.275550181531,1.19999999999996));
#1178=CARTESIAN_POINT('',(238.944604901896,-109.433344533855,1.19999999999994));
#1179=CARTESIAN_POINT('',(238.944604901896,-109.433344533855,1.19999999999994));
#1180=CARTESIAN_POINT('',(238.944604901896,-109.433344533855,1.19999999999994));
#1181=CARTESIAN_POINT('',(238.944604901896,-109.433344533855,-5.89888821484294E-14));
#1182=CARTESIAN_POINT('',(239.439848466747,-99.9835343791997,-6.35457252603152E-14));
#1183=CARTESIAN_POINT('',(238.944604901896,-109.433344533855,1.19999999999994));
#1184=CARTESIAN_POINT('',(239.439848466747,-99.9835343791997,1.19999999999994));
#1185=CARTESIAN_POINT('',(239.439848466747,-99.9835343791997,1.19999999999994));
#1186=CARTESIAN_POINT('',(239.439848466747,-99.9835343791997,1.19999999999994));
#1187=CARTESIAN_POINT('',(239.439848466747,-99.9835343791997,-6.35457252603152E-14));
#1188=CARTESIAN_POINT('',(241.81950550725,-97.8511103196874,-5.88556881874403E-14));
#1189=CARTESIAN_POINT('',(239.439848466747,-99.9835343791997,1.19999999999994));
#1190=CARTESIAN_POINT('',(241.81950550725,-97.8511103196874,1.19999999999994));
#1191=CARTESIAN_POINT('',(241.81950550725,-97.8511103196874,1.19999999999994));
#1192=CARTESIAN_POINT('',(241.81950550725,-97.8511103196874,1.19999999999994));
#1193=CARTESIAN_POINT('',(241.81950550725,-97.8511103196874,-5.88556881874403E-14));
#1194=CARTESIAN_POINT('',(256.734312451591,-98.6327622300757,-2.07690310735958E-14));
#1195=CARTESIAN_POINT('',(241.81950550725,-97.8511103196874,1.19999999999994));
#1196=CARTESIAN_POINT('',(256.734312451591,-98.6327622300757,1.19999999999998));
#1197=CARTESIAN_POINT('',(256.734312451591,-98.6327622300757,1.19999999999998));
#1198=CARTESIAN_POINT('',(257.064028975922,-92.3413961611219,1.19999999999998));
#1199=CARTESIAN_POINT('',(257.064028975922,-92.3413961611219,-2.38028240986908E-14));
#1200=CARTESIAN_POINT('',(263.355395044875,-92.6711126854524,-7.73710476755094E-15));
#1201=CARTESIAN_POINT('',(257.064028975922,-92.3413961611219,1.19999999999998));
#1202=CARTESIAN_POINT('',(263.355395044875,-92.6711126854524,1.19999999999999));
#1203=CARTESIAN_POINT('',(263.355395044875,-92.6711126854524,1.19999999999999));
#1204=CARTESIAN_POINT('',(263.355395044875,-92.6711126854524,1.19999999999999));
#1205=CARTESIAN_POINT('',(263.355395044875,-92.6711126854524,-7.73710476755094E-15));
#1206=CARTESIAN_POINT('',(263.697417394547,-86.1449374811194,-1.08841263521248E-14));
#1207=CARTESIAN_POINT('',(263.355395044875,-92.6711126854524,1.19999999999999));
#1208=CARTESIAN_POINT('',(263.697417394547,-86.1449374811194,1.19999999999999));
#1209=CARTESIAN_POINT('',(263.697417394547,-86.1449374811194,1.19999999999999));
#1210=CARTESIAN_POINT('',(265.635499823396,-84.3376365933358,1.19999999999999));
#1211=CARTESIAN_POINT('',(265.635499823396,-84.3376365933358,-7.10774114195223E-15));
#1212=CARTESIAN_POINT('',(263.896948797343,-82.3376515109393,-1.27200579279095E-14));
#1213=CARTESIAN_POINT('',(265.635499823396,-84.3376365933358,1.19999999999999));
#1214=CARTESIAN_POINT('',(263.896948797343,-82.3376515109393,1.19999999999999));
#1215=CARTESIAN_POINT('',(263.896948797343,-82.3376515109393,1.19999999999999));
#1216=CARTESIAN_POINT('',(263.896948797339,-82.3376515109429,1.19999999999999));
#1217=CARTESIAN_POINT('',(263.896948797339,-82.3376515109429,-1.27200579279176E-14));
#1218=CARTESIAN_POINT('',(264.513641999118,-70.5704442334113,-1.83943854065853E-14));
#1219=CARTESIAN_POINT('',(263.896948797339,-82.3376515109429,1.19999999999999));
#1220=CARTESIAN_POINT('',(264.513641999118,-70.5704442334113,1.19999999999998));
#1221=CARTESIAN_POINT('',(264.513641999118,-70.5704442334113,1.19999999999998));
#1222=CARTESIAN_POINT('',(264.513641999118,-70.5704442334113,1.19999999999998));
#1223=CARTESIAN_POINT('',(264.513641999118,-70.5704442334113,-1.83943854065853E-14));
#1224=CARTESIAN_POINT('',(271.833137266396,-63.9799410925354,-3.98781041273766E-15));
#1225=CARTESIAN_POINT('',(264.513641999118,-70.5704442334113,1.19999999999998));
#1226=CARTESIAN_POINT('',(271.833137266396,-63.9799410925354,1.2));
#1227=CARTESIAN_POINT('',(271.833137266396,-63.9799410925354,1.2));
#1228=CARTESIAN_POINT('',(271.833137266396,-63.9799410925354,1.2));
#1229=CARTESIAN_POINT('',(271.833137266396,-63.9799410925354,-3.98781041273765E-15));
#1230=CARTESIAN_POINT('',(272.928256939334,-64.1144048807133,-1.14394856356364E-15));
#1231=CARTESIAN_POINT('',(271.833137266396,-63.9799410925354,1.2));
#1232=CARTESIAN_POINT('',(272.928256939334,-64.1144048807133,1.2));
#1233=CARTESIAN_POINT('',(272.928256939334,-64.1144048807133,1.2));
#1234=CARTESIAN_POINT('',(272.928256939334,-64.1144048807133,1.2));
#1235=CARTESIAN_POINT('',(272.928256939334,-64.1144048807133,-1.14394856356364E-15));
#1236=CARTESIAN_POINT('',(275.502713880864,-66.6888618222431,6.92896627674079E-15));
#1237=CARTESIAN_POINT('',(272.928256939334,-64.1144048807133,1.2));
#1238=CARTESIAN_POINT('',(275.502713880864,-66.6888618222431,1.20000000000001));
#1239=CARTESIAN_POINT('',(275.502713880864,-66.6888618222431,1.20000000000001));
#1240=CARTESIAN_POINT('',(275.502713880864,-66.688861822243,1.20000000000001));
#1241=CARTESIAN_POINT('',(275.502713880864,-66.6888618222431,6.92896627674074E-15));
#1242=CARTESIAN_POINT('',(276.932298734414,-69.7546164341372,1.24170137283446E-14));
#1243=CARTESIAN_POINT('',(275.502713880864,-66.688861822243,1.20000000000001));
#1244=CARTESIAN_POINT('',(276.932298734414,-69.7546164341372,1.20000000000001));
#1245=CARTESIAN_POINT('',(276.932298734414,-69.7546164341372,1.20000000000001));
#1246=CARTESIAN_POINT('',(274.032113815897,-71.1069948717075,1.20000000000001));
#1247=CARTESIAN_POINT('',(274.032113815897,-71.1069948717075,5.93528234634244E-15));
#1248=CARTESIAN_POINT('',(277.227728327112,-70.9395198117301,1.38898687168184E-14));
#1249=CARTESIAN_POINT('',(274.032113815897,-71.1069948717075,1.20000000000001));
#1250=CARTESIAN_POINT('',(277.227728327112,-70.9395198117301,1.20000000000001));
#1251=CARTESIAN_POINT('',(277.227728327112,-70.9395198117301,1.20000000000001));
#1252=CARTESIAN_POINT('',(277.227728327112,-70.9395198117301,1.20000000000001));
#1253=CARTESIAN_POINT('',(277.227728327112,-70.9395198117301,1.38898687168184E-14));
#1254=CARTESIAN_POINT('',(277.291363254137,-72.1537465524129,1.47962877767356E-14));
#1255=CARTESIAN_POINT('',(277.227728327112,-70.9395198117301,1.20000000000001));
#1256=CARTESIAN_POINT('',(277.291363254137,-72.1537465524129,1.20000000000001));
#1257=CARTESIAN_POINT('',(277.291363254137,-72.1537465524129,1.20000000000001));
#1258=CARTESIAN_POINT('',(277.291363254137,-72.1537465524129,1.20000000000001));
#1259=CARTESIAN_POINT('',(277.291363254137,-72.1537465524129,1.47962877767356E-14));
#1260=CARTESIAN_POINT('',(272.130718813188,-84.9267897633613,9.63136311362058E-15));
#1261=CARTESIAN_POINT('',(277.291363254137,-72.1537465524129,1.20000000000001));
#1262=CARTESIAN_POINT('',(272.130718813188,-84.9267897633613,1.20000000000001));
#1263=CARTESIAN_POINT('',(272.130718813188,-84.9267897633613,1.20000000000001));
#1264=CARTESIAN_POINT('',(272.130718813188,-84.9267897633613,1.20000000000001));
#1265=CARTESIAN_POINT('',(272.130718813188,-84.9267897633613,9.63136311362058E-15));
#1266=CARTESIAN_POINT('',(269.940844490559,-86.0911665948565,4.82512061485291E-15));
#1267=CARTESIAN_POINT('',(272.130718813188,-84.9267897633613,1.20000000000001));
#1268=CARTESIAN_POINT('',(269.940844490559,-86.0911665948565,1.2));
#1269=CARTESIAN_POINT('',(269.940844490559,-86.0911665948565,1.2));
#1270=CARTESIAN_POINT('',(269.940844490559,-86.0911665948565,1.2));
#1271=CARTESIAN_POINT('',(269.940844490559,-86.0911665948565,4.82512061485291E-15));
#1272=CARTESIAN_POINT('',(266.100330143477,-94.7171030491092,4.40989323736929E-16));
#1273=CARTESIAN_POINT('',(269.940844490559,-86.0911665948565,1.2));
#1274=CARTESIAN_POINT('',(266.100330143477,-94.7171030491092,1.2));
#1275=CARTESIAN_POINT('',(266.100330143477,-94.7171030491092,1.2));
#1276=CARTESIAN_POINT('',(272.45226397608,-67.9299788472599,1.2));
#1277=CARTESIAN_POINT('',(272.45226397608,-67.9299788472599,1.2));
#1278=CARTESIAN_POINT('',(270.64222141072,-66.9675621435489,1.19999999999999));
#1279=CARTESIAN_POINT('',(272.45226397608,-67.9299788472599,0.));
#1280=CARTESIAN_POINT('',(270.64222141072,-66.9675621435489,-5.15513918750049E-15));
#1281=CARTESIAN_POINT('',(265.61455509122,-84.6239369520923,1.19999999999999));
#1282=CARTESIAN_POINT('',(265.61455509122,-84.6239369520923,1.19999999999999));
#1283=CARTESIAN_POINT('',(264.444649530682,-84.0018871314009,1.19999999999999));
#1284=CARTESIAN_POINT('',(265.61455509122,-84.6239369520923,-6.98466086494567E-15));
#1285=CARTESIAN_POINT('',(264.444649530682,-84.0018871314009,-1.03166410715009E-14));
#1286=CARTESIAN_POINT('',(255.109368463358,-108.428422956075,1.19999999999998));
#1287=CARTESIAN_POINT('',(255.109368463358,-108.428422956075,1.19999999999998));
#1288=CARTESIAN_POINT('',(254.226420870499,-107.958951393289,1.19999999999998));
#1289=CARTESIAN_POINT('',(255.109368463358,-108.428422956075,-1.88481577280856E-14));
#1290=CARTESIAN_POINT('',(254.226420870499,-107.958951393289,-2.13628597707688E-14));
#1291=CARTESIAN_POINT('',(269.652695542723,-96.2987180255512,1.20000000000001));
#1292=CARTESIAN_POINT('',(269.652695542723,-96.2987180255512,1.03696593350995E-14));
#1293=CARTESIAN_POINT('',(269.652695542723,-96.2987180255512,1.20000000000001));
#1294=CARTESIAN_POINT('',(268.236068287442,-73.7294351937724,1.19999999999999));
#1295=CARTESIAN_POINT('',(268.236068287442,-73.7294351937724,1.19999999999999));
#1296=CARTESIAN_POINT('',(267.353120694583,-73.2599636309865,1.19999999999999));
#1297=CARTESIAN_POINT('',(268.236068287442,-73.7294351937724,-7.06784879736869E-15));
#1298=CARTESIAN_POINT('',(267.353120694583,-73.2599636309865,-9.58255084005186E-15));
#1299=CARTESIAN_POINT('',(265.164620409755,-97.0199910467978,1.2));
#1300=CARTESIAN_POINT('',(265.164620409755,-97.0199910467978,-5.03529120277746E-16));
#1301=CARTESIAN_POINT('',(244.324788469128,-108.997502442172,5.89999999999995));
#1302=CARTESIAN_POINT('',(244.324788469128,-108.997502442172,1.19999999999995));
#1303=CARTESIAN_POINT('',(240.480064760322,-108.796009010637,1.19999999999994));
#1304=CARTESIAN_POINT('',(244.324788469128,-108.997502442172,1.19999999999995));
#1305=CARTESIAN_POINT('',(244.324788469128,-108.997502442172,5.89999999999995));
#1306=CARTESIAN_POINT('',(244.324788469128,-108.997502442172,5.89999999999995));
#1307=CARTESIAN_POINT('',(244.324788469128,-108.997502442172,5.89999999999995));
#1308=CARTESIAN_POINT('',(240.480064760322,-108.796009010637,5.89999999999994));
#1309=CARTESIAN_POINT('',(240.480064760322,-108.796009010637,5.89999999999994));
#1310=CARTESIAN_POINT('',(240.480064760322,-108.796009010637,5.89999999999994));
#1311=CARTESIAN_POINT('',(240.480064760322,-108.796009010637,1.19999999999994));
#1312=CARTESIAN_POINT('',(240.97725634463,-99.3090284304684,1.19999999999994));
#1313=CARTESIAN_POINT('',(240.480064760322,-108.796009010637,5.89999999999994));
#1314=CARTESIAN_POINT('',(240.97725634463,-99.3090284304684,5.89999999999994));
#1315=CARTESIAN_POINT('',(240.97725634463,-99.3090284304684,5.89999999999994));
#1316=CARTESIAN_POINT('',(240.97725634463,-99.3090284304684,5.89999999999994));
#1317=CARTESIAN_POINT('',(240.97725634463,-99.3090284304684,1.19999999999994));
#1318=CARTESIAN_POINT('',(244.821980053436,-99.5105218620038,1.19999999999995));
#1319=CARTESIAN_POINT('',(240.97725634463,-99.3090284304684,5.89999999999994));
#1320=CARTESIAN_POINT('',(244.821980053436,-99.5105218620038,5.89999999999995));
#1321=CARTESIAN_POINT('',(244.821980053436,-99.5105218620038,5.89999999999995));
#1322=CARTESIAN_POINT('',(244.821980053436,-99.5105218620038,5.89999999999995));
#1323=CARTESIAN_POINT('',(244.821980053436,-99.5105218620038,1.19999999999995));
#1324=CARTESIAN_POINT('',(244.821980053436,-99.5105218620038,5.89999999999995));
#1325=CARTESIAN_POINT('',(272.45226397608,-67.9299788472599,5.9));
#1326=CARTESIAN_POINT('',(244.350956447249,-108.498187674795,5.89999999999995));
#1327=CARTESIAN_POINT('',(241.005547505821,-108.322862221381,5.89999999999995));
#1328=CARTESIAN_POINT('',(243.851641679872,-108.472019696673,5.89999999999995));
#1329=CARTESIAN_POINT('',(240.9793795277,-108.822176988758,5.89999999999995));
#1330=CARTESIAN_POINT('',(241.450403133886,-99.8345111759672,5.89999999999994));
#1331=CARTESIAN_POINT('',(240.951088366509,-99.8083431978457,5.89999999999994));
#1332=CARTESIAN_POINT('',(244.296497307937,-99.9836686512596,5.89999999999995));
#1333=CARTESIAN_POINT('',(244.322665286058,-99.4843538838823,5.89999999999995));
#1334=CARTESIAN_POINT('',(272.45226397608,-67.9299788472599,1.2));
#1335=CARTESIAN_POINT('',(244.350956447249,-108.498187674795,5.89999999999995));
#1336=CARTESIAN_POINT('',(244.350956447249,-108.498187674795,1.69999999999995));
#1337=CARTESIAN_POINT('',(241.005547505821,-108.322862221381,1.69999999999995));
#1338=CARTESIAN_POINT('',(243.851641679872,-108.472019696673,1.69999999999995));
#1339=CARTESIAN_POINT('',(241.005547505821,-108.322862221381,5.89999999999995));
#1340=CARTESIAN_POINT('',(243.851641679872,-108.472019696673,5.89999999999995));
#1341=CARTESIAN_POINT('',(240.9793795277,-108.822176988758,5.89999999999995));
#1342=CARTESIAN_POINT('',(240.9793795277,-108.822176988758,1.69999999999995));
#1343=CARTESIAN_POINT('',(241.450403133886,-99.8345111759672,1.69999999999994));
#1344=CARTESIAN_POINT('',(241.450403133886,-99.8345111759672,5.89999999999994));
#1345=CARTESIAN_POINT('',(240.951088366509,-99.8083431978457,5.89999999999994));
#1346=CARTESIAN_POINT('',(240.951088366509,-99.8083431978457,1.69999999999994));
#1347=CARTESIAN_POINT('',(244.296497307937,-99.9836686512596,1.69999999999995));
#1348=CARTESIAN_POINT('',(244.296497307937,-99.9836686512596,5.89999999999995));
#1349=CARTESIAN_POINT('',(244.322665286058,-99.4843538838823,5.89999999999995));
#1350=CARTESIAN_POINT('',(244.322665286058,-99.4843538838823,1.69999999999995));
#1351=CARTESIAN_POINT('',(272.45226397608,-67.9299788472599,1.7));
#1352=CARTESIAN_POINT('',(253.58687177601,-112.713714981189,9.44999999999998));
#1353=CARTESIAN_POINT('',(253.58687177601,-112.713714981189,1.19999999999998));
#1354=CARTESIAN_POINT('',(249.86211985029,-117.48118004051,1.19999999999997));
#1355=CARTESIAN_POINT('',(253.58687177601,-112.713714981189,1.19999999999998));
#1356=CARTESIAN_POINT('',(253.58687177601,-112.713714981189,9.44999999999998));
#1357=CARTESIAN_POINT('',(253.58687177601,-112.713714981189,9.44999999999998));
#1358=CARTESIAN_POINT('',(253.58687177601,-112.713714981189,9.44999999999998));
#1359=CARTESIAN_POINT('',(249.86211985029,-117.48118004051,9.44999999999997));
#1360=CARTESIAN_POINT('',(249.86211985029,-117.48118004051,9.44999999999997));
#1361=CARTESIAN_POINT('',(249.86211985029,-117.48118004051,9.44999999999997));
#1362=CARTESIAN_POINT('',(249.86211985029,-117.48118004051,1.19999999999997));
#1363=CARTESIAN_POINT('',(245.370458554731,-113.971909631153,1.19999999999996));
#1364=CARTESIAN_POINT('',(249.86211985029,-117.48118004051,9.44999999999997));
#1365=CARTESIAN_POINT('',(245.370458554731,-113.971909631153,9.44999999999996));
#1366=CARTESIAN_POINT('',(245.370458554731,-113.971909631153,9.44999999999996));
#1367=CARTESIAN_POINT('',(245.370458554731,-113.971909631153,9.44999999999996));
#1368=CARTESIAN_POINT('',(245.370458554731,-113.971909631153,1.19999999999996));
#1369=CARTESIAN_POINT('',(249.095210480452,-109.204444571833,1.19999999999997));
#1370=CARTESIAN_POINT('',(245.370458554731,-113.971909631153,9.44999999999996));
#1371=CARTESIAN_POINT('',(249.095210480452,-109.204444571833,9.44999999999997));
#1372=CARTESIAN_POINT('',(249.095210480452,-109.204444571833,9.44999999999997));
#1373=CARTESIAN_POINT('',(249.095210480452,-109.204444571833,9.44999999999997));
#1374=CARTESIAN_POINT('',(249.095210480452,-109.204444571833,1.19999999999997));
#1375=CARTESIAN_POINT('',(249.095210480452,-109.204444571833,9.44999999999997));
#1376=CARTESIAN_POINT('',(272.45226397608,-67.9299788472599,9.45));
#1377=CARTESIAN_POINT('',(272.45226397608,-67.9299788472599,1.2));
#1378=MECHANICAL_DESIGN_GEOMETRIC_PRESENTATION_REPRESENTATION('',(#827,
#828,#829),#1379);
#1379=(
GEOMETRIC_REPRESENTATION_CONTEXT(3)
GLOBAL_UNCERTAINTY_ASSIGNED_CONTEXT((#1380))
GLOBAL_UNIT_ASSIGNED_CONTEXT((#1383,#1382,#1381))
REPRESENTATION_CONTEXT('E05L','TOP_LEVEL_ASSEMBLY_PART')
);
#1380=UNCERTAINTY_MEASURE_WITH_UNIT(LENGTH_MEASURE(0.005),#1383,
'DISTANCE_ACCURACY_VALUE','Maximum Tolerance applied to model');
#1381=(
NAMED_UNIT(*)
SI_UNIT($,.STERADIAN.)
SOLID_ANGLE_UNIT()
);
#1382=(
NAMED_UNIT(*)
PLANE_ANGLE_UNIT()
SI_UNIT($,.RADIAN.)
);
#1383=(
LENGTH_UNIT()
NAMED_UNIT(*)
SI_UNIT(.MILLI.,.METRE.)
);
#1384=PRODUCT_DEFINITION_SHAPE('','',#1385);
#1385=PRODUCT_DEFINITION('','',#1387,#1386);
#1386=PRODUCT_DEFINITION_CONTEXT('',#1393,'design');
#1387=PRODUCT_DEFINITION_FORMATION_WITH_SPECIFIED_SOURCE('','',#1389,
 .NOT_KNOWN.);
#1388=PRODUCT_RELATED_PRODUCT_CATEGORY('','',(#1389));
#1389=PRODUCT('E05L','E05L','E05L',(#1391));
#1390=PRODUCT_CATEGORY('','');
#1391=PRODUCT_CONTEXT('',#1393,'mechanical');
#1392=APPLICATION_PROTOCOL_DEFINITION('international standard',
'ap242_managed_model_based_3d_engineering',2020,#1393);
#1393=APPLICATION_CONTEXT('managed model based 3d engineering');
ENDSEC;
END-ISO-10303-21;
