ISO-10303-21;
HEADER;
/* Generated by software containing ST-Developer
 * from STEP Tools, Inc. (www.steptools.com) 
 */
/* OPTION: using custom renumber hook */

FILE_DESCRIPTION(
/* description */ (
'CAx-IF Rec.Pracs.---Representation and Presentation of Product Manufa
cturing Information (PMI)---4.0---2014-10-13',
'CAx-IF Rec.Pracs.---3D Tessellated Geometry---0.4---2014-09-14','2;1'),

/* implementation_level */ '2;1');

FILE_NAME(
/* name */ 'E05R',
/* time_stamp */ '2026-04-13T01:14:53+03:00',
/* author */ (''),
/* organization */ (''),
/* preprocessor_version */ 'ST-DEVELOPER v18.102',
/* originating_system */ 'SIEMENS PLM Software NX2206.9140',
/* authorisation */ $);

FILE_SCHEMA (('AP242_MANAGED_MODEL_BASED_3D_ENGINEERING_MIM_LF { 1 0 10303 442 3 1 4 }'));
ENDSEC;

DATA;
#10=CIRCLE('',#877,0.657115076155959);
#11=CIRCLE('',#878,0.657115076155959);
#12=CIRCLE('',#881,20.8694152479155);
#13=CIRCLE('',#882,20.8694152479155);
#14=CIRCLE('',#889,6.3);
#15=CIRCLE('',#890,6.3);
#16=CIRCLE('',#893,2.65);
#17=CIRCLE('',#894,2.65);
#18=CIRCLE('',#901,3.2);
#19=CIRCLE('',#902,3.2);
#20=CIRCLE('',#908,2.05);
#21=CIRCLE('',#909,2.05);
#22=CIRCLE('',#911,1.325);
#23=CIRCLE('',#912,1.325);
#24=CIRCLE('',#914,1.);
#25=CIRCLE('',#915,1.);
#26=CIRCLE('',#917,3.88854804052463);
#27=CIRCLE('',#918,3.88854804052463);
#28=CIRCLE('',#920,1.);
#29=CIRCLE('',#921,1.);
#30=CYLINDRICAL_SURFACE('',#876,0.657115076155959);
#31=CYLINDRICAL_SURFACE('',#880,20.8694152479155);
#32=CYLINDRICAL_SURFACE('',#888,6.3);
#33=CYLINDRICAL_SURFACE('',#892,2.65);
#34=CYLINDRICAL_SURFACE('',#900,3.2);
#35=CYLINDRICAL_SURFACE('',#907,2.05);
#36=CYLINDRICAL_SURFACE('',#910,1.325);
#37=CYLINDRICAL_SURFACE('',#913,1.);
#38=CYLINDRICAL_SURFACE('',#916,3.88854804052463);
#39=CYLINDRICAL_SURFACE('',#919,1.);
#40=SURFACE_STYLE_RENDERING_WITH_PROPERTIES(.CONSTANT_SHADING.,#852,(#41));
#41=SURFACE_STYLE_TRANSPARENT(0.4);
#42=SHAPE_REPRESENTATION_RELATIONSHIP('','',#857,#43);
#43=ADVANCED_BREP_SHAPE_REPRESENTATION('',(#853,#854,#855),#1379);
#44=ORIENTED_EDGE('',*,*,#264,.T.);
#45=ORIENTED_EDGE('',*,*,#265,.F.);
#46=ORIENTED_EDGE('',*,*,#266,.F.);
#47=ORIENTED_EDGE('',*,*,#267,.T.);
#48=ORIENTED_EDGE('',*,*,#268,.T.);
#49=ORIENTED_EDGE('',*,*,#269,.F.);
#50=ORIENTED_EDGE('',*,*,#270,.F.);
#51=ORIENTED_EDGE('',*,*,#265,.T.);
#52=ORIENTED_EDGE('',*,*,#271,.T.);
#53=ORIENTED_EDGE('',*,*,#272,.F.);
#54=ORIENTED_EDGE('',*,*,#273,.F.);
#55=ORIENTED_EDGE('',*,*,#269,.T.);
#56=ORIENTED_EDGE('',*,*,#274,.T.);
#57=ORIENTED_EDGE('',*,*,#267,.F.);
#58=ORIENTED_EDGE('',*,*,#275,.F.);
#59=ORIENTED_EDGE('',*,*,#272,.T.);
#60=ORIENTED_EDGE('',*,*,#276,.F.);
#61=ORIENTED_EDGE('',*,*,#277,.F.);
#62=ORIENTED_EDGE('',*,*,#278,.F.);
#63=ORIENTED_EDGE('',*,*,#279,.F.);
#64=ORIENTED_EDGE('',*,*,#266,.T.);
#65=ORIENTED_EDGE('',*,*,#270,.T.);
#66=ORIENTED_EDGE('',*,*,#273,.T.);
#67=ORIENTED_EDGE('',*,*,#275,.T.);
#68=ORIENTED_EDGE('',*,*,#264,.F.);
#69=ORIENTED_EDGE('',*,*,#274,.F.);
#70=ORIENTED_EDGE('',*,*,#271,.F.);
#71=ORIENTED_EDGE('',*,*,#268,.F.);
#72=ORIENTED_EDGE('',*,*,#280,.F.);
#73=ORIENTED_EDGE('',*,*,#281,.F.);
#74=ORIENTED_EDGE('',*,*,#276,.T.);
#75=ORIENTED_EDGE('',*,*,#282,.T.);
#76=ORIENTED_EDGE('',*,*,#283,.F.);
#77=ORIENTED_EDGE('',*,*,#282,.F.);
#78=ORIENTED_EDGE('',*,*,#279,.T.);
#79=ORIENTED_EDGE('',*,*,#284,.T.);
#80=ORIENTED_EDGE('',*,*,#285,.F.);
#81=ORIENTED_EDGE('',*,*,#284,.F.);
#82=ORIENTED_EDGE('',*,*,#278,.T.);
#83=ORIENTED_EDGE('',*,*,#286,.T.);
#84=ORIENTED_EDGE('',*,*,#287,.F.);
#85=ORIENTED_EDGE('',*,*,#286,.F.);
#86=ORIENTED_EDGE('',*,*,#277,.T.);
#87=ORIENTED_EDGE('',*,*,#281,.T.);
#88=ORIENTED_EDGE('',*,*,#280,.T.);
#89=ORIENTED_EDGE('',*,*,#283,.T.);
#90=ORIENTED_EDGE('',*,*,#285,.T.);
#91=ORIENTED_EDGE('',*,*,#287,.T.);
#92=ORIENTED_EDGE('',*,*,#288,.T.);
#93=ORIENTED_EDGE('',*,*,#289,.F.);
#94=ORIENTED_EDGE('',*,*,#290,.F.);
#95=ORIENTED_EDGE('',*,*,#291,.T.);
#96=ORIENTED_EDGE('',*,*,#292,.T.);
#97=ORIENTED_EDGE('',*,*,#293,.F.);
#98=ORIENTED_EDGE('',*,*,#294,.F.);
#99=ORIENTED_EDGE('',*,*,#289,.T.);
#100=ORIENTED_EDGE('',*,*,#295,.T.);
#101=ORIENTED_EDGE('',*,*,#296,.F.);
#102=ORIENTED_EDGE('',*,*,#297,.F.);
#103=ORIENTED_EDGE('',*,*,#293,.T.);
#104=ORIENTED_EDGE('',*,*,#298,.T.);
#105=ORIENTED_EDGE('',*,*,#291,.F.);
#106=ORIENTED_EDGE('',*,*,#299,.F.);
#107=ORIENTED_EDGE('',*,*,#296,.T.);
#108=ORIENTED_EDGE('',*,*,#290,.T.);
#109=ORIENTED_EDGE('',*,*,#294,.T.);
#110=ORIENTED_EDGE('',*,*,#297,.T.);
#111=ORIENTED_EDGE('',*,*,#299,.T.);
#112=ORIENTED_EDGE('',*,*,#288,.F.);
#113=ORIENTED_EDGE('',*,*,#298,.F.);
#114=ORIENTED_EDGE('',*,*,#295,.F.);
#115=ORIENTED_EDGE('',*,*,#292,.F.);
#116=ORIENTED_EDGE('',*,*,#300,.T.);
#117=ORIENTED_EDGE('',*,*,#301,.F.);
#118=ORIENTED_EDGE('',*,*,#302,.F.);
#119=ORIENTED_EDGE('',*,*,#303,.T.);
#120=ORIENTED_EDGE('',*,*,#304,.T.);
#121=ORIENTED_EDGE('',*,*,#305,.F.);
#122=ORIENTED_EDGE('',*,*,#306,.F.);
#123=ORIENTED_EDGE('',*,*,#301,.T.);
#124=ORIENTED_EDGE('',*,*,#307,.T.);
#125=ORIENTED_EDGE('',*,*,#308,.F.);
#126=ORIENTED_EDGE('',*,*,#309,.F.);
#127=ORIENTED_EDGE('',*,*,#305,.T.);
#128=ORIENTED_EDGE('',*,*,#310,.T.);
#129=ORIENTED_EDGE('',*,*,#311,.F.);
#130=ORIENTED_EDGE('',*,*,#312,.F.);
#131=ORIENTED_EDGE('',*,*,#308,.T.);
#132=ORIENTED_EDGE('',*,*,#313,.T.);
#133=ORIENTED_EDGE('',*,*,#314,.F.);
#134=ORIENTED_EDGE('',*,*,#315,.F.);
#135=ORIENTED_EDGE('',*,*,#311,.T.);
#136=ORIENTED_EDGE('',*,*,#316,.T.);
#137=ORIENTED_EDGE('',*,*,#317,.F.);
#138=ORIENTED_EDGE('',*,*,#318,.F.);
#139=ORIENTED_EDGE('',*,*,#314,.T.);
#140=ORIENTED_EDGE('',*,*,#319,.T.);
#141=ORIENTED_EDGE('',*,*,#320,.F.);
#142=ORIENTED_EDGE('',*,*,#321,.F.);
#143=ORIENTED_EDGE('',*,*,#317,.T.);
#144=ORIENTED_EDGE('',*,*,#322,.T.);
#145=ORIENTED_EDGE('',*,*,#323,.F.);
#146=ORIENTED_EDGE('',*,*,#324,.F.);
#147=ORIENTED_EDGE('',*,*,#320,.T.);
#148=ORIENTED_EDGE('',*,*,#325,.T.);
#149=ORIENTED_EDGE('',*,*,#326,.F.);
#150=ORIENTED_EDGE('',*,*,#327,.F.);
#151=ORIENTED_EDGE('',*,*,#323,.T.);
#152=ORIENTED_EDGE('',*,*,#328,.T.);
#153=ORIENTED_EDGE('',*,*,#329,.F.);
#154=ORIENTED_EDGE('',*,*,#330,.F.);
#155=ORIENTED_EDGE('',*,*,#326,.T.);
#156=ORIENTED_EDGE('',*,*,#331,.T.);
#157=ORIENTED_EDGE('',*,*,#332,.F.);
#158=ORIENTED_EDGE('',*,*,#333,.F.);
#159=ORIENTED_EDGE('',*,*,#329,.T.);
#160=ORIENTED_EDGE('',*,*,#334,.T.);
#161=ORIENTED_EDGE('',*,*,#335,.F.);
#162=ORIENTED_EDGE('',*,*,#336,.F.);
#163=ORIENTED_EDGE('',*,*,#332,.T.);
#164=ORIENTED_EDGE('',*,*,#337,.T.);
#165=ORIENTED_EDGE('',*,*,#338,.F.);
#166=ORIENTED_EDGE('',*,*,#339,.F.);
#167=ORIENTED_EDGE('',*,*,#335,.T.);
#168=ORIENTED_EDGE('',*,*,#340,.T.);
#169=ORIENTED_EDGE('',*,*,#341,.F.);
#170=ORIENTED_EDGE('',*,*,#342,.F.);
#171=ORIENTED_EDGE('',*,*,#338,.T.);
#172=ORIENTED_EDGE('',*,*,#343,.T.);
#173=ORIENTED_EDGE('',*,*,#344,.F.);
#174=ORIENTED_EDGE('',*,*,#345,.F.);
#175=ORIENTED_EDGE('',*,*,#341,.T.);
#176=ORIENTED_EDGE('',*,*,#346,.T.);
#177=ORIENTED_EDGE('',*,*,#347,.F.);
#178=ORIENTED_EDGE('',*,*,#348,.F.);
#179=ORIENTED_EDGE('',*,*,#344,.T.);
#180=ORIENTED_EDGE('',*,*,#349,.T.);
#181=ORIENTED_EDGE('',*,*,#350,.F.);
#182=ORIENTED_EDGE('',*,*,#351,.F.);
#183=ORIENTED_EDGE('',*,*,#347,.T.);
#184=ORIENTED_EDGE('',*,*,#352,.T.);
#185=ORIENTED_EDGE('',*,*,#353,.F.);
#186=ORIENTED_EDGE('',*,*,#354,.F.);
#187=ORIENTED_EDGE('',*,*,#350,.T.);
#188=ORIENTED_EDGE('',*,*,#355,.T.);
#189=ORIENTED_EDGE('',*,*,#356,.F.);
#190=ORIENTED_EDGE('',*,*,#357,.F.);
#191=ORIENTED_EDGE('',*,*,#353,.T.);
#192=ORIENTED_EDGE('',*,*,#358,.T.);
#193=ORIENTED_EDGE('',*,*,#359,.F.);
#194=ORIENTED_EDGE('',*,*,#360,.F.);
#195=ORIENTED_EDGE('',*,*,#356,.T.);
#196=ORIENTED_EDGE('',*,*,#361,.T.);
#197=ORIENTED_EDGE('',*,*,#362,.F.);
#198=ORIENTED_EDGE('',*,*,#363,.F.);
#199=ORIENTED_EDGE('',*,*,#359,.T.);
#200=ORIENTED_EDGE('',*,*,#364,.T.);
#201=ORIENTED_EDGE('',*,*,#365,.F.);
#202=ORIENTED_EDGE('',*,*,#366,.T.);
#203=ORIENTED_EDGE('',*,*,#367,.F.);
#204=ORIENTED_EDGE('',*,*,#368,.T.);
#205=ORIENTED_EDGE('',*,*,#369,.F.);
#206=ORIENTED_EDGE('',*,*,#370,.T.);
#207=ORIENTED_EDGE('',*,*,#303,.F.);
#208=ORIENTED_EDGE('',*,*,#371,.F.);
#209=ORIENTED_EDGE('',*,*,#362,.T.);
#210=ORIENTED_EDGE('',*,*,#372,.T.);
#211=ORIENTED_EDGE('',*,*,#373,.F.);
#212=ORIENTED_EDGE('',*,*,#302,.T.);
#213=ORIENTED_EDGE('',*,*,#306,.T.);
#214=ORIENTED_EDGE('',*,*,#309,.T.);
#215=ORIENTED_EDGE('',*,*,#312,.T.);
#216=ORIENTED_EDGE('',*,*,#315,.T.);
#217=ORIENTED_EDGE('',*,*,#318,.T.);
#218=ORIENTED_EDGE('',*,*,#321,.T.);
#219=ORIENTED_EDGE('',*,*,#324,.T.);
#220=ORIENTED_EDGE('',*,*,#327,.T.);
#221=ORIENTED_EDGE('',*,*,#330,.T.);
#222=ORIENTED_EDGE('',*,*,#333,.T.);
#223=ORIENTED_EDGE('',*,*,#336,.T.);
#224=ORIENTED_EDGE('',*,*,#339,.T.);
#225=ORIENTED_EDGE('',*,*,#342,.T.);
#226=ORIENTED_EDGE('',*,*,#345,.T.);
#227=ORIENTED_EDGE('',*,*,#348,.T.);
#228=ORIENTED_EDGE('',*,*,#351,.T.);
#229=ORIENTED_EDGE('',*,*,#354,.T.);
#230=ORIENTED_EDGE('',*,*,#357,.T.);
#231=ORIENTED_EDGE('',*,*,#360,.T.);
#232=ORIENTED_EDGE('',*,*,#363,.T.);
#233=ORIENTED_EDGE('',*,*,#371,.T.);
#234=ORIENTED_EDGE('',*,*,#368,.F.);
#235=ORIENTED_EDGE('',*,*,#366,.F.);
#236=ORIENTED_EDGE('',*,*,#364,.F.);
#237=ORIENTED_EDGE('',*,*,#372,.F.);
#238=ORIENTED_EDGE('',*,*,#300,.F.);
#239=ORIENTED_EDGE('',*,*,#370,.F.);
#240=ORIENTED_EDGE('',*,*,#361,.F.);
#241=ORIENTED_EDGE('',*,*,#358,.F.);
#242=ORIENTED_EDGE('',*,*,#355,.F.);
#243=ORIENTED_EDGE('',*,*,#352,.F.);
#244=ORIENTED_EDGE('',*,*,#349,.F.);
#245=ORIENTED_EDGE('',*,*,#346,.F.);
#246=ORIENTED_EDGE('',*,*,#343,.F.);
#247=ORIENTED_EDGE('',*,*,#340,.F.);
#248=ORIENTED_EDGE('',*,*,#337,.F.);
#249=ORIENTED_EDGE('',*,*,#334,.F.);
#250=ORIENTED_EDGE('',*,*,#331,.F.);
#251=ORIENTED_EDGE('',*,*,#328,.F.);
#252=ORIENTED_EDGE('',*,*,#325,.F.);
#253=ORIENTED_EDGE('',*,*,#322,.F.);
#254=ORIENTED_EDGE('',*,*,#319,.F.);
#255=ORIENTED_EDGE('',*,*,#316,.F.);
#256=ORIENTED_EDGE('',*,*,#313,.F.);
#257=ORIENTED_EDGE('',*,*,#310,.F.);
#258=ORIENTED_EDGE('',*,*,#307,.F.);
#259=ORIENTED_EDGE('',*,*,#304,.F.);
#260=ORIENTED_EDGE('',*,*,#369,.T.);
#261=ORIENTED_EDGE('',*,*,#367,.T.);
#262=ORIENTED_EDGE('',*,*,#365,.T.);
#263=ORIENTED_EDGE('',*,*,#373,.T.);
#264=EDGE_CURVE('',#374,#375,#450,.T.);
#265=EDGE_CURVE('',#376,#375,#451,.T.);
#266=EDGE_CURVE('',#377,#376,#452,.T.);
#267=EDGE_CURVE('',#377,#374,#453,.T.);
#268=EDGE_CURVE('',#375,#378,#454,.T.);
#269=EDGE_CURVE('',#379,#378,#455,.T.);
#270=EDGE_CURVE('',#376,#379,#456,.T.);
#271=EDGE_CURVE('',#378,#380,#457,.T.);
#272=EDGE_CURVE('',#381,#380,#458,.T.);
#273=EDGE_CURVE('',#379,#381,#459,.T.);
#274=EDGE_CURVE('',#380,#374,#460,.T.);
#275=EDGE_CURVE('',#381,#377,#461,.T.);
#276=EDGE_CURVE('',#382,#383,#462,.T.);
#277=EDGE_CURVE('',#384,#382,#463,.T.);
#278=EDGE_CURVE('',#385,#384,#464,.T.);
#279=EDGE_CURVE('',#383,#385,#465,.T.);
#280=EDGE_CURVE('',#386,#387,#466,.T.);
#281=EDGE_CURVE('',#382,#386,#467,.T.);
#282=EDGE_CURVE('',#383,#387,#468,.T.);
#283=EDGE_CURVE('',#387,#388,#469,.T.);
#284=EDGE_CURVE('',#385,#388,#470,.T.);
#285=EDGE_CURVE('',#388,#389,#471,.T.);
#286=EDGE_CURVE('',#384,#389,#472,.T.);
#287=EDGE_CURVE('',#389,#386,#473,.T.);
#288=EDGE_CURVE('',#390,#391,#474,.T.);
#289=EDGE_CURVE('',#392,#391,#475,.T.);
#290=EDGE_CURVE('',#393,#392,#476,.T.);
#291=EDGE_CURVE('',#393,#390,#477,.T.);
#292=EDGE_CURVE('',#391,#394,#478,.T.);
#293=EDGE_CURVE('',#395,#394,#479,.T.);
#294=EDGE_CURVE('',#392,#395,#480,.T.);
#295=EDGE_CURVE('',#394,#396,#481,.T.);
#296=EDGE_CURVE('',#397,#396,#482,.T.);
#297=EDGE_CURVE('',#395,#397,#483,.T.);
#298=EDGE_CURVE('',#396,#390,#484,.T.);
#299=EDGE_CURVE('',#397,#393,#485,.T.);
#300=EDGE_CURVE('',#398,#399,#10,.T.);
#301=EDGE_CURVE('',#400,#399,#486,.T.);
#302=EDGE_CURVE('',#401,#400,#11,.T.);
#303=EDGE_CURVE('',#401,#398,#487,.T.);
#304=EDGE_CURVE('',#399,#402,#488,.T.);
#305=EDGE_CURVE('',#403,#402,#489,.T.);
#306=EDGE_CURVE('',#400,#403,#490,.T.);
#307=EDGE_CURVE('',#402,#404,#12,.T.);
#308=EDGE_CURVE('',#405,#404,#491,.T.);
#309=EDGE_CURVE('',#403,#405,#13,.T.);
#310=EDGE_CURVE('',#404,#406,#492,.T.);
#311=EDGE_CURVE('',#407,#406,#493,.T.);
#312=EDGE_CURVE('',#405,#407,#494,.T.);
#313=EDGE_CURVE('',#406,#408,#495,.T.);
#314=EDGE_CURVE('',#409,#408,#496,.T.);
#315=EDGE_CURVE('',#407,#409,#497,.T.);
#316=EDGE_CURVE('',#408,#410,#498,.T.);
#317=EDGE_CURVE('',#411,#410,#499,.T.);
#318=EDGE_CURVE('',#409,#411,#500,.T.);
#319=EDGE_CURVE('',#410,#412,#501,.T.);
#320=EDGE_CURVE('',#413,#412,#502,.T.);
#321=EDGE_CURVE('',#411,#413,#503,.T.);
#322=EDGE_CURVE('',#412,#414,#504,.T.);
#323=EDGE_CURVE('',#415,#414,#505,.T.);
#324=EDGE_CURVE('',#413,#415,#506,.T.);
#325=EDGE_CURVE('',#414,#416,#14,.T.);
#326=EDGE_CURVE('',#417,#416,#507,.T.);
#327=EDGE_CURVE('',#415,#417,#15,.T.);
#328=EDGE_CURVE('',#416,#418,#508,.T.);
#329=EDGE_CURVE('',#419,#418,#509,.T.);
#330=EDGE_CURVE('',#417,#419,#510,.T.);
#331=EDGE_CURVE('',#418,#420,#16,.T.);
#332=EDGE_CURVE('',#421,#420,#511,.T.);
#333=EDGE_CURVE('',#419,#421,#17,.T.);
#334=EDGE_CURVE('',#420,#422,#512,.T.);
#335=EDGE_CURVE('',#423,#422,#513,.T.);
#336=EDGE_CURVE('',#421,#423,#514,.T.);
#337=EDGE_CURVE('',#422,#424,#515,.T.);
#338=EDGE_CURVE('',#425,#424,#516,.T.);
#339=EDGE_CURVE('',#423,#425,#517,.T.);
#340=EDGE_CURVE('',#424,#426,#518,.T.);
#341=EDGE_CURVE('',#427,#426,#519,.T.);
#342=EDGE_CURVE('',#425,#427,#520,.T.);
#343=EDGE_CURVE('',#426,#428,#521,.T.);
#344=EDGE_CURVE('',#429,#428,#522,.T.);
#345=EDGE_CURVE('',#427,#429,#523,.T.);
#346=EDGE_CURVE('',#428,#430,#524,.T.);
#347=EDGE_CURVE('',#431,#430,#525,.T.);
#348=EDGE_CURVE('',#429,#431,#526,.T.);
#349=EDGE_CURVE('',#430,#432,#18,.T.);
#350=EDGE_CURVE('',#433,#432,#527,.T.);
#351=EDGE_CURVE('',#431,#433,#19,.T.);
#352=EDGE_CURVE('',#432,#434,#528,.T.);
#353=EDGE_CURVE('',#435,#434,#529,.T.);
#354=EDGE_CURVE('',#433,#435,#530,.T.);
#355=EDGE_CURVE('',#434,#436,#531,.T.);
#356=EDGE_CURVE('',#437,#436,#532,.T.);
#357=EDGE_CURVE('',#435,#437,#533,.T.);
#358=EDGE_CURVE('',#436,#438,#534,.T.);
#359=EDGE_CURVE('',#439,#438,#535,.T.);
#360=EDGE_CURVE('',#437,#439,#536,.T.);
#361=EDGE_CURVE('',#438,#440,#537,.T.);
#362=EDGE_CURVE('',#441,#440,#538,.T.);
#363=EDGE_CURVE('',#439,#441,#539,.T.);
#364=EDGE_CURVE('',#442,#442,#20,.T.);
#365=EDGE_CURVE('',#443,#443,#21,.T.);
#366=EDGE_CURVE('',#444,#444,#22,.T.);
#367=EDGE_CURVE('',#445,#445,#23,.T.);
#368=EDGE_CURVE('',#446,#446,#24,.T.);
#369=EDGE_CURVE('',#447,#447,#25,.T.);
#370=EDGE_CURVE('',#440,#398,#26,.T.);
#371=EDGE_CURVE('',#441,#401,#27,.T.);
#372=EDGE_CURVE('',#448,#448,#28,.T.);
#373=EDGE_CURVE('',#449,#449,#29,.T.);
#374=VERTEX_POINT('',#1149);
#375=VERTEX_POINT('',#1150);
#376=VERTEX_POINT('',#1152);
#377=VERTEX_POINT('',#1154);
#378=VERTEX_POINT('',#1158);
#379=VERTEX_POINT('',#1160);
#380=VERTEX_POINT('',#1164);
#381=VERTEX_POINT('',#1166);
#382=VERTEX_POINT('',#1173);
#383=VERTEX_POINT('',#1174);
#384=VERTEX_POINT('',#1176);
#385=VERTEX_POINT('',#1178);
#386=VERTEX_POINT('',#1183);
#387=VERTEX_POINT('',#1184);
#388=VERTEX_POINT('',#1189);
#389=VERTEX_POINT('',#1193);
#390=VERTEX_POINT('',#1200);
#391=VERTEX_POINT('',#1201);
#392=VERTEX_POINT('',#1203);
#393=VERTEX_POINT('',#1205);
#394=VERTEX_POINT('',#1209);
#395=VERTEX_POINT('',#1211);
#396=VERTEX_POINT('',#1215);
#397=VERTEX_POINT('',#1217);
#398=VERTEX_POINT('',#1226);
#399=VERTEX_POINT('',#1227);
#400=VERTEX_POINT('',#1229);
#401=VERTEX_POINT('',#1231);
#402=VERTEX_POINT('',#1235);
#403=VERTEX_POINT('',#1237);
#404=VERTEX_POINT('',#1241);
#405=VERTEX_POINT('',#1243);
#406=VERTEX_POINT('',#1247);
#407=VERTEX_POINT('',#1249);
#408=VERTEX_POINT('',#1253);
#409=VERTEX_POINT('',#1255);
#410=VERTEX_POINT('',#1259);
#411=VERTEX_POINT('',#1261);
#412=VERTEX_POINT('',#1265);
#413=VERTEX_POINT('',#1267);
#414=VERTEX_POINT('',#1271);
#415=VERTEX_POINT('',#1273);
#416=VERTEX_POINT('',#1277);
#417=VERTEX_POINT('',#1279);
#418=VERTEX_POINT('',#1283);
#419=VERTEX_POINT('',#1285);
#420=VERTEX_POINT('',#1289);
#421=VERTEX_POINT('',#1291);
#422=VERTEX_POINT('',#1295);
#423=VERTEX_POINT('',#1297);
#424=VERTEX_POINT('',#1301);
#425=VERTEX_POINT('',#1303);
#426=VERTEX_POINT('',#1307);
#427=VERTEX_POINT('',#1309);
#428=VERTEX_POINT('',#1313);
#429=VERTEX_POINT('',#1315);
#430=VERTEX_POINT('',#1319);
#431=VERTEX_POINT('',#1321);
#432=VERTEX_POINT('',#1325);
#433=VERTEX_POINT('',#1327);
#434=VERTEX_POINT('',#1331);
#435=VERTEX_POINT('',#1333);
#436=VERTEX_POINT('',#1337);
#437=VERTEX_POINT('',#1339);
#438=VERTEX_POINT('',#1343);
#439=VERTEX_POINT('',#1345);
#440=VERTEX_POINT('',#1349);
#441=VERTEX_POINT('',#1351);
#442=VERTEX_POINT('',#1355);
#443=VERTEX_POINT('',#1357);
#444=VERTEX_POINT('',#1360);
#445=VERTEX_POINT('',#1362);
#446=VERTEX_POINT('',#1365);
#447=VERTEX_POINT('',#1367);
#448=VERTEX_POINT('',#1373);
#449=VERTEX_POINT('',#1375);
#450=LINE('',#1148,#540);
#451=LINE('',#1151,#541);
#452=LINE('',#1153,#542);
#453=LINE('',#1155,#543);
#454=LINE('',#1157,#544);
#455=LINE('',#1159,#545);
#456=LINE('',#1161,#546);
#457=LINE('',#1163,#547);
#458=LINE('',#1165,#548);
#459=LINE('',#1167,#549);
#460=LINE('',#1169,#550);
#461=LINE('',#1170,#551);
#462=LINE('',#1172,#552);
#463=LINE('',#1175,#553);
#464=LINE('',#1177,#554);
#465=LINE('',#1179,#555);
#466=LINE('',#1182,#556);
#467=LINE('',#1185,#557);
#468=LINE('',#1186,#558);
#469=LINE('',#1188,#559);
#470=LINE('',#1190,#560);
#471=LINE('',#1192,#561);
#472=LINE('',#1194,#562);
#473=LINE('',#1196,#563);
#474=LINE('',#1199,#564);
#475=LINE('',#1202,#565);
#476=LINE('',#1204,#566);
#477=LINE('',#1206,#567);
#478=LINE('',#1208,#568);
#479=LINE('',#1210,#569);
#480=LINE('',#1212,#570);
#481=LINE('',#1214,#571);
#482=LINE('',#1216,#572);
#483=LINE('',#1218,#573);
#484=LINE('',#1220,#574);
#485=LINE('',#1221,#575);
#486=LINE('',#1228,#576);
#487=LINE('',#1232,#577);
#488=LINE('',#1234,#578);
#489=LINE('',#1236,#579);
#490=LINE('',#1238,#580);
#491=LINE('',#1242,#581);
#492=LINE('',#1246,#582);
#493=LINE('',#1248,#583);
#494=LINE('',#1250,#584);
#495=LINE('',#1252,#585);
#496=LINE('',#1254,#586);
#497=LINE('',#1256,#587);
#498=LINE('',#1258,#588);
#499=LINE('',#1260,#589);
#500=LINE('',#1262,#590);
#501=LINE('',#1264,#591);
#502=LINE('',#1266,#592);
#503=LINE('',#1268,#593);
#504=LINE('',#1270,#594);
#505=LINE('',#1272,#595);
#506=LINE('',#1274,#596);
#507=LINE('',#1278,#597);
#508=LINE('',#1282,#598);
#509=LINE('',#1284,#599);
#510=LINE('',#1286,#600);
#511=LINE('',#1290,#601);
#512=LINE('',#1294,#602);
#513=LINE('',#1296,#603);
#514=LINE('',#1298,#604);
#515=LINE('',#1300,#605);
#516=LINE('',#1302,#606);
#517=LINE('',#1304,#607);
#518=LINE('',#1306,#608);
#519=LINE('',#1308,#609);
#520=LINE('',#1310,#610);
#521=LINE('',#1312,#611);
#522=LINE('',#1314,#612);
#523=LINE('',#1316,#613);
#524=LINE('',#1318,#614);
#525=LINE('',#1320,#615);
#526=LINE('',#1322,#616);
#527=LINE('',#1326,#617);
#528=LINE('',#1330,#618);
#529=LINE('',#1332,#619);
#530=LINE('',#1334,#620);
#531=LINE('',#1336,#621);
#532=LINE('',#1338,#622);
#533=LINE('',#1340,#623);
#534=LINE('',#1342,#624);
#535=LINE('',#1344,#625);
#536=LINE('',#1346,#626);
#537=LINE('',#1348,#627);
#538=LINE('',#1350,#628);
#539=LINE('',#1352,#629);
#540=VECTOR('',#928,1000.);
#541=VECTOR('',#929,1000.);
#542=VECTOR('',#930,1000.);
#543=VECTOR('',#931,1000.);
#544=VECTOR('',#934,1000.);
#545=VECTOR('',#935,1000.);
#546=VECTOR('',#936,1000.);
#547=VECTOR('',#939,1000.);
#548=VECTOR('',#940,1000.);
#549=VECTOR('',#941,1000.);
#550=VECTOR('',#944,1000.);
#551=VECTOR('',#945,1000.);
#552=VECTOR('',#948,1000.);
#553=VECTOR('',#949,1000.);
#554=VECTOR('',#950,1000.);
#555=VECTOR('',#951,1000.);
#556=VECTOR('',#956,1000.);
#557=VECTOR('',#957,1000.);
#558=VECTOR('',#958,1000.);
#559=VECTOR('',#961,1000.);
#560=VECTOR('',#962,1000.);
#561=VECTOR('',#965,1000.);
#562=VECTOR('',#966,1000.);
#563=VECTOR('',#969,1000.);
#564=VECTOR('',#974,1000.);
#565=VECTOR('',#975,1000.);
#566=VECTOR('',#976,1000.);
#567=VECTOR('',#977,1000.);
#568=VECTOR('',#980,1000.);
#569=VECTOR('',#981,1000.);
#570=VECTOR('',#982,1000.);
#571=VECTOR('',#985,1000.);
#572=VECTOR('',#986,1000.);
#573=VECTOR('',#987,1000.);
#574=VECTOR('',#990,1000.);
#575=VECTOR('',#991,1000.);
#576=VECTOR('',#1000,1000.);
#577=VECTOR('',#1003,1000.);
#578=VECTOR('',#1006,1000.);
#579=VECTOR('',#1007,1000.);
#580=VECTOR('',#1008,1000.);
#581=VECTOR('',#1013,1000.);
#582=VECTOR('',#1018,1000.);
#583=VECTOR('',#1019,1000.);
#584=VECTOR('',#1020,1000.);
#585=VECTOR('',#1023,1000.);
#586=VECTOR('',#1024,1000.);
#587=VECTOR('',#1025,1000.);
#588=VECTOR('',#1028,1000.);
#589=VECTOR('',#1029,1000.);
#590=VECTOR('',#1030,1000.);
#591=VECTOR('',#1033,1000.);
#592=VECTOR('',#1034,1000.);
#593=VECTOR('',#1035,1000.);
#594=VECTOR('',#1038,1000.);
#595=VECTOR('',#1039,1000.);
#596=VECTOR('',#1040,1000.);
#597=VECTOR('',#1045,1000.);
#598=VECTOR('',#1050,1000.);
#599=VECTOR('',#1051,1000.);
#600=VECTOR('',#1052,1000.);
#601=VECTOR('',#1057,1000.);
#602=VECTOR('',#1062,1000.);
#603=VECTOR('',#1063,1000.);
#604=VECTOR('',#1064,1000.);
#605=VECTOR('',#1067,1000.);
#606=VECTOR('',#1068,1000.);
#607=VECTOR('',#1069,1000.);
#608=VECTOR('',#1072,1000.);
#609=VECTOR('',#1073,1000.);
#610=VECTOR('',#1074,1000.);
#611=VECTOR('',#1077,1000.);
#612=VECTOR('',#1078,1000.);
#613=VECTOR('',#1079,1000.);
#614=VECTOR('',#1082,1000.);
#615=VECTOR('',#1083,1000.);
#616=VECTOR('',#1084,1000.);
#617=VECTOR('',#1089,1000.);
#618=VECTOR('',#1094,1000.);
#619=VECTOR('',#1095,1000.);
#620=VECTOR('',#1096,1000.);
#621=VECTOR('',#1099,1000.);
#622=VECTOR('',#1100,1000.);
#623=VECTOR('',#1101,1000.);
#624=VECTOR('',#1104,1000.);
#625=VECTOR('',#1105,1000.);
#626=VECTOR('',#1106,1000.);
#627=VECTOR('',#1109,1000.);
#628=VECTOR('',#1110,1000.);
#629=VECTOR('',#1111,1000.);
#630=EDGE_LOOP('',(#44,#45,#46,#47));
#631=EDGE_LOOP('',(#48,#49,#50,#51));
#632=EDGE_LOOP('',(#52,#53,#54,#55));
#633=EDGE_LOOP('',(#56,#57,#58,#59));
#634=EDGE_LOOP('',(#60,#61,#62,#63));
#635=EDGE_LOOP('',(#64,#65,#66,#67));
#636=EDGE_LOOP('',(#68,#69,#70,#71));
#637=EDGE_LOOP('',(#72,#73,#74,#75));
#638=EDGE_LOOP('',(#76,#77,#78,#79));
#639=EDGE_LOOP('',(#80,#81,#82,#83));
#640=EDGE_LOOP('',(#84,#85,#86,#87));
#641=EDGE_LOOP('',(#88,#89,#90,#91));
#642=EDGE_LOOP('',(#92,#93,#94,#95));
#643=EDGE_LOOP('',(#96,#97,#98,#99));
#644=EDGE_LOOP('',(#100,#101,#102,#103));
#645=EDGE_LOOP('',(#104,#105,#106,#107));
#646=EDGE_LOOP('',(#108,#109,#110,#111));
#647=EDGE_LOOP('',(#112,#113,#114,#115));
#648=EDGE_LOOP('',(#116,#117,#118,#119));
#649=EDGE_LOOP('',(#120,#121,#122,#123));
#650=EDGE_LOOP('',(#124,#125,#126,#127));
#651=EDGE_LOOP('',(#128,#129,#130,#131));
#652=EDGE_LOOP('',(#132,#133,#134,#135));
#653=EDGE_LOOP('',(#136,#137,#138,#139));
#654=EDGE_LOOP('',(#140,#141,#142,#143));
#655=EDGE_LOOP('',(#144,#145,#146,#147));
#656=EDGE_LOOP('',(#148,#149,#150,#151));
#657=EDGE_LOOP('',(#152,#153,#154,#155));
#658=EDGE_LOOP('',(#156,#157,#158,#159));
#659=EDGE_LOOP('',(#160,#161,#162,#163));
#660=EDGE_LOOP('',(#164,#165,#166,#167));
#661=EDGE_LOOP('',(#168,#169,#170,#171));
#662=EDGE_LOOP('',(#172,#173,#174,#175));
#663=EDGE_LOOP('',(#176,#177,#178,#179));
#664=EDGE_LOOP('',(#180,#181,#182,#183));
#665=EDGE_LOOP('',(#184,#185,#186,#187));
#666=EDGE_LOOP('',(#188,#189,#190,#191));
#667=EDGE_LOOP('',(#192,#193,#194,#195));
#668=EDGE_LOOP('',(#196,#197,#198,#199));
#669=EDGE_LOOP('',(#200));
#670=EDGE_LOOP('',(#201));
#671=EDGE_LOOP('',(#202));
#672=EDGE_LOOP('',(#203));
#673=EDGE_LOOP('',(#204));
#674=EDGE_LOOP('',(#205));
#675=EDGE_LOOP('',(#206,#207,#208,#209));
#676=EDGE_LOOP('',(#210));
#677=EDGE_LOOP('',(#211));
#678=EDGE_LOOP('',(#212,#213,#214,#215,#216,#217,#218,#219,#220,#221,#222,
#223,#224,#225,#226,#227,#228,#229,#230,#231,#232,#233));
#679=EDGE_LOOP('',(#234));
#680=EDGE_LOOP('',(#235));
#681=EDGE_LOOP('',(#236));
#682=EDGE_LOOP('',(#237));
#683=EDGE_LOOP('',(#238,#239,#240,#241,#242,#243,#244,#245,#246,#247,#248,
#249,#250,#251,#252,#253,#254,#255,#256,#257,#258,#259));
#684=EDGE_LOOP('',(#260));
#685=EDGE_LOOP('',(#261));
#686=EDGE_LOOP('',(#262));
#687=EDGE_LOOP('',(#263));
#688=FACE_BOUND('',#630,.T.);
#689=FACE_BOUND('',#631,.T.);
#690=FACE_BOUND('',#632,.T.);
#691=FACE_BOUND('',#633,.T.);
#692=FACE_BOUND('',#634,.T.);
#693=FACE_BOUND('',#635,.T.);
#694=FACE_BOUND('',#636,.T.);
#695=FACE_BOUND('',#637,.T.);
#696=FACE_BOUND('',#638,.T.);
#697=FACE_BOUND('',#639,.T.);
#698=FACE_BOUND('',#640,.T.);
#699=FACE_BOUND('',#641,.T.);
#700=FACE_BOUND('',#642,.T.);
#701=FACE_BOUND('',#643,.T.);
#702=FACE_BOUND('',#644,.T.);
#703=FACE_BOUND('',#645,.T.);
#704=FACE_BOUND('',#646,.T.);
#705=FACE_BOUND('',#647,.T.);
#706=FACE_BOUND('',#648,.T.);
#707=FACE_BOUND('',#649,.T.);
#708=FACE_BOUND('',#650,.T.);
#709=FACE_BOUND('',#651,.T.);
#710=FACE_BOUND('',#652,.T.);
#711=FACE_BOUND('',#653,.T.);
#712=FACE_BOUND('',#654,.T.);
#713=FACE_BOUND('',#655,.T.);
#714=FACE_BOUND('',#656,.T.);
#715=FACE_BOUND('',#657,.T.);
#716=FACE_BOUND('',#658,.T.);
#717=FACE_BOUND('',#659,.T.);
#718=FACE_BOUND('',#660,.T.);
#719=FACE_BOUND('',#661,.T.);
#720=FACE_BOUND('',#662,.T.);
#721=FACE_BOUND('',#663,.T.);
#722=FACE_BOUND('',#664,.T.);
#723=FACE_BOUND('',#665,.T.);
#724=FACE_BOUND('',#666,.T.);
#725=FACE_BOUND('',#667,.T.);
#726=FACE_BOUND('',#668,.T.);
#727=FACE_BOUND('',#669,.T.);
#728=FACE_BOUND('',#670,.T.);
#729=FACE_BOUND('',#671,.T.);
#730=FACE_BOUND('',#672,.T.);
#731=FACE_BOUND('',#673,.T.);
#732=FACE_BOUND('',#674,.T.);
#733=FACE_BOUND('',#675,.T.);
#734=FACE_BOUND('',#676,.T.);
#735=FACE_BOUND('',#677,.T.);
#736=FACE_BOUND('',#678,.T.);
#737=FACE_BOUND('',#679,.T.);
#738=FACE_BOUND('',#680,.T.);
#739=FACE_BOUND('',#681,.T.);
#740=FACE_BOUND('',#682,.T.);
#741=FACE_BOUND('',#683,.T.);
#742=FACE_BOUND('',#684,.T.);
#743=FACE_BOUND('',#685,.T.);
#744=FACE_BOUND('',#686,.T.);
#745=FACE_BOUND('',#687,.T.);
#746=PLANE('',#859);
#747=PLANE('',#860);
#748=PLANE('',#861);
#749=PLANE('',#862);
#750=PLANE('',#863);
#751=PLANE('',#864);
#752=PLANE('',#865);
#753=PLANE('',#866);
#754=PLANE('',#867);
#755=PLANE('',#868);
#756=PLANE('',#869);
#757=PLANE('',#870);
#758=PLANE('',#871);
#759=PLANE('',#872);
#760=PLANE('',#873);
#761=PLANE('',#874);
#762=PLANE('',#875);
#763=PLANE('',#879);
#764=PLANE('',#883);
#765=PLANE('',#884);
#766=PLANE('',#885);
#767=PLANE('',#886);
#768=PLANE('',#887);
#769=PLANE('',#891);
#770=PLANE('',#895);
#771=PLANE('',#896);
#772=PLANE('',#897);
#773=PLANE('',#898);
#774=PLANE('',#899);
#775=PLANE('',#903);
#776=PLANE('',#904);
#777=PLANE('',#905);
#778=PLANE('',#906);
#779=PLANE('',#922);
#780=PLANE('',#923);
#781=ADVANCED_FACE('',(#688),#746,.F.);
#782=ADVANCED_FACE('',(#689),#747,.F.);
#783=ADVANCED_FACE('',(#690),#748,.F.);
#784=ADVANCED_FACE('',(#691),#749,.F.);
#785=ADVANCED_FACE('',(#692,#693),#750,.T.);
#786=ADVANCED_FACE('',(#694),#751,.F.);
#787=ADVANCED_FACE('',(#695),#752,.T.);
#788=ADVANCED_FACE('',(#696),#753,.T.);
#789=ADVANCED_FACE('',(#697),#754,.T.);
#790=ADVANCED_FACE('',(#698),#755,.T.);
#791=ADVANCED_FACE('',(#699),#756,.T.);
#792=ADVANCED_FACE('',(#700),#757,.F.);
#793=ADVANCED_FACE('',(#701),#758,.F.);
#794=ADVANCED_FACE('',(#702),#759,.F.);
#795=ADVANCED_FACE('',(#703),#760,.F.);
#796=ADVANCED_FACE('',(#704),#761,.T.);
#797=ADVANCED_FACE('',(#705),#762,.F.);
#798=ADVANCED_FACE('',(#706),#30,.T.);
#799=ADVANCED_FACE('',(#707),#763,.F.);
#800=ADVANCED_FACE('',(#708),#31,.T.);
#801=ADVANCED_FACE('',(#709),#764,.F.);
#802=ADVANCED_FACE('',(#710),#765,.F.);
#803=ADVANCED_FACE('',(#711),#766,.F.);
#804=ADVANCED_FACE('',(#712),#767,.F.);
#805=ADVANCED_FACE('',(#713),#768,.F.);
#806=ADVANCED_FACE('',(#714),#32,.F.);
#807=ADVANCED_FACE('',(#715),#769,.F.);
#808=ADVANCED_FACE('',(#716),#33,.T.);
#809=ADVANCED_FACE('',(#717),#770,.F.);
#810=ADVANCED_FACE('',(#718),#771,.F.);
#811=ADVANCED_FACE('',(#719),#772,.F.);
#812=ADVANCED_FACE('',(#720),#773,.F.);
#813=ADVANCED_FACE('',(#721),#774,.F.);
#814=ADVANCED_FACE('',(#722),#34,.T.);
#815=ADVANCED_FACE('',(#723),#775,.F.);
#816=ADVANCED_FACE('',(#724),#776,.F.);
#817=ADVANCED_FACE('',(#725),#777,.F.);
#818=ADVANCED_FACE('',(#726),#778,.F.);
#819=ADVANCED_FACE('',(#727,#728),#35,.F.);
#820=ADVANCED_FACE('',(#729,#730),#36,.F.);
#821=ADVANCED_FACE('',(#731,#732),#37,.F.);
#822=ADVANCED_FACE('',(#733),#38,.F.);
#823=ADVANCED_FACE('',(#734,#735),#39,.F.);
#824=ADVANCED_FACE('',(#736,#737,#738,#739,#740),#779,.T.);
#825=ADVANCED_FACE('',(#741,#742,#743,#744,#745),#780,.F.);
#826=CLOSED_SHELL('',(#781,#782,#783,#784,#785,#786,#787,#788,#789,#790,
#791));
#827=CLOSED_SHELL('',(#792,#793,#794,#795,#796,#797));
#828=CLOSED_SHELL('',(#798,#799,#800,#801,#802,#803,#804,#805,#806,#807,
#808,#809,#810,#811,#812,#813,#814,#815,#816,#817,#818,#819,#820,#821,#822,
#823,#824,#825));
#829=STYLED_ITEM('',(#832),#853);
#830=STYLED_ITEM('',(#833),#854);
#831=STYLED_ITEM('',(#834),#855);
#832=PRESENTATION_STYLE_ASSIGNMENT((#835));
#833=PRESENTATION_STYLE_ASSIGNMENT((#836));
#834=PRESENTATION_STYLE_ASSIGNMENT((#837));
#835=SURFACE_STYLE_USAGE(.BOTH.,#838);
#836=SURFACE_STYLE_USAGE(.BOTH.,#839);
#837=SURFACE_STYLE_USAGE(.BOTH.,#840);
#838=SURFACE_SIDE_STYLE('',(#841));
#839=SURFACE_SIDE_STYLE('',(#842));
#840=SURFACE_SIDE_STYLE('',(#843,#40));
#841=SURFACE_STYLE_FILL_AREA(#844);
#842=SURFACE_STYLE_FILL_AREA(#845);
#843=SURFACE_STYLE_FILL_AREA(#846);
#844=FILL_AREA_STYLE('',(#847));
#845=FILL_AREA_STYLE('',(#848));
#846=FILL_AREA_STYLE('',(#849));
#847=FILL_AREA_STYLE_COLOUR('',#850);
#848=FILL_AREA_STYLE_COLOUR('',#851);
#849=FILL_AREA_STYLE_COLOUR('',#852);
#850=COLOUR_RGB('',0.8,0.8,0.8);
#851=COLOUR_RGB('',0.298039215686275,0.298039215686275,0.298039215686275);
#852=COLOUR_RGB('',0.,0.674509803921569,0.396078431372549);
#853=MANIFOLD_SOLID_BREP('Extrude (5)',#826);
#854=MANIFOLD_SOLID_BREP('Extrude (4)',#827);
#855=MANIFOLD_SOLID_BREP('Extrude (2)',#828);
#856=SHAPE_DEFINITION_REPRESENTATION(#1384,#857);
#857=SHAPE_REPRESENTATION('E05R',(#858),#1379);
#858=AXIS2_PLACEMENT_3D('',#1146,#924,#925);
#859=AXIS2_PLACEMENT_3D('',#1147,#926,#927);
#860=AXIS2_PLACEMENT_3D('',#1156,#932,#933);
#861=AXIS2_PLACEMENT_3D('',#1162,#937,#938);
#862=AXIS2_PLACEMENT_3D('',#1168,#942,#943);
#863=AXIS2_PLACEMENT_3D('',#1171,#946,#947);
#864=AXIS2_PLACEMENT_3D('',#1180,#952,#953);
#865=AXIS2_PLACEMENT_3D('',#1181,#954,#955);
#866=AXIS2_PLACEMENT_3D('',#1187,#959,#960);
#867=AXIS2_PLACEMENT_3D('',#1191,#963,#964);
#868=AXIS2_PLACEMENT_3D('',#1195,#967,#968);
#869=AXIS2_PLACEMENT_3D('',#1197,#970,#971);
#870=AXIS2_PLACEMENT_3D('',#1198,#972,#973);
#871=AXIS2_PLACEMENT_3D('',#1207,#978,#979);
#872=AXIS2_PLACEMENT_3D('',#1213,#983,#984);
#873=AXIS2_PLACEMENT_3D('',#1219,#988,#989);
#874=AXIS2_PLACEMENT_3D('',#1222,#992,#993);
#875=AXIS2_PLACEMENT_3D('',#1223,#994,#995);
#876=AXIS2_PLACEMENT_3D('',#1224,#996,#997);
#877=AXIS2_PLACEMENT_3D('',#1225,#998,#999);
#878=AXIS2_PLACEMENT_3D('',#1230,#1001,#1002);
#879=AXIS2_PLACEMENT_3D('',#1233,#1004,#1005);
#880=AXIS2_PLACEMENT_3D('',#1239,#1009,#1010);
#881=AXIS2_PLACEMENT_3D('',#1240,#1011,#1012);
#882=AXIS2_PLACEMENT_3D('',#1244,#1014,#1015);
#883=AXIS2_PLACEMENT_3D('',#1245,#1016,#1017);
#884=AXIS2_PLACEMENT_3D('',#1251,#1021,#1022);
#885=AXIS2_PLACEMENT_3D('',#1257,#1026,#1027);
#886=AXIS2_PLACEMENT_3D('',#1263,#1031,#1032);
#887=AXIS2_PLACEMENT_3D('',#1269,#1036,#1037);
#888=AXIS2_PLACEMENT_3D('',#1275,#1041,#1042);
#889=AXIS2_PLACEMENT_3D('',#1276,#1043,#1044);
#890=AXIS2_PLACEMENT_3D('',#1280,#1046,#1047);
#891=AXIS2_PLACEMENT_3D('',#1281,#1048,#1049);
#892=AXIS2_PLACEMENT_3D('',#1287,#1053,#1054);
#893=AXIS2_PLACEMENT_3D('',#1288,#1055,#1056);
#894=AXIS2_PLACEMENT_3D('',#1292,#1058,#1059);
#895=AXIS2_PLACEMENT_3D('',#1293,#1060,#1061);
#896=AXIS2_PLACEMENT_3D('',#1299,#1065,#1066);
#897=AXIS2_PLACEMENT_3D('',#1305,#1070,#1071);
#898=AXIS2_PLACEMENT_3D('',#1311,#1075,#1076);
#899=AXIS2_PLACEMENT_3D('',#1317,#1080,#1081);
#900=AXIS2_PLACEMENT_3D('',#1323,#1085,#1086);
#901=AXIS2_PLACEMENT_3D('',#1324,#1087,#1088);
#902=AXIS2_PLACEMENT_3D('',#1328,#1090,#1091);
#903=AXIS2_PLACEMENT_3D('',#1329,#1092,#1093);
#904=AXIS2_PLACEMENT_3D('',#1335,#1097,#1098);
#905=AXIS2_PLACEMENT_3D('',#1341,#1102,#1103);
#906=AXIS2_PLACEMENT_3D('',#1347,#1107,#1108);
#907=AXIS2_PLACEMENT_3D('',#1353,#1112,#1113);
#908=AXIS2_PLACEMENT_3D('',#1354,#1114,#1115);
#909=AXIS2_PLACEMENT_3D('',#1356,#1116,#1117);
#910=AXIS2_PLACEMENT_3D('',#1358,#1118,#1119);
#911=AXIS2_PLACEMENT_3D('',#1359,#1120,#1121);
#912=AXIS2_PLACEMENT_3D('',#1361,#1122,#1123);
#913=AXIS2_PLACEMENT_3D('',#1363,#1124,#1125);
#914=AXIS2_PLACEMENT_3D('',#1364,#1126,#1127);
#915=AXIS2_PLACEMENT_3D('',#1366,#1128,#1129);
#916=AXIS2_PLACEMENT_3D('',#1368,#1130,#1131);
#917=AXIS2_PLACEMENT_3D('',#1369,#1132,#1133);
#918=AXIS2_PLACEMENT_3D('',#1370,#1134,#1135);
#919=AXIS2_PLACEMENT_3D('',#1371,#1136,#1137);
#920=AXIS2_PLACEMENT_3D('',#1372,#1138,#1139);
#921=AXIS2_PLACEMENT_3D('',#1374,#1140,#1141);
#922=AXIS2_PLACEMENT_3D('',#1376,#1142,#1143);
#923=AXIS2_PLACEMENT_3D('',#1377,#1144,#1145);
#924=DIRECTION('',(0.,0.,1.));
#925=DIRECTION('',(1.,0.,0.));
#926=DIRECTION('',(0.422618261740702,0.906307787036649,0.));
#927=DIRECTION('',(-0.906307787036649,0.422618261740702,0.));
#928=DIRECTION('',(0.906307787036649,-0.422618261740702,0.));
#929=DIRECTION('',(0.,0.,-1.));
#930=DIRECTION('',(0.906307787036649,-0.422618261740702,0.));
#931=DIRECTION('',(0.,0.,-1.));
#932=DIRECTION('',(-0.906307787036649,0.422618261740702,0.));
#933=DIRECTION('',(-0.422618261740702,-0.906307787036649,0.));
#934=DIRECTION('',(0.422618261740702,0.906307787036649,0.));
#935=DIRECTION('',(0.,0.,-1.));
#936=DIRECTION('',(0.422618261740702,0.906307787036649,0.));
#937=DIRECTION('',(-0.422618261740701,-0.906307787036649,0.));
#938=DIRECTION('',(0.906307787036649,-0.422618261740701,0.));
#939=DIRECTION('',(-0.906307787036649,0.422618261740701,0.));
#940=DIRECTION('',(0.,0.,-1.));
#941=DIRECTION('',(-0.906307787036649,0.422618261740701,0.));
#942=DIRECTION('',(0.906307787036648,-0.422618261740703,0.));
#943=DIRECTION('',(0.422618261740703,0.906307787036648,0.));
#944=DIRECTION('',(-0.422618261740703,-0.906307787036648,0.));
#945=DIRECTION('',(-0.422618261740703,-0.906307787036648,0.));
#946=DIRECTION('',(0.,0.,1.));
#947=DIRECTION('',(1.,0.,0.));
#948=DIRECTION('',(0.906307787036649,-0.422618261740702,0.));
#949=DIRECTION('',(-0.422618261740703,-0.906307787036648,0.));
#950=DIRECTION('',(-0.906307787036649,0.422618261740701,0.));
#951=DIRECTION('',(0.422618261740702,0.906307787036649,0.));
#952=DIRECTION('',(0.,0.,1.));
#953=DIRECTION('',(1.,0.,0.));
#954=DIRECTION('',(0.422618261740702,0.906307787036649,0.));
#955=DIRECTION('',(-0.906307787036649,0.422618261740702,0.));
#956=DIRECTION('',(0.906307787036649,-0.422618261740702,0.));
#957=DIRECTION('',(0.,0.,-1.));
#958=DIRECTION('',(0.,0.,-1.));
#959=DIRECTION('',(-0.906307787036649,0.422618261740702,0.));
#960=DIRECTION('',(-0.422618261740702,-0.906307787036649,0.));
#961=DIRECTION('',(0.422618261740702,0.906307787036649,0.));
#962=DIRECTION('',(0.,0.,-1.));
#963=DIRECTION('',(-0.422618261740701,-0.906307787036649,0.));
#964=DIRECTION('',(0.906307787036649,-0.422618261740701,0.));
#965=DIRECTION('',(-0.906307787036649,0.422618261740701,0.));
#966=DIRECTION('',(0.,0.,-1.));
#967=DIRECTION('',(0.906307787036648,-0.422618261740703,0.));
#968=DIRECTION('',(0.422618261740703,0.906307787036648,0.));
#969=DIRECTION('',(-0.422618261740703,-0.906307787036648,0.));
#970=DIRECTION('',(0.,0.,1.));
#971=DIRECTION('',(1.,0.,0.));
#972=DIRECTION('',(0.984807753012209,0.173648177666924,0.));
#973=DIRECTION('',(-0.173648177666924,0.984807753012209,0.));
#974=DIRECTION('',(0.173648177666924,-0.984807753012209,0.));
#975=DIRECTION('',(0.,0.,-1.));
#976=DIRECTION('',(0.173648177666924,-0.984807753012209,0.));
#977=DIRECTION('',(0.,0.,-1.));
#978=DIRECTION('',(-0.173648177666923,0.984807753012209,0.));
#979=DIRECTION('',(-0.984807753012209,-0.173648177666923,0.));
#980=DIRECTION('',(0.984807753012209,0.173648177666923,0.));
#981=DIRECTION('',(0.,0.,-1.));
#982=DIRECTION('',(0.984807753012209,0.173648177666923,0.));
#983=DIRECTION('',(-0.984807753012209,-0.173648177666924,0.));
#984=DIRECTION('',(0.173648177666924,-0.984807753012209,0.));
#985=DIRECTION('',(-0.173648177666924,0.984807753012209,0.));
#986=DIRECTION('',(0.,0.,-1.));
#987=DIRECTION('',(-0.173648177666924,0.984807753012209,0.));
#988=DIRECTION('',(0.173648177666921,-0.98480775301221,0.));
#989=DIRECTION('',(0.98480775301221,0.173648177666921,0.));
#990=DIRECTION('',(-0.98480775301221,-0.173648177666921,0.));
#991=DIRECTION('',(-0.98480775301221,-0.173648177666921,0.));
#992=DIRECTION('',(0.,0.,1.));
#993=DIRECTION('',(1.,0.,0.));
#994=DIRECTION('',(0.,0.,1.));
#995=DIRECTION('',(1.,0.,0.));
#996=DIRECTION('',(0.,0.,-1.));
#997=DIRECTION('',(-1.,0.,0.));
#998=DIRECTION('',(0.,0.,1.));
#999=DIRECTION('',(1.,0.,0.));
#1000=DIRECTION('',(0.,0.,-1.));
#1001=DIRECTION('',(0.,0.,1.));
#1002=DIRECTION('',(1.,0.,0.));
#1003=DIRECTION('',(0.,0.,-1.));
#1004=DIRECTION('',(0.99619469809319,0.0871557427311524,0.));
#1005=DIRECTION('',(-0.0871557427311524,0.99619469809319,0.));
#1006=DIRECTION('',(0.0871557427311525,-0.99619469809319,0.));
#1007=DIRECTION('',(0.,0.,-1.));
#1008=DIRECTION('',(0.0871557427311525,-0.99619469809319,0.));
#1009=DIRECTION('',(0.,0.,-1.));
#1010=DIRECTION('',(-1.,0.,0.));
#1011=DIRECTION('',(0.,0.,1.));
#1012=DIRECTION('',(1.,0.,0.));
#1013=DIRECTION('',(0.,0.,-1.));
#1014=DIRECTION('',(0.,0.,1.));
#1015=DIRECTION('',(1.,0.,0.));
#1016=DIRECTION('',(0.173648177666933,0.984807753012208,0.));
#1017=DIRECTION('',(-0.984807753012208,0.173648177666933,0.));
#1018=DIRECTION('',(0.984807753012208,-0.173648177666933,0.));
#1019=DIRECTION('',(0.,0.,-1.));
#1020=DIRECTION('',(0.984807753012208,-0.173648177666933,0.));
#1021=DIRECTION('',(-0.358367949545301,0.933580426497202,0.));
#1022=DIRECTION('',(-0.933580426497202,-0.358367949545301,0.));
#1023=DIRECTION('',(0.933580426497202,0.358367949545301,0.));
#1024=DIRECTION('',(0.,0.,-1.));
#1025=DIRECTION('',(0.933580426497202,0.358367949545301,0.));
#1026=DIRECTION('',(-0.906307787036649,0.422618261740703,0.));
#1027=DIRECTION('',(-0.422618261740703,-0.906307787036648,0.));
#1028=DIRECTION('',(0.422618261740703,0.906307787036648,0.));
#1029=DIRECTION('',(0.,0.,-1.));
#1030=DIRECTION('',(0.422618261740703,0.906307787036648,0.));
#1031=DIRECTION('',(-0.938876315886609,-0.344254649158422,0.));
#1032=DIRECTION('',(0.344254649158423,-0.938876315886609,0.));
#1033=DIRECTION('',(-0.344254649158423,0.938876315886609,0.));
#1034=DIRECTION('',(0.,0.,-1.));
#1035=DIRECTION('',(-0.344254649158423,0.938876315886609,0.));
#1036=DIRECTION('',(-0.422618261740701,-0.906307787036649,0.));
#1037=DIRECTION('',(0.906307787036649,-0.422618261740701,0.));
#1038=DIRECTION('',(-0.906307787036649,0.422618261740701,0.));
#1039=DIRECTION('',(0.,0.,-1.));
#1040=DIRECTION('',(-0.906307787036649,0.422618261740701,0.));
#1041=DIRECTION('',(0.,0.,-1.));
#1042=DIRECTION('',(-1.,0.,0.));
#1043=DIRECTION('',(0.,0.,-1.));
#1044=DIRECTION('',(1.,1.22464679914735E-16,0.));
#1045=DIRECTION('',(0.,0.,-1.));
#1046=DIRECTION('',(0.,0.,-1.));
#1047=DIRECTION('',(1.,1.22464679914735E-16,0.));
#1048=DIRECTION('',(-0.906307787036648,0.422618261740703,0.));
#1049=DIRECTION('',(-0.422618261740703,-0.906307787036648,0.));
#1050=DIRECTION('',(0.422618261740703,0.906307787036648,0.));
#1051=DIRECTION('',(0.,0.,-1.));
#1052=DIRECTION('',(0.422618261740703,0.906307787036648,0.));
#1053=DIRECTION('',(0.,0.,-1.));
#1054=DIRECTION('',(-1.,0.,0.));
#1055=DIRECTION('',(0.,0.,1.));
#1056=DIRECTION('',(1.,0.,0.));
#1057=DIRECTION('',(0.,0.,-1.));
#1058=DIRECTION('',(0.,0.,1.));
#1059=DIRECTION('',(1.,0.,0.));
#1060=DIRECTION('',(-0.906307787036648,0.422618261740702,0.));
#1061=DIRECTION('',(-0.422618261740702,-0.906307787036649,0.));
#1062=DIRECTION('',(0.422618261740702,0.906307787036648,0.));
#1063=DIRECTION('',(0.,0.,-1.));
#1064=DIRECTION('',(0.422618261740702,0.906307787036648,0.));
#1065=DIRECTION('',(-0.93969262078591,-0.342020143325665,0.));
#1066=DIRECTION('',(0.342020143325665,-0.93969262078591,0.));
#1067=DIRECTION('',(-0.342020143325665,0.93969262078591,0.));
#1068=DIRECTION('',(0.,0.,-1.));
#1069=DIRECTION('',(-0.342020143325665,0.93969262078591,0.));
#1070=DIRECTION('',(-0.358367949545305,-0.9335804264972,0.));
#1071=DIRECTION('',(0.9335804264972,-0.358367949545305,0.));
#1072=DIRECTION('',(-0.9335804264972,0.358367949545305,0.));
#1073=DIRECTION('',(0.,0.,-1.));
#1074=DIRECTION('',(-0.9335804264972,0.358367949545305,0.));
#1075=DIRECTION('',(0.292371704722734,-0.956304755963036,0.));
#1076=DIRECTION('',(0.956304755963036,0.292371704722734,0.));
#1077=DIRECTION('',(-0.956304755963036,-0.292371704722734,0.));
#1078=DIRECTION('',(0.,0.,-1.));
#1079=DIRECTION('',(-0.956304755963036,-0.292371704722734,0.));
#1080=DIRECTION('',(0.601815023152048,-0.798635510047293,0.));
#1081=DIRECTION('',(0.798635510047293,0.601815023152048,0.));
#1082=DIRECTION('',(-0.798635510047293,-0.601815023152048,0.));
#1083=DIRECTION('',(0.,0.,-1.));
#1084=DIRECTION('',(-0.798635510047293,-0.601815023152048,0.));
#1085=DIRECTION('',(0.,0.,-1.));
#1086=DIRECTION('',(-1.,0.,0.));
#1087=DIRECTION('',(0.,0.,1.));
#1088=DIRECTION('',(1.,0.,0.));
#1089=DIRECTION('',(0.,0.,-1.));
#1090=DIRECTION('',(0.,0.,1.));
#1091=DIRECTION('',(1.,0.,0.));
#1092=DIRECTION('',(0.85716730070211,-0.515038074910058,0.));
#1093=DIRECTION('',(0.515038074910058,0.85716730070211,0.));
#1094=DIRECTION('',(-0.515038074910058,-0.85716730070211,0.));
#1095=DIRECTION('',(0.,0.,-1.));
#1096=DIRECTION('',(-0.515038074910058,-0.85716730070211,0.));
#1097=DIRECTION('',(0.994521895368273,-0.104528463267655,0.));
#1098=DIRECTION('',(0.104528463267655,0.994521895368273,0.));
#1099=DIRECTION('',(-0.104528463267655,-0.994521895368273,0.));
#1100=DIRECTION('',(0.,0.,-1.));
#1101=DIRECTION('',(-0.104528463267655,-0.994521895368273,0.));
#1102=DIRECTION('',(0.829037572555044,0.559192903470743,0.));
#1103=DIRECTION('',(-0.559192903470743,0.829037572555044,0.));
#1104=DIRECTION('',(0.559192903470743,-0.829037572555044,0.));
#1105=DIRECTION('',(0.,0.,-1.));
#1106=DIRECTION('',(0.559192903470743,-0.829037572555044,0.));
#1107=DIRECTION('',(0.997564050259824,-0.0697564737441291,0.));
#1108=DIRECTION('',(0.0697564737441291,0.997564050259824,0.));
#1109=DIRECTION('',(-0.0697564737441291,-0.997564050259824,0.));
#1110=DIRECTION('',(0.,0.,-1.));
#1111=DIRECTION('',(-0.0697564737441291,-0.997564050259824,0.));
#1112=DIRECTION('',(0.,0.,-1.));
#1113=DIRECTION('',(-1.,0.,0.));
#1114=DIRECTION('',(0.,0.,1.));
#1115=DIRECTION('',(1.,0.,0.));
#1116=DIRECTION('',(0.,0.,1.));
#1117=DIRECTION('',(1.,0.,0.));
#1118=DIRECTION('',(0.,0.,-1.));
#1119=DIRECTION('',(-1.,0.,0.));
#1120=DIRECTION('',(0.,0.,1.));
#1121=DIRECTION('',(1.,0.,0.));
#1122=DIRECTION('',(0.,0.,1.));
#1123=DIRECTION('',(1.,0.,0.));
#1124=DIRECTION('',(0.,0.,-1.));
#1125=DIRECTION('',(-1.,0.,0.));
#1126=DIRECTION('',(0.,0.,1.));
#1127=DIRECTION('',(1.,0.,0.));
#1128=DIRECTION('',(0.,0.,1.));
#1129=DIRECTION('',(1.,0.,0.));
#1130=DIRECTION('',(0.,0.,-1.));
#1131=DIRECTION('',(-1.,0.,0.));
#1132=DIRECTION('',(0.,0.,-1.));
#1133=DIRECTION('',(1.,1.22464679914735E-16,0.));
#1134=DIRECTION('',(0.,0.,-1.));
#1135=DIRECTION('',(1.,1.22464679914735E-16,0.));
#1136=DIRECTION('',(0.,0.,-1.));
#1137=DIRECTION('',(-1.,0.,0.));
#1138=DIRECTION('',(0.,0.,1.));
#1139=DIRECTION('',(1.,0.,0.));
#1140=DIRECTION('',(0.,0.,1.));
#1141=DIRECTION('',(1.,0.,0.));
#1142=DIRECTION('',(0.,0.,1.));
#1143=DIRECTION('',(1.,0.,0.));
#1144=DIRECTION('',(0.,0.,1.));
#1145=DIRECTION('',(1.,0.,0.));
#1146=CARTESIAN_POINT('',(0.,0.,0.));
#1147=CARTESIAN_POINT('',(5.55505231021226,-49.465520986276,5.9));
#1148=CARTESIAN_POINT('',(5.55505231021226,-49.465520986276,1.2));
#1149=CARTESIAN_POINT('',(5.55505231021226,-49.465520986276,1.2));
#1150=CARTESIAN_POINT('',(9.04433729030339,-51.0926012939777,1.2));
#1151=CARTESIAN_POINT('',(9.04433729030339,-51.0926012939777,5.9));
#1152=CARTESIAN_POINT('',(9.04433729030339,-51.0926012939777,5.9));
#1153=CARTESIAN_POINT('',(5.55505231021226,-49.465520986276,5.9));
#1154=CARTESIAN_POINT('',(5.55505231021226,-49.465520986276,5.9));
#1155=CARTESIAN_POINT('',(5.55505231021226,-49.465520986276,5.9));
#1156=CARTESIAN_POINT('',(9.04433729030337,-51.0926012939777,5.9));
#1157=CARTESIAN_POINT('',(9.04433729030337,-51.0926012939777,1.2));
#1158=CARTESIAN_POINT('',(13.05921077684,-42.4826773171296,1.2));
#1159=CARTESIAN_POINT('',(13.05921077684,-42.4826773171296,5.9));
#1160=CARTESIAN_POINT('',(13.05921077684,-42.4826773171296,5.9));
#1161=CARTESIAN_POINT('',(9.04433729030337,-51.0926012939777,5.9));
#1162=CARTESIAN_POINT('',(13.05921077684,-42.4826773171296,5.9));
#1163=CARTESIAN_POINT('',(13.05921077684,-42.4826773171296,1.2));
#1164=CARTESIAN_POINT('',(9.56992579674894,-40.8555970094279,1.2));
#1165=CARTESIAN_POINT('',(9.56992579674894,-40.8555970094279,5.9));
#1166=CARTESIAN_POINT('',(9.56992579674894,-40.8555970094279,5.9));
#1167=CARTESIAN_POINT('',(13.05921077684,-42.4826773171296,5.9));
#1168=CARTESIAN_POINT('',(9.56992579674894,-40.8555970094279,5.9));
#1169=CARTESIAN_POINT('',(9.56992579674894,-40.8555970094279,1.2));
#1170=CARTESIAN_POINT('',(9.56992579674894,-40.8555970094279,5.9));
#1171=CARTESIAN_POINT('',(0.,0.,5.9));
#1172=CARTESIAN_POINT('',(5.76636144108261,-49.0123670927577,5.9));
#1173=CARTESIAN_POINT('',(6.21951533460094,-49.223676223628,5.9));
#1174=CARTESIAN_POINT('',(8.8024925276554,-50.428138269589,5.9));
#1175=CARTESIAN_POINT('',(10.0230796902673,-41.0669061402982,5.9));
#1176=CARTESIAN_POINT('',(9.81177055939691,-41.5200600338165,5.9));
#1177=CARTESIAN_POINT('',(12.8479016459697,-42.9358312106479,5.9));
#1178=CARTESIAN_POINT('',(12.3947477524514,-42.7245220797775,5.9));
#1179=CARTESIAN_POINT('',(8.59118339678505,-50.8812921631074,5.9));
#1180=CARTESIAN_POINT('',(0.,0.,1.2));
#1181=CARTESIAN_POINT('',(5.76636144108261,-49.0123670927577,5.9));
#1182=CARTESIAN_POINT('',(5.76636144108261,-49.0123670927577,1.7));
#1183=CARTESIAN_POINT('',(6.21951533460094,-49.223676223628,1.7));
#1184=CARTESIAN_POINT('',(8.8024925276554,-50.428138269589,1.7));
#1185=CARTESIAN_POINT('',(6.21951533460094,-49.223676223628,5.9));
#1186=CARTESIAN_POINT('',(8.8024925276554,-50.428138269589,5.9));
#1187=CARTESIAN_POINT('',(8.59118339678505,-50.8812921631074,5.9));
#1188=CARTESIAN_POINT('',(8.59118339678505,-50.8812921631074,1.7));
#1189=CARTESIAN_POINT('',(12.3947477524514,-42.7245220797775,1.7));
#1190=CARTESIAN_POINT('',(12.3947477524514,-42.7245220797775,5.9));
#1191=CARTESIAN_POINT('',(12.8479016459697,-42.9358312106479,5.9));
#1192=CARTESIAN_POINT('',(12.8479016459697,-42.9358312106479,1.7));
#1193=CARTESIAN_POINT('',(9.81177055939691,-41.5200600338165,1.7));
#1194=CARTESIAN_POINT('',(9.81177055939691,-41.5200600338165,5.9));
#1195=CARTESIAN_POINT('',(10.0230796902673,-41.0669061402982,5.9));
#1196=CARTESIAN_POINT('',(10.0230796902673,-41.0669061402982,1.7));
#1197=CARTESIAN_POINT('',(0.,0.,1.7));
#1198=CARTESIAN_POINT('',(-4.36753795879514,-48.3984571774178,9.45));
#1199=CARTESIAN_POINT('',(-4.36753795879514,-48.3984571774178,1.2));
#1200=CARTESIAN_POINT('',(-4.36753795879514,-48.3984571774178,1.2));
#1201=CARTESIAN_POINT('',(-3.31696648391025,-54.3565440831416,1.2));
#1202=CARTESIAN_POINT('',(-3.31696648391025,-54.3565440831416,9.45));
#1203=CARTESIAN_POINT('',(-3.31696648391025,-54.3565440831416,9.45));
#1204=CARTESIAN_POINT('',(-4.36753795879514,-48.3984571774178,9.45));
#1205=CARTESIAN_POINT('',(-4.36753795879514,-48.3984571774178,9.45));
#1206=CARTESIAN_POINT('',(-4.36753795879514,-48.3984571774178,9.45));
#1207=CARTESIAN_POINT('',(-3.31696648391028,-54.3565440831416,9.45));
#1208=CARTESIAN_POINT('',(-3.31696648391028,-54.3565440831416,1.2));
#1209=CARTESIAN_POINT('',(2.29643770825932,-53.3667494704402,1.2));
#1210=CARTESIAN_POINT('',(2.29643770825932,-53.3667494704402,9.45));
#1211=CARTESIAN_POINT('',(2.29643770825932,-53.3667494704402,9.45));
#1212=CARTESIAN_POINT('',(-3.31696648391028,-54.3565440831416,9.45));
#1213=CARTESIAN_POINT('',(2.29643770825934,-53.3667494704402,9.45));
#1214=CARTESIAN_POINT('',(2.29643770825934,-53.3667494704402,1.2));
#1215=CARTESIAN_POINT('',(1.24586623337444,-47.4086625647163,1.2));
#1216=CARTESIAN_POINT('',(1.24586623337444,-47.4086625647163,9.45));
#1217=CARTESIAN_POINT('',(1.24586623337444,-47.4086625647163,9.45));
#1218=CARTESIAN_POINT('',(2.29643770825934,-53.3667494704402,9.45));
#1219=CARTESIAN_POINT('',(1.24586623337444,-47.4086625647163,9.45));
#1220=CARTESIAN_POINT('',(1.24586623337444,-47.4086625647163,1.2));
#1221=CARTESIAN_POINT('',(1.24586623337444,-47.4086625647163,9.45));
#1222=CARTESIAN_POINT('',(0.,0.,9.45));
#1223=CARTESIAN_POINT('',(0.,0.,1.2));
#1224=CARTESIAN_POINT('',(-7.22232614427655,-29.1062976619283,1.2));
#1225=CARTESIAN_POINT('',(-7.22232614427655,-29.1062976619283,0.));
#1226=CARTESIAN_POINT('',(-7.7462238661179,-28.7096474377245,0.));
#1227=CARTESIAN_POINT('',(-7.87694069917956,-29.1635690144581,0.));
#1228=CARTESIAN_POINT('',(-7.87694069917956,-29.1635690144581,1.2));
#1229=CARTESIAN_POINT('',(-7.87694069917956,-29.1635690144581,1.2));
#1230=CARTESIAN_POINT('',(-7.22232614427655,-29.1062976619283,1.2));
#1231=CARTESIAN_POINT('',(-7.7462238661179,-28.7096474377245,1.2));
#1232=CARTESIAN_POINT('',(-7.7462238661179,-28.7096474377245,1.2));
#1233=CARTESIAN_POINT('',(-7.87694069917956,-29.1635690144581,1.2));
#1234=CARTESIAN_POINT('',(-7.87694069917956,-29.1635690144581,0.));
#1235=CARTESIAN_POINT('',(-6.37766284156088,-46.3003933466817,0.));
#1236=CARTESIAN_POINT('',(-6.37766284156088,-46.3003933466817,1.2));
#1237=CARTESIAN_POINT('',(-6.37766284156088,-46.3003933466817,1.2));
#1238=CARTESIAN_POINT('',(-7.87694069917956,-29.1635690144581,1.2));
#1239=CARTESIAN_POINT('',(14.4123379807152,-44.4815039603566,1.2));
#1240=CARTESIAN_POINT('',(14.4123379807152,-44.4815039603566,0.));
#1241=CARTESIAN_POINT('',(-3.34905492800149,-55.4389404640336,0.));
#1242=CARTESIAN_POINT('',(-3.34905492800149,-55.4389404640336,1.2));
#1243=CARTESIAN_POINT('',(-3.34905492800149,-55.4389404640336,1.2));
#1244=CARTESIAN_POINT('',(14.4123379807152,-44.4815039603566,1.2));
#1245=CARTESIAN_POINT('',(-3.34905492807818,-55.4389404640218,1.2));
#1246=CARTESIAN_POINT('',(-3.34905492807818,-55.4389404640218,0.));
#1247=CARTESIAN_POINT('',(0.4,-56.1,0.));
#1248=CARTESIAN_POINT('',(0.4,-56.1,1.2));
#1249=CARTESIAN_POINT('',(0.4,-56.1,1.2));
#1250=CARTESIAN_POINT('',(-3.34905492807818,-55.4389404640218,1.2));
#1251=CARTESIAN_POINT('',(0.4,-56.1,1.2));
#1252=CARTESIAN_POINT('',(0.4,-56.1,0.));
#1253=CARTESIAN_POINT('',(10.1008569721288,-52.3761898993772,0.));
#1254=CARTESIAN_POINT('',(10.1008569721288,-52.3761898993772,1.2));
#1255=CARTESIAN_POINT('',(10.1008569721288,-52.3761898993772,1.2));
#1256=CARTESIAN_POINT('',(0.4,-56.1,1.2));
#1257=CARTESIAN_POINT('',(10.1008569721288,-52.3761898993772,1.2));
#1258=CARTESIAN_POINT('',(10.1008569721288,-52.3761898993772,0.));
#1259=CARTESIAN_POINT('',(14.1,-43.8,0.));
#1260=CARTESIAN_POINT('',(14.1,-43.8,1.2));
#1261=CARTESIAN_POINT('',(14.1,-43.8,1.2));
#1262=CARTESIAN_POINT('',(10.1008569721288,-52.3761898993772,1.2));
#1263=CARTESIAN_POINT('',(14.1,-43.8,1.2));
#1264=CARTESIAN_POINT('',(14.1,-43.8,0.));
#1265=CARTESIAN_POINT('',(13.,-40.8,0.));
#1266=CARTESIAN_POINT('',(13.,-40.8,1.2));
#1267=CARTESIAN_POINT('',(13.,-40.8,1.2));
#1268=CARTESIAN_POINT('',(14.1,-43.8,1.2));
#1269=CARTESIAN_POINT('',(13.,-40.8,1.2));
#1270=CARTESIAN_POINT('',(13.,-40.8,0.));
#1271=CARTESIAN_POINT('',(-0.53595623338608,-34.4880799479212,0.));
#1272=CARTESIAN_POINT('',(-0.53595623338608,-34.4880799479212,1.2));
#1273=CARTESIAN_POINT('',(-0.53595623338608,-34.4880799479212,1.2));
#1274=CARTESIAN_POINT('',(13.,-40.8,1.2));
#1275=CARTESIAN_POINT('',(2.12653881558034,-28.7783408895903,1.2));
#1276=CARTESIAN_POINT('',(2.12653881558034,-28.7783408895903,0.));
#1277=CARTESIAN_POINT('',(-3.58320024275055,-26.1158458406238,0.));
#1278=CARTESIAN_POINT('',(-3.58320024275055,-26.1158458406238,1.2));
#1279=CARTESIAN_POINT('',(-3.58320024275055,-26.1158458406238,1.2));
#1280=CARTESIAN_POINT('',(2.12653881558034,-28.7783408895903,1.2));
#1281=CARTESIAN_POINT('',(-3.58320024275055,-26.1158458406238,1.2));
#1282=CARTESIAN_POINT('',(-3.58320024275055,-26.1158458406238,0.));
#1283=CARTESIAN_POINT('',(-0.821334380903865,-20.1930053863746,0.));
#1284=CARTESIAN_POINT('',(-0.821334380903865,-20.1930053863746,1.2));
#1285=CARTESIAN_POINT('',(-0.821334380903865,-20.1930053863746,1.2));
#1286=CARTESIAN_POINT('',(-3.58320024275055,-26.1158458406238,1.2));
#1287=CARTESIAN_POINT('',(-1.684083224007,-17.6873788312542,1.2));
#1288=CARTESIAN_POINT('',(-1.684083224007,-17.6873788312542,0.));
#1289=CARTESIAN_POINT('',(0.789902341690447,-16.7376970841828,0.));
#1290=CARTESIAN_POINT('',(0.789902341690447,-16.7376970841828,1.2));
#1291=CARTESIAN_POINT('',(0.789902341690447,-16.7376970841828,1.2));
#1292=CARTESIAN_POINT('',(-1.684083224007,-17.6873788312542,1.2));
#1293=CARTESIAN_POINT('',(0.78990234169238,-16.7376970841878,1.2));
#1294=CARTESIAN_POINT('',(0.78990234169238,-16.7376970841878,0.));
#1295=CARTESIAN_POINT('',(5.76976375385772,-6.05834982262084,0.));
#1296=CARTESIAN_POINT('',(5.76976375385772,-6.05834982262084,1.2));
#1297=CARTESIAN_POINT('',(5.76976375385772,-6.05834982262084,1.2));
#1298=CARTESIAN_POINT('',(0.78990234169238,-16.7376970841878,1.2));
#1299=CARTESIAN_POINT('',(5.76976375385772,-6.05834982262084,1.2));
#1300=CARTESIAN_POINT('',(5.76976375385772,-6.05834982262084,0.));
#1301=CARTESIAN_POINT('',(2.40108683576475,3.19701394327771,0.));
#1302=CARTESIAN_POINT('',(2.40108683576475,3.19701394327771,1.2));
#1303=CARTESIAN_POINT('',(2.40108683576475,3.19701394327771,1.2));
#1304=CARTESIAN_POINT('',(5.76976375385772,-6.05834982262084,1.2));
#1305=CARTESIAN_POINT('',(2.40108683576475,3.19701394327771,1.2));
#1306=CARTESIAN_POINT('',(2.40108683576475,3.19701394327771,0.));
#1307=CARTESIAN_POINT('',(1.37102663187699,3.59241700947147,0.));
#1308=CARTESIAN_POINT('',(1.37102663187699,3.59241700947147,1.2));
#1309=CARTESIAN_POINT('',(1.37102663187699,3.59241700947147,1.2));
#1310=CARTESIAN_POINT('',(2.40108683576475,3.19701394327771,1.2));
#1311=CARTESIAN_POINT('',(1.37102663187699,3.59241700947147,1.2));
#1312=CARTESIAN_POINT('',(1.37102663187699,3.59241700947147,0.));
#1313=CARTESIAN_POINT('',(-2.11071825123066,2.52794077369378,0.));
#1314=CARTESIAN_POINT('',(-2.11071825123066,2.52794077369378,1.2));
#1315=CARTESIAN_POINT('',(-2.11071825123066,2.52794077369378,1.2));
#1316=CARTESIAN_POINT('',(1.37102663187699,3.59241700947147,1.2));
#1317=CARTESIAN_POINT('',(-2.11071825123064,2.52794077369379,1.2));
#1318=CARTESIAN_POINT('',(-2.11071825123064,2.52794077369379,0.));
#1319=CARTESIAN_POINT('',(-4.81225136522445,0.492189554156943,0.));
#1320=CARTESIAN_POINT('',(-4.81225136522445,0.492189554156943,1.2));
#1321=CARTESIAN_POINT('',(-4.81225136522445,0.492189554156943,1.2));
#1322=CARTESIAN_POINT('',(-2.11071825123064,2.52794077369379,1.2));
#1323=CARTESIAN_POINT('',(-2.8864432911379,-2.06344407799439,1.2));
#1324=CARTESIAN_POINT('',(-2.8864432911379,-2.06344407799439,0.));
#1325=CARTESIAN_POINT('',(-5.62937865338465,-0.415322238282208,0.));
#1326=CARTESIAN_POINT('',(-5.62937865338465,-0.415322238282208,1.2));
#1327=CARTESIAN_POINT('',(-5.62937865338465,-0.415322238282208,1.2));
#1328=CARTESIAN_POINT('',(-2.8864432911379,-2.06344407799439,1.2));
#1329=CARTESIAN_POINT('',(-5.62937865338465,-0.41532223828221,1.2));
#1330=CARTESIAN_POINT('',(-5.62937865338465,-0.41532223828221,0.));
#1331=CARTESIAN_POINT('',(-6.25560988454817,-1.45754602751476,0.));
#1332=CARTESIAN_POINT('',(-6.25560988454817,-1.45754602751476,1.2));
#1333=CARTESIAN_POINT('',(-6.25560988454817,-1.45754602751476,1.2));
#1334=CARTESIAN_POINT('',(-5.62937865338465,-0.41532223828221,1.2));
#1335=CARTESIAN_POINT('',(-6.25560988454817,-1.45754602751477,1.2));
#1336=CARTESIAN_POINT('',(-6.25560988454817,-1.45754602751477,0.));
#1337=CARTESIAN_POINT('',(-7.69561185558724,-15.1582495947793,0.));
#1338=CARTESIAN_POINT('',(-7.69561185558724,-15.1582495947793,1.2));
#1339=CARTESIAN_POINT('',(-7.69561185558724,-15.1582495947793,1.2));
#1340=CARTESIAN_POINT('',(-6.25560988454817,-1.45754602751477,1.2));
#1341=CARTESIAN_POINT('',(-7.69561185558725,-15.1582495947793,1.2));
#1342=CARTESIAN_POINT('',(-7.69561185558725,-15.1582495947793,0.));
#1343=CARTESIAN_POINT('',(-6.30870940451197,-17.2144170358781,0.));
#1344=CARTESIAN_POINT('',(-6.30870940451197,-17.2144170358781,1.2));
#1345=CARTESIAN_POINT('',(-6.30870940451197,-17.2144170358781,1.2));
#1346=CARTESIAN_POINT('',(-7.69561185558725,-15.1582495947793,1.2));
#1347=CARTESIAN_POINT('',(-6.30870940451197,-17.2144170358781,1.2));
#1348=CARTESIAN_POINT('',(-6.30870940451197,-17.2144170358781,0.));
#1349=CARTESIAN_POINT('',(-6.96736837408567,-26.6336791367408,0.));
#1350=CARTESIAN_POINT('',(-6.96736837408567,-26.6336791367408,1.2));
#1351=CARTESIAN_POINT('',(-6.96736837408567,-26.6336791367408,1.2));
#1352=CARTESIAN_POINT('',(-6.30870940451197,-17.2144170358781,1.2));
#1353=CARTESIAN_POINT('',(0.,0.,1.2));
#1354=CARTESIAN_POINT('',(0.,0.,1.2));
#1355=CARTESIAN_POINT('',(2.05,0.,1.2));
#1356=CARTESIAN_POINT('',(0.,0.,0.));
#1357=CARTESIAN_POINT('',(2.05,0.,0.));
#1358=CARTESIAN_POINT('',(-1.8,-17.95,1.2));
#1359=CARTESIAN_POINT('',(-1.8,-17.95,1.2));
#1360=CARTESIAN_POINT('',(-0.475,-17.95,1.2));
#1361=CARTESIAN_POINT('',(-1.8,-17.95,0.));
#1362=CARTESIAN_POINT('',(-0.475,-17.95,0.));
#1363=CARTESIAN_POINT('',(-3.7,-43.9,1.2));
#1364=CARTESIAN_POINT('',(-3.7,-43.9,1.2));
#1365=CARTESIAN_POINT('',(-2.7,-43.9,1.2));
#1366=CARTESIAN_POINT('',(-3.7,-43.9,0.));
#1367=CARTESIAN_POINT('',(-2.7,-43.9,0.));
#1368=CARTESIAN_POINT('',(-10.8464441070213,-26.3624277374492,1.2));
#1369=CARTESIAN_POINT('',(-10.8464441070213,-26.3624277374492,0.));
#1370=CARTESIAN_POINT('',(-10.8464441070213,-26.3624277374492,1.2));
#1371=CARTESIAN_POINT('',(1.,-7.1,1.2));
#1372=CARTESIAN_POINT('',(1.,-7.1,1.2));
#1373=CARTESIAN_POINT('',(2.,-7.1,1.2));
#1374=CARTESIAN_POINT('',(1.,-7.1,0.));
#1375=CARTESIAN_POINT('',(2.,-7.1,0.));
#1376=CARTESIAN_POINT('',(-7.22232614427655,-29.1062976619283,1.2));
#1377=CARTESIAN_POINT('',(-7.22232614427655,-29.1062976619283,0.));
#1378=MECHANICAL_DESIGN_GEOMETRIC_PRESENTATION_REPRESENTATION('',(#829,
#830,#831),#1379);
#1379=(
GEOMETRIC_REPRESENTATION_CONTEXT(3)
GLOBAL_UNCERTAINTY_ASSIGNED_CONTEXT((#1380))
GLOBAL_UNIT_ASSIGNED_CONTEXT((#1383,#1382,#1381))
REPRESENTATION_CONTEXT('E05R','TOP_LEVEL_ASSEMBLY_PART')
);
#1380=UNCERTAINTY_MEASURE_WITH_UNIT(LENGTH_MEASURE(0.005),#1383,
'DISTANCE_ACCURACY_VALUE','Maximum Tolerance applied to model');
#1381=(
NAMED_UNIT(*)
SI_UNIT($,.STERADIAN.)
SOLID_ANGLE_UNIT()
);
#1382=(
NAMED_UNIT(*)
PLANE_ANGLE_UNIT()
SI_UNIT($,.RADIAN.)
);
#1383=(
LENGTH_UNIT()
NAMED_UNIT(*)
SI_UNIT(.MILLI.,.METRE.)
);
#1384=PRODUCT_DEFINITION_SHAPE('','',#1385);
#1385=PRODUCT_DEFINITION('','',#1387,#1386);
#1386=PRODUCT_DEFINITION_CONTEXT('',#1393,'design');
#1387=PRODUCT_DEFINITION_FORMATION_WITH_SPECIFIED_SOURCE('','',#1389,
 .NOT_KNOWN.);
#1388=PRODUCT_RELATED_PRODUCT_CATEGORY('','',(#1389));
#1389=PRODUCT('E05R','E05R','E05R',(#1391));
#1390=PRODUCT_CATEGORY('','');
#1391=PRODUCT_CONTEXT('',#1393,'mechanical');
#1392=APPLICATION_PROTOCOL_DEFINITION('international standard',
'ap242_managed_model_based_3d_engineering',2020,#1393);
#1393=APPLICATION_CONTEXT('managed model based 3d engineering');
ENDSEC;
END-ISO-10303-21;
