ISO-10303-21;
HEADER;
/* Generated by software containing ST-Developer
 * from STEP Tools, Inc. (www.steptools.com) 
 */
/* OPTION: using custom renumber hook */

FILE_DESCRIPTION(
/* description */ (
'CAx-IF Rec.Pracs.---Representation and Presentation of Product Manufa
cturing Information (PMI)---4.0---2014-10-13',
'CAx-IF Rec.Pracs.---3D Tessellated Geometry---0.4---2014-09-14','2;1'),

/* implementation_level */ '2;1');

FILE_NAME(
/* name */ 'E06',
/* time_stamp */ '2026-04-13T01:14:53+03:00',
/* author */ (''),
/* organization */ (''),
/* preprocessor_version */ 'ST-DEVELOPER v18.102',
/* originating_system */ 'SIEMENS PLM Software NX2206.9140',
/* authorisation */ $);

FILE_SCHEMA (('AP242_MANAGED_MODEL_BASED_3D_ENGINEERING_MIM_LF { 1 0 10303 442 3 1 4 }'));
ENDSEC;

DATA;
#10=TOROIDAL_SURFACE('',#264,17.,1.);
#11=TOROIDAL_SURFACE('',#267,14.1150648427103,2.5);
#12=SHAPE_REPRESENTATION_RELATIONSHIP('','',#242,#13);
#13=ADVANCED_BREP_SHAPE_REPRESENTATION('',(#239,#240),#369);
#14=PLANE('',#247);
#15=PLANE('',#251);
#16=PLANE('',#252);
#17=PLANE('',#256);
#18=PLANE('',#259);
#19=PLANE('',#265);
#20=PLANE('',#268);
#21=ORIENTED_EDGE('',*,*,#47,.F.);
#22=ORIENTED_EDGE('',*,*,#48,.T.);
#23=ORIENTED_EDGE('',*,*,#49,.F.);
#24=ORIENTED_EDGE('',*,*,#47,.T.);
#25=ORIENTED_EDGE('',*,*,#49,.T.);
#26=ORIENTED_EDGE('',*,*,#50,.T.);
#27=ORIENTED_EDGE('',*,*,#48,.F.);
#28=ORIENTED_EDGE('',*,*,#50,.F.);
#29=ORIENTED_EDGE('',*,*,#51,.F.);
#30=ORIENTED_EDGE('',*,*,#51,.T.);
#31=ORIENTED_EDGE('',*,*,#52,.F.);
#32=ORIENTED_EDGE('',*,*,#53,.T.);
#33=ORIENTED_EDGE('',*,*,#54,.T.);
#34=ORIENTED_EDGE('',*,*,#55,.F.);
#35=ORIENTED_EDGE('',*,*,#56,.T.);
#36=ORIENTED_EDGE('',*,*,#57,.T.);
#37=ORIENTED_EDGE('',*,*,#53,.F.);
#38=ORIENTED_EDGE('',*,*,#56,.F.);
#39=ORIENTED_EDGE('',*,*,#57,.F.);
#40=ORIENTED_EDGE('',*,*,#52,.T.);
#41=ORIENTED_EDGE('',*,*,#58,.T.);
#42=ORIENTED_EDGE('',*,*,#58,.F.);
#43=ORIENTED_EDGE('',*,*,#55,.T.);
#44=ORIENTED_EDGE('',*,*,#59,.F.);
#45=ORIENTED_EDGE('',*,*,#54,.F.);
#46=ORIENTED_EDGE('',*,*,#59,.T.);
#47=EDGE_CURVE('',#60,#60,#73,.T.);
#48=EDGE_CURVE('',#61,#61,#74,.T.);
#49=EDGE_CURVE('',#62,#62,#75,.F.);
#50=EDGE_CURVE('',#63,#63,#76,.F.);
#51=EDGE_CURVE('',#64,#64,#77,.F.);
#52=EDGE_CURVE('',#65,#65,#78,.F.);
#53=EDGE_CURVE('',#66,#66,#79,.T.);
#54=EDGE_CURVE('',#67,#67,#80,.T.);
#55=EDGE_CURVE('',#68,#68,#81,.T.);
#56=EDGE_CURVE('',#69,#69,#82,.T.);
#57=EDGE_CURVE('',#70,#70,#83,.F.);
#58=EDGE_CURVE('',#71,#71,#84,.F.);
#59=EDGE_CURVE('',#72,#72,#85,.F.);
#60=VERTEX_POINT('',#330);
#61=VERTEX_POINT('',#332);
#62=VERTEX_POINT('',#335);
#63=VERTEX_POINT('',#338);
#64=VERTEX_POINT('',#342);
#65=VERTEX_POINT('',#345);
#66=VERTEX_POINT('',#348);
#67=VERTEX_POINT('',#350);
#68=VERTEX_POINT('',#353);
#69=VERTEX_POINT('',#355);
#70=VERTEX_POINT('',#358);
#71=VERTEX_POINT('',#362);
#72=VERTEX_POINT('',#366);
#73=CIRCLE('',#245,16.2019318555771);
#74=CIRCLE('',#246,16.2019318555771);
#75=CIRCLE('',#248,17.9);
#76=CIRCLE('',#250,17.9);
#77=CIRCLE('',#253,8.35);
#78=CIRCLE('',#255,8.35);
#79=CIRCLE('',#257,18.);
#80=CIRCLE('',#258,16.2019318555771);
#81=CIRCLE('',#260,16.1150648427103);
#82=CIRCLE('',#261,17.);
#83=CIRCLE('',#263,18.);
#84=CIRCLE('',#266,14.1150648427103);
#85=CIRCLE('',#269,16.2019318555771);
#86=EDGE_LOOP('',(#21));
#87=EDGE_LOOP('',(#22));
#88=EDGE_LOOP('',(#23));
#89=EDGE_LOOP('',(#24));
#90=EDGE_LOOP('',(#25));
#91=EDGE_LOOP('',(#26));
#92=EDGE_LOOP('',(#27));
#93=EDGE_LOOP('',(#28));
#94=EDGE_LOOP('',(#29));
#95=EDGE_LOOP('',(#30));
#96=EDGE_LOOP('',(#31));
#97=EDGE_LOOP('',(#32));
#98=EDGE_LOOP('',(#33));
#99=EDGE_LOOP('',(#34));
#100=EDGE_LOOP('',(#35));
#101=EDGE_LOOP('',(#36));
#102=EDGE_LOOP('',(#37));
#103=EDGE_LOOP('',(#38));
#104=EDGE_LOOP('',(#39));
#105=EDGE_LOOP('',(#40));
#106=EDGE_LOOP('',(#41));
#107=EDGE_LOOP('',(#42));
#108=EDGE_LOOP('',(#43));
#109=EDGE_LOOP('',(#44));
#110=EDGE_LOOP('',(#45));
#111=EDGE_LOOP('',(#46));
#112=FACE_BOUND('',#86,.T.);
#113=FACE_BOUND('',#87,.T.);
#114=FACE_BOUND('',#88,.T.);
#115=FACE_BOUND('',#89,.T.);
#116=FACE_BOUND('',#90,.T.);
#117=FACE_BOUND('',#91,.T.);
#118=FACE_BOUND('',#92,.T.);
#119=FACE_BOUND('',#93,.T.);
#120=FACE_BOUND('',#94,.T.);
#121=FACE_BOUND('',#95,.T.);
#122=FACE_BOUND('',#96,.T.);
#123=FACE_BOUND('',#97,.T.);
#124=FACE_BOUND('',#98,.T.);
#125=FACE_BOUND('',#99,.T.);
#126=FACE_BOUND('',#100,.T.);
#127=FACE_BOUND('',#101,.T.);
#128=FACE_BOUND('',#102,.T.);
#129=FACE_BOUND('',#103,.T.);
#130=FACE_BOUND('',#104,.T.);
#131=FACE_BOUND('',#105,.T.);
#132=FACE_BOUND('',#106,.T.);
#133=FACE_BOUND('',#107,.T.);
#134=FACE_BOUND('',#108,.T.);
#135=FACE_BOUND('',#109,.T.);
#136=FACE_BOUND('',#110,.T.);
#137=FACE_BOUND('',#111,.T.);
#138=CYLINDRICAL_SURFACE('',#244,16.2019318555771);
#139=CYLINDRICAL_SURFACE('',#249,17.9);
#140=CYLINDRICAL_SURFACE('',#254,8.35);
#141=CYLINDRICAL_SURFACE('',#262,18.);
#142=CYLINDRICAL_SURFACE('',#270,16.2019318555771);
#143=ADVANCED_FACE('',(#112,#113),#138,.F.);
#144=ADVANCED_FACE('',(#114,#115),#14,.T.);
#145=ADVANCED_FACE('',(#116,#117),#139,.T.);
#146=ADVANCED_FACE('',(#118,#119),#15,.T.);
#147=ADVANCED_FACE('',(#120),#16,.T.);
#148=ADVANCED_FACE('',(#121,#122),#140,.T.);
#149=ADVANCED_FACE('',(#123,#124),#17,.T.);
#150=ADVANCED_FACE('',(#125,#126),#18,.T.);
#151=ADVANCED_FACE('',(#127,#128),#141,.T.);
#152=ADVANCED_FACE('',(#129,#130),#10,.T.);
#153=ADVANCED_FACE('',(#131,#132),#19,.T.);
#154=ADVANCED_FACE('',(#133,#134),#11,.T.);
#155=ADVANCED_FACE('',(#135),#20,.T.);
#156=ADVANCED_FACE('',(#136,#137),#142,.F.);
#157=CLOSED_SHELL('',(#143,#144,#145,#146));
#158=CLOSED_SHELL('',(#147,#148,#149,#150,#151,#152,#153,#154,#155,#156));
#159=STYLED_ITEM('',(#170),#239);
#160=STYLED_ITEM('',(#171),#147);
#161=STYLED_ITEM('',(#172),#148);
#162=STYLED_ITEM('',(#173),#149);
#163=STYLED_ITEM('',(#174),#150);
#164=STYLED_ITEM('',(#175),#151);
#165=STYLED_ITEM('',(#176),#152);
#166=STYLED_ITEM('',(#177),#153);
#167=STYLED_ITEM('',(#178),#154);
#168=STYLED_ITEM('',(#179),#155);
#169=STYLED_ITEM('',(#180),#156);
#170=PRESENTATION_STYLE_ASSIGNMENT((#181));
#171=PRESENTATION_STYLE_ASSIGNMENT((#182));
#172=PRESENTATION_STYLE_ASSIGNMENT((#183));
#173=PRESENTATION_STYLE_ASSIGNMENT((#184));
#174=PRESENTATION_STYLE_ASSIGNMENT((#185));
#175=PRESENTATION_STYLE_ASSIGNMENT((#186));
#176=PRESENTATION_STYLE_ASSIGNMENT((#187));
#177=PRESENTATION_STYLE_ASSIGNMENT((#188));
#178=PRESENTATION_STYLE_ASSIGNMENT((#189));
#179=PRESENTATION_STYLE_ASSIGNMENT((#190));
#180=PRESENTATION_STYLE_ASSIGNMENT((#191));
#181=SURFACE_STYLE_USAGE(.BOTH.,#192);
#182=SURFACE_STYLE_USAGE(.BOTH.,#193);
#183=SURFACE_STYLE_USAGE(.BOTH.,#194);
#184=SURFACE_STYLE_USAGE(.BOTH.,#195);
#185=SURFACE_STYLE_USAGE(.BOTH.,#196);
#186=SURFACE_STYLE_USAGE(.BOTH.,#197);
#187=SURFACE_STYLE_USAGE(.BOTH.,#198);
#188=SURFACE_STYLE_USAGE(.BOTH.,#199);
#189=SURFACE_STYLE_USAGE(.BOTH.,#200);
#190=SURFACE_STYLE_USAGE(.BOTH.,#201);
#191=SURFACE_STYLE_USAGE(.BOTH.,#202);
#192=SURFACE_SIDE_STYLE('',(#203));
#193=SURFACE_SIDE_STYLE('',(#204));
#194=SURFACE_SIDE_STYLE('',(#205));
#195=SURFACE_SIDE_STYLE('',(#206));
#196=SURFACE_SIDE_STYLE('',(#207));
#197=SURFACE_SIDE_STYLE('',(#208));
#198=SURFACE_SIDE_STYLE('',(#209));
#199=SURFACE_SIDE_STYLE('',(#210));
#200=SURFACE_SIDE_STYLE('',(#211));
#201=SURFACE_SIDE_STYLE('',(#212));
#202=SURFACE_SIDE_STYLE('',(#213));
#203=SURFACE_STYLE_FILL_AREA(#214);
#204=SURFACE_STYLE_FILL_AREA(#215);
#205=SURFACE_STYLE_FILL_AREA(#216);
#206=SURFACE_STYLE_FILL_AREA(#217);
#207=SURFACE_STYLE_FILL_AREA(#218);
#208=SURFACE_STYLE_FILL_AREA(#219);
#209=SURFACE_STYLE_FILL_AREA(#220);
#210=SURFACE_STYLE_FILL_AREA(#221);
#211=SURFACE_STYLE_FILL_AREA(#222);
#212=SURFACE_STYLE_FILL_AREA(#223);
#213=SURFACE_STYLE_FILL_AREA(#224);
#214=FILL_AREA_STYLE('',(#225));
#215=FILL_AREA_STYLE('',(#226));
#216=FILL_AREA_STYLE('',(#227));
#217=FILL_AREA_STYLE('',(#228));
#218=FILL_AREA_STYLE('',(#229));
#219=FILL_AREA_STYLE('',(#230));
#220=FILL_AREA_STYLE('',(#231));
#221=FILL_AREA_STYLE('',(#232));
#222=FILL_AREA_STYLE('',(#233));
#223=FILL_AREA_STYLE('',(#234));
#224=FILL_AREA_STYLE('',(#235));
#225=FILL_AREA_STYLE_COLOUR('',#236);
#226=FILL_AREA_STYLE_COLOUR('',#237);
#227=FILL_AREA_STYLE_COLOUR('',#237);
#228=FILL_AREA_STYLE_COLOUR('',#237);
#229=FILL_AREA_STYLE_COLOUR('',#237);
#230=FILL_AREA_STYLE_COLOUR('',#237);
#231=FILL_AREA_STYLE_COLOUR('',#237);
#232=FILL_AREA_STYLE_COLOUR('',#237);
#233=FILL_AREA_STYLE_COLOUR('',#237);
#234=FILL_AREA_STYLE_COLOUR('',#238);
#235=FILL_AREA_STYLE_COLOUR('',#237);
#236=COLOUR_RGB('',0.298039215686275,0.298039215686275,0.298039215686275);
#237=COLOUR_RGB('',0.611764705882353,0.658823529411765,0.670588235294118);
#238=COLOUR_RGB('',0.490196078431373,0.490196078431373,0.490196078431373);
#239=MANIFOLD_SOLID_BREP('Split Body (16)',#157);
#240=MANIFOLD_SOLID_BREP('Cylinder (4)',#158);
#241=SHAPE_DEFINITION_REPRESENTATION(#374,#242);
#242=SHAPE_REPRESENTATION('E06',(#243),#369);
#243=AXIS2_PLACEMENT_3D('',#327,#271,#272);
#244=AXIS2_PLACEMENT_3D('',#328,#273,#274);
#245=AXIS2_PLACEMENT_3D('',#329,#275,#276);
#246=AXIS2_PLACEMENT_3D('',#331,#277,#278);
#247=AXIS2_PLACEMENT_3D('',#333,#279,#280);
#248=AXIS2_PLACEMENT_3D('',#334,#281,#282);
#249=AXIS2_PLACEMENT_3D('',#336,#283,#284);
#250=AXIS2_PLACEMENT_3D('',#337,#285,#286);
#251=AXIS2_PLACEMENT_3D('',#339,#287,#288);
#252=AXIS2_PLACEMENT_3D('',#340,#289,#290);
#253=AXIS2_PLACEMENT_3D('',#341,#291,#292);
#254=AXIS2_PLACEMENT_3D('',#343,#293,#294);
#255=AXIS2_PLACEMENT_3D('',#344,#295,#296);
#256=AXIS2_PLACEMENT_3D('',#346,#297,#298);
#257=AXIS2_PLACEMENT_3D('',#347,#299,#300);
#258=AXIS2_PLACEMENT_3D('',#349,#301,#302);
#259=AXIS2_PLACEMENT_3D('',#351,#303,#304);
#260=AXIS2_PLACEMENT_3D('',#352,#305,#306);
#261=AXIS2_PLACEMENT_3D('',#354,#307,#308);
#262=AXIS2_PLACEMENT_3D('',#356,#309,#310);
#263=AXIS2_PLACEMENT_3D('',#357,#311,#312);
#264=AXIS2_PLACEMENT_3D('',#359,#313,#314);
#265=AXIS2_PLACEMENT_3D('',#360,#315,#316);
#266=AXIS2_PLACEMENT_3D('',#361,#317,#318);
#267=AXIS2_PLACEMENT_3D('',#363,#319,#320);
#268=AXIS2_PLACEMENT_3D('',#364,#321,#322);
#269=AXIS2_PLACEMENT_3D('',#365,#323,#324);
#270=AXIS2_PLACEMENT_3D('',#367,#325,#326);
#271=DIRECTION('',(0.,0.,1.));
#272=DIRECTION('',(1.,0.,0.));
#273=DIRECTION('',(0.,0.,-1.));
#274=DIRECTION('',(-1.,0.,0.));
#275=DIRECTION('',(0.,0.,1.));
#276=DIRECTION('',(-0.999999998272844,-5.8773402511716E-5,0.));
#277=DIRECTION('',(0.,0.,1.));
#278=DIRECTION('',(1.,0.,0.));
#279=DIRECTION('',(0.,0.,-1.));
#280=DIRECTION('',(-1.,0.,0.));
#281=DIRECTION('',(0.,0.,-1.));
#282=DIRECTION('',(-1.,0.,0.));
#283=DIRECTION('',(0.,0.,1.));
#284=DIRECTION('',(1.,0.,0.));
#285=DIRECTION('',(0.,0.,1.));
#286=DIRECTION('',(1.,0.,0.));
#287=DIRECTION('',(0.,0.,1.));
#288=DIRECTION('',(1.,0.,0.));
#289=DIRECTION('',(0.,0.,1.));
#290=DIRECTION('',(1.,0.,0.));
#291=DIRECTION('',(0.,0.,1.));
#292=DIRECTION('',(1.,0.,0.));
#293=DIRECTION('',(0.,0.,1.));
#294=DIRECTION('',(1.,0.,0.));
#295=DIRECTION('',(0.,0.,1.));
#296=DIRECTION('',(1.,0.,0.));
#297=DIRECTION('',(0.,0.,-1.));
#298=DIRECTION('',(-1.,0.,0.));
#299=DIRECTION('',(0.,0.,-1.));
#300=DIRECTION('',(-1.,0.,0.));
#301=DIRECTION('',(0.,0.,1.));
#302=DIRECTION('',(1.,0.,0.));
#303=DIRECTION('',(0.,0.,1.));
#304=DIRECTION('',(1.,0.,0.));
#305=DIRECTION('',(0.,0.,1.));
#306=DIRECTION('',(1.,0.,0.));
#307=DIRECTION('',(0.,0.,1.));
#308=DIRECTION('',(1.,0.,0.));
#309=DIRECTION('',(0.,0.,1.));
#310=DIRECTION('',(1.,0.,0.));
#311=DIRECTION('',(0.,0.,1.));
#312=DIRECTION('',(1.,0.,0.));
#313=DIRECTION('',(0.,0.,1.));
#314=DIRECTION('',(1.,0.,0.));
#315=DIRECTION('',(0.,0.,1.));
#316=DIRECTION('',(1.,0.,0.));
#317=DIRECTION('',(0.,0.,-1.));
#318=DIRECTION('',(-1.,0.,0.));
#319=DIRECTION('',(0.,0.,-1.));
#320=DIRECTION('',(-1.,0.,0.));
#321=DIRECTION('',(0.,0.,-1.));
#322=DIRECTION('',(-1.,0.,0.));
#323=DIRECTION('',(0.,0.,-1.));
#324=DIRECTION('',(-1.,0.,0.));
#325=DIRECTION('',(0.,0.,-1.));
#326=DIRECTION('',(-1.,0.,0.));
#327=CARTESIAN_POINT('',(0.,0.,0.));
#328=CARTESIAN_POINT('',(0.000542100124880686,0.00111897004123228,0.));
#329=CARTESIAN_POINT('',(0.000542100124880686,0.00111897004123228,0.));
#330=CARTESIAN_POINT('',(-16.201389727469,0.000166727378817047,0.));
#331=CARTESIAN_POINT('',(0.000542100124880686,0.00111897004123228,0.850000000000001));
#332=CARTESIAN_POINT('',(16.202473955702,0.00111897004123228,0.850000000000001));
#333=CARTESIAN_POINT('',(0.,0.,0.));
#334=CARTESIAN_POINT('',(0.,0.,0.));
#335=CARTESIAN_POINT('',(-17.9,0.,0.));
#336=CARTESIAN_POINT('',(0.,0.,0.));
#337=CARTESIAN_POINT('',(0.,0.,0.850000000000001));
#338=CARTESIAN_POINT('',(17.9,0.,0.850000000000001));
#339=CARTESIAN_POINT('',(15.1337745751501,-9.55922942022741,0.850000000000001));
#340=CARTESIAN_POINT('',(0.,0.,5.5));
#341=CARTESIAN_POINT('',(0.,0.,5.5));
#342=CARTESIAN_POINT('',(8.35,0.,5.5));
#343=CARTESIAN_POINT('',(0.,0.,3.65));
#344=CARTESIAN_POINT('',(0.,0.,4.));
#345=CARTESIAN_POINT('',(8.35,0.,4.));
#346=CARTESIAN_POINT('',(0.,0.,0.850000000000001));
#347=CARTESIAN_POINT('',(0.,0.,0.850000000000001));
#348=CARTESIAN_POINT('',(-18.,0.,0.850000000000001));
#349=CARTESIAN_POINT('',(0.000542100124880686,0.00111897004123228,0.850000000000001));
#350=CARTESIAN_POINT('',(16.202473955702,0.00111897004123228,0.850000000000001));
#351=CARTESIAN_POINT('',(0.,0.,3.));
#352=CARTESIAN_POINT('',(0.,0.,3.));
#353=CARTESIAN_POINT('',(16.1150648427103,0.,3.));
#354=CARTESIAN_POINT('',(0.,0.,3.));
#355=CARTESIAN_POINT('',(17.,0.,3.));
#356=CARTESIAN_POINT('',(0.,0.,-0.2));
#357=CARTESIAN_POINT('',(0.,0.,2.));
#358=CARTESIAN_POINT('',(18.,0.,2.));
#359=CARTESIAN_POINT('',(0.,0.,2.));
#360=CARTESIAN_POINT('',(0.,0.,4.));
#361=CARTESIAN_POINT('',(0.,0.,4.));
#362=CARTESIAN_POINT('',(-14.1150648427103,0.,4.));
#363=CARTESIAN_POINT('',(0.,0.,1.5));
#364=CARTESIAN_POINT('',(0.,0.,2.));
#365=CARTESIAN_POINT('',(0.000542100124880686,0.00111897004123228,2.));
#366=CARTESIAN_POINT('',(-16.2013897554523,0.00111897004123228,2.));
#367=CARTESIAN_POINT('',(0.000542100124880686,0.00111897004123228,-0.2));
#368=MECHANICAL_DESIGN_GEOMETRIC_PRESENTATION_REPRESENTATION('',(#159,#160,
#161,#162,#163,#164,#165,#166,#167,#168,#169),#369);
#369=(
GEOMETRIC_REPRESENTATION_CONTEXT(3)
GLOBAL_UNCERTAINTY_ASSIGNED_CONTEXT((#370))
GLOBAL_UNIT_ASSIGNED_CONTEXT((#373,#372,#371))
REPRESENTATION_CONTEXT('E06','TOP_LEVEL_ASSEMBLY_PART')
);
#370=UNCERTAINTY_MEASURE_WITH_UNIT(LENGTH_MEASURE(0.005),#373,
'DISTANCE_ACCURACY_VALUE','Maximum Tolerance applied to model');
#371=(
NAMED_UNIT(*)
SI_UNIT($,.STERADIAN.)
SOLID_ANGLE_UNIT()
);
#372=(
NAMED_UNIT(*)
PLANE_ANGLE_UNIT()
SI_UNIT($,.RADIAN.)
);
#373=(
LENGTH_UNIT()
NAMED_UNIT(*)
SI_UNIT(.MILLI.,.METRE.)
);
#374=PRODUCT_DEFINITION_SHAPE('','',#375);
#375=PRODUCT_DEFINITION('','',#377,#376);
#376=PRODUCT_DEFINITION_CONTEXT('',#383,'design');
#377=PRODUCT_DEFINITION_FORMATION_WITH_SPECIFIED_SOURCE('','',#379,
 .NOT_KNOWN.);
#378=PRODUCT_RELATED_PRODUCT_CATEGORY('','',(#379));
#379=PRODUCT('E06','E06','E06',(#381));
#380=PRODUCT_CATEGORY('','');
#381=PRODUCT_CONTEXT('',#383,'mechanical');
#382=APPLICATION_PROTOCOL_DEFINITION('international standard',
'ap242_managed_model_based_3d_engineering',2020,#383);
#383=APPLICATION_CONTEXT('managed model based 3d engineering');
ENDSEC;
END-ISO-10303-21;
