ISO-10303-21;
HEADER;
/* Generated by software containing ST-Developer
 * from STEP Tools, Inc. (www.steptools.com) 
 */
/* OPTION: using custom renumber hook */

FILE_DESCRIPTION(
/* description */ (
'CAx-IF Rec.Pracs.---Representation and Presentation of Product Manufa
cturing Information (PMI)---4.0---2014-10-13',
'CAx-IF Rec.Pracs.---3D Tessellated Geometry---0.4---2014-09-14','2;1'),

/* implementation_level */ '2;1');

FILE_NAME(
/* name */ 'H01',
/* time_stamp */ '2026-04-13T01:14:50+03:00',
/* author */ (''),
/* organization */ (''),
/* preprocessor_version */ 'ST-DEVELOPER v18.102',
/* originating_system */ 'SIEMENS PLM Software NX2206.9140',
/* authorisation */ $);

FILE_SCHEMA (('AP242_MANAGED_MODEL_BASED_3D_ENGINEERING_MIM_LF { 1 0 10303 442 3 1 4 }'));
ENDSEC;

DATA;
#10=SHAPE_REPRESENTATION_RELATIONSHIP('','',#675,#11);
#11=ADVANCED_BREP_SHAPE_REPRESENTATION('',(#673),#1123);
#12=CYLINDRICAL_SURFACE('',#706,0.35);
#13=CYLINDRICAL_SURFACE('',#707,0.35);
#14=CYLINDRICAL_SURFACE('',#708,0.7);
#15=CYLINDRICAL_SURFACE('',#709,0.7);
#16=CYLINDRICAL_SURFACE('',#710,0.7);
#17=CYLINDRICAL_SURFACE('',#711,0.7);
#18=CYLINDRICAL_SURFACE('',#712,0.7);
#19=CYLINDRICAL_SURFACE('',#713,0.7);
#20=CYLINDRICAL_SURFACE('',#731,0.35);
#21=CYLINDRICAL_SURFACE('',#732,0.7);
#22=CYLINDRICAL_SURFACE('',#735,1.575);
#23=CYLINDRICAL_SURFACE('',#736,0.7);
#24=CYLINDRICAL_SURFACE('',#737,0.7);
#25=CIRCLE('',#681,0.7);
#26=CIRCLE('',#682,0.7);
#27=CIRCLE('',#684,0.35);
#28=CIRCLE('',#685,0.35);
#29=CIRCLE('',#686,0.7);
#30=CIRCLE('',#687,0.7);
#31=CIRCLE('',#690,0.7);
#32=CIRCLE('',#691,0.7);
#33=CIRCLE('',#692,0.35);
#34=CIRCLE('',#693,0.35);
#35=CIRCLE('',#696,0.7);
#36=CIRCLE('',#697,0.7);
#37=CIRCLE('',#699,0.7);
#38=CIRCLE('',#700,0.7);
#39=CIRCLE('',#702,0.7);
#40=CIRCLE('',#703,0.7);
#41=CIRCLE('',#717,0.35);
#42=CIRCLE('',#718,0.7);
#43=CIRCLE('',#720,0.7);
#44=CIRCLE('',#721,0.35);
#45=CIRCLE('',#724,1.575);
#46=CIRCLE('',#725,0.7);
#47=CIRCLE('',#726,0.7);
#48=CIRCLE('',#728,1.575);
#49=CIRCLE('',#729,0.7);
#50=CIRCLE('',#730,0.7);
#51=ORIENTED_EDGE('',*,*,#239,.F.);
#52=ORIENTED_EDGE('',*,*,#240,.T.);
#53=ORIENTED_EDGE('',*,*,#241,.T.);
#54=ORIENTED_EDGE('',*,*,#242,.T.);
#55=ORIENTED_EDGE('',*,*,#243,.T.);
#56=ORIENTED_EDGE('',*,*,#244,.T.);
#57=ORIENTED_EDGE('',*,*,#245,.F.);
#58=ORIENTED_EDGE('',*,*,#246,.T.);
#59=ORIENTED_EDGE('',*,*,#247,.F.);
#60=ORIENTED_EDGE('',*,*,#248,.F.);
#61=ORIENTED_EDGE('',*,*,#249,.T.);
#62=ORIENTED_EDGE('',*,*,#250,.T.);
#63=ORIENTED_EDGE('',*,*,#243,.F.);
#64=ORIENTED_EDGE('',*,*,#251,.T.);
#65=ORIENTED_EDGE('',*,*,#241,.F.);
#66=ORIENTED_EDGE('',*,*,#252,.T.);
#67=ORIENTED_EDGE('',*,*,#253,.T.);
#68=ORIENTED_EDGE('',*,*,#250,.F.);
#69=ORIENTED_EDGE('',*,*,#254,.T.);
#70=ORIENTED_EDGE('',*,*,#255,.T.);
#71=ORIENTED_EDGE('',*,*,#256,.T.);
#72=ORIENTED_EDGE('',*,*,#257,.F.);
#73=ORIENTED_EDGE('',*,*,#258,.T.);
#74=ORIENTED_EDGE('',*,*,#259,.F.);
#75=ORIENTED_EDGE('',*,*,#260,.F.);
#76=ORIENTED_EDGE('',*,*,#261,.T.);
#77=ORIENTED_EDGE('',*,*,#262,.T.);
#78=ORIENTED_EDGE('',*,*,#263,.T.);
#79=ORIENTED_EDGE('',*,*,#264,.F.);
#80=ORIENTED_EDGE('',*,*,#265,.T.);
#81=ORIENTED_EDGE('',*,*,#266,.F.);
#82=ORIENTED_EDGE('',*,*,#267,.T.);
#83=ORIENTED_EDGE('',*,*,#255,.F.);
#84=ORIENTED_EDGE('',*,*,#268,.T.);
#85=ORIENTED_EDGE('',*,*,#269,.F.);
#86=ORIENTED_EDGE('',*,*,#270,.T.);
#87=ORIENTED_EDGE('',*,*,#271,.T.);
#88=ORIENTED_EDGE('',*,*,#272,.T.);
#89=ORIENTED_EDGE('',*,*,#273,.F.);
#90=ORIENTED_EDGE('',*,*,#274,.T.);
#91=ORIENTED_EDGE('',*,*,#275,.T.);
#92=ORIENTED_EDGE('',*,*,#276,.T.);
#93=ORIENTED_EDGE('',*,*,#277,.F.);
#94=ORIENTED_EDGE('',*,*,#278,.T.);
#95=ORIENTED_EDGE('',*,*,#279,.T.);
#96=ORIENTED_EDGE('',*,*,#280,.T.);
#97=ORIENTED_EDGE('',*,*,#281,.F.);
#98=ORIENTED_EDGE('',*,*,#282,.T.);
#99=ORIENTED_EDGE('',*,*,#283,.T.);
#100=ORIENTED_EDGE('',*,*,#284,.T.);
#101=ORIENTED_EDGE('',*,*,#257,.T.);
#102=ORIENTED_EDGE('',*,*,#285,.T.);
#103=ORIENTED_EDGE('',*,*,#286,.T.);
#104=ORIENTED_EDGE('',*,*,#287,.T.);
#105=ORIENTED_EDGE('',*,*,#281,.T.);
#106=ORIENTED_EDGE('',*,*,#288,.T.);
#107=ORIENTED_EDGE('',*,*,#271,.F.);
#108=ORIENTED_EDGE('',*,*,#289,.T.);
#109=ORIENTED_EDGE('',*,*,#264,.T.);
#110=ORIENTED_EDGE('',*,*,#290,.T.);
#111=ORIENTED_EDGE('',*,*,#273,.T.);
#112=ORIENTED_EDGE('',*,*,#291,.T.);
#113=ORIENTED_EDGE('',*,*,#277,.T.);
#114=ORIENTED_EDGE('',*,*,#292,.T.);
#115=ORIENTED_EDGE('',*,*,#275,.F.);
#116=ORIENTED_EDGE('',*,*,#293,.T.);
#117=ORIENTED_EDGE('',*,*,#262,.F.);
#118=ORIENTED_EDGE('',*,*,#294,.T.);
#119=ORIENTED_EDGE('',*,*,#279,.F.);
#120=ORIENTED_EDGE('',*,*,#295,.T.);
#121=ORIENTED_EDGE('',*,*,#296,.T.);
#122=ORIENTED_EDGE('',*,*,#245,.T.);
#123=ORIENTED_EDGE('',*,*,#297,.T.);
#124=ORIENTED_EDGE('',*,*,#298,.F.);
#125=ORIENTED_EDGE('',*,*,#299,.T.);
#126=ORIENTED_EDGE('',*,*,#300,.T.);
#127=ORIENTED_EDGE('',*,*,#283,.F.);
#128=ORIENTED_EDGE('',*,*,#301,.T.);
#129=ORIENTED_EDGE('',*,*,#269,.T.);
#130=ORIENTED_EDGE('',*,*,#302,.T.);
#131=ORIENTED_EDGE('',*,*,#248,.T.);
#132=ORIENTED_EDGE('',*,*,#303,.F.);
#133=ORIENTED_EDGE('',*,*,#304,.T.);
#134=ORIENTED_EDGE('',*,*,#239,.T.);
#135=ORIENTED_EDGE('',*,*,#305,.F.);
#136=ORIENTED_EDGE('',*,*,#259,.T.);
#137=ORIENTED_EDGE('',*,*,#306,.T.);
#138=ORIENTED_EDGE('',*,*,#299,.F.);
#139=ORIENTED_EDGE('',*,*,#266,.T.);
#140=ORIENTED_EDGE('',*,*,#307,.T.);
#141=ORIENTED_EDGE('',*,*,#286,.F.);
#142=ORIENTED_EDGE('',*,*,#308,.T.);
#143=ORIENTED_EDGE('',*,*,#265,.F.);
#144=ORIENTED_EDGE('',*,*,#292,.F.);
#145=ORIENTED_EDGE('',*,*,#287,.F.);
#146=ORIENTED_EDGE('',*,*,#307,.F.);
#147=ORIENTED_EDGE('',*,*,#267,.F.);
#148=ORIENTED_EDGE('',*,*,#308,.F.);
#149=ORIENTED_EDGE('',*,*,#285,.F.);
#150=ORIENTED_EDGE('',*,*,#256,.F.);
#151=ORIENTED_EDGE('',*,*,#280,.F.);
#152=ORIENTED_EDGE('',*,*,#294,.F.);
#153=ORIENTED_EDGE('',*,*,#272,.F.);
#154=ORIENTED_EDGE('',*,*,#288,.F.);
#155=ORIENTED_EDGE('',*,*,#270,.F.);
#156=ORIENTED_EDGE('',*,*,#301,.F.);
#157=ORIENTED_EDGE('',*,*,#282,.F.);
#158=ORIENTED_EDGE('',*,*,#289,.F.);
#159=ORIENTED_EDGE('',*,*,#290,.F.);
#160=ORIENTED_EDGE('',*,*,#263,.F.);
#161=ORIENTED_EDGE('',*,*,#293,.F.);
#162=ORIENTED_EDGE('',*,*,#274,.F.);
#163=ORIENTED_EDGE('',*,*,#302,.F.);
#164=ORIENTED_EDGE('',*,*,#268,.F.);
#165=ORIENTED_EDGE('',*,*,#254,.F.);
#166=ORIENTED_EDGE('',*,*,#249,.F.);
#167=ORIENTED_EDGE('',*,*,#291,.F.);
#168=ORIENTED_EDGE('',*,*,#276,.F.);
#169=ORIENTED_EDGE('',*,*,#295,.F.);
#170=ORIENTED_EDGE('',*,*,#278,.F.);
#171=ORIENTED_EDGE('',*,*,#300,.F.);
#172=ORIENTED_EDGE('',*,*,#306,.F.);
#173=ORIENTED_EDGE('',*,*,#258,.F.);
#174=ORIENTED_EDGE('',*,*,#284,.F.);
#175=ORIENTED_EDGE('',*,*,#253,.F.);
#176=ORIENTED_EDGE('',*,*,#309,.T.);
#177=ORIENTED_EDGE('',*,*,#303,.T.);
#178=ORIENTED_EDGE('',*,*,#247,.T.);
#179=ORIENTED_EDGE('',*,*,#298,.T.);
#180=ORIENTED_EDGE('',*,*,#310,.T.);
#181=ORIENTED_EDGE('',*,*,#260,.T.);
#182=ORIENTED_EDGE('',*,*,#305,.T.);
#183=ORIENTED_EDGE('',*,*,#311,.T.);
#184=ORIENTED_EDGE('',*,*,#312,.T.);
#185=ORIENTED_EDGE('',*,*,#313,.F.);
#186=ORIENTED_EDGE('',*,*,#314,.T.);
#187=ORIENTED_EDGE('',*,*,#242,.F.);
#188=ORIENTED_EDGE('',*,*,#315,.T.);
#189=ORIENTED_EDGE('',*,*,#316,.F.);
#190=ORIENTED_EDGE('',*,*,#317,.T.);
#191=ORIENTED_EDGE('',*,*,#318,.T.);
#192=ORIENTED_EDGE('',*,*,#319,.T.);
#193=ORIENTED_EDGE('',*,*,#246,.F.);
#194=ORIENTED_EDGE('',*,*,#320,.T.);
#195=ORIENTED_EDGE('',*,*,#321,.T.);
#196=ORIENTED_EDGE('',*,*,#322,.T.);
#197=ORIENTED_EDGE('',*,*,#323,.F.);
#198=ORIENTED_EDGE('',*,*,#324,.T.);
#199=ORIENTED_EDGE('',*,*,#325,.F.);
#200=ORIENTED_EDGE('',*,*,#323,.T.);
#201=ORIENTED_EDGE('',*,*,#326,.T.);
#202=ORIENTED_EDGE('',*,*,#316,.T.);
#203=ORIENTED_EDGE('',*,*,#327,.T.);
#204=ORIENTED_EDGE('',*,*,#313,.T.);
#205=ORIENTED_EDGE('',*,*,#328,.T.);
#206=ORIENTED_EDGE('',*,*,#329,.T.);
#207=ORIENTED_EDGE('',*,*,#318,.F.);
#208=ORIENTED_EDGE('',*,*,#330,.T.);
#209=ORIENTED_EDGE('',*,*,#321,.F.);
#210=ORIENTED_EDGE('',*,*,#331,.T.);
#211=ORIENTED_EDGE('',*,*,#311,.F.);
#212=ORIENTED_EDGE('',*,*,#332,.T.);
#213=ORIENTED_EDGE('',*,*,#314,.F.);
#214=ORIENTED_EDGE('',*,*,#327,.F.);
#215=ORIENTED_EDGE('',*,*,#320,.F.);
#216=ORIENTED_EDGE('',*,*,#296,.F.);
#217=ORIENTED_EDGE('',*,*,#319,.F.);
#218=ORIENTED_EDGE('',*,*,#332,.F.);
#219=ORIENTED_EDGE('',*,*,#315,.F.);
#220=ORIENTED_EDGE('',*,*,#251,.F.);
#221=ORIENTED_EDGE('',*,*,#252,.F.);
#222=ORIENTED_EDGE('',*,*,#240,.F.);
#223=ORIENTED_EDGE('',*,*,#304,.F.);
#224=ORIENTED_EDGE('',*,*,#309,.F.);
#225=ORIENTED_EDGE('',*,*,#297,.F.);
#226=ORIENTED_EDGE('',*,*,#244,.F.);
#227=ORIENTED_EDGE('',*,*,#261,.F.);
#228=ORIENTED_EDGE('',*,*,#310,.F.);
#229=ORIENTED_EDGE('',*,*,#329,.F.);
#230=ORIENTED_EDGE('',*,*,#325,.T.);
#231=ORIENTED_EDGE('',*,*,#330,.F.);
#232=ORIENTED_EDGE('',*,*,#317,.F.);
#233=ORIENTED_EDGE('',*,*,#326,.F.);
#234=ORIENTED_EDGE('',*,*,#322,.F.);
#235=ORIENTED_EDGE('',*,*,#331,.F.);
#236=ORIENTED_EDGE('',*,*,#324,.F.);
#237=ORIENTED_EDGE('',*,*,#328,.F.);
#238=ORIENTED_EDGE('',*,*,#312,.F.);
#239=EDGE_CURVE('',#333,#334,#395,.T.);
#240=EDGE_CURVE('',#333,#335,#396,.T.);
#241=EDGE_CURVE('',#335,#336,#397,.T.);
#242=EDGE_CURVE('',#336,#334,#398,.F.);
#243=EDGE_CURVE('',#337,#338,#399,.T.);
#244=EDGE_CURVE('',#338,#339,#400,.T.);
#245=EDGE_CURVE('',#340,#339,#401,.T.);
#246=EDGE_CURVE('',#340,#337,#402,.F.);
#247=EDGE_CURVE('',#341,#342,#403,.T.);
#248=EDGE_CURVE('',#343,#341,#404,.T.);
#249=EDGE_CURVE('',#343,#344,#405,.T.);
#250=EDGE_CURVE('',#344,#342,#406,.T.);
#251=EDGE_CURVE('',#337,#336,#407,.T.);
#252=EDGE_CURVE('',#335,#345,#408,.T.);
#253=EDGE_CURVE('',#345,#342,#409,.T.);
#254=EDGE_CURVE('',#344,#346,#25,.T.);
#255=EDGE_CURVE('',#346,#347,#410,.T.);
#256=EDGE_CURVE('',#347,#348,#411,.T.);
#257=EDGE_CURVE('',#349,#348,#412,.T.);
#258=EDGE_CURVE('',#349,#350,#26,.T.);
#259=EDGE_CURVE('',#351,#350,#413,.T.);
#260=EDGE_CURVE('',#352,#351,#414,.T.);
#261=EDGE_CURVE('',#352,#338,#415,.T.);
#262=EDGE_CURVE('',#353,#354,#416,.T.);
#263=EDGE_CURVE('',#354,#355,#417,.F.);
#264=EDGE_CURVE('',#356,#355,#418,.T.);
#265=EDGE_CURVE('',#356,#357,#27,.T.);
#266=EDGE_CURVE('',#358,#357,#419,.T.);
#267=EDGE_CURVE('',#358,#347,#28,.T.);
#268=EDGE_CURVE('',#346,#359,#420,.F.);
#269=EDGE_CURVE('',#360,#359,#421,.T.);
#270=EDGE_CURVE('',#360,#361,#29,.F.);
#271=EDGE_CURVE('',#361,#362,#422,.T.);
#272=EDGE_CURVE('',#362,#353,#30,.F.);
#273=EDGE_CURVE('',#363,#364,#423,.T.);
#274=EDGE_CURVE('',#363,#365,#424,.T.);
#275=EDGE_CURVE('',#365,#366,#425,.T.);
#276=EDGE_CURVE('',#366,#364,#426,.F.);
#277=EDGE_CURVE('',#367,#368,#427,.T.);
#278=EDGE_CURVE('',#367,#369,#428,.T.);
#279=EDGE_CURVE('',#369,#370,#429,.T.);
#280=EDGE_CURVE('',#370,#371,#31,.F.);
#281=EDGE_CURVE('',#372,#371,#430,.T.);
#282=EDGE_CURVE('',#372,#373,#32,.F.);
#283=EDGE_CURVE('',#373,#374,#431,.T.);
#284=EDGE_CURVE('',#374,#349,#432,.T.);
#285=EDGE_CURVE('',#348,#375,#33,.T.);
#286=EDGE_CURVE('',#375,#376,#433,.T.);
#287=EDGE_CURVE('',#376,#368,#34,.T.);
#288=EDGE_CURVE('',#371,#362,#434,.T.);
#289=EDGE_CURVE('',#361,#372,#435,.T.);
#290=EDGE_CURVE('',#355,#363,#35,.T.);
#291=EDGE_CURVE('',#364,#367,#36,.T.);
#292=EDGE_CURVE('',#368,#356,#436,.F.);
#293=EDGE_CURVE('',#365,#354,#37,.F.);
#294=EDGE_CURVE('',#353,#370,#437,.F.);
#295=EDGE_CURVE('',#369,#366,#38,.F.);
#296=EDGE_CURVE('',#334,#340,#438,.T.);
#297=EDGE_CURVE('',#339,#377,#439,.T.);
#298=EDGE_CURVE('',#378,#377,#440,.T.);
#299=EDGE_CURVE('',#378,#379,#441,.T.);
#300=EDGE_CURVE('',#379,#374,#39,.T.);
#301=EDGE_CURVE('',#373,#360,#442,.F.);
#302=EDGE_CURVE('',#359,#343,#40,.T.);
#303=EDGE_CURVE('',#380,#341,#443,.T.);
#304=EDGE_CURVE('',#380,#333,#444,.T.);
#305=EDGE_CURVE('',#351,#378,#445,.T.);
#306=EDGE_CURVE('',#350,#379,#446,.F.);
#307=EDGE_CURVE('',#357,#376,#447,.T.);
#308=EDGE_CURVE('',#375,#358,#448,.F.);
#309=EDGE_CURVE('',#345,#380,#449,.T.);
#310=EDGE_CURVE('',#377,#352,#450,.T.);
#311=EDGE_CURVE('',#381,#382,#451,.T.);
#312=EDGE_CURVE('',#382,#383,#452,.T.);
#313=EDGE_CURVE('',#384,#383,#453,.T.);
#314=EDGE_CURVE('',#384,#334,#41,.F.);
#315=EDGE_CURVE('',#336,#381,#42,.T.);
#316=EDGE_CURVE('',#385,#386,#454,.T.);
#317=EDGE_CURVE('',#385,#387,#455,.F.);
#318=EDGE_CURVE('',#387,#388,#456,.T.);
#319=EDGE_CURVE('',#388,#337,#43,.T.);
#320=EDGE_CURVE('',#340,#386,#44,.F.);
#321=EDGE_CURVE('',#389,#390,#457,.T.);
#322=EDGE_CURVE('',#390,#391,#458,.T.);
#323=EDGE_CURVE('',#392,#391,#459,.T.);
#324=EDGE_CURVE('',#392,#389,#460,.F.);
#325=EDGE_CURVE('',#393,#393,#45,.F.);
#326=EDGE_CURVE('',#391,#385,#46,.F.);
#327=EDGE_CURVE('',#386,#384,#461,.F.);
#328=EDGE_CURVE('',#383,#392,#47,.F.);
#329=EDGE_CURVE('',#394,#394,#48,.F.);
#330=EDGE_CURVE('',#387,#390,#49,.T.);
#331=EDGE_CURVE('',#389,#382,#50,.T.);
#332=EDGE_CURVE('',#381,#388,#462,.F.);
#333=VERTEX_POINT('',#933);
#334=VERTEX_POINT('',#934);
#335=VERTEX_POINT('',#936);
#336=VERTEX_POINT('',#938);
#337=VERTEX_POINT('',#942);
#338=VERTEX_POINT('',#943);
#339=VERTEX_POINT('',#945);
#340=VERTEX_POINT('',#947);
#341=VERTEX_POINT('',#951);
#342=VERTEX_POINT('',#952);
#343=VERTEX_POINT('',#954);
#344=VERTEX_POINT('',#956);
#345=VERTEX_POINT('',#961);
#346=VERTEX_POINT('',#964);
#347=VERTEX_POINT('',#966);
#348=VERTEX_POINT('',#968);
#349=VERTEX_POINT('',#970);
#350=VERTEX_POINT('',#972);
#351=VERTEX_POINT('',#974);
#352=VERTEX_POINT('',#976);
#353=VERTEX_POINT('',#980);
#354=VERTEX_POINT('',#981);
#355=VERTEX_POINT('',#983);
#356=VERTEX_POINT('',#985);
#357=VERTEX_POINT('',#987);
#358=VERTEX_POINT('',#989);
#359=VERTEX_POINT('',#992);
#360=VERTEX_POINT('',#994);
#361=VERTEX_POINT('',#996);
#362=VERTEX_POINT('',#998);
#363=VERTEX_POINT('',#1002);
#364=VERTEX_POINT('',#1003);
#365=VERTEX_POINT('',#1005);
#366=VERTEX_POINT('',#1007);
#367=VERTEX_POINT('',#1011);
#368=VERTEX_POINT('',#1012);
#369=VERTEX_POINT('',#1014);
#370=VERTEX_POINT('',#1016);
#371=VERTEX_POINT('',#1018);
#372=VERTEX_POINT('',#1020);
#373=VERTEX_POINT('',#1022);
#374=VERTEX_POINT('',#1024);
#375=VERTEX_POINT('',#1027);
#376=VERTEX_POINT('',#1029);
#377=VERTEX_POINT('',#1045);
#378=VERTEX_POINT('',#1047);
#379=VERTEX_POINT('',#1049);
#380=VERTEX_POINT('',#1054);
#381=VERTEX_POINT('',#1076);
#382=VERTEX_POINT('',#1077);
#383=VERTEX_POINT('',#1079);
#384=VERTEX_POINT('',#1081);
#385=VERTEX_POINT('',#1086);
#386=VERTEX_POINT('',#1087);
#387=VERTEX_POINT('',#1089);
#388=VERTEX_POINT('',#1091);
#389=VERTEX_POINT('',#1096);
#390=VERTEX_POINT('',#1097);
#391=VERTEX_POINT('',#1099);
#392=VERTEX_POINT('',#1101);
#393=VERTEX_POINT('',#1105);
#394=VERTEX_POINT('',#1111);
#395=LINE('',#932,#463);
#396=LINE('',#935,#464);
#397=LINE('',#937,#465);
#398=LINE('',#939,#466);
#399=LINE('',#941,#467);
#400=LINE('',#944,#468);
#401=LINE('',#946,#469);
#402=LINE('',#948,#470);
#403=LINE('',#950,#471);
#404=LINE('',#953,#472);
#405=LINE('',#955,#473);
#406=LINE('',#957,#474);
#407=LINE('',#959,#475);
#408=LINE('',#960,#476);
#409=LINE('',#962,#477);
#410=LINE('',#965,#478);
#411=LINE('',#967,#479);
#412=LINE('',#969,#480);
#413=LINE('',#973,#481);
#414=LINE('',#975,#482);
#415=LINE('',#977,#483);
#416=LINE('',#979,#484);
#417=LINE('',#982,#485);
#418=LINE('',#984,#486);
#419=LINE('',#988,#487);
#420=LINE('',#991,#488);
#421=LINE('',#993,#489);
#422=LINE('',#997,#490);
#423=LINE('',#1001,#491);
#424=LINE('',#1004,#492);
#425=LINE('',#1006,#493);
#426=LINE('',#1008,#494);
#427=LINE('',#1010,#495);
#428=LINE('',#1013,#496);
#429=LINE('',#1015,#497);
#430=LINE('',#1019,#498);
#431=LINE('',#1023,#499);
#432=LINE('',#1025,#500);
#433=LINE('',#1028,#501);
#434=LINE('',#1032,#502);
#435=LINE('',#1033,#503);
#436=LINE('',#1037,#504);
#437=LINE('',#1040,#505);
#438=LINE('',#1043,#506);
#439=LINE('',#1044,#507);
#440=LINE('',#1046,#508);
#441=LINE('',#1048,#509);
#442=LINE('',#1051,#510);
#443=LINE('',#1053,#511);
#444=LINE('',#1055,#512);
#445=LINE('',#1057,#513);
#446=LINE('',#1058,#514);
#447=LINE('',#1060,#515);
#448=LINE('',#1061,#516);
#449=LINE('',#1071,#517);
#450=LINE('',#1073,#518);
#451=LINE('',#1075,#519);
#452=LINE('',#1078,#520);
#453=LINE('',#1080,#521);
#454=LINE('',#1085,#522);
#455=LINE('',#1088,#523);
#456=LINE('',#1090,#524);
#457=LINE('',#1095,#525);
#458=LINE('',#1098,#526);
#459=LINE('',#1100,#527);
#460=LINE('',#1102,#528);
#461=LINE('',#1107,#529);
#462=LINE('',#1114,#530);
#463=VECTOR('',#742,1000.);
#464=VECTOR('',#743,1000.);
#465=VECTOR('',#744,1000.);
#466=VECTOR('',#745,1000.);
#467=VECTOR('',#748,1000.);
#468=VECTOR('',#749,1000.);
#469=VECTOR('',#750,1000.);
#470=VECTOR('',#751,1000.);
#471=VECTOR('',#754,1000.);
#472=VECTOR('',#755,1000.);
#473=VECTOR('',#756,1000.);
#474=VECTOR('',#757,1000.);
#475=VECTOR('',#760,1000.);
#476=VECTOR('',#761,1000.);
#477=VECTOR('',#762,1000.);
#478=VECTOR('',#765,1000.);
#479=VECTOR('',#766,1000.);
#480=VECTOR('',#767,1000.);
#481=VECTOR('',#770,1000.);
#482=VECTOR('',#771,1000.);
#483=VECTOR('',#772,1000.);
#484=VECTOR('',#775,1000.);
#485=VECTOR('',#776,1000.);
#486=VECTOR('',#777,1000.);
#487=VECTOR('',#780,1000.);
#488=VECTOR('',#783,1000.);
#489=VECTOR('',#784,1000.);
#490=VECTOR('',#787,1000.);
#491=VECTOR('',#792,1000.);
#492=VECTOR('',#793,1000.);
#493=VECTOR('',#794,1000.);
#494=VECTOR('',#795,1000.);
#495=VECTOR('',#798,1000.);
#496=VECTOR('',#799,1000.);
#497=VECTOR('',#800,1000.);
#498=VECTOR('',#803,1000.);
#499=VECTOR('',#806,1000.);
#500=VECTOR('',#807,1000.);
#501=VECTOR('',#810,1000.);
#502=VECTOR('',#815,1000.);
#503=VECTOR('',#816,1000.);
#504=VECTOR('',#823,1000.);
#505=VECTOR('',#828,1000.);
#506=VECTOR('',#833,1000.);
#507=VECTOR('',#834,1000.);
#508=VECTOR('',#835,1000.);
#509=VECTOR('',#836,1000.);
#510=VECTOR('',#839,1000.);
#511=VECTOR('',#842,1000.);
#512=VECTOR('',#843,1000.);
#513=VECTOR('',#846,1000.);
#514=VECTOR('',#847,1000.);
#515=VECTOR('',#850,1000.);
#516=VECTOR('',#851,1000.);
#517=VECTOR('',#870,1000.);
#518=VECTOR('',#873,1000.);
#519=VECTOR('',#876,1000.);
#520=VECTOR('',#877,1000.);
#521=VECTOR('',#878,1000.);
#522=VECTOR('',#885,1000.);
#523=VECTOR('',#886,1000.);
#524=VECTOR('',#887,1000.);
#525=VECTOR('',#894,1000.);
#526=VECTOR('',#895,1000.);
#527=VECTOR('',#896,1000.);
#528=VECTOR('',#897,1000.);
#529=VECTOR('',#904,1000.);
#530=VECTOR('',#915,1000.);
#531=EDGE_LOOP('',(#51,#52,#53,#54));
#532=EDGE_LOOP('',(#55,#56,#57,#58));
#533=EDGE_LOOP('',(#59,#60,#61,#62));
#534=EDGE_LOOP('',(#63,#64,#65,#66,#67,#68,#69,#70,#71,#72,#73,#74,#75,
#76));
#535=EDGE_LOOP('',(#77,#78,#79,#80,#81,#82,#83,#84,#85,#86,#87,#88));
#536=EDGE_LOOP('',(#89,#90,#91,#92));
#537=EDGE_LOOP('',(#93,#94,#95,#96,#97,#98,#99,#100,#101,#102,#103,#104));
#538=EDGE_LOOP('',(#105,#106,#107,#108));
#539=EDGE_LOOP('',(#109,#110,#111,#112,#113,#114));
#540=EDGE_LOOP('',(#115,#116,#117,#118,#119,#120));
#541=EDGE_LOOP('',(#121,#122,#123,#124,#125,#126,#127,#128,#129,#130,#131,
#132,#133,#134));
#542=EDGE_LOOP('',(#135,#136,#137,#138));
#543=EDGE_LOOP('',(#139,#140,#141,#142));
#544=EDGE_LOOP('',(#143,#144,#145,#146));
#545=EDGE_LOOP('',(#147,#148,#149,#150));
#546=EDGE_LOOP('',(#151,#152,#153,#154));
#547=EDGE_LOOP('',(#155,#156,#157,#158));
#548=EDGE_LOOP('',(#159,#160,#161,#162));
#549=EDGE_LOOP('',(#163,#164,#165,#166));
#550=EDGE_LOOP('',(#167,#168,#169,#170));
#551=EDGE_LOOP('',(#171,#172,#173,#174));
#552=EDGE_LOOP('',(#175,#176,#177,#178));
#553=EDGE_LOOP('',(#179,#180,#181,#182));
#554=EDGE_LOOP('',(#183,#184,#185,#186,#187,#188));
#555=EDGE_LOOP('',(#189,#190,#191,#192,#193,#194));
#556=EDGE_LOOP('',(#195,#196,#197,#198));
#557=EDGE_LOOP('',(#199));
#558=EDGE_LOOP('',(#200,#201,#202,#203,#204,#205));
#559=EDGE_LOOP('',(#206));
#560=EDGE_LOOP('',(#207,#208,#209,#210,#211,#212));
#561=EDGE_LOOP('',(#213,#214,#215,#216));
#562=EDGE_LOOP('',(#217,#218,#219,#220));
#563=EDGE_LOOP('',(#221,#222,#223,#224));
#564=EDGE_LOOP('',(#225,#226,#227,#228));
#565=EDGE_LOOP('',(#229));
#566=EDGE_LOOP('',(#230));
#567=EDGE_LOOP('',(#231,#232,#233,#234));
#568=EDGE_LOOP('',(#235,#236,#237,#238));
#569=FACE_BOUND('',#531,.T.);
#570=FACE_BOUND('',#532,.T.);
#571=FACE_BOUND('',#533,.T.);
#572=FACE_BOUND('',#534,.T.);
#573=FACE_BOUND('',#535,.T.);
#574=FACE_BOUND('',#536,.T.);
#575=FACE_BOUND('',#537,.T.);
#576=FACE_BOUND('',#538,.T.);
#577=FACE_BOUND('',#539,.T.);
#578=FACE_BOUND('',#540,.T.);
#579=FACE_BOUND('',#541,.T.);
#580=FACE_BOUND('',#542,.T.);
#581=FACE_BOUND('',#543,.T.);
#582=FACE_BOUND('',#544,.T.);
#583=FACE_BOUND('',#545,.T.);
#584=FACE_BOUND('',#546,.T.);
#585=FACE_BOUND('',#547,.T.);
#586=FACE_BOUND('',#548,.T.);
#587=FACE_BOUND('',#549,.T.);
#588=FACE_BOUND('',#550,.T.);
#589=FACE_BOUND('',#551,.T.);
#590=FACE_BOUND('',#552,.T.);
#591=FACE_BOUND('',#553,.T.);
#592=FACE_BOUND('',#554,.T.);
#593=FACE_BOUND('',#555,.T.);
#594=FACE_BOUND('',#556,.T.);
#595=FACE_BOUND('',#557,.T.);
#596=FACE_BOUND('',#558,.T.);
#597=FACE_BOUND('',#559,.T.);
#598=FACE_BOUND('',#560,.T.);
#599=FACE_BOUND('',#561,.T.);
#600=FACE_BOUND('',#562,.T.);
#601=FACE_BOUND('',#563,.T.);
#602=FACE_BOUND('',#564,.T.);
#603=FACE_BOUND('',#565,.T.);
#604=FACE_BOUND('',#566,.T.);
#605=FACE_BOUND('',#567,.T.);
#606=FACE_BOUND('',#568,.T.);
#607=PLANE('',#677);
#608=PLANE('',#678);
#609=PLANE('',#679);
#610=PLANE('',#680);
#611=PLANE('',#683);
#612=PLANE('',#688);
#613=PLANE('',#689);
#614=PLANE('',#694);
#615=PLANE('',#695);
#616=PLANE('',#698);
#617=PLANE('',#701);
#618=PLANE('',#704);
#619=PLANE('',#705);
#620=PLANE('',#714);
#621=PLANE('',#715);
#622=PLANE('',#716);
#623=PLANE('',#719);
#624=PLANE('',#722);
#625=PLANE('',#723);
#626=PLANE('',#727);
#627=PLANE('',#733);
#628=PLANE('',#734);
#629=ADVANCED_FACE('',(#569),#607,.T.);
#630=ADVANCED_FACE('',(#570),#608,.T.);
#631=ADVANCED_FACE('',(#571),#609,.T.);
#632=ADVANCED_FACE('',(#572),#610,.T.);
#633=ADVANCED_FACE('',(#573),#611,.F.);
#634=ADVANCED_FACE('',(#574),#612,.F.);
#635=ADVANCED_FACE('',(#575),#613,.F.);
#636=ADVANCED_FACE('',(#576),#614,.F.);
#637=ADVANCED_FACE('',(#577),#615,.T.);
#638=ADVANCED_FACE('',(#578),#616,.F.);
#639=ADVANCED_FACE('',(#579),#617,.T.);
#640=ADVANCED_FACE('',(#580),#618,.T.);
#641=ADVANCED_FACE('',(#581),#619,.T.);
#642=ADVANCED_FACE('',(#582),#12,.F.);
#643=ADVANCED_FACE('',(#583),#13,.F.);
#644=ADVANCED_FACE('',(#584),#14,.T.);
#645=ADVANCED_FACE('',(#585),#15,.T.);
#646=ADVANCED_FACE('',(#586),#16,.T.);
#647=ADVANCED_FACE('',(#587),#17,.T.);
#648=ADVANCED_FACE('',(#588),#18,.T.);
#649=ADVANCED_FACE('',(#589),#19,.T.);
#650=ADVANCED_FACE('',(#590),#620,.F.);
#651=ADVANCED_FACE('',(#591),#621,.F.);
#652=ADVANCED_FACE('',(#592),#622,.T.);
#653=ADVANCED_FACE('',(#593),#623,.T.);
#654=ADVANCED_FACE('',(#594),#624,.T.);
#655=ADVANCED_FACE('',(#595,#596),#625,.F.);
#656=ADVANCED_FACE('',(#597,#598),#626,.T.);
#657=ADVANCED_FACE('',(#599),#20,.F.);
#658=ADVANCED_FACE('',(#600),#21,.T.);
#659=ADVANCED_FACE('',(#601),#627,.F.);
#660=ADVANCED_FACE('',(#602),#628,.F.);
#661=ADVANCED_FACE('',(#603,#604),#22,.F.);
#662=ADVANCED_FACE('',(#605),#23,.T.);
#663=ADVANCED_FACE('',(#606),#24,.T.);
#664=CLOSED_SHELL('',(#629,#630,#631,#632,#633,#634,#635,#636,#637,#638,
#639,#640,#641,#642,#643,#644,#645,#646,#647,#648,#649,#650,#651,#652,#653,
#654,#655,#656,#657,#658,#659,#660,#661,#662,#663));
#665=STYLED_ITEM('',(#666),#673);
#666=PRESENTATION_STYLE_ASSIGNMENT((#667));
#667=SURFACE_STYLE_USAGE(.BOTH.,#668);
#668=SURFACE_SIDE_STYLE('',(#669));
#669=SURFACE_STYLE_FILL_AREA(#670);
#670=FILL_AREA_STYLE('',(#671));
#671=FILL_AREA_STYLE_COLOUR('',#672);
#672=COLOUR_RGB('',0.611764705882353,0.658823529411765,0.670588235294118);
#673=MANIFOLD_SOLID_BREP('Extrude (2)',#664);
#674=SHAPE_DEFINITION_REPRESENTATION(#1128,#675);
#675=SHAPE_REPRESENTATION('H01',(#676),#1123);
#676=AXIS2_PLACEMENT_3D('',#930,#738,#739);
#677=AXIS2_PLACEMENT_3D('',#931,#740,#741);
#678=AXIS2_PLACEMENT_3D('',#940,#746,#747);
#679=AXIS2_PLACEMENT_3D('',#949,#752,#753);
#680=AXIS2_PLACEMENT_3D('',#958,#758,#759);
#681=AXIS2_PLACEMENT_3D('',#963,#763,#764);
#682=AXIS2_PLACEMENT_3D('',#971,#768,#769);
#683=AXIS2_PLACEMENT_3D('',#978,#773,#774);
#684=AXIS2_PLACEMENT_3D('',#986,#778,#779);
#685=AXIS2_PLACEMENT_3D('',#990,#781,#782);
#686=AXIS2_PLACEMENT_3D('',#995,#785,#786);
#687=AXIS2_PLACEMENT_3D('',#999,#788,#789);
#688=AXIS2_PLACEMENT_3D('',#1000,#790,#791);
#689=AXIS2_PLACEMENT_3D('',#1009,#796,#797);
#690=AXIS2_PLACEMENT_3D('',#1017,#801,#802);
#691=AXIS2_PLACEMENT_3D('',#1021,#804,#805);
#692=AXIS2_PLACEMENT_3D('',#1026,#808,#809);
#693=AXIS2_PLACEMENT_3D('',#1030,#811,#812);
#694=AXIS2_PLACEMENT_3D('',#1031,#813,#814);
#695=AXIS2_PLACEMENT_3D('',#1034,#817,#818);
#696=AXIS2_PLACEMENT_3D('',#1035,#819,#820);
#697=AXIS2_PLACEMENT_3D('',#1036,#821,#822);
#698=AXIS2_PLACEMENT_3D('',#1038,#824,#825);
#699=AXIS2_PLACEMENT_3D('',#1039,#826,#827);
#700=AXIS2_PLACEMENT_3D('',#1041,#829,#830);
#701=AXIS2_PLACEMENT_3D('',#1042,#831,#832);
#702=AXIS2_PLACEMENT_3D('',#1050,#837,#838);
#703=AXIS2_PLACEMENT_3D('',#1052,#840,#841);
#704=AXIS2_PLACEMENT_3D('',#1056,#844,#845);
#705=AXIS2_PLACEMENT_3D('',#1059,#848,#849);
#706=AXIS2_PLACEMENT_3D('',#1062,#852,#853);
#707=AXIS2_PLACEMENT_3D('',#1063,#854,#855);
#708=AXIS2_PLACEMENT_3D('',#1064,#856,#857);
#709=AXIS2_PLACEMENT_3D('',#1065,#858,#859);
#710=AXIS2_PLACEMENT_3D('',#1066,#860,#861);
#711=AXIS2_PLACEMENT_3D('',#1067,#862,#863);
#712=AXIS2_PLACEMENT_3D('',#1068,#864,#865);
#713=AXIS2_PLACEMENT_3D('',#1069,#866,#867);
#714=AXIS2_PLACEMENT_3D('',#1070,#868,#869);
#715=AXIS2_PLACEMENT_3D('',#1072,#871,#872);
#716=AXIS2_PLACEMENT_3D('',#1074,#874,#875);
#717=AXIS2_PLACEMENT_3D('',#1082,#879,#880);
#718=AXIS2_PLACEMENT_3D('',#1083,#881,#882);
#719=AXIS2_PLACEMENT_3D('',#1084,#883,#884);
#720=AXIS2_PLACEMENT_3D('',#1092,#888,#889);
#721=AXIS2_PLACEMENT_3D('',#1093,#890,#891);
#722=AXIS2_PLACEMENT_3D('',#1094,#892,#893);
#723=AXIS2_PLACEMENT_3D('',#1103,#898,#899);
#724=AXIS2_PLACEMENT_3D('',#1104,#900,#901);
#725=AXIS2_PLACEMENT_3D('',#1106,#902,#903);
#726=AXIS2_PLACEMENT_3D('',#1108,#905,#906);
#727=AXIS2_PLACEMENT_3D('',#1109,#907,#908);
#728=AXIS2_PLACEMENT_3D('',#1110,#909,#910);
#729=AXIS2_PLACEMENT_3D('',#1112,#911,#912);
#730=AXIS2_PLACEMENT_3D('',#1113,#913,#914);
#731=AXIS2_PLACEMENT_3D('',#1115,#916,#917);
#732=AXIS2_PLACEMENT_3D('',#1116,#918,#919);
#733=AXIS2_PLACEMENT_3D('',#1117,#920,#921);
#734=AXIS2_PLACEMENT_3D('',#1118,#922,#923);
#735=AXIS2_PLACEMENT_3D('',#1119,#924,#925);
#736=AXIS2_PLACEMENT_3D('',#1120,#926,#927);
#737=AXIS2_PLACEMENT_3D('',#1121,#928,#929);
#738=DIRECTION('',(0.,0.,1.));
#739=DIRECTION('',(1.,0.,0.));
#740=DIRECTION('',(-1.26790420171062E-15,-1.,-6.42179031823957E-31));
#741=DIRECTION('',(1.,-1.26790420171062E-15,0.));
#742=DIRECTION('',(1.,-1.26790420171062E-15,5.41363512472269E-32));
#743=DIRECTION('',(5.06488606124615E-16,0.,-1.));
#744=DIRECTION('',(1.,-1.26790420171062E-15,2.88160045843323E-16));
#745=DIRECTION('',(5.06488606124615E-16,0.,-1.));
#746=DIRECTION('',(-1.26790420171062E-15,-1.,-6.42179031823957E-31));
#747=DIRECTION('',(1.,-1.26790420171062E-15,0.));
#748=DIRECTION('',(1.,-1.26790420171062E-15,2.88160045843323E-16));
#749=DIRECTION('',(-8.25187438729685E-46,-6.42179031823957E-31,1.));
#750=DIRECTION('',(1.,-1.26790420171062E-15,5.41363512472269E-32));
#751=DIRECTION('',(0.,0.,1.));
#752=DIRECTION('',(-1.28498035257541E-15,-1.,0.));
#753=DIRECTION('',(1.,-1.28498035257541E-15,-1.97215226305253E-31));
#754=DIRECTION('',(5.06488606124615E-16,-6.50827907673438E-31,-1.));
#755=DIRECTION('',(1.,-1.28498035257541E-15,-1.97215226305253E-31));
#756=DIRECTION('',(1.18532872517817E-31,0.,-1.));
#757=DIRECTION('',(1.,-1.28498035257541E-15,-1.97215226305253E-31));
#758=DIRECTION('',(-4.66707459548771E-30,-3.72426508966772E-15,-1.));
#759=DIRECTION('',(3.94430452610506E-31,1.,-3.72426508966772E-15));
#760=DIRECTION('',(-1.,1.26790420171062E-15,-5.49367599861831E-32));
#761=DIRECTION('',(-0.707106781186546,-0.707106781186549,2.63345309984038E-15));
#762=DIRECTION('',(-1.28498035257541E-15,-1.,3.72426508966772E-15));
#763=DIRECTION('',(-4.66707459548771E-30,-3.72426508966772E-15,-1.));
#764=DIRECTION('',(3.94430452610506E-31,1.,-3.72426508966772E-15));
#765=DIRECTION('',(1.37209766461442E-15,1.,-3.72426508966772E-15));
#766=DIRECTION('',(1.,-1.28498035257541E-15,-1.97215226305253E-31));
#767=DIRECTION('',(1.37209766461442E-15,1.,-3.72426508966772E-15));
#768=DIRECTION('',(-4.66707459548771E-30,-3.72426508966772E-15,-1.));
#769=DIRECTION('',(3.94430452610506E-31,1.,-3.72426508966772E-15));
#770=DIRECTION('',(1.,-1.28498035257541E-15,-1.97215226305253E-31));
#771=DIRECTION('',(-1.28498035257541E-15,-1.,3.72426508966772E-15));
#772=DIRECTION('',(-0.707106781186548,0.707106781186548,-2.63345309984037E-15));
#773=DIRECTION('',(1.,-1.28498035257541E-15,-1.97215226305253E-31));
#774=DIRECTION('',(1.28498035257541E-15,1.,0.));
#775=DIRECTION('',(-1.28498035257541E-15,-1.,0.));
#776=DIRECTION('',(1.18532872517817E-31,0.,-1.));
#777=DIRECTION('',(-1.28498035257541E-15,-1.,0.));
#778=DIRECTION('',(1.,-1.28498035257541E-15,-1.97215226305253E-31));
#779=DIRECTION('',(1.28498035257541E-15,1.,0.));
#780=DIRECTION('',(3.70991073945359E-32,-2.36553201269565E-15,-1.));
#781=DIRECTION('',(1.,-1.28498035257541E-15,-1.97215226305253E-31));
#782=DIRECTION('',(1.28498035257541E-15,1.,0.));
#783=DIRECTION('',(1.18532872517817E-31,0.,-1.));
#784=DIRECTION('',(-1.31989829693888E-15,-1.,3.77113799125393E-15));
#785=DIRECTION('',(1.,-1.28498035257541E-15,-1.97215226305253E-31));
#786=DIRECTION('',(1.28498035257541E-15,1.,0.));
#787=DIRECTION('',(1.18532872517817E-31,0.,-1.));
#788=DIRECTION('',(1.,-1.28498035257541E-15,-1.97215226305253E-31));
#789=DIRECTION('',(1.28498035257541E-15,1.,0.));
#790=DIRECTION('',(9.86076131526265E-31,1.,0.));
#791=DIRECTION('',(-1.18532872517817E-31,0.,1.));
#792=DIRECTION('',(1.,9.86076131526265E-31,-1.18532872517817E-31));
#793=DIRECTION('',(1.18532872517817E-31,0.,-1.));
#794=DIRECTION('',(1.,9.86076131526265E-31,-1.18532872517817E-31));
#795=DIRECTION('',(1.18532872517817E-31,0.,-1.));
#796=DIRECTION('',(-1.,1.28498035257541E-15,1.97215226305253E-31));
#797=DIRECTION('',(-1.28498035257541E-15,-1.,0.));
#798=DIRECTION('',(1.28498035257541E-15,1.,0.));
#799=DIRECTION('',(1.18532872517817E-31,0.,-1.));
#800=DIRECTION('',(1.28498035257541E-15,1.,0.));
#801=DIRECTION('',(-1.,1.28498035257541E-15,1.97215226305253E-31));
#802=DIRECTION('',(-1.28498035257541E-15,-1.,0.));
#803=DIRECTION('',(1.18532872517817E-31,0.,-1.));
#804=DIRECTION('',(-1.,1.28498035257541E-15,1.97215226305253E-31));
#805=DIRECTION('',(-1.28498035257541E-15,-1.,0.));
#806=DIRECTION('',(-1.31989829693888E-15,-1.,3.77113799125393E-15));
#807=DIRECTION('',(1.18532872517817E-31,0.,-1.));
#808=DIRECTION('',(-1.,1.28498035257541E-15,1.97215226305253E-31));
#809=DIRECTION('',(-1.28498035257541E-15,-1.,0.));
#810=DIRECTION('',(3.70991073945359E-32,-2.36553201269565E-15,-1.));
#811=DIRECTION('',(-1.,1.28498035257541E-15,1.97215226305253E-31));
#812=DIRECTION('',(-1.28498035257541E-15,-1.,0.));
#813=DIRECTION('',(-9.86076131526265E-31,-1.,0.));
#814=DIRECTION('',(1.18532872517817E-31,0.,-1.));
#815=DIRECTION('',(-1.,-9.86076131526265E-31,1.18532872517817E-31));
#816=DIRECTION('',(1.,9.86076131526265E-31,-5.04891353014914E-30));
#817=DIRECTION('',(-1.18532872517817E-31,0.,1.));
#818=DIRECTION('',(1.,9.86076131526265E-31,-1.18532872517817E-31));
#819=DIRECTION('',(-1.18532872517817E-31,0.,1.));
#820=DIRECTION('',(1.,9.86076131526265E-31,-1.18532872517817E-31));
#821=DIRECTION('',(-1.18532872517817E-31,0.,1.));
#822=DIRECTION('',(1.,9.86076131526265E-31,-1.18532872517817E-31));
#823=DIRECTION('',(1.,-1.28498035257541E-15,-1.97215226305253E-31));
#824=DIRECTION('',(-1.18532872517817E-31,0.,1.));
#825=DIRECTION('',(1.,9.86076131526265E-31,-1.18532872517817E-31));
#826=DIRECTION('',(-1.18532872517817E-31,0.,1.));
#827=DIRECTION('',(1.,9.86076131526265E-31,-1.18532872517817E-31));
#828=DIRECTION('',(-1.,-9.86076131526265E-31,1.18532872517817E-31));
#829=DIRECTION('',(-1.18532872517817E-31,0.,1.));
#830=DIRECTION('',(1.,9.86076131526265E-31,-1.18532872517817E-31));
#831=DIRECTION('',(4.72730535309419E-30,3.77113799125393E-15,1.));
#832=DIRECTION('',(-5.91645678915759E-31,-1.,3.77113799125393E-15));
#833=DIRECTION('',(1.,-1.26790420171062E-15,5.41363512472269E-32));
#834=DIRECTION('',(0.707106781186548,-0.707106781186548,2.66659724640587E-15));
#835=DIRECTION('',(1.28498035257541E-15,1.,-3.77113799125393E-15));
#836=DIRECTION('',(1.,-1.28498035257541E-15,-1.97215226305253E-31));
#837=DIRECTION('',(4.72730535309419E-30,3.77113799125393E-15,1.));
#838=DIRECTION('',(-5.91645678915759E-31,-1.,3.77113799125393E-15));
#839=DIRECTION('',(1.,9.86076131526265E-31,-5.04891353014914E-30));
#840=DIRECTION('',(4.72730535309419E-30,3.77113799125393E-15,1.));
#841=DIRECTION('',(-5.91645678915759E-31,-1.,3.77113799125393E-15));
#842=DIRECTION('',(-1.28498035257541E-15,-1.,3.77113799125393E-15));
#843=DIRECTION('',(0.707106781186546,0.707106781186549,-2.66659724640588E-15));
#844=DIRECTION('',(-1.28498035257541E-15,-1.,0.));
#845=DIRECTION('',(1.,-1.28498035257541E-15,-1.97215226305253E-31));
#846=DIRECTION('',(0.,0.,1.));
#847=DIRECTION('',(1.18532872517817E-31,0.,-1.));
#848=DIRECTION('',(-1.28498035257541E-15,-1.,2.36553201269565E-15));
#849=DIRECTION('',(3.70991073945359E-32,-2.36553201269565E-15,-1.));
#850=DIRECTION('',(1.,-1.28498035257541E-15,-1.97215226305253E-31));
#851=DIRECTION('',(1.,-1.28498035257541E-15,-1.97215226305253E-31));
#852=DIRECTION('',(-1.,1.28498035257541E-15,1.97215226305253E-31));
#853=DIRECTION('',(-1.28498035257541E-15,-1.,0.));
#854=DIRECTION('',(-1.,1.28498035257541E-15,1.97215226305253E-31));
#855=DIRECTION('',(-1.28498035257541E-15,-1.,0.));
#856=DIRECTION('',(-1.,-9.86076131526265E-31,1.18532872517817E-31));
#857=DIRECTION('',(-1.18532872517817E-31,0.,1.));
#858=DIRECTION('',(-1.,-9.86076131526265E-31,5.04891353014914E-30));
#859=DIRECTION('',(4.81184778511351E-30,0.,1.));
#860=DIRECTION('',(1.18532872517817E-31,0.,-1.));
#861=DIRECTION('',(-1.,-9.86076131526265E-31,1.18532872517817E-31));
#862=DIRECTION('',(-1.18532872517817E-31,0.,1.));
#863=DIRECTION('',(1.,9.86076131526265E-31,-1.18532872517817E-31));
#864=DIRECTION('',(1.18532872517817E-31,0.,-1.));
#865=DIRECTION('',(-1.,-9.86076131526265E-31,1.18532872517817E-31));
#866=DIRECTION('',(-1.18532872517817E-31,0.,1.));
#867=DIRECTION('',(1.,9.86076131526265E-31,-1.18532872517817E-31));
#868=DIRECTION('',(-1.,1.28498035257541E-15,-5.06488606124615E-16));
#869=DIRECTION('',(-1.28498035257541E-15,-1.,0.));
#870=DIRECTION('',(-5.06488606124615E-16,0.,1.));
#871=DIRECTION('',(1.,-1.28498035257541E-15,0.));
#872=DIRECTION('',(1.28498035257541E-15,1.,0.));
#873=DIRECTION('',(8.25187438729685E-46,6.42179031823957E-31,-1.));
#874=DIRECTION('',(-1.,1.28498035257541E-15,-5.06488606124615E-16));
#875=DIRECTION('',(-1.28498035257541E-15,-1.,0.));
#876=DIRECTION('',(-5.06488606124615E-16,0.,1.));
#877=DIRECTION('',(1.28498035257541E-15,1.,8.75811540203011E-47));
#878=DIRECTION('',(-5.06488606124615E-16,0.,1.));
#879=DIRECTION('',(-1.,1.28498035257541E-15,-5.06488606124615E-16));
#880=DIRECTION('',(-1.28498035257541E-15,-1.,0.));
#881=DIRECTION('',(-1.,1.28498035257541E-15,-5.06488606124615E-16));
#882=DIRECTION('',(-1.28498035257541E-15,-1.,0.));
#883=DIRECTION('',(1.,-1.28498035257541E-15,0.));
#884=DIRECTION('',(1.28498035257541E-15,1.,0.));
#885=DIRECTION('',(8.25187438729685E-46,6.42179031823957E-31,-1.));
#886=DIRECTION('',(1.28498035257541E-15,1.,8.75811540203011E-47));
#887=DIRECTION('',(8.25187438729685E-46,6.42179031823957E-31,-1.));
#888=DIRECTION('',(1.,-1.28498035257541E-15,0.));
#889=DIRECTION('',(1.28498035257541E-15,1.,0.));
#890=DIRECTION('',(1.,-1.28498035257541E-15,0.));
#891=DIRECTION('',(1.28498035257541E-15,1.,0.));
#892=DIRECTION('',(-3.45792055011988E-16,4.44335996767081E-31,1.));
#893=DIRECTION('',(1.,0.,3.45792055011988E-16));
#894=DIRECTION('',(1.,-1.26790420171062E-15,3.45792055011988E-16));
#895=DIRECTION('',(1.28498035257541E-15,1.,8.75811540203011E-47));
#896=DIRECTION('',(1.,-1.26790420171062E-15,3.45792055011988E-16));
#897=DIRECTION('',(1.28498035257541E-15,1.,8.75811540203011E-47));
#898=DIRECTION('',(-1.26790420171062E-15,-1.,-6.42179031823957E-31));
#899=DIRECTION('',(1.,-1.26790420171062E-15,0.));
#900=DIRECTION('',(-1.26790420171062E-15,-1.,-6.42179031823957E-31));
#901=DIRECTION('',(1.,-1.26790420171062E-15,0.));
#902=DIRECTION('',(-1.26790420171062E-15,-1.,-6.42179031823957E-31));
#903=DIRECTION('',(1.,-1.26790420171062E-15,0.));
#904=DIRECTION('',(1.,-1.26790420171062E-15,5.41363512472269E-32));
#905=DIRECTION('',(-1.26790420171062E-15,-1.,-6.42179031823957E-31));
#906=DIRECTION('',(1.,-1.26790420171062E-15,0.));
#907=DIRECTION('',(-1.26790420171062E-15,-1.,-6.42179031823957E-31));
#908=DIRECTION('',(1.,-1.26790420171062E-15,0.));
#909=DIRECTION('',(-1.26790420171062E-15,-1.,-6.42179031823957E-31));
#910=DIRECTION('',(1.,-1.26790420171062E-15,0.));
#911=DIRECTION('',(-1.26790420171062E-15,-1.,-6.42179031823957E-31));
#912=DIRECTION('',(1.,-1.26790420171062E-15,0.));
#913=DIRECTION('',(-1.26790420171062E-15,-1.,-6.42179031823957E-31));
#914=DIRECTION('',(1.,-1.26790420171062E-15,0.));
#915=DIRECTION('',(-1.,1.26790420171062E-15,-5.49367599861831E-32));
#916=DIRECTION('',(1.,-1.26790420171062E-15,5.41363512472269E-32));
#917=DIRECTION('',(1.26790420171062E-15,1.,0.));
#918=DIRECTION('',(-1.,1.26790420171062E-15,-5.49367599861831E-32));
#919=DIRECTION('',(-1.26790420171062E-15,-1.,0.));
#920=DIRECTION('',(-0.707106781186549,0.707106781186546,-3.58141527984439E-16));
#921=DIRECTION('',(-5.06488606124615E-16,0.,1.));
#922=DIRECTION('',(0.707106781186547,0.707106781186547,4.54089148138532E-31));
#923=DIRECTION('',(8.25187438729685E-46,6.42179031823957E-31,-1.));
#924=DIRECTION('',(1.28498035257541E-15,1.,0.));
#925=DIRECTION('',(-1.,1.28498035257541E-15,0.));
#926=DIRECTION('',(1.28498035257541E-15,1.,8.75811540203011E-47));
#927=DIRECTION('',(-1.,1.28498035257541E-15,0.));
#928=DIRECTION('',(1.28498035257541E-15,1.,8.75811540203011E-47));
#929=DIRECTION('',(-1.,1.28498035257541E-15,0.));
#930=CARTESIAN_POINT('',(0.,0.,0.));
#931=CARTESIAN_POINT('',(-9.50330486002695E-15,-7.49999999999997,-5.04110539981804E-30));
#932=CARTESIAN_POINT('',(-14.025,-7.49999999999995,7.85000000000003));
#933=CARTESIAN_POINT('',(-7.72500000000001,-7.49999999999995,7.85000000000003));
#934=CARTESIAN_POINT('',(-7.52500000000001,-7.49999999999996,7.85000000000003));
#935=CARTESIAN_POINT('',(-7.725,-7.49999999999996,-3.91262448231266E-15));
#936=CARTESIAN_POINT('',(-7.72500000000001,-7.49999999999995,7.50000000000003));
#937=CARTESIAN_POINT('',(-7.52500000000001,-7.49999999999995,7.50000000000003));
#938=CARTESIAN_POINT('',(-7.52500000000001,-7.49999999999995,7.50000000000003));
#939=CARTESIAN_POINT('',(-7.52500000000001,-7.49999999999995,14.35));
#940=CARTESIAN_POINT('',(-9.50330486002695E-15,-7.49999999999997,-5.04110539981804E-30));
#941=CARTESIAN_POINT('',(-7.52500000000001,-7.49999999999995,7.50000000000003));
#942=CARTESIAN_POINT('',(7.52499999999999,-7.49999999999997,7.50000000000004));
#943=CARTESIAN_POINT('',(7.72499999999999,-7.49999999999997,7.50000000000004));
#944=CARTESIAN_POINT('',(7.72499999999999,-7.49999999999997,-5.04110539981804E-30));
#945=CARTESIAN_POINT('',(7.72499999999999,-7.49999999999997,7.85000000000003));
#946=CARTESIAN_POINT('',(-14.025,-7.49999999999995,7.85000000000003));
#947=CARTESIAN_POINT('',(7.52499999999999,-7.49999999999997,7.85000000000003));
#948=CARTESIAN_POINT('',(7.52499999999999,-7.49999999999997,7.50000000000004));
#949=CARTESIAN_POINT('',(-14.025,-7.84999999999994,7.85000000000003));
#950=CARTESIAN_POINT('',(-8.02500000000001,-7.84999999999995,7.85000000000004));
#951=CARTESIAN_POINT('',(-8.02500000000001,-7.84999999999995,7.85000000000003));
#952=CARTESIAN_POINT('',(-8.02500000000001,-7.84999999999995,7.50000000000004));
#953=CARTESIAN_POINT('',(-14.025,-7.84999999999994,7.85000000000003));
#954=CARTESIAN_POINT('',(-13.325,-7.84999999999995,7.85000000000003));
#955=CARTESIAN_POINT('',(-13.325,-7.84999999999995,7.50000000000004));
#956=CARTESIAN_POINT('',(-13.325,-7.84999999999995,7.50000000000004));
#957=CARTESIAN_POINT('',(-14.025,-7.84999999999994,7.50000000000004));
#958=CARTESIAN_POINT('',(-14.025,-7.84999999999995,7.50000000000004));
#959=CARTESIAN_POINT('',(-14.025,-7.49999999999995,7.50000000000003));
#960=CARTESIAN_POINT('',(-8.02500000000002,-7.79999999999997,7.50000000000004));
#961=CARTESIAN_POINT('',(-8.02500000000001,-7.79999999999996,7.50000000000003));
#962=CARTESIAN_POINT('',(-8.02500000000001,-7.49999999999998,7.50000000000003));
#963=CARTESIAN_POINT('',(-13.325,-7.14999999999995,7.50000000000003));
#964=CARTESIAN_POINT('',(-14.025,-7.14999999999995,7.50000000000003));
#965=CARTESIAN_POINT('',(-14.025,-7.84999999999995,7.50000000000004));
#966=CARTESIAN_POINT('',(-14.025,0.650000000000055,7.5));
#967=CARTESIAN_POINT('',(14.025,0.650000000000019,7.5));
#968=CARTESIAN_POINT('',(14.025,0.650000000000019,7.5));
#969=CARTESIAN_POINT('',(14.025,-7.84999999999999,7.50000000000003));
#970=CARTESIAN_POINT('',(14.025,-7.14999999999998,7.50000000000003));
#971=CARTESIAN_POINT('',(13.325,-7.14999999999998,7.50000000000003));
#972=CARTESIAN_POINT('',(13.325,-7.84999999999998,7.50000000000003));
#973=CARTESIAN_POINT('',(-14.025,-7.84999999999994,7.50000000000004));
#974=CARTESIAN_POINT('',(8.02499999999999,-7.84999999999997,7.50000000000004));
#975=CARTESIAN_POINT('',(8.02499999999999,-7.84999999999997,7.50000000000004));
#976=CARTESIAN_POINT('',(8.02499999999999,-7.79999999999997,7.50000000000004));
#977=CARTESIAN_POINT('',(8.02499999999999,-7.79999999999997,7.50000000000004));
#978=CARTESIAN_POINT('',(-14.025,1.35,0.35));
#979=CARTESIAN_POINT('',(-14.025,1.35,0.35));
#980=CARTESIAN_POINT('',(-14.025,0.65,0.35));
#981=CARTESIAN_POINT('',(-14.025,-0.649999999999999,0.35));
#982=CARTESIAN_POINT('',(-14.025,-0.649999999999999,0.7));
#983=CARTESIAN_POINT('',(-14.025,-0.649999999999999,0.7));
#984=CARTESIAN_POINT('',(-14.025,1.35,0.7));
#985=CARTESIAN_POINT('',(-14.025,0.650000000000037,0.7));
#986=CARTESIAN_POINT('',(-14.025,0.650000000000037,1.05));
#987=CARTESIAN_POINT('',(-14.025,1.00000000000004,1.05));
#988=CARTESIAN_POINT('',(-14.025,1.00000000000005,7.5));
#989=CARTESIAN_POINT('',(-14.025,1.00000000000005,7.15));
#990=CARTESIAN_POINT('',(-14.025,0.650000000000053,7.15));
#991=CARTESIAN_POINT('',(-14.025,-7.14999999999995,7.85000000000003));
#992=CARTESIAN_POINT('',(-14.025,-7.14999999999995,7.85000000000003));
#993=CARTESIAN_POINT('',(-14.025,1.35000000000005,7.85));
#994=CARTESIAN_POINT('',(-14.025,0.650000000000003,7.85));
#995=CARTESIAN_POINT('',(-14.025,0.65,7.15));
#996=CARTESIAN_POINT('',(-14.025,1.35,7.15));
#997=CARTESIAN_POINT('',(-14.025,1.35,0.35));
#998=CARTESIAN_POINT('',(-14.025,1.35,1.05));
#999=CARTESIAN_POINT('',(-14.025,0.65,1.05));
#1000=CARTESIAN_POINT('',(-14.025,-1.35,0.7));
#1001=CARTESIAN_POINT('',(-14.025,-1.35,0.7));
#1002=CARTESIAN_POINT('',(-13.325,-1.35,0.7));
#1003=CARTESIAN_POINT('',(13.325,-1.35,0.7));
#1004=CARTESIAN_POINT('',(-13.325,-1.35,0.7));
#1005=CARTESIAN_POINT('',(-13.325,-1.35,0.35));
#1006=CARTESIAN_POINT('',(-14.025,-1.35,0.35));
#1007=CARTESIAN_POINT('',(13.325,-1.35,0.35));
#1008=CARTESIAN_POINT('',(13.325,-1.35,0.7));
#1009=CARTESIAN_POINT('',(14.025,-1.35,0.35));
#1010=CARTESIAN_POINT('',(14.025,-1.35,0.7));
#1011=CARTESIAN_POINT('',(14.025,-0.650000000000001,0.7));
#1012=CARTESIAN_POINT('',(14.025,0.650000000000001,0.7));
#1013=CARTESIAN_POINT('',(14.025,-0.650000000000001,0.7));
#1014=CARTESIAN_POINT('',(14.025,-0.650000000000001,0.35));
#1015=CARTESIAN_POINT('',(14.025,-1.35,0.35));
#1016=CARTESIAN_POINT('',(14.025,0.65,0.35));
#1017=CARTESIAN_POINT('',(14.025,0.65,1.05));
#1018=CARTESIAN_POINT('',(14.025,1.35,1.05));
#1019=CARTESIAN_POINT('',(14.025,1.35,0.35));
#1020=CARTESIAN_POINT('',(14.025,1.35,7.15));
#1021=CARTESIAN_POINT('',(14.025,0.65,7.15));
#1022=CARTESIAN_POINT('',(14.025,0.650000000000002,7.85));
#1023=CARTESIAN_POINT('',(14.025,1.35000000000002,7.85));
#1024=CARTESIAN_POINT('',(14.025,-7.14999999999998,7.85000000000003));
#1025=CARTESIAN_POINT('',(14.025,-7.14999999999998,7.50000000000003));
#1026=CARTESIAN_POINT('',(14.025,0.650000000000017,7.15));
#1027=CARTESIAN_POINT('',(14.025,1.00000000000002,7.15));
#1028=CARTESIAN_POINT('',(14.025,1.00000000000002,7.5));
#1029=CARTESIAN_POINT('',(14.025,1.,1.05));
#1030=CARTESIAN_POINT('',(14.025,0.65,1.05));
#1031=CARTESIAN_POINT('',(14.025,1.35,0.35));
#1032=CARTESIAN_POINT('',(14.025,1.35,1.05));
#1033=CARTESIAN_POINT('',(14.025,1.35,7.15));
#1034=CARTESIAN_POINT('',(2.75388238256025E-32,0.,0.7));
#1035=CARTESIAN_POINT('',(-13.325,-0.65,0.7));
#1036=CARTESIAN_POINT('',(13.325,-0.65,0.7));
#1037=CARTESIAN_POINT('',(-14.025,0.650000000000037,0.7));
#1038=CARTESIAN_POINT('',(0.,0.,0.35));
#1039=CARTESIAN_POINT('',(-13.325,-0.65,0.35));
#1040=CARTESIAN_POINT('',(4.81482486096809E-31,0.65,0.35));
#1041=CARTESIAN_POINT('',(13.325,-0.65,0.35));
#1042=CARTESIAN_POINT('',(-14.025,1.35000000000005,7.85));
#1043=CARTESIAN_POINT('',(-14.025,-7.49999999999995,7.85000000000003));
#1044=CARTESIAN_POINT('',(8.02499999999999,-7.79999999999997,7.85000000000003));
#1045=CARTESIAN_POINT('',(8.02499999999999,-7.79999999999997,7.85000000000003));
#1046=CARTESIAN_POINT('',(8.025,1.35000000000002,7.85));
#1047=CARTESIAN_POINT('',(8.02499999999999,-7.84999999999997,7.85000000000003));
#1048=CARTESIAN_POINT('',(-14.025,-7.84999999999994,7.85000000000003));
#1049=CARTESIAN_POINT('',(13.325,-7.84999999999998,7.85000000000003));
#1050=CARTESIAN_POINT('',(13.325,-7.14999999999998,7.85000000000003));
#1051=CARTESIAN_POINT('',(-14.025,0.650000000000003,7.85));
#1052=CARTESIAN_POINT('',(-13.325,-7.14999999999995,7.85000000000003));
#1053=CARTESIAN_POINT('',(-8.02499999999999,1.35000000000005,7.85));
#1054=CARTESIAN_POINT('',(-8.02500000000001,-7.79999999999996,7.85000000000003));
#1055=CARTESIAN_POINT('',(-8.02500000000002,-7.79999999999997,7.85000000000003));
#1056=CARTESIAN_POINT('',(-14.025,-7.84999999999994,7.85000000000003));
#1057=CARTESIAN_POINT('',(8.02499999999999,-7.84999999999997,7.85000000000003));
#1058=CARTESIAN_POINT('',(13.325,-7.84999999999998,7.85000000000003));
#1059=CARTESIAN_POINT('',(-14.025,1.00000000000005,7.5));
#1060=CARTESIAN_POINT('',(14.025,1.,1.05));
#1061=CARTESIAN_POINT('',(-14.025,1.00000000000005,7.15));
#1062=CARTESIAN_POINT('',(-14.025,0.650000000000037,1.05));
#1063=CARTESIAN_POINT('',(-14.025,0.650000000000053,7.15));
#1064=CARTESIAN_POINT('',(14.025,0.65,1.05));
#1065=CARTESIAN_POINT('',(14.025,0.65,7.15));
#1066=CARTESIAN_POINT('',(-13.325,-0.65,0.7));
#1067=CARTESIAN_POINT('',(-13.325,-7.14999999999995,7.85000000000003));
#1068=CARTESIAN_POINT('',(13.325,-0.65,0.7));
#1069=CARTESIAN_POINT('',(13.325,-7.14999999999998,0.35));
#1070=CARTESIAN_POINT('',(-8.02500000000001,-7.49999999999995,14.35));
#1071=CARTESIAN_POINT('',(-8.02500000000001,-7.79999999999996,14.35));
#1072=CARTESIAN_POINT('',(8.02499999999999,-7.49999999999997,7.50000000000004));
#1073=CARTESIAN_POINT('',(8.02499999999999,-7.79999999999997,7.50000000000004));
#1074=CARTESIAN_POINT('',(-7.52500000000001,-7.49999999999995,14.35));
#1075=CARTESIAN_POINT('',(-7.52500000000001,-8.19999999999995,14.35));
#1076=CARTESIAN_POINT('',(-7.52500000000001,-8.19999999999995,8.20000000000003));
#1077=CARTESIAN_POINT('',(-7.52500000000001,-8.19999999999995,13.65));
#1078=CARTESIAN_POINT('',(-7.52500000000001,-7.49999999999995,13.65));
#1079=CARTESIAN_POINT('',(-7.52500000000001,-7.84999999999995,13.65));
#1080=CARTESIAN_POINT('',(-7.52500000000001,-7.84999999999995,14.35));
#1081=CARTESIAN_POINT('',(-7.52500000000001,-7.84999999999995,8.20000000000003));
#1082=CARTESIAN_POINT('',(-7.52500000000001,-7.49999999999996,8.20000000000003));
#1083=CARTESIAN_POINT('',(-7.52500000000001,-7.49999999999995,8.20000000000003));
#1084=CARTESIAN_POINT('',(7.52499999999999,-7.49999999999997,7.50000000000004));
#1085=CARTESIAN_POINT('',(7.52499999999999,-7.84999999999997,7.50000000000004));
#1086=CARTESIAN_POINT('',(7.52499999999999,-7.84999999999997,13.65));
#1087=CARTESIAN_POINT('',(7.52499999999999,-7.84999999999997,8.20000000000003));
#1088=CARTESIAN_POINT('',(7.52499999999999,-7.49999999999997,13.65));
#1089=CARTESIAN_POINT('',(7.52499999999999,-8.19999999999997,13.65));
#1090=CARTESIAN_POINT('',(7.52499999999999,-8.19999999999997,7.50000000000004));
#1091=CARTESIAN_POINT('',(7.52499999999999,-8.19999999999997,8.20000000000003));
#1092=CARTESIAN_POINT('',(7.52499999999999,-7.49999999999997,8.20000000000003));
#1093=CARTESIAN_POINT('',(7.52499999999999,-7.49999999999998,8.20000000000003));
#1094=CARTESIAN_POINT('',(7.52499999999999,-7.49999999999997,14.35));
#1095=CARTESIAN_POINT('',(7.52499999999999,-8.19999999999997,14.35));
#1096=CARTESIAN_POINT('',(-6.82500000000001,-8.19999999999996,14.35));
#1097=CARTESIAN_POINT('',(6.82499999999999,-8.19999999999997,14.35));
#1098=CARTESIAN_POINT('',(6.82499999999999,-7.49999999999997,14.35));
#1099=CARTESIAN_POINT('',(6.82499999999999,-7.84999999999997,14.35));
#1100=CARTESIAN_POINT('',(7.52499999999999,-7.84999999999997,14.35));
#1101=CARTESIAN_POINT('',(-6.82500000000001,-7.84999999999996,14.35));
#1102=CARTESIAN_POINT('',(-6.82500000000001,-7.49999999999996,14.35));
#1103=CARTESIAN_POINT('',(-9.94707133062567E-15,-7.84999999999997,-5.26586806095642E-30));
#1104=CARTESIAN_POINT('',(-6.48915078050583E-15,-7.84999999999997,10.925));
#1105=CARTESIAN_POINT('',(1.57499999999999,-7.84999999999997,10.925));
#1106=CARTESIAN_POINT('',(6.82499999999999,-7.84999999999997,13.65));
#1107=CARTESIAN_POINT('',(-9.94707133062567E-15,-7.84999999999997,8.20000000000003));
#1108=CARTESIAN_POINT('',(-6.82500000000001,-7.84999999999996,13.65));
#1109=CARTESIAN_POINT('',(-1.03968144540271E-14,-8.19999999999996,-5.26586806095642E-30));
#1110=CARTESIAN_POINT('',(-6.93889390390723E-15,-8.19999999999996,10.925));
#1111=CARTESIAN_POINT('',(1.57499999999999,-8.19999999999997,10.925));
#1112=CARTESIAN_POINT('',(6.82499999999999,-8.19999999999997,13.65));
#1113=CARTESIAN_POINT('',(-6.82500000000001,-8.19999999999995,13.65));
#1114=CARTESIAN_POINT('',(-1.03968144540271E-14,-8.19999999999996,8.20000000000003));
#1115=CARTESIAN_POINT('',(-14.025,-7.49999999999995,8.20000000000003));
#1116=CARTESIAN_POINT('',(-14.025,-7.49999999999995,8.20000000000003));
#1117=CARTESIAN_POINT('',(-8.02500000000001,-7.79999999999996,14.35));
#1118=CARTESIAN_POINT('',(8.02499999999999,-7.79999999999997,7.50000000000004));
#1119=CARTESIAN_POINT('',(-3.90634027182925E-14,-33.2,10.925));
#1120=CARTESIAN_POINT('',(6.82499999999999,-7.49999999999997,13.65));
#1121=CARTESIAN_POINT('',(-6.82500000000001,-7.49999999999996,13.65));
#1122=MECHANICAL_DESIGN_GEOMETRIC_PRESENTATION_REPRESENTATION('',(#665),
#1123);
#1123=(
GEOMETRIC_REPRESENTATION_CONTEXT(3)
GLOBAL_UNCERTAINTY_ASSIGNED_CONTEXT((#1124))
GLOBAL_UNIT_ASSIGNED_CONTEXT((#1127,#1126,#1125))
REPRESENTATION_CONTEXT('H01','TOP_LEVEL_ASSEMBLY_PART')
);
#1124=UNCERTAINTY_MEASURE_WITH_UNIT(LENGTH_MEASURE(0.005),#1127,
'DISTANCE_ACCURACY_VALUE','Maximum Tolerance applied to model');
#1125=(
NAMED_UNIT(*)
SI_UNIT($,.STERADIAN.)
SOLID_ANGLE_UNIT()
);
#1126=(
NAMED_UNIT(*)
PLANE_ANGLE_UNIT()
SI_UNIT($,.RADIAN.)
);
#1127=(
LENGTH_UNIT()
NAMED_UNIT(*)
SI_UNIT(.MILLI.,.METRE.)
);
#1128=PRODUCT_DEFINITION_SHAPE('','',#1129);
#1129=PRODUCT_DEFINITION('','',#1131,#1130);
#1130=PRODUCT_DEFINITION_CONTEXT('',#1137,'design');
#1131=PRODUCT_DEFINITION_FORMATION_WITH_SPECIFIED_SOURCE('','',#1133,
 .NOT_KNOWN.);
#1132=PRODUCT_RELATED_PRODUCT_CATEGORY('','',(#1133));
#1133=PRODUCT('H01','H01','H01',(#1135));
#1134=PRODUCT_CATEGORY('','');
#1135=PRODUCT_CONTEXT('',#1137,'mechanical');
#1136=APPLICATION_PROTOCOL_DEFINITION('international standard',
'ap242_managed_model_based_3d_engineering',2020,#1137);
#1137=APPLICATION_CONTEXT('managed model based 3d engineering');
ENDSEC;
END-ISO-10303-21;
