ISO-10303-21;
HEADER;
/* Generated by software containing ST-Developer
 * from STEP Tools, Inc. (www.steptools.com) 
 */
/* OPTION: using custom renumber hook */

FILE_DESCRIPTION(
/* description */ (
'CAx-IF Rec.Pracs.---Representation and Presentation of Product Manufa
cturing Information (PMI)---4.0---2014-10-13',
'CAx-IF Rec.Pracs.---3D Tessellated Geometry---0.4---2014-09-14','2;1'),

/* implementation_level */ '2;1');

FILE_NAME(
/* name */ 'H02',
/* time_stamp */ '2026-04-13T01:14:56+03:00',
/* author */ (''),
/* organization */ (''),
/* preprocessor_version */ 'ST-DEVELOPER v18.102',
/* originating_system */ 'SIEMENS PLM Software NX2206.9140',
/* authorisation */ $);

FILE_SCHEMA (('AP242_MANAGED_MODEL_BASED_3D_ENGINEERING_MIM_LF { 1 0 10303 442 3 1 4 }'));
ENDSEC;

DATA;
#10=SHAPE_REPRESENTATION_RELATIONSHIP('','',#904,#11);
#11=ADVANCED_BREP_SHAPE_REPRESENTATION('',(#902),#1568);
#12=B_SPLINE_SURFACE_WITH_KNOTS('',3,1,((#1440,#1441),(#1442,#1443),(#1444,
#1445),(#1446,#1447)),.SURF_OF_LINEAR_EXTRUSION.,.F.,.F.,.F.,(4,4),(2,2),
(0.,1.),(0.,1.),.PIECEWISE_BEZIER_KNOTS.);
#13=B_SPLINE_SURFACE_WITH_KNOTS('',3,1,((#1457,#1458),(#1459,#1460),(#1461,
#1462),(#1463,#1464)),.SURF_OF_LINEAR_EXTRUSION.,.F.,.F.,.F.,(4,4),(2,2),
(0.,1.),(0.,1.),.PIECEWISE_BEZIER_KNOTS.);
#14=CYLINDRICAL_SURFACE('',#944,4.75000000000001);
#15=CYLINDRICAL_SURFACE('',#945,3.74999999999995);
#16=CYLINDRICAL_SURFACE('',#946,8.25);
#17=CYLINDRICAL_SURFACE('',#947,30.3243069258059);
#18=CYLINDRICAL_SURFACE('',#949,30.3243069258059);
#19=CYLINDRICAL_SURFACE('',#950,8.25);
#20=CYLINDRICAL_SURFACE('',#951,3.74999999999995);
#21=CYLINDRICAL_SURFACE('',#952,4.75000000000001);
#22=CYLINDRICAL_SURFACE('',#953,5.00000000000001);
#23=CYLINDRICAL_SURFACE('',#954,3.99999999999995);
#24=CYLINDRICAL_SURFACE('',#955,8.);
#25=CYLINDRICAL_SURFACE('',#956,30.0743069258059);
#26=CYLINDRICAL_SURFACE('',#957,30.0743069258059);
#27=CYLINDRICAL_SURFACE('',#958,8.);
#28=CYLINDRICAL_SURFACE('',#959,3.99999999999995);
#29=CYLINDRICAL_SURFACE('',#960,5.00000000000001);
#30=CYLINDRICAL_SURFACE('',#978,3.25000000000258);
#31=CYLINDRICAL_SURFACE('',#980,3.50000000000258);
#32=CYLINDRICAL_SURFACE('',#984,3.25000000000258);
#33=CYLINDRICAL_SURFACE('',#986,3.50000000000258);
#34=CYLINDRICAL_SURFACE('',#990,3.25000000000258);
#35=CYLINDRICAL_SURFACE('',#992,3.50000000000258);
#36=CYLINDRICAL_SURFACE('',#996,3.25000000000258);
#37=CYLINDRICAL_SURFACE('',#998,3.50000000000258);
#38=B_SPLINE_CURVE_WITH_KNOTS('',3,(#1295,#1296,#1297,#1298),
 .UNSPECIFIED.,.F.,.F.,(4,4),(0.,1.),.PIECEWISE_BEZIER_KNOTS.);
#39=B_SPLINE_CURVE_WITH_KNOTS('',3,(#1307,#1308,#1309,#1310),
 .UNSPECIFIED.,.F.,.F.,(4,4),(0.,1.),.PIECEWISE_BEZIER_KNOTS.);
#40=B_SPLINE_CURVE_WITH_KNOTS('',3,(#1340,#1341,#1342,#1343),
 .UNSPECIFIED.,.F.,.F.,(4,4),(0.,1.),.PIECEWISE_BEZIER_KNOTS.);
#41=B_SPLINE_CURVE_WITH_KNOTS('',3,(#1391,#1392,#1393,#1394),
 .UNSPECIFIED.,.F.,.F.,(4,4),(0.,1.),.PIECEWISE_BEZIER_KNOTS.);
#42=B_SPLINE_CURVE_WITH_KNOTS('',3,(#1448,#1449,#1450,#1451),
 .UNSPECIFIED.,.F.,.F.,(4,4),(0.,0.530600021278256),.UNSPECIFIED.);
#43=B_SPLINE_CURVE_WITH_KNOTS('',3,(#1453,#1454,#1455,#1456),
 .UNSPECIFIED.,.F.,.F.,(4,4),(0.469399978721744,1.),.UNSPECIFIED.);
#44=CIRCLE('',#907,30.3243069258059);
#45=CIRCLE('',#908,8.25);
#46=CIRCLE('',#909,3.74999999999995);
#47=CIRCLE('',#910,4.75000000000001);
#48=CIRCLE('',#911,5.00000000000001);
#49=CIRCLE('',#912,3.99999999999995);
#50=CIRCLE('',#913,8.);
#51=CIRCLE('',#914,30.0743069258059);
#52=CIRCLE('',#916,30.0743069258059);
#53=CIRCLE('',#917,8.);
#54=CIRCLE('',#918,3.99999999999995);
#55=CIRCLE('',#919,5.00000000000001);
#56=CIRCLE('',#920,4.75000000000001);
#57=CIRCLE('',#921,3.74999999999995);
#58=CIRCLE('',#922,8.25);
#59=CIRCLE('',#923,30.3243069258059);
#60=CIRCLE('',#926,30.0743069258059);
#61=CIRCLE('',#927,8.);
#62=CIRCLE('',#928,3.99999999999995);
#63=CIRCLE('',#929,5.00000000000001);
#64=CIRCLE('',#930,4.75000000000001);
#65=CIRCLE('',#931,3.74999999999995);
#66=CIRCLE('',#932,8.25);
#67=CIRCLE('',#933,30.3243069258059);
#68=CIRCLE('',#936,30.3243069258059);
#69=CIRCLE('',#937,8.25);
#70=CIRCLE('',#938,3.74999999999995);
#71=CIRCLE('',#939,4.75000000000001);
#72=CIRCLE('',#940,5.00000000000001);
#73=CIRCLE('',#941,3.99999999999995);
#74=CIRCLE('',#942,8.);
#75=CIRCLE('',#943,30.0743069258059);
#76=CIRCLE('',#962,3.25000000000258);
#77=CIRCLE('',#963,3.50000000000258);
#78=CIRCLE('',#964,3.50000000000258);
#79=CIRCLE('',#965,3.25000000000258);
#80=CIRCLE('',#973,3.25000000000258);
#81=CIRCLE('',#974,3.50000000000258);
#82=CIRCLE('',#975,3.50000000000258);
#83=CIRCLE('',#976,3.25000000000258);
#84=CIRCLE('',#979,3.25000000000258);
#85=CIRCLE('',#981,3.50000000000258);
#86=CIRCLE('',#985,3.25000000000258);
#87=CIRCLE('',#987,3.50000000000258);
#88=CIRCLE('',#991,3.25000000000258);
#89=CIRCLE('',#993,3.50000000000258);
#90=CIRCLE('',#997,3.25000000000258);
#91=CIRCLE('',#999,3.50000000000258);
#92=ORIENTED_EDGE('',*,*,#354,.F.);
#93=ORIENTED_EDGE('',*,*,#355,.F.);
#94=ORIENTED_EDGE('',*,*,#356,.F.);
#95=ORIENTED_EDGE('',*,*,#357,.F.);
#96=ORIENTED_EDGE('',*,*,#358,.F.);
#97=ORIENTED_EDGE('',*,*,#359,.F.);
#98=ORIENTED_EDGE('',*,*,#360,.F.);
#99=ORIENTED_EDGE('',*,*,#361,.T.);
#100=ORIENTED_EDGE('',*,*,#362,.T.);
#101=ORIENTED_EDGE('',*,*,#363,.T.);
#102=ORIENTED_EDGE('',*,*,#364,.T.);
#103=ORIENTED_EDGE('',*,*,#365,.T.);
#104=ORIENTED_EDGE('',*,*,#366,.T.);
#105=ORIENTED_EDGE('',*,*,#367,.F.);
#106=ORIENTED_EDGE('',*,*,#368,.T.);
#107=ORIENTED_EDGE('',*,*,#369,.T.);
#108=ORIENTED_EDGE('',*,*,#370,.T.);
#109=ORIENTED_EDGE('',*,*,#371,.T.);
#110=ORIENTED_EDGE('',*,*,#372,.T.);
#111=ORIENTED_EDGE('',*,*,#373,.T.);
#112=ORIENTED_EDGE('',*,*,#374,.T.);
#113=ORIENTED_EDGE('',*,*,#375,.F.);
#114=ORIENTED_EDGE('',*,*,#376,.F.);
#115=ORIENTED_EDGE('',*,*,#377,.F.);
#116=ORIENTED_EDGE('',*,*,#378,.F.);
#117=ORIENTED_EDGE('',*,*,#379,.F.);
#118=ORIENTED_EDGE('',*,*,#374,.F.);
#119=ORIENTED_EDGE('',*,*,#380,.T.);
#120=ORIENTED_EDGE('',*,*,#360,.T.);
#121=ORIENTED_EDGE('',*,*,#381,.F.);
#122=ORIENTED_EDGE('',*,*,#382,.F.);
#123=ORIENTED_EDGE('',*,*,#383,.T.);
#124=ORIENTED_EDGE('',*,*,#384,.T.);
#125=ORIENTED_EDGE('',*,*,#385,.T.);
#126=ORIENTED_EDGE('',*,*,#386,.T.);
#127=ORIENTED_EDGE('',*,*,#387,.T.);
#128=ORIENTED_EDGE('',*,*,#388,.T.);
#129=ORIENTED_EDGE('',*,*,#389,.T.);
#130=ORIENTED_EDGE('',*,*,#390,.F.);
#131=ORIENTED_EDGE('',*,*,#391,.F.);
#132=ORIENTED_EDGE('',*,*,#392,.F.);
#133=ORIENTED_EDGE('',*,*,#393,.F.);
#134=ORIENTED_EDGE('',*,*,#394,.F.);
#135=ORIENTED_EDGE('',*,*,#389,.F.);
#136=ORIENTED_EDGE('',*,*,#395,.T.);
#137=ORIENTED_EDGE('',*,*,#396,.T.);
#138=ORIENTED_EDGE('',*,*,#397,.F.);
#139=ORIENTED_EDGE('',*,*,#398,.F.);
#140=ORIENTED_EDGE('',*,*,#399,.F.);
#141=ORIENTED_EDGE('',*,*,#400,.F.);
#142=ORIENTED_EDGE('',*,*,#401,.F.);
#143=ORIENTED_EDGE('',*,*,#402,.F.);
#144=ORIENTED_EDGE('',*,*,#403,.F.);
#145=ORIENTED_EDGE('',*,*,#396,.F.);
#146=ORIENTED_EDGE('',*,*,#404,.T.);
#147=ORIENTED_EDGE('',*,*,#405,.T.);
#148=ORIENTED_EDGE('',*,*,#406,.T.);
#149=ORIENTED_EDGE('',*,*,#407,.T.);
#150=ORIENTED_EDGE('',*,*,#408,.T.);
#151=ORIENTED_EDGE('',*,*,#409,.T.);
#152=ORIENTED_EDGE('',*,*,#403,.T.);
#153=ORIENTED_EDGE('',*,*,#410,.F.);
#154=ORIENTED_EDGE('',*,*,#390,.T.);
#155=ORIENTED_EDGE('',*,*,#397,.T.);
#156=ORIENTED_EDGE('',*,*,#402,.T.);
#157=ORIENTED_EDGE('',*,*,#411,.F.);
#158=ORIENTED_EDGE('',*,*,#391,.T.);
#159=ORIENTED_EDGE('',*,*,#410,.T.);
#160=ORIENTED_EDGE('',*,*,#401,.T.);
#161=ORIENTED_EDGE('',*,*,#412,.F.);
#162=ORIENTED_EDGE('',*,*,#392,.T.);
#163=ORIENTED_EDGE('',*,*,#411,.T.);
#164=ORIENTED_EDGE('',*,*,#400,.T.);
#165=ORIENTED_EDGE('',*,*,#413,.F.);
#166=ORIENTED_EDGE('',*,*,#393,.T.);
#167=ORIENTED_EDGE('',*,*,#412,.T.);
#168=ORIENTED_EDGE('',*,*,#399,.T.);
#169=ORIENTED_EDGE('',*,*,#414,.T.);
#170=ORIENTED_EDGE('',*,*,#415,.F.);
#171=ORIENTED_EDGE('',*,*,#416,.T.);
#172=ORIENTED_EDGE('',*,*,#417,.T.);
#173=ORIENTED_EDGE('',*,*,#418,.T.);
#174=ORIENTED_EDGE('',*,*,#379,.T.);
#175=ORIENTED_EDGE('',*,*,#419,.F.);
#176=ORIENTED_EDGE('',*,*,#355,.T.);
#177=ORIENTED_EDGE('',*,*,#420,.T.);
#178=ORIENTED_EDGE('',*,*,#421,.F.);
#179=ORIENTED_EDGE('',*,*,#422,.T.);
#180=ORIENTED_EDGE('',*,*,#423,.T.);
#181=ORIENTED_EDGE('',*,*,#424,.T.);
#182=ORIENTED_EDGE('',*,*,#394,.T.);
#183=ORIENTED_EDGE('',*,*,#413,.T.);
#184=ORIENTED_EDGE('',*,*,#378,.T.);
#185=ORIENTED_EDGE('',*,*,#425,.F.);
#186=ORIENTED_EDGE('',*,*,#356,.T.);
#187=ORIENTED_EDGE('',*,*,#419,.T.);
#188=ORIENTED_EDGE('',*,*,#377,.T.);
#189=ORIENTED_EDGE('',*,*,#426,.F.);
#190=ORIENTED_EDGE('',*,*,#357,.T.);
#191=ORIENTED_EDGE('',*,*,#425,.T.);
#192=ORIENTED_EDGE('',*,*,#376,.T.);
#193=ORIENTED_EDGE('',*,*,#427,.F.);
#194=ORIENTED_EDGE('',*,*,#358,.T.);
#195=ORIENTED_EDGE('',*,*,#426,.T.);
#196=ORIENTED_EDGE('',*,*,#375,.T.);
#197=ORIENTED_EDGE('',*,*,#381,.T.);
#198=ORIENTED_EDGE('',*,*,#359,.T.);
#199=ORIENTED_EDGE('',*,*,#427,.T.);
#200=ORIENTED_EDGE('',*,*,#404,.F.);
#201=ORIENTED_EDGE('',*,*,#395,.F.);
#202=ORIENTED_EDGE('',*,*,#388,.F.);
#203=ORIENTED_EDGE('',*,*,#428,.T.);
#204=ORIENTED_EDGE('',*,*,#405,.F.);
#205=ORIENTED_EDGE('',*,*,#428,.F.);
#206=ORIENTED_EDGE('',*,*,#387,.F.);
#207=ORIENTED_EDGE('',*,*,#429,.T.);
#208=ORIENTED_EDGE('',*,*,#406,.F.);
#209=ORIENTED_EDGE('',*,*,#429,.F.);
#210=ORIENTED_EDGE('',*,*,#386,.F.);
#211=ORIENTED_EDGE('',*,*,#430,.T.);
#212=ORIENTED_EDGE('',*,*,#407,.F.);
#213=ORIENTED_EDGE('',*,*,#430,.F.);
#214=ORIENTED_EDGE('',*,*,#385,.F.);
#215=ORIENTED_EDGE('',*,*,#431,.T.);
#216=ORIENTED_EDGE('',*,*,#384,.F.);
#217=ORIENTED_EDGE('',*,*,#432,.F.);
#218=ORIENTED_EDGE('',*,*,#433,.T.);
#219=ORIENTED_EDGE('',*,*,#434,.F.);
#220=ORIENTED_EDGE('',*,*,#408,.F.);
#221=ORIENTED_EDGE('',*,*,#431,.F.);
#222=ORIENTED_EDGE('',*,*,#369,.F.);
#223=ORIENTED_EDGE('',*,*,#433,.F.);
#224=ORIENTED_EDGE('',*,*,#365,.F.);
#225=ORIENTED_EDGE('',*,*,#435,.T.);
#226=ORIENTED_EDGE('',*,*,#370,.F.);
#227=ORIENTED_EDGE('',*,*,#435,.F.);
#228=ORIENTED_EDGE('',*,*,#364,.F.);
#229=ORIENTED_EDGE('',*,*,#436,.T.);
#230=ORIENTED_EDGE('',*,*,#371,.F.);
#231=ORIENTED_EDGE('',*,*,#436,.F.);
#232=ORIENTED_EDGE('',*,*,#363,.F.);
#233=ORIENTED_EDGE('',*,*,#437,.T.);
#234=ORIENTED_EDGE('',*,*,#372,.F.);
#235=ORIENTED_EDGE('',*,*,#437,.F.);
#236=ORIENTED_EDGE('',*,*,#362,.F.);
#237=ORIENTED_EDGE('',*,*,#438,.T.);
#238=ORIENTED_EDGE('',*,*,#373,.F.);
#239=ORIENTED_EDGE('',*,*,#438,.F.);
#240=ORIENTED_EDGE('',*,*,#361,.F.);
#241=ORIENTED_EDGE('',*,*,#380,.F.);
#242=ORIENTED_EDGE('',*,*,#416,.F.);
#243=ORIENTED_EDGE('',*,*,#439,.T.);
#244=ORIENTED_EDGE('',*,*,#440,.T.);
#245=ORIENTED_EDGE('',*,*,#441,.T.);
#246=ORIENTED_EDGE('',*,*,#442,.T.);
#247=ORIENTED_EDGE('',*,*,#443,.T.);
#248=ORIENTED_EDGE('',*,*,#444,.T.);
#249=ORIENTED_EDGE('',*,*,#445,.T.);
#250=ORIENTED_EDGE('',*,*,#446,.T.);
#251=ORIENTED_EDGE('',*,*,#414,.F.);
#252=ORIENTED_EDGE('',*,*,#398,.T.);
#253=ORIENTED_EDGE('',*,*,#447,.T.);
#254=ORIENTED_EDGE('',*,*,#448,.T.);
#255=ORIENTED_EDGE('',*,*,#449,.T.);
#256=ORIENTED_EDGE('',*,*,#367,.T.);
#257=ORIENTED_EDGE('',*,*,#418,.F.);
#258=ORIENTED_EDGE('',*,*,#434,.T.);
#259=ORIENTED_EDGE('',*,*,#368,.F.);
#260=ORIENTED_EDGE('',*,*,#449,.F.);
#261=ORIENTED_EDGE('',*,*,#450,.F.);
#262=ORIENTED_EDGE('',*,*,#442,.F.);
#263=ORIENTED_EDGE('',*,*,#451,.T.);
#264=ORIENTED_EDGE('',*,*,#447,.F.);
#265=ORIENTED_EDGE('',*,*,#409,.F.);
#266=ORIENTED_EDGE('',*,*,#366,.F.);
#267=ORIENTED_EDGE('',*,*,#432,.T.);
#268=ORIENTED_EDGE('',*,*,#383,.F.);
#269=ORIENTED_EDGE('',*,*,#452,.F.);
#270=ORIENTED_EDGE('',*,*,#453,.F.);
#271=ORIENTED_EDGE('',*,*,#454,.F.);
#272=ORIENTED_EDGE('',*,*,#455,.T.);
#273=ORIENTED_EDGE('',*,*,#456,.F.);
#274=ORIENTED_EDGE('',*,*,#457,.T.);
#275=ORIENTED_EDGE('',*,*,#420,.F.);
#276=ORIENTED_EDGE('',*,*,#354,.T.);
#277=ORIENTED_EDGE('',*,*,#456,.T.);
#278=ORIENTED_EDGE('',*,*,#458,.T.);
#279=ORIENTED_EDGE('',*,*,#452,.T.);
#280=ORIENTED_EDGE('',*,*,#382,.T.);
#281=ORIENTED_EDGE('',*,*,#424,.F.);
#282=ORIENTED_EDGE('',*,*,#422,.F.);
#283=ORIENTED_EDGE('',*,*,#459,.T.);
#284=ORIENTED_EDGE('',*,*,#460,.T.);
#285=ORIENTED_EDGE('',*,*,#461,.T.);
#286=ORIENTED_EDGE('',*,*,#454,.T.);
#287=ORIENTED_EDGE('',*,*,#462,.T.);
#288=ORIENTED_EDGE('',*,*,#463,.T.);
#289=ORIENTED_EDGE('',*,*,#464,.T.);
#290=ORIENTED_EDGE('',*,*,#463,.F.);
#291=ORIENTED_EDGE('',*,*,#465,.F.);
#292=ORIENTED_EDGE('',*,*,#466,.T.);
#293=ORIENTED_EDGE('',*,*,#467,.T.);
#294=ORIENTED_EDGE('',*,*,#464,.F.);
#295=ORIENTED_EDGE('',*,*,#467,.F.);
#296=ORIENTED_EDGE('',*,*,#468,.T.);
#297=ORIENTED_EDGE('',*,*,#423,.F.);
#298=ORIENTED_EDGE('',*,*,#462,.F.);
#299=ORIENTED_EDGE('',*,*,#453,.T.);
#300=ORIENTED_EDGE('',*,*,#469,.T.);
#301=ORIENTED_EDGE('',*,*,#465,.T.);
#302=ORIENTED_EDGE('',*,*,#466,.F.);
#303=ORIENTED_EDGE('',*,*,#469,.F.);
#304=ORIENTED_EDGE('',*,*,#458,.F.);
#305=ORIENTED_EDGE('',*,*,#468,.F.);
#306=ORIENTED_EDGE('',*,*,#440,.F.);
#307=ORIENTED_EDGE('',*,*,#470,.T.);
#308=ORIENTED_EDGE('',*,*,#471,.T.);
#309=ORIENTED_EDGE('',*,*,#472,.F.);
#310=ORIENTED_EDGE('',*,*,#439,.F.);
#311=ORIENTED_EDGE('',*,*,#415,.T.);
#312=ORIENTED_EDGE('',*,*,#473,.T.);
#313=ORIENTED_EDGE('',*,*,#470,.F.);
#314=ORIENTED_EDGE('',*,*,#441,.F.);
#315=ORIENTED_EDGE('',*,*,#472,.T.);
#316=ORIENTED_EDGE('',*,*,#474,.T.);
#317=ORIENTED_EDGE('',*,*,#451,.F.);
#318=ORIENTED_EDGE('',*,*,#471,.F.);
#319=ORIENTED_EDGE('',*,*,#473,.F.);
#320=ORIENTED_EDGE('',*,*,#446,.F.);
#321=ORIENTED_EDGE('',*,*,#474,.F.);
#322=ORIENTED_EDGE('',*,*,#460,.F.);
#323=ORIENTED_EDGE('',*,*,#475,.T.);
#324=ORIENTED_EDGE('',*,*,#476,.T.);
#325=ORIENTED_EDGE('',*,*,#477,.F.);
#326=ORIENTED_EDGE('',*,*,#459,.F.);
#327=ORIENTED_EDGE('',*,*,#421,.T.);
#328=ORIENTED_EDGE('',*,*,#478,.T.);
#329=ORIENTED_EDGE('',*,*,#475,.F.);
#330=ORIENTED_EDGE('',*,*,#461,.F.);
#331=ORIENTED_EDGE('',*,*,#477,.T.);
#332=ORIENTED_EDGE('',*,*,#479,.T.);
#333=ORIENTED_EDGE('',*,*,#455,.F.);
#334=ORIENTED_EDGE('',*,*,#476,.F.);
#335=ORIENTED_EDGE('',*,*,#478,.F.);
#336=ORIENTED_EDGE('',*,*,#457,.F.);
#337=ORIENTED_EDGE('',*,*,#479,.F.);
#338=ORIENTED_EDGE('',*,*,#444,.F.);
#339=ORIENTED_EDGE('',*,*,#480,.F.);
#340=ORIENTED_EDGE('',*,*,#481,.T.);
#341=ORIENTED_EDGE('',*,*,#482,.T.);
#342=ORIENTED_EDGE('',*,*,#445,.F.);
#343=ORIENTED_EDGE('',*,*,#482,.F.);
#344=ORIENTED_EDGE('',*,*,#483,.T.);
#345=ORIENTED_EDGE('',*,*,#417,.F.);
#346=ORIENTED_EDGE('',*,*,#443,.F.);
#347=ORIENTED_EDGE('',*,*,#450,.T.);
#348=ORIENTED_EDGE('',*,*,#484,.T.);
#349=ORIENTED_EDGE('',*,*,#480,.T.);
#350=ORIENTED_EDGE('',*,*,#481,.F.);
#351=ORIENTED_EDGE('',*,*,#484,.F.);
#352=ORIENTED_EDGE('',*,*,#448,.F.);
#353=ORIENTED_EDGE('',*,*,#483,.F.);
#354=EDGE_CURVE('',#485,#486,#569,.F.);
#355=EDGE_CURVE('',#487,#485,#570,.T.);
#356=EDGE_CURVE('',#488,#487,#44,.T.);
#357=EDGE_CURVE('',#489,#488,#45,.T.);
#358=EDGE_CURVE('',#490,#489,#46,.F.);
#359=EDGE_CURVE('',#491,#490,#47,.F.);
#360=EDGE_CURVE('',#492,#491,#571,.T.);
#361=EDGE_CURVE('',#492,#493,#48,.T.);
#362=EDGE_CURVE('',#493,#494,#49,.T.);
#363=EDGE_CURVE('',#494,#495,#50,.T.);
#364=EDGE_CURVE('',#495,#496,#51,.T.);
#365=EDGE_CURVE('',#496,#497,#38,.T.);
#366=EDGE_CURVE('',#497,#486,#572,.T.);
#367=EDGE_CURVE('',#498,#499,#573,.T.);
#368=EDGE_CURVE('',#498,#500,#574,.T.);
#369=EDGE_CURVE('',#500,#501,#39,.F.);
#370=EDGE_CURVE('',#501,#502,#52,.F.);
#371=EDGE_CURVE('',#502,#503,#53,.F.);
#372=EDGE_CURVE('',#503,#504,#54,.F.);
#373=EDGE_CURVE('',#504,#505,#55,.F.);
#374=EDGE_CURVE('',#505,#506,#575,.T.);
#375=EDGE_CURVE('',#507,#506,#56,.T.);
#376=EDGE_CURVE('',#508,#507,#57,.T.);
#377=EDGE_CURVE('',#509,#508,#58,.F.);
#378=EDGE_CURVE('',#510,#509,#59,.F.);
#379=EDGE_CURVE('',#499,#510,#576,.F.);
#380=EDGE_CURVE('',#505,#492,#577,.F.);
#381=EDGE_CURVE('',#506,#491,#578,.F.);
#382=EDGE_CURVE('',#511,#512,#579,.F.);
#383=EDGE_CURVE('',#511,#513,#580,.F.);
#384=EDGE_CURVE('',#513,#514,#40,.T.);
#385=EDGE_CURVE('',#514,#515,#60,.T.);
#386=EDGE_CURVE('',#515,#516,#61,.T.);
#387=EDGE_CURVE('',#516,#517,#62,.T.);
#388=EDGE_CURVE('',#517,#518,#63,.T.);
#389=EDGE_CURVE('',#518,#519,#581,.T.);
#390=EDGE_CURVE('',#520,#519,#64,.F.);
#391=EDGE_CURVE('',#521,#520,#65,.F.);
#392=EDGE_CURVE('',#522,#521,#66,.T.);
#393=EDGE_CURVE('',#523,#522,#67,.T.);
#394=EDGE_CURVE('',#512,#523,#582,.T.);
#395=EDGE_CURVE('',#518,#524,#583,.T.);
#396=EDGE_CURVE('',#524,#525,#584,.T.);
#397=EDGE_CURVE('',#519,#525,#585,.T.);
#398=EDGE_CURVE('',#526,#527,#586,.T.);
#399=EDGE_CURVE('',#528,#526,#587,.F.);
#400=EDGE_CURVE('',#529,#528,#68,.F.);
#401=EDGE_CURVE('',#530,#529,#69,.F.);
#402=EDGE_CURVE('',#531,#530,#70,.T.);
#403=EDGE_CURVE('',#525,#531,#71,.T.);
#404=EDGE_CURVE('',#524,#532,#72,.F.);
#405=EDGE_CURVE('',#532,#533,#73,.F.);
#406=EDGE_CURVE('',#533,#534,#74,.F.);
#407=EDGE_CURVE('',#534,#535,#75,.F.);
#408=EDGE_CURVE('',#535,#536,#41,.F.);
#409=EDGE_CURVE('',#536,#527,#588,.F.);
#410=EDGE_CURVE('',#520,#531,#589,.T.);
#411=EDGE_CURVE('',#521,#530,#590,.T.);
#412=EDGE_CURVE('',#522,#529,#591,.T.);
#413=EDGE_CURVE('',#523,#528,#592,.T.);
#414=EDGE_CURVE('',#526,#537,#593,.F.);
#415=EDGE_CURVE('',#538,#537,#594,.F.);
#416=EDGE_CURVE('',#538,#539,#595,.T.);
#417=EDGE_CURVE('',#539,#540,#596,.F.);
#418=EDGE_CURVE('',#540,#499,#597,.F.);
#419=EDGE_CURVE('',#487,#510,#598,.T.);
#420=EDGE_CURVE('',#485,#541,#599,.F.);
#421=EDGE_CURVE('',#542,#541,#600,.F.);
#422=EDGE_CURVE('',#542,#543,#601,.T.);
#423=EDGE_CURVE('',#543,#544,#602,.F.);
#424=EDGE_CURVE('',#544,#512,#603,.F.);
#425=EDGE_CURVE('',#488,#509,#604,.T.);
#426=EDGE_CURVE('',#489,#508,#605,.T.);
#427=EDGE_CURVE('',#490,#507,#606,.T.);
#428=EDGE_CURVE('',#517,#532,#607,.T.);
#429=EDGE_CURVE('',#516,#533,#608,.T.);
#430=EDGE_CURVE('',#515,#534,#609,.T.);
#431=EDGE_CURVE('',#514,#535,#610,.T.);
#432=EDGE_CURVE('',#497,#513,#42,.T.);
#433=EDGE_CURVE('',#497,#500,#611,.T.);
#434=EDGE_CURVE('',#536,#500,#43,.T.);
#435=EDGE_CURVE('',#496,#501,#612,.T.);
#436=EDGE_CURVE('',#495,#502,#613,.T.);
#437=EDGE_CURVE('',#494,#503,#614,.T.);
#438=EDGE_CURVE('',#493,#504,#615,.T.);
#439=EDGE_CURVE('',#538,#545,#76,.F.);
#440=EDGE_CURVE('',#545,#546,#616,.F.);
#441=EDGE_CURVE('',#546,#547,#77,.F.);
#442=EDGE_CURVE('',#547,#548,#617,.T.);
#443=EDGE_CURVE('',#548,#549,#78,.T.);
#444=EDGE_CURVE('',#549,#550,#618,.T.);
#445=EDGE_CURVE('',#550,#539,#79,.T.);
#446=EDGE_CURVE('',#551,#537,#619,.F.);
#447=EDGE_CURVE('',#527,#551,#620,.T.);
#448=EDGE_CURVE('',#540,#552,#621,.T.);
#449=EDGE_CURVE('',#552,#498,#622,.T.);
#450=EDGE_CURVE('',#548,#552,#623,.T.);
#451=EDGE_CURVE('',#547,#551,#624,.F.);
#452=EDGE_CURVE('',#553,#511,#625,.T.);
#453=EDGE_CURVE('',#554,#553,#626,.T.);
#454=EDGE_CURVE('',#555,#554,#627,.T.);
#455=EDGE_CURVE('',#555,#556,#628,.F.);
#456=EDGE_CURVE('',#486,#556,#629,.T.);
#457=EDGE_CURVE('',#556,#541,#630,.F.);
#458=EDGE_CURVE('',#544,#553,#631,.T.);
#459=EDGE_CURVE('',#542,#557,#80,.F.);
#460=EDGE_CURVE('',#557,#558,#632,.F.);
#461=EDGE_CURVE('',#558,#555,#81,.F.);
#462=EDGE_CURVE('',#554,#559,#82,.T.);
#463=EDGE_CURVE('',#559,#560,#633,.T.);
#464=EDGE_CURVE('',#560,#543,#83,.T.);
#465=EDGE_CURVE('',#561,#559,#634,.T.);
#466=EDGE_CURVE('',#561,#562,#635,.T.);
#467=EDGE_CURVE('',#562,#560,#636,.T.);
#468=EDGE_CURVE('',#562,#544,#84,.T.);
#469=EDGE_CURVE('',#553,#561,#85,.T.);
#470=EDGE_CURVE('',#545,#563,#637,.F.);
#471=EDGE_CURVE('',#563,#564,#638,.F.);
#472=EDGE_CURVE('',#546,#564,#639,.F.);
#473=EDGE_CURVE('',#537,#563,#86,.F.);
#474=EDGE_CURVE('',#564,#551,#87,.F.);
#475=EDGE_CURVE('',#557,#565,#640,.F.);
#476=EDGE_CURVE('',#565,#566,#641,.F.);
#477=EDGE_CURVE('',#558,#566,#642,.F.);
#478=EDGE_CURVE('',#541,#565,#88,.F.);
#479=EDGE_CURVE('',#566,#556,#89,.F.);
#480=EDGE_CURVE('',#567,#549,#643,.T.);
#481=EDGE_CURVE('',#567,#568,#644,.T.);
#482=EDGE_CURVE('',#568,#550,#645,.T.);
#483=EDGE_CURVE('',#568,#540,#90,.T.);
#484=EDGE_CURVE('',#552,#567,#91,.T.);
#485=VERTEX_POINT('',#1273);
#486=VERTEX_POINT('',#1274);
#487=VERTEX_POINT('',#1276);
#488=VERTEX_POINT('',#1278);
#489=VERTEX_POINT('',#1280);
#490=VERTEX_POINT('',#1282);
#491=VERTEX_POINT('',#1284);
#492=VERTEX_POINT('',#1286);
#493=VERTEX_POINT('',#1288);
#494=VERTEX_POINT('',#1290);
#495=VERTEX_POINT('',#1292);
#496=VERTEX_POINT('',#1294);
#497=VERTEX_POINT('',#1299);
#498=VERTEX_POINT('',#1303);
#499=VERTEX_POINT('',#1304);
#500=VERTEX_POINT('',#1306);
#501=VERTEX_POINT('',#1311);
#502=VERTEX_POINT('',#1313);
#503=VERTEX_POINT('',#1315);
#504=VERTEX_POINT('',#1317);
#505=VERTEX_POINT('',#1319);
#506=VERTEX_POINT('',#1321);
#507=VERTEX_POINT('',#1323);
#508=VERTEX_POINT('',#1325);
#509=VERTEX_POINT('',#1327);
#510=VERTEX_POINT('',#1329);
#511=VERTEX_POINT('',#1336);
#512=VERTEX_POINT('',#1337);
#513=VERTEX_POINT('',#1339);
#514=VERTEX_POINT('',#1344);
#515=VERTEX_POINT('',#1346);
#516=VERTEX_POINT('',#1348);
#517=VERTEX_POINT('',#1350);
#518=VERTEX_POINT('',#1352);
#519=VERTEX_POINT('',#1354);
#520=VERTEX_POINT('',#1356);
#521=VERTEX_POINT('',#1358);
#522=VERTEX_POINT('',#1360);
#523=VERTEX_POINT('',#1362);
#524=VERTEX_POINT('',#1366);
#525=VERTEX_POINT('',#1368);
#526=VERTEX_POINT('',#1372);
#527=VERTEX_POINT('',#1373);
#528=VERTEX_POINT('',#1375);
#529=VERTEX_POINT('',#1377);
#530=VERTEX_POINT('',#1379);
#531=VERTEX_POINT('',#1381);
#532=VERTEX_POINT('',#1384);
#533=VERTEX_POINT('',#1386);
#534=VERTEX_POINT('',#1388);
#535=VERTEX_POINT('',#1390);
#536=VERTEX_POINT('',#1395);
#537=VERTEX_POINT('',#1407);
#538=VERTEX_POINT('',#1409);
#539=VERTEX_POINT('',#1411);
#540=VERTEX_POINT('',#1413);
#541=VERTEX_POINT('',#1417);
#542=VERTEX_POINT('',#1419);
#543=VERTEX_POINT('',#1421);
#544=VERTEX_POINT('',#1423);
#545=VERTEX_POINT('',#1475);
#546=VERTEX_POINT('',#1477);
#547=VERTEX_POINT('',#1479);
#548=VERTEX_POINT('',#1481);
#549=VERTEX_POINT('',#1483);
#550=VERTEX_POINT('',#1485);
#551=VERTEX_POINT('',#1489);
#552=VERTEX_POINT('',#1493);
#553=VERTEX_POINT('',#1500);
#554=VERTEX_POINT('',#1502);
#555=VERTEX_POINT('',#1504);
#556=VERTEX_POINT('',#1506);
#557=VERTEX_POINT('',#1514);
#558=VERTEX_POINT('',#1516);
#559=VERTEX_POINT('',#1519);
#560=VERTEX_POINT('',#1521);
#561=VERTEX_POINT('',#1525);
#562=VERTEX_POINT('',#1527);
#563=VERTEX_POINT('',#1536);
#564=VERTEX_POINT('',#1538);
#565=VERTEX_POINT('',#1547);
#566=VERTEX_POINT('',#1549);
#567=VERTEX_POINT('',#1558);
#568=VERTEX_POINT('',#1560);
#569=LINE('',#1272,#646);
#570=LINE('',#1275,#647);
#571=LINE('',#1285,#648);
#572=LINE('',#1300,#649);
#573=LINE('',#1302,#650);
#574=LINE('',#1305,#651);
#575=LINE('',#1320,#652);
#576=LINE('',#1330,#653);
#577=LINE('',#1332,#654);
#578=LINE('',#1333,#655);
#579=LINE('',#1335,#656);
#580=LINE('',#1338,#657);
#581=LINE('',#1353,#658);
#582=LINE('',#1363,#659);
#583=LINE('',#1365,#660);
#584=LINE('',#1367,#661);
#585=LINE('',#1369,#662);
#586=LINE('',#1371,#663);
#587=LINE('',#1374,#664);
#588=LINE('',#1396,#665);
#589=LINE('',#1398,#666);
#590=LINE('',#1400,#667);
#591=LINE('',#1402,#668);
#592=LINE('',#1404,#669);
#593=LINE('',#1406,#670);
#594=LINE('',#1408,#671);
#595=LINE('',#1410,#672);
#596=LINE('',#1412,#673);
#597=LINE('',#1414,#674);
#598=LINE('',#1415,#675);
#599=LINE('',#1416,#676);
#600=LINE('',#1418,#677);
#601=LINE('',#1420,#678);
#602=LINE('',#1422,#679);
#603=LINE('',#1424,#680);
#604=LINE('',#1426,#681);
#605=LINE('',#1428,#682);
#606=LINE('',#1430,#683);
#607=LINE('',#1433,#684);
#608=LINE('',#1435,#685);
#609=LINE('',#1437,#686);
#610=LINE('',#1439,#687);
#611=LINE('',#1452,#688);
#612=LINE('',#1465,#689);
#613=LINE('',#1467,#690);
#614=LINE('',#1469,#691);
#615=LINE('',#1471,#692);
#616=LINE('',#1476,#693);
#617=LINE('',#1480,#694);
#618=LINE('',#1484,#695);
#619=LINE('',#1488,#696);
#620=LINE('',#1490,#697);
#621=LINE('',#1492,#698);
#622=LINE('',#1494,#699);
#623=LINE('',#1496,#700);
#624=LINE('',#1497,#701);
#625=LINE('',#1499,#702);
#626=LINE('',#1501,#703);
#627=LINE('',#1503,#704);
#628=LINE('',#1505,#705);
#629=LINE('',#1507,#706);
#630=LINE('',#1509,#707);
#631=LINE('',#1511,#708);
#632=LINE('',#1515,#709);
#633=LINE('',#1520,#710);
#634=LINE('',#1524,#711);
#635=LINE('',#1526,#712);
#636=LINE('',#1528,#713);
#637=LINE('',#1535,#714);
#638=LINE('',#1537,#715);
#639=LINE('',#1539,#716);
#640=LINE('',#1546,#717);
#641=LINE('',#1548,#718);
#642=LINE('',#1550,#719);
#643=LINE('',#1557,#720);
#644=LINE('',#1559,#721);
#645=LINE('',#1561,#722);
#646=VECTOR('',#1005,1000.);
#647=VECTOR('',#1006,1000.);
#648=VECTOR('',#1015,1000.);
#649=VECTOR('',#1024,1000.);
#650=VECTOR('',#1027,1000.);
#651=VECTOR('',#1028,1000.);
#652=VECTOR('',#1037,1000.);
#653=VECTOR('',#1046,1000.);
#654=VECTOR('',#1049,1000.);
#655=VECTOR('',#1050,1000.);
#656=VECTOR('',#1053,1000.);
#657=VECTOR('',#1054,1000.);
#658=VECTOR('',#1063,1000.);
#659=VECTOR('',#1072,1000.);
#660=VECTOR('',#1075,1000.);
#661=VECTOR('',#1076,1000.);
#662=VECTOR('',#1077,1000.);
#663=VECTOR('',#1080,1000.);
#664=VECTOR('',#1081,1000.);
#665=VECTOR('',#1098,1000.);
#666=VECTOR('',#1101,1000.);
#667=VECTOR('',#1104,1000.);
#668=VECTOR('',#1107,1000.);
#669=VECTOR('',#1110,1000.);
#670=VECTOR('',#1113,1000.);
#671=VECTOR('',#1114,1000.);
#672=VECTOR('',#1115,1000.);
#673=VECTOR('',#1116,1000.);
#674=VECTOR('',#1117,1000.);
#675=VECTOR('',#1118,1000.);
#676=VECTOR('',#1119,1000.);
#677=VECTOR('',#1120,1000.);
#678=VECTOR('',#1121,1000.);
#679=VECTOR('',#1122,1000.);
#680=VECTOR('',#1123,1000.);
#681=VECTOR('',#1126,1000.);
#682=VECTOR('',#1129,1000.);
#683=VECTOR('',#1132,1000.);
#684=VECTOR('',#1137,1000.);
#685=VECTOR('',#1140,1000.);
#686=VECTOR('',#1143,1000.);
#687=VECTOR('',#1146,1000.);
#688=VECTOR('',#1147,1000.);
#689=VECTOR('',#1148,1000.);
#690=VECTOR('',#1151,1000.);
#691=VECTOR('',#1154,1000.);
#692=VECTOR('',#1157,1000.);
#693=VECTOR('',#1164,1000.);
#694=VECTOR('',#1167,1000.);
#695=VECTOR('',#1170,1000.);
#696=VECTOR('',#1175,1000.);
#697=VECTOR('',#1176,1000.);
#698=VECTOR('',#1179,1000.);
#699=VECTOR('',#1180,1000.);
#700=VECTOR('',#1183,1000.);
#701=VECTOR('',#1184,1000.);
#702=VECTOR('',#1187,1000.);
#703=VECTOR('',#1188,1000.);
#704=VECTOR('',#1189,1000.);
#705=VECTOR('',#1190,1000.);
#706=VECTOR('',#1191,1000.);
#707=VECTOR('',#1194,1000.);
#708=VECTOR('',#1197,1000.);
#709=VECTOR('',#1202,1000.);
#710=VECTOR('',#1207,1000.);
#711=VECTOR('',#1212,1000.);
#712=VECTOR('',#1213,1000.);
#713=VECTOR('',#1214,1000.);
#714=VECTOR('',#1227,1000.);
#715=VECTOR('',#1228,1000.);
#716=VECTOR('',#1229,1000.);
#717=VECTOR('',#1242,1000.);
#718=VECTOR('',#1243,1000.);
#719=VECTOR('',#1244,1000.);
#720=VECTOR('',#1257,1000.);
#721=VECTOR('',#1258,1000.);
#722=VECTOR('',#1259,1000.);
#723=EDGE_LOOP('',(#92,#93,#94,#95,#96,#97,#98,#99,#100,#101,#102,#103,
#104));
#724=EDGE_LOOP('',(#105,#106,#107,#108,#109,#110,#111,#112,#113,#114,#115,
#116,#117));
#725=EDGE_LOOP('',(#118,#119,#120,#121));
#726=EDGE_LOOP('',(#122,#123,#124,#125,#126,#127,#128,#129,#130,#131,#132,
#133,#134));
#727=EDGE_LOOP('',(#135,#136,#137,#138));
#728=EDGE_LOOP('',(#139,#140,#141,#142,#143,#144,#145,#146,#147,#148,#149,
#150,#151));
#729=EDGE_LOOP('',(#152,#153,#154,#155));
#730=EDGE_LOOP('',(#156,#157,#158,#159));
#731=EDGE_LOOP('',(#160,#161,#162,#163));
#732=EDGE_LOOP('',(#164,#165,#166,#167));
#733=EDGE_LOOP('',(#168,#169,#170,#171,#172,#173,#174,#175,#176,#177,#178,
#179,#180,#181,#182,#183));
#734=EDGE_LOOP('',(#184,#185,#186,#187));
#735=EDGE_LOOP('',(#188,#189,#190,#191));
#736=EDGE_LOOP('',(#192,#193,#194,#195));
#737=EDGE_LOOP('',(#196,#197,#198,#199));
#738=EDGE_LOOP('',(#200,#201,#202,#203));
#739=EDGE_LOOP('',(#204,#205,#206,#207));
#740=EDGE_LOOP('',(#208,#209,#210,#211));
#741=EDGE_LOOP('',(#212,#213,#214,#215));
#742=EDGE_LOOP('',(#216,#217,#218,#219,#220,#221));
#743=EDGE_LOOP('',(#222,#223,#224,#225));
#744=EDGE_LOOP('',(#226,#227,#228,#229));
#745=EDGE_LOOP('',(#230,#231,#232,#233));
#746=EDGE_LOOP('',(#234,#235,#236,#237));
#747=EDGE_LOOP('',(#238,#239,#240,#241));
#748=EDGE_LOOP('',(#242,#243,#244,#245,#246,#247,#248,#249));
#749=EDGE_LOOP('',(#250,#251,#252,#253));
#750=EDGE_LOOP('',(#254,#255,#256,#257));
#751=EDGE_LOOP('',(#258,#259,#260,#261,#262,#263,#264,#265));
#752=EDGE_LOOP('',(#266,#267,#268,#269,#270,#271,#272,#273));
#753=EDGE_LOOP('',(#274,#275,#276,#277));
#754=EDGE_LOOP('',(#278,#279,#280,#281));
#755=EDGE_LOOP('',(#282,#283,#284,#285,#286,#287,#288,#289));
#756=EDGE_LOOP('',(#290,#291,#292,#293));
#757=EDGE_LOOP('',(#294,#295,#296,#297));
#758=EDGE_LOOP('',(#298,#299,#300,#301));
#759=EDGE_LOOP('',(#302,#303,#304,#305));
#760=EDGE_LOOP('',(#306,#307,#308,#309));
#761=EDGE_LOOP('',(#310,#311,#312,#313));
#762=EDGE_LOOP('',(#314,#315,#316,#317));
#763=EDGE_LOOP('',(#318,#319,#320,#321));
#764=EDGE_LOOP('',(#322,#323,#324,#325));
#765=EDGE_LOOP('',(#326,#327,#328,#329));
#766=EDGE_LOOP('',(#330,#331,#332,#333));
#767=EDGE_LOOP('',(#334,#335,#336,#337));
#768=EDGE_LOOP('',(#338,#339,#340,#341));
#769=EDGE_LOOP('',(#342,#343,#344,#345));
#770=EDGE_LOOP('',(#346,#347,#348,#349));
#771=EDGE_LOOP('',(#350,#351,#352,#353));
#772=FACE_BOUND('',#723,.T.);
#773=FACE_BOUND('',#724,.T.);
#774=FACE_BOUND('',#725,.T.);
#775=FACE_BOUND('',#726,.T.);
#776=FACE_BOUND('',#727,.T.);
#777=FACE_BOUND('',#728,.T.);
#778=FACE_BOUND('',#729,.T.);
#779=FACE_BOUND('',#730,.T.);
#780=FACE_BOUND('',#731,.T.);
#781=FACE_BOUND('',#732,.T.);
#782=FACE_BOUND('',#733,.T.);
#783=FACE_BOUND('',#734,.T.);
#784=FACE_BOUND('',#735,.T.);
#785=FACE_BOUND('',#736,.T.);
#786=FACE_BOUND('',#737,.T.);
#787=FACE_BOUND('',#738,.T.);
#788=FACE_BOUND('',#739,.T.);
#789=FACE_BOUND('',#740,.T.);
#790=FACE_BOUND('',#741,.T.);
#791=FACE_BOUND('',#742,.T.);
#792=FACE_BOUND('',#743,.T.);
#793=FACE_BOUND('',#744,.T.);
#794=FACE_BOUND('',#745,.T.);
#795=FACE_BOUND('',#746,.T.);
#796=FACE_BOUND('',#747,.T.);
#797=FACE_BOUND('',#748,.T.);
#798=FACE_BOUND('',#749,.T.);
#799=FACE_BOUND('',#750,.T.);
#800=FACE_BOUND('',#751,.T.);
#801=FACE_BOUND('',#752,.T.);
#802=FACE_BOUND('',#753,.T.);
#803=FACE_BOUND('',#754,.T.);
#804=FACE_BOUND('',#755,.T.);
#805=FACE_BOUND('',#756,.T.);
#806=FACE_BOUND('',#757,.T.);
#807=FACE_BOUND('',#758,.T.);
#808=FACE_BOUND('',#759,.T.);
#809=FACE_BOUND('',#760,.T.);
#810=FACE_BOUND('',#761,.T.);
#811=FACE_BOUND('',#762,.T.);
#812=FACE_BOUND('',#763,.T.);
#813=FACE_BOUND('',#764,.T.);
#814=FACE_BOUND('',#765,.T.);
#815=FACE_BOUND('',#766,.T.);
#816=FACE_BOUND('',#767,.T.);
#817=FACE_BOUND('',#768,.T.);
#818=FACE_BOUND('',#769,.T.);
#819=FACE_BOUND('',#770,.T.);
#820=FACE_BOUND('',#771,.T.);
#821=PLANE('',#906);
#822=PLANE('',#915);
#823=PLANE('',#924);
#824=PLANE('',#925);
#825=PLANE('',#934);
#826=PLANE('',#935);
#827=PLANE('',#948);
#828=PLANE('',#961);
#829=PLANE('',#966);
#830=PLANE('',#967);
#831=PLANE('',#968);
#832=PLANE('',#969);
#833=PLANE('',#970);
#834=PLANE('',#971);
#835=PLANE('',#972);
#836=PLANE('',#977);
#837=PLANE('',#982);
#838=PLANE('',#983);
#839=PLANE('',#988);
#840=PLANE('',#989);
#841=PLANE('',#994);
#842=PLANE('',#995);
#843=PLANE('',#1000);
#844=ADVANCED_FACE('',(#772),#821,.F.);
#845=ADVANCED_FACE('',(#773),#822,.T.);
#846=ADVANCED_FACE('',(#774),#823,.T.);
#847=ADVANCED_FACE('',(#775),#824,.F.);
#848=ADVANCED_FACE('',(#776),#825,.F.);
#849=ADVANCED_FACE('',(#777),#826,.T.);
#850=ADVANCED_FACE('',(#778),#14,.F.);
#851=ADVANCED_FACE('',(#779),#15,.F.);
#852=ADVANCED_FACE('',(#780),#16,.T.);
#853=ADVANCED_FACE('',(#781),#17,.T.);
#854=ADVANCED_FACE('',(#782),#827,.F.);
#855=ADVANCED_FACE('',(#783),#18,.T.);
#856=ADVANCED_FACE('',(#784),#19,.T.);
#857=ADVANCED_FACE('',(#785),#20,.F.);
#858=ADVANCED_FACE('',(#786),#21,.F.);
#859=ADVANCED_FACE('',(#787),#22,.T.);
#860=ADVANCED_FACE('',(#788),#23,.T.);
#861=ADVANCED_FACE('',(#789),#24,.F.);
#862=ADVANCED_FACE('',(#790),#25,.F.);
#863=ADVANCED_FACE('',(#791),#12,.F.);
#864=ADVANCED_FACE('',(#792),#13,.F.);
#865=ADVANCED_FACE('',(#793),#26,.F.);
#866=ADVANCED_FACE('',(#794),#27,.F.);
#867=ADVANCED_FACE('',(#795),#28,.T.);
#868=ADVANCED_FACE('',(#796),#29,.T.);
#869=ADVANCED_FACE('',(#797),#828,.T.);
#870=ADVANCED_FACE('',(#798),#829,.T.);
#871=ADVANCED_FACE('',(#799),#830,.T.);
#872=ADVANCED_FACE('',(#800),#831,.F.);
#873=ADVANCED_FACE('',(#801),#832,.F.);
#874=ADVANCED_FACE('',(#802),#833,.T.);
#875=ADVANCED_FACE('',(#803),#834,.T.);
#876=ADVANCED_FACE('',(#804),#835,.T.);
#877=ADVANCED_FACE('',(#805),#836,.T.);
#878=ADVANCED_FACE('',(#806),#30,.F.);
#879=ADVANCED_FACE('',(#807),#31,.T.);
#880=ADVANCED_FACE('',(#808),#837,.T.);
#881=ADVANCED_FACE('',(#809),#838,.T.);
#882=ADVANCED_FACE('',(#810),#32,.F.);
#883=ADVANCED_FACE('',(#811),#33,.T.);
#884=ADVANCED_FACE('',(#812),#839,.T.);
#885=ADVANCED_FACE('',(#813),#840,.T.);
#886=ADVANCED_FACE('',(#814),#34,.F.);
#887=ADVANCED_FACE('',(#815),#35,.T.);
#888=ADVANCED_FACE('',(#816),#841,.T.);
#889=ADVANCED_FACE('',(#817),#842,.T.);
#890=ADVANCED_FACE('',(#818),#36,.F.);
#891=ADVANCED_FACE('',(#819),#37,.T.);
#892=ADVANCED_FACE('',(#820),#843,.T.);
#893=CLOSED_SHELL('',(#844,#845,#846,#847,#848,#849,#850,#851,#852,#853,
#854,#855,#856,#857,#858,#859,#860,#861,#862,#863,#864,#865,#866,#867,#868,
#869,#870,#871,#872,#873,#874,#875,#876,#877,#878,#879,#880,#881,#882,#883,
#884,#885,#886,#887,#888,#889,#890,#891,#892));
#894=STYLED_ITEM('',(#895),#902);
#895=PRESENTATION_STYLE_ASSIGNMENT((#896));
#896=SURFACE_STYLE_USAGE(.BOTH.,#897);
#897=SURFACE_SIDE_STYLE('',(#898));
#898=SURFACE_STYLE_FILL_AREA(#899);
#899=FILL_AREA_STYLE('',(#900));
#900=FILL_AREA_STYLE_COLOUR('',#901);
#901=COLOUR_RGB('',0.611764705882353,0.658823529411765,0.670588235294118);
#902=MANIFOLD_SOLID_BREP('Thicken (3)',#893);
#903=SHAPE_DEFINITION_REPRESENTATION(#1573,#904);
#904=SHAPE_REPRESENTATION('H02',(#905),#1568);
#905=AXIS2_PLACEMENT_3D('',#1270,#1001,#1002);
#906=AXIS2_PLACEMENT_3D('',#1271,#1003,#1004);
#907=AXIS2_PLACEMENT_3D('',#1277,#1007,#1008);
#908=AXIS2_PLACEMENT_3D('',#1279,#1009,#1010);
#909=AXIS2_PLACEMENT_3D('',#1281,#1011,#1012);
#910=AXIS2_PLACEMENT_3D('',#1283,#1013,#1014);
#911=AXIS2_PLACEMENT_3D('',#1287,#1016,#1017);
#912=AXIS2_PLACEMENT_3D('',#1289,#1018,#1019);
#913=AXIS2_PLACEMENT_3D('',#1291,#1020,#1021);
#914=AXIS2_PLACEMENT_3D('',#1293,#1022,#1023);
#915=AXIS2_PLACEMENT_3D('',#1301,#1025,#1026);
#916=AXIS2_PLACEMENT_3D('',#1312,#1029,#1030);
#917=AXIS2_PLACEMENT_3D('',#1314,#1031,#1032);
#918=AXIS2_PLACEMENT_3D('',#1316,#1033,#1034);
#919=AXIS2_PLACEMENT_3D('',#1318,#1035,#1036);
#920=AXIS2_PLACEMENT_3D('',#1322,#1038,#1039);
#921=AXIS2_PLACEMENT_3D('',#1324,#1040,#1041);
#922=AXIS2_PLACEMENT_3D('',#1326,#1042,#1043);
#923=AXIS2_PLACEMENT_3D('',#1328,#1044,#1045);
#924=AXIS2_PLACEMENT_3D('',#1331,#1047,#1048);
#925=AXIS2_PLACEMENT_3D('',#1334,#1051,#1052);
#926=AXIS2_PLACEMENT_3D('',#1345,#1055,#1056);
#927=AXIS2_PLACEMENT_3D('',#1347,#1057,#1058);
#928=AXIS2_PLACEMENT_3D('',#1349,#1059,#1060);
#929=AXIS2_PLACEMENT_3D('',#1351,#1061,#1062);
#930=AXIS2_PLACEMENT_3D('',#1355,#1064,#1065);
#931=AXIS2_PLACEMENT_3D('',#1357,#1066,#1067);
#932=AXIS2_PLACEMENT_3D('',#1359,#1068,#1069);
#933=AXIS2_PLACEMENT_3D('',#1361,#1070,#1071);
#934=AXIS2_PLACEMENT_3D('',#1364,#1073,#1074);
#935=AXIS2_PLACEMENT_3D('',#1370,#1078,#1079);
#936=AXIS2_PLACEMENT_3D('',#1376,#1082,#1083);
#937=AXIS2_PLACEMENT_3D('',#1378,#1084,#1085);
#938=AXIS2_PLACEMENT_3D('',#1380,#1086,#1087);
#939=AXIS2_PLACEMENT_3D('',#1382,#1088,#1089);
#940=AXIS2_PLACEMENT_3D('',#1383,#1090,#1091);
#941=AXIS2_PLACEMENT_3D('',#1385,#1092,#1093);
#942=AXIS2_PLACEMENT_3D('',#1387,#1094,#1095);
#943=AXIS2_PLACEMENT_3D('',#1389,#1096,#1097);
#944=AXIS2_PLACEMENT_3D('',#1397,#1099,#1100);
#945=AXIS2_PLACEMENT_3D('',#1399,#1102,#1103);
#946=AXIS2_PLACEMENT_3D('',#1401,#1105,#1106);
#947=AXIS2_PLACEMENT_3D('',#1403,#1108,#1109);
#948=AXIS2_PLACEMENT_3D('',#1405,#1111,#1112);
#949=AXIS2_PLACEMENT_3D('',#1425,#1124,#1125);
#950=AXIS2_PLACEMENT_3D('',#1427,#1127,#1128);
#951=AXIS2_PLACEMENT_3D('',#1429,#1130,#1131);
#952=AXIS2_PLACEMENT_3D('',#1431,#1133,#1134);
#953=AXIS2_PLACEMENT_3D('',#1432,#1135,#1136);
#954=AXIS2_PLACEMENT_3D('',#1434,#1138,#1139);
#955=AXIS2_PLACEMENT_3D('',#1436,#1141,#1142);
#956=AXIS2_PLACEMENT_3D('',#1438,#1144,#1145);
#957=AXIS2_PLACEMENT_3D('',#1466,#1149,#1150);
#958=AXIS2_PLACEMENT_3D('',#1468,#1152,#1153);
#959=AXIS2_PLACEMENT_3D('',#1470,#1155,#1156);
#960=AXIS2_PLACEMENT_3D('',#1472,#1158,#1159);
#961=AXIS2_PLACEMENT_3D('',#1473,#1160,#1161);
#962=AXIS2_PLACEMENT_3D('',#1474,#1162,#1163);
#963=AXIS2_PLACEMENT_3D('',#1478,#1165,#1166);
#964=AXIS2_PLACEMENT_3D('',#1482,#1168,#1169);
#965=AXIS2_PLACEMENT_3D('',#1486,#1171,#1172);
#966=AXIS2_PLACEMENT_3D('',#1487,#1173,#1174);
#967=AXIS2_PLACEMENT_3D('',#1491,#1177,#1178);
#968=AXIS2_PLACEMENT_3D('',#1495,#1181,#1182);
#969=AXIS2_PLACEMENT_3D('',#1498,#1185,#1186);
#970=AXIS2_PLACEMENT_3D('',#1508,#1192,#1193);
#971=AXIS2_PLACEMENT_3D('',#1510,#1195,#1196);
#972=AXIS2_PLACEMENT_3D('',#1512,#1198,#1199);
#973=AXIS2_PLACEMENT_3D('',#1513,#1200,#1201);
#974=AXIS2_PLACEMENT_3D('',#1517,#1203,#1204);
#975=AXIS2_PLACEMENT_3D('',#1518,#1205,#1206);
#976=AXIS2_PLACEMENT_3D('',#1522,#1208,#1209);
#977=AXIS2_PLACEMENT_3D('',#1523,#1210,#1211);
#978=AXIS2_PLACEMENT_3D('',#1529,#1215,#1216);
#979=AXIS2_PLACEMENT_3D('',#1530,#1217,#1218);
#980=AXIS2_PLACEMENT_3D('',#1531,#1219,#1220);
#981=AXIS2_PLACEMENT_3D('',#1532,#1221,#1222);
#982=AXIS2_PLACEMENT_3D('',#1533,#1223,#1224);
#983=AXIS2_PLACEMENT_3D('',#1534,#1225,#1226);
#984=AXIS2_PLACEMENT_3D('',#1540,#1230,#1231);
#985=AXIS2_PLACEMENT_3D('',#1541,#1232,#1233);
#986=AXIS2_PLACEMENT_3D('',#1542,#1234,#1235);
#987=AXIS2_PLACEMENT_3D('',#1543,#1236,#1237);
#988=AXIS2_PLACEMENT_3D('',#1544,#1238,#1239);
#989=AXIS2_PLACEMENT_3D('',#1545,#1240,#1241);
#990=AXIS2_PLACEMENT_3D('',#1551,#1245,#1246);
#991=AXIS2_PLACEMENT_3D('',#1552,#1247,#1248);
#992=AXIS2_PLACEMENT_3D('',#1553,#1249,#1250);
#993=AXIS2_PLACEMENT_3D('',#1554,#1251,#1252);
#994=AXIS2_PLACEMENT_3D('',#1555,#1253,#1254);
#995=AXIS2_PLACEMENT_3D('',#1556,#1255,#1256);
#996=AXIS2_PLACEMENT_3D('',#1562,#1260,#1261);
#997=AXIS2_PLACEMENT_3D('',#1563,#1262,#1263);
#998=AXIS2_PLACEMENT_3D('',#1564,#1264,#1265);
#999=AXIS2_PLACEMENT_3D('',#1565,#1266,#1267);
#1000=AXIS2_PLACEMENT_3D('',#1566,#1268,#1269);
#1001=DIRECTION('',(0.,0.,1.));
#1002=DIRECTION('',(1.,0.,0.));
#1003=DIRECTION('',(0.,0.,1.));
#1004=DIRECTION('',(1.,0.,0.));
#1005=DIRECTION('',(0.,-1.,0.));
#1006=DIRECTION('',(1.,0.,0.));
#1007=DIRECTION('',(0.,0.,1.));
#1008=DIRECTION('',(1.,0.,0.));
#1009=DIRECTION('',(0.,0.,1.));
#1010=DIRECTION('',(1.,0.,0.));
#1011=DIRECTION('',(0.,0.,1.));
#1012=DIRECTION('',(1.,0.,0.));
#1013=DIRECTION('',(0.,0.,1.));
#1014=DIRECTION('',(1.,0.,0.));
#1015=DIRECTION('',(0.999118102456511,-0.0419883000811041,0.));
#1016=DIRECTION('',(0.,0.,-1.));
#1017=DIRECTION('',(1.,1.22464679914735E-16,0.));
#1018=DIRECTION('',(0.,0.,-1.));
#1019=DIRECTION('',(1.,1.22464679914735E-16,0.));
#1020=DIRECTION('',(0.,0.,1.));
#1021=DIRECTION('',(1.,0.,0.));
#1022=DIRECTION('',(0.,0.,1.));
#1023=DIRECTION('',(1.,0.,0.));
#1024=DIRECTION('',(-1.,0.,0.));
#1025=DIRECTION('',(0.,0.,1.));
#1026=DIRECTION('',(1.,0.,0.));
#1027=DIRECTION('',(0.,-1.,0.));
#1028=DIRECTION('',(1.,0.,0.));
#1029=DIRECTION('',(0.,0.,1.));
#1030=DIRECTION('',(1.,0.,0.));
#1031=DIRECTION('',(0.,0.,1.));
#1032=DIRECTION('',(1.,0.,0.));
#1033=DIRECTION('',(0.,0.,-1.));
#1034=DIRECTION('',(1.,1.22464679914735E-16,0.));
#1035=DIRECTION('',(0.,0.,-1.));
#1036=DIRECTION('',(1.,1.22464679914735E-16,0.));
#1037=DIRECTION('',(0.999118102456511,-0.0419883000811041,0.));
#1038=DIRECTION('',(0.,0.,1.));
#1039=DIRECTION('',(1.,0.,0.));
#1040=DIRECTION('',(0.,0.,1.));
#1041=DIRECTION('',(1.,0.,0.));
#1042=DIRECTION('',(0.,0.,1.));
#1043=DIRECTION('',(1.,0.,0.));
#1044=DIRECTION('',(0.,0.,1.));
#1045=DIRECTION('',(1.,0.,0.));
#1046=DIRECTION('',(1.,0.,0.));
#1047=DIRECTION('',(-0.0419883000811041,-0.999118102456511,0.));
#1048=DIRECTION('',(0.,0.,1.));
#1049=DIRECTION('',(0.,0.,1.));
#1050=DIRECTION('',(0.,0.,1.));
#1051=DIRECTION('',(0.,0.,1.));
#1052=DIRECTION('',(1.,0.,0.));
#1053=DIRECTION('',(0.,1.,0.));
#1054=DIRECTION('',(1.,0.,0.));
#1055=DIRECTION('',(0.,0.,1.));
#1056=DIRECTION('',(-1.,1.22464679914735E-16,0.));
#1057=DIRECTION('',(0.,0.,1.));
#1058=DIRECTION('',(-1.,1.22464679914735E-16,0.));
#1059=DIRECTION('',(0.,0.,-1.));
#1060=DIRECTION('',(-1.,0.,0.));
#1061=DIRECTION('',(0.,0.,-1.));
#1062=DIRECTION('',(-1.,0.,0.));
#1063=DIRECTION('',(-0.999118102456511,-0.0419883000811055,0.));
#1064=DIRECTION('',(0.,0.,1.));
#1065=DIRECTION('',(1.,0.,0.));
#1066=DIRECTION('',(0.,0.,1.));
#1067=DIRECTION('',(1.,0.,0.));
#1068=DIRECTION('',(0.,0.,1.));
#1069=DIRECTION('',(1.,0.,0.));
#1070=DIRECTION('',(0.,0.,1.));
#1071=DIRECTION('',(1.,0.,0.));
#1072=DIRECTION('',(1.,0.,0.));
#1073=DIRECTION('',(-0.0419883000811055,0.999118102456511,0.));
#1074=DIRECTION('',(0.,0.,1.));
#1075=DIRECTION('',(0.,0.,1.));
#1076=DIRECTION('',(-0.999118102456511,-0.0419883000811055,0.));
#1077=DIRECTION('',(0.,0.,1.));
#1078=DIRECTION('',(0.,0.,1.));
#1079=DIRECTION('',(1.,0.,0.));
#1080=DIRECTION('',(0.,1.,0.));
#1081=DIRECTION('',(1.,0.,0.));
#1082=DIRECTION('',(0.,0.,1.));
#1083=DIRECTION('',(1.,0.,0.));
#1084=DIRECTION('',(0.,0.,1.));
#1085=DIRECTION('',(1.,0.,0.));
#1086=DIRECTION('',(0.,0.,1.));
#1087=DIRECTION('',(1.,0.,0.));
#1088=DIRECTION('',(0.,0.,1.));
#1089=DIRECTION('',(1.,0.,0.));
#1090=DIRECTION('',(0.,0.,-1.));
#1091=DIRECTION('',(-1.,0.,0.));
#1092=DIRECTION('',(0.,0.,-1.));
#1093=DIRECTION('',(-1.,0.,0.));
#1094=DIRECTION('',(0.,0.,1.));
#1095=DIRECTION('',(-1.,1.22464679914735E-16,0.));
#1096=DIRECTION('',(0.,0.,1.));
#1097=DIRECTION('',(-1.,1.22464679914735E-16,0.));
#1098=DIRECTION('',(-1.,0.,0.));
#1099=DIRECTION('',(0.,0.,1.));
#1100=DIRECTION('',(1.,0.,0.));
#1101=DIRECTION('',(0.,0.,1.));
#1102=DIRECTION('',(0.,0.,1.));
#1103=DIRECTION('',(1.,0.,0.));
#1104=DIRECTION('',(0.,0.,1.));
#1105=DIRECTION('',(0.,0.,1.));
#1106=DIRECTION('',(1.,0.,0.));
#1107=DIRECTION('',(0.,0.,1.));
#1108=DIRECTION('',(0.,0.,1.));
#1109=DIRECTION('',(1.,0.,0.));
#1110=DIRECTION('',(0.,0.,1.));
#1111=DIRECTION('',(0.,1.,0.));
#1112=DIRECTION('',(-1.,0.,0.));
#1113=DIRECTION('',(-1.15648231731787E-15,0.,-1.));
#1114=DIRECTION('',(-3.85494105772624E-16,0.,1.));
#1115=DIRECTION('',(-1.,0.,-1.92747052886312E-16));
#1116=DIRECTION('',(-5.78241158658936E-16,0.,1.));
#1117=DIRECTION('',(-5.78241158658936E-16,0.,1.));
#1118=DIRECTION('',(0.,0.,1.));
#1119=DIRECTION('',(-5.78241158658936E-16,0.,1.));
#1120=DIRECTION('',(0.,0.,-1.));
#1121=DIRECTION('',(1.,0.,1.92747052886312E-16));
#1122=DIRECTION('',(-1.15648231731787E-15,0.,-1.));
#1123=DIRECTION('',(-1.15648231731787E-15,0.,-1.));
#1124=DIRECTION('',(0.,0.,1.));
#1125=DIRECTION('',(1.,0.,0.));
#1126=DIRECTION('',(0.,0.,1.));
#1127=DIRECTION('',(0.,0.,1.));
#1128=DIRECTION('',(1.,0.,0.));
#1129=DIRECTION('',(0.,0.,1.));
#1130=DIRECTION('',(0.,0.,1.));
#1131=DIRECTION('',(1.,0.,0.));
#1132=DIRECTION('',(0.,0.,1.));
#1133=DIRECTION('',(0.,0.,1.));
#1134=DIRECTION('',(1.,0.,0.));
#1135=DIRECTION('',(0.,0.,1.));
#1136=DIRECTION('',(1.,0.,0.));
#1137=DIRECTION('',(0.,0.,1.));
#1138=DIRECTION('',(0.,0.,1.));
#1139=DIRECTION('',(1.,0.,0.));
#1140=DIRECTION('',(0.,0.,1.));
#1141=DIRECTION('',(0.,0.,1.));
#1142=DIRECTION('',(1.,0.,0.));
#1143=DIRECTION('',(0.,0.,1.));
#1144=DIRECTION('',(0.,0.,1.));
#1145=DIRECTION('',(1.,0.,0.));
#1146=DIRECTION('',(0.,0.,1.));
#1147=DIRECTION('',(0.,0.,1.));
#1148=DIRECTION('',(0.,0.,1.));
#1149=DIRECTION('',(0.,0.,1.));
#1150=DIRECTION('',(1.,0.,0.));
#1151=DIRECTION('',(0.,0.,1.));
#1152=DIRECTION('',(0.,0.,1.));
#1153=DIRECTION('',(1.,0.,0.));
#1154=DIRECTION('',(0.,0.,1.));
#1155=DIRECTION('',(0.,0.,1.));
#1156=DIRECTION('',(1.,0.,0.));
#1157=DIRECTION('',(0.,0.,1.));
#1158=DIRECTION('',(0.,0.,1.));
#1159=DIRECTION('',(1.,0.,0.));
#1160=DIRECTION('',(-1.92747052886312E-16,0.,1.));
#1161=DIRECTION('',(1.,0.,1.92747052886312E-16));
#1162=DIRECTION('',(-3.85494105772624E-16,0.,1.));
#1163=DIRECTION('',(-1.,1.22464679914735E-16,-3.85494105772624E-16));
#1164=DIRECTION('',(0.615384615384601,0.788226981996903,2.37227142013917E-16));
#1165=DIRECTION('',(3.85494105772624E-16,0.,-1.));
#1166=DIRECTION('',(-1.,0.,-3.85494105772624E-16));
#1167=DIRECTION('',(-1.,0.,-1.92747052886312E-16));
#1168=DIRECTION('',(3.85494105772624E-16,0.,1.));
#1169=DIRECTION('',(1.,0.,-3.85494105772624E-16));
#1170=DIRECTION('',(-0.615384615384601,0.788226981996903,2.37227142013917E-16));
#1171=DIRECTION('',(-3.85494105772624E-16,0.,-1.));
#1172=DIRECTION('',(1.,1.22464679914735E-16,-3.85494105772624E-16));
#1173=DIRECTION('',(1.,0.,-1.15648231731787E-15));
#1174=DIRECTION('',(-1.15648231731787E-15,0.,-1.));
#1175=DIRECTION('',(0.,1.,0.));
#1176=DIRECTION('',(1.15648231731787E-15,0.,1.));
#1177=DIRECTION('',(-1.,0.,-5.78241158658936E-16));
#1178=DIRECTION('',(-5.78241158658936E-16,0.,1.));
#1179=DIRECTION('',(0.,1.,0.));
#1180=DIRECTION('',(5.78241158658936E-16,0.,-1.));
#1181=DIRECTION('',(0.,-1.,0.));
#1182=DIRECTION('',(0.,0.,-1.));
#1183=DIRECTION('',(5.78241158658936E-16,0.,-1.));
#1184=DIRECTION('',(-3.85494105772624E-16,0.,1.));
#1185=DIRECTION('',(0.,-1.,0.));
#1186=DIRECTION('',(0.,0.,-1.));
#1187=DIRECTION('',(1.15648231731787E-15,0.,1.));
#1188=DIRECTION('',(1.15648231731787E-15,0.,1.));
#1189=DIRECTION('',(1.,0.,1.92747052886312E-16));
#1190=DIRECTION('',(0.,0.,-1.));
#1191=DIRECTION('',(5.78241158658936E-16,0.,-1.));
#1192=DIRECTION('',(-1.,0.,-5.78241158658936E-16));
#1193=DIRECTION('',(-5.78241158658936E-16,0.,1.));
#1194=DIRECTION('',(0.,1.,0.));
#1195=DIRECTION('',(1.,0.,-1.15648231731787E-15));
#1196=DIRECTION('',(-1.15648231731787E-15,0.,-1.));
#1197=DIRECTION('',(0.,1.,0.));
#1198=DIRECTION('',(1.92747052886312E-16,0.,-1.));
#1199=DIRECTION('',(-1.,0.,-1.92747052886312E-16));
#1200=DIRECTION('',(0.,0.,-1.));
#1201=DIRECTION('',(1.,1.22464679914735E-16,0.));
#1202=DIRECTION('',(-0.615384615384601,0.788226981996903,0.));
#1203=DIRECTION('',(0.,0.,1.));
#1204=DIRECTION('',(1.,0.,0.));
#1205=DIRECTION('',(0.,0.,-1.));
#1206=DIRECTION('',(-1.,0.,0.));
#1207=DIRECTION('',(0.615384615384601,0.788226981996903,0.));
#1208=DIRECTION('',(0.,0.,1.));
#1209=DIRECTION('',(-1.,1.22464679914735E-16,0.));
#1210=DIRECTION('',(-0.788226981996903,0.615384615384601,0.));
#1211=DIRECTION('',(-0.615384615384601,-0.788226981996903,0.));
#1212=DIRECTION('',(0.,0.,-1.));
#1213=DIRECTION('',(0.615384615384601,0.788226981996903,0.));
#1214=DIRECTION('',(0.,0.,-1.));
#1215=DIRECTION('',(0.,0.,-1.));
#1216=DIRECTION('',(-1.,0.,0.));
#1217=DIRECTION('',(0.,0.,1.));
#1218=DIRECTION('',(-1.,1.22464679914735E-16,0.));
#1219=DIRECTION('',(0.,0.,-1.));
#1220=DIRECTION('',(-1.,0.,0.));
#1221=DIRECTION('',(0.,0.,-1.));
#1222=DIRECTION('',(-1.,0.,0.));
#1223=DIRECTION('',(0.,0.,1.));
#1224=DIRECTION('',(1.,0.,0.));
#1225=DIRECTION('',(-0.788226981996903,0.615384615384601,-3.0385685557075E-16));
#1226=DIRECTION('',(-0.615384615384601,-0.788226981996903,-2.37227142013917E-16));
#1227=DIRECTION('',(-3.85494105772624E-16,0.,1.));
#1228=DIRECTION('',(0.615384615384601,0.788226981996903,2.37227142013917E-16));
#1229=DIRECTION('',(-3.85494105772624E-16,0.,1.));
#1230=DIRECTION('',(-3.85494105772624E-16,0.,1.));
#1231=DIRECTION('',(-1.,0.,-3.85494105772624E-16));
#1232=DIRECTION('',(-3.85494105772624E-16,0.,1.));
#1233=DIRECTION('',(-1.,1.22464679914735E-16,-3.85494105772624E-16));
#1234=DIRECTION('',(-3.85494105772624E-16,0.,1.));
#1235=DIRECTION('',(-1.,0.,-3.85494105772624E-16));
#1236=DIRECTION('',(3.85494105772624E-16,0.,-1.));
#1237=DIRECTION('',(-1.,0.,-3.85494105772624E-16));
#1238=DIRECTION('',(3.85494105772624E-16,0.,-1.));
#1239=DIRECTION('',(1.,0.,3.85494105772624E-16));
#1240=DIRECTION('',(0.788226981996903,0.615384615384601,0.));
#1241=DIRECTION('',(0.615384615384601,-0.788226981996903,0.));
#1242=DIRECTION('',(0.,0.,-1.));
#1243=DIRECTION('',(-0.615384615384601,0.788226981996903,0.));
#1244=DIRECTION('',(0.,0.,-1.));
#1245=DIRECTION('',(0.,0.,-1.));
#1246=DIRECTION('',(1.,0.,0.));
#1247=DIRECTION('',(0.,0.,-1.));
#1248=DIRECTION('',(1.,1.22464679914735E-16,0.));
#1249=DIRECTION('',(0.,0.,-1.));
#1250=DIRECTION('',(1.,0.,0.));
#1251=DIRECTION('',(0.,0.,1.));
#1252=DIRECTION('',(1.,0.,0.));
#1253=DIRECTION('',(0.,0.,1.));
#1254=DIRECTION('',(-1.,0.,0.));
#1255=DIRECTION('',(0.788226981996903,0.615384615384601,-3.0385685557075E-16));
#1256=DIRECTION('',(0.615384615384601,-0.788226981996903,-2.37227142013917E-16));
#1257=DIRECTION('',(3.85494105772624E-16,0.,1.));
#1258=DIRECTION('',(-0.615384615384601,0.788226981996903,2.37227142013917E-16));
#1259=DIRECTION('',(3.85494105772624E-16,0.,1.));
#1260=DIRECTION('',(3.85494105772624E-16,0.,1.));
#1261=DIRECTION('',(1.,0.,-3.85494105772624E-16));
#1262=DIRECTION('',(-3.85494105772624E-16,0.,-1.));
#1263=DIRECTION('',(1.,1.22464679914735E-16,-3.85494105772624E-16));
#1264=DIRECTION('',(3.85494105772624E-16,0.,1.));
#1265=DIRECTION('',(1.,0.,-3.85494105772624E-16));
#1266=DIRECTION('',(3.85494105772624E-16,0.,1.));
#1267=DIRECTION('',(1.,0.,-3.85494105772624E-16));
#1268=DIRECTION('',(-3.85494105772624E-16,0.,-1.));
#1269=DIRECTION('',(-1.,0.,3.85494105772624E-16));
#1270=CARTESIAN_POINT('',(0.,0.,0.));
#1271=CARTESIAN_POINT('',(47.4209565822702,-31.7117176758264,-2.5));
#1272=CARTESIAN_POINT('',(-22.0873365440827,-31.7117176758264,-2.5));
#1273=CARTESIAN_POINT('',(-22.0873365440827,-36.7139187513621,-2.5));
#1274=CARTESIAN_POINT('',(-22.0873365440827,-36.4639187513621,-2.5));
#1275=CARTESIAN_POINT('',(-1.11123654302236,-36.7139187513621,-2.5));
#1276=CARTESIAN_POINT('',(-27.510714655161,-36.7139187513621,-2.5));
#1277=CARTESIAN_POINT('',(-27.6245398841089,-6.38982545333037,-2.5));
#1278=CARTESIAN_POINT('',(-47.14299080536,-29.5974462741985,-2.5));
#1279=CARTESIAN_POINT('',(-41.8328209639089,-23.2836046342028,-2.5));
#1280=CARTESIAN_POINT('',(-47.8687015902716,-28.9077174588446,-2.5));
#1281=CARTESIAN_POINT('',(-50.6122836931637,-31.4641323791362,-2.5));
#1282=CARTESIAN_POINT('',(-54.2455315703576,-30.5356875165482,-2.5));
#1283=CARTESIAN_POINT('',(-49.6434175925787,-31.7117176758264,-2.5));
#1284=CARTESIAN_POINT('',(-54.3892285792471,-31.5122732504411,-2.5));
#1285=CARTESIAN_POINT('',(-54.6390081048612,-31.5017761754209,-2.5));
#1286=CARTESIAN_POINT('',(-54.6390081048612,-31.5017761754209,-2.5));
#1287=CARTESIAN_POINT('',(-49.6434175925787,-31.7117176758264,-2.5));
#1288=CARTESIAN_POINT('',(-54.4877480955038,-30.4737911923756,-2.5));
#1289=CARTESIAN_POINT('',(-50.6122836931637,-31.4641323791362,-2.5));
#1290=CARTESIAN_POINT('',(-47.6857961167455,-28.7372897974918,-2.5));
#1291=CARTESIAN_POINT('',(-41.8328209639089,-23.2836046342028,-2.5));
#1292=CARTESIAN_POINT('',(-46.9820765677402,-29.4061177396532,-2.5));
#1293=CARTESIAN_POINT('',(-27.6245398841089,-6.38982545333037,-2.5));
#1294=CARTESIAN_POINT('',(-27.3476063259913,-36.4628573070022,-2.5));
#1295=CARTESIAN_POINT('',(-27.3476063259912,-36.4628573070022,-2.5));
#1296=CARTESIAN_POINT('',(-18.6021477190456,-36.4632823310469,-2.5));
#1297=CARTESIAN_POINT('',(-9.8566891120999,-36.4637073550916,-2.5));
#1298=CARTESIAN_POINT('',(-1.1112304999904,-36.4639187514351,-2.5));
#1299=CARTESIAN_POINT('',(-1.1112304999904,-36.4639187514351,-2.5));
#1300=CARTESIAN_POINT('',(0.,-36.4639187513621,-2.5));
#1301=CARTESIAN_POINT('',(48.3898226828552,-31.4641323791362,2.5));
#1302=CARTESIAN_POINT('',(-22.0873365440827,-31.4641323791362,2.5));
#1303=CARTESIAN_POINT('',(-22.0873365440827,-36.4639187513621,2.5));
#1304=CARTESIAN_POINT('',(-22.0873365440827,-36.7139187513621,2.5));
#1305=CARTESIAN_POINT('',(48.3898226828552,-36.4639187513621,2.5));
#1306=CARTESIAN_POINT('',(-1.1112304999904,-36.4639187514351,2.5));
#1307=CARTESIAN_POINT('',(-27.3476063259912,-36.4628573070022,2.5));
#1308=CARTESIAN_POINT('',(-18.6021477190456,-36.4632823310469,2.5));
#1309=CARTESIAN_POINT('',(-9.8566891120999,-36.4637073550916,2.5));
#1310=CARTESIAN_POINT('',(-1.1112304999904,-36.4639187514351,2.5));
#1311=CARTESIAN_POINT('',(-27.3476063259913,-36.4628573070022,2.5));
#1312=CARTESIAN_POINT('',(-27.6245398841089,-6.38982545333037,2.5));
#1313=CARTESIAN_POINT('',(-46.9820765677402,-29.4061177396532,2.5));
#1314=CARTESIAN_POINT('',(-41.8328209639089,-23.2836046342028,2.5));
#1315=CARTESIAN_POINT('',(-47.6857961167455,-28.7372897974918,2.5));
#1316=CARTESIAN_POINT('',(-50.6122836931637,-31.4641323791362,2.5));
#1317=CARTESIAN_POINT('',(-54.4877480955038,-30.4737911923756,2.5));
#1318=CARTESIAN_POINT('',(-49.6434175925787,-31.7117176758264,2.5));
#1319=CARTESIAN_POINT('',(-54.6390081048612,-31.5017761754209,2.5));
#1320=CARTESIAN_POINT('',(-54.6390081048612,-31.5017761754209,2.5));
#1321=CARTESIAN_POINT('',(-54.3892285792471,-31.5122732504411,2.5));
#1322=CARTESIAN_POINT('',(-49.6434175925787,-31.7117176758264,2.5));
#1323=CARTESIAN_POINT('',(-54.2455315703575,-30.5356875165482,2.5));
#1324=CARTESIAN_POINT('',(-50.6122836931637,-31.4641323791362,2.5));
#1325=CARTESIAN_POINT('',(-47.8687015902716,-28.9077174588446,2.5));
#1326=CARTESIAN_POINT('',(-41.8328209639089,-23.2836046342028,2.5));
#1327=CARTESIAN_POINT('',(-47.14299080536,-29.5974462741985,2.5));
#1328=CARTESIAN_POINT('',(-27.6245398841089,-6.38982545333037,2.5));
#1329=CARTESIAN_POINT('',(-27.510714655161,-36.7139187513621,2.5));
#1330=CARTESIAN_POINT('',(-1.11123654302236,-36.7139187513621,2.5));
#1331=CARTESIAN_POINT('',(-54.6390081048612,-31.5017761754209,0.));
#1332=CARTESIAN_POINT('',(-54.6390081048612,-31.5017761754209,-2.5));
#1333=CARTESIAN_POINT('',(-54.3892285792471,-31.5122732504411,-2.5));
#1334=CARTESIAN_POINT('',(47.4209565822702,-31.7117176758264,-2.5));
#1335=CARTESIAN_POINT('',(22.0873365440827,-31.7117176758264,-2.5));
#1336=CARTESIAN_POINT('',(22.0873365440827,-36.4639187513621,-2.5));
#1337=CARTESIAN_POINT('',(22.0873365440827,-36.7139187513621,-2.5));
#1338=CARTESIAN_POINT('',(47.4209565822702,-36.4639187513621,-2.5));
#1339=CARTESIAN_POINT('',(12.8097910660701,-36.4639187513621,-2.5));
#1340=CARTESIAN_POINT('',(-1.1112304999904,-36.4639187514351,-2.5));
#1341=CARTESIAN_POINT('',(7.63422810183675,-36.4641301477784,-2.5));
#1342=CARTESIAN_POINT('',(16.3796867087204,-36.4641323558295,-2.5));
#1343=CARTESIAN_POINT('',(25.1251453156827,-36.4628573070022,-2.5));
#1344=CARTESIAN_POINT('',(25.1251453156827,-36.4628573070022,-2.5));
#1345=CARTESIAN_POINT('',(25.4020788738005,-6.38982545333036,-2.5));
#1346=CARTESIAN_POINT('',(44.7596155574318,-29.4061177396532,-2.5));
#1347=CARTESIAN_POINT('',(39.6103599536004,-23.2836046342028,-2.5));
#1348=CARTESIAN_POINT('',(45.4633351064369,-28.7372897974918,-2.5));
#1349=CARTESIAN_POINT('',(48.3898226828552,-31.4641323791362,-2.5));
#1350=CARTESIAN_POINT('',(52.2652870851953,-30.4737911923756,-2.5));
#1351=CARTESIAN_POINT('',(47.4209565822702,-31.7117176758264,-2.5));
#1352=CARTESIAN_POINT('',(52.4165470945527,-31.5017761754208,-2.5));
#1353=CARTESIAN_POINT('',(52.4165470945527,-31.5017761754208,-2.5));
#1354=CARTESIAN_POINT('',(52.1667675689386,-31.5122732504411,-2.5));
#1355=CARTESIAN_POINT('',(47.4209565822702,-31.7117176758264,-2.5));
#1356=CARTESIAN_POINT('',(52.023070560049,-30.5356875165482,-2.5));
#1357=CARTESIAN_POINT('',(48.3898226828552,-31.4641323791362,-2.5));
#1358=CARTESIAN_POINT('',(45.6462405799631,-28.9077174588446,-2.5));
#1359=CARTESIAN_POINT('',(39.6103599536004,-23.2836046342028,-2.5));
#1360=CARTESIAN_POINT('',(44.9205297950515,-29.5974462741985,-2.5));
#1361=CARTESIAN_POINT('',(25.4020788738005,-6.38982545333036,-2.5));
#1362=CARTESIAN_POINT('',(25.2882536448535,-36.7139187513621,-2.5));
#1363=CARTESIAN_POINT('',(-1.11123654302236,-36.7139187513621,-2.5));
#1364=CARTESIAN_POINT('',(52.4165470945527,-31.5017761754208,0.));
#1365=CARTESIAN_POINT('',(52.4165470945527,-31.5017761754208,-2.5));
#1366=CARTESIAN_POINT('',(52.4165470945527,-31.5017761754208,2.5));
#1367=CARTESIAN_POINT('',(52.4165470945527,-31.5017761754208,2.5));
#1368=CARTESIAN_POINT('',(52.1667675689386,-31.5122732504411,2.5));
#1369=CARTESIAN_POINT('',(52.1667675689386,-31.5122732504411,-2.5));
#1370=CARTESIAN_POINT('',(48.3898226828552,-31.4641323791362,2.5));
#1371=CARTESIAN_POINT('',(22.0873365440827,-31.4641323791362,2.5));
#1372=CARTESIAN_POINT('',(22.0873365440827,-36.7139187513621,2.5));
#1373=CARTESIAN_POINT('',(22.0873365440827,-36.4639187513621,2.5));
#1374=CARTESIAN_POINT('',(-1.11123654302236,-36.7139187513621,2.5));
#1375=CARTESIAN_POINT('',(25.2882536448535,-36.7139187513621,2.5));
#1376=CARTESIAN_POINT('',(25.4020788738005,-6.38982545333036,2.5));
#1377=CARTESIAN_POINT('',(44.9205297950515,-29.5974462741985,2.5));
#1378=CARTESIAN_POINT('',(39.6103599536004,-23.2836046342028,2.5));
#1379=CARTESIAN_POINT('',(45.6462405799631,-28.9077174588446,2.5));
#1380=CARTESIAN_POINT('',(48.3898226828552,-31.4641323791362,2.5));
#1381=CARTESIAN_POINT('',(52.0230705600491,-30.5356875165481,2.5));
#1382=CARTESIAN_POINT('',(47.4209565822702,-31.7117176758264,2.5));
#1383=CARTESIAN_POINT('',(47.4209565822702,-31.7117176758264,2.5));
#1384=CARTESIAN_POINT('',(52.2652870851953,-30.4737911923756,2.5));
#1385=CARTESIAN_POINT('',(48.3898226828552,-31.4641323791362,2.5));
#1386=CARTESIAN_POINT('',(45.4633351064369,-28.7372897974918,2.5));
#1387=CARTESIAN_POINT('',(39.6103599536004,-23.2836046342028,2.5));
#1388=CARTESIAN_POINT('',(44.7596155574318,-29.4061177396532,2.5));
#1389=CARTESIAN_POINT('',(25.4020788738005,-6.38982545333036,2.5));
#1390=CARTESIAN_POINT('',(25.1251453156827,-36.4628573070022,2.5));
#1391=CARTESIAN_POINT('',(-1.1112304999904,-36.4639187514351,2.5));
#1392=CARTESIAN_POINT('',(7.63422810183675,-36.4641301477784,2.5));
#1393=CARTESIAN_POINT('',(16.3796867087204,-36.4641323558295,2.5));
#1394=CARTESIAN_POINT('',(25.1251453156827,-36.4628573070022,2.5));
#1395=CARTESIAN_POINT('',(12.8097910660701,-36.4639190182881,2.5));
#1396=CARTESIAN_POINT('',(0.,-36.4639187513621,2.5));
#1397=CARTESIAN_POINT('',(47.4209565822702,-31.7117176758264,-2.5));
#1398=CARTESIAN_POINT('',(52.023070560049,-30.5356875165482,-2.5));
#1399=CARTESIAN_POINT('',(48.3898226828552,-31.4641323791362,-2.5));
#1400=CARTESIAN_POINT('',(45.6462405799631,-28.9077174588446,-2.5));
#1401=CARTESIAN_POINT('',(39.6103599536004,-23.2836046342028,-2.5));
#1402=CARTESIAN_POINT('',(44.9205297950515,-29.5974462741985,-2.5));
#1403=CARTESIAN_POINT('',(25.4020788738005,-6.38982545333036,-2.5));
#1404=CARTESIAN_POINT('',(25.2882536448535,-36.7139187513621,0.));
#1405=CARTESIAN_POINT('',(-1.11123654302236,-36.7139187513621,2.5));
#1406=CARTESIAN_POINT('',(22.0873365440827,-36.7139187513621,2.49999999999997));
#1407=CARTESIAN_POINT('',(22.0873365440827,-36.7139187513621,3.50000000000002));
#1408=CARTESIAN_POINT('',(22.0873365440827,-36.7139187513595,3.50000000000002));
#1409=CARTESIAN_POINT('',(22.0873365440827,-36.7139187513621,5.99999999999999));
#1410=CARTESIAN_POINT('',(22.5,-36.7139187513621,5.99999999999999));
#1411=CARTESIAN_POINT('',(-22.0873365440827,-36.7139187513621,5.99999999999998));
#1412=CARTESIAN_POINT('',(-22.0873365440827,-36.7139187513621,2.49999999999999));
#1413=CARTESIAN_POINT('',(-22.0873365440827,-36.7139187513595,3.50000000000002));
#1414=CARTESIAN_POINT('',(-22.0873365440827,-36.7139187513621,2.49999999999999));
#1415=CARTESIAN_POINT('',(-27.510714655161,-36.7139187513621,0.));
#1416=CARTESIAN_POINT('',(-22.0873365440827,-36.7139187513621,2.49999999999999));
#1417=CARTESIAN_POINT('',(-22.0873365440827,-36.7139187513621,-3.50000000000001));
#1418=CARTESIAN_POINT('',(-22.0873365440827,-36.7139187513595,-3.50000000000001));
#1419=CARTESIAN_POINT('',(-22.0873365440827,-36.7139187513621,-6.00000000000002));
#1420=CARTESIAN_POINT('',(-22.5,-36.7139187513621,-6.00000000000002));
#1421=CARTESIAN_POINT('',(22.0873365440827,-36.7139187513621,-6.00000000000001));
#1422=CARTESIAN_POINT('',(22.0873365440827,-36.7139187513621,2.49999999999997));
#1423=CARTESIAN_POINT('',(22.0873365440827,-36.7139187513595,-3.50000000000001));
#1424=CARTESIAN_POINT('',(22.0873365440827,-36.7139187513621,2.49999999999997));
#1425=CARTESIAN_POINT('',(-27.6245398841089,-6.38982545333037,-2.5));
#1426=CARTESIAN_POINT('',(-47.14299080536,-29.5974462741985,-2.5));
#1427=CARTESIAN_POINT('',(-41.8328209639089,-23.2836046342028,-2.5));
#1428=CARTESIAN_POINT('',(-47.8687015902716,-28.9077174588446,-2.5));
#1429=CARTESIAN_POINT('',(-50.6122836931637,-31.4641323791362,-2.5));
#1430=CARTESIAN_POINT('',(-54.2455315703576,-30.5356875165482,-2.5));
#1431=CARTESIAN_POINT('',(-49.6434175925787,-31.7117176758264,-2.5));
#1432=CARTESIAN_POINT('',(47.4209565822702,-31.7117176758264,-2.5));
#1433=CARTESIAN_POINT('',(52.2652870851953,-30.4737911923756,-2.5));
#1434=CARTESIAN_POINT('',(48.3898226828552,-31.4641323791362,-2.5));
#1435=CARTESIAN_POINT('',(45.4633351064369,-28.7372897974918,-2.5));
#1436=CARTESIAN_POINT('',(39.6103599536004,-23.2836046342028,-2.5));
#1437=CARTESIAN_POINT('',(44.7596155574318,-29.4061177396532,-2.5));
#1438=CARTESIAN_POINT('',(25.4020788738005,-6.38982545333036,-2.5));
#1439=CARTESIAN_POINT('',(25.1251453156827,-36.4628573070022,-2.5));
#1440=CARTESIAN_POINT('',(-1.1112304999904,-36.4639187514351,-2.5));
#1441=CARTESIAN_POINT('',(-1.1112304999904,-36.4639187514351,2.5));
#1442=CARTESIAN_POINT('',(7.63422810183675,-36.4641301477784,-2.5));
#1443=CARTESIAN_POINT('',(7.63422810183675,-36.4641301477784,2.5));
#1444=CARTESIAN_POINT('',(16.3796867087204,-36.4641323558295,-2.5));
#1445=CARTESIAN_POINT('',(16.3796867087204,-36.4641323558295,2.5));
#1446=CARTESIAN_POINT('',(25.1251453156827,-36.4628573070022,-2.5));
#1447=CARTESIAN_POINT('',(25.1251453156827,-36.4628573070022,2.5));
#1448=CARTESIAN_POINT('',(-1.1112304999904,-36.4639187513621,-2.5));
#1449=CARTESIAN_POINT('',(3.52911002202976,-36.4639187513621,-2.5));
#1450=CARTESIAN_POINT('',(8.16945054404993,-36.4639187513621,-2.5));
#1451=CARTESIAN_POINT('',(12.8097910660701,-36.4639187513621,-2.5));
#1452=CARTESIAN_POINT('',(-1.1112304999904,-36.4639187514351,-2.5));
#1453=CARTESIAN_POINT('',(12.8097910660701,-36.4639187513621,2.5));
#1454=CARTESIAN_POINT('',(8.16945054404993,-36.4639187513621,2.5));
#1455=CARTESIAN_POINT('',(3.52911002202977,-36.4639187513621,2.5));
#1456=CARTESIAN_POINT('',(-1.1112304999904,-36.4639187513621,2.5));
#1457=CARTESIAN_POINT('',(-27.3476063259912,-36.4628573070022,-2.5));
#1458=CARTESIAN_POINT('',(-27.3476063259912,-36.4628573070022,2.5));
#1459=CARTESIAN_POINT('',(-18.6021477190456,-36.4632823310469,-2.5));
#1460=CARTESIAN_POINT('',(-18.6021477190456,-36.4632823310469,2.5));
#1461=CARTESIAN_POINT('',(-9.8566891120999,-36.4637073550916,-2.5));
#1462=CARTESIAN_POINT('',(-9.8566891120999,-36.4637073550916,2.5));
#1463=CARTESIAN_POINT('',(-1.1112304999904,-36.4639187514351,-2.5));
#1464=CARTESIAN_POINT('',(-1.1112304999904,-36.4639187514351,2.5));
#1465=CARTESIAN_POINT('',(-27.3476063259913,-36.4628573070022,-2.5));
#1466=CARTESIAN_POINT('',(-27.6245398841089,-6.38982545333037,-2.5));
#1467=CARTESIAN_POINT('',(-46.9820765677402,-29.4061177396532,-2.5));
#1468=CARTESIAN_POINT('',(-41.8328209639089,-23.2836046342028,-2.5));
#1469=CARTESIAN_POINT('',(-47.6857961167455,-28.7372897974918,-2.5));
#1470=CARTESIAN_POINT('',(-50.6122836931637,-31.4641323791362,-2.5));
#1471=CARTESIAN_POINT('',(-54.4877480955038,-30.4737911923756,-2.5));
#1472=CARTESIAN_POINT('',(-49.6434175925787,-31.7117176758264,-2.5));
#1473=CARTESIAN_POINT('',(22.5,-36.4639187513621,5.99999999999999));
#1474=CARTESIAN_POINT('',(22.0873365440827,-39.9639187513621,6.00000000000002));
#1475=CARTESIAN_POINT('',(20.0873365440811,-42.525656442854,6.00000000000002));
#1476=CARTESIAN_POINT('',(19.9334903902349,-42.7227131883532,6.00000000000002));
#1477=CARTESIAN_POINT('',(19.9334903902349,-42.7227131883532,6.00000000000002));
#1478=CARTESIAN_POINT('',(22.0873365440827,-39.9639187513621,6.00000000000002));
#1479=CARTESIAN_POINT('',(22.0873365440827,-36.4639187513621,5.99999999999999));
#1480=CARTESIAN_POINT('',(22.5,-36.4639187513621,5.99999999999999));
#1481=CARTESIAN_POINT('',(-22.0873365440827,-36.4639187513621,5.99999999999998));
#1482=CARTESIAN_POINT('',(-22.0873365440827,-39.9639187513621,6.00000000000002));
#1483=CARTESIAN_POINT('',(-19.9334903902349,-42.7227131883532,6.00000000000002));
#1484=CARTESIAN_POINT('',(-19.9334903902349,-42.7227131883532,6.00000000000002));
#1485=CARTESIAN_POINT('',(-20.0873365440811,-42.525656442854,6.00000000000002));
#1486=CARTESIAN_POINT('',(-22.0873365440827,-39.9639187513621,6.00000000000002));
#1487=CARTESIAN_POINT('',(22.0873365440827,-36.4639187513621,-6.00000000000001));
#1488=CARTESIAN_POINT('',(22.0873365440827,-36.7139187513621,3.50000000000002));
#1489=CARTESIAN_POINT('',(22.0873365440827,-36.4639187513595,3.50000000000002));
#1490=CARTESIAN_POINT('',(22.0873365440827,-36.4639187513621,-2.55436141498805E-14));
#1491=CARTESIAN_POINT('',(-22.0873365440827,-36.4639187513621,5.99999999999998));
#1492=CARTESIAN_POINT('',(-22.0873365440827,-36.7139187513621,3.50000000000002));
#1493=CARTESIAN_POINT('',(-22.0873365440827,-36.4639187513621,3.50000000000002));
#1494=CARTESIAN_POINT('',(-22.0873365440827,-36.4639187513621,-1.27718070749402E-14));
#1495=CARTESIAN_POINT('',(0.,-36.4639187513621,0.));
#1496=CARTESIAN_POINT('',(-22.0873365440827,-36.4639187513621,-1.27718070749402E-14));
#1497=CARTESIAN_POINT('',(22.0873365440827,-36.4639187513595,3.50000000000002));
#1498=CARTESIAN_POINT('',(0.,-36.4639187513621,0.));
#1499=CARTESIAN_POINT('',(22.0873365440827,-36.4639187513621,-2.55436141498805E-14));
#1500=CARTESIAN_POINT('',(22.0873365440827,-36.4639187513621,-3.50000000000001));
#1501=CARTESIAN_POINT('',(22.0873365440827,-36.4639187513621,-2.55436141498805E-14));
#1502=CARTESIAN_POINT('',(22.0873365440827,-36.4639187513621,-6.00000000000001));
#1503=CARTESIAN_POINT('',(-22.5,-36.4639187513621,-6.00000000000002));
#1504=CARTESIAN_POINT('',(-22.0873365440827,-36.4639187513621,-6.00000000000002));
#1505=CARTESIAN_POINT('',(-22.0873365440827,-36.4639187513595,-3.50000000000001));
#1506=CARTESIAN_POINT('',(-22.0873365440827,-36.4639187513595,-3.50000000000001));
#1507=CARTESIAN_POINT('',(-22.0873365440827,-36.4639187513621,-1.27718070749402E-14));
#1508=CARTESIAN_POINT('',(-22.0873365440827,-36.4639187513621,5.99999999999998));
#1509=CARTESIAN_POINT('',(-22.0873365440827,-36.7139187513621,-3.50000000000001));
#1510=CARTESIAN_POINT('',(22.0873365440827,-36.4639187513621,-6.00000000000001));
#1511=CARTESIAN_POINT('',(22.0873365440827,-36.7139187513621,-3.50000000000001));
#1512=CARTESIAN_POINT('',(-22.5,-36.4639187513621,-6.00000000000002));
#1513=CARTESIAN_POINT('',(-22.0873365440827,-39.9639187513621,-6.00000000000001));
#1514=CARTESIAN_POINT('',(-20.0873365440811,-42.525656442854,-6.00000000000001));
#1515=CARTESIAN_POINT('',(-19.9334903902349,-42.7227131883532,-6.00000000000001));
#1516=CARTESIAN_POINT('',(-19.9334903902349,-42.7227131883532,-6.00000000000001));
#1517=CARTESIAN_POINT('',(-22.0873365440827,-39.9639187513621,-6.00000000000001));
#1518=CARTESIAN_POINT('',(22.0873365440827,-39.9639187513621,-6.00000000000001));
#1519=CARTESIAN_POINT('',(19.9334903902349,-42.7227131883532,-6.00000000000001));
#1520=CARTESIAN_POINT('',(19.9334903902349,-42.7227131883532,-6.00000000000001));
#1521=CARTESIAN_POINT('',(20.0873365440811,-42.525656442854,-6.00000000000001));
#1522=CARTESIAN_POINT('',(22.0873365440827,-39.9639187513621,-6.00000000000001));
#1523=CARTESIAN_POINT('',(19.9334903902349,-42.7227131883532,-3.50000000000001));
#1524=CARTESIAN_POINT('',(19.9334903902349,-42.7227131883532,-3.50000000000001));
#1525=CARTESIAN_POINT('',(19.9334903902349,-42.7227131883532,-3.50000000000001));
#1526=CARTESIAN_POINT('',(19.9334903902349,-42.7227131883532,-3.50000000000001));
#1527=CARTESIAN_POINT('',(20.0873365440811,-42.525656442854,-3.50000000000001));
#1528=CARTESIAN_POINT('',(20.0873365440811,-42.525656442854,-3.50000000000001));
#1529=CARTESIAN_POINT('',(22.0873365440827,-39.9639187513621,-3.50000000000001));
#1530=CARTESIAN_POINT('',(22.0873365440827,-39.9639187513621,-3.50000000000001));
#1531=CARTESIAN_POINT('',(22.0873365440827,-39.9639187513621,-3.50000000000001));
#1532=CARTESIAN_POINT('',(22.0873365440827,-39.9639187513621,-3.50000000000001));
#1533=CARTESIAN_POINT('',(22.0873365440827,-39.9639187513621,-3.50000000000001));
#1534=CARTESIAN_POINT('',(19.9334903902349,-42.7227131883532,3.50000000000001));
#1535=CARTESIAN_POINT('',(20.0873365440811,-42.525656442854,3.50000000000001));
#1536=CARTESIAN_POINT('',(20.0873365440811,-42.525656442854,3.50000000000001));
#1537=CARTESIAN_POINT('',(19.9334903902349,-42.7227131883532,3.50000000000001));
#1538=CARTESIAN_POINT('',(19.9334903902349,-42.7227131883532,3.50000000000001));
#1539=CARTESIAN_POINT('',(19.9334903902349,-42.7227131883532,3.50000000000001));
#1540=CARTESIAN_POINT('',(22.0873365440827,-39.9639187513621,3.50000000000002));
#1541=CARTESIAN_POINT('',(22.0873365440827,-39.9639187513621,3.50000000000002));
#1542=CARTESIAN_POINT('',(22.0873365440827,-39.9639187513621,3.50000000000002));
#1543=CARTESIAN_POINT('',(22.0873365440827,-39.9639187513621,3.50000000000002));
#1544=CARTESIAN_POINT('',(22.0873365440827,-39.9639187513621,3.50000000000002));
#1545=CARTESIAN_POINT('',(-19.9334903902349,-42.7227131883532,-3.50000000000001));
#1546=CARTESIAN_POINT('',(-20.0873365440811,-42.525656442854,-3.50000000000001));
#1547=CARTESIAN_POINT('',(-20.0873365440811,-42.525656442854,-3.50000000000001));
#1548=CARTESIAN_POINT('',(-19.9334903902349,-42.7227131883532,-3.50000000000001));
#1549=CARTESIAN_POINT('',(-19.9334903902349,-42.7227131883532,-3.50000000000001));
#1550=CARTESIAN_POINT('',(-19.9334903902349,-42.7227131883532,-3.50000000000001));
#1551=CARTESIAN_POINT('',(-22.0873365440827,-39.9639187513621,-3.50000000000001));
#1552=CARTESIAN_POINT('',(-22.0873365440827,-39.9639187513621,-3.50000000000001));
#1553=CARTESIAN_POINT('',(-22.0873365440827,-39.9639187513621,-3.50000000000001));
#1554=CARTESIAN_POINT('',(-22.0873365440827,-39.9639187513621,-3.50000000000001));
#1555=CARTESIAN_POINT('',(-22.0873365440827,-39.9639187513621,-3.50000000000001));
#1556=CARTESIAN_POINT('',(-19.9334903902349,-42.7227131883532,3.50000000000001));
#1557=CARTESIAN_POINT('',(-19.9334903902349,-42.7227131883532,3.50000000000001));
#1558=CARTESIAN_POINT('',(-19.9334903902349,-42.7227131883532,3.50000000000001));
#1559=CARTESIAN_POINT('',(-19.9334903902349,-42.7227131883532,3.50000000000001));
#1560=CARTESIAN_POINT('',(-20.0873365440811,-42.525656442854,3.50000000000001));
#1561=CARTESIAN_POINT('',(-20.0873365440811,-42.525656442854,3.50000000000001));
#1562=CARTESIAN_POINT('',(-22.0873365440827,-39.9639187513621,3.50000000000002));
#1563=CARTESIAN_POINT('',(-22.0873365440827,-39.9639187513621,3.50000000000002));
#1564=CARTESIAN_POINT('',(-22.0873365440827,-39.9639187513621,3.50000000000002));
#1565=CARTESIAN_POINT('',(-22.0873365440827,-39.9639187513621,3.50000000000002));
#1566=CARTESIAN_POINT('',(-22.0873365440827,-39.9639187513621,3.50000000000002));
#1567=MECHANICAL_DESIGN_GEOMETRIC_PRESENTATION_REPRESENTATION('',(#894),
#1568);
#1568=(
GEOMETRIC_REPRESENTATION_CONTEXT(3)
GLOBAL_UNCERTAINTY_ASSIGNED_CONTEXT((#1569))
GLOBAL_UNIT_ASSIGNED_CONTEXT((#1572,#1571,#1570))
REPRESENTATION_CONTEXT('H02','TOP_LEVEL_ASSEMBLY_PART')
);
#1569=UNCERTAINTY_MEASURE_WITH_UNIT(LENGTH_MEASURE(0.005),#1572,
'DISTANCE_ACCURACY_VALUE','Maximum Tolerance applied to model');
#1570=(
NAMED_UNIT(*)
SI_UNIT($,.STERADIAN.)
SOLID_ANGLE_UNIT()
);
#1571=(
NAMED_UNIT(*)
PLANE_ANGLE_UNIT()
SI_UNIT($,.RADIAN.)
);
#1572=(
LENGTH_UNIT()
NAMED_UNIT(*)
SI_UNIT(.MILLI.,.METRE.)
);
#1573=PRODUCT_DEFINITION_SHAPE('','',#1574);
#1574=PRODUCT_DEFINITION('','',#1576,#1575);
#1575=PRODUCT_DEFINITION_CONTEXT('',#1582,'design');
#1576=PRODUCT_DEFINITION_FORMATION_WITH_SPECIFIED_SOURCE('','',#1578,
 .NOT_KNOWN.);
#1577=PRODUCT_RELATED_PRODUCT_CATEGORY('','',(#1578));
#1578=PRODUCT('H02','H02','H02',(#1580));
#1579=PRODUCT_CATEGORY('','');
#1580=PRODUCT_CONTEXT('',#1582,'mechanical');
#1581=APPLICATION_PROTOCOL_DEFINITION('international standard',
'ap242_managed_model_based_3d_engineering',2020,#1582);
#1582=APPLICATION_CONTEXT('managed model based 3d engineering');
ENDSEC;
END-ISO-10303-21;
