ISO-10303-21;
HEADER;
/* Generated by software containing ST-Developer
 * from STEP Tools, Inc. (www.steptools.com) 
 */
/* OPTION: using custom renumber hook */

FILE_DESCRIPTION(
/* description */ (
'CAx-IF Rec.Pracs.---Representation and Presentation of Product Manufa
cturing Information (PMI)---4.0---2014-10-13',
'CAx-IF Rec.Pracs.---3D Tessellated Geometry---0.4---2014-09-14','2;1'),

/* implementation_level */ '2;1');

FILE_NAME(
/* name */ 'H05',
/* time_stamp */ '2026-04-13T01:14:50+03:00',
/* author */ (''),
/* organization */ (''),
/* preprocessor_version */ 'ST-DEVELOPER v18.102',
/* originating_system */ 'SIEMENS PLM Software NX2206.9140',
/* authorisation */ $);

FILE_SCHEMA (('AP242_MANAGED_MODEL_BASED_3D_ENGINEERING_MIM_LF { 1 0 10303 442 3 1 4 }'));
ENDSEC;

DATA;
#10=SHAPE_REPRESENTATION_RELATIONSHIP('','',#1053,#11);
#11=ADVANCED_BREP_SHAPE_REPRESENTATION('',(#1051),#1786);
#12=ELLIPSE('',#1097,1.20014208343282,1.2);
#13=ELLIPSE('',#1156,1.20030841780235,1.2);
#14=B_SPLINE_CURVE_WITH_KNOTS('',3,(#1618,#1619,#1620,#1621),
 .UNSPECIFIED.,.F.,.F.,(4,4),(0.,1.),.UNSPECIFIED.);
#15=CYLINDRICAL_SURFACE('',#1085,13.3426540162223);
#16=CYLINDRICAL_SURFACE('',#1088,3.3009298608241);
#17=CYLINDRICAL_SURFACE('',#1090,8.50000000000007);
#18=CYLINDRICAL_SURFACE('',#1092,5.6);
#19=CYLINDRICAL_SURFACE('',#1098,3.10345202195632);
#20=CYLINDRICAL_SURFACE('',#1102,13.3426540162223);
#21=CYLINDRICAL_SURFACE('',#1105,3.3009298608241);
#22=CYLINDRICAL_SURFACE('',#1107,8.50000000000007);
#23=CYLINDRICAL_SURFACE('',#1109,5.6);
#24=CYLINDRICAL_SURFACE('',#1112,5.10000000000001);
#25=CYLINDRICAL_SURFACE('',#1114,2.85);
#26=CYLINDRICAL_SURFACE('',#1116,1.52402716776998);
#27=CYLINDRICAL_SURFACE('',#1117,4.8);
#28=CYLINDRICAL_SURFACE('',#1121,4.8);
#29=CYLINDRICAL_SURFACE('',#1122,3.0281608825005);
#30=CYLINDRICAL_SURFACE('',#1124,9.19830117250082);
#31=CYLINDRICAL_SURFACE('',#1126,1.48030735709537);
#32=CYLINDRICAL_SURFACE('',#1128,2.9);
#33=CYLINDRICAL_SURFACE('',#1130,2.40844061848075);
#34=CYLINDRICAL_SURFACE('',#1134,15.3426540162221);
#35=CYLINDRICAL_SURFACE('',#1138,1.30092986082409);
#36=CYLINDRICAL_SURFACE('',#1141,10.5);
#37=CYLINDRICAL_SURFACE('',#1144,7.6);
#38=CYLINDRICAL_SURFACE('',#1148,1.5);
#39=CYLINDRICAL_SURFACE('',#1158,1.2);
#40=LINE('',#1478,#139);
#41=LINE('',#1483,#140);
#42=LINE('',#1487,#141);
#43=LINE('',#1493,#142);
#44=LINE('',#1495,#143);
#45=LINE('',#1497,#144);
#46=LINE('',#1503,#145);
#47=LINE('',#1507,#146);
#48=LINE('',#1511,#147);
#49=LINE('',#1519,#148);
#50=LINE('',#1523,#149);
#51=LINE('',#1527,#150);
#52=LINE('',#1531,#151);
#53=LINE('',#1534,#152);
#54=LINE('',#1538,#153);
#55=LINE('',#1542,#154);
#56=LINE('',#1550,#155);
#57=LINE('',#1554,#156);
#58=LINE('',#1558,#157);
#59=LINE('',#1564,#158);
#60=LINE('',#1566,#159);
#61=LINE('',#1568,#160);
#62=LINE('',#1574,#161);
#63=LINE('',#1578,#162);
#64=LINE('',#1582,#163);
#65=LINE('',#1584,#164);
#66=LINE('',#1586,#165);
#67=LINE('',#1590,#166);
#68=LINE('',#1592,#167);
#69=LINE('',#1594,#168);
#70=LINE('',#1596,#169);
#71=LINE('',#1600,#170);
#72=LINE('',#1604,#171);
#73=LINE('',#1608,#172);
#74=LINE('',#1610,#173);
#75=LINE('',#1612,#174);
#76=LINE('',#1614,#175);
#77=LINE('',#1616,#176);
#78=LINE('',#1623,#177);
#79=LINE('',#1626,#178);
#80=LINE('',#1629,#179);
#81=LINE('',#1633,#180);
#82=LINE('',#1634,#181);
#83=LINE('',#1635,#182);
#84=LINE('',#1639,#183);
#85=LINE('',#1642,#184);
#86=LINE('',#1643,#185);
#87=LINE('',#1645,#186);
#88=LINE('',#1649,#187);
#89=LINE('',#1651,#188);
#90=LINE('',#1653,#189);
#91=LINE('',#1657,#190);
#92=LINE('',#1661,#191);
#93=LINE('',#1665,#192);
#94=LINE('',#1667,#193);
#95=LINE('',#1669,#194);
#96=LINE('',#1671,#195);
#97=LINE('',#1672,#196);
#98=LINE('',#1674,#197);
#99=LINE('',#1676,#198);
#100=LINE('',#1678,#199);
#101=LINE('',#1680,#200);
#102=LINE('',#1682,#201);
#103=LINE('',#1684,#202);
#104=LINE('',#1686,#203);
#105=LINE('',#1688,#204);
#106=LINE('',#1690,#205);
#107=LINE('',#1692,#206);
#108=LINE('',#1694,#207);
#109=LINE('',#1696,#208);
#110=LINE('',#1698,#209);
#111=LINE('',#1700,#210);
#112=LINE('',#1702,#211);
#113=LINE('',#1704,#212);
#114=LINE('',#1707,#213);
#115=LINE('',#1709,#214);
#116=LINE('',#1711,#215);
#117=LINE('',#1717,#216);
#118=LINE('',#1719,#217);
#119=LINE('',#1721,#218);
#120=LINE('',#1723,#219);
#121=LINE('',#1729,#220);
#122=LINE('',#1731,#221);
#123=LINE('',#1733,#222);
#124=LINE('',#1735,#223);
#125=LINE('',#1741,#224);
#126=LINE('',#1747,#225);
#127=LINE('',#1753,#226);
#128=LINE('',#1755,#227);
#129=LINE('',#1757,#228);
#130=LINE('',#1759,#229);
#131=LINE('',#1765,#230);
#132=LINE('',#1767,#231);
#133=LINE('',#1768,#232);
#134=LINE('',#1772,#233);
#135=LINE('',#1775,#234);
#136=LINE('',#1776,#235);
#137=LINE('',#1779,#236);
#138=LINE('',#1783,#237);
#139=VECTOR('',#1167,1000.);
#140=VECTOR('',#1170,1000.);
#141=VECTOR('',#1173,1000.);
#142=VECTOR('',#1178,1000.);
#143=VECTOR('',#1179,1000.);
#144=VECTOR('',#1180,1000.);
#145=VECTOR('',#1185,1000.);
#146=VECTOR('',#1188,1000.);
#147=VECTOR('',#1191,1000.);
#148=VECTOR('',#1198,1000.);
#149=VECTOR('',#1201,1000.);
#150=VECTOR('',#1204,1000.);
#151=VECTOR('',#1209,1000.);
#152=VECTOR('',#1210,1000.);
#153=VECTOR('',#1213,1000.);
#154=VECTOR('',#1216,1000.);
#155=VECTOR('',#1223,1000.);
#156=VECTOR('',#1226,1000.);
#157=VECTOR('',#1229,1000.);
#158=VECTOR('',#1234,1000.);
#159=VECTOR('',#1235,1000.);
#160=VECTOR('',#1236,1000.);
#161=VECTOR('',#1241,1000.);
#162=VECTOR('',#1244,1000.);
#163=VECTOR('',#1247,1000.);
#164=VECTOR('',#1248,1000.);
#165=VECTOR('',#1251,1000.);
#166=VECTOR('',#1254,1000.);
#167=VECTOR('',#1257,1000.);
#168=VECTOR('',#1258,1000.);
#169=VECTOR('',#1261,1000.);
#170=VECTOR('',#1266,1000.);
#171=VECTOR('',#1271,1000.);
#172=VECTOR('',#1276,1000.);
#173=VECTOR('',#1277,1000.);
#174=VECTOR('',#1280,1000.);
#175=VECTOR('',#1281,1000.);
#176=VECTOR('',#1282,1000.);
#177=VECTOR('',#1285,1000.);
#178=VECTOR('',#1286,1000.);
#179=VECTOR('',#1289,1000.);
#180=VECTOR('',#1294,1000.);
#181=VECTOR('',#1295,1000.);
#182=VECTOR('',#1296,1000.);
#183=VECTOR('',#1301,1000.);
#184=VECTOR('',#1302,1000.);
#185=VECTOR('',#1303,1000.);
#186=VECTOR('',#1304,1000.);
#187=VECTOR('',#1309,1000.);
#188=VECTOR('',#1312,1000.);
#189=VECTOR('',#1313,1000.);
#190=VECTOR('',#1318,1000.);
#191=VECTOR('',#1323,1000.);
#192=VECTOR('',#1328,1000.);
#193=VECTOR('',#1331,1000.);
#194=VECTOR('',#1332,1000.);
#195=VECTOR('',#1335,1000.);
#196=VECTOR('',#1336,1000.);
#197=VECTOR('',#1339,1000.);
#198=VECTOR('',#1342,1000.);
#199=VECTOR('',#1345,1000.);
#200=VECTOR('',#1348,1000.);
#201=VECTOR('',#1351,1000.);
#202=VECTOR('',#1354,1000.);
#203=VECTOR('',#1357,1000.);
#204=VECTOR('',#1360,1000.);
#205=VECTOR('',#1363,1000.);
#206=VECTOR('',#1366,1000.);
#207=VECTOR('',#1369,1000.);
#208=VECTOR('',#1372,1000.);
#209=VECTOR('',#1375,1000.);
#210=VECTOR('',#1378,1000.);
#211=VECTOR('',#1381,1000.);
#212=VECTOR('',#1382,1000.);
#213=VECTOR('',#1387,1000.);
#214=VECTOR('',#1388,1000.);
#215=VECTOR('',#1389,1000.);
#216=VECTOR('',#1396,1000.);
#217=VECTOR('',#1399,1000.);
#218=VECTOR('',#1400,1000.);
#219=VECTOR('',#1401,1000.);
#220=VECTOR('',#1408,1000.);
#221=VECTOR('',#1411,1000.);
#222=VECTOR('',#1412,1000.);
#223=VECTOR('',#1413,1000.);
#224=VECTOR('',#1420,1000.);
#225=VECTOR('',#1427,1000.);
#226=VECTOR('',#1434,1000.);
#227=VECTOR('',#1437,1000.);
#228=VECTOR('',#1438,1000.);
#229=VECTOR('',#1439,1000.);
#230=VECTOR('',#1446,1000.);
#231=VECTOR('',#1449,1000.);
#232=VECTOR('',#1450,1000.);
#233=VECTOR('',#1457,1000.);
#234=VECTOR('',#1458,1000.);
#235=VECTOR('',#1459,1000.);
#236=VECTOR('',#1464,1000.);
#237=VECTOR('',#1471,1000.);
#238=ORIENTED_EDGE('',*,*,#542,.T.);
#239=ORIENTED_EDGE('',*,*,#543,.F.);
#240=ORIENTED_EDGE('',*,*,#544,.F.);
#241=ORIENTED_EDGE('',*,*,#545,.F.);
#242=ORIENTED_EDGE('',*,*,#546,.F.);
#243=ORIENTED_EDGE('',*,*,#547,.F.);
#244=ORIENTED_EDGE('',*,*,#548,.F.);
#245=ORIENTED_EDGE('',*,*,#549,.F.);
#246=ORIENTED_EDGE('',*,*,#550,.F.);
#247=ORIENTED_EDGE('',*,*,#551,.F.);
#248=ORIENTED_EDGE('',*,*,#552,.F.);
#249=ORIENTED_EDGE('',*,*,#553,.F.);
#250=ORIENTED_EDGE('',*,*,#554,.F.);
#251=ORIENTED_EDGE('',*,*,#555,.F.);
#252=ORIENTED_EDGE('',*,*,#556,.F.);
#253=ORIENTED_EDGE('',*,*,#557,.F.);
#254=ORIENTED_EDGE('',*,*,#558,.F.);
#255=ORIENTED_EDGE('',*,*,#559,.F.);
#256=ORIENTED_EDGE('',*,*,#560,.F.);
#257=ORIENTED_EDGE('',*,*,#561,.F.);
#258=ORIENTED_EDGE('',*,*,#562,.F.);
#259=ORIENTED_EDGE('',*,*,#563,.F.);
#260=ORIENTED_EDGE('',*,*,#564,.F.);
#261=ORIENTED_EDGE('',*,*,#565,.F.);
#262=ORIENTED_EDGE('',*,*,#566,.F.);
#263=ORIENTED_EDGE('',*,*,#567,.F.);
#264=ORIENTED_EDGE('',*,*,#568,.F.);
#265=ORIENTED_EDGE('',*,*,#569,.T.);
#266=ORIENTED_EDGE('',*,*,#570,.T.);
#267=ORIENTED_EDGE('',*,*,#571,.T.);
#268=ORIENTED_EDGE('',*,*,#572,.T.);
#269=ORIENTED_EDGE('',*,*,#573,.T.);
#270=ORIENTED_EDGE('',*,*,#574,.T.);
#271=ORIENTED_EDGE('',*,*,#575,.T.);
#272=ORIENTED_EDGE('',*,*,#576,.T.);
#273=ORIENTED_EDGE('',*,*,#577,.T.);
#274=ORIENTED_EDGE('',*,*,#578,.T.);
#275=ORIENTED_EDGE('',*,*,#579,.T.);
#276=ORIENTED_EDGE('',*,*,#580,.T.);
#277=ORIENTED_EDGE('',*,*,#581,.T.);
#278=ORIENTED_EDGE('',*,*,#582,.T.);
#279=ORIENTED_EDGE('',*,*,#583,.T.);
#280=ORIENTED_EDGE('',*,*,#584,.T.);
#281=ORIENTED_EDGE('',*,*,#585,.T.);
#282=ORIENTED_EDGE('',*,*,#586,.T.);
#283=ORIENTED_EDGE('',*,*,#587,.T.);
#284=ORIENTED_EDGE('',*,*,#588,.T.);
#285=ORIENTED_EDGE('',*,*,#589,.T.);
#286=ORIENTED_EDGE('',*,*,#590,.T.);
#287=ORIENTED_EDGE('',*,*,#591,.T.);
#288=ORIENTED_EDGE('',*,*,#592,.T.);
#289=ORIENTED_EDGE('',*,*,#593,.T.);
#290=ORIENTED_EDGE('',*,*,#594,.T.);
#291=ORIENTED_EDGE('',*,*,#595,.T.);
#292=ORIENTED_EDGE('',*,*,#596,.T.);
#293=ORIENTED_EDGE('',*,*,#597,.T.);
#294=ORIENTED_EDGE('',*,*,#598,.F.);
#295=ORIENTED_EDGE('',*,*,#564,.T.);
#296=ORIENTED_EDGE('',*,*,#599,.T.);
#297=ORIENTED_EDGE('',*,*,#600,.T.);
#298=ORIENTED_EDGE('',*,*,#596,.F.);
#299=ORIENTED_EDGE('',*,*,#563,.T.);
#300=ORIENTED_EDGE('',*,*,#601,.T.);
#301=ORIENTED_EDGE('',*,*,#602,.T.);
#302=ORIENTED_EDGE('',*,*,#599,.F.);
#303=ORIENTED_EDGE('',*,*,#562,.T.);
#304=ORIENTED_EDGE('',*,*,#603,.T.);
#305=ORIENTED_EDGE('',*,*,#604,.T.);
#306=ORIENTED_EDGE('',*,*,#601,.F.);
#307=ORIENTED_EDGE('',*,*,#561,.T.);
#308=ORIENTED_EDGE('',*,*,#605,.T.);
#309=ORIENTED_EDGE('',*,*,#606,.T.);
#310=ORIENTED_EDGE('',*,*,#603,.F.);
#311=ORIENTED_EDGE('',*,*,#560,.T.);
#312=ORIENTED_EDGE('',*,*,#607,.T.);
#313=ORIENTED_EDGE('',*,*,#608,.T.);
#314=ORIENTED_EDGE('',*,*,#605,.F.);
#315=ORIENTED_EDGE('',*,*,#559,.T.);
#316=ORIENTED_EDGE('',*,*,#609,.F.);
#317=ORIENTED_EDGE('',*,*,#610,.T.);
#318=ORIENTED_EDGE('',*,*,#611,.T.);
#319=ORIENTED_EDGE('',*,*,#612,.F.);
#320=ORIENTED_EDGE('',*,*,#595,.F.);
#321=ORIENTED_EDGE('',*,*,#613,.T.);
#322=ORIENTED_EDGE('',*,*,#614,.F.);
#323=ORIENTED_EDGE('',*,*,#615,.T.);
#324=ORIENTED_EDGE('',*,*,#611,.F.);
#325=ORIENTED_EDGE('',*,*,#616,.T.);
#326=ORIENTED_EDGE('',*,*,#613,.F.);
#327=ORIENTED_EDGE('',*,*,#617,.T.);
#328=ORIENTED_EDGE('',*,*,#618,.F.);
#329=ORIENTED_EDGE('',*,*,#566,.T.);
#330=ORIENTED_EDGE('',*,*,#619,.T.);
#331=ORIENTED_EDGE('',*,*,#571,.F.);
#332=ORIENTED_EDGE('',*,*,#620,.F.);
#333=ORIENTED_EDGE('',*,*,#621,.F.);
#334=ORIENTED_EDGE('',*,*,#622,.F.);
#335=ORIENTED_EDGE('',*,*,#623,.T.);
#336=ORIENTED_EDGE('',*,*,#572,.F.);
#337=ORIENTED_EDGE('',*,*,#619,.F.);
#338=ORIENTED_EDGE('',*,*,#565,.T.);
#339=ORIENTED_EDGE('',*,*,#598,.T.);
#340=ORIENTED_EDGE('',*,*,#624,.T.);
#341=ORIENTED_EDGE('',*,*,#625,.T.);
#342=ORIENTED_EDGE('',*,*,#626,.F.);
#343=ORIENTED_EDGE('',*,*,#627,.T.);
#344=ORIENTED_EDGE('',*,*,#573,.F.);
#345=ORIENTED_EDGE('',*,*,#623,.F.);
#346=ORIENTED_EDGE('',*,*,#628,.F.);
#347=ORIENTED_EDGE('',*,*,#629,.T.);
#348=ORIENTED_EDGE('',*,*,#574,.F.);
#349=ORIENTED_EDGE('',*,*,#627,.F.);
#350=ORIENTED_EDGE('',*,*,#630,.F.);
#351=ORIENTED_EDGE('',*,*,#631,.T.);
#352=ORIENTED_EDGE('',*,*,#575,.F.);
#353=ORIENTED_EDGE('',*,*,#629,.F.);
#354=ORIENTED_EDGE('',*,*,#632,.F.);
#355=ORIENTED_EDGE('',*,*,#633,.T.);
#356=ORIENTED_EDGE('',*,*,#576,.F.);
#357=ORIENTED_EDGE('',*,*,#631,.F.);
#358=ORIENTED_EDGE('',*,*,#634,.F.);
#359=ORIENTED_EDGE('',*,*,#635,.T.);
#360=ORIENTED_EDGE('',*,*,#577,.F.);
#361=ORIENTED_EDGE('',*,*,#633,.F.);
#362=ORIENTED_EDGE('',*,*,#636,.F.);
#363=ORIENTED_EDGE('',*,*,#637,.T.);
#364=ORIENTED_EDGE('',*,*,#578,.F.);
#365=ORIENTED_EDGE('',*,*,#635,.F.);
#366=ORIENTED_EDGE('',*,*,#579,.F.);
#367=ORIENTED_EDGE('',*,*,#637,.F.);
#368=ORIENTED_EDGE('',*,*,#638,.F.);
#369=ORIENTED_EDGE('',*,*,#607,.F.);
#370=ORIENTED_EDGE('',*,*,#558,.T.);
#371=ORIENTED_EDGE('',*,*,#639,.T.);
#372=ORIENTED_EDGE('',*,*,#580,.F.);
#373=ORIENTED_EDGE('',*,*,#639,.F.);
#374=ORIENTED_EDGE('',*,*,#557,.T.);
#375=ORIENTED_EDGE('',*,*,#640,.T.);
#376=ORIENTED_EDGE('',*,*,#581,.F.);
#377=ORIENTED_EDGE('',*,*,#640,.F.);
#378=ORIENTED_EDGE('',*,*,#556,.T.);
#379=ORIENTED_EDGE('',*,*,#641,.T.);
#380=ORIENTED_EDGE('',*,*,#582,.F.);
#381=ORIENTED_EDGE('',*,*,#641,.F.);
#382=ORIENTED_EDGE('',*,*,#555,.T.);
#383=ORIENTED_EDGE('',*,*,#642,.T.);
#384=ORIENTED_EDGE('',*,*,#583,.F.);
#385=ORIENTED_EDGE('',*,*,#642,.F.);
#386=ORIENTED_EDGE('',*,*,#554,.T.);
#387=ORIENTED_EDGE('',*,*,#643,.T.);
#388=ORIENTED_EDGE('',*,*,#584,.F.);
#389=ORIENTED_EDGE('',*,*,#643,.F.);
#390=ORIENTED_EDGE('',*,*,#553,.T.);
#391=ORIENTED_EDGE('',*,*,#644,.T.);
#392=ORIENTED_EDGE('',*,*,#585,.F.);
#393=ORIENTED_EDGE('',*,*,#644,.F.);
#394=ORIENTED_EDGE('',*,*,#552,.T.);
#395=ORIENTED_EDGE('',*,*,#645,.T.);
#396=ORIENTED_EDGE('',*,*,#586,.F.);
#397=ORIENTED_EDGE('',*,*,#645,.F.);
#398=ORIENTED_EDGE('',*,*,#551,.T.);
#399=ORIENTED_EDGE('',*,*,#646,.T.);
#400=ORIENTED_EDGE('',*,*,#587,.F.);
#401=ORIENTED_EDGE('',*,*,#646,.F.);
#402=ORIENTED_EDGE('',*,*,#550,.T.);
#403=ORIENTED_EDGE('',*,*,#647,.T.);
#404=ORIENTED_EDGE('',*,*,#588,.F.);
#405=ORIENTED_EDGE('',*,*,#647,.F.);
#406=ORIENTED_EDGE('',*,*,#549,.T.);
#407=ORIENTED_EDGE('',*,*,#648,.T.);
#408=ORIENTED_EDGE('',*,*,#589,.F.);
#409=ORIENTED_EDGE('',*,*,#648,.F.);
#410=ORIENTED_EDGE('',*,*,#548,.T.);
#411=ORIENTED_EDGE('',*,*,#649,.T.);
#412=ORIENTED_EDGE('',*,*,#590,.F.);
#413=ORIENTED_EDGE('',*,*,#649,.F.);
#414=ORIENTED_EDGE('',*,*,#547,.T.);
#415=ORIENTED_EDGE('',*,*,#650,.T.);
#416=ORIENTED_EDGE('',*,*,#591,.F.);
#417=ORIENTED_EDGE('',*,*,#650,.F.);
#418=ORIENTED_EDGE('',*,*,#546,.T.);
#419=ORIENTED_EDGE('',*,*,#651,.T.);
#420=ORIENTED_EDGE('',*,*,#592,.F.);
#421=ORIENTED_EDGE('',*,*,#651,.F.);
#422=ORIENTED_EDGE('',*,*,#545,.T.);
#423=ORIENTED_EDGE('',*,*,#652,.T.);
#424=ORIENTED_EDGE('',*,*,#593,.F.);
#425=ORIENTED_EDGE('',*,*,#652,.F.);
#426=ORIENTED_EDGE('',*,*,#544,.T.);
#427=ORIENTED_EDGE('',*,*,#653,.T.);
#428=ORIENTED_EDGE('',*,*,#594,.F.);
#429=ORIENTED_EDGE('',*,*,#653,.F.);
#430=ORIENTED_EDGE('',*,*,#543,.T.);
#431=ORIENTED_EDGE('',*,*,#654,.T.);
#432=ORIENTED_EDGE('',*,*,#655,.T.);
#433=ORIENTED_EDGE('',*,*,#609,.T.);
#434=ORIENTED_EDGE('',*,*,#542,.F.);
#435=ORIENTED_EDGE('',*,*,#568,.T.);
#436=ORIENTED_EDGE('',*,*,#656,.F.);
#437=ORIENTED_EDGE('',*,*,#625,.F.);
#438=ORIENTED_EDGE('',*,*,#657,.T.);
#439=ORIENTED_EDGE('',*,*,#658,.T.);
#440=ORIENTED_EDGE('',*,*,#659,.F.);
#441=ORIENTED_EDGE('',*,*,#658,.F.);
#442=ORIENTED_EDGE('',*,*,#660,.T.);
#443=ORIENTED_EDGE('',*,*,#661,.T.);
#444=ORIENTED_EDGE('',*,*,#662,.F.);
#445=ORIENTED_EDGE('',*,*,#661,.F.);
#446=ORIENTED_EDGE('',*,*,#663,.T.);
#447=ORIENTED_EDGE('',*,*,#664,.T.);
#448=ORIENTED_EDGE('',*,*,#665,.F.);
#449=ORIENTED_EDGE('',*,*,#664,.F.);
#450=ORIENTED_EDGE('',*,*,#666,.T.);
#451=ORIENTED_EDGE('',*,*,#667,.T.);
#452=ORIENTED_EDGE('',*,*,#668,.F.);
#453=ORIENTED_EDGE('',*,*,#667,.F.);
#454=ORIENTED_EDGE('',*,*,#669,.T.);
#455=ORIENTED_EDGE('',*,*,#670,.T.);
#456=ORIENTED_EDGE('',*,*,#671,.F.);
#457=ORIENTED_EDGE('',*,*,#670,.F.);
#458=ORIENTED_EDGE('',*,*,#672,.T.);
#459=ORIENTED_EDGE('',*,*,#673,.T.);
#460=ORIENTED_EDGE('',*,*,#674,.F.);
#461=ORIENTED_EDGE('',*,*,#673,.F.);
#462=ORIENTED_EDGE('',*,*,#675,.T.);
#463=ORIENTED_EDGE('',*,*,#676,.T.);
#464=ORIENTED_EDGE('',*,*,#677,.F.);
#465=ORIENTED_EDGE('',*,*,#676,.F.);
#466=ORIENTED_EDGE('',*,*,#678,.T.);
#467=ORIENTED_EDGE('',*,*,#679,.T.);
#468=ORIENTED_EDGE('',*,*,#680,.F.);
#469=ORIENTED_EDGE('',*,*,#679,.F.);
#470=ORIENTED_EDGE('',*,*,#681,.T.);
#471=ORIENTED_EDGE('',*,*,#682,.T.);
#472=ORIENTED_EDGE('',*,*,#683,.F.);
#473=ORIENTED_EDGE('',*,*,#682,.F.);
#474=ORIENTED_EDGE('',*,*,#684,.T.);
#475=ORIENTED_EDGE('',*,*,#685,.T.);
#476=ORIENTED_EDGE('',*,*,#686,.F.);
#477=ORIENTED_EDGE('',*,*,#685,.F.);
#478=ORIENTED_EDGE('',*,*,#687,.T.);
#479=ORIENTED_EDGE('',*,*,#638,.T.);
#480=ORIENTED_EDGE('',*,*,#657,.F.);
#481=ORIENTED_EDGE('',*,*,#624,.F.);
#482=ORIENTED_EDGE('',*,*,#597,.F.);
#483=ORIENTED_EDGE('',*,*,#600,.F.);
#484=ORIENTED_EDGE('',*,*,#602,.F.);
#485=ORIENTED_EDGE('',*,*,#604,.F.);
#486=ORIENTED_EDGE('',*,*,#606,.F.);
#487=ORIENTED_EDGE('',*,*,#608,.F.);
#488=ORIENTED_EDGE('',*,*,#687,.F.);
#489=ORIENTED_EDGE('',*,*,#684,.F.);
#490=ORIENTED_EDGE('',*,*,#681,.F.);
#491=ORIENTED_EDGE('',*,*,#678,.F.);
#492=ORIENTED_EDGE('',*,*,#675,.F.);
#493=ORIENTED_EDGE('',*,*,#672,.F.);
#494=ORIENTED_EDGE('',*,*,#669,.F.);
#495=ORIENTED_EDGE('',*,*,#666,.F.);
#496=ORIENTED_EDGE('',*,*,#663,.F.);
#497=ORIENTED_EDGE('',*,*,#660,.F.);
#498=ORIENTED_EDGE('',*,*,#656,.T.);
#499=ORIENTED_EDGE('',*,*,#659,.T.);
#500=ORIENTED_EDGE('',*,*,#662,.T.);
#501=ORIENTED_EDGE('',*,*,#665,.T.);
#502=ORIENTED_EDGE('',*,*,#668,.T.);
#503=ORIENTED_EDGE('',*,*,#671,.T.);
#504=ORIENTED_EDGE('',*,*,#674,.T.);
#505=ORIENTED_EDGE('',*,*,#677,.T.);
#506=ORIENTED_EDGE('',*,*,#680,.T.);
#507=ORIENTED_EDGE('',*,*,#683,.T.);
#508=ORIENTED_EDGE('',*,*,#686,.T.);
#509=ORIENTED_EDGE('',*,*,#636,.T.);
#510=ORIENTED_EDGE('',*,*,#634,.T.);
#511=ORIENTED_EDGE('',*,*,#632,.T.);
#512=ORIENTED_EDGE('',*,*,#630,.T.);
#513=ORIENTED_EDGE('',*,*,#628,.T.);
#514=ORIENTED_EDGE('',*,*,#626,.T.);
#515=ORIENTED_EDGE('',*,*,#622,.T.);
#516=ORIENTED_EDGE('',*,*,#688,.T.);
#517=ORIENTED_EDGE('',*,*,#689,.T.);
#518=ORIENTED_EDGE('',*,*,#614,.T.);
#519=ORIENTED_EDGE('',*,*,#621,.T.);
#520=ORIENTED_EDGE('',*,*,#690,.T.);
#521=ORIENTED_EDGE('',*,*,#569,.F.);
#522=ORIENTED_EDGE('',*,*,#691,.T.);
#523=ORIENTED_EDGE('',*,*,#688,.F.);
#524=ORIENTED_EDGE('',*,*,#692,.T.);
#525=ORIENTED_EDGE('',*,*,#570,.F.);
#526=ORIENTED_EDGE('',*,*,#692,.F.);
#527=ORIENTED_EDGE('',*,*,#690,.F.);
#528=ORIENTED_EDGE('',*,*,#620,.T.);
#529=ORIENTED_EDGE('',*,*,#691,.F.);
#530=ORIENTED_EDGE('',*,*,#612,.T.);
#531=ORIENTED_EDGE('',*,*,#615,.F.);
#532=ORIENTED_EDGE('',*,*,#689,.F.);
#533=ORIENTED_EDGE('',*,*,#567,.T.);
#534=ORIENTED_EDGE('',*,*,#618,.T.);
#535=ORIENTED_EDGE('',*,*,#693,.T.);
#536=ORIENTED_EDGE('',*,*,#654,.F.);
#537=ORIENTED_EDGE('',*,*,#610,.F.);
#538=ORIENTED_EDGE('',*,*,#655,.F.);
#539=ORIENTED_EDGE('',*,*,#693,.F.);
#540=ORIENTED_EDGE('',*,*,#617,.F.);
#541=ORIENTED_EDGE('',*,*,#616,.F.);
#542=EDGE_CURVE('',#694,#694,#795,.T.);
#543=EDGE_CURVE('',#695,#696,#40,.F.);
#544=EDGE_CURVE('',#697,#695,#796,.T.);
#545=EDGE_CURVE('',#698,#697,#41,.T.);
#546=EDGE_CURVE('',#699,#698,#797,.T.);
#547=EDGE_CURVE('',#700,#699,#42,.T.);
#548=EDGE_CURVE('',#701,#700,#798,.T.);
#549=EDGE_CURVE('',#702,#701,#799,.T.);
#550=EDGE_CURVE('',#703,#702,#43,.T.);
#551=EDGE_CURVE('',#704,#703,#44,.T.);
#552=EDGE_CURVE('',#705,#704,#45,.T.);
#553=EDGE_CURVE('',#706,#705,#800,.T.);
#554=EDGE_CURVE('',#707,#706,#801,.T.);
#555=EDGE_CURVE('',#708,#707,#46,.T.);
#556=EDGE_CURVE('',#709,#708,#802,.T.);
#557=EDGE_CURVE('',#710,#709,#47,.T.);
#558=EDGE_CURVE('',#711,#710,#803,.T.);
#559=EDGE_CURVE('',#712,#711,#48,.T.);
#560=EDGE_CURVE('',#713,#712,#804,.T.);
#561=EDGE_CURVE('',#714,#713,#805,.T.);
#562=EDGE_CURVE('',#715,#714,#806,.T.);
#563=EDGE_CURVE('',#716,#715,#49,.T.);
#564=EDGE_CURVE('',#717,#716,#807,.T.);
#565=EDGE_CURVE('',#718,#717,#50,.T.);
#566=EDGE_CURVE('',#719,#718,#808,.T.);
#567=EDGE_CURVE('',#696,#719,#51,.F.);
#568=EDGE_CURVE('',#720,#720,#809,.T.);
#569=EDGE_CURVE('',#721,#722,#52,.T.);
#570=EDGE_CURVE('',#722,#723,#53,.T.);
#571=EDGE_CURVE('',#723,#724,#810,.T.);
#572=EDGE_CURVE('',#724,#725,#54,.T.);
#573=EDGE_CURVE('',#725,#726,#811,.T.);
#574=EDGE_CURVE('',#726,#727,#55,.T.);
#575=EDGE_CURVE('',#727,#728,#812,.T.);
#576=EDGE_CURVE('',#728,#729,#813,.T.);
#577=EDGE_CURVE('',#729,#730,#814,.T.);
#578=EDGE_CURVE('',#730,#731,#56,.T.);
#579=EDGE_CURVE('',#731,#732,#815,.T.);
#580=EDGE_CURVE('',#732,#733,#57,.T.);
#581=EDGE_CURVE('',#733,#734,#816,.T.);
#582=EDGE_CURVE('',#734,#735,#58,.T.);
#583=EDGE_CURVE('',#735,#736,#817,.T.);
#584=EDGE_CURVE('',#736,#737,#818,.T.);
#585=EDGE_CURVE('',#737,#738,#59,.T.);
#586=EDGE_CURVE('',#738,#739,#60,.T.);
#587=EDGE_CURVE('',#739,#740,#61,.T.);
#588=EDGE_CURVE('',#740,#741,#819,.T.);
#589=EDGE_CURVE('',#741,#742,#820,.T.);
#590=EDGE_CURVE('',#742,#743,#62,.T.);
#591=EDGE_CURVE('',#743,#744,#821,.T.);
#592=EDGE_CURVE('',#744,#745,#63,.T.);
#593=EDGE_CURVE('',#745,#746,#822,.T.);
#594=EDGE_CURVE('',#746,#747,#64,.T.);
#595=EDGE_CURVE('',#747,#721,#65,.F.);
#596=EDGE_CURVE('',#716,#748,#66,.T.);
#597=EDGE_CURVE('',#748,#749,#823,.T.);
#598=EDGE_CURVE('',#717,#749,#67,.T.);
#599=EDGE_CURVE('',#715,#750,#68,.T.);
#600=EDGE_CURVE('',#750,#748,#69,.T.);
#601=EDGE_CURVE('',#714,#751,#70,.T.);
#602=EDGE_CURVE('',#751,#750,#824,.T.);
#603=EDGE_CURVE('',#713,#752,#71,.T.);
#604=EDGE_CURVE('',#752,#751,#825,.T.);
#605=EDGE_CURVE('',#712,#753,#72,.T.);
#606=EDGE_CURVE('',#753,#752,#826,.T.);
#607=EDGE_CURVE('',#711,#754,#73,.T.);
#608=EDGE_CURVE('',#754,#753,#74,.T.);
#609=EDGE_CURVE('',#755,#747,#75,.F.);
#610=EDGE_CURVE('',#755,#756,#76,.T.);
#611=EDGE_CURVE('',#756,#757,#77,.T.);
#612=EDGE_CURVE('',#721,#757,#14,.F.);
#613=EDGE_CURVE('',#758,#759,#78,.T.);
#614=EDGE_CURVE('',#760,#759,#79,.T.);
#615=EDGE_CURVE('',#760,#757,#12,.T.);
#616=EDGE_CURVE('',#756,#758,#80,.T.);
#617=EDGE_CURVE('',#758,#761,#827,.T.);
#618=EDGE_CURVE('',#719,#761,#81,.T.);
#619=EDGE_CURVE('',#718,#724,#82,.T.);
#620=EDGE_CURVE('',#762,#723,#83,.T.);
#621=EDGE_CURVE('',#759,#762,#828,.T.);
#622=EDGE_CURVE('',#763,#764,#84,.T.);
#623=EDGE_CURVE('',#763,#725,#85,.T.);
#624=EDGE_CURVE('',#749,#765,#86,.T.);
#625=EDGE_CURVE('',#765,#764,#87,.T.);
#626=EDGE_CURVE('',#766,#763,#829,.T.);
#627=EDGE_CURVE('',#766,#726,#88,.T.);
#628=EDGE_CURVE('',#767,#766,#89,.T.);
#629=EDGE_CURVE('',#767,#727,#90,.T.);
#630=EDGE_CURVE('',#768,#767,#830,.T.);
#631=EDGE_CURVE('',#768,#728,#91,.T.);
#632=EDGE_CURVE('',#769,#768,#831,.T.);
#633=EDGE_CURVE('',#769,#729,#92,.T.);
#634=EDGE_CURVE('',#770,#769,#832,.T.);
#635=EDGE_CURVE('',#770,#730,#93,.T.);
#636=EDGE_CURVE('',#771,#770,#94,.T.);
#637=EDGE_CURVE('',#771,#731,#95,.T.);
#638=EDGE_CURVE('',#754,#771,#96,.T.);
#639=EDGE_CURVE('',#710,#732,#97,.T.);
#640=EDGE_CURVE('',#709,#733,#98,.T.);
#641=EDGE_CURVE('',#708,#734,#99,.T.);
#642=EDGE_CURVE('',#707,#735,#100,.T.);
#643=EDGE_CURVE('',#706,#736,#101,.T.);
#644=EDGE_CURVE('',#705,#737,#102,.T.);
#645=EDGE_CURVE('',#704,#738,#103,.T.);
#646=EDGE_CURVE('',#703,#739,#104,.T.);
#647=EDGE_CURVE('',#702,#740,#105,.T.);
#648=EDGE_CURVE('',#701,#741,#106,.T.);
#649=EDGE_CURVE('',#700,#742,#107,.T.);
#650=EDGE_CURVE('',#699,#743,#108,.T.);
#651=EDGE_CURVE('',#698,#744,#109,.T.);
#652=EDGE_CURVE('',#697,#745,#110,.T.);
#653=EDGE_CURVE('',#695,#746,#111,.T.);
#654=EDGE_CURVE('',#696,#772,#112,.F.);
#655=EDGE_CURVE('',#772,#755,#113,.F.);
#656=EDGE_CURVE('',#764,#773,#114,.T.);
#657=EDGE_CURVE('',#765,#774,#115,.T.);
#658=EDGE_CURVE('',#774,#773,#116,.T.);
#659=EDGE_CURVE('',#773,#775,#833,.T.);
#660=EDGE_CURVE('',#774,#776,#834,.T.);
#661=EDGE_CURVE('',#776,#775,#117,.T.);
#662=EDGE_CURVE('',#775,#777,#118,.T.);
#663=EDGE_CURVE('',#776,#778,#119,.T.);
#664=EDGE_CURVE('',#778,#777,#120,.T.);
#665=EDGE_CURVE('',#777,#779,#835,.T.);
#666=EDGE_CURVE('',#778,#780,#836,.T.);
#667=EDGE_CURVE('',#780,#779,#121,.T.);
#668=EDGE_CURVE('',#779,#781,#122,.T.);
#669=EDGE_CURVE('',#780,#782,#123,.T.);
#670=EDGE_CURVE('',#782,#781,#124,.T.);
#671=EDGE_CURVE('',#781,#783,#837,.T.);
#672=EDGE_CURVE('',#782,#784,#838,.T.);
#673=EDGE_CURVE('',#784,#783,#125,.T.);
#674=EDGE_CURVE('',#783,#785,#839,.T.);
#675=EDGE_CURVE('',#784,#786,#840,.T.);
#676=EDGE_CURVE('',#786,#785,#126,.T.);
#677=EDGE_CURVE('',#785,#787,#841,.T.);
#678=EDGE_CURVE('',#786,#788,#842,.T.);
#679=EDGE_CURVE('',#788,#787,#127,.T.);
#680=EDGE_CURVE('',#787,#789,#128,.T.);
#681=EDGE_CURVE('',#788,#790,#129,.T.);
#682=EDGE_CURVE('',#790,#789,#130,.T.);
#683=EDGE_CURVE('',#789,#791,#843,.T.);
#684=EDGE_CURVE('',#790,#792,#844,.T.);
#685=EDGE_CURVE('',#792,#791,#131,.T.);
#686=EDGE_CURVE('',#791,#771,#132,.T.);
#687=EDGE_CURVE('',#792,#754,#133,.T.);
#688=EDGE_CURVE('',#793,#794,#134,.T.);
#689=EDGE_CURVE('',#794,#760,#135,.T.);
#690=EDGE_CURVE('',#762,#793,#136,.T.);
#691=EDGE_CURVE('',#721,#794,#13,.F.);
#692=EDGE_CURVE('',#793,#722,#137,.T.);
#693=EDGE_CURVE('',#761,#772,#138,.T.);
#694=VERTEX_POINT('',#1477);
#695=VERTEX_POINT('',#1479);
#696=VERTEX_POINT('',#1480);
#697=VERTEX_POINT('',#1482);
#698=VERTEX_POINT('',#1484);
#699=VERTEX_POINT('',#1486);
#700=VERTEX_POINT('',#1488);
#701=VERTEX_POINT('',#1490);
#702=VERTEX_POINT('',#1492);
#703=VERTEX_POINT('',#1494);
#704=VERTEX_POINT('',#1496);
#705=VERTEX_POINT('',#1498);
#706=VERTEX_POINT('',#1500);
#707=VERTEX_POINT('',#1502);
#708=VERTEX_POINT('',#1504);
#709=VERTEX_POINT('',#1506);
#710=VERTEX_POINT('',#1508);
#711=VERTEX_POINT('',#1510);
#712=VERTEX_POINT('',#1512);
#713=VERTEX_POINT('',#1514);
#714=VERTEX_POINT('',#1516);
#715=VERTEX_POINT('',#1518);
#716=VERTEX_POINT('',#1520);
#717=VERTEX_POINT('',#1522);
#718=VERTEX_POINT('',#1524);
#719=VERTEX_POINT('',#1526);
#720=VERTEX_POINT('',#1530);
#721=VERTEX_POINT('',#1532);
#722=VERTEX_POINT('',#1533);
#723=VERTEX_POINT('',#1535);
#724=VERTEX_POINT('',#1537);
#725=VERTEX_POINT('',#1539);
#726=VERTEX_POINT('',#1541);
#727=VERTEX_POINT('',#1543);
#728=VERTEX_POINT('',#1545);
#729=VERTEX_POINT('',#1547);
#730=VERTEX_POINT('',#1549);
#731=VERTEX_POINT('',#1551);
#732=VERTEX_POINT('',#1553);
#733=VERTEX_POINT('',#1555);
#734=VERTEX_POINT('',#1557);
#735=VERTEX_POINT('',#1559);
#736=VERTEX_POINT('',#1561);
#737=VERTEX_POINT('',#1563);
#738=VERTEX_POINT('',#1565);
#739=VERTEX_POINT('',#1567);
#740=VERTEX_POINT('',#1569);
#741=VERTEX_POINT('',#1571);
#742=VERTEX_POINT('',#1573);
#743=VERTEX_POINT('',#1575);
#744=VERTEX_POINT('',#1577);
#745=VERTEX_POINT('',#1579);
#746=VERTEX_POINT('',#1581);
#747=VERTEX_POINT('',#1583);
#748=VERTEX_POINT('',#1587);
#749=VERTEX_POINT('',#1589);
#750=VERTEX_POINT('',#1593);
#751=VERTEX_POINT('',#1597);
#752=VERTEX_POINT('',#1601);
#753=VERTEX_POINT('',#1605);
#754=VERTEX_POINT('',#1609);
#755=VERTEX_POINT('',#1613);
#756=VERTEX_POINT('',#1615);
#757=VERTEX_POINT('',#1617);
#758=VERTEX_POINT('',#1624);
#759=VERTEX_POINT('',#1625);
#760=VERTEX_POINT('',#1627);
#761=VERTEX_POINT('',#1632);
#762=VERTEX_POINT('',#1636);
#763=VERTEX_POINT('',#1640);
#764=VERTEX_POINT('',#1641);
#765=VERTEX_POINT('',#1644);
#766=VERTEX_POINT('',#1648);
#767=VERTEX_POINT('',#1652);
#768=VERTEX_POINT('',#1656);
#769=VERTEX_POINT('',#1660);
#770=VERTEX_POINT('',#1664);
#771=VERTEX_POINT('',#1668);
#772=VERTEX_POINT('',#1703);
#773=VERTEX_POINT('',#1708);
#774=VERTEX_POINT('',#1710);
#775=VERTEX_POINT('',#1714);
#776=VERTEX_POINT('',#1716);
#777=VERTEX_POINT('',#1720);
#778=VERTEX_POINT('',#1722);
#779=VERTEX_POINT('',#1726);
#780=VERTEX_POINT('',#1728);
#781=VERTEX_POINT('',#1732);
#782=VERTEX_POINT('',#1734);
#783=VERTEX_POINT('',#1738);
#784=VERTEX_POINT('',#1740);
#785=VERTEX_POINT('',#1744);
#786=VERTEX_POINT('',#1746);
#787=VERTEX_POINT('',#1750);
#788=VERTEX_POINT('',#1752);
#789=VERTEX_POINT('',#1756);
#790=VERTEX_POINT('',#1758);
#791=VERTEX_POINT('',#1762);
#792=VERTEX_POINT('',#1764);
#793=VERTEX_POINT('',#1773);
#794=VERTEX_POINT('',#1774);
#795=CIRCLE('',#1056,2.9);
#796=CIRCLE('',#1057,1.48030735709537);
#797=CIRCLE('',#1058,9.19830117250082);
#798=CIRCLE('',#1059,3.0281608825005);
#799=CIRCLE('',#1060,4.8);
#800=CIRCLE('',#1061,4.8);
#801=CIRCLE('',#1062,1.52402716776998);
#802=CIRCLE('',#1063,2.85);
#803=CIRCLE('',#1064,5.10000000000001);
#804=CIRCLE('',#1065,5.6);
#805=CIRCLE('',#1066,8.50000000000007);
#806=CIRCLE('',#1067,3.3009298608241);
#807=CIRCLE('',#1068,13.3426540162223);
#808=CIRCLE('',#1069,3.10345202195632);
#809=CIRCLE('',#1071,2.9);
#810=CIRCLE('',#1072,3.10345202195632);
#811=CIRCLE('',#1073,13.3426540162223);
#812=CIRCLE('',#1074,3.3009298608241);
#813=CIRCLE('',#1075,8.50000000000007);
#814=CIRCLE('',#1076,5.6);
#815=CIRCLE('',#1077,5.10000000000001);
#816=CIRCLE('',#1078,2.85);
#817=CIRCLE('',#1079,1.52402716776998);
#818=CIRCLE('',#1080,4.8);
#819=CIRCLE('',#1081,4.8);
#820=CIRCLE('',#1082,3.0281608825005);
#821=CIRCLE('',#1083,9.19830117250082);
#822=CIRCLE('',#1084,1.48030735709537);
#823=CIRCLE('',#1086,13.3426540162223);
#824=CIRCLE('',#1089,3.3009298608241);
#825=CIRCLE('',#1091,8.50000000000007);
#826=CIRCLE('',#1093,5.6);
#827=CIRCLE('',#1099,3.10345202195632);
#828=CIRCLE('',#1100,3.10345202195632);
#829=CIRCLE('',#1103,13.3426540162223);
#830=CIRCLE('',#1106,3.3009298608241);
#831=CIRCLE('',#1108,8.50000000000007);
#832=CIRCLE('',#1110,5.6);
#833=CIRCLE('',#1131,2.40844061848075);
#834=CIRCLE('',#1132,2.40844061848075);
#835=CIRCLE('',#1135,15.3426540162221);
#836=CIRCLE('',#1136,15.3426540162221);
#837=CIRCLE('',#1139,1.30092986082409);
#838=CIRCLE('',#1140,1.30092986082409);
#839=CIRCLE('',#1142,10.5);
#840=CIRCLE('',#1143,10.5);
#841=CIRCLE('',#1145,7.6);
#842=CIRCLE('',#1146,7.6);
#843=CIRCLE('',#1149,1.5);
#844=CIRCLE('',#1150,1.5);
#845=EDGE_LOOP('',(#238));
#846=EDGE_LOOP('',(#239,#240,#241,#242,#243,#244,#245,#246,#247,#248,#249,
#250,#251,#252,#253,#254,#255,#256,#257,#258,#259,#260,#261,#262,#263));
#847=EDGE_LOOP('',(#264));
#848=EDGE_LOOP('',(#265,#266,#267,#268,#269,#270,#271,#272,#273,#274,#275,
#276,#277,#278,#279,#280,#281,#282,#283,#284,#285,#286,#287,#288,#289,#290,
#291));
#849=EDGE_LOOP('',(#292,#293,#294,#295));
#850=EDGE_LOOP('',(#296,#297,#298,#299));
#851=EDGE_LOOP('',(#300,#301,#302,#303));
#852=EDGE_LOOP('',(#304,#305,#306,#307));
#853=EDGE_LOOP('',(#308,#309,#310,#311));
#854=EDGE_LOOP('',(#312,#313,#314,#315));
#855=EDGE_LOOP('',(#316,#317,#318,#319,#320));
#856=EDGE_LOOP('',(#321,#322,#323,#324,#325));
#857=EDGE_LOOP('',(#326,#327,#328,#329,#330,#331,#332,#333));
#858=EDGE_LOOP('',(#334,#335,#336,#337,#338,#339,#340,#341));
#859=EDGE_LOOP('',(#342,#343,#344,#345));
#860=EDGE_LOOP('',(#346,#347,#348,#349));
#861=EDGE_LOOP('',(#350,#351,#352,#353));
#862=EDGE_LOOP('',(#354,#355,#356,#357));
#863=EDGE_LOOP('',(#358,#359,#360,#361));
#864=EDGE_LOOP('',(#362,#363,#364,#365));
#865=EDGE_LOOP('',(#366,#367,#368,#369,#370,#371));
#866=EDGE_LOOP('',(#372,#373,#374,#375));
#867=EDGE_LOOP('',(#376,#377,#378,#379));
#868=EDGE_LOOP('',(#380,#381,#382,#383));
#869=EDGE_LOOP('',(#384,#385,#386,#387));
#870=EDGE_LOOP('',(#388,#389,#390,#391));
#871=EDGE_LOOP('',(#392,#393,#394,#395));
#872=EDGE_LOOP('',(#396,#397,#398,#399));
#873=EDGE_LOOP('',(#400,#401,#402,#403));
#874=EDGE_LOOP('',(#404,#405,#406,#407));
#875=EDGE_LOOP('',(#408,#409,#410,#411));
#876=EDGE_LOOP('',(#412,#413,#414,#415));
#877=EDGE_LOOP('',(#416,#417,#418,#419));
#878=EDGE_LOOP('',(#420,#421,#422,#423));
#879=EDGE_LOOP('',(#424,#425,#426,#427));
#880=EDGE_LOOP('',(#428,#429,#430,#431,#432,#433));
#881=EDGE_LOOP('',(#434));
#882=EDGE_LOOP('',(#435));
#883=EDGE_LOOP('',(#436,#437,#438,#439));
#884=EDGE_LOOP('',(#440,#441,#442,#443));
#885=EDGE_LOOP('',(#444,#445,#446,#447));
#886=EDGE_LOOP('',(#448,#449,#450,#451));
#887=EDGE_LOOP('',(#452,#453,#454,#455));
#888=EDGE_LOOP('',(#456,#457,#458,#459));
#889=EDGE_LOOP('',(#460,#461,#462,#463));
#890=EDGE_LOOP('',(#464,#465,#466,#467));
#891=EDGE_LOOP('',(#468,#469,#470,#471));
#892=EDGE_LOOP('',(#472,#473,#474,#475));
#893=EDGE_LOOP('',(#476,#477,#478,#479));
#894=EDGE_LOOP('',(#480,#481,#482,#483,#484,#485,#486,#487,#488,#489,#490,
#491,#492,#493,#494,#495,#496,#497));
#895=EDGE_LOOP('',(#498,#499,#500,#501,#502,#503,#504,#505,#506,#507,#508,
#509,#510,#511,#512,#513,#514,#515));
#896=EDGE_LOOP('',(#516,#517,#518,#519,#520));
#897=EDGE_LOOP('',(#521,#522,#523,#524));
#898=EDGE_LOOP('',(#525,#526,#527,#528));
#899=EDGE_LOOP('',(#529,#530,#531,#532));
#900=EDGE_LOOP('',(#533,#534,#535,#536));
#901=EDGE_LOOP('',(#537,#538,#539,#540,#541));
#902=FACE_BOUND('',#845,.T.);
#903=FACE_BOUND('',#846,.T.);
#904=FACE_BOUND('',#847,.T.);
#905=FACE_BOUND('',#848,.T.);
#906=FACE_BOUND('',#849,.T.);
#907=FACE_BOUND('',#850,.T.);
#908=FACE_BOUND('',#851,.T.);
#909=FACE_BOUND('',#852,.T.);
#910=FACE_BOUND('',#853,.T.);
#911=FACE_BOUND('',#854,.T.);
#912=FACE_BOUND('',#855,.T.);
#913=FACE_BOUND('',#856,.T.);
#914=FACE_BOUND('',#857,.T.);
#915=FACE_BOUND('',#858,.T.);
#916=FACE_BOUND('',#859,.T.);
#917=FACE_BOUND('',#860,.T.);
#918=FACE_BOUND('',#861,.T.);
#919=FACE_BOUND('',#862,.T.);
#920=FACE_BOUND('',#863,.T.);
#921=FACE_BOUND('',#864,.T.);
#922=FACE_BOUND('',#865,.T.);
#923=FACE_BOUND('',#866,.T.);
#924=FACE_BOUND('',#867,.T.);
#925=FACE_BOUND('',#868,.T.);
#926=FACE_BOUND('',#869,.T.);
#927=FACE_BOUND('',#870,.T.);
#928=FACE_BOUND('',#871,.T.);
#929=FACE_BOUND('',#872,.T.);
#930=FACE_BOUND('',#873,.T.);
#931=FACE_BOUND('',#874,.T.);
#932=FACE_BOUND('',#875,.T.);
#933=FACE_BOUND('',#876,.T.);
#934=FACE_BOUND('',#877,.T.);
#935=FACE_BOUND('',#878,.T.);
#936=FACE_BOUND('',#879,.T.);
#937=FACE_BOUND('',#880,.T.);
#938=FACE_BOUND('',#881,.T.);
#939=FACE_BOUND('',#882,.T.);
#940=FACE_BOUND('',#883,.T.);
#941=FACE_BOUND('',#884,.T.);
#942=FACE_BOUND('',#885,.T.);
#943=FACE_BOUND('',#886,.T.);
#944=FACE_BOUND('',#887,.T.);
#945=FACE_BOUND('',#888,.T.);
#946=FACE_BOUND('',#889,.T.);
#947=FACE_BOUND('',#890,.T.);
#948=FACE_BOUND('',#891,.T.);
#949=FACE_BOUND('',#892,.T.);
#950=FACE_BOUND('',#893,.T.);
#951=FACE_BOUND('',#894,.T.);
#952=FACE_BOUND('',#895,.T.);
#953=FACE_BOUND('',#896,.T.);
#954=FACE_BOUND('',#897,.T.);
#955=FACE_BOUND('',#898,.T.);
#956=FACE_BOUND('',#899,.T.);
#957=FACE_BOUND('',#900,.T.);
#958=FACE_BOUND('',#901,.T.);
#959=PLANE('',#1055);
#960=PLANE('',#1070);
#961=PLANE('',#1087);
#962=PLANE('',#1094);
#963=PLANE('',#1095);
#964=PLANE('',#1096);
#965=PLANE('',#1101);
#966=PLANE('',#1104);
#967=PLANE('',#1111);
#968=PLANE('',#1113);
#969=PLANE('',#1115);
#970=PLANE('',#1118);
#971=PLANE('',#1119);
#972=PLANE('',#1120);
#973=PLANE('',#1123);
#974=PLANE('',#1125);
#975=PLANE('',#1127);
#976=PLANE('',#1129);
#977=PLANE('',#1133);
#978=PLANE('',#1137);
#979=PLANE('',#1147);
#980=PLANE('',#1151);
#981=PLANE('',#1152);
#982=PLANE('',#1153);
#983=PLANE('',#1154);
#984=PLANE('',#1155);
#985=PLANE('',#1157);
#986=PLANE('',#1159);
#987=PLANE('',#1160);
#988=ADVANCED_FACE('',(#902,#903),#959,.F.);
#989=ADVANCED_FACE('',(#904,#905),#960,.T.);
#990=ADVANCED_FACE('',(#906),#15,.T.);
#991=ADVANCED_FACE('',(#907),#961,.T.);
#992=ADVANCED_FACE('',(#908),#16,.F.);
#993=ADVANCED_FACE('',(#909),#17,.T.);
#994=ADVANCED_FACE('',(#910),#18,.T.);
#995=ADVANCED_FACE('',(#911),#962,.T.);
#996=ADVANCED_FACE('',(#912),#963,.F.);
#997=ADVANCED_FACE('',(#913),#964,.T.);
#998=ADVANCED_FACE('',(#914),#19,.T.);
#999=ADVANCED_FACE('',(#915),#965,.T.);
#1000=ADVANCED_FACE('',(#916),#20,.T.);
#1001=ADVANCED_FACE('',(#917),#966,.T.);
#1002=ADVANCED_FACE('',(#918),#21,.F.);
#1003=ADVANCED_FACE('',(#919),#22,.T.);
#1004=ADVANCED_FACE('',(#920),#23,.T.);
#1005=ADVANCED_FACE('',(#921),#967,.T.);
#1006=ADVANCED_FACE('',(#922),#24,.T.);
#1007=ADVANCED_FACE('',(#923),#968,.T.);
#1008=ADVANCED_FACE('',(#924),#25,.F.);
#1009=ADVANCED_FACE('',(#925),#969,.T.);
#1010=ADVANCED_FACE('',(#926),#26,.F.);
#1011=ADVANCED_FACE('',(#927),#27,.T.);
#1012=ADVANCED_FACE('',(#928),#970,.T.);
#1013=ADVANCED_FACE('',(#929),#971,.T.);
#1014=ADVANCED_FACE('',(#930),#972,.T.);
#1015=ADVANCED_FACE('',(#931),#28,.T.);
#1016=ADVANCED_FACE('',(#932),#29,.F.);
#1017=ADVANCED_FACE('',(#933),#973,.T.);
#1018=ADVANCED_FACE('',(#934),#30,.F.);
#1019=ADVANCED_FACE('',(#935),#974,.T.);
#1020=ADVANCED_FACE('',(#936),#31,.F.);
#1021=ADVANCED_FACE('',(#937),#975,.T.);
#1022=ADVANCED_FACE('',(#938,#939),#32,.F.);
#1023=ADVANCED_FACE('',(#940),#976,.T.);
#1024=ADVANCED_FACE('',(#941),#33,.T.);
#1025=ADVANCED_FACE('',(#942),#977,.T.);
#1026=ADVANCED_FACE('',(#943),#34,.T.);
#1027=ADVANCED_FACE('',(#944),#978,.T.);
#1028=ADVANCED_FACE('',(#945),#35,.F.);
#1029=ADVANCED_FACE('',(#946),#36,.T.);
#1030=ADVANCED_FACE('',(#947),#37,.T.);
#1031=ADVANCED_FACE('',(#948),#979,.T.);
#1032=ADVANCED_FACE('',(#949),#38,.T.);
#1033=ADVANCED_FACE('',(#950),#980,.T.);
#1034=ADVANCED_FACE('',(#951),#981,.F.);
#1035=ADVANCED_FACE('',(#952),#982,.T.);
#1036=ADVANCED_FACE('',(#953),#983,.T.);
#1037=ADVANCED_FACE('',(#954),#984,.F.);
#1038=ADVANCED_FACE('',(#955),#985,.F.);
#1039=ADVANCED_FACE('',(#956),#39,.T.);
#1040=ADVANCED_FACE('',(#957),#986,.F.);
#1041=ADVANCED_FACE('',(#958),#987,.F.);
#1042=CLOSED_SHELL('',(#988,#989,#990,#991,#992,#993,#994,#995,#996,#997,
#998,#999,#1000,#1001,#1002,#1003,#1004,#1005,#1006,#1007,#1008,#1009,#1010,
#1011,#1012,#1013,#1014,#1015,#1016,#1017,#1018,#1019,#1020,#1021,#1022,
#1023,#1024,#1025,#1026,#1027,#1028,#1029,#1030,#1031,#1032,#1033,#1034,
#1035,#1036,#1037,#1038,#1039,#1040,#1041));
#1043=STYLED_ITEM('',(#1044),#1051);
#1044=PRESENTATION_STYLE_ASSIGNMENT((#1045));
#1045=SURFACE_STYLE_USAGE(.BOTH.,#1046);
#1046=SURFACE_SIDE_STYLE('',(#1047));
#1047=SURFACE_STYLE_FILL_AREA(#1048);
#1048=FILL_AREA_STYLE('',(#1049));
#1049=FILL_AREA_STYLE_COLOUR('',#1050);
#1050=COLOUR_RGB('',0.611764705882353,0.658823529411765,0.670588235294118);
#1051=MANIFOLD_SOLID_BREP('Extrude (10)',#1042);
#1052=SHAPE_DEFINITION_REPRESENTATION(#1791,#1053);
#1053=SHAPE_REPRESENTATION('H05',(#1054),#1786);
#1054=AXIS2_PLACEMENT_3D('',#1474,#1161,#1162);
#1055=AXIS2_PLACEMENT_3D('',#1475,#1163,#1164);
#1056=AXIS2_PLACEMENT_3D('',#1476,#1165,#1166);
#1057=AXIS2_PLACEMENT_3D('',#1481,#1168,#1169);
#1058=AXIS2_PLACEMENT_3D('',#1485,#1171,#1172);
#1059=AXIS2_PLACEMENT_3D('',#1489,#1174,#1175);
#1060=AXIS2_PLACEMENT_3D('',#1491,#1176,#1177);
#1061=AXIS2_PLACEMENT_3D('',#1499,#1181,#1182);
#1062=AXIS2_PLACEMENT_3D('',#1501,#1183,#1184);
#1063=AXIS2_PLACEMENT_3D('',#1505,#1186,#1187);
#1064=AXIS2_PLACEMENT_3D('',#1509,#1189,#1190);
#1065=AXIS2_PLACEMENT_3D('',#1513,#1192,#1193);
#1066=AXIS2_PLACEMENT_3D('',#1515,#1194,#1195);
#1067=AXIS2_PLACEMENT_3D('',#1517,#1196,#1197);
#1068=AXIS2_PLACEMENT_3D('',#1521,#1199,#1200);
#1069=AXIS2_PLACEMENT_3D('',#1525,#1202,#1203);
#1070=AXIS2_PLACEMENT_3D('',#1528,#1205,#1206);
#1071=AXIS2_PLACEMENT_3D('',#1529,#1207,#1208);
#1072=AXIS2_PLACEMENT_3D('',#1536,#1211,#1212);
#1073=AXIS2_PLACEMENT_3D('',#1540,#1214,#1215);
#1074=AXIS2_PLACEMENT_3D('',#1544,#1217,#1218);
#1075=AXIS2_PLACEMENT_3D('',#1546,#1219,#1220);
#1076=AXIS2_PLACEMENT_3D('',#1548,#1221,#1222);
#1077=AXIS2_PLACEMENT_3D('',#1552,#1224,#1225);
#1078=AXIS2_PLACEMENT_3D('',#1556,#1227,#1228);
#1079=AXIS2_PLACEMENT_3D('',#1560,#1230,#1231);
#1080=AXIS2_PLACEMENT_3D('',#1562,#1232,#1233);
#1081=AXIS2_PLACEMENT_3D('',#1570,#1237,#1238);
#1082=AXIS2_PLACEMENT_3D('',#1572,#1239,#1240);
#1083=AXIS2_PLACEMENT_3D('',#1576,#1242,#1243);
#1084=AXIS2_PLACEMENT_3D('',#1580,#1245,#1246);
#1085=AXIS2_PLACEMENT_3D('',#1585,#1249,#1250);
#1086=AXIS2_PLACEMENT_3D('',#1588,#1252,#1253);
#1087=AXIS2_PLACEMENT_3D('',#1591,#1255,#1256);
#1088=AXIS2_PLACEMENT_3D('',#1595,#1259,#1260);
#1089=AXIS2_PLACEMENT_3D('',#1598,#1262,#1263);
#1090=AXIS2_PLACEMENT_3D('',#1599,#1264,#1265);
#1091=AXIS2_PLACEMENT_3D('',#1602,#1267,#1268);
#1092=AXIS2_PLACEMENT_3D('',#1603,#1269,#1270);
#1093=AXIS2_PLACEMENT_3D('',#1606,#1272,#1273);
#1094=AXIS2_PLACEMENT_3D('',#1607,#1274,#1275);
#1095=AXIS2_PLACEMENT_3D('',#1611,#1278,#1279);
#1096=AXIS2_PLACEMENT_3D('',#1622,#1283,#1284);
#1097=AXIS2_PLACEMENT_3D('',#1628,#1287,#1288);
#1098=AXIS2_PLACEMENT_3D('',#1630,#1290,#1291);
#1099=AXIS2_PLACEMENT_3D('',#1631,#1292,#1293);
#1100=AXIS2_PLACEMENT_3D('',#1637,#1297,#1298);
#1101=AXIS2_PLACEMENT_3D('',#1638,#1299,#1300);
#1102=AXIS2_PLACEMENT_3D('',#1646,#1305,#1306);
#1103=AXIS2_PLACEMENT_3D('',#1647,#1307,#1308);
#1104=AXIS2_PLACEMENT_3D('',#1650,#1310,#1311);
#1105=AXIS2_PLACEMENT_3D('',#1654,#1314,#1315);
#1106=AXIS2_PLACEMENT_3D('',#1655,#1316,#1317);
#1107=AXIS2_PLACEMENT_3D('',#1658,#1319,#1320);
#1108=AXIS2_PLACEMENT_3D('',#1659,#1321,#1322);
#1109=AXIS2_PLACEMENT_3D('',#1662,#1324,#1325);
#1110=AXIS2_PLACEMENT_3D('',#1663,#1326,#1327);
#1111=AXIS2_PLACEMENT_3D('',#1666,#1329,#1330);
#1112=AXIS2_PLACEMENT_3D('',#1670,#1333,#1334);
#1113=AXIS2_PLACEMENT_3D('',#1673,#1337,#1338);
#1114=AXIS2_PLACEMENT_3D('',#1675,#1340,#1341);
#1115=AXIS2_PLACEMENT_3D('',#1677,#1343,#1344);
#1116=AXIS2_PLACEMENT_3D('',#1679,#1346,#1347);
#1117=AXIS2_PLACEMENT_3D('',#1681,#1349,#1350);
#1118=AXIS2_PLACEMENT_3D('',#1683,#1352,#1353);
#1119=AXIS2_PLACEMENT_3D('',#1685,#1355,#1356);
#1120=AXIS2_PLACEMENT_3D('',#1687,#1358,#1359);
#1121=AXIS2_PLACEMENT_3D('',#1689,#1361,#1362);
#1122=AXIS2_PLACEMENT_3D('',#1691,#1364,#1365);
#1123=AXIS2_PLACEMENT_3D('',#1693,#1367,#1368);
#1124=AXIS2_PLACEMENT_3D('',#1695,#1370,#1371);
#1125=AXIS2_PLACEMENT_3D('',#1697,#1373,#1374);
#1126=AXIS2_PLACEMENT_3D('',#1699,#1376,#1377);
#1127=AXIS2_PLACEMENT_3D('',#1701,#1379,#1380);
#1128=AXIS2_PLACEMENT_3D('',#1705,#1383,#1384);
#1129=AXIS2_PLACEMENT_3D('',#1706,#1385,#1386);
#1130=AXIS2_PLACEMENT_3D('',#1712,#1390,#1391);
#1131=AXIS2_PLACEMENT_3D('',#1713,#1392,#1393);
#1132=AXIS2_PLACEMENT_3D('',#1715,#1394,#1395);
#1133=AXIS2_PLACEMENT_3D('',#1718,#1397,#1398);
#1134=AXIS2_PLACEMENT_3D('',#1724,#1402,#1403);
#1135=AXIS2_PLACEMENT_3D('',#1725,#1404,#1405);
#1136=AXIS2_PLACEMENT_3D('',#1727,#1406,#1407);
#1137=AXIS2_PLACEMENT_3D('',#1730,#1409,#1410);
#1138=AXIS2_PLACEMENT_3D('',#1736,#1414,#1415);
#1139=AXIS2_PLACEMENT_3D('',#1737,#1416,#1417);
#1140=AXIS2_PLACEMENT_3D('',#1739,#1418,#1419);
#1141=AXIS2_PLACEMENT_3D('',#1742,#1421,#1422);
#1142=AXIS2_PLACEMENT_3D('',#1743,#1423,#1424);
#1143=AXIS2_PLACEMENT_3D('',#1745,#1425,#1426);
#1144=AXIS2_PLACEMENT_3D('',#1748,#1428,#1429);
#1145=AXIS2_PLACEMENT_3D('',#1749,#1430,#1431);
#1146=AXIS2_PLACEMENT_3D('',#1751,#1432,#1433);
#1147=AXIS2_PLACEMENT_3D('',#1754,#1435,#1436);
#1148=AXIS2_PLACEMENT_3D('',#1760,#1440,#1441);
#1149=AXIS2_PLACEMENT_3D('',#1761,#1442,#1443);
#1150=AXIS2_PLACEMENT_3D('',#1763,#1444,#1445);
#1151=AXIS2_PLACEMENT_3D('',#1766,#1447,#1448);
#1152=AXIS2_PLACEMENT_3D('',#1769,#1451,#1452);
#1153=AXIS2_PLACEMENT_3D('',#1770,#1453,#1454);
#1154=AXIS2_PLACEMENT_3D('',#1771,#1455,#1456);
#1155=AXIS2_PLACEMENT_3D('',#1777,#1460,#1461);
#1156=AXIS2_PLACEMENT_3D('',#1778,#1462,#1463);
#1157=AXIS2_PLACEMENT_3D('',#1780,#1465,#1466);
#1158=AXIS2_PLACEMENT_3D('',#1781,#1467,#1468);
#1159=AXIS2_PLACEMENT_3D('',#1782,#1469,#1470);
#1160=AXIS2_PLACEMENT_3D('',#1784,#1472,#1473);
#1161=DIRECTION('',(0.,0.,1.));
#1162=DIRECTION('',(1.,0.,0.));
#1163=DIRECTION('',(-0.678295110536061,0.15675723235347,0.71787388385966));
#1164=DIRECTION('',(0.726859933128086,0.,0.686785729040022));
#1165=DIRECTION('',(-0.67829511053606,0.156757232353463,0.717873883859663));
#1166=DIRECTION('',(0.726859933128087,0.,0.686785729040021));
#1167=DIRECTION('',(-0.253053888024372,0.867379078797348,-0.428505849925544));
#1168=DIRECTION('',(0.678295110536061,-0.156757232353463,-0.717873883859663));
#1169=DIRECTION('',(-0.662207656110453,-0.553794849712699,-0.504769536145347));
#1170=DIRECTION('',(-0.687120318484255,-0.481477687112777,-0.544100087059934));
#1171=DIRECTION('',(0.678295110536061,-0.156757232353463,-0.717873883859663));
#1172=DIRECTION('',(-0.662207656110453,-0.553794849712699,-0.504769536145347));
#1173=DIRECTION('',(-0.589270175342361,-0.699675636339279,-0.403998346983262));
#1174=DIRECTION('',(0.678295110536061,-0.156757232353463,-0.717873883859663));
#1175=DIRECTION('',(-0.662207656110453,-0.553794849712699,-0.504769536145347));
#1176=DIRECTION('',(-0.67829511053606,0.156757232353464,0.717873883859662));
#1177=DIRECTION('',(0.722222883728656,0.322143933371352,0.612059958182773));
#1178=DIRECTION('',(-0.0770756688688409,-0.986767962543721,0.142647570486617));
#1179=DIRECTION('',(-0.73234850849556,-0.0646542678912198,-0.677853588725308));
#1180=DIRECTION('',(0.077075668868844,0.986767962543718,-0.142647570486637));
#1181=DIRECTION('',(-0.67829511053606,0.156757232353464,0.717873883859662));
#1182=DIRECTION('',(0.722222883728656,0.322143933371352,0.612059958182773));
#1183=DIRECTION('',(0.67829511053606,-0.156757232353463,-0.717873883859663));
#1184=DIRECTION('',(-0.662207656110453,-0.5537948497127,-0.504769536145347));
#1185=DIRECTION('',(-0.703541142527804,-0.420432017503906,-0.572945703734889));
#1186=DIRECTION('',(0.678295110536046,-0.156757232353461,-0.717873883859676));
#1187=DIRECTION('',(0.240046429416869,0.970647694736309,0.014858143467512));
#1188=DIRECTION('',(-0.569799917971107,-0.729074112033578,-0.379182004639684));
#1189=DIRECTION('',(-0.678295110536049,0.15675723235346,0.717873883859673));
#1190=DIRECTION('',(0.190982578660697,0.981012563455776,-0.033763959928262));
#1191=DIRECTION('',(0.703720104262217,0.419676412931039,0.573279794940054));
#1192=DIRECTION('',(-0.678295110536061,0.156757232353463,0.717873883859663));
#1193=DIRECTION('',(-0.662207656110453,-0.553794849712699,-0.504769536145347));
#1194=DIRECTION('',(-0.678295110536061,0.156757232353463,0.717873883859663));
#1195=DIRECTION('',(-0.662207656110453,-0.553794849712699,-0.504769536145347));
#1196=DIRECTION('',(0.678295110536061,-0.156757232353463,-0.717873883859663));
#1197=DIRECTION('',(-0.662207656110453,-0.553794849712699,-0.504769536145347));
#1198=DIRECTION('',(0.589716059957135,0.698966726211307,0.404574448375179));
#1199=DIRECTION('',(-0.678295110536061,0.156757232353463,0.717873883859663));
#1200=DIRECTION('',(-0.662207656110453,-0.553794849712699,-0.504769536145347));
#1201=DIRECTION('',(0.677448600078496,0.511775599658501,0.52834565375885));
#1202=DIRECTION('',(-0.678295110536061,0.15675723235347,0.71787388385966));
#1203=DIRECTION('',(0.69675127910027,-0.173052451644201,0.69612535081842));
#1204=DIRECTION('',(0.683920511372671,0.491874310063267,0.538806456182116));
#1205=DIRECTION('',(-0.678295110536061,0.15675723235347,0.71787388385966));
#1206=DIRECTION('',(0.726859933128086,0.,0.686785729040022));
#1207=DIRECTION('',(-0.67829511053606,0.156757232353463,0.717873883859663));
#1208=DIRECTION('',(0.726859933128087,0.,0.686785729040021));
#1209=DIRECTION('',(0.253053888024361,-0.867379078797348,0.42850584992555));
#1210=DIRECTION('',(-0.683920511372671,-0.491874310063267,-0.538806456182116));
#1211=DIRECTION('',(-0.678295110536061,0.15675723235347,0.71787388385966));
#1212=DIRECTION('',(0.69675127910027,-0.173052451644201,0.69612535081842));
#1213=DIRECTION('',(0.677448600078496,0.511775599658501,0.52834565375885));
#1214=DIRECTION('',(-0.678295110536061,0.156757232353463,0.717873883859663));
#1215=DIRECTION('',(-0.662207656110453,-0.553794849712699,-0.504769536145347));
#1216=DIRECTION('',(0.589716059957135,0.698966726211307,0.404574448375179));
#1217=DIRECTION('',(0.678295110536061,-0.156757232353463,-0.717873883859663));
#1218=DIRECTION('',(-0.662207656110453,-0.553794849712699,-0.504769536145347));
#1219=DIRECTION('',(-0.678295110536061,0.156757232353463,0.717873883859663));
#1220=DIRECTION('',(-0.662207656110453,-0.553794849712699,-0.504769536145347));
#1221=DIRECTION('',(-0.678295110536061,0.156757232353463,0.717873883859663));
#1222=DIRECTION('',(-0.662207656110453,-0.553794849712699,-0.504769536145347));
#1223=DIRECTION('',(0.703720104262217,0.419676412931039,0.573279794940054));
#1224=DIRECTION('',(-0.678295110536049,0.15675723235346,0.717873883859673));
#1225=DIRECTION('',(0.190982578660697,0.981012563455776,-0.033763959928262));
#1226=DIRECTION('',(-0.569799917971107,-0.729074112033578,-0.379182004639684));
#1227=DIRECTION('',(0.678295110536046,-0.156757232353461,-0.717873883859676));
#1228=DIRECTION('',(0.240046429416869,0.970647694736309,0.014858143467512));
#1229=DIRECTION('',(-0.703541142527804,-0.420432017503906,-0.572945703734889));
#1230=DIRECTION('',(0.67829511053606,-0.156757232353463,-0.717873883859663));
#1231=DIRECTION('',(-0.662207656110453,-0.5537948497127,-0.504769536145347));
#1232=DIRECTION('',(-0.67829511053606,0.156757232353464,0.717873883859662));
#1233=DIRECTION('',(0.722222883728656,0.322143933371352,0.612059958182773));
#1234=DIRECTION('',(0.077075668868844,0.986767962543718,-0.142647570486637));
#1235=DIRECTION('',(-0.73234850849556,-0.0646542678912198,-0.677853588725308));
#1236=DIRECTION('',(-0.0770756688688409,-0.986767962543721,0.142647570486617));
#1237=DIRECTION('',(-0.67829511053606,0.156757232353464,0.717873883859662));
#1238=DIRECTION('',(0.722222883728656,0.322143933371352,0.612059958182773));
#1239=DIRECTION('',(0.678295110536061,-0.156757232353463,-0.717873883859663));
#1240=DIRECTION('',(-0.662207656110453,-0.553794849712699,-0.504769536145347));
#1241=DIRECTION('',(-0.589270175342361,-0.699675636339279,-0.403998346983262));
#1242=DIRECTION('',(0.678295110536061,-0.156757232353463,-0.717873883859663));
#1243=DIRECTION('',(-0.662207656110453,-0.553794849712699,-0.504769536145347));
#1244=DIRECTION('',(-0.687120318484255,-0.481477687112777,-0.544100087059934));
#1245=DIRECTION('',(0.678295110536061,-0.156757232353463,-0.717873883859663));
#1246=DIRECTION('',(-0.662207656110453,-0.553794849712699,-0.504769536145347));
#1247=DIRECTION('',(-0.253053888024378,0.867379078797349,-0.428505849925538));
#1248=DIRECTION('',(0.683926737168346,0.491854461322644,0.53881667296333));
#1249=DIRECTION('',(-0.67829511053606,0.156757232353463,0.717873883859662));
#1250=DIRECTION('',(0.726859933128087,0.,0.686785729040021));
#1251=DIRECTION('',(-0.67829511053606,0.156757232353463,0.717873883859662));
#1252=DIRECTION('',(0.678295110536061,-0.156757232353463,-0.717873883859663));
#1253=DIRECTION('',(-0.662207656110453,-0.553794849712699,-0.504769536145347));
#1254=DIRECTION('',(-0.67829511053606,0.156757232353463,0.717873883859662));
#1255=DIRECTION('',(0.438349987625762,-0.697762628516554,0.566547970249796));
#1256=DIRECTION('',(0.,-0.630335133738157,-0.776323140950532));
#1257=DIRECTION('',(-0.67829511053606,0.156757232353463,0.717873883859662));
#1258=DIRECTION('',(-0.589716059957135,-0.698966726211307,-0.404574448375179));
#1259=DIRECTION('',(-0.67829511053606,0.156757232353463,0.717873883859662));
#1260=DIRECTION('',(0.726859933128087,0.,0.686785729040021));
#1261=DIRECTION('',(-0.67829511053606,0.156757232353463,0.717873883859662));
#1262=DIRECTION('',(-0.678295110536061,0.156757232353463,0.717873883859663));
#1263=DIRECTION('',(-0.662207656110453,-0.553794849712699,-0.504769536145347));
#1264=DIRECTION('',(-0.67829511053606,0.156757232353463,0.717873883859662));
#1265=DIRECTION('',(0.726859933128087,0.,0.686785729040021));
#1266=DIRECTION('',(-0.67829511053606,0.156757232353463,0.717873883859662));
#1267=DIRECTION('',(0.678295110536061,-0.156757232353463,-0.717873883859663));
#1268=DIRECTION('',(-0.662207656110453,-0.553794849712699,-0.504769536145347));
#1269=DIRECTION('',(-0.67829511053606,0.156757232353463,0.717873883859662));
#1270=DIRECTION('',(0.726859933128087,0.,0.686785729040021));
#1271=DIRECTION('',(-0.67829511053606,0.156757232353463,0.717873883859662));
#1272=DIRECTION('',(0.678295110536061,-0.156757232353463,-0.717873883859663));
#1273=DIRECTION('',(-0.662207656110453,-0.553794849712699,-0.504769536145347));
#1274=DIRECTION('',(0.211408982496133,-0.894035166273799,0.394977674794072));
#1275=DIRECTION('',(0.,-0.404111529329486,-0.914709720000277));
#1276=DIRECTION('',(-0.67829511053606,0.156757232353463,0.717873883859662));
#1277=DIRECTION('',(-0.703720104262217,-0.419676412931039,-0.573279794940054));
#1278=DIRECTION('',(0.268626062043751,-0.85644985783284,0.440832938661547));
#1279=DIRECTION('',(0.,-0.457654231666828,-0.889130251559042));
#1280=DIRECTION('',(0.678295110536062,-0.15675723235347,-0.717873883859659));
#1281=DIRECTION('',(-0.683926737169891,-0.491854461322287,-0.538816672961695));
#1282=DIRECTION('',(-0.678295110536062,0.15675723235347,0.717873883859659));
#1283=DIRECTION('',(-0.687979151144052,-0.478617928705785,-0.545536035393166));
#1284=DIRECTION('',(-0.621322974563528,0.,0.78355456815689));
#1285=DIRECTION('',(-0.67829511053606,0.156757232353463,0.717873883859662));
#1286=DIRECTION('',(0.258070592307584,-0.863916690674669,0.432489908506245));
#1287=DIRECTION('',(-0.687979151144052,-0.478617928705785,-0.545536035393166));
#1288=DIRECTION('',(-0.258070592307506,0.86391669067465,-0.432489908506331));
#1289=DIRECTION('',(0.258070592307584,-0.863916690674669,0.432489908506245));
#1290=DIRECTION('',(-0.67829511053606,0.156757232353463,0.717873883859662));
#1291=DIRECTION('',(0.726859933128087,0.,0.686785729040021));
#1292=DIRECTION('',(-0.678295110536061,0.15675723235347,0.71787388385966));
#1293=DIRECTION('',(0.69675127910027,-0.173052451644201,0.69612535081842));
#1294=DIRECTION('',(0.678295110536061,-0.15675723235347,-0.71787388385966));
#1295=DIRECTION('',(-0.67829511053606,0.156757232353463,0.717873883859662));
#1296=DIRECTION('',(0.678295110536061,-0.15675723235347,-0.71787388385966));
#1297=DIRECTION('',(-0.678295110536061,0.15675723235347,0.71787388385966));
#1298=DIRECTION('',(0.69675127910027,-0.173052451644201,0.69612535081842));
#1299=DIRECTION('',(0.284568334982238,-0.844696931271248,0.453329854550055));
#1300=DIRECTION('',(0.,-0.472880750648564,-0.881126435686758));
#1301=DIRECTION('',(-0.677448600078496,-0.511775599658501,-0.528345653758852));
#1302=DIRECTION('',(-0.67829511053606,0.156757232353463,0.717873883859662));
#1303=DIRECTION('',(-0.677448600078496,-0.511775599658501,-0.528345653758852));
#1304=DIRECTION('',(-0.67829511053606,0.156757232353463,0.717873883859662));
#1305=DIRECTION('',(-0.67829511053606,0.156757232353463,0.717873883859662));
#1306=DIRECTION('',(0.726859933128087,0.,0.686785729040021));
#1307=DIRECTION('',(0.678295110536061,-0.156757232353463,-0.717873883859663));
#1308=DIRECTION('',(-0.662207656110453,-0.553794849712699,-0.504769536145347));
#1309=DIRECTION('',(-0.67829511053606,0.156757232353463,0.717873883859662));
#1310=DIRECTION('',(0.438349987625762,-0.697762628516554,0.566547970249796));
#1311=DIRECTION('',(0.,-0.630335133738157,-0.776323140950532));
#1312=DIRECTION('',(-0.589716059957135,-0.698966726211307,-0.404574448375179));
#1313=DIRECTION('',(-0.67829511053606,0.156757232353463,0.717873883859662));
#1314=DIRECTION('',(-0.67829511053606,0.156757232353463,0.717873883859662));
#1315=DIRECTION('',(0.726859933128087,0.,0.686785729040021));
#1316=DIRECTION('',(-0.678295110536061,0.156757232353463,0.717873883859663));
#1317=DIRECTION('',(-0.662207656110453,-0.553794849712699,-0.504769536145347));
#1318=DIRECTION('',(-0.67829511053606,0.156757232353463,0.717873883859662));
#1319=DIRECTION('',(-0.67829511053606,0.156757232353463,0.717873883859662));
#1320=DIRECTION('',(0.726859933128087,0.,0.686785729040021));
#1321=DIRECTION('',(0.678295110536061,-0.156757232353463,-0.717873883859663));
#1322=DIRECTION('',(-0.662207656110453,-0.553794849712699,-0.504769536145347));
#1323=DIRECTION('',(-0.67829511053606,0.156757232353463,0.717873883859662));
#1324=DIRECTION('',(-0.67829511053606,0.156757232353463,0.717873883859662));
#1325=DIRECTION('',(0.726859933128087,0.,0.686785729040021));
#1326=DIRECTION('',(0.678295110536061,-0.156757232353463,-0.717873883859663));
#1327=DIRECTION('',(-0.662207656110453,-0.553794849712699,-0.504769536145347));
#1328=DIRECTION('',(-0.67829511053606,0.156757232353463,0.717873883859662));
#1329=DIRECTION('',(0.211408982496133,-0.894035166273799,0.394977674794072));
#1330=DIRECTION('',(0.,-0.404111529329486,-0.914709720000277));
#1331=DIRECTION('',(-0.703720104262217,-0.419676412931039,-0.573279794940054));
#1332=DIRECTION('',(-0.67829511053606,0.156757232353463,0.717873883859662));
#1333=DIRECTION('',(-0.67829511053606,0.156757232353463,0.717873883859662));
#1334=DIRECTION('',(0.726859933128087,0.,0.686785729040021));
#1335=DIRECTION('',(-0.67829511053606,0.156757232353463,0.717873883859662));
#1336=DIRECTION('',(-0.67829511053606,0.156757232353463,0.717873883859662));
#1337=DIRECTION('',(-0.463943742821525,0.666241779887195,-0.583847663547177));
#1338=DIRECTION('',(0.,0.659070947358674,0.752080771159414));
#1339=DIRECTION('',(-0.67829511053606,0.156757232353463,0.717873883859662));
#1340=DIRECTION('',(-0.67829511053606,0.156757232353463,0.717873883859662));
#1341=DIRECTION('',(0.726859933128087,0.,0.686785729040021));
#1342=DIRECTION('',(-0.67829511053606,0.156757232353463,0.717873883859662));
#1343=DIRECTION('',(-0.212003782498194,0.893680081887517,-0.395462144135162));
#1344=DIRECTION('',(0.,0.404660545553129,0.914466971996607));
#1345=DIRECTION('',(-0.67829511053606,0.156757232353463,0.717873883859662));
#1346=DIRECTION('',(-0.67829511053606,0.156757232353463,0.717873883859662));
#1347=DIRECTION('',(0.726859933128087,0.,0.686785729040021));
#1348=DIRECTION('',(-0.67829511053606,0.156757232353463,0.717873883859662));
#1349=DIRECTION('',(-0.67829511053606,0.156757232353463,0.717873883859662));
#1350=DIRECTION('',(0.726859933128087,0.,0.686785729040021));
#1351=DIRECTION('',(-0.67829511053606,0.156757232353463,0.717873883859662));
#1352=DIRECTION('',(0.730735988090976,0.0414265398289753,0.681402052760706));
#1353=DIRECTION('',(0.681987503273761,0.,-0.731363825587799));
#1354=DIRECTION('',(-0.67829511053606,0.156757232353463,0.717873883859662));
#1355=DIRECTION('',(0.0598448421102688,0.985518643024237,-0.158655599095853));
#1356=DIRECTION('',(0.,0.158940469489879,0.987288168245896));
#1357=DIRECTION('',(-0.67829511053606,0.156757232353463,0.717873883859662));
#1358=DIRECTION('',(-0.730735988090975,-0.041426539828964,-0.681402052760708));
#1359=DIRECTION('',(-0.681987503273763,0.,0.731363825587798));
#1360=DIRECTION('',(-0.67829511053606,0.156757232353463,0.717873883859662));
#1361=DIRECTION('',(-0.67829511053606,0.156757232353463,0.717873883859662));
#1362=DIRECTION('',(0.726859933128087,0.,0.686785729040021));
#1363=DIRECTION('',(-0.67829511053606,0.156757232353463,0.717873883859662));
#1364=DIRECTION('',(-0.67829511053606,0.156757232353463,0.717873883859662));
#1365=DIRECTION('',(0.726859933128087,0.,0.686785729040021));
#1366=DIRECTION('',(-0.67829511053606,0.156757232353463,0.717873883859662));
#1367=DIRECTION('',(-0.438949203752389,0.697051772839082,-0.566958924885248));
#1368=DIRECTION('',(0.,0.630997695410646,0.775784704919125));
#1369=DIRECTION('',(-0.67829511053606,0.156757232353463,0.717873883859662));
#1370=DIRECTION('',(-0.67829511053606,0.156757232353463,0.717873883859662));
#1371=DIRECTION('',(0.726859933128087,0.,0.686785729040021));
#1372=DIRECTION('',(-0.67829511053606,0.156757232353463,0.717873883859662));
#1373=DIRECTION('',(-0.260348633468623,0.862326160404178,-0.434295040420229));
#1374=DIRECTION('',(0.,0.449806772840231,0.893125896560534));
#1375=DIRECTION('',(-0.67829511053606,0.156757232353463,0.717873883859662));
#1376=DIRECTION('',(-0.67829511053606,0.156757232353463,0.717873883859662));
#1377=DIRECTION('',(0.726859933128087,0.,0.686785729040021));
#1378=DIRECTION('',(-0.67829511053606,0.156757232353463,0.717873883859662));
#1379=DIRECTION('',(0.689840179156465,0.472314200262439,0.54867096100653));
#1380=DIRECTION('',(0.62247802053329,0.,-0.782637281218418));
#1381=DIRECTION('',(-0.678295110536062,0.15675723235347,0.717873883859659));
#1382=DIRECTION('',(0.253053888024364,-0.867379078797346,0.428505849925552));
#1383=DIRECTION('',(-0.67829511053606,0.156757232353463,0.717873883859662));
#1384=DIRECTION('',(0.726859933128087,0.,0.686785729040021));
#1385=DIRECTION('',(-0.23228800445738,-0.972621160674184,-0.00709653394344324));
#1386=DIRECTION('',(0.972645652586224,-0.232293853782485,0.));
#1387=DIRECTION('',(0.697106897118195,-0.171567036209698,0.696137002375583));
#1388=DIRECTION('',(0.697106897118195,-0.171567036209698,0.696137002375583));
#1389=DIRECTION('',(-0.67829511053606,0.156757232353463,0.717873883859662));
#1390=DIRECTION('',(-0.67829511053606,0.156757232353463,0.717873883859662));
#1391=DIRECTION('',(0.726859933128087,0.,0.686785729040021));
#1392=DIRECTION('',(-0.678295110536061,0.156757232353463,0.717873883859663));
#1393=DIRECTION('',(-0.662207656110453,-0.5537948497127,-0.504769536145347));
#1394=DIRECTION('',(-0.678295110536061,0.156757232353463,0.717873883859663));
#1395=DIRECTION('',(-0.662207656110453,-0.5537948497127,-0.504769536145347));
#1396=DIRECTION('',(-0.67829511053606,0.156757232353463,0.717873883859662));
#1397=DIRECTION('',(0.284568334982241,-0.844696931271245,0.453329854550057));
#1398=DIRECTION('',(0.,-0.472880750648567,-0.881126435686757));
#1399=DIRECTION('',(0.677448600136723,0.511775599645048,0.528345653697223));
#1400=DIRECTION('',(0.677448600136723,0.511775599645048,0.528345653697223));
#1401=DIRECTION('',(-0.67829511053606,0.156757232353463,0.717873883859662));
#1402=DIRECTION('',(-0.67829511053606,0.156757232353463,0.717873883859662));
#1403=DIRECTION('',(0.726859933128087,0.,0.686785729040021));
#1404=DIRECTION('',(-0.678295110536061,0.156757232353463,0.717873883859663));
#1405=DIRECTION('',(-0.662207656110453,-0.553794849712699,-0.504769536145347));
#1406=DIRECTION('',(-0.678295110536061,0.156757232353463,0.717873883859663));
#1407=DIRECTION('',(-0.662207656110453,-0.553794849712699,-0.504769536145347));
#1408=DIRECTION('',(-0.67829511053606,0.156757232353463,0.717873883859662));
#1409=DIRECTION('',(0.438349987625763,-0.697762628516554,0.566547970249796));
#1410=DIRECTION('',(0.,-0.630335133738158,-0.776323140950532));
#1411=DIRECTION('',(0.589716059957135,0.698966726211307,0.404574448375179));
#1412=DIRECTION('',(0.589716059957135,0.698966726211307,0.404574448375179));
#1413=DIRECTION('',(-0.67829511053606,0.156757232353463,0.717873883859662));
#1414=DIRECTION('',(-0.67829511053606,0.156757232353463,0.717873883859662));
#1415=DIRECTION('',(0.726859933128087,0.,0.686785729040021));
#1416=DIRECTION('',(0.678295110536061,-0.156757232353463,-0.717873883859663));
#1417=DIRECTION('',(-0.662207656110453,-0.553794849712699,-0.504769536145347));
#1418=DIRECTION('',(0.678295110536061,-0.156757232353463,-0.717873883859663));
#1419=DIRECTION('',(-0.662207656110453,-0.553794849712699,-0.504769536145347));
#1420=DIRECTION('',(-0.67829511053606,0.156757232353463,0.717873883859662));
#1421=DIRECTION('',(-0.67829511053606,0.156757232353463,0.717873883859662));
#1422=DIRECTION('',(0.726859933128087,0.,0.686785729040021));
#1423=DIRECTION('',(-0.678295110536124,0.156757232352721,0.717873883859764));
#1424=DIRECTION('',(0.728911012985184,0.0202127642043148,0.684310002346988));
#1425=DIRECTION('',(-0.678295110536124,0.156757232352721,0.717873883859764));
#1426=DIRECTION('',(0.728911012985184,0.0202127642043148,0.684310002346988));
#1427=DIRECTION('',(-0.67829511053606,0.156757232353463,0.717873883859662));
#1428=DIRECTION('',(-0.67829511053606,0.156757232353463,0.717873883859662));
#1429=DIRECTION('',(0.726859933128087,0.,0.686785729040021));
#1430=DIRECTION('',(-0.678295110536061,0.156757232353463,0.717873883859663));
#1431=DIRECTION('',(-0.662207656110453,-0.553794849712699,-0.504769536145347));
#1432=DIRECTION('',(-0.678295110536061,0.156757232353463,0.717873883859663));
#1433=DIRECTION('',(-0.662207656110453,-0.553794849712699,-0.504769536145347));
#1434=DIRECTION('',(-0.67829511053606,0.156757232353463,0.717873883859662));
#1435=DIRECTION('',(0.211408982496133,-0.894035166273799,0.394977674794072));
#1436=DIRECTION('',(0.,-0.404111529329486,-0.914709720000277));
#1437=DIRECTION('',(0.703720104262217,0.419676412931039,0.573279794940055));
#1438=DIRECTION('',(0.703720104262217,0.419676412931039,0.573279794940055));
#1439=DIRECTION('',(-0.67829511053606,0.156757232353463,0.717873883859662));
#1440=DIRECTION('',(-0.67829511053606,0.156757232353463,0.717873883859662));
#1441=DIRECTION('',(0.726859933128087,0.,0.686785729040021));
#1442=DIRECTION('',(-0.678295110536061,0.156757232353463,0.717873883859663));
#1443=DIRECTION('',(-0.662207656110453,-0.553794849712699,-0.504769536145347));
#1444=DIRECTION('',(-0.678295110536061,0.156757232353463,0.717873883859663));
#1445=DIRECTION('',(-0.662207656110453,-0.553794849712699,-0.504769536145347));
#1446=DIRECTION('',(-0.67829511053606,0.156757232353463,0.717873883859662));
#1447=DIRECTION('',(0.651259847411321,-0.324154814859338,0.686137207235762));
#1448=DIRECTION('',(0.725300499264049,0.,-0.688432411909347));
#1449=DIRECTION('',(0.340259245535893,0.932925948887902,0.117782934752676));
#1450=DIRECTION('',(0.340259245535893,0.932925948887902,0.117782934752676));
#1451=DIRECTION('',(-0.678295110536061,0.156757232353463,0.717873883859663));
#1452=DIRECTION('',(0.726859933128087,0.,0.686785729040021));
#1453=DIRECTION('',(-0.678295110536061,0.156757232353463,0.717873883859663));
#1454=DIRECTION('',(0.726859933128087,0.,0.686785729040021));
#1455=DIRECTION('',(-0.678295110536061,0.15675723235347,0.71787388385966));
#1456=DIRECTION('',(0.726859933128086,0.,0.686785729040022));
#1457=DIRECTION('',(-0.253053888024368,0.86737907879735,-0.428505849925542));
#1458=DIRECTION('',(-0.683926737168346,-0.491854461322644,-0.53881667296333));
#1459=DIRECTION('',(0.683920511372135,0.49187431006339,0.538806456182682));
#1460=DIRECTION('',(-0.689840179156467,-0.472314200262435,-0.548670961006531));
#1461=DIRECTION('',(-0.62247802053329,0.,0.782637281218418));
#1462=DIRECTION('',(-0.689840179156467,-0.472314200262435,-0.548670961006531));
#1463=DIRECTION('',(-0.253053888024359,0.867379078797348,-0.428505849925552));
#1464=DIRECTION('',(0.678295110536061,-0.15675723235347,-0.71787388385966));
#1465=DIRECTION('',(-0.268641912490618,0.856438458503975,-0.440845426026762));
#1466=DIRECTION('',(0.,0.457669295828508,0.889122497553536));
#1467=DIRECTION('',(0.683926737168346,0.491854461322644,0.53881667296333));
#1468=DIRECTION('',(0.618847639516582,0.,-0.785511043248123));
#1469=DIRECTION('',(-0.268641912490618,0.856438458503975,-0.440845426026762));
#1470=DIRECTION('',(0.,0.457669295828508,0.889122497553536));
#1471=DIRECTION('',(0.683920511372135,0.49187431006339,0.538806456182682));
#1472=DIRECTION('',(-0.678295110536061,0.15675723235347,0.71787388385966));
#1473=DIRECTION('',(0.726859933128086,0.,0.686785729040022));
#1474=CARTESIAN_POINT('',(0.,0.,0.));
#1475=CARTESIAN_POINT('',(-3.18707546898436,-45.6843316383491,-178.089368009664));
#1476=CARTESIAN_POINT('',(16.7076444685384,-26.6294157698448,-163.452402351658));
#1477=CARTESIAN_POINT('',(18.8155382746099,-26.6294157698448,-161.460723737442));
#1478=CARTESIAN_POINT('',(-4.10409343722605,-45.8280285910613,-178.924449604085));
#1479=CARTESIAN_POINT('',(-4.10409343722718,-45.828028591061,-178.924449604084));
#1480=CARTESIAN_POINT('',(-3.96002735298472,-46.3218360895779,-178.680496980574));
#1481=CARTESIAN_POINT('',(-3.08291794480187,-45.1288584055519,-178.112247943882));
#1482=CARTESIAN_POINT('',(-2.69752194726855,-46.4053661650141,-177.469357800398));
#1483=CARTESIAN_POINT('',(0.584065801638004,-44.1058980269061,-174.870814092923));
#1484=CARTESIAN_POINT('',(0.584065801637993,-44.1058980269061,-174.870814092924));
#1485=CARTESIAN_POINT('',(-1.8106993388554,-36.1739622945822,-178.865590672432));
#1486=CARTESIAN_POINT('',(2.22688763668848,-42.5856544339817,-173.6505317289));
#1487=CARTESIAN_POINT('',(12.2644353712259,-30.6674751465809,-166.768879030013));
#1488=CARTESIAN_POINT('',(12.2644353712259,-30.6674751465809,-166.768879030013));
#1489=CARTESIAN_POINT('',(10.9352265630182,-28.556690234992,-168.485721868335));
#1490=CARTESIAN_POINT('',(13.1464083778581,-27.7913102282669,-166.563580677545));
#1491=CARTESIAN_POINT('',(16.6513980805399,-26.5780906620427,-163.516755203674));
#1492=CARTESIAN_POINT('',(15.4625561189023,-22.3971465046451,-165.553016666005));
#1493=CARTESIAN_POINT('',(15.5831569281697,-20.8531441419226,-165.776218263775));
#1494=CARTESIAN_POINT('',(15.5831569281697,-20.8531441419226,-165.776218263775));
#1495=CARTESIAN_POINT('',(16.6819844612615,-20.7561358339017,-164.759155788661));
#1496=CARTESIAN_POINT('',(16.6819844612615,-20.7561358339017,-164.759155788661));
#1497=CARTESIAN_POINT('',(16.5925733728951,-21.9008290787474,-164.593678476336));
#1498=CARTESIAN_POINT('',(16.5925733728945,-21.9008290787476,-164.593678476337));
#1499=CARTESIAN_POINT('',(16.6513980805399,-26.5780906620427,-163.516755203674));
#1500=CARTESIAN_POINT('',(20.1657640235011,-25.4895778774257,-160.433839061986));
#1501=CARTESIAN_POINT('',(21.2815951015341,-25.1439689073796,-159.454995737843));
#1502=CARTESIAN_POINT('',(21.6046946257314,-26.5059616314711,-158.852300686356));
#1503=CARTESIAN_POINT('',(27.9076925187146,-22.7393274429594,-153.719302279952));
#1504=CARTESIAN_POINT('',(27.9076925187092,-22.7393274429604,-153.719302279955));
#1505=CARTESIAN_POINT('',(27.3034817385933,-20.1923392095786,-154.846369390737));
#1506=CARTESIAN_POINT('',(28.840326839512,-17.9982903291343,-153.873355184257));
#1507=CARTESIAN_POINT('',(30.0213943352447,-16.4870831342138,-153.087395891315));
#1508=CARTESIAN_POINT('',(30.0213943352435,-16.4870831342136,-153.087395891314));
#1509=CARTESIAN_POINT('',(27.0658236309609,-20.1323667134228,-155.084020402617));
#1510=CARTESIAN_POINT('',(28.1876804694897,-24.6655154583928,-153.034142433118));
#1511=CARTESIAN_POINT('',(17.8749736789238,-30.8156876181206,-161.435304199515));
#1512=CARTESIAN_POINT('',(17.8749736789237,-30.8156876181206,-161.435304199515));
#1513=CARTESIAN_POINT('',(16.6910833769454,-25.8090906869873,-163.647179178362));
#1514=CARTESIAN_POINT('',(15.9407914549617,-31.3362114662735,-163.149185279815));
#1515=CARTESIAN_POINT('',(17.0796274079726,-22.9468317119998,-163.905068875823));
#1516=CARTESIAN_POINT('',(15.206435734946,-31.2377611710056,-163.864551448773));
#1517=CARTESIAN_POINT('',(14.4789916962941,-34.4574995975019,-163.848816721146));
#1518=CARTESIAN_POINT('',(13.0320291326483,-32.1542341012645,-165.718951833732));
#1519=CARTESIAN_POINT('',(3.36352192032043,-43.6139268117572,-172.352027033216));
#1520=CARTESIAN_POINT('',(3.36352192032053,-43.6139268117572,-172.352027033216));
#1521=CARTESIAN_POINT('',(-2.48523030258536,-34.303921474011,-179.911280583852));
#1522=CARTESIAN_POINT('',(1.31166653505509,-45.5744203765278,-173.862657179366));
#1523=CARTESIAN_POINT('',(-2.3039312944001,-48.3058080376419,-176.682480555946));
#1524=CARTESIAN_POINT('',(-2.30393129439918,-48.3058080376433,-176.682480555947));
#1525=CARTESIAN_POINT('',(-3.18707546898436,-45.6843316383491,-178.089368009664));
#1526=CARTESIAN_POINT('',(-5.28803984718062,-47.2769401089426,-179.726732169993));
#1527=CARTESIAN_POINT('',(-3.94466823114837,-46.3107898388356,-178.668396752742));
#1528=CARTESIAN_POINT('',(-7.25684613220072,-44.7437882442283,-173.782124706505));
#1529=CARTESIAN_POINT('',(12.637873805322,-25.688872375724,-159.1451590485));
#1530=CARTESIAN_POINT('',(14.7457676113935,-25.688872375724,-157.153480434284));
#1531=CARTESIAN_POINT('',(-8.15960615299379,-45.3618826813647,-174.500143492788));
#1532=CARTESIAN_POINT('',(-10.0551541925747,-38.8666548557064,-177.708330277389));
#1533=CARTESIAN_POINT('',(-8.13241251351404,-45.4550928436161,-174.454095460534));
#1534=CARTESIAN_POINT('',(-7.23596202971088,-44.8103673881073,-173.747853579659));
#1535=CARTESIAN_POINT('',(-9.35781051039699,-46.3363967148218,-175.419488866835));
#1536=CARTESIAN_POINT('',(-7.25684613220072,-44.7437882442283,-173.782124706505));
#1537=CARTESIAN_POINT('',(-6.37370195761555,-47.3652646435225,-172.375237252789));
#1538=CARTESIAN_POINT('',(-6.37370195761646,-47.3652646435211,-172.375237252788));
#1539=CARTESIAN_POINT('',(-2.75810412816127,-44.633876982407,-169.555413876208));
#1540=CARTESIAN_POINT('',(-6.55500096580172,-33.3633780798902,-175.604037280694));
#1541=CARTESIAN_POINT('',(-0.70624874289583,-42.6733834176364,-168.044783730058));
#1542=CARTESIAN_POINT('',(-0.706248742895937,-42.6733834176364,-168.044783730058));
#1543=CARTESIAN_POINT('',(8.96225846943197,-31.2136907071437,-161.411708530574));
#1544=CARTESIAN_POINT('',(10.4092210330777,-33.5169562033811,-159.541573417988));
#1545=CARTESIAN_POINT('',(11.1366650717296,-30.2972177768848,-159.557308145615));
#1546=CARTESIAN_POINT('',(13.0098567447563,-22.0062883178791,-159.597825572665));
#1547=CARTESIAN_POINT('',(11.8710207917453,-30.3956680721527,-158.841941976657));
#1548=CARTESIAN_POINT('',(12.621312713729,-24.8685472928666,-159.339935875204));
#1549=CARTESIAN_POINT('',(13.8052030157074,-29.8751442239999,-157.128060896357));
#1550=CARTESIAN_POINT('',(13.8052030157074,-29.8751442239999,-157.128060896357));
#1551=CARTESIAN_POINT('',(24.1179098062733,-23.724972064272,-148.72689912996));
#1552=CARTESIAN_POINT('',(22.9960529677445,-19.191823319302,-150.776777099459));
#1553=CARTESIAN_POINT('',(25.9516236720272,-15.5465397400928,-148.780152588156));
#1554=CARTESIAN_POINT('',(25.9516236720283,-15.5465397400931,-148.780152588157));
#1555=CARTESIAN_POINT('',(24.7705561762956,-17.0577469350136,-149.566111881099));
#1556=CARTESIAN_POINT('',(23.2337110753769,-19.2517958154578,-150.539126087579));
#1557=CARTESIAN_POINT('',(23.8379218554928,-21.7987840488396,-149.412058976797));
#1558=CARTESIAN_POINT('',(23.8379218554982,-21.7987840488387,-149.412058976794));
#1559=CARTESIAN_POINT('',(17.534923962515,-25.5654182373503,-154.545057383198));
#1560=CARTESIAN_POINT('',(17.2118244383178,-24.2034255132588,-155.147752434685));
#1561=CARTESIAN_POINT('',(16.0959933602848,-24.5490344833049,-156.126595758828));
#1562=CARTESIAN_POINT('',(12.5816274173235,-25.637547267922,-159.209511900516));
#1563=CARTESIAN_POINT('',(12.5228027096782,-20.9602856846268,-160.286435173179));
#1564=CARTESIAN_POINT('',(12.5228027096788,-20.9602856846267,-160.286435173178));
#1565=CARTESIAN_POINT('',(12.6122137980452,-19.8155924397809,-160.451912485503));
#1566=CARTESIAN_POINT('',(12.6122137980452,-19.8155924397809,-160.451912485503));
#1567=CARTESIAN_POINT('',(11.5133862649533,-19.9126007478018,-161.468974960617));
#1568=CARTESIAN_POINT('',(11.5133862649533,-19.9126007478018,-161.468974960617));
#1569=CARTESIAN_POINT('',(11.3927854556859,-21.4566031105243,-161.245773362847));
#1570=CARTESIAN_POINT('',(12.5816274173235,-25.637547267922,-159.209511900516));
#1571=CARTESIAN_POINT('',(9.07663771464176,-26.8507668341461,-162.256337374387));
#1572=CARTESIAN_POINT('',(6.86545589980182,-27.6161468408712,-164.178478565177));
#1573=CARTESIAN_POINT('',(8.19466470800953,-29.7269317524601,-162.461635726855));
#1574=CARTESIAN_POINT('',(8.19466470800953,-29.7269317524602,-162.461635726855));
#1575=CARTESIAN_POINT('',(-1.84288302652788,-41.6451110398609,-169.343288425742));
#1576=CARTESIAN_POINT('',(-5.88047000207176,-35.2334189004614,-174.558347369274));
#1577=CARTESIAN_POINT('',(-3.48570486157837,-43.1653546327853,-170.563570789766));
#1578=CARTESIAN_POINT('',(-3.48570486157836,-43.1653546327853,-170.563570789765));
#1579=CARTESIAN_POINT('',(-6.76729261048492,-45.4648227708933,-173.16211449724));
#1580=CARTESIAN_POINT('',(-7.15268860801824,-44.1883150114311,-173.805004640724));
#1581=CARTESIAN_POINT('',(-8.17386410044354,-44.8874851969402,-174.617206300926));
#1582=CARTESIAN_POINT('',(-8.17386410044346,-44.8874851969402,-174.617206300926));
#1583=CARTESIAN_POINT('',(-9.95350097841285,-38.7875204508614,-177.63073365238));
#1584=CARTESIAN_POINT('',(-9.27751317321949,-38.3013753716971,-177.098171492777));
#1585=CARTESIAN_POINT('',(-2.48523030258536,-34.303921474011,-179.911280583852));
#1586=CARTESIAN_POINT('',(3.36352192032053,-43.6139268117572,-172.352027033216));
#1587=CARTESIAN_POINT('',(1.80344316600801,-43.2533851773258,-170.700917100255));
#1588=CARTESIAN_POINT('',(-4.04530905681836,-33.943379839598,-178.260170650975));
#1589=CARTESIAN_POINT('',(-0.248412219257296,-45.2138787420965,-172.211547246405));
#1590=CARTESIAN_POINT('',(1.31166653505509,-45.5744203765278,-173.862657179366));
#1591=CARTESIAN_POINT('',(3.36352192032043,-43.6139268117572,-172.352027033216));
#1592=CARTESIAN_POINT('',(13.0320291326483,-32.1542341012645,-165.718951833732));
#1593=CARTESIAN_POINT('',(11.4719503783359,-31.7936924668332,-164.067841900771));
#1594=CARTESIAN_POINT('',(11.4719503784154,-31.7936924668515,-164.067841900855));
#1595=CARTESIAN_POINT('',(14.4789916962941,-34.4574995975019,-163.848816721146));
#1596=CARTESIAN_POINT('',(15.206435734946,-31.2377611710056,-163.864551448773));
#1597=CARTESIAN_POINT('',(13.6463569806336,-30.8772195365743,-162.213441515812));
#1598=CARTESIAN_POINT('',(12.9189129420612,-34.0969579630889,-162.197706788268));
#1599=CARTESIAN_POINT('',(17.0796274079726,-22.9468317119998,-163.905068875823));
#1600=CARTESIAN_POINT('',(15.9407914549617,-31.3362114662735,-163.149185279815));
#1601=CARTESIAN_POINT('',(14.3807127006493,-30.9756698318422,-161.498075346854));
#1602=CARTESIAN_POINT('',(15.5195486537397,-22.5862900775868,-162.253958942946));
#1603=CARTESIAN_POINT('',(16.6910833769454,-25.8090906869873,-163.647179178362));
#1604=CARTESIAN_POINT('',(17.8749736789237,-30.8156876181206,-161.435304199515));
#1605=CARTESIAN_POINT('',(16.3148949246113,-30.4551459836893,-159.784194266554));
#1606=CARTESIAN_POINT('',(15.1310046227124,-25.4485490525743,-161.996069245485));
#1607=CARTESIAN_POINT('',(17.8749736789238,-30.8156876181206,-161.435304199515));
#1608=CARTESIAN_POINT('',(28.1876804694897,-24.6655154583928,-153.034142433118));
#1609=CARTESIAN_POINT('',(26.6276017151773,-24.3049738239615,-151.383032500157));
#1610=CARTESIAN_POINT('',(26.6276017152567,-24.3049738239798,-151.383032500241));
#1611=CARTESIAN_POINT('',(-10.7683262219474,-38.696722488173,-176.957809347855));
#1612=CARTESIAN_POINT('',(-5.88373031519638,-39.7280638449823,-181.937976955538));
#1613=CARTESIAN_POINT('',(-5.23934996018573,-39.8769832157184,-182.619957145206));
#1614=CARTESIAN_POINT('',(-5.34196533765887,-39.9507803470008,-182.700800418732));
#1615=CARTESIAN_POINT('',(-6.60697646406467,-40.8605289097192,-183.697411677432));
#1616=CARTESIAN_POINT('',(-7.25135681907231,-40.7116095389838,-183.015431487767));
#1617=CARTESIAN_POINT('',(-11.319578160432,-39.776159011811,-178.706439010108));
#1618=CARTESIAN_POINT('',(-11.3211274822876,-39.7710661448632,-178.70818818461));
#1619=CARTESIAN_POINT('',(-10.8995070402405,-39.4678525342004,-178.376023770659));
#1620=CARTESIAN_POINT('',(-10.4778865981935,-39.1646389235375,-178.043859356708));
#1621=CARTESIAN_POINT('',(-10.0562661561464,-38.8614253128747,-177.711694942756));
#1622=CARTESIAN_POINT('',(-7.25135681907232,-40.7116095389837,-183.015431487767));
#1623=CARTESIAN_POINT('',(-5.32218575666698,-47.1696994169352,-179.782412921753));
#1624=CARTESIAN_POINT('',(-4.67780540165772,-47.3186187876711,-180.46439311142));
#1625=CARTESIAN_POINT('',(-10.1041662859462,-46.0645609288433,-174.721402040543));
#1626=CARTESIAN_POINT('',(-12.0333373483515,-39.6064710508918,-177.954420606556));
#1627=CARTESIAN_POINT('',(-11.723615970026,-40.6432938279507,-177.435371266699));
#1628=CARTESIAN_POINT('',(-10.9096618373824,-40.8314025067749,-178.296819927331));
#1629=CARTESIAN_POINT('',(-6.60697646406306,-40.8605289097196,-183.697411677434));
#1630=CARTESIAN_POINT('',(-3.18707546898436,-45.6843316383491,-178.089368009664));
#1631=CARTESIAN_POINT('',(-2.54269511397523,-45.833251009085,-178.77134819933));
#1632=CARTESIAN_POINT('',(-4.64365949217138,-47.4258594796784,-180.408712359659));
#1633=CARTESIAN_POINT('',(-10.0700203764599,-46.1718016208506,-174.665721288782));
#1634=CARTESIAN_POINT('',(-2.30393129439918,-48.3058080376433,-176.682480555947));
#1635=CARTESIAN_POINT('',(-10.0700203764599,-46.1718016208506,-174.665721288782));
#1636=CARTESIAN_POINT('',(-10.0700203764599,-46.1718016208506,-174.665721288782));
#1637=CARTESIAN_POINT('',(-7.96905599826373,-44.5791931502572,-173.028357128453));
#1638=CARTESIAN_POINT('',(-2.3039312944001,-48.3058080376419,-176.682480555946));
#1639=CARTESIAN_POINT('',(-1.26585488498194,-44.9787428935847,-171.1347364207));
#1640=CARTESIAN_POINT('',(-1.26585488506139,-44.9787428935663,-171.134736420616));
#1641=CARTESIAN_POINT('',(-4.87392110867276,-47.7044408358669,-173.948685859134));
#1642=CARTESIAN_POINT('',(1.31166653505509,-45.5744203765278,-173.862657179366));
#1643=CARTESIAN_POINT('',(-0.24841221917785,-45.2138787421149,-172.211547246489));
#1644=CARTESIAN_POINT('',(-3.85647844286867,-47.9395766843971,-175.025496684924));
#1645=CARTESIAN_POINT('',(-3.85647844286867,-47.9395766843971,-175.025496684924));
#1646=CARTESIAN_POINT('',(-2.48523030258536,-34.303921474011,-179.911280583852));
#1647=CARTESIAN_POINT('',(-5.06275172262245,-33.7082439910678,-177.183359825186));
#1648=CARTESIAN_POINT('',(0.786000500203908,-43.0182493287956,-169.624106274465));
#1649=CARTESIAN_POINT('',(3.36352192032053,-43.6139268117572,-172.352027033216));
#1650=CARTESIAN_POINT('',(3.36352192032043,-43.6139268117572,-172.352027033216));
#1651=CARTESIAN_POINT('',(10.4545077126113,-31.5585566183213,-162.991031075066));
#1652=CARTESIAN_POINT('',(10.4545077125319,-31.558556618303,-162.991031074982));
#1653=CARTESIAN_POINT('',(13.0320291326483,-32.1542341012645,-165.718951833732));
#1654=CARTESIAN_POINT('',(14.4789916962941,-34.4574995975019,-163.848816721146));
#1655=CARTESIAN_POINT('',(11.9014702762571,-33.8618221145587,-161.120895962479));
#1656=CARTESIAN_POINT('',(12.6289143148295,-30.6420836880441,-161.136630690022));
#1657=CARTESIAN_POINT('',(15.206435734946,-31.2377611710056,-163.864551448773));
#1658=CARTESIAN_POINT('',(17.0796274079726,-22.9468317119998,-163.905068875823));
#1659=CARTESIAN_POINT('',(14.5021059879356,-22.3511542290566,-161.177148117157));
#1660=CARTESIAN_POINT('',(13.3632700348452,-30.740533983312,-160.421264521065));
#1661=CARTESIAN_POINT('',(15.9407914549617,-31.3362114662735,-163.149185279815));
#1662=CARTESIAN_POINT('',(16.6910833769454,-25.8090906869873,-163.647179178362));
#1663=CARTESIAN_POINT('',(14.1135619569083,-25.2134132040441,-160.919258419695));
#1664=CARTESIAN_POINT('',(15.2974522588867,-30.2200101351775,-158.707383440848));
#1665=CARTESIAN_POINT('',(17.8749736789237,-30.8156876181206,-161.435304199515));
#1666=CARTESIAN_POINT('',(17.8749736789238,-30.8156876181206,-161.435304199515));
#1667=CARTESIAN_POINT('',(25.6101590494526,-24.0698379754497,-150.306221674451));
#1668=CARTESIAN_POINT('',(25.6101590493732,-24.0698379754313,-150.306221674367));
#1669=CARTESIAN_POINT('',(28.1876804694897,-24.6655154583928,-153.034142433118));
#1670=CARTESIAN_POINT('',(27.0658236309609,-20.1323667134228,-155.084020402617));
#1671=CARTESIAN_POINT('',(26.6276017152567,-24.3049738239798,-151.383032500241));
#1672=CARTESIAN_POINT('',(30.0213943352435,-16.4870831342136,-153.087395891314));
#1673=CARTESIAN_POINT('',(30.0213943352447,-16.4870831342138,-153.087395891315));
#1674=CARTESIAN_POINT('',(28.840326839512,-17.9982903291343,-153.873355184257));
#1675=CARTESIAN_POINT('',(27.3034817385933,-20.1923392095786,-154.846369390737));
#1676=CARTESIAN_POINT('',(27.9076925187092,-22.7393274429604,-153.719302279955));
#1677=CARTESIAN_POINT('',(27.9076925187146,-22.7393274429594,-153.719302279952));
#1678=CARTESIAN_POINT('',(21.6046946257314,-26.5059616314711,-158.852300686356));
#1679=CARTESIAN_POINT('',(21.2815951015341,-25.1439689073796,-159.454995737843));
#1680=CARTESIAN_POINT('',(20.1657640235011,-25.4895778774257,-160.433839061986));
#1681=CARTESIAN_POINT('',(16.6513980805399,-26.5780906620427,-163.516755203674));
#1682=CARTESIAN_POINT('',(16.5925733728945,-21.9008290787476,-164.593678476337));
#1683=CARTESIAN_POINT('',(16.5925733728951,-21.9008290787474,-164.593678476336));
#1684=CARTESIAN_POINT('',(16.6819844612615,-20.7561358339017,-164.759155788661));
#1685=CARTESIAN_POINT('',(16.6819844612615,-20.7561358339017,-164.759155788661));
#1686=CARTESIAN_POINT('',(15.5831569281697,-20.8531441419226,-165.776218263775));
#1687=CARTESIAN_POINT('',(15.5831569281697,-20.8531441419226,-165.776218263775));
#1688=CARTESIAN_POINT('',(15.4625561189023,-22.3971465046451,-165.553016666005));
#1689=CARTESIAN_POINT('',(16.6513980805399,-26.5780906620427,-163.516755203674));
#1690=CARTESIAN_POINT('',(13.1464083778581,-27.7913102282669,-166.563580677545));
#1691=CARTESIAN_POINT('',(10.9352265630182,-28.556690234992,-168.485721868335));
#1692=CARTESIAN_POINT('',(12.2644353712259,-30.6674751465809,-166.768879030013));
#1693=CARTESIAN_POINT('',(12.2644353712259,-30.6674751465809,-166.768879030013));
#1694=CARTESIAN_POINT('',(2.22688763668848,-42.5856544339817,-173.6505317289));
#1695=CARTESIAN_POINT('',(-1.8106993388554,-36.1739622945822,-178.865590672432));
#1696=CARTESIAN_POINT('',(0.584065801637993,-44.1058980269061,-174.870814092924));
#1697=CARTESIAN_POINT('',(0.584065801638004,-44.1058980269061,-174.870814092923));
#1698=CARTESIAN_POINT('',(-2.69752194726855,-46.4053661650141,-177.469357800398));
#1699=CARTESIAN_POINT('',(-3.08291794480187,-45.1288584055519,-178.112247943882));
#1700=CARTESIAN_POINT('',(-4.10409343722718,-45.828028591061,-178.924449604084));
#1701=CARTESIAN_POINT('',(-4.1040934372271,-45.828028591061,-178.924449604084));
#1702=CARTESIAN_POINT('',(-3.96002735298573,-46.3218360895777,-178.680496980573));
#1703=CARTESIAN_POINT('',(-3.31564699797654,-46.4707554603134,-179.362477170239));
#1704=CARTESIAN_POINT('',(-3.45971308221686,-45.9769479617971,-179.606429793752));
#1705=CARTESIAN_POINT('',(16.7076444685384,-26.6294157698448,-163.452402351658));
#1706=CARTESIAN_POINT('',(-3.85647844286867,-47.9395766843971,-175.025496684924));
#1707=CARTESIAN_POINT('',(-4.87392110867276,-47.7044408358669,-173.948685859134));
#1708=CARTESIAN_POINT('',(-3.38918382728173,-48.0698539109223,-172.466014313844));
#1709=CARTESIAN_POINT('',(-3.85647844286867,-47.9395766843971,-175.025496684924));
#1710=CARTESIAN_POINT('',(-2.37174116147764,-48.3049897594525,-173.542825139633));
#1711=CARTESIAN_POINT('',(-2.37174116147764,-48.3049897594525,-173.542825139633));
#1712=CARTESIAN_POINT('',(-1.81228929643707,-45.9624894496723,-173.525733558948));
#1713=CARTESIAN_POINT('',(-2.82973196224116,-45.7273536011421,-172.448922733159));
#1714=CARTESIAN_POINT('',(-2.14436602553648,-47.7617560007218,-171.357104697891));
#1715=CARTESIAN_POINT('',(-1.81228929643707,-45.9624894496723,-173.525733558948));
#1716=CARTESIAN_POINT('',(-1.12692335973239,-47.996891849252,-172.43391552368));
#1717=CARTESIAN_POINT('',(-1.12692335973239,-47.996891849252,-172.43391552368));
#1718=CARTESIAN_POINT('',(-1.12692335976642,-47.9968918492442,-172.433915523644));
#1719=CARTESIAN_POINT('',(-2.14436602557051,-47.761756000714,-171.357104697855));
#1720=CARTESIAN_POINT('',(-0.696718215006509,-46.6681367561297,-170.228076711611));
#1721=CARTESIAN_POINT('',(-1.12692335976642,-47.9968918492442,-172.433915523644));
#1722=CARTESIAN_POINT('',(0.320724450797582,-46.9032726046599,-171.304887537401));
#1723=CARTESIAN_POINT('',(0.320724450797582,-46.9032726046599,-171.304887537401));
#1724=CARTESIAN_POINT('',(-4.04530905678868,-33.9433798396049,-178.260170651006));
#1725=CARTESIAN_POINT('',(-5.06275172259277,-33.7082439910747,-177.183359825217));
#1726=CARTESIAN_POINT('',(1.66270047556451,-44.4137745858539,-168.491010334081));
#1727=CARTESIAN_POINT('',(-4.04530905678868,-33.9433798396049,-178.260170651006));
#1728=CARTESIAN_POINT('',(2.6801431413686,-44.6489104343841,-169.567821159871));
#1729=CARTESIAN_POINT('',(2.6801431413686,-44.6489104343841,-169.567821159871));
#1730=CARTESIAN_POINT('',(2.68014314133901,-44.6489104343773,-169.567821159839));
#1731=CARTESIAN_POINT('',(1.66270047553491,-44.4137745858471,-168.49101033405));
#1732=CARTESIAN_POINT('',(11.3312076878628,-32.9540818753544,-161.857935134566));
#1733=CARTESIAN_POINT('',(2.68014314133901,-44.6489104343773,-169.567821159839));
#1734=CARTESIAN_POINT('',(12.3486503536669,-33.1892177238846,-162.934745960356));
#1735=CARTESIAN_POINT('',(12.3486503536669,-33.1892177238846,-162.934745960356));
#1736=CARTESIAN_POINT('',(12.9189129420611,-34.0969579630889,-162.197706788268));
#1737=CARTESIAN_POINT('',(11.901470276257,-33.8618221145587,-161.120895962479));
#1738=CARTESIAN_POINT('',(12.1881633330202,-32.5928906195932,-161.127097177859));
#1739=CARTESIAN_POINT('',(12.9189129420611,-34.0969579630889,-162.197706788268));
#1740=CARTESIAN_POINT('',(13.2056059988243,-32.8280264681234,-162.203908003649));
#1741=CARTESIAN_POINT('',(13.2056059988243,-32.8280264681234,-162.203908003649));
#1742=CARTESIAN_POINT('',(15.5195486537345,-22.5862900775857,-162.25395894294));
#1743=CARTESIAN_POINT('',(14.5021059879304,-22.3511542290555,-161.177148117151));
#1744=CARTESIAN_POINT('',(13.0953086342162,-32.7145056902182,-160.243409557382));
#1745=CARTESIAN_POINT('',(15.5195486537345,-22.5862900775857,-162.25395894294));
#1746=CARTESIAN_POINT('',(14.1127513000203,-32.9496415387484,-161.320220383172));
#1747=CARTESIAN_POINT('',(14.1127513000203,-32.9496415387484,-161.320220383172));
#1748=CARTESIAN_POINT('',(15.1310046227125,-25.4485490525744,-161.996069245485));
#1749=CARTESIAN_POINT('',(14.1135619569084,-25.2134132040442,-160.919258419695));
#1750=CARTESIAN_POINT('',(15.720270223879,-32.0080804677251,-157.91742809126));
#1751=CARTESIAN_POINT('',(15.1310046227125,-25.4485490525744,-161.996069245485));
#1752=CARTESIAN_POINT('',(16.7377128896831,-32.2432163162553,-158.99423891705));
#1753=CARTESIAN_POINT('',(16.7377128896831,-32.2432163162553,-158.99423891705));
#1754=CARTESIAN_POINT('',(16.7377128896831,-32.2432163162553,-158.99423891705));
#1755=CARTESIAN_POINT('',(15.720270223879,-32.0080804677251,-157.91742809126));
#1756=CARTESIAN_POINT('',(24.2144618535253,-26.9424132339942,-150.997704743679));
#1757=CARTESIAN_POINT('',(16.7377128896831,-32.2432163162553,-158.99423891705));
#1758=CARTESIAN_POINT('',(25.2319045193294,-27.1775490825244,-152.074515569469));
#1759=CARTESIAN_POINT('',(25.2319045193294,-27.1775490825244,-152.074515569469));
#1760=CARTESIAN_POINT('',(24.9147910455852,-25.8364963331137,-152.66698208166));
#1761=CARTESIAN_POINT('',(23.8973483797811,-25.6013604845835,-151.590171255871));
#1762=CARTESIAN_POINT('',(24.8742381508981,-26.0875927068725,-150.560965445017));
#1763=CARTESIAN_POINT('',(24.9147910455852,-25.8364963331137,-152.66698208166));
#1764=CARTESIAN_POINT('',(25.8916808167022,-26.3227285554027,-151.637776270807));
#1765=CARTESIAN_POINT('',(25.8916808167022,-26.3227285554027,-151.637776270807));
#1766=CARTESIAN_POINT('',(25.8916808167022,-26.3227285554027,-151.637776270806));
#1767=CARTESIAN_POINT('',(24.8742381508981,-26.0875927068725,-150.560965445017));
#1768=CARTESIAN_POINT('',(25.8916808167022,-26.3227285554027,-151.637776270806));
#1769=CARTESIAN_POINT('',(-1.81228929643707,-45.9624894496723,-173.525733558948));
#1770=CARTESIAN_POINT('',(-2.82973196224116,-45.7273536011421,-172.448922733159));
#1771=CARTESIAN_POINT('',(-7.96905599826373,-44.5791931502572,-173.028357128453));
#1772=CARTESIAN_POINT('',(-8.84462237957791,-45.2904977496447,-173.70032788248));
#1773=CARTESIAN_POINT('',(-8.8446223795779,-45.2904977496447,-173.70032788248));
#1774=CARTESIAN_POINT('',(-10.4645835099953,-39.7378448978788,-176.44347016911));
#1775=CARTESIAN_POINT('',(-11.710986073898,-40.6342108802915,-177.425421080164));
#1776=CARTESIAN_POINT('',(-10.0700203764599,-46.1718016208506,-174.665721288782));
#1777=CARTESIAN_POINT('',(-8.84462237957791,-45.2904977496447,-173.70032788248));
#1778=CARTESIAN_POINT('',(-9.650629377351,-39.9259535767032,-177.304918829743));
#1779=CARTESIAN_POINT('',(-8.8446223795779,-45.2904977496447,-173.70032788248));
#1780=CARTESIAN_POINT('',(-10.0700203764599,-46.1718016208506,-174.665721288782));
#1781=CARTESIAN_POINT('',(-8.85341763218672,-39.3526287859496,-176.676853048962));
#1782=CARTESIAN_POINT('',(-10.0700203764599,-46.1718016208506,-174.665721288782));
#1783=CARTESIAN_POINT('',(-4.64365949217138,-47.4258594796784,-180.408712359659));
#1784=CARTESIAN_POINT('',(-2.54269511397523,-45.833251009085,-178.77134819933));
#1785=MECHANICAL_DESIGN_GEOMETRIC_PRESENTATION_REPRESENTATION('',(#1043),
#1786);
#1786=(
GEOMETRIC_REPRESENTATION_CONTEXT(3)
GLOBAL_UNCERTAINTY_ASSIGNED_CONTEXT((#1787))
GLOBAL_UNIT_ASSIGNED_CONTEXT((#1790,#1789,#1788))
REPRESENTATION_CONTEXT('H05','TOP_LEVEL_ASSEMBLY_PART')
);
#1787=UNCERTAINTY_MEASURE_WITH_UNIT(LENGTH_MEASURE(0.005),#1790,
'DISTANCE_ACCURACY_VALUE','Maximum Tolerance applied to model');
#1788=(
NAMED_UNIT(*)
SI_UNIT($,.STERADIAN.)
SOLID_ANGLE_UNIT()
);
#1789=(
NAMED_UNIT(*)
PLANE_ANGLE_UNIT()
SI_UNIT($,.RADIAN.)
);
#1790=(
LENGTH_UNIT()
NAMED_UNIT(*)
SI_UNIT(.MILLI.,.METRE.)
);
#1791=PRODUCT_DEFINITION_SHAPE('','',#1792);
#1792=PRODUCT_DEFINITION('','',#1794,#1793);
#1793=PRODUCT_DEFINITION_CONTEXT('',#1800,'design');
#1794=PRODUCT_DEFINITION_FORMATION_WITH_SPECIFIED_SOURCE('','',#1796,
 .NOT_KNOWN.);
#1795=PRODUCT_RELATED_PRODUCT_CATEGORY('','',(#1796));
#1796=PRODUCT('H05','H05','H05',(#1798));
#1797=PRODUCT_CATEGORY('','');
#1798=PRODUCT_CONTEXT('',#1800,'mechanical');
#1799=APPLICATION_PROTOCOL_DEFINITION('international standard',
'ap242_managed_model_based_3d_engineering',2020,#1800);
#1800=APPLICATION_CONTEXT('managed model based 3d engineering');
ENDSEC;
END-ISO-10303-21;
