ISO-10303-21;
HEADER;
/* Generated by software containing ST-Developer
 * from STEP Tools, Inc. (www.steptools.com) 
 */
/* OPTION: using custom renumber hook */

FILE_DESCRIPTION(
/* description */ (
'CAx-IF Rec.Pracs.---Representation and Presentation of Product Manufa
cturing Information (PMI)---4.0---2014-10-13',
'CAx-IF Rec.Pracs.---3D Tessellated Geometry---0.4---2014-09-14','2;1'),

/* implementation_level */ '2;1');

FILE_NAME(
/* name */ 'M01L-02',
/* time_stamp */ '2026-04-13T01:14:53+03:00',
/* author */ (''),
/* organization */ (''),
/* preprocessor_version */ 'ST-DEVELOPER v18.102',
/* originating_system */ 'SIEMENS PLM Software NX2206.9140',
/* authorisation */ $);

FILE_SCHEMA (('AP242_MANAGED_MODEL_BASED_3D_ENGINEERING_MIM_LF { 1 0 10303 442 3 1 4 }'));
ENDSEC;

DATA;
#10=CONICAL_SURFACE('',#950,3.25,0.785398163397448);
#11=CYLINDRICAL_SURFACE('',#913,3.25);
#12=CYLINDRICAL_SURFACE('',#914,1.15);
#13=CYLINDRICAL_SURFACE('',#916,13.7);
#14=CYLINDRICAL_SURFACE('',#922,13.7);
#15=CYLINDRICAL_SURFACE('',#943,13.7);
#16=CYLINDRICAL_SURFACE('',#956,9.025);
#17=CYLINDRICAL_SURFACE('',#957,13.7);
#18=CYLINDRICAL_SURFACE('',#962,4.875);
#19=CYLINDRICAL_SURFACE('',#965,3.375);
#20=CYLINDRICAL_SURFACE('',#974,1.15);
#21=CIRCLE('',#908,1.15);
#22=CIRCLE('',#909,3.25);
#23=CIRCLE('',#911,1.15);
#24=CIRCLE('',#912,3.25);
#25=CIRCLE('',#917,13.7);
#26=CIRCLE('',#918,13.7);
#27=CIRCLE('',#923,13.7);
#28=CIRCLE('',#924,13.7);
#29=CIRCLE('',#944,13.7);
#30=CIRCLE('',#945,13.7);
#31=CIRCLE('',#949,2.25);
#32=CIRCLE('',#951,3.25);
#33=CIRCLE('',#953,9.025);
#34=CIRCLE('',#955,9.025);
#35=CIRCLE('',#958,13.7);
#36=CIRCLE('',#959,13.7);
#37=CIRCLE('',#963,4.875);
#38=CIRCLE('',#964,4.875);
#39=CIRCLE('',#966,3.375);
#40=CIRCLE('',#967,3.375);
#41=CIRCLE('',#971,1.15);
#42=CIRCLE('',#973,1.15);
#43=SHAPE_REPRESENTATION_RELATIONSHIP('','',#894,#44);
#44=ADVANCED_BREP_SHAPE_REPRESENTATION('',(#883,#884,#885,#886,#887,#888,
#889,#890,#891,#892),#1434);
#45=ORIENTED_EDGE('',*,*,#237,.T.);
#46=ORIENTED_EDGE('',*,*,#238,.T.);
#47=ORIENTED_EDGE('',*,*,#239,.F.);
#48=ORIENTED_EDGE('',*,*,#240,.F.);
#49=ORIENTED_EDGE('',*,*,#241,.F.);
#50=ORIENTED_EDGE('',*,*,#242,.T.);
#51=ORIENTED_EDGE('',*,*,#243,.T.);
#52=ORIENTED_EDGE('',*,*,#244,.F.);
#53=ORIENTED_EDGE('',*,*,#245,.T.);
#54=ORIENTED_EDGE('',*,*,#246,.T.);
#55=ORIENTED_EDGE('',*,*,#247,.F.);
#56=ORIENTED_EDGE('',*,*,#248,.F.);
#57=ORIENTED_EDGE('',*,*,#249,.T.);
#58=ORIENTED_EDGE('',*,*,#248,.T.);
#59=ORIENTED_EDGE('',*,*,#250,.F.);
#60=ORIENTED_EDGE('',*,*,#238,.F.);
#61=ORIENTED_EDGE('',*,*,#251,.T.);
#62=ORIENTED_EDGE('',*,*,#240,.T.);
#63=ORIENTED_EDGE('',*,*,#252,.F.);
#64=ORIENTED_EDGE('',*,*,#246,.F.);
#65=ORIENTED_EDGE('',*,*,#247,.T.);
#66=ORIENTED_EDGE('',*,*,#252,.T.);
#67=ORIENTED_EDGE('',*,*,#239,.T.);
#68=ORIENTED_EDGE('',*,*,#250,.T.);
#69=ORIENTED_EDGE('',*,*,#245,.F.);
#70=ORIENTED_EDGE('',*,*,#249,.F.);
#71=ORIENTED_EDGE('',*,*,#237,.F.);
#72=ORIENTED_EDGE('',*,*,#251,.F.);
#73=ORIENTED_EDGE('',*,*,#253,.F.);
#74=ORIENTED_EDGE('',*,*,#254,.T.);
#75=ORIENTED_EDGE('',*,*,#255,.T.);
#76=ORIENTED_EDGE('',*,*,#256,.F.);
#77=ORIENTED_EDGE('',*,*,#257,.F.);
#78=ORIENTED_EDGE('',*,*,#244,.T.);
#79=ORIENTED_EDGE('',*,*,#258,.T.);
#80=ORIENTED_EDGE('',*,*,#254,.F.);
#81=ORIENTED_EDGE('',*,*,#259,.F.);
#82=ORIENTED_EDGE('',*,*,#256,.T.);
#83=ORIENTED_EDGE('',*,*,#260,.T.);
#84=ORIENTED_EDGE('',*,*,#242,.F.);
#85=ORIENTED_EDGE('',*,*,#255,.F.);
#86=ORIENTED_EDGE('',*,*,#258,.F.);
#87=ORIENTED_EDGE('',*,*,#243,.F.);
#88=ORIENTED_EDGE('',*,*,#260,.F.);
#89=ORIENTED_EDGE('',*,*,#253,.T.);
#90=ORIENTED_EDGE('',*,*,#259,.T.);
#91=ORIENTED_EDGE('',*,*,#241,.T.);
#92=ORIENTED_EDGE('',*,*,#257,.T.);
#93=ORIENTED_EDGE('',*,*,#261,.F.);
#94=ORIENTED_EDGE('',*,*,#262,.F.);
#95=ORIENTED_EDGE('',*,*,#263,.T.);
#96=ORIENTED_EDGE('',*,*,#264,.F.);
#97=ORIENTED_EDGE('',*,*,#262,.T.);
#98=ORIENTED_EDGE('',*,*,#264,.T.);
#99=ORIENTED_EDGE('',*,*,#261,.T.);
#100=ORIENTED_EDGE('',*,*,#263,.F.);
#101=ORIENTED_EDGE('',*,*,#265,.T.);
#102=ORIENTED_EDGE('',*,*,#266,.T.);
#103=ORIENTED_EDGE('',*,*,#267,.F.);
#104=ORIENTED_EDGE('',*,*,#268,.F.);
#105=ORIENTED_EDGE('',*,*,#269,.T.);
#106=ORIENTED_EDGE('',*,*,#268,.T.);
#107=ORIENTED_EDGE('',*,*,#270,.F.);
#108=ORIENTED_EDGE('',*,*,#271,.F.);
#109=ORIENTED_EDGE('',*,*,#272,.T.);
#110=ORIENTED_EDGE('',*,*,#271,.T.);
#111=ORIENTED_EDGE('',*,*,#273,.F.);
#112=ORIENTED_EDGE('',*,*,#274,.F.);
#113=ORIENTED_EDGE('',*,*,#275,.T.);
#114=ORIENTED_EDGE('',*,*,#274,.T.);
#115=ORIENTED_EDGE('',*,*,#276,.F.);
#116=ORIENTED_EDGE('',*,*,#277,.F.);
#117=ORIENTED_EDGE('',*,*,#278,.T.);
#118=ORIENTED_EDGE('',*,*,#277,.T.);
#119=ORIENTED_EDGE('',*,*,#279,.F.);
#120=ORIENTED_EDGE('',*,*,#280,.F.);
#121=ORIENTED_EDGE('',*,*,#281,.T.);
#122=ORIENTED_EDGE('',*,*,#280,.T.);
#123=ORIENTED_EDGE('',*,*,#282,.F.);
#124=ORIENTED_EDGE('',*,*,#266,.F.);
#125=ORIENTED_EDGE('',*,*,#267,.T.);
#126=ORIENTED_EDGE('',*,*,#282,.T.);
#127=ORIENTED_EDGE('',*,*,#279,.T.);
#128=ORIENTED_EDGE('',*,*,#276,.T.);
#129=ORIENTED_EDGE('',*,*,#273,.T.);
#130=ORIENTED_EDGE('',*,*,#270,.T.);
#131=ORIENTED_EDGE('',*,*,#265,.F.);
#132=ORIENTED_EDGE('',*,*,#269,.F.);
#133=ORIENTED_EDGE('',*,*,#272,.F.);
#134=ORIENTED_EDGE('',*,*,#275,.F.);
#135=ORIENTED_EDGE('',*,*,#278,.F.);
#136=ORIENTED_EDGE('',*,*,#281,.F.);
#137=ORIENTED_EDGE('',*,*,#283,.F.);
#138=ORIENTED_EDGE('',*,*,#284,.T.);
#139=ORIENTED_EDGE('',*,*,#285,.F.);
#140=ORIENTED_EDGE('',*,*,#286,.T.);
#141=ORIENTED_EDGE('',*,*,#287,.T.);
#142=ORIENTED_EDGE('',*,*,#288,.T.);
#143=ORIENTED_EDGE('',*,*,#289,.F.);
#144=ORIENTED_EDGE('',*,*,#290,.T.);
#145=ORIENTED_EDGE('',*,*,#283,.T.);
#146=ORIENTED_EDGE('',*,*,#291,.T.);
#147=ORIENTED_EDGE('',*,*,#289,.T.);
#148=ORIENTED_EDGE('',*,*,#292,.T.);
#149=ORIENTED_EDGE('',*,*,#293,.F.);
#150=ORIENTED_EDGE('',*,*,#294,.T.);
#151=ORIENTED_EDGE('',*,*,#285,.T.);
#152=ORIENTED_EDGE('',*,*,#295,.T.);
#153=ORIENTED_EDGE('',*,*,#293,.T.);
#154=ORIENTED_EDGE('',*,*,#296,.T.);
#155=ORIENTED_EDGE('',*,*,#297,.F.);
#156=ORIENTED_EDGE('',*,*,#298,.T.);
#157=ORIENTED_EDGE('',*,*,#299,.F.);
#158=ORIENTED_EDGE('',*,*,#296,.F.);
#159=ORIENTED_EDGE('',*,*,#292,.F.);
#160=ORIENTED_EDGE('',*,*,#288,.F.);
#161=ORIENTED_EDGE('',*,*,#297,.T.);
#162=ORIENTED_EDGE('',*,*,#299,.T.);
#163=ORIENTED_EDGE('',*,*,#287,.F.);
#164=ORIENTED_EDGE('',*,*,#300,.T.);
#165=ORIENTED_EDGE('',*,*,#298,.F.);
#166=ORIENTED_EDGE('',*,*,#300,.F.);
#167=ORIENTED_EDGE('',*,*,#291,.F.);
#168=ORIENTED_EDGE('',*,*,#286,.F.);
#169=ORIENTED_EDGE('',*,*,#290,.F.);
#170=ORIENTED_EDGE('',*,*,#294,.F.);
#171=ORIENTED_EDGE('',*,*,#295,.F.);
#172=ORIENTED_EDGE('',*,*,#284,.F.);
#173=ORIENTED_EDGE('',*,*,#301,.F.);
#174=ORIENTED_EDGE('',*,*,#302,.T.);
#175=ORIENTED_EDGE('',*,*,#303,.F.);
#176=ORIENTED_EDGE('',*,*,#304,.T.);
#177=ORIENTED_EDGE('',*,*,#303,.T.);
#178=ORIENTED_EDGE('',*,*,#305,.T.);
#179=ORIENTED_EDGE('',*,*,#306,.T.);
#180=ORIENTED_EDGE('',*,*,#307,.T.);
#181=ORIENTED_EDGE('',*,*,#308,.F.);
#182=ORIENTED_EDGE('',*,*,#309,.T.);
#183=ORIENTED_EDGE('',*,*,#308,.T.);
#184=ORIENTED_EDGE('',*,*,#310,.T.);
#185=ORIENTED_EDGE('',*,*,#311,.F.);
#186=ORIENTED_EDGE('',*,*,#312,.T.);
#187=ORIENTED_EDGE('',*,*,#311,.T.);
#188=ORIENTED_EDGE('',*,*,#313,.T.);
#189=ORIENTED_EDGE('',*,*,#314,.F.);
#190=ORIENTED_EDGE('',*,*,#315,.T.);
#191=ORIENTED_EDGE('',*,*,#301,.T.);
#192=ORIENTED_EDGE('',*,*,#316,.T.);
#193=ORIENTED_EDGE('',*,*,#317,.F.);
#194=ORIENTED_EDGE('',*,*,#313,.F.);
#195=ORIENTED_EDGE('',*,*,#310,.F.);
#196=ORIENTED_EDGE('',*,*,#307,.F.);
#197=ORIENTED_EDGE('',*,*,#314,.T.);
#198=ORIENTED_EDGE('',*,*,#317,.T.);
#199=ORIENTED_EDGE('',*,*,#306,.F.);
#200=ORIENTED_EDGE('',*,*,#318,.T.);
#201=ORIENTED_EDGE('',*,*,#309,.F.);
#202=ORIENTED_EDGE('',*,*,#312,.F.);
#203=ORIENTED_EDGE('',*,*,#316,.F.);
#204=ORIENTED_EDGE('',*,*,#304,.F.);
#205=ORIENTED_EDGE('',*,*,#315,.F.);
#206=ORIENTED_EDGE('',*,*,#318,.F.);
#207=ORIENTED_EDGE('',*,*,#305,.F.);
#208=ORIENTED_EDGE('',*,*,#302,.F.);
#209=ORIENTED_EDGE('',*,*,#319,.F.);
#210=ORIENTED_EDGE('',*,*,#320,.T.);
#211=ORIENTED_EDGE('',*,*,#319,.T.);
#212=ORIENTED_EDGE('',*,*,#320,.F.);
#213=ORIENTED_EDGE('',*,*,#321,.T.);
#214=ORIENTED_EDGE('',*,*,#321,.F.);
#215=ORIENTED_EDGE('',*,*,#322,.T.);
#216=ORIENTED_EDGE('',*,*,#323,.F.);
#217=ORIENTED_EDGE('',*,*,#322,.F.);
#218=ORIENTED_EDGE('',*,*,#324,.F.);
#219=ORIENTED_EDGE('',*,*,#323,.T.);
#220=ORIENTED_EDGE('',*,*,#324,.T.);
#221=ORIENTED_EDGE('',*,*,#325,.F.);
#222=ORIENTED_EDGE('',*,*,#326,.T.);
#223=ORIENTED_EDGE('',*,*,#325,.T.);
#224=ORIENTED_EDGE('',*,*,#326,.F.);
#225=ORIENTED_EDGE('',*,*,#327,.F.);
#226=ORIENTED_EDGE('',*,*,#328,.T.);
#227=ORIENTED_EDGE('',*,*,#329,.T.);
#228=ORIENTED_EDGE('',*,*,#330,.F.);
#229=ORIENTED_EDGE('',*,*,#327,.T.);
#230=ORIENTED_EDGE('',*,*,#329,.F.);
#231=ORIENTED_EDGE('',*,*,#328,.F.);
#232=ORIENTED_EDGE('',*,*,#330,.T.);
#233=ORIENTED_EDGE('',*,*,#331,.F.);
#234=ORIENTED_EDGE('',*,*,#332,.F.);
#235=ORIENTED_EDGE('',*,*,#331,.T.);
#236=ORIENTED_EDGE('',*,*,#332,.T.);
#237=EDGE_CURVE('',#333,#334,#403,.F.);
#238=EDGE_CURVE('',#334,#335,#404,.F.);
#239=EDGE_CURVE('',#336,#335,#405,.F.);
#240=EDGE_CURVE('',#333,#336,#406,.F.);
#241=EDGE_CURVE('',#337,#338,#407,.F.);
#242=EDGE_CURVE('',#337,#339,#408,.F.);
#243=EDGE_CURVE('',#339,#340,#409,.F.);
#244=EDGE_CURVE('',#338,#340,#410,.F.);
#245=EDGE_CURVE('',#341,#342,#411,.F.);
#246=EDGE_CURVE('',#342,#343,#412,.F.);
#247=EDGE_CURVE('',#344,#343,#413,.F.);
#248=EDGE_CURVE('',#341,#344,#414,.F.);
#249=EDGE_CURVE('',#334,#341,#415,.F.);
#250=EDGE_CURVE('',#335,#344,#416,.F.);
#251=EDGE_CURVE('',#342,#333,#417,.F.);
#252=EDGE_CURVE('',#343,#336,#418,.F.);
#253=EDGE_CURVE('',#345,#346,#419,.F.);
#254=EDGE_CURVE('',#345,#347,#420,.F.);
#255=EDGE_CURVE('',#347,#348,#421,.F.);
#256=EDGE_CURVE('',#346,#348,#422,.F.);
#257=EDGE_CURVE('',#338,#345,#423,.F.);
#258=EDGE_CURVE('',#340,#347,#424,.F.);
#259=EDGE_CURVE('',#346,#337,#425,.F.);
#260=EDGE_CURVE('',#348,#339,#426,.F.);
#261=EDGE_CURVE('',#349,#349,#21,.F.);
#262=EDGE_CURVE('',#350,#350,#22,.F.);
#263=EDGE_CURVE('',#351,#351,#23,.F.);
#264=EDGE_CURVE('',#352,#352,#24,.F.);
#265=EDGE_CURVE('',#353,#354,#427,.F.);
#266=EDGE_CURVE('',#354,#355,#428,.F.);
#267=EDGE_CURVE('',#356,#355,#429,.F.);
#268=EDGE_CURVE('',#353,#356,#430,.F.);
#269=EDGE_CURVE('',#357,#353,#25,.F.);
#270=EDGE_CURVE('',#358,#356,#26,.F.);
#271=EDGE_CURVE('',#357,#358,#431,.F.);
#272=EDGE_CURVE('',#359,#357,#432,.F.);
#273=EDGE_CURVE('',#360,#358,#433,.F.);
#274=EDGE_CURVE('',#359,#360,#434,.F.);
#275=EDGE_CURVE('',#361,#359,#435,.F.);
#276=EDGE_CURVE('',#362,#360,#436,.F.);
#277=EDGE_CURVE('',#361,#362,#437,.F.);
#278=EDGE_CURVE('',#363,#361,#438,.F.);
#279=EDGE_CURVE('',#364,#362,#439,.F.);
#280=EDGE_CURVE('',#363,#364,#440,.F.);
#281=EDGE_CURVE('',#354,#363,#27,.F.);
#282=EDGE_CURVE('',#355,#364,#28,.F.);
#283=EDGE_CURVE('',#365,#366,#441,.F.);
#284=EDGE_CURVE('',#365,#367,#442,.F.);
#285=EDGE_CURVE('',#368,#367,#443,.F.);
#286=EDGE_CURVE('',#368,#366,#444,.F.);
#287=EDGE_CURVE('',#369,#370,#445,.F.);
#288=EDGE_CURVE('',#370,#371,#446,.F.);
#289=EDGE_CURVE('',#372,#371,#447,.F.);
#290=EDGE_CURVE('',#372,#365,#448,.T.);
#291=EDGE_CURVE('',#366,#369,#449,.T.);
#292=EDGE_CURVE('',#371,#373,#450,.F.);
#293=EDGE_CURVE('',#374,#373,#451,.F.);
#294=EDGE_CURVE('',#374,#372,#452,.F.);
#295=EDGE_CURVE('',#367,#374,#453,.T.);
#296=EDGE_CURVE('',#373,#375,#454,.F.);
#297=EDGE_CURVE('',#376,#375,#455,.F.);
#298=EDGE_CURVE('',#376,#368,#456,.T.);
#299=EDGE_CURVE('',#375,#370,#457,.F.);
#300=EDGE_CURVE('',#369,#376,#458,.F.);
#301=EDGE_CURVE('',#377,#378,#459,.F.);
#302=EDGE_CURVE('',#377,#379,#460,.F.);
#303=EDGE_CURVE('',#380,#379,#461,.F.);
#304=EDGE_CURVE('',#380,#378,#462,.F.);
#305=EDGE_CURVE('',#379,#381,#463,.T.);
#306=EDGE_CURVE('',#381,#382,#464,.F.);
#307=EDGE_CURVE('',#382,#383,#465,.F.);
#308=EDGE_CURVE('',#384,#383,#466,.F.);
#309=EDGE_CURVE('',#384,#380,#467,.T.);
#310=EDGE_CURVE('',#383,#385,#468,.F.);
#311=EDGE_CURVE('',#386,#385,#469,.F.);
#312=EDGE_CURVE('',#386,#384,#470,.F.);
#313=EDGE_CURVE('',#385,#387,#471,.F.);
#314=EDGE_CURVE('',#388,#387,#472,.F.);
#315=EDGE_CURVE('',#388,#377,#473,.T.);
#316=EDGE_CURVE('',#378,#386,#474,.T.);
#317=EDGE_CURVE('',#387,#382,#475,.F.);
#318=EDGE_CURVE('',#381,#388,#476,.F.);
#319=EDGE_CURVE('',#389,#389,#29,.F.);
#320=EDGE_CURVE('',#390,#390,#30,.F.);
#321=EDGE_CURVE('',#391,#391,#31,.F.);
#322=EDGE_CURVE('',#392,#392,#32,.F.);
#323=EDGE_CURVE('',#393,#393,#33,.F.);
#324=EDGE_CURVE('',#394,#394,#34,.F.);
#325=EDGE_CURVE('',#395,#395,#35,.F.);
#326=EDGE_CURVE('',#396,#396,#36,.F.);
#327=EDGE_CURVE('',#397,#397,#37,.F.);
#328=EDGE_CURVE('',#398,#398,#38,.F.);
#329=EDGE_CURVE('',#399,#399,#39,.F.);
#330=EDGE_CURVE('',#400,#400,#40,.F.);
#331=EDGE_CURVE('',#401,#401,#41,.F.);
#332=EDGE_CURVE('',#402,#402,#42,.F.);
#333=VERTEX_POINT('',#1212);
#334=VERTEX_POINT('',#1213);
#335=VERTEX_POINT('',#1215);
#336=VERTEX_POINT('',#1217);
#337=VERTEX_POINT('',#1220);
#338=VERTEX_POINT('',#1221);
#339=VERTEX_POINT('',#1223);
#340=VERTEX_POINT('',#1225);
#341=VERTEX_POINT('',#1229);
#342=VERTEX_POINT('',#1230);
#343=VERTEX_POINT('',#1232);
#344=VERTEX_POINT('',#1234);
#345=VERTEX_POINT('',#1246);
#346=VERTEX_POINT('',#1247);
#347=VERTEX_POINT('',#1249);
#348=VERTEX_POINT('',#1251);
#349=VERTEX_POINT('',#1263);
#350=VERTEX_POINT('',#1265);
#351=VERTEX_POINT('',#1268);
#352=VERTEX_POINT('',#1270);
#353=VERTEX_POINT('',#1275);
#354=VERTEX_POINT('',#1276);
#355=VERTEX_POINT('',#1278);
#356=VERTEX_POINT('',#1280);
#357=VERTEX_POINT('',#1284);
#358=VERTEX_POINT('',#1286);
#359=VERTEX_POINT('',#1290);
#360=VERTEX_POINT('',#1292);
#361=VERTEX_POINT('',#1296);
#362=VERTEX_POINT('',#1298);
#363=VERTEX_POINT('',#1302);
#364=VERTEX_POINT('',#1304);
#365=VERTEX_POINT('',#1313);
#366=VERTEX_POINT('',#1314);
#367=VERTEX_POINT('',#1316);
#368=VERTEX_POINT('',#1318);
#369=VERTEX_POINT('',#1322);
#370=VERTEX_POINT('',#1323);
#371=VERTEX_POINT('',#1325);
#372=VERTEX_POINT('',#1327);
#373=VERTEX_POINT('',#1332);
#374=VERTEX_POINT('',#1334);
#375=VERTEX_POINT('',#1339);
#376=VERTEX_POINT('',#1341);
#377=VERTEX_POINT('',#1351);
#378=VERTEX_POINT('',#1352);
#379=VERTEX_POINT('',#1354);
#380=VERTEX_POINT('',#1356);
#381=VERTEX_POINT('',#1360);
#382=VERTEX_POINT('',#1362);
#383=VERTEX_POINT('',#1364);
#384=VERTEX_POINT('',#1366);
#385=VERTEX_POINT('',#1370);
#386=VERTEX_POINT('',#1372);
#387=VERTEX_POINT('',#1376);
#388=VERTEX_POINT('',#1378);
#389=VERTEX_POINT('',#1389);
#390=VERTEX_POINT('',#1391);
#391=VERTEX_POINT('',#1396);
#392=VERTEX_POINT('',#1399);
#393=VERTEX_POINT('',#1402);
#394=VERTEX_POINT('',#1405);
#395=VERTEX_POINT('',#1409);
#396=VERTEX_POINT('',#1411);
#397=VERTEX_POINT('',#1416);
#398=VERTEX_POINT('',#1418);
#399=VERTEX_POINT('',#1421);
#400=VERTEX_POINT('',#1423);
#401=VERTEX_POINT('',#1428);
#402=VERTEX_POINT('',#1431);
#403=LINE('',#1211,#477);
#404=LINE('',#1214,#478);
#405=LINE('',#1216,#479);
#406=LINE('',#1218,#480);
#407=LINE('',#1219,#481);
#408=LINE('',#1222,#482);
#409=LINE('',#1224,#483);
#410=LINE('',#1226,#484);
#411=LINE('',#1228,#485);
#412=LINE('',#1231,#486);
#413=LINE('',#1233,#487);
#414=LINE('',#1235,#488);
#415=LINE('',#1237,#489);
#416=LINE('',#1238,#490);
#417=LINE('',#1240,#491);
#418=LINE('',#1241,#492);
#419=LINE('',#1245,#493);
#420=LINE('',#1248,#494);
#421=LINE('',#1250,#495);
#422=LINE('',#1252,#496);
#423=LINE('',#1254,#497);
#424=LINE('',#1255,#498);
#425=LINE('',#1257,#499);
#426=LINE('',#1258,#500);
#427=LINE('',#1274,#501);
#428=LINE('',#1277,#502);
#429=LINE('',#1279,#503);
#430=LINE('',#1281,#504);
#431=LINE('',#1287,#505);
#432=LINE('',#1289,#506);
#433=LINE('',#1291,#507);
#434=LINE('',#1293,#508);
#435=LINE('',#1295,#509);
#436=LINE('',#1297,#510);
#437=LINE('',#1299,#511);
#438=LINE('',#1301,#512);
#439=LINE('',#1303,#513);
#440=LINE('',#1305,#514);
#441=LINE('',#1312,#515);
#442=LINE('',#1315,#516);
#443=LINE('',#1317,#517);
#444=LINE('',#1319,#518);
#445=LINE('',#1321,#519);
#446=LINE('',#1324,#520);
#447=LINE('',#1326,#521);
#448=LINE('',#1328,#522);
#449=LINE('',#1329,#523);
#450=LINE('',#1331,#524);
#451=LINE('',#1333,#525);
#452=LINE('',#1335,#526);
#453=LINE('',#1337,#527);
#454=LINE('',#1338,#528);
#455=LINE('',#1340,#529);
#456=LINE('',#1342,#530);
#457=LINE('',#1344,#531);
#458=LINE('',#1346,#532);
#459=LINE('',#1350,#533);
#460=LINE('',#1353,#534);
#461=LINE('',#1355,#535);
#462=LINE('',#1357,#536);
#463=LINE('',#1359,#537);
#464=LINE('',#1361,#538);
#465=LINE('',#1363,#539);
#466=LINE('',#1365,#540);
#467=LINE('',#1367,#541);
#468=LINE('',#1369,#542);
#469=LINE('',#1371,#543);
#470=LINE('',#1373,#544);
#471=LINE('',#1375,#545);
#472=LINE('',#1377,#546);
#473=LINE('',#1379,#547);
#474=LINE('',#1380,#548);
#475=LINE('',#1382,#549);
#476=LINE('',#1384,#550);
#477=VECTOR('',#979,1000.);
#478=VECTOR('',#980,1000.);
#479=VECTOR('',#981,1000.);
#480=VECTOR('',#982,1000.);
#481=VECTOR('',#983,1000.);
#482=VECTOR('',#984,1000.);
#483=VECTOR('',#985,1000.);
#484=VECTOR('',#986,1000.);
#485=VECTOR('',#989,1000.);
#486=VECTOR('',#990,1000.);
#487=VECTOR('',#991,1000.);
#488=VECTOR('',#992,1000.);
#489=VECTOR('',#995,1000.);
#490=VECTOR('',#996,1000.);
#491=VECTOR('',#999,1000.);
#492=VECTOR('',#1000,1000.);
#493=VECTOR('',#1007,1000.);
#494=VECTOR('',#1008,1000.);
#495=VECTOR('',#1009,1000.);
#496=VECTOR('',#1010,1000.);
#497=VECTOR('',#1013,1000.);
#498=VECTOR('',#1014,1000.);
#499=VECTOR('',#1017,1000.);
#500=VECTOR('',#1018,1000.);
#501=VECTOR('',#1041,1000.);
#502=VECTOR('',#1042,1000.);
#503=VECTOR('',#1043,1000.);
#504=VECTOR('',#1044,1000.);
#505=VECTOR('',#1051,1000.);
#506=VECTOR('',#1054,1000.);
#507=VECTOR('',#1055,1000.);
#508=VECTOR('',#1056,1000.);
#509=VECTOR('',#1059,1000.);
#510=VECTOR('',#1060,1000.);
#511=VECTOR('',#1061,1000.);
#512=VECTOR('',#1064,1000.);
#513=VECTOR('',#1065,1000.);
#514=VECTOR('',#1066,1000.);
#515=VECTOR('',#1079,1000.);
#516=VECTOR('',#1080,1000.);
#517=VECTOR('',#1081,1000.);
#518=VECTOR('',#1082,1000.);
#519=VECTOR('',#1085,1000.);
#520=VECTOR('',#1086,1000.);
#521=VECTOR('',#1087,1000.);
#522=VECTOR('',#1088,1000.);
#523=VECTOR('',#1089,1000.);
#524=VECTOR('',#1092,1000.);
#525=VECTOR('',#1093,1000.);
#526=VECTOR('',#1094,1000.);
#527=VECTOR('',#1097,1000.);
#528=VECTOR('',#1098,1000.);
#529=VECTOR('',#1099,1000.);
#530=VECTOR('',#1100,1000.);
#531=VECTOR('',#1103,1000.);
#532=VECTOR('',#1106,1000.);
#533=VECTOR('',#1113,1000.);
#534=VECTOR('',#1114,1000.);
#535=VECTOR('',#1115,1000.);
#536=VECTOR('',#1116,1000.);
#537=VECTOR('',#1119,1000.);
#538=VECTOR('',#1120,1000.);
#539=VECTOR('',#1121,1000.);
#540=VECTOR('',#1122,1000.);
#541=VECTOR('',#1123,1000.);
#542=VECTOR('',#1126,1000.);
#543=VECTOR('',#1127,1000.);
#544=VECTOR('',#1128,1000.);
#545=VECTOR('',#1131,1000.);
#546=VECTOR('',#1132,1000.);
#547=VECTOR('',#1133,1000.);
#548=VECTOR('',#1134,1000.);
#549=VECTOR('',#1137,1000.);
#550=VECTOR('',#1140,1000.);
#551=EDGE_LOOP('',(#45,#46,#47,#48));
#552=EDGE_LOOP('',(#49,#50,#51,#52));
#553=EDGE_LOOP('',(#53,#54,#55,#56));
#554=EDGE_LOOP('',(#57,#58,#59,#60));
#555=EDGE_LOOP('',(#61,#62,#63,#64));
#556=EDGE_LOOP('',(#65,#66,#67,#68));
#557=EDGE_LOOP('',(#69,#70,#71,#72));
#558=EDGE_LOOP('',(#73,#74,#75,#76));
#559=EDGE_LOOP('',(#77,#78,#79,#80));
#560=EDGE_LOOP('',(#81,#82,#83,#84));
#561=EDGE_LOOP('',(#85,#86,#87,#88));
#562=EDGE_LOOP('',(#89,#90,#91,#92));
#563=EDGE_LOOP('',(#93));
#564=EDGE_LOOP('',(#94));
#565=EDGE_LOOP('',(#95));
#566=EDGE_LOOP('',(#96));
#567=EDGE_LOOP('',(#97));
#568=EDGE_LOOP('',(#98));
#569=EDGE_LOOP('',(#99));
#570=EDGE_LOOP('',(#100));
#571=EDGE_LOOP('',(#101,#102,#103,#104));
#572=EDGE_LOOP('',(#105,#106,#107,#108));
#573=EDGE_LOOP('',(#109,#110,#111,#112));
#574=EDGE_LOOP('',(#113,#114,#115,#116));
#575=EDGE_LOOP('',(#117,#118,#119,#120));
#576=EDGE_LOOP('',(#121,#122,#123,#124));
#577=EDGE_LOOP('',(#125,#126,#127,#128,#129,#130));
#578=EDGE_LOOP('',(#131,#132,#133,#134,#135,#136));
#579=EDGE_LOOP('',(#137,#138,#139,#140));
#580=EDGE_LOOP('',(#141,#142,#143,#144,#145,#146));
#581=EDGE_LOOP('',(#147,#148,#149,#150));
#582=EDGE_LOOP('',(#151,#152,#153,#154,#155,#156));
#583=EDGE_LOOP('',(#157,#158,#159,#160));
#584=EDGE_LOOP('',(#161,#162,#163,#164));
#585=EDGE_LOOP('',(#165,#166,#167,#168));
#586=EDGE_LOOP('',(#169,#170,#171,#172));
#587=EDGE_LOOP('',(#173,#174,#175,#176));
#588=EDGE_LOOP('',(#177,#178,#179,#180,#181,#182));
#589=EDGE_LOOP('',(#183,#184,#185,#186));
#590=EDGE_LOOP('',(#187,#188,#189,#190,#191,#192));
#591=EDGE_LOOP('',(#193,#194,#195,#196));
#592=EDGE_LOOP('',(#197,#198,#199,#200));
#593=EDGE_LOOP('',(#201,#202,#203,#204));
#594=EDGE_LOOP('',(#205,#206,#207,#208));
#595=EDGE_LOOP('',(#209));
#596=EDGE_LOOP('',(#210));
#597=EDGE_LOOP('',(#211));
#598=EDGE_LOOP('',(#212));
#599=EDGE_LOOP('',(#213));
#600=EDGE_LOOP('',(#214));
#601=EDGE_LOOP('',(#215));
#602=EDGE_LOOP('',(#216));
#603=EDGE_LOOP('',(#217));
#604=EDGE_LOOP('',(#218));
#605=EDGE_LOOP('',(#219));
#606=EDGE_LOOP('',(#220));
#607=EDGE_LOOP('',(#221));
#608=EDGE_LOOP('',(#222));
#609=EDGE_LOOP('',(#223));
#610=EDGE_LOOP('',(#224));
#611=EDGE_LOOP('',(#225));
#612=EDGE_LOOP('',(#226));
#613=EDGE_LOOP('',(#227));
#614=EDGE_LOOP('',(#228));
#615=EDGE_LOOP('',(#229));
#616=EDGE_LOOP('',(#230));
#617=EDGE_LOOP('',(#231));
#618=EDGE_LOOP('',(#232));
#619=EDGE_LOOP('',(#233));
#620=EDGE_LOOP('',(#234));
#621=EDGE_LOOP('',(#235));
#622=EDGE_LOOP('',(#236));
#623=FACE_BOUND('',#551,.T.);
#624=FACE_BOUND('',#552,.T.);
#625=FACE_BOUND('',#553,.T.);
#626=FACE_BOUND('',#554,.T.);
#627=FACE_BOUND('',#555,.T.);
#628=FACE_BOUND('',#556,.T.);
#629=FACE_BOUND('',#557,.T.);
#630=FACE_BOUND('',#558,.T.);
#631=FACE_BOUND('',#559,.T.);
#632=FACE_BOUND('',#560,.T.);
#633=FACE_BOUND('',#561,.T.);
#634=FACE_BOUND('',#562,.T.);
#635=FACE_BOUND('',#563,.T.);
#636=FACE_BOUND('',#564,.T.);
#637=FACE_BOUND('',#565,.T.);
#638=FACE_BOUND('',#566,.T.);
#639=FACE_BOUND('',#567,.T.);
#640=FACE_BOUND('',#568,.T.);
#641=FACE_BOUND('',#569,.T.);
#642=FACE_BOUND('',#570,.T.);
#643=FACE_BOUND('',#571,.T.);
#644=FACE_BOUND('',#572,.T.);
#645=FACE_BOUND('',#573,.T.);
#646=FACE_BOUND('',#574,.T.);
#647=FACE_BOUND('',#575,.T.);
#648=FACE_BOUND('',#576,.T.);
#649=FACE_BOUND('',#577,.T.);
#650=FACE_BOUND('',#578,.T.);
#651=FACE_BOUND('',#579,.T.);
#652=FACE_BOUND('',#580,.T.);
#653=FACE_BOUND('',#581,.T.);
#654=FACE_BOUND('',#582,.T.);
#655=FACE_BOUND('',#583,.T.);
#656=FACE_BOUND('',#584,.T.);
#657=FACE_BOUND('',#585,.T.);
#658=FACE_BOUND('',#586,.T.);
#659=FACE_BOUND('',#587,.T.);
#660=FACE_BOUND('',#588,.T.);
#661=FACE_BOUND('',#589,.T.);
#662=FACE_BOUND('',#590,.T.);
#663=FACE_BOUND('',#591,.T.);
#664=FACE_BOUND('',#592,.T.);
#665=FACE_BOUND('',#593,.T.);
#666=FACE_BOUND('',#594,.T.);
#667=FACE_BOUND('',#595,.T.);
#668=FACE_BOUND('',#596,.T.);
#669=FACE_BOUND('',#597,.T.);
#670=FACE_BOUND('',#598,.T.);
#671=FACE_BOUND('',#599,.T.);
#672=FACE_BOUND('',#600,.T.);
#673=FACE_BOUND('',#601,.T.);
#674=FACE_BOUND('',#602,.T.);
#675=FACE_BOUND('',#603,.T.);
#676=FACE_BOUND('',#604,.T.);
#677=FACE_BOUND('',#605,.T.);
#678=FACE_BOUND('',#606,.T.);
#679=FACE_BOUND('',#607,.T.);
#680=FACE_BOUND('',#608,.T.);
#681=FACE_BOUND('',#609,.T.);
#682=FACE_BOUND('',#610,.T.);
#683=FACE_BOUND('',#611,.T.);
#684=FACE_BOUND('',#612,.T.);
#685=FACE_BOUND('',#613,.T.);
#686=FACE_BOUND('',#614,.T.);
#687=FACE_BOUND('',#615,.T.);
#688=FACE_BOUND('',#616,.T.);
#689=FACE_BOUND('',#617,.T.);
#690=FACE_BOUND('',#618,.T.);
#691=FACE_BOUND('',#619,.T.);
#692=FACE_BOUND('',#620,.T.);
#693=FACE_BOUND('',#621,.T.);
#694=FACE_BOUND('',#622,.T.);
#695=PLANE('',#896);
#696=PLANE('',#897);
#697=PLANE('',#898);
#698=PLANE('',#899);
#699=PLANE('',#900);
#700=PLANE('',#901);
#701=PLANE('',#902);
#702=PLANE('',#903);
#703=PLANE('',#904);
#704=PLANE('',#905);
#705=PLANE('',#906);
#706=PLANE('',#907);
#707=PLANE('',#910);
#708=PLANE('',#915);
#709=PLANE('',#919);
#710=PLANE('',#920);
#711=PLANE('',#921);
#712=PLANE('',#925);
#713=PLANE('',#926);
#714=PLANE('',#927);
#715=PLANE('',#928);
#716=PLANE('',#929);
#717=PLANE('',#930);
#718=PLANE('',#931);
#719=PLANE('',#932);
#720=PLANE('',#933);
#721=PLANE('',#934);
#722=PLANE('',#935);
#723=PLANE('',#936);
#724=PLANE('',#937);
#725=PLANE('',#938);
#726=PLANE('',#939);
#727=PLANE('',#940);
#728=PLANE('',#941);
#729=PLANE('',#942);
#730=PLANE('',#946);
#731=PLANE('',#947);
#732=PLANE('',#948);
#733=PLANE('',#952);
#734=PLANE('',#954);
#735=PLANE('',#960);
#736=PLANE('',#961);
#737=PLANE('',#968);
#738=PLANE('',#969);
#739=PLANE('',#970);
#740=PLANE('',#972);
#741=ADVANCED_FACE('',(#623,#624),#695,.F.);
#742=ADVANCED_FACE('',(#625),#696,.F.);
#743=ADVANCED_FACE('',(#626),#697,.F.);
#744=ADVANCED_FACE('',(#627),#698,.F.);
#745=ADVANCED_FACE('',(#628),#699,.T.);
#746=ADVANCED_FACE('',(#629),#700,.F.);
#747=ADVANCED_FACE('',(#630),#701,.T.);
#748=ADVANCED_FACE('',(#631),#702,.T.);
#749=ADVANCED_FACE('',(#632),#703,.T.);
#750=ADVANCED_FACE('',(#633),#704,.F.);
#751=ADVANCED_FACE('',(#634),#705,.T.);
#752=ADVANCED_FACE('',(#635,#636),#706,.T.);
#753=ADVANCED_FACE('',(#637,#638),#707,.T.);
#754=ADVANCED_FACE('',(#639,#640),#11,.T.);
#755=ADVANCED_FACE('',(#641,#642),#12,.F.);
#756=ADVANCED_FACE('',(#643),#708,.F.);
#757=ADVANCED_FACE('',(#644),#13,.T.);
#758=ADVANCED_FACE('',(#645),#709,.F.);
#759=ADVANCED_FACE('',(#646),#710,.F.);
#760=ADVANCED_FACE('',(#647),#711,.F.);
#761=ADVANCED_FACE('',(#648),#14,.T.);
#762=ADVANCED_FACE('',(#649),#712,.T.);
#763=ADVANCED_FACE('',(#650),#713,.F.);
#764=ADVANCED_FACE('',(#651),#714,.T.);
#765=ADVANCED_FACE('',(#652),#715,.T.);
#766=ADVANCED_FACE('',(#653),#716,.T.);
#767=ADVANCED_FACE('',(#654),#717,.T.);
#768=ADVANCED_FACE('',(#655),#718,.T.);
#769=ADVANCED_FACE('',(#656),#719,.T.);
#770=ADVANCED_FACE('',(#657),#720,.F.);
#771=ADVANCED_FACE('',(#658),#721,.F.);
#772=ADVANCED_FACE('',(#659),#722,.T.);
#773=ADVANCED_FACE('',(#660),#723,.T.);
#774=ADVANCED_FACE('',(#661),#724,.T.);
#775=ADVANCED_FACE('',(#662),#725,.T.);
#776=ADVANCED_FACE('',(#663),#726,.T.);
#777=ADVANCED_FACE('',(#664),#727,.T.);
#778=ADVANCED_FACE('',(#665),#728,.F.);
#779=ADVANCED_FACE('',(#666),#729,.F.);
#780=ADVANCED_FACE('',(#667,#668),#15,.T.);
#781=ADVANCED_FACE('',(#669),#730,.T.);
#782=ADVANCED_FACE('',(#670),#731,.F.);
#783=ADVANCED_FACE('',(#671),#732,.T.);
#784=ADVANCED_FACE('',(#672,#673),#10,.T.);
#785=ADVANCED_FACE('',(#674),#733,.T.);
#786=ADVANCED_FACE('',(#675,#676),#734,.T.);
#787=ADVANCED_FACE('',(#677,#678),#16,.T.);
#788=ADVANCED_FACE('',(#679,#680),#17,.T.);
#789=ADVANCED_FACE('',(#681),#735,.T.);
#790=ADVANCED_FACE('',(#682),#736,.F.);
#791=ADVANCED_FACE('',(#683,#684),#18,.T.);
#792=ADVANCED_FACE('',(#685,#686),#19,.F.);
#793=ADVANCED_FACE('',(#687,#688),#737,.T.);
#794=ADVANCED_FACE('',(#689,#690),#738,.F.);
#795=ADVANCED_FACE('',(#691),#739,.T.);
#796=ADVANCED_FACE('',(#692),#740,.T.);
#797=ADVANCED_FACE('',(#693,#694),#20,.T.);
#798=CLOSED_SHELL('',(#741,#742,#743,#744,#745,#746,#747,#748,#749,#750,
#751));
#799=CLOSED_SHELL('',(#752,#753,#754,#755));
#800=CLOSED_SHELL('',(#756,#757,#758,#759,#760,#761,#762,#763));
#801=CLOSED_SHELL('',(#764,#765,#766,#767,#768,#769,#770,#771));
#802=CLOSED_SHELL('',(#772,#773,#774,#775,#776,#777,#778,#779));
#803=CLOSED_SHELL('',(#780,#781,#782));
#804=CLOSED_SHELL('',(#783,#784,#785,#786,#787));
#805=CLOSED_SHELL('',(#788,#789,#790));
#806=CLOSED_SHELL('',(#791,#792,#793,#794));
#807=CLOSED_SHELL('',(#795,#796,#797));
#808=STYLED_ITEM('',(#818),#883);
#809=STYLED_ITEM('',(#819),#884);
#810=STYLED_ITEM('',(#820),#885);
#811=STYLED_ITEM('',(#821),#886);
#812=STYLED_ITEM('',(#822),#887);
#813=STYLED_ITEM('',(#823),#888);
#814=STYLED_ITEM('',(#824),#889);
#815=STYLED_ITEM('',(#825),#890);
#816=STYLED_ITEM('',(#826),#891);
#817=STYLED_ITEM('',(#827),#892);
#818=PRESENTATION_STYLE_ASSIGNMENT((#828));
#819=PRESENTATION_STYLE_ASSIGNMENT((#829));
#820=PRESENTATION_STYLE_ASSIGNMENT((#830));
#821=PRESENTATION_STYLE_ASSIGNMENT((#831));
#822=PRESENTATION_STYLE_ASSIGNMENT((#832));
#823=PRESENTATION_STYLE_ASSIGNMENT((#833));
#824=PRESENTATION_STYLE_ASSIGNMENT((#834));
#825=PRESENTATION_STYLE_ASSIGNMENT((#835));
#826=PRESENTATION_STYLE_ASSIGNMENT((#836));
#827=PRESENTATION_STYLE_ASSIGNMENT((#837));
#828=SURFACE_STYLE_USAGE(.BOTH.,#838);
#829=SURFACE_STYLE_USAGE(.BOTH.,#839);
#830=SURFACE_STYLE_USAGE(.BOTH.,#840);
#831=SURFACE_STYLE_USAGE(.BOTH.,#841);
#832=SURFACE_STYLE_USAGE(.BOTH.,#842);
#833=SURFACE_STYLE_USAGE(.BOTH.,#843);
#834=SURFACE_STYLE_USAGE(.BOTH.,#844);
#835=SURFACE_STYLE_USAGE(.BOTH.,#845);
#836=SURFACE_STYLE_USAGE(.BOTH.,#846);
#837=SURFACE_STYLE_USAGE(.BOTH.,#847);
#838=SURFACE_SIDE_STYLE('',(#848));
#839=SURFACE_SIDE_STYLE('',(#849));
#840=SURFACE_SIDE_STYLE('',(#850));
#841=SURFACE_SIDE_STYLE('',(#851));
#842=SURFACE_SIDE_STYLE('',(#852));
#843=SURFACE_SIDE_STYLE('',(#853));
#844=SURFACE_SIDE_STYLE('',(#854));
#845=SURFACE_SIDE_STYLE('',(#855));
#846=SURFACE_SIDE_STYLE('',(#856));
#847=SURFACE_SIDE_STYLE('',(#857));
#848=SURFACE_STYLE_FILL_AREA(#858);
#849=SURFACE_STYLE_FILL_AREA(#859);
#850=SURFACE_STYLE_FILL_AREA(#860);
#851=SURFACE_STYLE_FILL_AREA(#861);
#852=SURFACE_STYLE_FILL_AREA(#862);
#853=SURFACE_STYLE_FILL_AREA(#863);
#854=SURFACE_STYLE_FILL_AREA(#864);
#855=SURFACE_STYLE_FILL_AREA(#865);
#856=SURFACE_STYLE_FILL_AREA(#866);
#857=SURFACE_STYLE_FILL_AREA(#867);
#858=FILL_AREA_STYLE('',(#868));
#859=FILL_AREA_STYLE('',(#869));
#860=FILL_AREA_STYLE('',(#870));
#861=FILL_AREA_STYLE('',(#871));
#862=FILL_AREA_STYLE('',(#872));
#863=FILL_AREA_STYLE('',(#873));
#864=FILL_AREA_STYLE('',(#874));
#865=FILL_AREA_STYLE('',(#875));
#866=FILL_AREA_STYLE('',(#876));
#867=FILL_AREA_STYLE('',(#877));
#868=FILL_AREA_STYLE_COLOUR('',#878);
#869=FILL_AREA_STYLE_COLOUR('',#879);
#870=FILL_AREA_STYLE_COLOUR('',#880);
#871=FILL_AREA_STYLE_COLOUR('',#879);
#872=FILL_AREA_STYLE_COLOUR('',#879);
#873=FILL_AREA_STYLE_COLOUR('',#879);
#874=FILL_AREA_STYLE_COLOUR('',#881);
#875=FILL_AREA_STYLE_COLOUR('',#882);
#876=FILL_AREA_STYLE_COLOUR('',#879);
#877=FILL_AREA_STYLE_COLOUR('',#879);
#878=COLOUR_RGB('',0.866666666666667,0.854901960784314,0.788235294117647);
#879=COLOUR_RGB('',0.611764705882353,0.658823529411765,0.670588235294118);
#880=COLOUR_RGB('',0.,0.674509803921569,0.396078431372549);
#881=COLOUR_RGB('',0.4,0.4,0.4);
#882=COLOUR_RGB('',0.768627450980392,0.749019607843137,0.647058823529412);
#883=MANIFOLD_SOLID_BREP('Body (7)',#798);
#884=MANIFOLD_SOLID_BREP('Body (11)',#799);
#885=MANIFOLD_SOLID_BREP('Body (19)',#800);
#886=MANIFOLD_SOLID_BREP('Body (23)',#801);
#887=MANIFOLD_SOLID_BREP('Body (15)',#802);
#888=MANIFOLD_SOLID_BREP('Body (13)',#803);
#889=MANIFOLD_SOLID_BREP('Body (5)',#804);
#890=MANIFOLD_SOLID_BREP('Body (21)',#805);
#891=MANIFOLD_SOLID_BREP('Body (9)',#806);
#892=MANIFOLD_SOLID_BREP('Body (17)',#807);
#893=SHAPE_DEFINITION_REPRESENTATION(#1439,#894);
#894=SHAPE_REPRESENTATION('M01L-02',(#895),#1434);
#895=AXIS2_PLACEMENT_3D('',#1209,#975,#976);
#896=AXIS2_PLACEMENT_3D('',#1210,#977,#978);
#897=AXIS2_PLACEMENT_3D('',#1227,#987,#988);
#898=AXIS2_PLACEMENT_3D('',#1236,#993,#994);
#899=AXIS2_PLACEMENT_3D('',#1239,#997,#998);
#900=AXIS2_PLACEMENT_3D('',#1242,#1001,#1002);
#901=AXIS2_PLACEMENT_3D('',#1243,#1003,#1004);
#902=AXIS2_PLACEMENT_3D('',#1244,#1005,#1006);
#903=AXIS2_PLACEMENT_3D('',#1253,#1011,#1012);
#904=AXIS2_PLACEMENT_3D('',#1256,#1015,#1016);
#905=AXIS2_PLACEMENT_3D('',#1259,#1019,#1020);
#906=AXIS2_PLACEMENT_3D('',#1260,#1021,#1022);
#907=AXIS2_PLACEMENT_3D('',#1261,#1023,#1024);
#908=AXIS2_PLACEMENT_3D('',#1262,#1025,#1026);
#909=AXIS2_PLACEMENT_3D('',#1264,#1027,#1028);
#910=AXIS2_PLACEMENT_3D('',#1266,#1029,#1030);
#911=AXIS2_PLACEMENT_3D('',#1267,#1031,#1032);
#912=AXIS2_PLACEMENT_3D('',#1269,#1033,#1034);
#913=AXIS2_PLACEMENT_3D('',#1271,#1035,#1036);
#914=AXIS2_PLACEMENT_3D('',#1272,#1037,#1038);
#915=AXIS2_PLACEMENT_3D('',#1273,#1039,#1040);
#916=AXIS2_PLACEMENT_3D('',#1282,#1045,#1046);
#917=AXIS2_PLACEMENT_3D('',#1283,#1047,#1048);
#918=AXIS2_PLACEMENT_3D('',#1285,#1049,#1050);
#919=AXIS2_PLACEMENT_3D('',#1288,#1052,#1053);
#920=AXIS2_PLACEMENT_3D('',#1294,#1057,#1058);
#921=AXIS2_PLACEMENT_3D('',#1300,#1062,#1063);
#922=AXIS2_PLACEMENT_3D('',#1306,#1067,#1068);
#923=AXIS2_PLACEMENT_3D('',#1307,#1069,#1070);
#924=AXIS2_PLACEMENT_3D('',#1308,#1071,#1072);
#925=AXIS2_PLACEMENT_3D('',#1309,#1073,#1074);
#926=AXIS2_PLACEMENT_3D('',#1310,#1075,#1076);
#927=AXIS2_PLACEMENT_3D('',#1311,#1077,#1078);
#928=AXIS2_PLACEMENT_3D('',#1320,#1083,#1084);
#929=AXIS2_PLACEMENT_3D('',#1330,#1090,#1091);
#930=AXIS2_PLACEMENT_3D('',#1336,#1095,#1096);
#931=AXIS2_PLACEMENT_3D('',#1343,#1101,#1102);
#932=AXIS2_PLACEMENT_3D('',#1345,#1104,#1105);
#933=AXIS2_PLACEMENT_3D('',#1347,#1107,#1108);
#934=AXIS2_PLACEMENT_3D('',#1348,#1109,#1110);
#935=AXIS2_PLACEMENT_3D('',#1349,#1111,#1112);
#936=AXIS2_PLACEMENT_3D('',#1358,#1117,#1118);
#937=AXIS2_PLACEMENT_3D('',#1368,#1124,#1125);
#938=AXIS2_PLACEMENT_3D('',#1374,#1129,#1130);
#939=AXIS2_PLACEMENT_3D('',#1381,#1135,#1136);
#940=AXIS2_PLACEMENT_3D('',#1383,#1138,#1139);
#941=AXIS2_PLACEMENT_3D('',#1385,#1141,#1142);
#942=AXIS2_PLACEMENT_3D('',#1386,#1143,#1144);
#943=AXIS2_PLACEMENT_3D('',#1387,#1145,#1146);
#944=AXIS2_PLACEMENT_3D('',#1388,#1147,#1148);
#945=AXIS2_PLACEMENT_3D('',#1390,#1149,#1150);
#946=AXIS2_PLACEMENT_3D('',#1392,#1151,#1152);
#947=AXIS2_PLACEMENT_3D('',#1393,#1153,#1154);
#948=AXIS2_PLACEMENT_3D('',#1394,#1155,#1156);
#949=AXIS2_PLACEMENT_3D('',#1395,#1157,#1158);
#950=AXIS2_PLACEMENT_3D('',#1397,#1159,#1160);
#951=AXIS2_PLACEMENT_3D('',#1398,#1161,#1162);
#952=AXIS2_PLACEMENT_3D('',#1400,#1163,#1164);
#953=AXIS2_PLACEMENT_3D('',#1401,#1165,#1166);
#954=AXIS2_PLACEMENT_3D('',#1403,#1167,#1168);
#955=AXIS2_PLACEMENT_3D('',#1404,#1169,#1170);
#956=AXIS2_PLACEMENT_3D('',#1406,#1171,#1172);
#957=AXIS2_PLACEMENT_3D('',#1407,#1173,#1174);
#958=AXIS2_PLACEMENT_3D('',#1408,#1175,#1176);
#959=AXIS2_PLACEMENT_3D('',#1410,#1177,#1178);
#960=AXIS2_PLACEMENT_3D('',#1412,#1179,#1180);
#961=AXIS2_PLACEMENT_3D('',#1413,#1181,#1182);
#962=AXIS2_PLACEMENT_3D('',#1414,#1183,#1184);
#963=AXIS2_PLACEMENT_3D('',#1415,#1185,#1186);
#964=AXIS2_PLACEMENT_3D('',#1417,#1187,#1188);
#965=AXIS2_PLACEMENT_3D('',#1419,#1189,#1190);
#966=AXIS2_PLACEMENT_3D('',#1420,#1191,#1192);
#967=AXIS2_PLACEMENT_3D('',#1422,#1193,#1194);
#968=AXIS2_PLACEMENT_3D('',#1424,#1195,#1196);
#969=AXIS2_PLACEMENT_3D('',#1425,#1197,#1198);
#970=AXIS2_PLACEMENT_3D('',#1426,#1199,#1200);
#971=AXIS2_PLACEMENT_3D('',#1427,#1201,#1202);
#972=AXIS2_PLACEMENT_3D('',#1429,#1203,#1204);
#973=AXIS2_PLACEMENT_3D('',#1430,#1205,#1206);
#974=AXIS2_PLACEMENT_3D('',#1432,#1207,#1208);
#975=DIRECTION('',(0.,0.,1.));
#976=DIRECTION('',(1.,0.,0.));
#977=DIRECTION('',(-0.999996769712896,-1.60828487220786E-5,-0.00254171302776796));
#978=DIRECTION('',(-1.60828487274095E-5,-0.999919927234093,0.0126545984332991));
#979=DIRECTION('',(1.60828487274095E-5,0.999919927234093,-0.0126545984332991));
#980=DIRECTION('',(-0.00254171302776793,0.0126545984332991,0.999916696946989));
#981=DIRECTION('',(1.60828487274095E-5,0.999919927234093,-0.0126545984332991));
#982=DIRECTION('',(-0.00254171302776793,0.0126545984332991,0.999916696946989));
#983=DIRECTION('',(1.60828487274095E-5,0.999919927234093,-0.0126545984332991));
#984=DIRECTION('',(-0.00254171302776793,0.0126545984332991,0.999916696946989));
#985=DIRECTION('',(1.60828487274095E-5,0.999919927234093,-0.0126545984332991));
#986=DIRECTION('',(-0.00254171302776793,0.0126545984332991,0.999916696946989));
#987=DIRECTION('',(0.999996769712896,1.60828487220786E-5,0.00254171302776796));
#988=DIRECTION('',(1.60828487274095E-5,0.999919927234093,-0.0126545984332991));
#989=DIRECTION('',(-1.60828487274095E-5,-0.999919927234093,0.0126545984332991));
#990=DIRECTION('',(-0.00254171302776793,0.0126545984332991,0.999916696946989));
#991=DIRECTION('',(-1.60828487274095E-5,-0.999919927234093,0.0126545984332991));
#992=DIRECTION('',(-0.00254171302776793,0.0126545984332991,0.999916696946989));
#993=DIRECTION('',(1.60828487282678E-5,0.999919927234093,-0.0126545984332991));
#994=DIRECTION('',(-0.999996769712896,-1.60828487212203E-5,-0.00254171302776797));
#995=DIRECTION('',(0.999996769712896,1.60828487212203E-5,0.00254171302776797));
#996=DIRECTION('',(0.999996769712896,1.60828487212203E-5,0.00254171302776797));
#997=DIRECTION('',(-1.608284872688E-5,-0.999919927234093,0.0126545984332991));
#998=DIRECTION('',(0.999996769712896,1.6082848722608E-5,0.00254171302776795));
#999=DIRECTION('',(-0.999996769712896,-1.6082848722608E-5,-0.00254171302776795));
#1000=DIRECTION('',(-0.999996769712896,-1.6082848722608E-5,-0.00254171302776795));
#1001=DIRECTION('',(0.00254171302776793,-0.0126545984332991,-0.999916696946989));
#1002=DIRECTION('',(0.999996769712896,1.60828487219141E-5,0.00254171302776796));
#1003=DIRECTION('',(0.00254171302776793,-0.0126545984332991,-0.999916696946989));
#1004=DIRECTION('',(0.999996769712896,1.60828487219141E-5,0.00254171302776796));
#1005=DIRECTION('',(0.999996769712896,1.60828487220786E-5,0.00254171302776796));
#1006=DIRECTION('',(1.60828487274095E-5,0.999919927234093,-0.0126545984332991));
#1007=DIRECTION('',(-1.60828487274095E-5,-0.999919927234093,0.0126545984332991));
#1008=DIRECTION('',(-0.00254171302776793,0.0126545984332991,0.999916696946989));
#1009=DIRECTION('',(-1.60828487274095E-5,-0.999919927234093,0.0126545984332991));
#1010=DIRECTION('',(-0.00254171302776793,0.0126545984332991,0.999916696946989));
#1011=DIRECTION('',(1.60828487282678E-5,0.999919927234093,-0.0126545984332991));
#1012=DIRECTION('',(-0.999996769712896,-1.60828487212203E-5,-0.00254171302776797));
#1013=DIRECTION('',(0.999996769712896,1.60828487212203E-5,0.00254171302776797));
#1014=DIRECTION('',(0.999996769712896,1.60828487212203E-5,0.00254171302776797));
#1015=DIRECTION('',(-1.608284872688E-5,-0.999919927234093,0.0126545984332991));
#1016=DIRECTION('',(0.999996769712896,1.6082848722608E-5,0.00254171302776795));
#1017=DIRECTION('',(-0.999996769712896,-1.6082848722608E-5,-0.00254171302776795));
#1018=DIRECTION('',(-0.999996769712896,-1.6082848722608E-5,-0.00254171302776795));
#1019=DIRECTION('',(0.00254171302776793,-0.0126545984332991,-0.999916696946989));
#1020=DIRECTION('',(0.999996769712896,1.60828487219141E-5,0.00254171302776796));
#1021=DIRECTION('',(0.00254171302776793,-0.0126545984332991,-0.999916696946989));
#1022=DIRECTION('',(0.999996769712896,1.60828487219141E-5,0.00254171302776796));
#1023=DIRECTION('',(0.00254171302776793,-0.0126545984332991,-0.999916696946989));
#1024=DIRECTION('',(0.999996769712896,1.60828487219141E-5,0.00254171302776796));
#1025=DIRECTION('',(-0.00254171302776793,0.0126545984332991,0.999916696946989));
#1026=DIRECTION('',(0.999996769712896,1.60828487219141E-5,0.00254171302776796));
#1027=DIRECTION('',(0.00254171302776793,-0.0126545984332991,-0.999916696946989));
#1028=DIRECTION('',(0.999996769712896,1.60828487219141E-5,0.00254171302776796));
#1029=DIRECTION('',(-0.00254171302776793,0.0126545984332991,0.999916696946989));
#1030=DIRECTION('',(-0.999996769712896,-1.60828487219141E-5,-0.00254171302776796));
#1031=DIRECTION('',(-0.00254171302776793,0.0126545984332991,0.999916696946989));
#1032=DIRECTION('',(0.999996769712896,1.60828487219141E-5,0.00254171302776796));
#1033=DIRECTION('',(-0.00254171302776793,0.0126545984332991,0.999916696946989));
#1034=DIRECTION('',(0.999996769712896,1.60828487219141E-5,0.00254171302776796));
#1035=DIRECTION('',(0.00254171302776793,-0.0126545984332991,-0.999916696946989));
#1036=DIRECTION('',(0.999996769712896,1.60828487219141E-5,0.00254171302776796));
#1037=DIRECTION('',(-0.00254171302776793,0.0126545984332991,0.999916696946989));
#1038=DIRECTION('',(0.999996769712896,1.60828487219141E-5,0.00254171302776796));
#1039=DIRECTION('',(0.999996769712896,1.60828487219141E-5,0.00254171302776796));
#1040=DIRECTION('',(-0.00254171302776793,0.0126545984332991,0.999916696946989));
#1041=DIRECTION('',(-1.60828487275739E-5,-0.999919927234093,0.0126545984332991));
#1042=DIRECTION('',(-0.00254171302776793,0.0126545984332991,0.999916696946989));
#1043=DIRECTION('',(-1.60828487275739E-5,-0.999919927234093,0.0126545984332991));
#1044=DIRECTION('',(-0.00254171302776793,0.0126545984332991,0.999916696946989));
#1045=DIRECTION('',(-0.00254171302776793,0.0126545984332991,0.999916696946989));
#1046=DIRECTION('',(-0.999996769712896,-1.60828487219141E-5,-0.00254171302776796));
#1047=DIRECTION('',(-0.00254171302776793,0.0126545984332991,0.999916696946989));
#1048=DIRECTION('',(0.999996769712896,1.60828487219141E-5,0.00254171302776796));
#1049=DIRECTION('',(-0.00254171302776793,0.0126545984332991,0.999916696946989));
#1050=DIRECTION('',(0.999996769712896,1.60828487219141E-5,0.00254171302776796));
#1051=DIRECTION('',(-0.00254171302776793,0.0126545984332991,0.999916696946989));
#1052=DIRECTION('',(1.60828487275739E-5,0.999919927234093,-0.0126545984332991));
#1053=DIRECTION('',(0.00254171302776793,-0.0126545984332991,-0.999916696946989));
#1054=DIRECTION('',(0.999996769712896,1.60828487219141E-5,0.00254171302776796));
#1055=DIRECTION('',(0.999996769712896,1.60828487219141E-5,0.00254171302776796));
#1056=DIRECTION('',(-0.00254171302776793,0.0126545984332991,0.999916696946989));
#1057=DIRECTION('',(-0.999996769712896,-1.60828487219141E-5,-0.00254171302776796));
#1058=DIRECTION('',(0.00254171302776793,-0.0126545984332991,-0.999916696946989));
#1059=DIRECTION('',(1.60828487275739E-5,0.999919927234093,-0.0126545984332991));
#1060=DIRECTION('',(1.60828487275739E-5,0.999919927234093,-0.0126545984332991));
#1061=DIRECTION('',(-0.00254171302776793,0.0126545984332991,0.999916696946989));
#1062=DIRECTION('',(-1.60828487275739E-5,-0.999919927234093,0.0126545984332991));
#1063=DIRECTION('',(-0.00254171302776793,0.0126545984332991,0.999916696946989));
#1064=DIRECTION('',(-0.999996769712896,-1.60828487219141E-5,-0.00254171302776796));
#1065=DIRECTION('',(-0.999996769712896,-1.60828487219141E-5,-0.00254171302776796));
#1066=DIRECTION('',(-0.00254171302776793,0.0126545984332991,0.999916696946989));
#1067=DIRECTION('',(-0.00254171302776793,0.0126545984332991,0.999916696946989));
#1068=DIRECTION('',(-0.999996769712896,-1.60828487219141E-5,-0.00254171302776796));
#1069=DIRECTION('',(-0.00254171302776793,0.0126545984332991,0.999916696946989));
#1070=DIRECTION('',(0.999996769712896,1.60828487219141E-5,0.00254171302776796));
#1071=DIRECTION('',(-0.00254171302776793,0.0126545984332991,0.999916696946989));
#1072=DIRECTION('',(0.999996769712896,1.60828487219141E-5,0.00254171302776796));
#1073=DIRECTION('',(0.00254171302776793,-0.0126545984332991,-0.999916696946989));
#1074=DIRECTION('',(0.999996769712896,1.60828487219141E-5,0.00254171302776796));
#1075=DIRECTION('',(0.00254171302776793,-0.0126545984332991,-0.999916696946989));
#1076=DIRECTION('',(0.999996769712896,1.60828487219141E-5,0.00254171302776796));
#1077=DIRECTION('',(0.00254171302776793,-0.0126545984332991,-0.999916696946989));
#1078=DIRECTION('',(0.999996769712896,1.60828487219141E-5,0.00254171302776796));
#1079=DIRECTION('',(-0.999996769712896,-1.60828487219141E-5,-0.00254171302776796));
#1080=DIRECTION('',(-1.60828487275739E-5,-0.999919927234093,0.0126545984332991));
#1081=DIRECTION('',(0.999996769712896,1.60828487219141E-5,0.00254171302776796));
#1082=DIRECTION('',(1.60828487275739E-5,0.999919927234093,-0.0126545984332991));
#1083=DIRECTION('',(-1.60828487275739E-5,-0.999919927234093,0.0126545984332991));
#1084=DIRECTION('',(-0.00254171302776793,0.0126545984332991,0.999916696946989));
#1085=DIRECTION('',(0.00254171302776793,-0.0126545984332991,-0.999916696946989));
#1086=DIRECTION('',(0.999996769712896,1.60828487219141E-5,0.00254171302776796));
#1087=DIRECTION('',(0.00254171302776793,-0.0126545984332991,-0.999916696946989));
#1088=DIRECTION('',(0.708901759546396,-0.0089367800739864,-0.705250614515105));
#1089=DIRECTION('',(0.705307234510867,0.00895952465677052,0.708845139550635));
#1090=DIRECTION('',(-0.999996769712896,-1.60828487219141E-5,-0.00254171302776796));
#1091=DIRECTION('',(0.00254171302776793,-0.0126545984332991,-0.999916696946989));
#1092=DIRECTION('',(-1.60828487275739E-5,-0.999919927234093,0.0126545984332991));
#1093=DIRECTION('',(0.00254171302776793,-0.0126545984332991,-0.999916696946989));
#1094=DIRECTION('',(1.60828487275739E-5,0.999919927234093,-0.0126545984332991));
#1095=DIRECTION('',(1.60828487275739E-5,0.999919927234093,-0.0126545984332991));
#1096=DIRECTION('',(0.00254171302776793,-0.0126545984332991,-0.999916696946989));
#1097=DIRECTION('',(-0.708901759546396,0.0089367800739864,0.705250614515105));
#1098=DIRECTION('',(-0.999996769712896,-1.60828487219141E-5,-0.00254171302776796));
#1099=DIRECTION('',(0.00254171302776793,-0.0126545984332991,-0.999916696946989));
#1100=DIRECTION('',(-0.705307234510867,-0.00895952465677052,-0.708845139550635));
#1101=DIRECTION('',(-0.00254171302776793,0.0126545984332991,0.999916696946989));
#1102=DIRECTION('',(-0.999996769712896,-1.60828487219141E-5,-0.00254171302776796));
#1103=DIRECTION('',(1.60828487275739E-5,0.999919927234093,-0.0126545984332991));
#1104=DIRECTION('',(0.999996769712896,1.60828487219141E-5,0.00254171302776796));
#1105=DIRECTION('',(-0.00254171302776793,0.0126545984332991,0.999916696946989));
#1106=DIRECTION('',(-1.60828487275739E-5,-0.999919927234093,0.0126545984332991));
#1107=DIRECTION('',(-0.708901759546396,0.0089367800739864,0.705250614515105));
#1108=DIRECTION('',(-1.60828487275739E-5,-0.999919927234093,0.0126545984332991));
#1109=DIRECTION('',(0.705307234510866,0.00895952465677053,0.708845139550635));
#1110=DIRECTION('',(1.60828487275739E-5,0.999919927234093,-0.0126545984332991));
#1111=DIRECTION('',(0.00254171302776793,-0.0126545984332991,-0.999916696946989));
#1112=DIRECTION('',(-0.999996769712896,-1.60828487195714E-5,-0.00254171302776799));
#1113=DIRECTION('',(-0.999996769712896,-1.60828487195714E-5,-0.00254171302776799));
#1114=DIRECTION('',(-1.60828487299168E-5,-0.999919927234093,0.0126545984332991));
#1115=DIRECTION('',(0.999996769712896,1.60828487195714E-5,0.00254171302776799));
#1116=DIRECTION('',(1.60828487299168E-5,0.999919927234093,-0.0126545984332991));
#1117=DIRECTION('',(1.60828487299168E-5,0.999919927234093,-0.0126545984332991));
#1118=DIRECTION('',(-0.00254171302776793,0.0126545984332991,0.999916696946989));
#1119=DIRECTION('',(-0.708901759546396,0.00893678007398805,0.705250614515105));
#1120=DIRECTION('',(0.00254171302776793,-0.0126545984332991,-0.999916696946989));
#1121=DIRECTION('',(-0.999996769712896,-1.60828487195714E-5,-0.00254171302776799));
#1122=DIRECTION('',(0.00254171302776793,-0.0126545984332991,-0.999916696946989));
#1123=DIRECTION('',(-0.705307234510867,-0.00895952465676886,-0.708845139550635));
#1124=DIRECTION('',(0.999996769712896,1.60828487195714E-5,0.00254171302776799));
#1125=DIRECTION('',(0.00254171302776793,-0.0126545984332991,-0.999916696946989));
#1126=DIRECTION('',(1.60828487299168E-5,0.999919927234093,-0.0126545984332991));
#1127=DIRECTION('',(0.00254171302776793,-0.0126545984332991,-0.999916696946989));
#1128=DIRECTION('',(-1.60828487299168E-5,-0.999919927234093,0.0126545984332991));
#1129=DIRECTION('',(-1.60828487299168E-5,-0.999919927234093,0.0126545984332991));
#1130=DIRECTION('',(0.00254171302776793,-0.0126545984332991,-0.999916696946989));
#1131=DIRECTION('',(0.999996769712896,1.60828487195714E-5,0.00254171302776799));
#1132=DIRECTION('',(0.00254171302776793,-0.0126545984332991,-0.999916696946989));
#1133=DIRECTION('',(0.708901759546396,-0.00893678007398805,-0.705250614515105));
#1134=DIRECTION('',(0.705307234510867,0.00895952465676886,0.708845139550635));
#1135=DIRECTION('',(-0.00254171302776793,0.0126545984332991,0.999916696946989));
#1136=DIRECTION('',(0.999996769712896,1.60828487195714E-5,0.00254171302776799));
#1137=DIRECTION('',(-1.60828487299168E-5,-0.999919927234093,0.0126545984332991));
#1138=DIRECTION('',(-0.999996769712896,-1.60828487195714E-5,-0.00254171302776799));
#1139=DIRECTION('',(-0.00254171302776793,0.0126545984332991,0.999916696946989));
#1140=DIRECTION('',(1.60828487299168E-5,0.999919927234093,-0.0126545984332991));
#1141=DIRECTION('',(-0.708901759546396,0.00893678007398806,0.705250614515106));
#1142=DIRECTION('',(-1.60828487299168E-5,-0.999919927234093,0.0126545984332991));
#1143=DIRECTION('',(0.705307234510866,0.00895952465676887,0.708845139550635));
#1144=DIRECTION('',(1.60828487299168E-5,0.999919927234093,-0.0126545984332991));
#1145=DIRECTION('',(-0.00254171302776793,0.0126545984332991,0.999916696946989));
#1146=DIRECTION('',(-0.999996769712896,-1.60828487219141E-5,-0.00254171302776796));
#1147=DIRECTION('',(-0.00254171302776793,0.0126545984332991,0.999916696946989));
#1148=DIRECTION('',(0.999996769712896,1.60828487219141E-5,0.00254171302776796));
#1149=DIRECTION('',(-0.00254171302776793,0.0126545984332991,0.999916696946989));
#1150=DIRECTION('',(0.999996769712896,1.60828487219141E-5,0.00254171302776796));
#1151=DIRECTION('',(0.00254171302776793,-0.0126545984332991,-0.999916696946989));
#1152=DIRECTION('',(0.999996769712896,1.60828487219141E-5,0.00254171302776796));
#1153=DIRECTION('',(0.00254171302776793,-0.0126545984332991,-0.999916696946989));
#1154=DIRECTION('',(0.999996769712896,1.60828487219141E-5,0.00254171302776796));
#1155=DIRECTION('',(0.00254171302776793,-0.0126545984332991,-0.999916696946989));
#1156=DIRECTION('',(0.999996769712896,1.60828487219141E-5,0.00254171302776796));
#1157=DIRECTION('',(-0.00254171302776793,0.0126545984332991,0.999916696946989));
#1158=DIRECTION('',(0.999996769712896,1.60828487219141E-5,0.00254171302776796));
#1159=DIRECTION('',(-0.00254171302776793,0.0126545984332991,0.999916696946989));
#1160=DIRECTION('',(-0.999996769712896,-1.60828487219141E-5,-0.00254171302776796));
#1161=DIRECTION('',(-0.00254171302776793,0.0126545984332991,0.999916696946989));
#1162=DIRECTION('',(0.999996769712896,1.60828487219141E-5,0.00254171302776796));
#1163=DIRECTION('',(-0.00254171302776793,0.0126545984332991,0.999916696946989));
#1164=DIRECTION('',(-0.999996769712896,-1.60828487219141E-5,-0.00254171302776796));
#1165=DIRECTION('',(-0.00254171302776793,0.0126545984332991,0.999916696946989));
#1166=DIRECTION('',(0.999996769712896,1.60828487219141E-5,0.00254171302776796));
#1167=DIRECTION('',(0.00254171302776793,-0.0126545984332991,-0.999916696946989));
#1168=DIRECTION('',(0.999996769712896,1.60828487219141E-5,0.00254171302776796));
#1169=DIRECTION('',(0.00254171302776793,-0.0126545984332991,-0.999916696946989));
#1170=DIRECTION('',(0.999996769712896,1.60828487219141E-5,0.00254171302776796));
#1171=DIRECTION('',(-0.00254171302776793,0.0126545984332991,0.999916696946989));
#1172=DIRECTION('',(0.999996769712896,1.60828487219141E-5,0.00254171302776796));
#1173=DIRECTION('',(-0.00254171302776793,0.0126545984332991,0.999916696946989));
#1174=DIRECTION('',(-0.999996769712896,-1.60828487219141E-5,-0.00254171302776796));
#1175=DIRECTION('',(-0.00254171302776793,0.0126545984332991,0.999916696946989));
#1176=DIRECTION('',(0.999996769712896,1.60828487219141E-5,0.00254171302776796));
#1177=DIRECTION('',(-0.00254171302776793,0.0126545984332991,0.999916696946989));
#1178=DIRECTION('',(0.999996769712896,1.60828487219141E-5,0.00254171302776796));
#1179=DIRECTION('',(0.00254171302776793,-0.0126545984332991,-0.999916696946989));
#1180=DIRECTION('',(0.999996769712896,1.60828487219141E-5,0.00254171302776796));
#1181=DIRECTION('',(0.00254171302776793,-0.0126545984332991,-0.999916696946989));
#1182=DIRECTION('',(0.999996769712896,1.60828487219141E-5,0.00254171302776796));
#1183=DIRECTION('',(0.00254171302776793,-0.0126545984332991,-0.999916696946989));
#1184=DIRECTION('',(0.999996769712896,1.60828487219141E-5,0.00254171302776796));
#1185=DIRECTION('',(0.00254171302776793,-0.0126545984332991,-0.999916696946989));
#1186=DIRECTION('',(0.999996769712896,1.60828487220366E-5,0.00254171302776796));
#1187=DIRECTION('',(0.00254171302776793,-0.0126545984332991,-0.999916696946989));
#1188=DIRECTION('',(0.999996769712896,1.60828487220366E-5,0.00254171302776796));
#1189=DIRECTION('',(0.00254171302776793,-0.0126545984332991,-0.999916696946989));
#1190=DIRECTION('',(0.999996769712896,1.60828487219141E-5,0.00254171302776796));
#1191=DIRECTION('',(0.00254171302776793,-0.0126545984332991,-0.999916696946989));
#1192=DIRECTION('',(0.999996769712896,1.60828487220366E-5,0.00254171302776796));
#1193=DIRECTION('',(0.00254171302776793,-0.0126545984332991,-0.999916696946989));
#1194=DIRECTION('',(0.999996769712896,1.60828487220366E-5,0.00254171302776796));
#1195=DIRECTION('',(-0.00254171302776793,0.0126545984332991,0.999916696946989));
#1196=DIRECTION('',(-0.999996769712896,-1.60828487219141E-5,-0.00254171302776796));
#1197=DIRECTION('',(-0.00254171302776793,0.0126545984332991,0.999916696946989));
#1198=DIRECTION('',(-0.999996769712896,-1.60828487219141E-5,-0.00254171302776796));
#1199=DIRECTION('',(-0.00254171302776793,0.0126545984332991,0.999916696946989));
#1200=DIRECTION('',(-0.999996769712896,-1.60828487219141E-5,-0.00254171302776796));
#1201=DIRECTION('',(-0.00254171302776793,0.0126545984332991,0.999916696946989));
#1202=DIRECTION('',(0.999996769712896,1.60828487219141E-5,0.00254171302776796));
#1203=DIRECTION('',(0.00254171302776793,-0.0126545984332991,-0.999916696946989));
#1204=DIRECTION('',(0.999996769712896,1.60828487219141E-5,0.00254171302776796));
#1205=DIRECTION('',(0.00254171302776793,-0.0126545984332991,-0.999916696946989));
#1206=DIRECTION('',(0.999996769712896,1.60828487219141E-5,0.00254171302776796));
#1207=DIRECTION('',(-0.00254171302776793,0.0126545984332991,0.999916696946989));
#1208=DIRECTION('',(0.999996769712896,1.60828487219141E-5,0.00254171302776796));
#1209=CARTESIAN_POINT('',(0.,0.,0.));
#1210=CARTESIAN_POINT('',(15.4081115096588,-4.3196318043338,188.58517873294));
#1211=CARTESIAN_POINT('',(15.3984530001532,-4.27154433028726,192.384862181338));
#1212=CARTESIAN_POINT('',(15.3986226742073,6.27761090203242,192.251356167867));
#1213=CARTESIAN_POINT('',(15.3984530001532,-4.27154433028726,192.384862181338));
#1214=CARTESIAN_POINT('',(15.4081115096588,-4.3196318043338,188.58517873294));
#1215=CARTESIAN_POINT('',(15.4081115096588,-4.3196318043338,188.58517873294));
#1216=CARTESIAN_POINT('',(15.4081115096588,-4.3196318043338,188.58517873294));
#1217=CARTESIAN_POINT('',(15.4082811837128,6.22952342798589,188.451672719469));
#1218=CARTESIAN_POINT('',(15.4082811837128,6.22952342798589,188.451672719469));
#1219=CARTESIAN_POINT('',(15.3997238566671,-4.27787162950391,191.884903832865));
#1220=CARTESIAN_POINT('',(15.3998854892968,5.77132363919873,191.75772511861));
#1221=CARTESIAN_POINT('',(15.3997318980915,-3.77791166588687,191.878576533648));
#1222=CARTESIAN_POINT('',(15.4082731422885,5.72956346436884,188.458000018685));
#1223=CARTESIAN_POINT('',(15.4070022857746,5.73589076358549,188.957958367159));
#1224=CARTESIAN_POINT('',(15.4068406531449,-4.31330450511715,189.085137081413));
#1225=CARTESIAN_POINT('',(15.4068486945692,-3.81334454150011,189.078809782197));
#1226=CARTESIAN_POINT('',(15.4081195510831,-3.81967184071675,188.578851433723));
#1227=CARTESIAN_POINT('',(10.4082973351484,6.22944301374227,188.43896415433));
#1228=CARTESIAN_POINT('',(10.3986388256428,6.27753048778881,192.238647602728));
#1229=CARTESIAN_POINT('',(10.3984691515888,-4.27162474453087,192.3721536162));
#1230=CARTESIAN_POINT('',(10.3986388256428,6.27753048778881,192.238647602728));
#1231=CARTESIAN_POINT('',(10.4082973351484,6.22944301374227,188.43896415433));
#1232=CARTESIAN_POINT('',(10.4082973351484,6.22944301374227,188.43896415433));
#1233=CARTESIAN_POINT('',(10.4082973351484,6.22944301374227,188.43896415433));
#1234=CARTESIAN_POINT('',(10.4081276610943,-4.31971221857741,188.572470167801));
#1235=CARTESIAN_POINT('',(10.4081276610943,-4.31971221857741,188.572470167801));
#1236=CARTESIAN_POINT('',(10.4081276610943,-4.31971221857741,188.572470167801));
#1237=CARTESIAN_POINT('',(10.3984691515888,-4.27162474453087,192.3721536162));
#1238=CARTESIAN_POINT('',(10.4081276610943,-4.31971221857741,188.572470167801));
#1239=CARTESIAN_POINT('',(15.4082811837128,6.22952342798589,188.451672719469));
#1240=CARTESIAN_POINT('',(15.3986226742073,6.27761090203242,192.251356167867));
#1241=CARTESIAN_POINT('',(15.4082811837128,6.22952342798589,188.451672719469));
#1242=CARTESIAN_POINT('',(-0.19175326083538,0.954694919385981,188.478775002971));
#1243=CARTESIAN_POINT('',(-0.201411770340898,1.00278239343252,192.27845845137));
#1244=CARTESIAN_POINT('',(10.9082957200048,6.22945105516664,188.440235010844));
#1245=CARTESIAN_POINT('',(10.8999080670132,6.27121122999652,191.739960110769));
#1246=CARTESIAN_POINT('',(10.8997464343835,-3.77798403870611,191.867138825023));
#1247=CARTESIAN_POINT('',(10.8999000255888,5.77125126637948,191.746287409985));
#1248=CARTESIAN_POINT('',(10.9081340873751,-3.819744213536,188.567413725098));
#1249=CARTESIAN_POINT('',(10.9068632308612,-3.81341691431935,189.067372073572));
#1250=CARTESIAN_POINT('',(10.9070248634909,6.23577835438329,188.940193359317));
#1251=CARTESIAN_POINT('',(10.9070168220666,5.73581839076624,188.946520658534));
#1252=CARTESIAN_POINT('',(10.9082876785804,5.72949109154959,188.44656231006));
#1253=CARTESIAN_POINT('',(10.4081357025186,-3.81975225496036,188.566142868584));
#1254=CARTESIAN_POINT('',(10.399748049527,-3.77799208013047,191.865867968509));
#1255=CARTESIAN_POINT('',(10.4068648460048,-3.81342495574371,189.066101217058));
#1256=CARTESIAN_POINT('',(15.4082731422885,5.72956346436884,188.458000018685));
#1257=CARTESIAN_POINT('',(15.3998854892968,5.77132363919873,191.75772511861));
#1258=CARTESIAN_POINT('',(15.4070022857746,5.73589076358549,188.957958367159));
#1259=CARTESIAN_POINT('',(-0.193024117349264,0.961022218602631,188.978733351445));
#1260=CARTESIAN_POINT('',(-0.200140913827014,0.996455094215868,191.778500102896));
#1261=CARTESIAN_POINT('',(-0.296980180184972,1.47859529452456,229.875326256576));
#1262=CARTESIAN_POINT('',(-0.296980180184972,1.47859529452456,229.875326256576));
#1263=CARTESIAN_POINT('',(0.853016104984858,1.47861378980059,229.878249226558));
#1264=CARTESIAN_POINT('',(-0.296980180184972,1.47859529452456,229.875326256576));
#1265=CARTESIAN_POINT('',(2.95300932138194,1.47864756378291,229.883586823917));
#1266=CARTESIAN_POINT('',(-0.315534685287678,1.57097386308765,237.174718144289));
#1267=CARTESIAN_POINT('',(-0.315534685287678,1.57097386308765,237.174718144289));
#1268=CARTESIAN_POINT('',(0.834461599882152,1.57099235836368,237.177641114271));
#1269=CARTESIAN_POINT('',(-0.315534685287678,1.57097386308765,237.174718144289));
#1270=CARTESIAN_POINT('',(2.93445481627923,1.57102613234599,237.18297871163));
#1271=CARTESIAN_POINT('',(-0.315534685287678,1.57097386308765,237.174718144289));
#1272=CARTESIAN_POINT('',(-0.183365607843746,0.912934744556094,185.179049903046));
#1273=CARTESIAN_POINT('',(-9.90122483966987,10.6765610070253,192.131374273876));
#1274=CARTESIAN_POINT('',(-9.90427489530319,10.6917465251453,193.331274310212));
#1275=CARTESIAN_POINT('',(-9.90458608907543,-8.65612270930555,193.576133432461));
#1276=CARTESIAN_POINT('',(-9.90427489530319,10.6917465251453,193.331274310212));
#1277=CARTESIAN_POINT('',(-9.90122483966987,10.6765610070253,192.131374273876));
#1278=CARTESIAN_POINT('',(-9.90122483966987,10.6765610070253,192.131374273876));
#1279=CARTESIAN_POINT('',(-9.90122483966987,10.6765610070253,192.131374273876));
#1280=CARTESIAN_POINT('',(-9.90153603344211,-8.67130822742551,192.376233396125));
#1281=CARTESIAN_POINT('',(-9.90153603344211,-8.67130822742551,192.376233396125));
#1282=CARTESIAN_POINT('',(-0.201411770340898,1.00278239343252,192.27845845137));
#1283=CARTESIAN_POINT('',(-0.204461825974219,1.01796791155248,193.478358487706));
#1284=CARTESIAN_POINT('',(11.7171149728235,-5.73129986202836,193.594078628002));
#1285=CARTESIAN_POINT('',(-0.201411770340898,1.00278239343252,192.27845845137));
#1286=CARTESIAN_POINT('',(11.7201650284569,-5.74648538014832,192.394178591665));
#1287=CARTESIAN_POINT('',(11.7201650284569,-5.74648538014832,192.394178591665));
#1288=CARTESIAN_POINT('',(11.7201650284751,-5.74648538011613,192.394178591665));
#1289=CARTESIAN_POINT('',(11.7171149728418,-5.73129986199617,193.594078628001));
#1290=CARTESIAN_POINT('',(15.8953776071745,-5.73123266341323,193.604698606878));
#1291=CARTESIAN_POINT('',(11.7201650284751,-5.74648538011613,192.394178591665));
#1292=CARTESIAN_POINT('',(15.8984276628078,-5.74641818153319,192.404798570541));
#1293=CARTESIAN_POINT('',(15.8984276628078,-5.74641818153319,192.404798570541));
#1294=CARTESIAN_POINT('',(15.8984276628078,-5.74641818153319,192.404798570541));
#1295=CARTESIAN_POINT('',(15.8953776071745,-5.73123266341323,193.604698606878));
#1296=CARTESIAN_POINT('',(15.8955947256323,7.76768635424703,193.433861528028));
#1297=CARTESIAN_POINT('',(15.8984276628078,-5.74641818153319,192.404798570541));
#1298=CARTESIAN_POINT('',(15.8986447812656,7.75250083612707,192.233961491692));
#1299=CARTESIAN_POINT('',(15.8986447812656,7.75250083612707,192.233961491692));
#1300=CARTESIAN_POINT('',(15.8986447812656,7.75250083612707,192.233961491692));
#1301=CARTESIAN_POINT('',(15.8955947256323,7.76768635424703,193.433861528028));
#1302=CARTESIAN_POINT('',(11.7173320912996,7.76761915566409,193.423241549152));
#1303=CARTESIAN_POINT('',(15.8986447812656,7.75250083612707,192.233961491692));
#1304=CARTESIAN_POINT('',(11.7203821469329,7.75243363754413,192.223341512815));
#1305=CARTESIAN_POINT('',(11.7203821469329,7.75243363754413,192.223341512815));
#1306=CARTESIAN_POINT('',(-0.201411770340898,1.00278239343252,192.27845845137));
#1307=CARTESIAN_POINT('',(-0.204461825974219,1.01796791155248,193.478358487706));
#1308=CARTESIAN_POINT('',(-0.201411770340898,1.00278239343252,192.27845845137));
#1309=CARTESIAN_POINT('',(-0.201411770340898,1.00278239343252,192.27845845137));
#1310=CARTESIAN_POINT('',(-0.204461825974219,1.01796791155248,193.478358487706));
#1311=CARTESIAN_POINT('',(-0.189530823501295,-11.0063700795731,187.680076592149));
#1312=CARTESIAN_POINT('',(-0.189534844213477,-11.2563500613816,187.683240241758));
#1313=CARTESIAN_POINT('',(-0.989532259983793,-11.2563629276606,187.681206871335));
#1314=CARTESIAN_POINT('',(0.61046257155684,-11.2563371951026,187.68527361218));
#1315=CARTESIAN_POINT('',(-0.989528239271612,-11.006382945852,187.678043221727));
#1316=CARTESIAN_POINT('',(-0.98952421855943,-10.7564029640435,187.674879572119));
#1317=CARTESIAN_POINT('',(-0.189526802789113,-10.7563900977645,187.676912942541));
#1318=CARTESIAN_POINT('',(0.610470612981204,-10.7563772314856,187.678946312963));
#1319=CARTESIAN_POINT('',(0.610466592269022,-11.0063572132941,187.682109962572));
#1320=CARTESIAN_POINT('',(-0.201607981095374,-11.1962407188234,192.432844552256));
#1321=CARTESIAN_POINT('',(1.29838717347397,-11.1962165945503,192.436657121798));
#1322=CARTESIAN_POINT('',(1.30868111123643,-11.2474677182052,188.386994499162));
#1323=CARTESIAN_POINT('',(1.29838717347397,-11.1962165945503,192.436657121798));
#1324=CARTESIAN_POINT('',(-0.201607981095374,-11.1962407188234,192.432844552256));
#1325=CARTESIAN_POINT('',(-1.70160313566472,-11.1962648430965,192.429031982714));
#1326=CARTESIAN_POINT('',(-1.70160313566472,-11.1962648430965,192.429031982714));
#1327=CARTESIAN_POINT('',(-1.69130919790226,-11.2475159667514,188.379369360079));
#1328=CARTESIAN_POINT('',(-2.9695457633966,-11.231401859381,189.651022464576));
#1329=CARTESIAN_POINT('',(2.58043630850997,-11.2313125995706,189.66512897188));
#1330=CARTESIAN_POINT('',(-1.70159911495254,-10.946284861288,192.425868333106));
#1331=CARTESIAN_POINT('',(-1.70159911495254,-10.946284861288,192.425868333106));
#1332=CARTESIAN_POINT('',(-1.70159509424035,-10.6963048794795,192.422704683498));
#1333=CARTESIAN_POINT('',(-1.70159509424035,-10.6963048794795,192.422704683498));
#1334=CARTESIAN_POINT('',(-1.69130115647789,-10.7475560031343,188.373042060862));
#1335=CARTESIAN_POINT('',(-1.69130517719008,-10.9975359849428,188.376205710471));
#1336=CARTESIAN_POINT('',(-0.201599939671011,-10.6962807552064,192.426517253039));
#1337=CARTESIAN_POINT('',(-2.96953772197224,-10.731441895764,189.644695165359));
#1338=CARTESIAN_POINT('',(-0.201599939671011,-10.6962807552064,192.426517253039));
#1339=CARTESIAN_POINT('',(1.29839521489833,-10.6962566309333,192.430329822581));
#1340=CARTESIAN_POINT('',(1.29839521489833,-10.6962566309333,192.430329822581));
#1341=CARTESIAN_POINT('',(1.30868915266079,-10.7475077545881,188.380667199946));
#1342=CARTESIAN_POINT('',(2.58044434993433,-10.7313526359536,189.658801672663));
#1343=CARTESIAN_POINT('',(-0.201603960383192,-10.9462607370149,192.429680902648));
#1344=CARTESIAN_POINT('',(1.29839119418615,-10.9462366127418,192.433493472189));
#1345=CARTESIAN_POINT('',(1.29839119418615,-10.9462366127418,192.433493472189));
#1346=CARTESIAN_POINT('',(1.30868513194861,-10.9974877363967,188.383830849554));
#1347=CARTESIAN_POINT('',(1.30868513194861,-10.9974877363967,188.383830849554));
#1348=CARTESIAN_POINT('',(-1.69130517719008,-10.9975359849428,188.376205710471));
#1349=CARTESIAN_POINT('',(-0.189146443416678,12.8917161813218,187.377631689594));
#1350=CARTESIAN_POINT('',(-0.18915046412886,12.6417361995132,187.380795339202));
#1351=CARTESIAN_POINT('',(-0.989147879899177,12.6417233332343,187.37876196878));
#1352=CARTESIAN_POINT('',(0.610846951641456,12.6417490657922,187.382828709624));
#1353=CARTESIAN_POINT('',(-0.989143859186995,12.8917033150428,187.375598319171));
#1354=CARTESIAN_POINT('',(-0.989139838474812,13.1416832968513,187.372434669563));
#1355=CARTESIAN_POINT('',(-0.189142422704495,13.1416961631303,187.374468039985));
#1356=CARTESIAN_POINT('',(0.610854993065821,13.1417090294093,187.376501410407));
#1357=CARTESIAN_POINT('',(0.610850972353639,12.8917290476007,187.379665060016));
#1358=CARTESIAN_POINT('',(-0.201215559586393,13.2018055056885,192.124072350483));
#1359=CARTESIAN_POINT('',(-2.96915334188762,13.1666443651309,189.342250262803));
#1360=CARTESIAN_POINT('',(-1.69091677639328,13.1505302577605,188.070597158306));
#1361=CARTESIAN_POINT('',(-1.70121071415574,13.2017813814154,192.120259780942));
#1362=CARTESIAN_POINT('',(-1.70121071415574,13.2017813814154,192.120259780942));
#1363=CARTESIAN_POINT('',(-0.201215559586393,13.2018055056885,192.124072350483));
#1364=CARTESIAN_POINT('',(1.29877959498295,13.2018296299615,192.127884920025));
#1365=CARTESIAN_POINT('',(1.29877959498295,13.2018296299615,192.127884920025));
#1366=CARTESIAN_POINT('',(1.30907353274541,13.1505785063067,188.07822229739));
#1367=CARTESIAN_POINT('',(2.58082873001895,13.1667336249412,189.356356770108));
#1368=CARTESIAN_POINT('',(1.29877557427077,12.951849648153,192.131048569633));
#1369=CARTESIAN_POINT('',(1.29877557427077,12.951849648153,192.131048569633));
#1370=CARTESIAN_POINT('',(1.29877155355859,12.7018696663445,192.134212219242));
#1371=CARTESIAN_POINT('',(1.29877155355859,12.7018696663445,192.134212219242));
#1372=CARTESIAN_POINT('',(1.30906549132105,12.6506185426896,188.084549596606));
#1373=CARTESIAN_POINT('',(1.30906951203323,12.9005985244981,188.081385946998));
#1374=CARTESIAN_POINT('',(-0.201223601010758,12.7018455420714,192.1303996497));
#1375=CARTESIAN_POINT('',(-0.201223601010758,12.7018455420714,192.1303996497));
#1376=CARTESIAN_POINT('',(-1.7012187555801,12.7018214177983,192.126587080158));
#1377=CARTESIAN_POINT('',(-1.7012187555801,12.7018214177983,192.126587080158));
#1378=CARTESIAN_POINT('',(-1.69092481781764,12.6505702941435,188.076924457523));
#1379=CARTESIAN_POINT('',(-2.96916138331199,12.6666844015138,189.34857756202));
#1380=CARTESIAN_POINT('',(2.58082068859458,12.6667736613242,189.362684069324));
#1381=CARTESIAN_POINT('',(-0.201219580298575,12.9518255238799,192.127236000092));
#1382=CARTESIAN_POINT('',(-1.70121473486792,12.9518013996069,192.12342343055));
#1383=CARTESIAN_POINT('',(-1.70121473486792,12.9518013996069,192.12342343055));
#1384=CARTESIAN_POINT('',(-1.69092079710546,12.900550275952,188.073760807915));
#1385=CARTESIAN_POINT('',(1.30906951203323,12.9005985244981,188.081385946998));
#1386=CARTESIAN_POINT('',(-1.69092079710546,12.900550275952,188.073760807915));
#1387=CARTESIAN_POINT('',(-0.213611992874184,1.06352446591235,197.078058596715));
#1388=CARTESIAN_POINT('',(-0.213611992874184,1.06352446591235,197.078058596715));
#1389=CARTESIAN_POINT('',(13.4863437521925,1.06374480093984,197.112880065196));
#1390=CARTESIAN_POINT('',(-0.287321670679454,1.43050782047803,226.075642808178));
#1391=CARTESIAN_POINT('',(13.4126340743872,1.43072815550552,226.110464276658));
#1392=CARTESIAN_POINT('',(-0.213611992874184,1.06352446591235,197.078058596715));
#1393=CARTESIAN_POINT('',(-0.287321670679454,1.43050782047803,226.075642808178));
#1394=CARTESIAN_POINT('',(-0.187305263036786,0.932549372127708,186.728920783314));
#1395=CARTESIAN_POINT('',(-0.187305263036786,0.932549372127708,186.728920783314));
#1396=CARTESIAN_POINT('',(2.06268746881723,0.932585558537332,186.734639637626));
#1397=CARTESIAN_POINT('',(-0.189846976064554,0.945203970561007,187.728837480261));
#1398=CARTESIAN_POINT('',(-0.189846976064554,0.945203970561007,187.728837480261));
#1399=CARTESIAN_POINT('',(3.06014252550236,0.945256239819353,187.737098047601));
#1400=CARTESIAN_POINT('',(-0.197472115147858,0.983167765860904,190.728587571102));
#1401=CARTESIAN_POINT('',(-0.197472115147858,0.983167765860904,190.728587571102));
#1402=CARTESIAN_POINT('',(8.82749873151103,0.98331291357062,190.751526531177));
#1403=CARTESIAN_POINT('',(-0.189846976064554,0.945203970561007,187.728837480261));
#1404=CARTESIAN_POINT('',(-0.189846976064554,0.945203970561007,187.728837480261));
#1405=CARTESIAN_POINT('',(8.83512387059433,0.945349118270722,187.751776440336));
#1406=CARTESIAN_POINT('',(-0.189846976064554,0.945203970561007,187.728837480261));
#1407=CARTESIAN_POINT('',(-0.204461825974219,1.01796791155248,193.478358487706));
#1408=CARTESIAN_POINT('',(-0.204461825974219,1.01796791155248,193.478358487706));
#1409=CARTESIAN_POINT('',(13.4954939190925,1.01818824657997,193.513179956186));
#1410=CARTESIAN_POINT('',(-0.213611992874184,1.06352446591235,197.078058596715));
#1411=CARTESIAN_POINT('',(13.4863437521925,1.06374480093984,197.112880065196));
#1412=CARTESIAN_POINT('',(-0.204461825974219,1.01796791155248,193.478358487706));
#1413=CARTESIAN_POINT('',(-0.213611992874184,1.06352446591235,197.078058596715));
#1414=CARTESIAN_POINT('',(-0.294946809762758,1.46847161577793,229.075392899019));
#1415=CARTESIAN_POINT('',(-0.294946809762758,1.46847161577793,229.075392899019));
#1416=CARTESIAN_POINT('',(4.58003744258761,1.46855001966545,229.087783750029));
#1417=CARTESIAN_POINT('',(-0.287321670679454,1.43050782047803,226.075642808178));
#1418=CARTESIAN_POINT('',(4.58766258167091,1.43058622436555,226.088033659188));
#1419=CARTESIAN_POINT('',(-0.294946809762758,1.46847161577793,229.075392899019));
#1420=CARTESIAN_POINT('',(-0.294946809762758,1.46847161577793,229.075392899019));
#1421=CARTESIAN_POINT('',(3.08004228801827,1.46852589539236,229.083971180488));
#1422=CARTESIAN_POINT('',(-0.287321670679454,1.43050782047803,226.075642808178));
#1423=CARTESIAN_POINT('',(3.08766742710157,1.43056210009246,226.084221089647));
#1424=CARTESIAN_POINT('',(-0.294946809762758,1.46847161577793,229.075392899019));
#1425=CARTESIAN_POINT('',(-0.287321670679454,1.43050782047803,226.075642808178));
#1426=CARTESIAN_POINT('',(-0.315534685287678,1.57097386308765,237.174718144289));
#1427=CARTESIAN_POINT('',(-0.315534685287678,1.57097386308765,237.174718144289));
#1428=CARTESIAN_POINT('',(0.834461599882152,1.57099235836368,237.177641114271));
#1429=CARTESIAN_POINT('',(-0.183365607843746,0.912934744556094,185.179049903046));
#1430=CARTESIAN_POINT('',(-0.183365607843746,0.912934744556094,185.179049903046));
#1431=CARTESIAN_POINT('',(0.966630677326085,0.912953239832124,185.181972873028));
#1432=CARTESIAN_POINT('',(-0.183365607843746,0.912934744556094,185.179049903046));
#1433=MECHANICAL_DESIGN_GEOMETRIC_PRESENTATION_REPRESENTATION('',(#808,
#809,#810,#811,#812,#813,#814,#815,#816,#817),#1434);
#1434=(
GEOMETRIC_REPRESENTATION_CONTEXT(3)
GLOBAL_UNCERTAINTY_ASSIGNED_CONTEXT((#1435))
GLOBAL_UNIT_ASSIGNED_CONTEXT((#1438,#1437,#1436))
REPRESENTATION_CONTEXT('M01L-02','TOP_LEVEL_ASSEMBLY_PART')
);
#1435=UNCERTAINTY_MEASURE_WITH_UNIT(LENGTH_MEASURE(0.005),#1438,
'DISTANCE_ACCURACY_VALUE','Maximum Tolerance applied to model');
#1436=(
NAMED_UNIT(*)
SI_UNIT($,.STERADIAN.)
SOLID_ANGLE_UNIT()
);
#1437=(
NAMED_UNIT(*)
PLANE_ANGLE_UNIT()
SI_UNIT($,.RADIAN.)
);
#1438=(
LENGTH_UNIT()
NAMED_UNIT(*)
SI_UNIT(.MILLI.,.METRE.)
);
#1439=PRODUCT_DEFINITION_SHAPE('','',#1440);
#1440=PRODUCT_DEFINITION('','',#1442,#1441);
#1441=PRODUCT_DEFINITION_CONTEXT('',#1448,'design');
#1442=PRODUCT_DEFINITION_FORMATION_WITH_SPECIFIED_SOURCE('','',#1444,
 .NOT_KNOWN.);
#1443=PRODUCT_RELATED_PRODUCT_CATEGORY('','',(#1444));
#1444=PRODUCT('M01L-02','M01L-02','M01L-02',(#1446));
#1445=PRODUCT_CATEGORY('','');
#1446=PRODUCT_CONTEXT('',#1448,'mechanical');
#1447=APPLICATION_PROTOCOL_DEFINITION('international standard',
'ap242_managed_model_based_3d_engineering',2020,#1448);
#1448=APPLICATION_CONTEXT('managed model based 3d engineering');
ENDSEC;
END-ISO-10303-21;
