ISO-10303-21;
HEADER;
/* Generated by software containing ST-Developer
 * from STEP Tools, Inc. (www.steptools.com) 
 */
/* OPTION: using custom renumber hook */

FILE_DESCRIPTION(
/* description */ (
'CAx-IF Rec.Pracs.---Representation and Presentation of Product Manufa
cturing Information (PMI)---4.0---2014-10-13',
'CAx-IF Rec.Pracs.---3D Tessellated Geometry---0.4---2014-09-14','2;1'),

/* implementation_level */ '2;1');

FILE_NAME(
/* name */ 'M01R-02',
/* time_stamp */ '2026-04-13T01:14:57+03:00',
/* author */ (''),
/* organization */ (''),
/* preprocessor_version */ 'ST-DEVELOPER v18.102',
/* originating_system */ 'SIEMENS PLM Software NX2206.9140',
/* authorisation */ $);

FILE_SCHEMA (('AP242_MANAGED_MODEL_BASED_3D_ENGINEERING_MIM_LF { 1 0 10303 442 3 1 4 }'));
ENDSEC;

DATA;
#10=CONICAL_SURFACE('',#910,3.25,0.785398163397448);
#11=SHAPE_REPRESENTATION_RELATIONSHIP('','',#894,#12);
#12=ADVANCED_BREP_SHAPE_REPRESENTATION('',(#883,#884,#885,#886,#887,#888,
#889,#890,#891,#892),#1434);
#13=CIRCLE('',#898,13.7);
#14=CIRCLE('',#899,13.7);
#15=CIRCLE('',#904,13.7);
#16=CIRCLE('',#905,13.7);
#17=CIRCLE('',#909,2.25);
#18=CIRCLE('',#911,3.25);
#19=CIRCLE('',#913,9.025);
#20=CIRCLE('',#915,9.025);
#21=CIRCLE('',#929,13.7);
#22=CIRCLE('',#930,13.7);
#23=CIRCLE('',#934,1.15);
#24=CIRCLE('',#936,1.15);
#25=CIRCLE('',#939,1.15);
#26=CIRCLE('',#940,3.25);
#27=CIRCLE('',#942,1.15);
#28=CIRCLE('',#943,3.25);
#29=CIRCLE('',#947,13.7);
#30=CIRCLE('',#948,13.7);
#31=CIRCLE('',#960,4.875);
#32=CIRCLE('',#961,4.875);
#33=CIRCLE('',#963,3.375);
#34=CIRCLE('',#964,3.375);
#35=CYLINDRICAL_SURFACE('',#897,13.7);
#36=CYLINDRICAL_SURFACE('',#903,13.7);
#37=CYLINDRICAL_SURFACE('',#916,9.025);
#38=CYLINDRICAL_SURFACE('',#928,13.7);
#39=CYLINDRICAL_SURFACE('',#937,1.15);
#40=CYLINDRICAL_SURFACE('',#944,3.25);
#41=CYLINDRICAL_SURFACE('',#945,1.15);
#42=CYLINDRICAL_SURFACE('',#946,13.7);
#43=CYLINDRICAL_SURFACE('',#959,4.875);
#44=CYLINDRICAL_SURFACE('',#962,3.375);
#45=ORIENTED_EDGE('',*,*,#237,.T.);
#46=ORIENTED_EDGE('',*,*,#238,.F.);
#47=ORIENTED_EDGE('',*,*,#239,.F.);
#48=ORIENTED_EDGE('',*,*,#240,.T.);
#49=ORIENTED_EDGE('',*,*,#241,.T.);
#50=ORIENTED_EDGE('',*,*,#242,.F.);
#51=ORIENTED_EDGE('',*,*,#243,.F.);
#52=ORIENTED_EDGE('',*,*,#238,.T.);
#53=ORIENTED_EDGE('',*,*,#244,.T.);
#54=ORIENTED_EDGE('',*,*,#245,.F.);
#55=ORIENTED_EDGE('',*,*,#246,.F.);
#56=ORIENTED_EDGE('',*,*,#242,.T.);
#57=ORIENTED_EDGE('',*,*,#247,.T.);
#58=ORIENTED_EDGE('',*,*,#248,.F.);
#59=ORIENTED_EDGE('',*,*,#249,.F.);
#60=ORIENTED_EDGE('',*,*,#245,.T.);
#61=ORIENTED_EDGE('',*,*,#250,.T.);
#62=ORIENTED_EDGE('',*,*,#251,.F.);
#63=ORIENTED_EDGE('',*,*,#252,.F.);
#64=ORIENTED_EDGE('',*,*,#248,.T.);
#65=ORIENTED_EDGE('',*,*,#253,.T.);
#66=ORIENTED_EDGE('',*,*,#240,.F.);
#67=ORIENTED_EDGE('',*,*,#254,.F.);
#68=ORIENTED_EDGE('',*,*,#251,.T.);
#69=ORIENTED_EDGE('',*,*,#239,.T.);
#70=ORIENTED_EDGE('',*,*,#243,.T.);
#71=ORIENTED_EDGE('',*,*,#246,.T.);
#72=ORIENTED_EDGE('',*,*,#249,.T.);
#73=ORIENTED_EDGE('',*,*,#252,.T.);
#74=ORIENTED_EDGE('',*,*,#254,.T.);
#75=ORIENTED_EDGE('',*,*,#237,.F.);
#76=ORIENTED_EDGE('',*,*,#253,.F.);
#77=ORIENTED_EDGE('',*,*,#250,.F.);
#78=ORIENTED_EDGE('',*,*,#247,.F.);
#79=ORIENTED_EDGE('',*,*,#244,.F.);
#80=ORIENTED_EDGE('',*,*,#241,.F.);
#81=ORIENTED_EDGE('',*,*,#255,.T.);
#82=ORIENTED_EDGE('',*,*,#255,.F.);
#83=ORIENTED_EDGE('',*,*,#256,.T.);
#84=ORIENTED_EDGE('',*,*,#257,.F.);
#85=ORIENTED_EDGE('',*,*,#256,.F.);
#86=ORIENTED_EDGE('',*,*,#258,.F.);
#87=ORIENTED_EDGE('',*,*,#257,.T.);
#88=ORIENTED_EDGE('',*,*,#258,.T.);
#89=ORIENTED_EDGE('',*,*,#259,.T.);
#90=ORIENTED_EDGE('',*,*,#260,.F.);
#91=ORIENTED_EDGE('',*,*,#261,.F.);
#92=ORIENTED_EDGE('',*,*,#262,.T.);
#93=ORIENTED_EDGE('',*,*,#263,.F.);
#94=ORIENTED_EDGE('',*,*,#264,.F.);
#95=ORIENTED_EDGE('',*,*,#265,.T.);
#96=ORIENTED_EDGE('',*,*,#266,.T.);
#97=ORIENTED_EDGE('',*,*,#267,.T.);
#98=ORIENTED_EDGE('',*,*,#268,.F.);
#99=ORIENTED_EDGE('',*,*,#269,.F.);
#100=ORIENTED_EDGE('',*,*,#270,.T.);
#101=ORIENTED_EDGE('',*,*,#271,.T.);
#102=ORIENTED_EDGE('',*,*,#262,.F.);
#103=ORIENTED_EDGE('',*,*,#272,.F.);
#104=ORIENTED_EDGE('',*,*,#268,.T.);
#105=ORIENTED_EDGE('',*,*,#273,.T.);
#106=ORIENTED_EDGE('',*,*,#270,.F.);
#107=ORIENTED_EDGE('',*,*,#274,.F.);
#108=ORIENTED_EDGE('',*,*,#260,.T.);
#109=ORIENTED_EDGE('',*,*,#269,.T.);
#110=ORIENTED_EDGE('',*,*,#272,.T.);
#111=ORIENTED_EDGE('',*,*,#261,.T.);
#112=ORIENTED_EDGE('',*,*,#274,.T.);
#113=ORIENTED_EDGE('',*,*,#267,.F.);
#114=ORIENTED_EDGE('',*,*,#273,.F.);
#115=ORIENTED_EDGE('',*,*,#259,.F.);
#116=ORIENTED_EDGE('',*,*,#271,.F.);
#117=ORIENTED_EDGE('',*,*,#275,.F.);
#118=ORIENTED_EDGE('',*,*,#276,.F.);
#119=ORIENTED_EDGE('',*,*,#277,.T.);
#120=ORIENTED_EDGE('',*,*,#278,.T.);
#121=ORIENTED_EDGE('',*,*,#279,.F.);
#122=ORIENTED_EDGE('',*,*,#278,.F.);
#123=ORIENTED_EDGE('',*,*,#280,.T.);
#124=ORIENTED_EDGE('',*,*,#264,.T.);
#125=ORIENTED_EDGE('',*,*,#281,.F.);
#126=ORIENTED_EDGE('',*,*,#266,.F.);
#127=ORIENTED_EDGE('',*,*,#282,.T.);
#128=ORIENTED_EDGE('',*,*,#276,.T.);
#129=ORIENTED_EDGE('',*,*,#277,.F.);
#130=ORIENTED_EDGE('',*,*,#282,.F.);
#131=ORIENTED_EDGE('',*,*,#265,.F.);
#132=ORIENTED_EDGE('',*,*,#280,.F.);
#133=ORIENTED_EDGE('',*,*,#275,.T.);
#134=ORIENTED_EDGE('',*,*,#279,.T.);
#135=ORIENTED_EDGE('',*,*,#263,.T.);
#136=ORIENTED_EDGE('',*,*,#281,.T.);
#137=ORIENTED_EDGE('',*,*,#283,.F.);
#138=ORIENTED_EDGE('',*,*,#284,.T.);
#139=ORIENTED_EDGE('',*,*,#283,.T.);
#140=ORIENTED_EDGE('',*,*,#284,.F.);
#141=ORIENTED_EDGE('',*,*,#285,.F.);
#142=ORIENTED_EDGE('',*,*,#286,.F.);
#143=ORIENTED_EDGE('',*,*,#285,.T.);
#144=ORIENTED_EDGE('',*,*,#286,.T.);
#145=ORIENTED_EDGE('',*,*,#287,.F.);
#146=ORIENTED_EDGE('',*,*,#288,.F.);
#147=ORIENTED_EDGE('',*,*,#289,.T.);
#148=ORIENTED_EDGE('',*,*,#290,.F.);
#149=ORIENTED_EDGE('',*,*,#288,.T.);
#150=ORIENTED_EDGE('',*,*,#290,.T.);
#151=ORIENTED_EDGE('',*,*,#287,.T.);
#152=ORIENTED_EDGE('',*,*,#289,.F.);
#153=ORIENTED_EDGE('',*,*,#291,.F.);
#154=ORIENTED_EDGE('',*,*,#292,.T.);
#155=ORIENTED_EDGE('',*,*,#291,.T.);
#156=ORIENTED_EDGE('',*,*,#292,.F.);
#157=ORIENTED_EDGE('',*,*,#293,.F.);
#158=ORIENTED_EDGE('',*,*,#294,.T.);
#159=ORIENTED_EDGE('',*,*,#295,.F.);
#160=ORIENTED_EDGE('',*,*,#296,.T.);
#161=ORIENTED_EDGE('',*,*,#297,.T.);
#162=ORIENTED_EDGE('',*,*,#298,.T.);
#163=ORIENTED_EDGE('',*,*,#293,.T.);
#164=ORIENTED_EDGE('',*,*,#299,.T.);
#165=ORIENTED_EDGE('',*,*,#300,.F.);
#166=ORIENTED_EDGE('',*,*,#301,.T.);
#167=ORIENTED_EDGE('',*,*,#300,.T.);
#168=ORIENTED_EDGE('',*,*,#302,.T.);
#169=ORIENTED_EDGE('',*,*,#303,.F.);
#170=ORIENTED_EDGE('',*,*,#304,.T.);
#171=ORIENTED_EDGE('',*,*,#295,.T.);
#172=ORIENTED_EDGE('',*,*,#305,.T.);
#173=ORIENTED_EDGE('',*,*,#306,.F.);
#174=ORIENTED_EDGE('',*,*,#307,.T.);
#175=ORIENTED_EDGE('',*,*,#303,.T.);
#176=ORIENTED_EDGE('',*,*,#308,.T.);
#177=ORIENTED_EDGE('',*,*,#309,.F.);
#178=ORIENTED_EDGE('',*,*,#301,.F.);
#179=ORIENTED_EDGE('',*,*,#304,.F.);
#180=ORIENTED_EDGE('',*,*,#307,.F.);
#181=ORIENTED_EDGE('',*,*,#306,.T.);
#182=ORIENTED_EDGE('',*,*,#310,.T.);
#183=ORIENTED_EDGE('',*,*,#297,.F.);
#184=ORIENTED_EDGE('',*,*,#309,.T.);
#185=ORIENTED_EDGE('',*,*,#305,.F.);
#186=ORIENTED_EDGE('',*,*,#294,.F.);
#187=ORIENTED_EDGE('',*,*,#298,.F.);
#188=ORIENTED_EDGE('',*,*,#310,.F.);
#189=ORIENTED_EDGE('',*,*,#299,.F.);
#190=ORIENTED_EDGE('',*,*,#296,.F.);
#191=ORIENTED_EDGE('',*,*,#308,.F.);
#192=ORIENTED_EDGE('',*,*,#302,.F.);
#193=ORIENTED_EDGE('',*,*,#311,.F.);
#194=ORIENTED_EDGE('',*,*,#312,.T.);
#195=ORIENTED_EDGE('',*,*,#313,.T.);
#196=ORIENTED_EDGE('',*,*,#314,.F.);
#197=ORIENTED_EDGE('',*,*,#311,.T.);
#198=ORIENTED_EDGE('',*,*,#313,.F.);
#199=ORIENTED_EDGE('',*,*,#312,.F.);
#200=ORIENTED_EDGE('',*,*,#314,.T.);
#201=ORIENTED_EDGE('',*,*,#315,.F.);
#202=ORIENTED_EDGE('',*,*,#316,.T.);
#203=ORIENTED_EDGE('',*,*,#317,.F.);
#204=ORIENTED_EDGE('',*,*,#318,.T.);
#205=ORIENTED_EDGE('',*,*,#317,.T.);
#206=ORIENTED_EDGE('',*,*,#319,.T.);
#207=ORIENTED_EDGE('',*,*,#320,.F.);
#208=ORIENTED_EDGE('',*,*,#321,.T.);
#209=ORIENTED_EDGE('',*,*,#322,.T.);
#210=ORIENTED_EDGE('',*,*,#323,.T.);
#211=ORIENTED_EDGE('',*,*,#320,.T.);
#212=ORIENTED_EDGE('',*,*,#324,.T.);
#213=ORIENTED_EDGE('',*,*,#325,.F.);
#214=ORIENTED_EDGE('',*,*,#326,.T.);
#215=ORIENTED_EDGE('',*,*,#325,.T.);
#216=ORIENTED_EDGE('',*,*,#327,.T.);
#217=ORIENTED_EDGE('',*,*,#315,.T.);
#218=ORIENTED_EDGE('',*,*,#328,.T.);
#219=ORIENTED_EDGE('',*,*,#329,.F.);
#220=ORIENTED_EDGE('',*,*,#330,.T.);
#221=ORIENTED_EDGE('',*,*,#331,.F.);
#222=ORIENTED_EDGE('',*,*,#321,.F.);
#223=ORIENTED_EDGE('',*,*,#326,.F.);
#224=ORIENTED_EDGE('',*,*,#330,.F.);
#225=ORIENTED_EDGE('',*,*,#329,.T.);
#226=ORIENTED_EDGE('',*,*,#332,.T.);
#227=ORIENTED_EDGE('',*,*,#322,.F.);
#228=ORIENTED_EDGE('',*,*,#331,.T.);
#229=ORIENTED_EDGE('',*,*,#319,.F.);
#230=ORIENTED_EDGE('',*,*,#316,.F.);
#231=ORIENTED_EDGE('',*,*,#327,.F.);
#232=ORIENTED_EDGE('',*,*,#324,.F.);
#233=ORIENTED_EDGE('',*,*,#328,.F.);
#234=ORIENTED_EDGE('',*,*,#318,.F.);
#235=ORIENTED_EDGE('',*,*,#323,.F.);
#236=ORIENTED_EDGE('',*,*,#332,.F.);
#237=EDGE_CURVE('',#333,#334,#403,.T.);
#238=EDGE_CURVE('',#335,#334,#404,.T.);
#239=EDGE_CURVE('',#336,#335,#405,.T.);
#240=EDGE_CURVE('',#336,#333,#406,.T.);
#241=EDGE_CURVE('',#334,#337,#13,.T.);
#242=EDGE_CURVE('',#338,#337,#407,.T.);
#243=EDGE_CURVE('',#335,#338,#14,.T.);
#244=EDGE_CURVE('',#337,#339,#408,.T.);
#245=EDGE_CURVE('',#340,#339,#409,.T.);
#246=EDGE_CURVE('',#338,#340,#410,.T.);
#247=EDGE_CURVE('',#339,#341,#411,.T.);
#248=EDGE_CURVE('',#342,#341,#412,.T.);
#249=EDGE_CURVE('',#340,#342,#413,.T.);
#250=EDGE_CURVE('',#341,#343,#414,.T.);
#251=EDGE_CURVE('',#344,#343,#415,.T.);
#252=EDGE_CURVE('',#342,#344,#416,.T.);
#253=EDGE_CURVE('',#343,#333,#15,.T.);
#254=EDGE_CURVE('',#344,#336,#16,.T.);
#255=EDGE_CURVE('',#345,#345,#17,.T.);
#256=EDGE_CURVE('',#346,#346,#18,.T.);
#257=EDGE_CURVE('',#347,#347,#19,.T.);
#258=EDGE_CURVE('',#348,#348,#20,.T.);
#259=EDGE_CURVE('',#349,#350,#417,.T.);
#260=EDGE_CURVE('',#351,#350,#418,.T.);
#261=EDGE_CURVE('',#352,#351,#419,.T.);
#262=EDGE_CURVE('',#352,#349,#420,.T.);
#263=EDGE_CURVE('',#353,#354,#421,.T.);
#264=EDGE_CURVE('',#355,#353,#422,.T.);
#265=EDGE_CURVE('',#355,#356,#423,.T.);
#266=EDGE_CURVE('',#356,#354,#424,.T.);
#267=EDGE_CURVE('',#357,#358,#425,.T.);
#268=EDGE_CURVE('',#359,#358,#426,.T.);
#269=EDGE_CURVE('',#360,#359,#427,.T.);
#270=EDGE_CURVE('',#360,#357,#428,.T.);
#271=EDGE_CURVE('',#358,#349,#429,.T.);
#272=EDGE_CURVE('',#359,#352,#430,.T.);
#273=EDGE_CURVE('',#350,#357,#431,.T.);
#274=EDGE_CURVE('',#351,#360,#432,.T.);
#275=EDGE_CURVE('',#361,#362,#433,.T.);
#276=EDGE_CURVE('',#363,#361,#434,.T.);
#277=EDGE_CURVE('',#363,#364,#435,.T.);
#278=EDGE_CURVE('',#364,#362,#436,.T.);
#279=EDGE_CURVE('',#362,#353,#437,.T.);
#280=EDGE_CURVE('',#364,#355,#438,.T.);
#281=EDGE_CURVE('',#354,#361,#439,.T.);
#282=EDGE_CURVE('',#356,#363,#440,.T.);
#283=EDGE_CURVE('',#365,#365,#21,.T.);
#284=EDGE_CURVE('',#366,#366,#22,.T.);
#285=EDGE_CURVE('',#367,#367,#23,.T.);
#286=EDGE_CURVE('',#368,#368,#24,.T.);
#287=EDGE_CURVE('',#369,#369,#25,.T.);
#288=EDGE_CURVE('',#370,#370,#26,.T.);
#289=EDGE_CURVE('',#371,#371,#27,.T.);
#290=EDGE_CURVE('',#372,#372,#28,.T.);
#291=EDGE_CURVE('',#373,#373,#29,.T.);
#292=EDGE_CURVE('',#374,#374,#30,.T.);
#293=EDGE_CURVE('',#375,#376,#441,.T.);
#294=EDGE_CURVE('',#375,#377,#442,.T.);
#295=EDGE_CURVE('',#378,#377,#443,.T.);
#296=EDGE_CURVE('',#378,#376,#444,.T.);
#297=EDGE_CURVE('',#379,#380,#445,.T.);
#298=EDGE_CURVE('',#380,#375,#446,.F.);
#299=EDGE_CURVE('',#376,#381,#447,.F.);
#300=EDGE_CURVE('',#382,#381,#448,.T.);
#301=EDGE_CURVE('',#382,#379,#449,.T.);
#302=EDGE_CURVE('',#381,#383,#450,.T.);
#303=EDGE_CURVE('',#384,#383,#451,.T.);
#304=EDGE_CURVE('',#384,#382,#452,.T.);
#305=EDGE_CURVE('',#377,#385,#453,.F.);
#306=EDGE_CURVE('',#386,#385,#454,.T.);
#307=EDGE_CURVE('',#386,#384,#455,.T.);
#308=EDGE_CURVE('',#383,#378,#456,.F.);
#309=EDGE_CURVE('',#379,#386,#457,.T.);
#310=EDGE_CURVE('',#385,#380,#458,.T.);
#311=EDGE_CURVE('',#387,#387,#31,.T.);
#312=EDGE_CURVE('',#388,#388,#32,.T.);
#313=EDGE_CURVE('',#389,#389,#33,.T.);
#314=EDGE_CURVE('',#390,#390,#34,.T.);
#315=EDGE_CURVE('',#391,#392,#459,.T.);
#316=EDGE_CURVE('',#391,#393,#460,.T.);
#317=EDGE_CURVE('',#394,#393,#461,.T.);
#318=EDGE_CURVE('',#394,#392,#462,.T.);
#319=EDGE_CURVE('',#393,#395,#463,.F.);
#320=EDGE_CURVE('',#396,#395,#464,.T.);
#321=EDGE_CURVE('',#396,#397,#465,.T.);
#322=EDGE_CURVE('',#397,#398,#466,.T.);
#323=EDGE_CURVE('',#398,#394,#467,.F.);
#324=EDGE_CURVE('',#395,#399,#468,.T.);
#325=EDGE_CURVE('',#400,#399,#469,.T.);
#326=EDGE_CURVE('',#400,#396,#470,.T.);
#327=EDGE_CURVE('',#399,#391,#471,.F.);
#328=EDGE_CURVE('',#392,#401,#472,.F.);
#329=EDGE_CURVE('',#402,#401,#473,.T.);
#330=EDGE_CURVE('',#402,#400,#474,.T.);
#331=EDGE_CURVE('',#397,#402,#475,.T.);
#332=EDGE_CURVE('',#401,#398,#476,.T.);
#333=VERTEX_POINT('',#1212);
#334=VERTEX_POINT('',#1213);
#335=VERTEX_POINT('',#1215);
#336=VERTEX_POINT('',#1217);
#337=VERTEX_POINT('',#1221);
#338=VERTEX_POINT('',#1223);
#339=VERTEX_POINT('',#1227);
#340=VERTEX_POINT('',#1229);
#341=VERTEX_POINT('',#1233);
#342=VERTEX_POINT('',#1235);
#343=VERTEX_POINT('',#1239);
#344=VERTEX_POINT('',#1241);
#345=VERTEX_POINT('',#1250);
#346=VERTEX_POINT('',#1253);
#347=VERTEX_POINT('',#1256);
#348=VERTEX_POINT('',#1259);
#349=VERTEX_POINT('',#1263);
#350=VERTEX_POINT('',#1264);
#351=VERTEX_POINT('',#1266);
#352=VERTEX_POINT('',#1268);
#353=VERTEX_POINT('',#1271);
#354=VERTEX_POINT('',#1272);
#355=VERTEX_POINT('',#1274);
#356=VERTEX_POINT('',#1276);
#357=VERTEX_POINT('',#1280);
#358=VERTEX_POINT('',#1281);
#359=VERTEX_POINT('',#1283);
#360=VERTEX_POINT('',#1285);
#361=VERTEX_POINT('',#1297);
#362=VERTEX_POINT('',#1298);
#363=VERTEX_POINT('',#1300);
#364=VERTEX_POINT('',#1302);
#365=VERTEX_POINT('',#1314);
#366=VERTEX_POINT('',#1316);
#367=VERTEX_POINT('',#1321);
#368=VERTEX_POINT('',#1324);
#369=VERTEX_POINT('',#1328);
#370=VERTEX_POINT('',#1330);
#371=VERTEX_POINT('',#1333);
#372=VERTEX_POINT('',#1335);
#373=VERTEX_POINT('',#1340);
#374=VERTEX_POINT('',#1342);
#375=VERTEX_POINT('',#1347);
#376=VERTEX_POINT('',#1348);
#377=VERTEX_POINT('',#1350);
#378=VERTEX_POINT('',#1352);
#379=VERTEX_POINT('',#1356);
#380=VERTEX_POINT('',#1357);
#381=VERTEX_POINT('',#1360);
#382=VERTEX_POINT('',#1362);
#383=VERTEX_POINT('',#1366);
#384=VERTEX_POINT('',#1368);
#385=VERTEX_POINT('',#1372);
#386=VERTEX_POINT('',#1374);
#387=VERTEX_POINT('',#1385);
#388=VERTEX_POINT('',#1387);
#389=VERTEX_POINT('',#1390);
#390=VERTEX_POINT('',#1392);
#391=VERTEX_POINT('',#1397);
#392=VERTEX_POINT('',#1398);
#393=VERTEX_POINT('',#1400);
#394=VERTEX_POINT('',#1402);
#395=VERTEX_POINT('',#1406);
#396=VERTEX_POINT('',#1408);
#397=VERTEX_POINT('',#1410);
#398=VERTEX_POINT('',#1412);
#399=VERTEX_POINT('',#1416);
#400=VERTEX_POINT('',#1418);
#401=VERTEX_POINT('',#1423);
#402=VERTEX_POINT('',#1425);
#403=LINE('',#1211,#477);
#404=LINE('',#1214,#478);
#405=LINE('',#1216,#479);
#406=LINE('',#1218,#480);
#407=LINE('',#1222,#481);
#408=LINE('',#1226,#482);
#409=LINE('',#1228,#483);
#410=LINE('',#1230,#484);
#411=LINE('',#1232,#485);
#412=LINE('',#1234,#486);
#413=LINE('',#1236,#487);
#414=LINE('',#1238,#488);
#415=LINE('',#1240,#489);
#416=LINE('',#1242,#490);
#417=LINE('',#1262,#491);
#418=LINE('',#1265,#492);
#419=LINE('',#1267,#493);
#420=LINE('',#1269,#494);
#421=LINE('',#1270,#495);
#422=LINE('',#1273,#496);
#423=LINE('',#1275,#497);
#424=LINE('',#1277,#498);
#425=LINE('',#1279,#499);
#426=LINE('',#1282,#500);
#427=LINE('',#1284,#501);
#428=LINE('',#1286,#502);
#429=LINE('',#1288,#503);
#430=LINE('',#1289,#504);
#431=LINE('',#1291,#505);
#432=LINE('',#1292,#506);
#433=LINE('',#1296,#507);
#434=LINE('',#1299,#508);
#435=LINE('',#1301,#509);
#436=LINE('',#1303,#510);
#437=LINE('',#1305,#511);
#438=LINE('',#1306,#512);
#439=LINE('',#1308,#513);
#440=LINE('',#1309,#514);
#441=LINE('',#1346,#515);
#442=LINE('',#1349,#516);
#443=LINE('',#1351,#517);
#444=LINE('',#1353,#518);
#445=LINE('',#1355,#519);
#446=LINE('',#1358,#520);
#447=LINE('',#1359,#521);
#448=LINE('',#1361,#522);
#449=LINE('',#1363,#523);
#450=LINE('',#1365,#524);
#451=LINE('',#1367,#525);
#452=LINE('',#1369,#526);
#453=LINE('',#1371,#527);
#454=LINE('',#1373,#528);
#455=LINE('',#1375,#529);
#456=LINE('',#1376,#530);
#457=LINE('',#1378,#531);
#458=LINE('',#1380,#532);
#459=LINE('',#1396,#533);
#460=LINE('',#1399,#534);
#461=LINE('',#1401,#535);
#462=LINE('',#1403,#536);
#463=LINE('',#1405,#537);
#464=LINE('',#1407,#538);
#465=LINE('',#1409,#539);
#466=LINE('',#1411,#540);
#467=LINE('',#1413,#541);
#468=LINE('',#1415,#542);
#469=LINE('',#1417,#543);
#470=LINE('',#1419,#544);
#471=LINE('',#1421,#545);
#472=LINE('',#1422,#546);
#473=LINE('',#1424,#547);
#474=LINE('',#1426,#548);
#475=LINE('',#1428,#549);
#476=LINE('',#1430,#550);
#477=VECTOR('',#979,1000.);
#478=VECTOR('',#980,1000.);
#479=VECTOR('',#981,1000.);
#480=VECTOR('',#982,1000.);
#481=VECTOR('',#987,1000.);
#482=VECTOR('',#992,1000.);
#483=VECTOR('',#993,1000.);
#484=VECTOR('',#994,1000.);
#485=VECTOR('',#997,1000.);
#486=VECTOR('',#998,1000.);
#487=VECTOR('',#999,1000.);
#488=VECTOR('',#1002,1000.);
#489=VECTOR('',#1003,1000.);
#490=VECTOR('',#1004,1000.);
#491=VECTOR('',#1035,1000.);
#492=VECTOR('',#1036,1000.);
#493=VECTOR('',#1037,1000.);
#494=VECTOR('',#1038,1000.);
#495=VECTOR('',#1039,1000.);
#496=VECTOR('',#1040,1000.);
#497=VECTOR('',#1041,1000.);
#498=VECTOR('',#1042,1000.);
#499=VECTOR('',#1045,1000.);
#500=VECTOR('',#1046,1000.);
#501=VECTOR('',#1047,1000.);
#502=VECTOR('',#1048,1000.);
#503=VECTOR('',#1051,1000.);
#504=VECTOR('',#1052,1000.);
#505=VECTOR('',#1055,1000.);
#506=VECTOR('',#1056,1000.);
#507=VECTOR('',#1063,1000.);
#508=VECTOR('',#1064,1000.);
#509=VECTOR('',#1065,1000.);
#510=VECTOR('',#1066,1000.);
#511=VECTOR('',#1069,1000.);
#512=VECTOR('',#1070,1000.);
#513=VECTOR('',#1073,1000.);
#514=VECTOR('',#1074,1000.);
#515=VECTOR('',#1127,1000.);
#516=VECTOR('',#1128,1000.);
#517=VECTOR('',#1129,1000.);
#518=VECTOR('',#1130,1000.);
#519=VECTOR('',#1133,1000.);
#520=VECTOR('',#1134,1000.);
#521=VECTOR('',#1135,1000.);
#522=VECTOR('',#1136,1000.);
#523=VECTOR('',#1137,1000.);
#524=VECTOR('',#1140,1000.);
#525=VECTOR('',#1141,1000.);
#526=VECTOR('',#1142,1000.);
#527=VECTOR('',#1145,1000.);
#528=VECTOR('',#1146,1000.);
#529=VECTOR('',#1147,1000.);
#530=VECTOR('',#1148,1000.);
#531=VECTOR('',#1151,1000.);
#532=VECTOR('',#1154,1000.);
#533=VECTOR('',#1177,1000.);
#534=VECTOR('',#1178,1000.);
#535=VECTOR('',#1179,1000.);
#536=VECTOR('',#1180,1000.);
#537=VECTOR('',#1183,1000.);
#538=VECTOR('',#1184,1000.);
#539=VECTOR('',#1185,1000.);
#540=VECTOR('',#1186,1000.);
#541=VECTOR('',#1187,1000.);
#542=VECTOR('',#1190,1000.);
#543=VECTOR('',#1191,1000.);
#544=VECTOR('',#1192,1000.);
#545=VECTOR('',#1195,1000.);
#546=VECTOR('',#1196,1000.);
#547=VECTOR('',#1197,1000.);
#548=VECTOR('',#1198,1000.);
#549=VECTOR('',#1201,1000.);
#550=VECTOR('',#1204,1000.);
#551=EDGE_LOOP('',(#45,#46,#47,#48));
#552=EDGE_LOOP('',(#49,#50,#51,#52));
#553=EDGE_LOOP('',(#53,#54,#55,#56));
#554=EDGE_LOOP('',(#57,#58,#59,#60));
#555=EDGE_LOOP('',(#61,#62,#63,#64));
#556=EDGE_LOOP('',(#65,#66,#67,#68));
#557=EDGE_LOOP('',(#69,#70,#71,#72,#73,#74));
#558=EDGE_LOOP('',(#75,#76,#77,#78,#79,#80));
#559=EDGE_LOOP('',(#81));
#560=EDGE_LOOP('',(#82));
#561=EDGE_LOOP('',(#83));
#562=EDGE_LOOP('',(#84));
#563=EDGE_LOOP('',(#85));
#564=EDGE_LOOP('',(#86));
#565=EDGE_LOOP('',(#87));
#566=EDGE_LOOP('',(#88));
#567=EDGE_LOOP('',(#89,#90,#91,#92));
#568=EDGE_LOOP('',(#93,#94,#95,#96));
#569=EDGE_LOOP('',(#97,#98,#99,#100));
#570=EDGE_LOOP('',(#101,#102,#103,#104));
#571=EDGE_LOOP('',(#105,#106,#107,#108));
#572=EDGE_LOOP('',(#109,#110,#111,#112));
#573=EDGE_LOOP('',(#113,#114,#115,#116));
#574=EDGE_LOOP('',(#117,#118,#119,#120));
#575=EDGE_LOOP('',(#121,#122,#123,#124));
#576=EDGE_LOOP('',(#125,#126,#127,#128));
#577=EDGE_LOOP('',(#129,#130,#131,#132));
#578=EDGE_LOOP('',(#133,#134,#135,#136));
#579=EDGE_LOOP('',(#137));
#580=EDGE_LOOP('',(#138));
#581=EDGE_LOOP('',(#139));
#582=EDGE_LOOP('',(#140));
#583=EDGE_LOOP('',(#141));
#584=EDGE_LOOP('',(#142));
#585=EDGE_LOOP('',(#143));
#586=EDGE_LOOP('',(#144));
#587=EDGE_LOOP('',(#145));
#588=EDGE_LOOP('',(#146));
#589=EDGE_LOOP('',(#147));
#590=EDGE_LOOP('',(#148));
#591=EDGE_LOOP('',(#149));
#592=EDGE_LOOP('',(#150));
#593=EDGE_LOOP('',(#151));
#594=EDGE_LOOP('',(#152));
#595=EDGE_LOOP('',(#153));
#596=EDGE_LOOP('',(#154));
#597=EDGE_LOOP('',(#155));
#598=EDGE_LOOP('',(#156));
#599=EDGE_LOOP('',(#157,#158,#159,#160));
#600=EDGE_LOOP('',(#161,#162,#163,#164,#165,#166));
#601=EDGE_LOOP('',(#167,#168,#169,#170));
#602=EDGE_LOOP('',(#171,#172,#173,#174,#175,#176));
#603=EDGE_LOOP('',(#177,#178,#179,#180));
#604=EDGE_LOOP('',(#181,#182,#183,#184));
#605=EDGE_LOOP('',(#185,#186,#187,#188));
#606=EDGE_LOOP('',(#189,#190,#191,#192));
#607=EDGE_LOOP('',(#193));
#608=EDGE_LOOP('',(#194));
#609=EDGE_LOOP('',(#195));
#610=EDGE_LOOP('',(#196));
#611=EDGE_LOOP('',(#197));
#612=EDGE_LOOP('',(#198));
#613=EDGE_LOOP('',(#199));
#614=EDGE_LOOP('',(#200));
#615=EDGE_LOOP('',(#201,#202,#203,#204));
#616=EDGE_LOOP('',(#205,#206,#207,#208,#209,#210));
#617=EDGE_LOOP('',(#211,#212,#213,#214));
#618=EDGE_LOOP('',(#215,#216,#217,#218,#219,#220));
#619=EDGE_LOOP('',(#221,#222,#223,#224));
#620=EDGE_LOOP('',(#225,#226,#227,#228));
#621=EDGE_LOOP('',(#229,#230,#231,#232));
#622=EDGE_LOOP('',(#233,#234,#235,#236));
#623=FACE_BOUND('',#551,.T.);
#624=FACE_BOUND('',#552,.T.);
#625=FACE_BOUND('',#553,.T.);
#626=FACE_BOUND('',#554,.T.);
#627=FACE_BOUND('',#555,.T.);
#628=FACE_BOUND('',#556,.T.);
#629=FACE_BOUND('',#557,.T.);
#630=FACE_BOUND('',#558,.T.);
#631=FACE_BOUND('',#559,.T.);
#632=FACE_BOUND('',#560,.T.);
#633=FACE_BOUND('',#561,.T.);
#634=FACE_BOUND('',#562,.T.);
#635=FACE_BOUND('',#563,.T.);
#636=FACE_BOUND('',#564,.T.);
#637=FACE_BOUND('',#565,.T.);
#638=FACE_BOUND('',#566,.T.);
#639=FACE_BOUND('',#567,.T.);
#640=FACE_BOUND('',#568,.T.);
#641=FACE_BOUND('',#569,.T.);
#642=FACE_BOUND('',#570,.T.);
#643=FACE_BOUND('',#571,.T.);
#644=FACE_BOUND('',#572,.T.);
#645=FACE_BOUND('',#573,.T.);
#646=FACE_BOUND('',#574,.T.);
#647=FACE_BOUND('',#575,.T.);
#648=FACE_BOUND('',#576,.T.);
#649=FACE_BOUND('',#577,.T.);
#650=FACE_BOUND('',#578,.T.);
#651=FACE_BOUND('',#579,.T.);
#652=FACE_BOUND('',#580,.T.);
#653=FACE_BOUND('',#581,.T.);
#654=FACE_BOUND('',#582,.T.);
#655=FACE_BOUND('',#583,.T.);
#656=FACE_BOUND('',#584,.T.);
#657=FACE_BOUND('',#585,.T.);
#658=FACE_BOUND('',#586,.T.);
#659=FACE_BOUND('',#587,.T.);
#660=FACE_BOUND('',#588,.T.);
#661=FACE_BOUND('',#589,.T.);
#662=FACE_BOUND('',#590,.T.);
#663=FACE_BOUND('',#591,.T.);
#664=FACE_BOUND('',#592,.T.);
#665=FACE_BOUND('',#593,.T.);
#666=FACE_BOUND('',#594,.T.);
#667=FACE_BOUND('',#595,.T.);
#668=FACE_BOUND('',#596,.T.);
#669=FACE_BOUND('',#597,.T.);
#670=FACE_BOUND('',#598,.T.);
#671=FACE_BOUND('',#599,.T.);
#672=FACE_BOUND('',#600,.T.);
#673=FACE_BOUND('',#601,.T.);
#674=FACE_BOUND('',#602,.T.);
#675=FACE_BOUND('',#603,.T.);
#676=FACE_BOUND('',#604,.T.);
#677=FACE_BOUND('',#605,.T.);
#678=FACE_BOUND('',#606,.T.);
#679=FACE_BOUND('',#607,.T.);
#680=FACE_BOUND('',#608,.T.);
#681=FACE_BOUND('',#609,.T.);
#682=FACE_BOUND('',#610,.T.);
#683=FACE_BOUND('',#611,.T.);
#684=FACE_BOUND('',#612,.T.);
#685=FACE_BOUND('',#613,.T.);
#686=FACE_BOUND('',#614,.T.);
#687=FACE_BOUND('',#615,.T.);
#688=FACE_BOUND('',#616,.T.);
#689=FACE_BOUND('',#617,.T.);
#690=FACE_BOUND('',#618,.T.);
#691=FACE_BOUND('',#619,.T.);
#692=FACE_BOUND('',#620,.T.);
#693=FACE_BOUND('',#621,.T.);
#694=FACE_BOUND('',#622,.T.);
#695=PLANE('',#896);
#696=PLANE('',#900);
#697=PLANE('',#901);
#698=PLANE('',#902);
#699=PLANE('',#906);
#700=PLANE('',#907);
#701=PLANE('',#908);
#702=PLANE('',#912);
#703=PLANE('',#914);
#704=PLANE('',#917);
#705=PLANE('',#918);
#706=PLANE('',#919);
#707=PLANE('',#920);
#708=PLANE('',#921);
#709=PLANE('',#922);
#710=PLANE('',#923);
#711=PLANE('',#924);
#712=PLANE('',#925);
#713=PLANE('',#926);
#714=PLANE('',#927);
#715=PLANE('',#931);
#716=PLANE('',#932);
#717=PLANE('',#933);
#718=PLANE('',#935);
#719=PLANE('',#938);
#720=PLANE('',#941);
#721=PLANE('',#949);
#722=PLANE('',#950);
#723=PLANE('',#951);
#724=PLANE('',#952);
#725=PLANE('',#953);
#726=PLANE('',#954);
#727=PLANE('',#955);
#728=PLANE('',#956);
#729=PLANE('',#957);
#730=PLANE('',#958);
#731=PLANE('',#965);
#732=PLANE('',#966);
#733=PLANE('',#967);
#734=PLANE('',#968);
#735=PLANE('',#969);
#736=PLANE('',#970);
#737=PLANE('',#971);
#738=PLANE('',#972);
#739=PLANE('',#973);
#740=PLANE('',#974);
#741=ADVANCED_FACE('',(#623),#695,.F.);
#742=ADVANCED_FACE('',(#624),#35,.T.);
#743=ADVANCED_FACE('',(#625),#696,.F.);
#744=ADVANCED_FACE('',(#626),#697,.F.);
#745=ADVANCED_FACE('',(#627),#698,.F.);
#746=ADVANCED_FACE('',(#628),#36,.T.);
#747=ADVANCED_FACE('',(#629),#699,.T.);
#748=ADVANCED_FACE('',(#630),#700,.F.);
#749=ADVANCED_FACE('',(#631),#701,.T.);
#750=ADVANCED_FACE('',(#632,#633),#10,.T.);
#751=ADVANCED_FACE('',(#634),#702,.T.);
#752=ADVANCED_FACE('',(#635,#636),#703,.T.);
#753=ADVANCED_FACE('',(#637,#638),#37,.T.);
#754=ADVANCED_FACE('',(#639,#640),#704,.F.);
#755=ADVANCED_FACE('',(#641),#705,.F.);
#756=ADVANCED_FACE('',(#642),#706,.F.);
#757=ADVANCED_FACE('',(#643),#707,.F.);
#758=ADVANCED_FACE('',(#644),#708,.T.);
#759=ADVANCED_FACE('',(#645),#709,.F.);
#760=ADVANCED_FACE('',(#646),#710,.T.);
#761=ADVANCED_FACE('',(#647),#711,.T.);
#762=ADVANCED_FACE('',(#648),#712,.T.);
#763=ADVANCED_FACE('',(#649),#713,.F.);
#764=ADVANCED_FACE('',(#650),#714,.T.);
#765=ADVANCED_FACE('',(#651,#652),#38,.T.);
#766=ADVANCED_FACE('',(#653),#715,.T.);
#767=ADVANCED_FACE('',(#654),#716,.F.);
#768=ADVANCED_FACE('',(#655),#717,.T.);
#769=ADVANCED_FACE('',(#656),#718,.T.);
#770=ADVANCED_FACE('',(#657,#658),#39,.T.);
#771=ADVANCED_FACE('',(#659,#660),#719,.T.);
#772=ADVANCED_FACE('',(#661,#662),#720,.T.);
#773=ADVANCED_FACE('',(#663,#664),#40,.T.);
#774=ADVANCED_FACE('',(#665,#666),#41,.F.);
#775=ADVANCED_FACE('',(#667,#668),#42,.T.);
#776=ADVANCED_FACE('',(#669),#721,.T.);
#777=ADVANCED_FACE('',(#670),#722,.F.);
#778=ADVANCED_FACE('',(#671),#723,.T.);
#779=ADVANCED_FACE('',(#672),#724,.T.);
#780=ADVANCED_FACE('',(#673),#725,.T.);
#781=ADVANCED_FACE('',(#674),#726,.T.);
#782=ADVANCED_FACE('',(#675),#727,.T.);
#783=ADVANCED_FACE('',(#676),#728,.T.);
#784=ADVANCED_FACE('',(#677),#729,.F.);
#785=ADVANCED_FACE('',(#678),#730,.F.);
#786=ADVANCED_FACE('',(#679,#680),#43,.T.);
#787=ADVANCED_FACE('',(#681,#682),#44,.F.);
#788=ADVANCED_FACE('',(#683,#684),#731,.T.);
#789=ADVANCED_FACE('',(#685,#686),#732,.F.);
#790=ADVANCED_FACE('',(#687),#733,.T.);
#791=ADVANCED_FACE('',(#688),#734,.T.);
#792=ADVANCED_FACE('',(#689),#735,.T.);
#793=ADVANCED_FACE('',(#690),#736,.T.);
#794=ADVANCED_FACE('',(#691),#737,.T.);
#795=ADVANCED_FACE('',(#692),#738,.T.);
#796=ADVANCED_FACE('',(#693),#739,.F.);
#797=ADVANCED_FACE('',(#694),#740,.F.);
#798=CLOSED_SHELL('',(#741,#742,#743,#744,#745,#746,#747,#748));
#799=CLOSED_SHELL('',(#749,#750,#751,#752,#753));
#800=CLOSED_SHELL('',(#754,#755,#756,#757,#758,#759,#760,#761,#762,#763,
#764));
#801=CLOSED_SHELL('',(#765,#766,#767));
#802=CLOSED_SHELL('',(#768,#769,#770));
#803=CLOSED_SHELL('',(#771,#772,#773,#774));
#804=CLOSED_SHELL('',(#775,#776,#777));
#805=CLOSED_SHELL('',(#778,#779,#780,#781,#782,#783,#784,#785));
#806=CLOSED_SHELL('',(#786,#787,#788,#789));
#807=CLOSED_SHELL('',(#790,#791,#792,#793,#794,#795,#796,#797));
#808=STYLED_ITEM('',(#818),#883);
#809=STYLED_ITEM('',(#819),#884);
#810=STYLED_ITEM('',(#820),#885);
#811=STYLED_ITEM('',(#821),#886);
#812=STYLED_ITEM('',(#822),#887);
#813=STYLED_ITEM('',(#823),#888);
#814=STYLED_ITEM('',(#824),#889);
#815=STYLED_ITEM('',(#825),#890);
#816=STYLED_ITEM('',(#826),#891);
#817=STYLED_ITEM('',(#827),#892);
#818=PRESENTATION_STYLE_ASSIGNMENT((#828));
#819=PRESENTATION_STYLE_ASSIGNMENT((#829));
#820=PRESENTATION_STYLE_ASSIGNMENT((#830));
#821=PRESENTATION_STYLE_ASSIGNMENT((#831));
#822=PRESENTATION_STYLE_ASSIGNMENT((#832));
#823=PRESENTATION_STYLE_ASSIGNMENT((#833));
#824=PRESENTATION_STYLE_ASSIGNMENT((#834));
#825=PRESENTATION_STYLE_ASSIGNMENT((#835));
#826=PRESENTATION_STYLE_ASSIGNMENT((#836));
#827=PRESENTATION_STYLE_ASSIGNMENT((#837));
#828=SURFACE_STYLE_USAGE(.BOTH.,#838);
#829=SURFACE_STYLE_USAGE(.BOTH.,#839);
#830=SURFACE_STYLE_USAGE(.BOTH.,#840);
#831=SURFACE_STYLE_USAGE(.BOTH.,#841);
#832=SURFACE_STYLE_USAGE(.BOTH.,#842);
#833=SURFACE_STYLE_USAGE(.BOTH.,#843);
#834=SURFACE_STYLE_USAGE(.BOTH.,#844);
#835=SURFACE_STYLE_USAGE(.BOTH.,#845);
#836=SURFACE_STYLE_USAGE(.BOTH.,#846);
#837=SURFACE_STYLE_USAGE(.BOTH.,#847);
#838=SURFACE_SIDE_STYLE('',(#848));
#839=SURFACE_SIDE_STYLE('',(#849));
#840=SURFACE_SIDE_STYLE('',(#850));
#841=SURFACE_SIDE_STYLE('',(#851));
#842=SURFACE_SIDE_STYLE('',(#852));
#843=SURFACE_SIDE_STYLE('',(#853));
#844=SURFACE_SIDE_STYLE('',(#854));
#845=SURFACE_SIDE_STYLE('',(#855));
#846=SURFACE_SIDE_STYLE('',(#856));
#847=SURFACE_SIDE_STYLE('',(#857));
#848=SURFACE_STYLE_FILL_AREA(#858);
#849=SURFACE_STYLE_FILL_AREA(#859);
#850=SURFACE_STYLE_FILL_AREA(#860);
#851=SURFACE_STYLE_FILL_AREA(#861);
#852=SURFACE_STYLE_FILL_AREA(#862);
#853=SURFACE_STYLE_FILL_AREA(#863);
#854=SURFACE_STYLE_FILL_AREA(#864);
#855=SURFACE_STYLE_FILL_AREA(#865);
#856=SURFACE_STYLE_FILL_AREA(#866);
#857=SURFACE_STYLE_FILL_AREA(#867);
#858=FILL_AREA_STYLE('',(#868));
#859=FILL_AREA_STYLE('',(#869));
#860=FILL_AREA_STYLE('',(#870));
#861=FILL_AREA_STYLE('',(#871));
#862=FILL_AREA_STYLE('',(#872));
#863=FILL_AREA_STYLE('',(#873));
#864=FILL_AREA_STYLE('',(#874));
#865=FILL_AREA_STYLE('',(#875));
#866=FILL_AREA_STYLE('',(#876));
#867=FILL_AREA_STYLE('',(#877));
#868=FILL_AREA_STYLE_COLOUR('',#878);
#869=FILL_AREA_STYLE_COLOUR('',#879);
#870=FILL_AREA_STYLE_COLOUR('',#880);
#871=FILL_AREA_STYLE_COLOUR('',#881);
#872=FILL_AREA_STYLE_COLOUR('',#881);
#873=FILL_AREA_STYLE_COLOUR('',#881);
#874=FILL_AREA_STYLE_COLOUR('',#882);
#875=FILL_AREA_STYLE_COLOUR('',#881);
#876=FILL_AREA_STYLE_COLOUR('',#881);
#877=FILL_AREA_STYLE_COLOUR('',#881);
#878=COLOUR_RGB('',0.,0.674509803921569,0.396078431372549);
#879=COLOUR_RGB('',0.4,0.4,0.4);
#880=COLOUR_RGB('',0.866666666666667,0.854901960784314,0.788235294117647);
#881=COLOUR_RGB('',0.611764705882353,0.658823529411765,0.670588235294118);
#882=COLOUR_RGB('',0.768627450980392,0.749019607843137,0.647058823529412);
#883=MANIFOLD_SOLID_BREP('Extrude (5)',#798);
#884=MANIFOLD_SOLID_BREP('Cylinder (15)',#799);
#885=MANIFOLD_SOLID_BREP('Extrude (12)',#800);
#886=MANIFOLD_SOLID_BREP('Extrude (2)',#801);
#887=MANIFOLD_SOLID_BREP('Cylinder (6)',#802);
#888=MANIFOLD_SOLID_BREP('Cylinder (7)',#803);
#889=MANIFOLD_SOLID_BREP('Extrude (3)',#804);
#890=MANIFOLD_SOLID_BREP('Block (18)',#805);
#891=MANIFOLD_SOLID_BREP('Extrude (10)',#806);
#892=MANIFOLD_SOLID_BREP('Instance[1][0] ',#807);
#893=SHAPE_DEFINITION_REPRESENTATION(#1439,#894);
#894=SHAPE_REPRESENTATION('M01R-02',(#895),#1434);
#895=AXIS2_PLACEMENT_3D('',#1209,#975,#976);
#896=AXIS2_PLACEMENT_3D('',#1210,#977,#978);
#897=AXIS2_PLACEMENT_3D('',#1219,#983,#984);
#898=AXIS2_PLACEMENT_3D('',#1220,#985,#986);
#899=AXIS2_PLACEMENT_3D('',#1224,#988,#989);
#900=AXIS2_PLACEMENT_3D('',#1225,#990,#991);
#901=AXIS2_PLACEMENT_3D('',#1231,#995,#996);
#902=AXIS2_PLACEMENT_3D('',#1237,#1000,#1001);
#903=AXIS2_PLACEMENT_3D('',#1243,#1005,#1006);
#904=AXIS2_PLACEMENT_3D('',#1244,#1007,#1008);
#905=AXIS2_PLACEMENT_3D('',#1245,#1009,#1010);
#906=AXIS2_PLACEMENT_3D('',#1246,#1011,#1012);
#907=AXIS2_PLACEMENT_3D('',#1247,#1013,#1014);
#908=AXIS2_PLACEMENT_3D('',#1248,#1015,#1016);
#909=AXIS2_PLACEMENT_3D('',#1249,#1017,#1018);
#910=AXIS2_PLACEMENT_3D('',#1251,#1019,#1020);
#911=AXIS2_PLACEMENT_3D('',#1252,#1021,#1022);
#912=AXIS2_PLACEMENT_3D('',#1254,#1023,#1024);
#913=AXIS2_PLACEMENT_3D('',#1255,#1025,#1026);
#914=AXIS2_PLACEMENT_3D('',#1257,#1027,#1028);
#915=AXIS2_PLACEMENT_3D('',#1258,#1029,#1030);
#916=AXIS2_PLACEMENT_3D('',#1260,#1031,#1032);
#917=AXIS2_PLACEMENT_3D('',#1261,#1033,#1034);
#918=AXIS2_PLACEMENT_3D('',#1278,#1043,#1044);
#919=AXIS2_PLACEMENT_3D('',#1287,#1049,#1050);
#920=AXIS2_PLACEMENT_3D('',#1290,#1053,#1054);
#921=AXIS2_PLACEMENT_3D('',#1293,#1057,#1058);
#922=AXIS2_PLACEMENT_3D('',#1294,#1059,#1060);
#923=AXIS2_PLACEMENT_3D('',#1295,#1061,#1062);
#924=AXIS2_PLACEMENT_3D('',#1304,#1067,#1068);
#925=AXIS2_PLACEMENT_3D('',#1307,#1071,#1072);
#926=AXIS2_PLACEMENT_3D('',#1310,#1075,#1076);
#927=AXIS2_PLACEMENT_3D('',#1311,#1077,#1078);
#928=AXIS2_PLACEMENT_3D('',#1312,#1079,#1080);
#929=AXIS2_PLACEMENT_3D('',#1313,#1081,#1082);
#930=AXIS2_PLACEMENT_3D('',#1315,#1083,#1084);
#931=AXIS2_PLACEMENT_3D('',#1317,#1085,#1086);
#932=AXIS2_PLACEMENT_3D('',#1318,#1087,#1088);
#933=AXIS2_PLACEMENT_3D('',#1319,#1089,#1090);
#934=AXIS2_PLACEMENT_3D('',#1320,#1091,#1092);
#935=AXIS2_PLACEMENT_3D('',#1322,#1093,#1094);
#936=AXIS2_PLACEMENT_3D('',#1323,#1095,#1096);
#937=AXIS2_PLACEMENT_3D('',#1325,#1097,#1098);
#938=AXIS2_PLACEMENT_3D('',#1326,#1099,#1100);
#939=AXIS2_PLACEMENT_3D('',#1327,#1101,#1102);
#940=AXIS2_PLACEMENT_3D('',#1329,#1103,#1104);
#941=AXIS2_PLACEMENT_3D('',#1331,#1105,#1106);
#942=AXIS2_PLACEMENT_3D('',#1332,#1107,#1108);
#943=AXIS2_PLACEMENT_3D('',#1334,#1109,#1110);
#944=AXIS2_PLACEMENT_3D('',#1336,#1111,#1112);
#945=AXIS2_PLACEMENT_3D('',#1337,#1113,#1114);
#946=AXIS2_PLACEMENT_3D('',#1338,#1115,#1116);
#947=AXIS2_PLACEMENT_3D('',#1339,#1117,#1118);
#948=AXIS2_PLACEMENT_3D('',#1341,#1119,#1120);
#949=AXIS2_PLACEMENT_3D('',#1343,#1121,#1122);
#950=AXIS2_PLACEMENT_3D('',#1344,#1123,#1124);
#951=AXIS2_PLACEMENT_3D('',#1345,#1125,#1126);
#952=AXIS2_PLACEMENT_3D('',#1354,#1131,#1132);
#953=AXIS2_PLACEMENT_3D('',#1364,#1138,#1139);
#954=AXIS2_PLACEMENT_3D('',#1370,#1143,#1144);
#955=AXIS2_PLACEMENT_3D('',#1377,#1149,#1150);
#956=AXIS2_PLACEMENT_3D('',#1379,#1152,#1153);
#957=AXIS2_PLACEMENT_3D('',#1381,#1155,#1156);
#958=AXIS2_PLACEMENT_3D('',#1382,#1157,#1158);
#959=AXIS2_PLACEMENT_3D('',#1383,#1159,#1160);
#960=AXIS2_PLACEMENT_3D('',#1384,#1161,#1162);
#961=AXIS2_PLACEMENT_3D('',#1386,#1163,#1164);
#962=AXIS2_PLACEMENT_3D('',#1388,#1165,#1166);
#963=AXIS2_PLACEMENT_3D('',#1389,#1167,#1168);
#964=AXIS2_PLACEMENT_3D('',#1391,#1169,#1170);
#965=AXIS2_PLACEMENT_3D('',#1393,#1171,#1172);
#966=AXIS2_PLACEMENT_3D('',#1394,#1173,#1174);
#967=AXIS2_PLACEMENT_3D('',#1395,#1175,#1176);
#968=AXIS2_PLACEMENT_3D('',#1404,#1181,#1182);
#969=AXIS2_PLACEMENT_3D('',#1414,#1188,#1189);
#970=AXIS2_PLACEMENT_3D('',#1420,#1193,#1194);
#971=AXIS2_PLACEMENT_3D('',#1427,#1199,#1200);
#972=AXIS2_PLACEMENT_3D('',#1429,#1202,#1203);
#973=AXIS2_PLACEMENT_3D('',#1431,#1205,#1206);
#974=AXIS2_PLACEMENT_3D('',#1432,#1207,#1208);
#975=DIRECTION('',(0.,0.,1.));
#976=DIRECTION('',(1.,0.,0.));
#977=DIRECTION('',(1.,0.,0.));
#978=DIRECTION('',(0.,0.,-1.));
#979=DIRECTION('',(0.,-1.,0.));
#980=DIRECTION('',(0.,0.,-1.));
#981=DIRECTION('',(0.,-1.,0.));
#982=DIRECTION('',(0.,0.,-1.));
#983=DIRECTION('',(0.,0.,-1.));
#984=DIRECTION('',(-1.,0.,0.));
#985=DIRECTION('',(0.,0.,1.));
#986=DIRECTION('',(1.,0.,0.));
#987=DIRECTION('',(0.,0.,-1.));
#988=DIRECTION('',(0.,0.,1.));
#989=DIRECTION('',(1.,0.,0.));
#990=DIRECTION('',(0.,1.,0.));
#991=DIRECTION('',(0.,0.,1.));
#992=DIRECTION('',(1.,0.,0.));
#993=DIRECTION('',(0.,0.,-1.));
#994=DIRECTION('',(1.,0.,0.));
#995=DIRECTION('',(-1.,0.,0.));
#996=DIRECTION('',(0.,0.,1.));
#997=DIRECTION('',(0.,1.,0.));
#998=DIRECTION('',(0.,0.,-1.));
#999=DIRECTION('',(0.,1.,0.));
#1000=DIRECTION('',(0.,-1.,0.));
#1001=DIRECTION('',(0.,0.,-1.));
#1002=DIRECTION('',(-1.,0.,0.));
#1003=DIRECTION('',(0.,0.,-1.));
#1004=DIRECTION('',(-1.,0.,0.));
#1005=DIRECTION('',(0.,0.,-1.));
#1006=DIRECTION('',(-1.,0.,0.));
#1007=DIRECTION('',(0.,0.,1.));
#1008=DIRECTION('',(1.,0.,0.));
#1009=DIRECTION('',(0.,0.,1.));
#1010=DIRECTION('',(1.,0.,0.));
#1011=DIRECTION('',(0.,0.,1.));
#1012=DIRECTION('',(1.,0.,0.));
#1013=DIRECTION('',(0.,0.,1.));
#1014=DIRECTION('',(1.,0.,0.));
#1015=DIRECTION('',(0.,0.,1.));
#1016=DIRECTION('',(1.,0.,0.));
#1017=DIRECTION('',(0.,0.,1.));
#1018=DIRECTION('',(1.,0.,0.));
#1019=DIRECTION('',(0.,0.,-1.));
#1020=DIRECTION('',(-1.,0.,0.));
#1021=DIRECTION('',(0.,0.,1.));
#1022=DIRECTION('',(1.,0.,0.));
#1023=DIRECTION('',(0.,0.,-1.));
#1024=DIRECTION('',(-1.,0.,0.));
#1025=DIRECTION('',(0.,0.,1.));
#1026=DIRECTION('',(1.,0.,0.));
#1027=DIRECTION('',(0.,0.,1.));
#1028=DIRECTION('',(1.,0.,0.));
#1029=DIRECTION('',(0.,0.,-1.));
#1030=DIRECTION('',(1.,0.,0.));
#1031=DIRECTION('',(0.,0.,-1.));
#1032=DIRECTION('',(1.,0.,0.));
#1033=DIRECTION('',(-1.,-1.64428765495432E-16,0.));
#1034=DIRECTION('',(1.64428765495432E-16,-1.,0.));
#1035=DIRECTION('',(-1.64428765495432E-16,1.,0.));
#1036=DIRECTION('',(0.,0.,-1.));
#1037=DIRECTION('',(-1.64428765495432E-16,1.,0.));
#1038=DIRECTION('',(0.,0.,-1.));
#1039=DIRECTION('',(-1.64428765495432E-16,1.,0.));
#1040=DIRECTION('',(0.,0.,-1.));
#1041=DIRECTION('',(-1.64428765495432E-16,1.,0.));
#1042=DIRECTION('',(0.,0.,-1.));
#1043=DIRECTION('',(1.,1.64428765495432E-16,0.));
#1044=DIRECTION('',(-1.64428765495432E-16,1.,0.));
#1045=DIRECTION('',(1.64428765495432E-16,-1.,0.));
#1046=DIRECTION('',(0.,0.,-1.));
#1047=DIRECTION('',(1.64428765495432E-16,-1.,0.));
#1048=DIRECTION('',(0.,0.,-1.));
#1049=DIRECTION('',(6.93889390390723E-16,1.,0.));
#1050=DIRECTION('',(-1.,6.93889390390723E-16,0.));
#1051=DIRECTION('',(1.,-6.93889390390723E-16,0.));
#1052=DIRECTION('',(1.,-6.93889390390723E-16,0.));
#1053=DIRECTION('',(6.93889390390723E-16,-1.,0.));
#1054=DIRECTION('',(1.,6.93889390390723E-16,0.));
#1055=DIRECTION('',(-1.,-6.93889390390723E-16,0.));
#1056=DIRECTION('',(-1.,-6.93889390390723E-16,0.));
#1057=DIRECTION('',(0.,0.,1.));
#1058=DIRECTION('',(1.,0.,0.));
#1059=DIRECTION('',(0.,0.,1.));
#1060=DIRECTION('',(1.,0.,0.));
#1061=DIRECTION('',(1.,1.64428765495432E-16,0.));
#1062=DIRECTION('',(-1.64428765495432E-16,1.,0.));
#1063=DIRECTION('',(1.64428765495432E-16,-1.,0.));
#1064=DIRECTION('',(0.,0.,-1.));
#1065=DIRECTION('',(1.64428765495432E-16,-1.,0.));
#1066=DIRECTION('',(0.,0.,-1.));
#1067=DIRECTION('',(6.93889390390723E-16,1.,0.));
#1068=DIRECTION('',(-1.,6.93889390390723E-16,0.));
#1069=DIRECTION('',(1.,-6.93889390390723E-16,0.));
#1070=DIRECTION('',(1.,-6.93889390390723E-16,0.));
#1071=DIRECTION('',(6.93889390390723E-16,-1.,0.));
#1072=DIRECTION('',(1.,6.93889390390723E-16,0.));
#1073=DIRECTION('',(-1.,-6.93889390390723E-16,0.));
#1074=DIRECTION('',(-1.,-6.93889390390723E-16,0.));
#1075=DIRECTION('',(0.,0.,1.));
#1076=DIRECTION('',(1.,0.,0.));
#1077=DIRECTION('',(0.,0.,1.));
#1078=DIRECTION('',(1.,0.,0.));
#1079=DIRECTION('',(0.,0.,-1.));
#1080=DIRECTION('',(-1.,0.,0.));
#1081=DIRECTION('',(0.,0.,1.));
#1082=DIRECTION('',(1.,0.,0.));
#1083=DIRECTION('',(0.,0.,1.));
#1084=DIRECTION('',(1.,0.,0.));
#1085=DIRECTION('',(0.,0.,1.));
#1086=DIRECTION('',(1.,0.,0.));
#1087=DIRECTION('',(0.,0.,1.));
#1088=DIRECTION('',(1.,0.,0.));
#1089=DIRECTION('',(0.,0.,-1.));
#1090=DIRECTION('',(-1.,0.,0.));
#1091=DIRECTION('',(0.,0.,1.));
#1092=DIRECTION('',(1.,0.,0.));
#1093=DIRECTION('',(0.,0.,1.));
#1094=DIRECTION('',(1.,0.,0.));
#1095=DIRECTION('',(0.,0.,-1.));
#1096=DIRECTION('',(1.,0.,0.));
#1097=DIRECTION('',(0.,0.,-1.));
#1098=DIRECTION('',(1.,0.,0.));
#1099=DIRECTION('',(0.,0.,1.));
#1100=DIRECTION('',(1.,0.,0.));
#1101=DIRECTION('',(0.,0.,1.));
#1102=DIRECTION('',(1.,0.,0.));
#1103=DIRECTION('',(0.,0.,-1.));
#1104=DIRECTION('',(1.,0.,0.));
#1105=DIRECTION('',(0.,0.,-1.));
#1106=DIRECTION('',(-1.,0.,0.));
#1107=DIRECTION('',(0.,0.,1.));
#1108=DIRECTION('',(1.,0.,0.));
#1109=DIRECTION('',(0.,0.,1.));
#1110=DIRECTION('',(1.,0.,0.));
#1111=DIRECTION('',(0.,0.,1.));
#1112=DIRECTION('',(1.,0.,0.));
#1113=DIRECTION('',(0.,0.,-1.));
#1114=DIRECTION('',(1.,0.,0.));
#1115=DIRECTION('',(0.,0.,-1.));
#1116=DIRECTION('',(-1.,0.,0.));
#1117=DIRECTION('',(0.,0.,1.));
#1118=DIRECTION('',(1.,0.,0.));
#1119=DIRECTION('',(0.,0.,1.));
#1120=DIRECTION('',(1.,0.,0.));
#1121=DIRECTION('',(0.,0.,1.));
#1122=DIRECTION('',(1.,0.,0.));
#1123=DIRECTION('',(0.,0.,1.));
#1124=DIRECTION('',(1.,0.,0.));
#1125=DIRECTION('',(0.,0.,1.));
#1126=DIRECTION('',(1.,0.,0.));
#1127=DIRECTION('',(-1.,0.,0.));
#1128=DIRECTION('',(0.,1.,0.));
#1129=DIRECTION('',(1.,0.,0.));
#1130=DIRECTION('',(0.,-1.,0.));
#1131=DIRECTION('',(0.,-1.,0.));
#1132=DIRECTION('',(0.,0.,-1.));
#1133=DIRECTION('',(0.,0.,1.));
#1134=DIRECTION('',(0.707106781186548,0.,-0.707106781186547));
#1135=DIRECTION('',(0.707106781186548,0.,0.707106781186547));
#1136=DIRECTION('',(0.,0.,1.));
#1137=DIRECTION('',(1.,0.,0.));
#1138=DIRECTION('',(-1.,0.,0.));
#1139=DIRECTION('',(0.,0.,1.));
#1140=DIRECTION('',(0.,1.,0.));
#1141=DIRECTION('',(0.,0.,1.));
#1142=DIRECTION('',(0.,-1.,0.));
#1143=DIRECTION('',(0.,1.,0.));
#1144=DIRECTION('',(0.,0.,1.));
#1145=DIRECTION('',(-0.707106781186548,0.,0.707106781186547));
#1146=DIRECTION('',(0.,0.,1.));
#1147=DIRECTION('',(-1.,0.,0.));
#1148=DIRECTION('',(-0.707106781186548,0.,-0.707106781186547));
#1149=DIRECTION('',(0.,0.,-1.));
#1150=DIRECTION('',(-1.,0.,0.));
#1151=DIRECTION('',(0.,1.,0.));
#1152=DIRECTION('',(1.,0.,0.));
#1153=DIRECTION('',(0.,0.,-1.));
#1154=DIRECTION('',(0.,-1.,0.));
#1155=DIRECTION('',(-0.707106781186547,0.,-0.707106781186548));
#1156=DIRECTION('',(0.,-1.,0.));
#1157=DIRECTION('',(0.707106781186547,0.,-0.707106781186548));
#1158=DIRECTION('',(0.,1.,0.));
#1159=DIRECTION('',(0.,0.,1.));
#1160=DIRECTION('',(1.,0.,0.));
#1161=DIRECTION('',(0.,0.,-1.));
#1162=DIRECTION('',(1.,1.22464679914735E-16,0.));
#1163=DIRECTION('',(0.,0.,-1.));
#1164=DIRECTION('',(1.,1.22464679914735E-16,0.));
#1165=DIRECTION('',(0.,0.,1.));
#1166=DIRECTION('',(1.,0.,0.));
#1167=DIRECTION('',(0.,0.,-1.));
#1168=DIRECTION('',(1.,1.22464679914735E-16,0.));
#1169=DIRECTION('',(0.,0.,-1.));
#1170=DIRECTION('',(1.,1.22464679914735E-16,0.));
#1171=DIRECTION('',(0.,0.,-1.));
#1172=DIRECTION('',(-1.,0.,0.));
#1173=DIRECTION('',(0.,0.,-1.));
#1174=DIRECTION('',(-1.,0.,0.));
#1175=DIRECTION('',(0.,0.,1.));
#1176=DIRECTION('',(-1.,2.34291072916505E-15,0.));
#1177=DIRECTION('',(-1.,2.34291072916505E-15,0.));
#1178=DIRECTION('',(2.34291072916505E-15,1.,0.));
#1179=DIRECTION('',(1.,-2.34291072916505E-15,0.));
#1180=DIRECTION('',(-2.34291072916505E-15,-1.,0.));
#1181=DIRECTION('',(2.34291072916505E-15,1.,0.));
#1182=DIRECTION('',(0.,0.,-1.));
#1183=DIRECTION('',(-0.707106781186548,1.65668806430733E-15,0.707106781186547));
#1184=DIRECTION('',(0.,0.,1.));
#1185=DIRECTION('',(-1.,2.34291072916505E-15,0.));
#1186=DIRECTION('',(0.,0.,1.));
#1187=DIRECTION('',(-0.707106781186548,1.65668806430733E-15,-0.707106781186547));
#1188=DIRECTION('',(1.,-2.34291072916505E-15,0.));
#1189=DIRECTION('',(0.,0.,1.));
#1190=DIRECTION('',(-2.34291072916505E-15,-1.,0.));
#1191=DIRECTION('',(0.,0.,1.));
#1192=DIRECTION('',(2.34291072916505E-15,1.,0.));
#1193=DIRECTION('',(-2.34291072916505E-15,-1.,0.));
#1194=DIRECTION('',(0.,0.,1.));
#1195=DIRECTION('',(0.707106781186548,-1.65668806430733E-15,-0.707106781186547));
#1196=DIRECTION('',(0.707106781186548,-1.65668806430733E-15,0.707106781186547));
#1197=DIRECTION('',(0.,0.,1.));
#1198=DIRECTION('',(1.,-2.34291072916505E-15,0.));
#1199=DIRECTION('',(0.,0.,-1.));
#1200=DIRECTION('',(1.,-2.34291072916505E-15,0.));
#1201=DIRECTION('',(-2.34291072916505E-15,-1.,0.));
#1202=DIRECTION('',(-1.,2.34291072916505E-15,0.));
#1203=DIRECTION('',(0.,0.,-1.));
#1204=DIRECTION('',(2.34291072916505E-15,1.,0.));
#1205=DIRECTION('',(-0.707106781186547,1.65668806430732E-15,-0.707106781186548));
#1206=DIRECTION('',(-2.34291072916505E-15,-1.,0.));
#1207=DIRECTION('',(0.707106781186547,-1.65668806430732E-15,-0.707106781186548));
#1208=DIRECTION('',(2.34291072916505E-15,1.,0.));
#1209=CARTESIAN_POINT('',(0.,0.,0.));
#1210=CARTESIAN_POINT('',(-9.7,9.67470929795826,33.8));
#1211=CARTESIAN_POINT('',(-9.7,9.67470929795826,32.6));
#1212=CARTESIAN_POINT('',(-9.7,9.67470929795826,32.6));
#1213=CARTESIAN_POINT('',(-9.7,-9.67470929795826,32.6));
#1214=CARTESIAN_POINT('',(-9.7,-9.67470929795826,33.8));
#1215=CARTESIAN_POINT('',(-9.7,-9.67470929795826,33.8));
#1216=CARTESIAN_POINT('',(-9.7,9.67470929795826,33.8));
#1217=CARTESIAN_POINT('',(-9.7,9.67470929795826,33.8));
#1218=CARTESIAN_POINT('',(-9.7,9.67470929795826,33.8));
#1219=CARTESIAN_POINT('',(0.,0.,33.8));
#1220=CARTESIAN_POINT('',(0.,0.,32.6));
#1221=CARTESIAN_POINT('',(11.9217238686175,-6.75000000003219,32.6));
#1222=CARTESIAN_POINT('',(11.9217238686175,-6.75000000003219,33.8));
#1223=CARTESIAN_POINT('',(11.9217238686175,-6.75000000003219,33.8));
#1224=CARTESIAN_POINT('',(0.,0.,33.8));
#1225=CARTESIAN_POINT('',(11.9217238686358,-6.75,33.8));
#1226=CARTESIAN_POINT('',(11.9217238686358,-6.75,32.6));
#1227=CARTESIAN_POINT('',(16.1,-6.75,32.6));
#1228=CARTESIAN_POINT('',(16.1,-6.75,33.8));
#1229=CARTESIAN_POINT('',(16.1,-6.75,33.8));
#1230=CARTESIAN_POINT('',(11.9217238686358,-6.75,33.8));
#1231=CARTESIAN_POINT('',(16.1,-6.75,33.8));
#1232=CARTESIAN_POINT('',(16.1,-6.75,32.6));
#1233=CARTESIAN_POINT('',(16.1,6.75,32.6));
#1234=CARTESIAN_POINT('',(16.1,6.75,33.8));
#1235=CARTESIAN_POINT('',(16.1,6.75,33.8));
#1236=CARTESIAN_POINT('',(16.1,-6.75,33.8));
#1237=CARTESIAN_POINT('',(16.1,6.75,33.8));
#1238=CARTESIAN_POINT('',(16.1,6.75,32.6));
#1239=CARTESIAN_POINT('',(11.9217238686358,6.75,32.6));
#1240=CARTESIAN_POINT('',(11.9217238686358,6.75,33.8));
#1241=CARTESIAN_POINT('',(11.9217238686358,6.75,33.8));
#1242=CARTESIAN_POINT('',(16.1,6.75,33.8));
#1243=CARTESIAN_POINT('',(0.,0.,33.8));
#1244=CARTESIAN_POINT('',(0.,0.,32.6));
#1245=CARTESIAN_POINT('',(0.,0.,33.8));
#1246=CARTESIAN_POINT('',(0.,0.,33.8));
#1247=CARTESIAN_POINT('',(0.,0.,32.6));
#1248=CARTESIAN_POINT('',(0.,0.,39.35));
#1249=CARTESIAN_POINT('',(0.,0.,39.35));
#1250=CARTESIAN_POINT('',(2.25,0.,39.35));
#1251=CARTESIAN_POINT('',(0.,0.,38.35));
#1252=CARTESIAN_POINT('',(0.,0.,38.35));
#1253=CARTESIAN_POINT('',(3.25,0.,38.35));
#1254=CARTESIAN_POINT('',(0.,0.,35.35));
#1255=CARTESIAN_POINT('',(0.,0.,35.35));
#1256=CARTESIAN_POINT('',(9.025,0.,35.35));
#1257=CARTESIAN_POINT('',(0.,0.,38.35));
#1258=CARTESIAN_POINT('',(0.,0.,38.35));
#1259=CARTESIAN_POINT('',(9.025,0.,38.35));
#1260=CARTESIAN_POINT('',(0.,0.,38.35));
#1261=CARTESIAN_POINT('',(15.6,-5.275,37.6));
#1262=CARTESIAN_POINT('',(15.6,-5.275,33.8));
#1263=CARTESIAN_POINT('',(15.6,-5.275,33.8));
#1264=CARTESIAN_POINT('',(15.6,5.275,33.8));
#1265=CARTESIAN_POINT('',(15.6,5.275,37.6));
#1266=CARTESIAN_POINT('',(15.6,5.275,37.6));
#1267=CARTESIAN_POINT('',(15.6,-5.275,37.6));
#1268=CARTESIAN_POINT('',(15.6,-5.275,37.6));
#1269=CARTESIAN_POINT('',(15.6,-5.275,37.6));
#1270=CARTESIAN_POINT('',(15.6,-5.275,34.3));
#1271=CARTESIAN_POINT('',(15.6,-4.775,34.3));
#1272=CARTESIAN_POINT('',(15.6,4.775,34.3));
#1273=CARTESIAN_POINT('',(15.6,-4.775,37.6));
#1274=CARTESIAN_POINT('',(15.6,-4.775,37.1));
#1275=CARTESIAN_POINT('',(15.6,-5.275,37.1));
#1276=CARTESIAN_POINT('',(15.6,4.775,37.1));
#1277=CARTESIAN_POINT('',(15.6,4.775,37.6));
#1278=CARTESIAN_POINT('',(10.6,5.275,37.6));
#1279=CARTESIAN_POINT('',(10.6,5.275,33.8));
#1280=CARTESIAN_POINT('',(10.6,5.275,33.8));
#1281=CARTESIAN_POINT('',(10.6,-5.275,33.8));
#1282=CARTESIAN_POINT('',(10.6,-5.275,37.6));
#1283=CARTESIAN_POINT('',(10.6,-5.275,37.6));
#1284=CARTESIAN_POINT('',(10.6,5.275,37.6));
#1285=CARTESIAN_POINT('',(10.6,5.275,37.6));
#1286=CARTESIAN_POINT('',(10.6,5.275,37.6));
#1287=CARTESIAN_POINT('',(10.6,-5.275,37.6));
#1288=CARTESIAN_POINT('',(10.6,-5.275,33.8));
#1289=CARTESIAN_POINT('',(10.6,-5.275,37.6));
#1290=CARTESIAN_POINT('',(15.6,5.275,37.6));
#1291=CARTESIAN_POINT('',(15.6,5.275,33.8));
#1292=CARTESIAN_POINT('',(15.6,5.275,37.6));
#1293=CARTESIAN_POINT('',(0.,0.,37.6));
#1294=CARTESIAN_POINT('',(0.,0.,33.8));
#1295=CARTESIAN_POINT('',(11.1,5.275,37.6));
#1296=CARTESIAN_POINT('',(11.1,5.275,34.3));
#1297=CARTESIAN_POINT('',(11.1,4.775,34.3));
#1298=CARTESIAN_POINT('',(11.1,-4.775,34.3));
#1299=CARTESIAN_POINT('',(11.1,4.775,37.6));
#1300=CARTESIAN_POINT('',(11.1,4.775,37.1));
#1301=CARTESIAN_POINT('',(11.1,5.275,37.1));
#1302=CARTESIAN_POINT('',(11.1,-4.775,37.1));
#1303=CARTESIAN_POINT('',(11.1,-4.775,37.6));
#1304=CARTESIAN_POINT('',(10.6,-4.775,37.6));
#1305=CARTESIAN_POINT('',(10.6,-4.775,34.3));
#1306=CARTESIAN_POINT('',(10.6,-4.775,37.1));
#1307=CARTESIAN_POINT('',(15.6,4.775,37.6));
#1308=CARTESIAN_POINT('',(15.6,4.775,34.3));
#1309=CARTESIAN_POINT('',(15.6,4.775,37.1));
#1310=CARTESIAN_POINT('',(0.,0.,37.1));
#1311=CARTESIAN_POINT('',(0.,0.,34.3));
#1312=CARTESIAN_POINT('',(0.,0.,29.));
#1313=CARTESIAN_POINT('',(0.,0.,29.));
#1314=CARTESIAN_POINT('',(13.7,0.,29.));
#1315=CARTESIAN_POINT('',(0.,0.,0.));
#1316=CARTESIAN_POINT('',(13.7,0.,0.));
#1317=CARTESIAN_POINT('',(0.,0.,29.));
#1318=CARTESIAN_POINT('',(0.,0.,0.));
#1319=CARTESIAN_POINT('',(0.,0.,-11.1));
#1320=CARTESIAN_POINT('',(0.,0.,-11.1));
#1321=CARTESIAN_POINT('',(1.15,0.,-11.1));
#1322=CARTESIAN_POINT('',(0.,0.,40.9));
#1323=CARTESIAN_POINT('',(0.,0.,40.9));
#1324=CARTESIAN_POINT('',(1.15,0.,40.9));
#1325=CARTESIAN_POINT('',(0.,0.,40.9));
#1326=CARTESIAN_POINT('',(0.,0.,-3.8));
#1327=CARTESIAN_POINT('',(0.,0.,-3.8));
#1328=CARTESIAN_POINT('',(1.15,0.,-3.8));
#1329=CARTESIAN_POINT('',(0.,0.,-3.8));
#1330=CARTESIAN_POINT('',(3.25,0.,-3.8));
#1331=CARTESIAN_POINT('',(0.,0.,-11.1));
#1332=CARTESIAN_POINT('',(0.,0.,-11.1));
#1333=CARTESIAN_POINT('',(1.15,0.,-11.1));
#1334=CARTESIAN_POINT('',(0.,0.,-11.1));
#1335=CARTESIAN_POINT('',(3.25,0.,-11.1));
#1336=CARTESIAN_POINT('',(0.,0.,-11.1));
#1337=CARTESIAN_POINT('',(0.,0.,40.9));
#1338=CARTESIAN_POINT('',(0.,0.,32.6));
#1339=CARTESIAN_POINT('',(0.,0.,32.6));
#1340=CARTESIAN_POINT('',(13.7,0.,32.6));
#1341=CARTESIAN_POINT('',(0.,0.,29.));
#1342=CARTESIAN_POINT('',(13.7,0.,29.));
#1343=CARTESIAN_POINT('',(0.,0.,32.6));
#1344=CARTESIAN_POINT('',(0.,0.,29.));
#1345=CARTESIAN_POINT('',(0.,-11.95,38.55));
#1346=CARTESIAN_POINT('',(0.,-12.2,38.55));
#1347=CARTESIAN_POINT('',(0.8,-12.2,38.55));
#1348=CARTESIAN_POINT('',(-0.8,-12.2,38.55));
#1349=CARTESIAN_POINT('',(0.8,-11.95,38.55));
#1350=CARTESIAN_POINT('',(0.8,-11.7,38.55));
#1351=CARTESIAN_POINT('',(0.,-11.7,38.55));
#1352=CARTESIAN_POINT('',(-0.8,-11.7,38.55));
#1353=CARTESIAN_POINT('',(-0.8,-11.95,38.55));
#1354=CARTESIAN_POINT('',(0.,-12.2,33.8));
#1355=CARTESIAN_POINT('',(1.5,-12.2,33.8));
#1356=CARTESIAN_POINT('',(1.5,-12.2,33.8));
#1357=CARTESIAN_POINT('',(1.5,-12.2,37.85));
#1358=CARTESIAN_POINT('',(2.775,-12.2,36.575));
#1359=CARTESIAN_POINT('',(-2.775,-12.2,36.575));
#1360=CARTESIAN_POINT('',(-1.5,-12.2,37.85));
#1361=CARTESIAN_POINT('',(-1.5,-12.2,33.8));
#1362=CARTESIAN_POINT('',(-1.5,-12.2,33.8));
#1363=CARTESIAN_POINT('',(0.,-12.2,33.8));
#1364=CARTESIAN_POINT('',(-1.5,-11.95,33.8));
#1365=CARTESIAN_POINT('',(-1.5,-11.95,37.85));
#1366=CARTESIAN_POINT('',(-1.5,-11.7,37.85));
#1367=CARTESIAN_POINT('',(-1.5,-11.7,33.8));
#1368=CARTESIAN_POINT('',(-1.5,-11.7,33.8));
#1369=CARTESIAN_POINT('',(-1.5,-11.95,33.8));
#1370=CARTESIAN_POINT('',(0.,-11.7,33.8));
#1371=CARTESIAN_POINT('',(2.775,-11.7,36.575));
#1372=CARTESIAN_POINT('',(1.5,-11.7,37.85));
#1373=CARTESIAN_POINT('',(1.5,-11.7,33.8));
#1374=CARTESIAN_POINT('',(1.5,-11.7,33.8));
#1375=CARTESIAN_POINT('',(0.,-11.7,33.8));
#1376=CARTESIAN_POINT('',(-2.775,-11.7,36.575));
#1377=CARTESIAN_POINT('',(0.,-11.95,33.8));
#1378=CARTESIAN_POINT('',(1.5,-11.95,33.8));
#1379=CARTESIAN_POINT('',(1.5,-11.95,33.8));
#1380=CARTESIAN_POINT('',(1.5,-11.95,37.85));
#1381=CARTESIAN_POINT('',(1.5,-11.95,37.85));
#1382=CARTESIAN_POINT('',(-1.5,-11.95,37.85));
#1383=CARTESIAN_POINT('',(0.,0.,-3.));
#1384=CARTESIAN_POINT('',(0.,0.,-3.));
#1385=CARTESIAN_POINT('',(4.875,5.97015314584335E-16,-3.));
#1386=CARTESIAN_POINT('',(0.,0.,0.));
#1387=CARTESIAN_POINT('',(4.875,5.97015314584335E-16,0.));
#1388=CARTESIAN_POINT('',(0.,0.,-3.));
#1389=CARTESIAN_POINT('',(0.,0.,-3.));
#1390=CARTESIAN_POINT('',(3.375,4.13318294712232E-16,-3.));
#1391=CARTESIAN_POINT('',(0.,0.,0.));
#1392=CARTESIAN_POINT('',(3.375,4.13318294712232E-16,0.));
#1393=CARTESIAN_POINT('',(0.,0.,-3.));
#1394=CARTESIAN_POINT('',(0.,0.,0.));
#1395=CARTESIAN_POINT('',(2.79977832135223E-14,11.95,38.55));
#1396=CARTESIAN_POINT('',(2.74120555312311E-14,11.7,38.55));
#1397=CARTESIAN_POINT('',(0.800000000000027,11.7,38.55));
#1398=CARTESIAN_POINT('',(-0.799999999999973,11.7,38.55));
#1399=CARTESIAN_POINT('',(0.800000000000028,11.95,38.55));
#1400=CARTESIAN_POINT('',(0.800000000000029,12.2,38.55));
#1401=CARTESIAN_POINT('',(2.85835108958136E-14,12.2,38.55));
#1402=CARTESIAN_POINT('',(-0.799999999999972,12.2,38.55));
#1403=CARTESIAN_POINT('',(-0.799999999999972,11.95,38.55));
#1404=CARTESIAN_POINT('',(2.85835108958136E-14,12.2,33.8));
#1405=CARTESIAN_POINT('',(2.77500000000003,12.2,36.575));
#1406=CARTESIAN_POINT('',(1.50000000000003,12.2,37.85));
#1407=CARTESIAN_POINT('',(1.50000000000003,12.2,33.8));
#1408=CARTESIAN_POINT('',(1.50000000000003,12.2,33.8));
#1409=CARTESIAN_POINT('',(2.85835108958136E-14,12.2,33.8));
#1410=CARTESIAN_POINT('',(-1.49999999999997,12.2,33.8));
#1411=CARTESIAN_POINT('',(-1.49999999999997,12.2,33.8));
#1412=CARTESIAN_POINT('',(-1.49999999999997,12.2,37.85));
#1413=CARTESIAN_POINT('',(-2.77499999999997,12.2,36.575));
#1414=CARTESIAN_POINT('',(1.50000000000003,11.95,33.8));
#1415=CARTESIAN_POINT('',(1.50000000000003,11.95,37.85));
#1416=CARTESIAN_POINT('',(1.50000000000003,11.7,37.85));
#1417=CARTESIAN_POINT('',(1.50000000000003,11.7,33.8));
#1418=CARTESIAN_POINT('',(1.50000000000003,11.7,33.8));
#1419=CARTESIAN_POINT('',(1.50000000000003,11.95,33.8));
#1420=CARTESIAN_POINT('',(2.74120555312311E-14,11.7,33.8));
#1421=CARTESIAN_POINT('',(2.77500000000003,11.7,36.575));
#1422=CARTESIAN_POINT('',(-2.77499999999997,11.7,36.575));
#1423=CARTESIAN_POINT('',(-1.49999999999997,11.7,37.85));
#1424=CARTESIAN_POINT('',(-1.49999999999997,11.7,33.8));
#1425=CARTESIAN_POINT('',(-1.49999999999997,11.7,33.8));
#1426=CARTESIAN_POINT('',(2.74120555312311E-14,11.7,33.8));
#1427=CARTESIAN_POINT('',(2.79977832135223E-14,11.95,33.8));
#1428=CARTESIAN_POINT('',(-1.49999999999997,11.95,33.8));
#1429=CARTESIAN_POINT('',(-1.49999999999997,11.95,33.8));
#1430=CARTESIAN_POINT('',(-1.49999999999997,11.95,37.85));
#1431=CARTESIAN_POINT('',(1.50000000000003,11.95,37.85));
#1432=CARTESIAN_POINT('',(-1.49999999999997,11.95,37.85));
#1433=MECHANICAL_DESIGN_GEOMETRIC_PRESENTATION_REPRESENTATION('',(#808,
#809,#810,#811,#812,#813,#814,#815,#816,#817),#1434);
#1434=(
GEOMETRIC_REPRESENTATION_CONTEXT(3)
GLOBAL_UNCERTAINTY_ASSIGNED_CONTEXT((#1435))
GLOBAL_UNIT_ASSIGNED_CONTEXT((#1438,#1437,#1436))
REPRESENTATION_CONTEXT('M01R-02','TOP_LEVEL_ASSEMBLY_PART')
);
#1435=UNCERTAINTY_MEASURE_WITH_UNIT(LENGTH_MEASURE(0.005),#1438,
'DISTANCE_ACCURACY_VALUE','Maximum Tolerance applied to model');
#1436=(
NAMED_UNIT(*)
SI_UNIT($,.STERADIAN.)
SOLID_ANGLE_UNIT()
);
#1437=(
NAMED_UNIT(*)
PLANE_ANGLE_UNIT()
SI_UNIT($,.RADIAN.)
);
#1438=(
LENGTH_UNIT()
NAMED_UNIT(*)
SI_UNIT(.MILLI.,.METRE.)
);
#1439=PRODUCT_DEFINITION_SHAPE('','',#1440);
#1440=PRODUCT_DEFINITION('','',#1442,#1441);
#1441=PRODUCT_DEFINITION_CONTEXT('',#1448,'design');
#1442=PRODUCT_DEFINITION_FORMATION_WITH_SPECIFIED_SOURCE('','',#1444,
 .NOT_KNOWN.);
#1443=PRODUCT_RELATED_PRODUCT_CATEGORY('','',(#1444));
#1444=PRODUCT('M01R-02','M01R-02','M01R-02',(#1446));
#1445=PRODUCT_CATEGORY('','');
#1446=PRODUCT_CONTEXT('',#1448,'mechanical');
#1447=APPLICATION_PROTOCOL_DEFINITION('international standard',
'ap242_managed_model_based_3d_engineering',2020,#1448);
#1448=APPLICATION_CONTEXT('managed model based 3d engineering');
ENDSEC;
END-ISO-10303-21;
