ISO-10303-21;
HEADER;
/* Generated by software containing ST-Developer
 * from STEP Tools, Inc. (www.steptools.com) 
 */
/* OPTION: using custom renumber hook */

FILE_DESCRIPTION(
/* description */ (
'CAx-IF Rec.Pracs.---Representation and Presentation of Product Manufa
cturing Information (PMI)---4.0---2014-10-13',
'CAx-IF Rec.Pracs.---3D Tessellated Geometry---0.4---2014-09-14','2;1'),

/* implementation_level */ '2;1');

FILE_NAME(
/* name */ 'M03',
/* time_stamp */ '2026-04-13T01:14:55+03:00',
/* author */ (''),
/* organization */ (''),
/* preprocessor_version */ 'ST-DEVELOPER v18.102',
/* originating_system */ 'SIEMENS PLM Software NX2206.9140',
/* authorisation */ $);

FILE_SCHEMA (('AP242_MANAGED_MODEL_BASED_3D_ENGINEERING_MIM_LF { 1 0 10303 442 3 1 4 }'));
ENDSEC;

DATA;
#10=DEGENERATE_TOROIDAL_SURFACE('',#1359,11.2702222498376,24.5,.F.);
#11=DEGENERATE_TOROIDAL_SURFACE('',#1368,11.2879608959075,24.5,.F.);
#12=SHAPE_REPRESENTATION_RELATIONSHIP('','',#1298,#13);
#13=ADVANCED_BREP_SHAPE_REPRESENTATION('',(#1295,#1296),#2208);
#14=CYLINDRICAL_SURFACE('',#1303,6.3227098957819);
#15=CYLINDRICAL_SURFACE('',#1307,3.5);
#16=CYLINDRICAL_SURFACE('',#1310,6.3227098957819);
#17=CYLINDRICAL_SURFACE('',#1335,6.3227098957819);
#18=CYLINDRICAL_SURFACE('',#1377,0.9);
#19=CYLINDRICAL_SURFACE('',#1378,8.875);
#20=CYLINDRICAL_SURFACE('',#1379,0.900000000000001);
#21=CYLINDRICAL_SURFACE('',#1381,3.5);
#22=CYLINDRICAL_SURFACE('',#1389,2.4);
#23=CYLINDRICAL_SURFACE('',#1411,3.5);
#24=CIRCLE('',#1301,6.3227098957819);
#25=CIRCLE('',#1302,3.5);
#26=CIRCLE('',#1304,6.3227098957819);
#27=CIRCLE('',#1308,3.5);
#28=CIRCLE('',#1311,6.3227098957819);
#29=CIRCLE('',#1312,6.3227098957819);
#30=CIRCLE('',#1313,6.3227098957819);
#31=CIRCLE('',#1314,6.3227098957819);
#32=CIRCLE('',#1315,6.3227098957819);
#33=CIRCLE('',#1316,6.3227098957819);
#34=CIRCLE('',#1317,6.3227098957819);
#35=CIRCLE('',#1318,6.3227098957819);
#36=CIRCLE('',#1319,6.3227098957819);
#37=CIRCLE('',#1320,6.3227098957819);
#38=CIRCLE('',#1321,6.3227098957819);
#39=CIRCLE('',#1322,6.3227098957819);
#40=CIRCLE('',#1323,6.3227098957819);
#41=CIRCLE('',#1324,6.3227098957819);
#42=CIRCLE('',#1326,3.5);
#43=CIRCLE('',#1328,3.5);
#44=CIRCLE('',#1330,3.5);
#45=CIRCLE('',#1332,3.5);
#46=CIRCLE('',#1334,3.5);
#47=CIRCLE('',#1336,6.3227098957819);
#48=CIRCLE('',#1337,6.3227098957819);
#49=CIRCLE('',#1338,6.3227098957819);
#50=CIRCLE('',#1339,6.3227098957819);
#51=CIRCLE('',#1340,6.3227098957819);
#52=CIRCLE('',#1341,6.3227098957819);
#53=CIRCLE('',#1342,6.3227098957819);
#54=CIRCLE('',#1343,6.3227098957819);
#55=CIRCLE('',#1344,6.3227098957819);
#56=CIRCLE('',#1345,6.3227098957819);
#57=CIRCLE('',#1346,6.3227098957819);
#58=CIRCLE('',#1347,6.3227098957819);
#59=CIRCLE('',#1348,6.3227098957819);
#60=CIRCLE('',#1350,3.5);
#61=CIRCLE('',#1352,3.5);
#62=CIRCLE('',#1354,3.5);
#63=CIRCLE('',#1356,3.5);
#64=CIRCLE('',#1358,3.5);
#65=CIRCLE('',#1360,9.9227098957819);
#66=CIRCLE('',#1361,13.140138468551);
#67=CIRCLE('',#1363,0.900000000000001);
#68=CIRCLE('',#1364,8.875);
#69=CIRCLE('',#1365,0.9);
#70=CIRCLE('',#1367,10.0287051699513);
#71=CIRCLE('',#1370,3.5);
#72=CIRCLE('',#1372,0.9);
#73=CIRCLE('',#1373,8.875);
#74=CIRCLE('',#1374,0.900000000000001);
#75=CIRCLE('',#1375,3.5);
#76=CIRCLE('',#1382,3.5);
#77=CIRCLE('',#1383,3.5);
#78=CIRCLE('',#1384,3.5);
#79=CIRCLE('',#1385,3.5);
#80=CIRCLE('',#1386,3.5);
#81=CIRCLE('',#1387,3.5);
#82=CIRCLE('',#1388,3.5);
#83=CIRCLE('',#1390,2.4);
#84=CIRCLE('',#1391,2.4);
#85=CIRCLE('',#1412,3.5);
#86=CIRCLE('',#1413,3.5);
#87=CIRCLE('',#1414,3.5);
#88=CIRCLE('',#1415,3.5);
#89=CIRCLE('',#1416,3.5);
#90=CIRCLE('',#1417,3.5);
#91=CIRCLE('',#1418,3.5);
#92=ORIENTED_EDGE('',*,*,#456,.F.);
#93=ORIENTED_EDGE('',*,*,#457,.T.);
#94=ORIENTED_EDGE('',*,*,#458,.F.);
#95=ORIENTED_EDGE('',*,*,#459,.F.);
#96=ORIENTED_EDGE('',*,*,#457,.F.);
#97=ORIENTED_EDGE('',*,*,#460,.F.);
#98=ORIENTED_EDGE('',*,*,#461,.T.);
#99=ORIENTED_EDGE('',*,*,#462,.T.);
#100=ORIENTED_EDGE('',*,*,#458,.T.);
#101=ORIENTED_EDGE('',*,*,#462,.F.);
#102=ORIENTED_EDGE('',*,*,#463,.T.);
#103=ORIENTED_EDGE('',*,*,#464,.T.);
#104=ORIENTED_EDGE('',*,*,#456,.T.);
#105=ORIENTED_EDGE('',*,*,#465,.F.);
#106=ORIENTED_EDGE('',*,*,#466,.T.);
#107=ORIENTED_EDGE('',*,*,#460,.T.);
#108=ORIENTED_EDGE('',*,*,#459,.T.);
#109=ORIENTED_EDGE('',*,*,#464,.F.);
#110=ORIENTED_EDGE('',*,*,#467,.T.);
#111=ORIENTED_EDGE('',*,*,#465,.T.);
#112=ORIENTED_EDGE('',*,*,#467,.F.);
#113=ORIENTED_EDGE('',*,*,#463,.F.);
#114=ORIENTED_EDGE('',*,*,#461,.F.);
#115=ORIENTED_EDGE('',*,*,#466,.F.);
#116=ORIENTED_EDGE('',*,*,#468,.F.);
#117=ORIENTED_EDGE('',*,*,#469,.F.);
#118=ORIENTED_EDGE('',*,*,#470,.T.);
#119=ORIENTED_EDGE('',*,*,#471,.F.);
#120=ORIENTED_EDGE('',*,*,#472,.F.);
#121=ORIENTED_EDGE('',*,*,#473,.F.);
#122=ORIENTED_EDGE('',*,*,#474,.F.);
#123=ORIENTED_EDGE('',*,*,#475,.T.);
#124=ORIENTED_EDGE('',*,*,#476,.T.);
#125=ORIENTED_EDGE('',*,*,#477,.F.);
#126=ORIENTED_EDGE('',*,*,#478,.F.);
#127=ORIENTED_EDGE('',*,*,#479,.T.);
#128=ORIENTED_EDGE('',*,*,#480,.T.);
#129=ORIENTED_EDGE('',*,*,#481,.F.);
#130=ORIENTED_EDGE('',*,*,#482,.F.);
#131=ORIENTED_EDGE('',*,*,#483,.T.);
#132=ORIENTED_EDGE('',*,*,#484,.T.);
#133=ORIENTED_EDGE('',*,*,#485,.F.);
#134=ORIENTED_EDGE('',*,*,#486,.F.);
#135=ORIENTED_EDGE('',*,*,#487,.T.);
#136=ORIENTED_EDGE('',*,*,#488,.T.);
#137=ORIENTED_EDGE('',*,*,#489,.F.);
#138=ORIENTED_EDGE('',*,*,#490,.F.);
#139=ORIENTED_EDGE('',*,*,#491,.T.);
#140=ORIENTED_EDGE('',*,*,#492,.T.);
#141=ORIENTED_EDGE('',*,*,#493,.F.);
#142=ORIENTED_EDGE('',*,*,#494,.T.);
#143=ORIENTED_EDGE('',*,*,#495,.F.);
#144=ORIENTED_EDGE('',*,*,#496,.F.);
#145=ORIENTED_EDGE('',*,*,#497,.T.);
#146=ORIENTED_EDGE('',*,*,#498,.F.);
#147=ORIENTED_EDGE('',*,*,#477,.T.);
#148=ORIENTED_EDGE('',*,*,#499,.F.);
#149=ORIENTED_EDGE('',*,*,#500,.T.);
#150=ORIENTED_EDGE('',*,*,#501,.F.);
#151=ORIENTED_EDGE('',*,*,#481,.T.);
#152=ORIENTED_EDGE('',*,*,#502,.F.);
#153=ORIENTED_EDGE('',*,*,#503,.T.);
#154=ORIENTED_EDGE('',*,*,#504,.F.);
#155=ORIENTED_EDGE('',*,*,#485,.T.);
#156=ORIENTED_EDGE('',*,*,#505,.F.);
#157=ORIENTED_EDGE('',*,*,#506,.T.);
#158=ORIENTED_EDGE('',*,*,#507,.F.);
#159=ORIENTED_EDGE('',*,*,#489,.T.);
#160=ORIENTED_EDGE('',*,*,#508,.F.);
#161=ORIENTED_EDGE('',*,*,#509,.T.);
#162=ORIENTED_EDGE('',*,*,#510,.T.);
#163=ORIENTED_EDGE('',*,*,#493,.T.);
#164=ORIENTED_EDGE('',*,*,#511,.T.);
#165=ORIENTED_EDGE('',*,*,#512,.F.);
#166=ORIENTED_EDGE('',*,*,#513,.T.);
#167=ORIENTED_EDGE('',*,*,#514,.T.);
#168=ORIENTED_EDGE('',*,*,#515,.F.);
#169=ORIENTED_EDGE('',*,*,#516,.F.);
#170=ORIENTED_EDGE('',*,*,#517,.T.);
#171=ORIENTED_EDGE('',*,*,#518,.T.);
#172=ORIENTED_EDGE('',*,*,#519,.F.);
#173=ORIENTED_EDGE('',*,*,#520,.F.);
#174=ORIENTED_EDGE('',*,*,#521,.T.);
#175=ORIENTED_EDGE('',*,*,#522,.T.);
#176=ORIENTED_EDGE('',*,*,#523,.F.);
#177=ORIENTED_EDGE('',*,*,#524,.F.);
#178=ORIENTED_EDGE('',*,*,#525,.T.);
#179=ORIENTED_EDGE('',*,*,#526,.T.);
#180=ORIENTED_EDGE('',*,*,#527,.F.);
#181=ORIENTED_EDGE('',*,*,#528,.F.);
#182=ORIENTED_EDGE('',*,*,#529,.T.);
#183=ORIENTED_EDGE('',*,*,#530,.T.);
#184=ORIENTED_EDGE('',*,*,#531,.F.);
#185=ORIENTED_EDGE('',*,*,#532,.F.);
#186=ORIENTED_EDGE('',*,*,#533,.T.);
#187=ORIENTED_EDGE('',*,*,#534,.T.);
#188=ORIENTED_EDGE('',*,*,#535,.F.);
#189=ORIENTED_EDGE('',*,*,#536,.F.);
#190=ORIENTED_EDGE('',*,*,#537,.F.);
#191=ORIENTED_EDGE('',*,*,#538,.F.);
#192=ORIENTED_EDGE('',*,*,#516,.T.);
#193=ORIENTED_EDGE('',*,*,#539,.F.);
#194=ORIENTED_EDGE('',*,*,#540,.F.);
#195=ORIENTED_EDGE('',*,*,#541,.F.);
#196=ORIENTED_EDGE('',*,*,#520,.T.);
#197=ORIENTED_EDGE('',*,*,#542,.F.);
#198=ORIENTED_EDGE('',*,*,#543,.F.);
#199=ORIENTED_EDGE('',*,*,#544,.F.);
#200=ORIENTED_EDGE('',*,*,#524,.T.);
#201=ORIENTED_EDGE('',*,*,#545,.F.);
#202=ORIENTED_EDGE('',*,*,#546,.F.);
#203=ORIENTED_EDGE('',*,*,#547,.F.);
#204=ORIENTED_EDGE('',*,*,#528,.T.);
#205=ORIENTED_EDGE('',*,*,#548,.F.);
#206=ORIENTED_EDGE('',*,*,#549,.F.);
#207=ORIENTED_EDGE('',*,*,#550,.F.);
#208=ORIENTED_EDGE('',*,*,#532,.T.);
#209=ORIENTED_EDGE('',*,*,#551,.T.);
#210=ORIENTED_EDGE('',*,*,#552,.F.);
#211=ORIENTED_EDGE('',*,*,#553,.F.);
#212=ORIENTED_EDGE('',*,*,#471,.T.);
#213=ORIENTED_EDGE('',*,*,#554,.F.);
#214=ORIENTED_EDGE('',*,*,#555,.F.);
#215=ORIENTED_EDGE('',*,*,#556,.F.);
#216=ORIENTED_EDGE('',*,*,#557,.F.);
#217=ORIENTED_EDGE('',*,*,#551,.F.);
#218=ORIENTED_EDGE('',*,*,#558,.T.);
#219=ORIENTED_EDGE('',*,*,#511,.F.);
#220=ORIENTED_EDGE('',*,*,#552,.T.);
#221=ORIENTED_EDGE('',*,*,#558,.F.);
#222=ORIENTED_EDGE('',*,*,#559,.F.);
#223=ORIENTED_EDGE('',*,*,#512,.T.);
#224=ORIENTED_EDGE('',*,*,#560,.F.);
#225=ORIENTED_EDGE('',*,*,#561,.F.);
#226=ORIENTED_EDGE('',*,*,#562,.F.);
#227=ORIENTED_EDGE('',*,*,#473,.T.);
#228=ORIENTED_EDGE('',*,*,#563,.T.);
#229=ORIENTED_EDGE('',*,*,#564,.T.);
#230=ORIENTED_EDGE('',*,*,#565,.T.);
#231=ORIENTED_EDGE('',*,*,#566,.T.);
#232=ORIENTED_EDGE('',*,*,#567,.T.);
#233=ORIENTED_EDGE('',*,*,#469,.T.);
#234=ORIENTED_EDGE('',*,*,#568,.T.);
#235=ORIENTED_EDGE('',*,*,#569,.T.);
#236=ORIENTED_EDGE('',*,*,#553,.T.);
#237=ORIENTED_EDGE('',*,*,#570,.T.);
#238=ORIENTED_EDGE('',*,*,#563,.F.);
#239=ORIENTED_EDGE('',*,*,#472,.T.);
#240=ORIENTED_EDGE('',*,*,#557,.T.);
#241=ORIENTED_EDGE('',*,*,#571,.T.);
#242=ORIENTED_EDGE('',*,*,#564,.F.);
#243=ORIENTED_EDGE('',*,*,#570,.F.);
#244=ORIENTED_EDGE('',*,*,#556,.T.);
#245=ORIENTED_EDGE('',*,*,#572,.T.);
#246=ORIENTED_EDGE('',*,*,#565,.F.);
#247=ORIENTED_EDGE('',*,*,#571,.F.);
#248=ORIENTED_EDGE('',*,*,#555,.T.);
#249=ORIENTED_EDGE('',*,*,#573,.T.);
#250=ORIENTED_EDGE('',*,*,#566,.F.);
#251=ORIENTED_EDGE('',*,*,#572,.F.);
#252=ORIENTED_EDGE('',*,*,#554,.T.);
#253=ORIENTED_EDGE('',*,*,#470,.F.);
#254=ORIENTED_EDGE('',*,*,#567,.F.);
#255=ORIENTED_EDGE('',*,*,#573,.F.);
#256=ORIENTED_EDGE('',*,*,#574,.F.);
#257=ORIENTED_EDGE('',*,*,#561,.T.);
#258=ORIENTED_EDGE('',*,*,#575,.T.);
#259=ORIENTED_EDGE('',*,*,#576,.T.);
#260=ORIENTED_EDGE('',*,*,#577,.F.);
#261=ORIENTED_EDGE('',*,*,#549,.T.);
#262=ORIENTED_EDGE('',*,*,#578,.T.);
#263=ORIENTED_EDGE('',*,*,#579,.T.);
#264=ORIENTED_EDGE('',*,*,#580,.F.);
#265=ORIENTED_EDGE('',*,*,#546,.T.);
#266=ORIENTED_EDGE('',*,*,#581,.T.);
#267=ORIENTED_EDGE('',*,*,#582,.T.);
#268=ORIENTED_EDGE('',*,*,#583,.F.);
#269=ORIENTED_EDGE('',*,*,#543,.T.);
#270=ORIENTED_EDGE('',*,*,#584,.T.);
#271=ORIENTED_EDGE('',*,*,#585,.T.);
#272=ORIENTED_EDGE('',*,*,#586,.F.);
#273=ORIENTED_EDGE('',*,*,#540,.T.);
#274=ORIENTED_EDGE('',*,*,#587,.T.);
#275=ORIENTED_EDGE('',*,*,#588,.T.);
#276=ORIENTED_EDGE('',*,*,#589,.F.);
#277=ORIENTED_EDGE('',*,*,#537,.T.);
#278=ORIENTED_EDGE('',*,*,#590,.T.);
#279=ORIENTED_EDGE('',*,*,#591,.T.);
#280=ORIENTED_EDGE('',*,*,#592,.F.);
#281=ORIENTED_EDGE('',*,*,#593,.T.);
#282=ORIENTED_EDGE('',*,*,#594,.F.);
#283=ORIENTED_EDGE('',*,*,#574,.T.);
#284=ORIENTED_EDGE('',*,*,#593,.F.);
#285=ORIENTED_EDGE('',*,*,#591,.F.);
#286=ORIENTED_EDGE('',*,*,#595,.F.);
#287=ORIENTED_EDGE('',*,*,#514,.F.);
#288=ORIENTED_EDGE('',*,*,#596,.F.);
#289=ORIENTED_EDGE('',*,*,#536,.T.);
#290=ORIENTED_EDGE('',*,*,#515,.T.);
#291=ORIENTED_EDGE('',*,*,#595,.T.);
#292=ORIENTED_EDGE('',*,*,#590,.F.);
#293=ORIENTED_EDGE('',*,*,#559,.T.);
#294=ORIENTED_EDGE('',*,*,#592,.T.);
#295=ORIENTED_EDGE('',*,*,#596,.T.);
#296=ORIENTED_EDGE('',*,*,#513,.F.);
#297=ORIENTED_EDGE('',*,*,#539,.T.);
#298=ORIENTED_EDGE('',*,*,#519,.T.);
#299=ORIENTED_EDGE('',*,*,#597,.T.);
#300=ORIENTED_EDGE('',*,*,#587,.F.);
#301=ORIENTED_EDGE('',*,*,#538,.T.);
#302=ORIENTED_EDGE('',*,*,#589,.T.);
#303=ORIENTED_EDGE('',*,*,#598,.T.);
#304=ORIENTED_EDGE('',*,*,#517,.F.);
#305=ORIENTED_EDGE('',*,*,#588,.F.);
#306=ORIENTED_EDGE('',*,*,#597,.F.);
#307=ORIENTED_EDGE('',*,*,#518,.F.);
#308=ORIENTED_EDGE('',*,*,#598,.F.);
#309=ORIENTED_EDGE('',*,*,#542,.T.);
#310=ORIENTED_EDGE('',*,*,#523,.T.);
#311=ORIENTED_EDGE('',*,*,#599,.T.);
#312=ORIENTED_EDGE('',*,*,#584,.F.);
#313=ORIENTED_EDGE('',*,*,#541,.T.);
#314=ORIENTED_EDGE('',*,*,#586,.T.);
#315=ORIENTED_EDGE('',*,*,#600,.T.);
#316=ORIENTED_EDGE('',*,*,#521,.F.);
#317=ORIENTED_EDGE('',*,*,#585,.F.);
#318=ORIENTED_EDGE('',*,*,#599,.F.);
#319=ORIENTED_EDGE('',*,*,#522,.F.);
#320=ORIENTED_EDGE('',*,*,#600,.F.);
#321=ORIENTED_EDGE('',*,*,#545,.T.);
#322=ORIENTED_EDGE('',*,*,#527,.T.);
#323=ORIENTED_EDGE('',*,*,#601,.T.);
#324=ORIENTED_EDGE('',*,*,#581,.F.);
#325=ORIENTED_EDGE('',*,*,#544,.T.);
#326=ORIENTED_EDGE('',*,*,#583,.T.);
#327=ORIENTED_EDGE('',*,*,#602,.T.);
#328=ORIENTED_EDGE('',*,*,#525,.F.);
#329=ORIENTED_EDGE('',*,*,#582,.F.);
#330=ORIENTED_EDGE('',*,*,#601,.F.);
#331=ORIENTED_EDGE('',*,*,#526,.F.);
#332=ORIENTED_EDGE('',*,*,#602,.F.);
#333=ORIENTED_EDGE('',*,*,#548,.T.);
#334=ORIENTED_EDGE('',*,*,#531,.T.);
#335=ORIENTED_EDGE('',*,*,#603,.T.);
#336=ORIENTED_EDGE('',*,*,#578,.F.);
#337=ORIENTED_EDGE('',*,*,#547,.T.);
#338=ORIENTED_EDGE('',*,*,#580,.T.);
#339=ORIENTED_EDGE('',*,*,#604,.T.);
#340=ORIENTED_EDGE('',*,*,#529,.F.);
#341=ORIENTED_EDGE('',*,*,#579,.F.);
#342=ORIENTED_EDGE('',*,*,#603,.F.);
#343=ORIENTED_EDGE('',*,*,#530,.F.);
#344=ORIENTED_EDGE('',*,*,#604,.F.);
#345=ORIENTED_EDGE('',*,*,#560,.T.);
#346=ORIENTED_EDGE('',*,*,#535,.T.);
#347=ORIENTED_EDGE('',*,*,#605,.T.);
#348=ORIENTED_EDGE('',*,*,#575,.F.);
#349=ORIENTED_EDGE('',*,*,#550,.T.);
#350=ORIENTED_EDGE('',*,*,#577,.T.);
#351=ORIENTED_EDGE('',*,*,#606,.T.);
#352=ORIENTED_EDGE('',*,*,#533,.F.);
#353=ORIENTED_EDGE('',*,*,#576,.F.);
#354=ORIENTED_EDGE('',*,*,#605,.F.);
#355=ORIENTED_EDGE('',*,*,#534,.F.);
#356=ORIENTED_EDGE('',*,*,#606,.F.);
#357=ORIENTED_EDGE('',*,*,#607,.F.);
#358=ORIENTED_EDGE('',*,*,#608,.T.);
#359=ORIENTED_EDGE('',*,*,#609,.T.);
#360=ORIENTED_EDGE('',*,*,#497,.F.);
#361=ORIENTED_EDGE('',*,*,#610,.F.);
#362=ORIENTED_EDGE('',*,*,#611,.T.);
#363=ORIENTED_EDGE('',*,*,#612,.T.);
#364=ORIENTED_EDGE('',*,*,#569,.F.);
#365=ORIENTED_EDGE('',*,*,#613,.T.);
#366=ORIENTED_EDGE('',*,*,#614,.F.);
#367=ORIENTED_EDGE('',*,*,#615,.F.);
#368=ORIENTED_EDGE('',*,*,#509,.F.);
#369=ORIENTED_EDGE('',*,*,#616,.F.);
#370=ORIENTED_EDGE('',*,*,#617,.T.);
#371=ORIENTED_EDGE('',*,*,#618,.T.);
#372=ORIENTED_EDGE('',*,*,#506,.F.);
#373=ORIENTED_EDGE('',*,*,#619,.F.);
#374=ORIENTED_EDGE('',*,*,#620,.T.);
#375=ORIENTED_EDGE('',*,*,#621,.T.);
#376=ORIENTED_EDGE('',*,*,#503,.F.);
#377=ORIENTED_EDGE('',*,*,#622,.F.);
#378=ORIENTED_EDGE('',*,*,#623,.T.);
#379=ORIENTED_EDGE('',*,*,#624,.T.);
#380=ORIENTED_EDGE('',*,*,#500,.F.);
#381=ORIENTED_EDGE('',*,*,#625,.T.);
#382=ORIENTED_EDGE('',*,*,#625,.F.);
#383=ORIENTED_EDGE('',*,*,#594,.T.);
#384=ORIENTED_EDGE('',*,*,#614,.T.);
#385=ORIENTED_EDGE('',*,*,#626,.T.);
#386=ORIENTED_EDGE('',*,*,#495,.T.);
#387=ORIENTED_EDGE('',*,*,#627,.T.);
#388=ORIENTED_EDGE('',*,*,#568,.F.);
#389=ORIENTED_EDGE('',*,*,#468,.T.);
#390=ORIENTED_EDGE('',*,*,#626,.F.);
#391=ORIENTED_EDGE('',*,*,#613,.F.);
#392=ORIENTED_EDGE('',*,*,#510,.F.);
#393=ORIENTED_EDGE('',*,*,#615,.T.);
#394=ORIENTED_EDGE('',*,*,#627,.F.);
#395=ORIENTED_EDGE('',*,*,#494,.F.);
#396=ORIENTED_EDGE('',*,*,#562,.T.);
#397=ORIENTED_EDGE('',*,*,#612,.F.);
#398=ORIENTED_EDGE('',*,*,#628,.T.);
#399=ORIENTED_EDGE('',*,*,#474,.T.);
#400=ORIENTED_EDGE('',*,*,#496,.T.);
#401=ORIENTED_EDGE('',*,*,#476,.F.);
#402=ORIENTED_EDGE('',*,*,#629,.T.);
#403=ORIENTED_EDGE('',*,*,#610,.T.);
#404=ORIENTED_EDGE('',*,*,#611,.F.);
#405=ORIENTED_EDGE('',*,*,#629,.F.);
#406=ORIENTED_EDGE('',*,*,#475,.F.);
#407=ORIENTED_EDGE('',*,*,#628,.F.);
#408=ORIENTED_EDGE('',*,*,#507,.T.);
#409=ORIENTED_EDGE('',*,*,#618,.F.);
#410=ORIENTED_EDGE('',*,*,#630,.T.);
#411=ORIENTED_EDGE('',*,*,#490,.T.);
#412=ORIENTED_EDGE('',*,*,#508,.T.);
#413=ORIENTED_EDGE('',*,*,#492,.F.);
#414=ORIENTED_EDGE('',*,*,#631,.T.);
#415=ORIENTED_EDGE('',*,*,#616,.T.);
#416=ORIENTED_EDGE('',*,*,#617,.F.);
#417=ORIENTED_EDGE('',*,*,#631,.F.);
#418=ORIENTED_EDGE('',*,*,#491,.F.);
#419=ORIENTED_EDGE('',*,*,#630,.F.);
#420=ORIENTED_EDGE('',*,*,#504,.T.);
#421=ORIENTED_EDGE('',*,*,#621,.F.);
#422=ORIENTED_EDGE('',*,*,#632,.T.);
#423=ORIENTED_EDGE('',*,*,#486,.T.);
#424=ORIENTED_EDGE('',*,*,#505,.T.);
#425=ORIENTED_EDGE('',*,*,#488,.F.);
#426=ORIENTED_EDGE('',*,*,#633,.T.);
#427=ORIENTED_EDGE('',*,*,#619,.T.);
#428=ORIENTED_EDGE('',*,*,#620,.F.);
#429=ORIENTED_EDGE('',*,*,#633,.F.);
#430=ORIENTED_EDGE('',*,*,#487,.F.);
#431=ORIENTED_EDGE('',*,*,#632,.F.);
#432=ORIENTED_EDGE('',*,*,#501,.T.);
#433=ORIENTED_EDGE('',*,*,#624,.F.);
#434=ORIENTED_EDGE('',*,*,#634,.T.);
#435=ORIENTED_EDGE('',*,*,#482,.T.);
#436=ORIENTED_EDGE('',*,*,#502,.T.);
#437=ORIENTED_EDGE('',*,*,#484,.F.);
#438=ORIENTED_EDGE('',*,*,#635,.T.);
#439=ORIENTED_EDGE('',*,*,#622,.T.);
#440=ORIENTED_EDGE('',*,*,#623,.F.);
#441=ORIENTED_EDGE('',*,*,#635,.F.);
#442=ORIENTED_EDGE('',*,*,#483,.F.);
#443=ORIENTED_EDGE('',*,*,#634,.F.);
#444=ORIENTED_EDGE('',*,*,#498,.T.);
#445=ORIENTED_EDGE('',*,*,#609,.F.);
#446=ORIENTED_EDGE('',*,*,#636,.T.);
#447=ORIENTED_EDGE('',*,*,#478,.T.);
#448=ORIENTED_EDGE('',*,*,#499,.T.);
#449=ORIENTED_EDGE('',*,*,#480,.F.);
#450=ORIENTED_EDGE('',*,*,#637,.T.);
#451=ORIENTED_EDGE('',*,*,#607,.T.);
#452=ORIENTED_EDGE('',*,*,#608,.F.);
#453=ORIENTED_EDGE('',*,*,#637,.F.);
#454=ORIENTED_EDGE('',*,*,#479,.F.);
#455=ORIENTED_EDGE('',*,*,#636,.F.);
#456=EDGE_CURVE('',#638,#639,#762,.T.);
#457=EDGE_CURVE('',#638,#640,#24,.F.);
#458=EDGE_CURVE('',#641,#640,#763,.T.);
#459=EDGE_CURVE('',#639,#641,#25,.T.);
#460=EDGE_CURVE('',#642,#638,#764,.F.);
#461=EDGE_CURVE('',#642,#643,#26,.T.);
#462=EDGE_CURVE('',#643,#640,#765,.F.);
#463=EDGE_CURVE('',#643,#644,#766,.T.);
#464=EDGE_CURVE('',#644,#641,#767,.F.);
#465=EDGE_CURVE('',#645,#639,#768,.F.);
#466=EDGE_CURVE('',#645,#642,#769,.T.);
#467=EDGE_CURVE('',#644,#645,#27,.T.);
#468=EDGE_CURVE('',#646,#647,#770,.T.);
#469=EDGE_CURVE('',#648,#646,#28,.T.);
#470=EDGE_CURVE('',#648,#649,#771,.T.);
#471=EDGE_CURVE('',#650,#649,#29,.T.);
#472=EDGE_CURVE('',#651,#650,#772,.T.);
#473=EDGE_CURVE('',#652,#651,#30,.T.);
#474=EDGE_CURVE('',#653,#652,#773,.F.);
#475=EDGE_CURVE('',#653,#654,#31,.F.);
#476=EDGE_CURVE('',#654,#655,#774,.F.);
#477=EDGE_CURVE('',#656,#655,#32,.T.);
#478=EDGE_CURVE('',#657,#656,#775,.F.);
#479=EDGE_CURVE('',#657,#658,#33,.F.);
#480=EDGE_CURVE('',#658,#659,#776,.F.);
#481=EDGE_CURVE('',#660,#659,#34,.T.);
#482=EDGE_CURVE('',#661,#660,#777,.F.);
#483=EDGE_CURVE('',#661,#662,#35,.F.);
#484=EDGE_CURVE('',#662,#663,#778,.F.);
#485=EDGE_CURVE('',#664,#663,#36,.T.);
#486=EDGE_CURVE('',#665,#664,#779,.F.);
#487=EDGE_CURVE('',#665,#666,#37,.F.);
#488=EDGE_CURVE('',#666,#667,#780,.F.);
#489=EDGE_CURVE('',#668,#667,#38,.T.);
#490=EDGE_CURVE('',#669,#668,#781,.F.);
#491=EDGE_CURVE('',#669,#670,#39,.F.);
#492=EDGE_CURVE('',#670,#671,#782,.F.);
#493=EDGE_CURVE('',#672,#671,#40,.T.);
#494=EDGE_CURVE('',#672,#673,#783,.T.);
#495=EDGE_CURVE('',#647,#673,#41,.T.);
#496=EDGE_CURVE('',#674,#655,#784,.F.);
#497=EDGE_CURVE('',#674,#675,#42,.F.);
#498=EDGE_CURVE('',#656,#675,#785,.F.);
#499=EDGE_CURVE('',#676,#659,#786,.F.);
#500=EDGE_CURVE('',#676,#677,#43,.F.);
#501=EDGE_CURVE('',#660,#677,#787,.F.);
#502=EDGE_CURVE('',#678,#663,#788,.F.);
#503=EDGE_CURVE('',#678,#679,#44,.F.);
#504=EDGE_CURVE('',#664,#679,#789,.F.);
#505=EDGE_CURVE('',#680,#667,#790,.F.);
#506=EDGE_CURVE('',#680,#681,#45,.F.);
#507=EDGE_CURVE('',#668,#681,#791,.F.);
#508=EDGE_CURVE('',#682,#671,#792,.F.);
#509=EDGE_CURVE('',#682,#683,#46,.F.);
#510=EDGE_CURVE('',#683,#672,#793,.T.);
#511=EDGE_CURVE('',#684,#684,#47,.T.);
#512=EDGE_CURVE('',#685,#686,#48,.T.);
#513=EDGE_CURVE('',#685,#687,#794,.T.);
#514=EDGE_CURVE('',#687,#688,#49,.F.);
#515=EDGE_CURVE('',#689,#688,#795,.T.);
#516=EDGE_CURVE('',#690,#689,#50,.T.);
#517=EDGE_CURVE('',#690,#691,#796,.T.);
#518=EDGE_CURVE('',#691,#692,#51,.T.);
#519=EDGE_CURVE('',#693,#692,#797,.T.);
#520=EDGE_CURVE('',#694,#693,#52,.T.);
#521=EDGE_CURVE('',#694,#695,#798,.T.);
#522=EDGE_CURVE('',#695,#696,#53,.T.);
#523=EDGE_CURVE('',#697,#696,#799,.T.);
#524=EDGE_CURVE('',#698,#697,#54,.T.);
#525=EDGE_CURVE('',#698,#699,#800,.T.);
#526=EDGE_CURVE('',#699,#700,#55,.T.);
#527=EDGE_CURVE('',#701,#700,#801,.T.);
#528=EDGE_CURVE('',#702,#701,#56,.T.);
#529=EDGE_CURVE('',#702,#703,#802,.T.);
#530=EDGE_CURVE('',#703,#704,#57,.T.);
#531=EDGE_CURVE('',#705,#704,#803,.T.);
#532=EDGE_CURVE('',#706,#705,#58,.T.);
#533=EDGE_CURVE('',#706,#707,#804,.T.);
#534=EDGE_CURVE('',#707,#708,#59,.T.);
#535=EDGE_CURVE('',#686,#708,#805,.T.);
#536=EDGE_CURVE('',#709,#689,#806,.F.);
#537=EDGE_CURVE('',#710,#709,#60,.T.);
#538=EDGE_CURVE('',#690,#710,#807,.T.);
#539=EDGE_CURVE('',#711,#693,#808,.T.);
#540=EDGE_CURVE('',#712,#711,#61,.T.);
#541=EDGE_CURVE('',#694,#712,#809,.T.);
#542=EDGE_CURVE('',#713,#697,#810,.T.);
#543=EDGE_CURVE('',#714,#713,#62,.T.);
#544=EDGE_CURVE('',#698,#714,#811,.T.);
#545=EDGE_CURVE('',#715,#701,#812,.T.);
#546=EDGE_CURVE('',#716,#715,#63,.T.);
#547=EDGE_CURVE('',#702,#716,#813,.T.);
#548=EDGE_CURVE('',#717,#705,#814,.T.);
#549=EDGE_CURVE('',#718,#717,#64,.T.);
#550=EDGE_CURVE('',#706,#718,#815,.T.);
#551=EDGE_CURVE('',#719,#719,#65,.T.);
#552=EDGE_CURVE('',#720,#720,#66,.T.);
#553=EDGE_CURVE('',#650,#721,#816,.T.);
#554=EDGE_CURVE('',#722,#649,#817,.T.);
#555=EDGE_CURVE('',#723,#722,#67,.T.);
#556=EDGE_CURVE('',#724,#723,#68,.T.);
#557=EDGE_CURVE('',#721,#724,#69,.T.);
#558=EDGE_CURVE('',#725,#725,#70,.T.);
#559=EDGE_CURVE('',#685,#726,#818,.F.);
#560=EDGE_CURVE('',#727,#686,#819,.T.);
#561=EDGE_CURVE('',#726,#727,#71,.T.);
#562=EDGE_CURVE('',#652,#728,#820,.F.);
#563=EDGE_CURVE('',#651,#729,#821,.T.);
#564=EDGE_CURVE('',#729,#730,#72,.T.);
#565=EDGE_CURVE('',#730,#731,#73,.T.);
#566=EDGE_CURVE('',#731,#732,#74,.T.);
#567=EDGE_CURVE('',#732,#648,#822,.T.);
#568=EDGE_CURVE('',#646,#733,#823,.T.);
#569=EDGE_CURVE('',#733,#728,#75,.F.);
#570=EDGE_CURVE('',#721,#729,#824,.F.);
#571=EDGE_CURVE('',#724,#730,#825,.F.);
#572=EDGE_CURVE('',#723,#731,#826,.F.);
#573=EDGE_CURVE('',#722,#732,#827,.F.);
#574=EDGE_CURVE('',#734,#734,#76,.T.);
#575=EDGE_CURVE('',#727,#735,#828,.T.);
#576=EDGE_CURVE('',#735,#736,#77,.T.);
#577=EDGE_CURVE('',#718,#736,#829,.T.);
#578=EDGE_CURVE('',#717,#737,#830,.T.);
#579=EDGE_CURVE('',#737,#738,#78,.T.);
#580=EDGE_CURVE('',#716,#738,#831,.T.);
#581=EDGE_CURVE('',#715,#739,#832,.T.);
#582=EDGE_CURVE('',#739,#740,#79,.T.);
#583=EDGE_CURVE('',#714,#740,#833,.T.);
#584=EDGE_CURVE('',#713,#741,#834,.T.);
#585=EDGE_CURVE('',#741,#742,#80,.T.);
#586=EDGE_CURVE('',#712,#742,#835,.T.);
#587=EDGE_CURVE('',#711,#743,#836,.T.);
#588=EDGE_CURVE('',#743,#744,#81,.T.);
#589=EDGE_CURVE('',#710,#744,#837,.T.);
#590=EDGE_CURVE('',#709,#745,#838,.T.);
#591=EDGE_CURVE('',#745,#746,#82,.F.);
#592=EDGE_CURVE('',#726,#746,#839,.T.);
#593=EDGE_CURVE('',#747,#747,#83,.T.);
#594=EDGE_CURVE('',#748,#748,#84,.F.);
#595=EDGE_CURVE('',#688,#745,#840,.F.);
#596=EDGE_CURVE('',#746,#687,#841,.F.);
#597=EDGE_CURVE('',#692,#743,#842,.T.);
#598=EDGE_CURVE('',#744,#691,#843,.T.);
#599=EDGE_CURVE('',#696,#741,#844,.T.);
#600=EDGE_CURVE('',#742,#695,#845,.T.);
#601=EDGE_CURVE('',#700,#739,#846,.T.);
#602=EDGE_CURVE('',#740,#699,#847,.T.);
#603=EDGE_CURVE('',#704,#737,#848,.T.);
#604=EDGE_CURVE('',#738,#703,#849,.T.);
#605=EDGE_CURVE('',#708,#735,#850,.T.);
#606=EDGE_CURVE('',#736,#707,#851,.T.);
#607=EDGE_CURVE('',#749,#676,#852,.F.);
#608=EDGE_CURVE('',#749,#750,#85,.F.);
#609=EDGE_CURVE('',#750,#675,#853,.F.);
#610=EDGE_CURVE('',#751,#674,#854,.F.);
#611=EDGE_CURVE('',#751,#752,#86,.F.);
#612=EDGE_CURVE('',#752,#728,#855,.F.);
#613=EDGE_CURVE('',#733,#753,#856,.T.);
#614=EDGE_CURVE('',#754,#753,#87,.T.);
#615=EDGE_CURVE('',#683,#754,#857,.T.);
#616=EDGE_CURVE('',#755,#682,#858,.F.);
#617=EDGE_CURVE('',#755,#756,#88,.F.);
#618=EDGE_CURVE('',#756,#681,#859,.F.);
#619=EDGE_CURVE('',#757,#680,#860,.F.);
#620=EDGE_CURVE('',#757,#758,#89,.F.);
#621=EDGE_CURVE('',#758,#679,#861,.F.);
#622=EDGE_CURVE('',#759,#678,#862,.F.);
#623=EDGE_CURVE('',#759,#760,#90,.F.);
#624=EDGE_CURVE('',#760,#677,#863,.F.);
#625=EDGE_CURVE('',#761,#761,#91,.F.);
#626=EDGE_CURVE('',#753,#647,#864,.T.);
#627=EDGE_CURVE('',#673,#754,#865,.T.);
#628=EDGE_CURVE('',#752,#653,#866,.F.);
#629=EDGE_CURVE('',#654,#751,#867,.F.);
#630=EDGE_CURVE('',#756,#669,#868,.F.);
#631=EDGE_CURVE('',#670,#755,#869,.F.);
#632=EDGE_CURVE('',#758,#665,#870,.F.);
#633=EDGE_CURVE('',#666,#757,#871,.F.);
#634=EDGE_CURVE('',#760,#661,#872,.F.);
#635=EDGE_CURVE('',#662,#759,#873,.F.);
#636=EDGE_CURVE('',#750,#657,#874,.F.);
#637=EDGE_CURVE('',#658,#749,#875,.F.);
#638=VERTEX_POINT('',#1833);
#639=VERTEX_POINT('',#1834);
#640=VERTEX_POINT('',#1836);
#641=VERTEX_POINT('',#1838);
#642=VERTEX_POINT('',#1842);
#643=VERTEX_POINT('',#1844);
#644=VERTEX_POINT('',#1848);
#645=VERTEX_POINT('',#1852);
#646=VERTEX_POINT('',#1859);
#647=VERTEX_POINT('',#1860);
#648=VERTEX_POINT('',#1862);
#649=VERTEX_POINT('',#1864);
#650=VERTEX_POINT('',#1866);
#651=VERTEX_POINT('',#1868);
#652=VERTEX_POINT('',#1870);
#653=VERTEX_POINT('',#1872);
#654=VERTEX_POINT('',#1874);
#655=VERTEX_POINT('',#1876);
#656=VERTEX_POINT('',#1878);
#657=VERTEX_POINT('',#1880);
#658=VERTEX_POINT('',#1882);
#659=VERTEX_POINT('',#1884);
#660=VERTEX_POINT('',#1886);
#661=VERTEX_POINT('',#1888);
#662=VERTEX_POINT('',#1890);
#663=VERTEX_POINT('',#1892);
#664=VERTEX_POINT('',#1894);
#665=VERTEX_POINT('',#1896);
#666=VERTEX_POINT('',#1898);
#667=VERTEX_POINT('',#1900);
#668=VERTEX_POINT('',#1902);
#669=VERTEX_POINT('',#1904);
#670=VERTEX_POINT('',#1906);
#671=VERTEX_POINT('',#1908);
#672=VERTEX_POINT('',#1910);
#673=VERTEX_POINT('',#1912);
#674=VERTEX_POINT('',#1916);
#675=VERTEX_POINT('',#1918);
#676=VERTEX_POINT('',#1922);
#677=VERTEX_POINT('',#1924);
#678=VERTEX_POINT('',#1928);
#679=VERTEX_POINT('',#1930);
#680=VERTEX_POINT('',#1934);
#681=VERTEX_POINT('',#1936);
#682=VERTEX_POINT('',#1940);
#683=VERTEX_POINT('',#1942);
#684=VERTEX_POINT('',#1946);
#685=VERTEX_POINT('',#1948);
#686=VERTEX_POINT('',#1949);
#687=VERTEX_POINT('',#1951);
#688=VERTEX_POINT('',#1953);
#689=VERTEX_POINT('',#1955);
#690=VERTEX_POINT('',#1957);
#691=VERTEX_POINT('',#1959);
#692=VERTEX_POINT('',#1961);
#693=VERTEX_POINT('',#1963);
#694=VERTEX_POINT('',#1965);
#695=VERTEX_POINT('',#1967);
#696=VERTEX_POINT('',#1969);
#697=VERTEX_POINT('',#1971);
#698=VERTEX_POINT('',#1973);
#699=VERTEX_POINT('',#1975);
#700=VERTEX_POINT('',#1977);
#701=VERTEX_POINT('',#1979);
#702=VERTEX_POINT('',#1981);
#703=VERTEX_POINT('',#1983);
#704=VERTEX_POINT('',#1985);
#705=VERTEX_POINT('',#1987);
#706=VERTEX_POINT('',#1989);
#707=VERTEX_POINT('',#1991);
#708=VERTEX_POINT('',#1993);
#709=VERTEX_POINT('',#1997);
#710=VERTEX_POINT('',#1999);
#711=VERTEX_POINT('',#2003);
#712=VERTEX_POINT('',#2005);
#713=VERTEX_POINT('',#2009);
#714=VERTEX_POINT('',#2011);
#715=VERTEX_POINT('',#2015);
#716=VERTEX_POINT('',#2017);
#717=VERTEX_POINT('',#2021);
#718=VERTEX_POINT('',#2023);
#719=VERTEX_POINT('',#2027);
#720=VERTEX_POINT('',#2029);
#721=VERTEX_POINT('',#2032);
#722=VERTEX_POINT('',#2034);
#723=VERTEX_POINT('',#2036);
#724=VERTEX_POINT('',#2038);
#725=VERTEX_POINT('',#2042);
#726=VERTEX_POINT('',#2046);
#727=VERTEX_POINT('',#2048);
#728=VERTEX_POINT('',#2052);
#729=VERTEX_POINT('',#2054);
#730=VERTEX_POINT('',#2056);
#731=VERTEX_POINT('',#2058);
#732=VERTEX_POINT('',#2060);
#733=VERTEX_POINT('',#2063);
#734=VERTEX_POINT('',#2076);
#735=VERTEX_POINT('',#2078);
#736=VERTEX_POINT('',#2080);
#737=VERTEX_POINT('',#2083);
#738=VERTEX_POINT('',#2085);
#739=VERTEX_POINT('',#2088);
#740=VERTEX_POINT('',#2090);
#741=VERTEX_POINT('',#2093);
#742=VERTEX_POINT('',#2095);
#743=VERTEX_POINT('',#2098);
#744=VERTEX_POINT('',#2100);
#745=VERTEX_POINT('',#2103);
#746=VERTEX_POINT('',#2105);
#747=VERTEX_POINT('',#2109);
#748=VERTEX_POINT('',#2111);
#749=VERTEX_POINT('',#2145);
#750=VERTEX_POINT('',#2147);
#751=VERTEX_POINT('',#2150);
#752=VERTEX_POINT('',#2152);
#753=VERTEX_POINT('',#2155);
#754=VERTEX_POINT('',#2157);
#755=VERTEX_POINT('',#2160);
#756=VERTEX_POINT('',#2162);
#757=VERTEX_POINT('',#2165);
#758=VERTEX_POINT('',#2167);
#759=VERTEX_POINT('',#2170);
#760=VERTEX_POINT('',#2172);
#761=VERTEX_POINT('',#2175);
#762=LINE('',#1832,#876);
#763=LINE('',#1837,#877);
#764=LINE('',#1841,#878);
#765=LINE('',#1845,#879);
#766=LINE('',#1847,#880);
#767=LINE('',#1849,#881);
#768=LINE('',#1851,#882);
#769=LINE('',#1853,#883);
#770=LINE('',#1858,#884);
#771=LINE('',#1863,#885);
#772=LINE('',#1867,#886);
#773=LINE('',#1871,#887);
#774=LINE('',#1875,#888);
#775=LINE('',#1879,#889);
#776=LINE('',#1883,#890);
#777=LINE('',#1887,#891);
#778=LINE('',#1891,#892);
#779=LINE('',#1895,#893);
#780=LINE('',#1899,#894);
#781=LINE('',#1903,#895);
#782=LINE('',#1907,#896);
#783=LINE('',#1911,#897);
#784=LINE('',#1915,#898);
#785=LINE('',#1919,#899);
#786=LINE('',#1921,#900);
#787=LINE('',#1925,#901);
#788=LINE('',#1927,#902);
#789=LINE('',#1931,#903);
#790=LINE('',#1933,#904);
#791=LINE('',#1937,#905);
#792=LINE('',#1939,#906);
#793=LINE('',#1943,#907);
#794=LINE('',#1950,#908);
#795=LINE('',#1954,#909);
#796=LINE('',#1958,#910);
#797=LINE('',#1962,#911);
#798=LINE('',#1966,#912);
#799=LINE('',#1970,#913);
#800=LINE('',#1974,#914);
#801=LINE('',#1978,#915);
#802=LINE('',#1982,#916);
#803=LINE('',#1986,#917);
#804=LINE('',#1990,#918);
#805=LINE('',#1994,#919);
#806=LINE('',#1996,#920);
#807=LINE('',#2000,#921);
#808=LINE('',#2002,#922);
#809=LINE('',#2006,#923);
#810=LINE('',#2008,#924);
#811=LINE('',#2012,#925);
#812=LINE('',#2014,#926);
#813=LINE('',#2018,#927);
#814=LINE('',#2020,#928);
#815=LINE('',#2024,#929);
#816=LINE('',#2031,#930);
#817=LINE('',#2033,#931);
#818=LINE('',#2045,#932);
#819=LINE('',#2047,#933);
#820=LINE('',#2051,#934);
#821=LINE('',#2053,#935);
#822=LINE('',#2061,#936);
#823=LINE('',#2062,#937);
#824=LINE('',#2066,#938);
#825=LINE('',#2068,#939);
#826=LINE('',#2070,#940);
#827=LINE('',#2072,#941);
#828=LINE('',#2077,#942);
#829=LINE('',#2081,#943);
#830=LINE('',#2082,#944);
#831=LINE('',#2086,#945);
#832=LINE('',#2087,#946);
#833=LINE('',#2091,#947);
#834=LINE('',#2092,#948);
#835=LINE('',#2096,#949);
#836=LINE('',#2097,#950);
#837=LINE('',#2101,#951);
#838=LINE('',#2102,#952);
#839=LINE('',#2106,#953);
#840=LINE('',#2114,#954);
#841=LINE('',#2115,#955);
#842=LINE('',#2119,#956);
#843=LINE('',#2121,#957);
#844=LINE('',#2124,#958);
#845=LINE('',#2126,#959);
#846=LINE('',#2129,#960);
#847=LINE('',#2131,#961);
#848=LINE('',#2134,#962);
#849=LINE('',#2136,#963);
#850=LINE('',#2139,#964);
#851=LINE('',#2141,#965);
#852=LINE('',#2144,#966);
#853=LINE('',#2148,#967);
#854=LINE('',#2149,#968);
#855=LINE('',#2153,#969);
#856=LINE('',#2154,#970);
#857=LINE('',#2158,#971);
#858=LINE('',#2159,#972);
#859=LINE('',#2163,#973);
#860=LINE('',#2164,#974);
#861=LINE('',#2168,#975);
#862=LINE('',#2169,#976);
#863=LINE('',#2173,#977);
#864=LINE('',#2178,#978);
#865=LINE('',#2179,#979);
#866=LINE('',#2183,#980);
#867=LINE('',#2185,#981);
#868=LINE('',#2188,#982);
#869=LINE('',#2190,#983);
#870=LINE('',#2193,#984);
#871=LINE('',#2195,#985);
#872=LINE('',#2198,#986);
#873=LINE('',#2200,#987);
#874=LINE('',#2203,#988);
#875=LINE('',#2205,#989);
#876=VECTOR('',#1442,1000.);
#877=VECTOR('',#1445,1000.);
#878=VECTOR('',#1450,1000.);
#879=VECTOR('',#1453,1000.);
#880=VECTOR('',#1456,1000.);
#881=VECTOR('',#1457,1000.);
#882=VECTOR('',#1460,1000.);
#883=VECTOR('',#1461,1000.);
#884=VECTOR('',#1470,1000.);
#885=VECTOR('',#1473,1000.);
#886=VECTOR('',#1476,1000.);
#887=VECTOR('',#1479,1000.);
#888=VECTOR('',#1482,1000.);
#889=VECTOR('',#1485,1000.);
#890=VECTOR('',#1488,1000.);
#891=VECTOR('',#1491,1000.);
#892=VECTOR('',#1494,1000.);
#893=VECTOR('',#1497,1000.);
#894=VECTOR('',#1500,1000.);
#895=VECTOR('',#1503,1000.);
#896=VECTOR('',#1506,1000.);
#897=VECTOR('',#1509,1000.);
#898=VECTOR('',#1514,1000.);
#899=VECTOR('',#1517,1000.);
#900=VECTOR('',#1520,1000.);
#901=VECTOR('',#1523,1000.);
#902=VECTOR('',#1526,1000.);
#903=VECTOR('',#1529,1000.);
#904=VECTOR('',#1532,1000.);
#905=VECTOR('',#1535,1000.);
#906=VECTOR('',#1538,1000.);
#907=VECTOR('',#1541,1000.);
#908=VECTOR('',#1548,1000.);
#909=VECTOR('',#1551,1000.);
#910=VECTOR('',#1554,1000.);
#911=VECTOR('',#1557,1000.);
#912=VECTOR('',#1560,1000.);
#913=VECTOR('',#1563,1000.);
#914=VECTOR('',#1566,1000.);
#915=VECTOR('',#1569,1000.);
#916=VECTOR('',#1572,1000.);
#917=VECTOR('',#1575,1000.);
#918=VECTOR('',#1578,1000.);
#919=VECTOR('',#1581,1000.);
#920=VECTOR('',#1584,1000.);
#921=VECTOR('',#1587,1000.);
#922=VECTOR('',#1590,1000.);
#923=VECTOR('',#1593,1000.);
#924=VECTOR('',#1596,1000.);
#925=VECTOR('',#1599,1000.);
#926=VECTOR('',#1602,1000.);
#927=VECTOR('',#1605,1000.);
#928=VECTOR('',#1608,1000.);
#929=VECTOR('',#1611,1000.);
#930=VECTOR('',#1620,1000.);
#931=VECTOR('',#1621,1000.);
#932=VECTOR('',#1636,1000.);
#933=VECTOR('',#1637,1000.);
#934=VECTOR('',#1642,1000.);
#935=VECTOR('',#1643,1000.);
#936=VECTOR('',#1650,1000.);
#937=VECTOR('',#1651,1000.);
#938=VECTOR('',#1656,1000.);
#939=VECTOR('',#1659,1000.);
#940=VECTOR('',#1662,1000.);
#941=VECTOR('',#1665,1000.);
#942=VECTOR('',#1672,1000.);
#943=VECTOR('',#1675,1000.);
#944=VECTOR('',#1676,1000.);
#945=VECTOR('',#1679,1000.);
#946=VECTOR('',#1680,1000.);
#947=VECTOR('',#1683,1000.);
#948=VECTOR('',#1684,1000.);
#949=VECTOR('',#1687,1000.);
#950=VECTOR('',#1688,1000.);
#951=VECTOR('',#1691,1000.);
#952=VECTOR('',#1692,1000.);
#953=VECTOR('',#1695,1000.);
#954=VECTOR('',#1706,1000.);
#955=VECTOR('',#1707,1000.);
#956=VECTOR('',#1714,1000.);
#957=VECTOR('',#1717,1000.);
#958=VECTOR('',#1722,1000.);
#959=VECTOR('',#1725,1000.);
#960=VECTOR('',#1730,1000.);
#961=VECTOR('',#1733,1000.);
#962=VECTOR('',#1738,1000.);
#963=VECTOR('',#1741,1000.);
#964=VECTOR('',#1746,1000.);
#965=VECTOR('',#1749,1000.);
#966=VECTOR('',#1754,1000.);
#967=VECTOR('',#1757,1000.);
#968=VECTOR('',#1758,1000.);
#969=VECTOR('',#1761,1000.);
#970=VECTOR('',#1762,1000.);
#971=VECTOR('',#1765,1000.);
#972=VECTOR('',#1766,1000.);
#973=VECTOR('',#1769,1000.);
#974=VECTOR('',#1770,1000.);
#975=VECTOR('',#1773,1000.);
#976=VECTOR('',#1774,1000.);
#977=VECTOR('',#1777,1000.);
#978=VECTOR('',#1784,1000.);
#979=VECTOR('',#1785,1000.);
#980=VECTOR('',#1792,1000.);
#981=VECTOR('',#1795,1000.);
#982=VECTOR('',#1800,1000.);
#983=VECTOR('',#1803,1000.);
#984=VECTOR('',#1808,1000.);
#985=VECTOR('',#1811,1000.);
#986=VECTOR('',#1816,1000.);
#987=VECTOR('',#1819,1000.);
#988=VECTOR('',#1824,1000.);
#989=VECTOR('',#1827,1000.);
#990=EDGE_LOOP('',(#92,#93,#94,#95));
#991=EDGE_LOOP('',(#96,#97,#98,#99));
#992=EDGE_LOOP('',(#100,#101,#102,#103));
#993=EDGE_LOOP('',(#104,#105,#106,#107));
#994=EDGE_LOOP('',(#108,#109,#110,#111));
#995=EDGE_LOOP('',(#112,#113,#114,#115));
#996=EDGE_LOOP('',(#116,#117,#118,#119,#120,#121,#122,#123,#124,#125,#126,
#127,#128,#129,#130,#131,#132,#133,#134,#135,#136,#137,#138,#139,#140,#141,
#142,#143));
#997=EDGE_LOOP('',(#144,#145,#146,#147));
#998=EDGE_LOOP('',(#148,#149,#150,#151));
#999=EDGE_LOOP('',(#152,#153,#154,#155));
#1000=EDGE_LOOP('',(#156,#157,#158,#159));
#1001=EDGE_LOOP('',(#160,#161,#162,#163));
#1002=EDGE_LOOP('',(#164));
#1003=EDGE_LOOP('',(#165,#166,#167,#168,#169,#170,#171,#172,#173,#174,#175,
#176,#177,#178,#179,#180,#181,#182,#183,#184,#185,#186,#187,#188));
#1004=EDGE_LOOP('',(#189,#190,#191,#192));
#1005=EDGE_LOOP('',(#193,#194,#195,#196));
#1006=EDGE_LOOP('',(#197,#198,#199,#200));
#1007=EDGE_LOOP('',(#201,#202,#203,#204));
#1008=EDGE_LOOP('',(#205,#206,#207,#208));
#1009=EDGE_LOOP('',(#209));
#1010=EDGE_LOOP('',(#210));
#1011=EDGE_LOOP('',(#211,#212,#213,#214,#215,#216));
#1012=EDGE_LOOP('',(#217));
#1013=EDGE_LOOP('',(#218));
#1014=EDGE_LOOP('',(#219));
#1015=EDGE_LOOP('',(#220));
#1016=EDGE_LOOP('',(#221));
#1017=EDGE_LOOP('',(#222,#223,#224,#225));
#1018=EDGE_LOOP('',(#226,#227,#228,#229,#230,#231,#232,#233,#234,#235));
#1019=EDGE_LOOP('',(#236,#237,#238,#239));
#1020=EDGE_LOOP('',(#240,#241,#242,#243));
#1021=EDGE_LOOP('',(#244,#245,#246,#247));
#1022=EDGE_LOOP('',(#248,#249,#250,#251));
#1023=EDGE_LOOP('',(#252,#253,#254,#255));
#1024=EDGE_LOOP('',(#256));
#1025=EDGE_LOOP('',(#257,#258,#259,#260,#261,#262,#263,#264,#265,#266,#267,
#268,#269,#270,#271,#272,#273,#274,#275,#276,#277,#278,#279,#280));
#1026=EDGE_LOOP('',(#281));
#1027=EDGE_LOOP('',(#282));
#1028=EDGE_LOOP('',(#283));
#1029=EDGE_LOOP('',(#284));
#1030=EDGE_LOOP('',(#285,#286,#287,#288));
#1031=EDGE_LOOP('',(#289,#290,#291,#292));
#1032=EDGE_LOOP('',(#293,#294,#295,#296));
#1033=EDGE_LOOP('',(#297,#298,#299,#300));
#1034=EDGE_LOOP('',(#301,#302,#303,#304));
#1035=EDGE_LOOP('',(#305,#306,#307,#308));
#1036=EDGE_LOOP('',(#309,#310,#311,#312));
#1037=EDGE_LOOP('',(#313,#314,#315,#316));
#1038=EDGE_LOOP('',(#317,#318,#319,#320));
#1039=EDGE_LOOP('',(#321,#322,#323,#324));
#1040=EDGE_LOOP('',(#325,#326,#327,#328));
#1041=EDGE_LOOP('',(#329,#330,#331,#332));
#1042=EDGE_LOOP('',(#333,#334,#335,#336));
#1043=EDGE_LOOP('',(#337,#338,#339,#340));
#1044=EDGE_LOOP('',(#341,#342,#343,#344));
#1045=EDGE_LOOP('',(#345,#346,#347,#348));
#1046=EDGE_LOOP('',(#349,#350,#351,#352));
#1047=EDGE_LOOP('',(#353,#354,#355,#356));
#1048=EDGE_LOOP('',(#357,#358,#359,#360,#361,#362,#363,#364,#365,#366,#367,
#368,#369,#370,#371,#372,#373,#374,#375,#376,#377,#378,#379,#380));
#1049=EDGE_LOOP('',(#381));
#1050=EDGE_LOOP('',(#382));
#1051=EDGE_LOOP('',(#383));
#1052=EDGE_LOOP('',(#384,#385,#386,#387));
#1053=EDGE_LOOP('',(#388,#389,#390,#391));
#1054=EDGE_LOOP('',(#392,#393,#394,#395));
#1055=EDGE_LOOP('',(#396,#397,#398,#399));
#1056=EDGE_LOOP('',(#400,#401,#402,#403));
#1057=EDGE_LOOP('',(#404,#405,#406,#407));
#1058=EDGE_LOOP('',(#408,#409,#410,#411));
#1059=EDGE_LOOP('',(#412,#413,#414,#415));
#1060=EDGE_LOOP('',(#416,#417,#418,#419));
#1061=EDGE_LOOP('',(#420,#421,#422,#423));
#1062=EDGE_LOOP('',(#424,#425,#426,#427));
#1063=EDGE_LOOP('',(#428,#429,#430,#431));
#1064=EDGE_LOOP('',(#432,#433,#434,#435));
#1065=EDGE_LOOP('',(#436,#437,#438,#439));
#1066=EDGE_LOOP('',(#440,#441,#442,#443));
#1067=EDGE_LOOP('',(#444,#445,#446,#447));
#1068=EDGE_LOOP('',(#448,#449,#450,#451));
#1069=EDGE_LOOP('',(#452,#453,#454,#455));
#1070=FACE_BOUND('',#990,.T.);
#1071=FACE_BOUND('',#991,.T.);
#1072=FACE_BOUND('',#992,.T.);
#1073=FACE_BOUND('',#993,.T.);
#1074=FACE_BOUND('',#994,.T.);
#1075=FACE_BOUND('',#995,.T.);
#1076=FACE_BOUND('',#996,.T.);
#1077=FACE_BOUND('',#997,.T.);
#1078=FACE_BOUND('',#998,.T.);
#1079=FACE_BOUND('',#999,.T.);
#1080=FACE_BOUND('',#1000,.T.);
#1081=FACE_BOUND('',#1001,.T.);
#1082=FACE_BOUND('',#1002,.T.);
#1083=FACE_BOUND('',#1003,.T.);
#1084=FACE_BOUND('',#1004,.T.);
#1085=FACE_BOUND('',#1005,.T.);
#1086=FACE_BOUND('',#1006,.T.);
#1087=FACE_BOUND('',#1007,.T.);
#1088=FACE_BOUND('',#1008,.T.);
#1089=FACE_BOUND('',#1009,.T.);
#1090=FACE_BOUND('',#1010,.T.);
#1091=FACE_BOUND('',#1011,.T.);
#1092=FACE_BOUND('',#1012,.T.);
#1093=FACE_BOUND('',#1013,.T.);
#1094=FACE_BOUND('',#1014,.T.);
#1095=FACE_BOUND('',#1015,.T.);
#1096=FACE_BOUND('',#1016,.T.);
#1097=FACE_BOUND('',#1017,.T.);
#1098=FACE_BOUND('',#1018,.T.);
#1099=FACE_BOUND('',#1019,.T.);
#1100=FACE_BOUND('',#1020,.T.);
#1101=FACE_BOUND('',#1021,.T.);
#1102=FACE_BOUND('',#1022,.T.);
#1103=FACE_BOUND('',#1023,.T.);
#1104=FACE_BOUND('',#1024,.T.);
#1105=FACE_BOUND('',#1025,.T.);
#1106=FACE_BOUND('',#1026,.T.);
#1107=FACE_BOUND('',#1027,.T.);
#1108=FACE_BOUND('',#1028,.T.);
#1109=FACE_BOUND('',#1029,.T.);
#1110=FACE_BOUND('',#1030,.T.);
#1111=FACE_BOUND('',#1031,.T.);
#1112=FACE_BOUND('',#1032,.T.);
#1113=FACE_BOUND('',#1033,.T.);
#1114=FACE_BOUND('',#1034,.T.);
#1115=FACE_BOUND('',#1035,.T.);
#1116=FACE_BOUND('',#1036,.T.);
#1117=FACE_BOUND('',#1037,.T.);
#1118=FACE_BOUND('',#1038,.T.);
#1119=FACE_BOUND('',#1039,.T.);
#1120=FACE_BOUND('',#1040,.T.);
#1121=FACE_BOUND('',#1041,.T.);
#1122=FACE_BOUND('',#1042,.T.);
#1123=FACE_BOUND('',#1043,.T.);
#1124=FACE_BOUND('',#1044,.T.);
#1125=FACE_BOUND('',#1045,.T.);
#1126=FACE_BOUND('',#1046,.T.);
#1127=FACE_BOUND('',#1047,.T.);
#1128=FACE_BOUND('',#1048,.T.);
#1129=FACE_BOUND('',#1049,.T.);
#1130=FACE_BOUND('',#1050,.T.);
#1131=FACE_BOUND('',#1051,.T.);
#1132=FACE_BOUND('',#1052,.T.);
#1133=FACE_BOUND('',#1053,.T.);
#1134=FACE_BOUND('',#1054,.T.);
#1135=FACE_BOUND('',#1055,.T.);
#1136=FACE_BOUND('',#1056,.T.);
#1137=FACE_BOUND('',#1057,.T.);
#1138=FACE_BOUND('',#1058,.T.);
#1139=FACE_BOUND('',#1059,.T.);
#1140=FACE_BOUND('',#1060,.T.);
#1141=FACE_BOUND('',#1061,.T.);
#1142=FACE_BOUND('',#1062,.T.);
#1143=FACE_BOUND('',#1063,.T.);
#1144=FACE_BOUND('',#1064,.T.);
#1145=FACE_BOUND('',#1065,.T.);
#1146=FACE_BOUND('',#1066,.T.);
#1147=FACE_BOUND('',#1067,.T.);
#1148=FACE_BOUND('',#1068,.T.);
#1149=FACE_BOUND('',#1069,.T.);
#1150=PLANE('',#1300);
#1151=PLANE('',#1305);
#1152=PLANE('',#1306);
#1153=PLANE('',#1309);
#1154=PLANE('',#1325);
#1155=PLANE('',#1327);
#1156=PLANE('',#1329);
#1157=PLANE('',#1331);
#1158=PLANE('',#1333);
#1159=PLANE('',#1349);
#1160=PLANE('',#1351);
#1161=PLANE('',#1353);
#1162=PLANE('',#1355);
#1163=PLANE('',#1357);
#1164=PLANE('',#1362);
#1165=PLANE('',#1366);
#1166=PLANE('',#1369);
#1167=PLANE('',#1371);
#1168=PLANE('',#1376);
#1169=PLANE('',#1380);
#1170=PLANE('',#1392);
#1171=PLANE('',#1393);
#1172=PLANE('',#1394);
#1173=PLANE('',#1395);
#1174=PLANE('',#1396);
#1175=PLANE('',#1397);
#1176=PLANE('',#1398);
#1177=PLANE('',#1399);
#1178=PLANE('',#1400);
#1179=PLANE('',#1401);
#1180=PLANE('',#1402);
#1181=PLANE('',#1403);
#1182=PLANE('',#1404);
#1183=PLANE('',#1405);
#1184=PLANE('',#1406);
#1185=PLANE('',#1407);
#1186=PLANE('',#1408);
#1187=PLANE('',#1409);
#1188=PLANE('',#1410);
#1189=PLANE('',#1419);
#1190=PLANE('',#1420);
#1191=PLANE('',#1421);
#1192=PLANE('',#1422);
#1193=PLANE('',#1423);
#1194=PLANE('',#1424);
#1195=PLANE('',#1425);
#1196=PLANE('',#1426);
#1197=PLANE('',#1427);
#1198=PLANE('',#1428);
#1199=PLANE('',#1429);
#1200=PLANE('',#1430);
#1201=PLANE('',#1431);
#1202=PLANE('',#1432);
#1203=PLANE('',#1433);
#1204=PLANE('',#1434);
#1205=PLANE('',#1435);
#1206=PLANE('',#1436);
#1207=PLANE('',#1437);
#1208=ADVANCED_FACE('',(#1070),#1150,.F.);
#1209=ADVANCED_FACE('',(#1071),#14,.T.);
#1210=ADVANCED_FACE('',(#1072),#1151,.T.);
#1211=ADVANCED_FACE('',(#1073),#1152,.T.);
#1212=ADVANCED_FACE('',(#1074),#15,.F.);
#1213=ADVANCED_FACE('',(#1075),#1153,.F.);
#1214=ADVANCED_FACE('',(#1076),#16,.F.);
#1215=ADVANCED_FACE('',(#1077),#1154,.T.);
#1216=ADVANCED_FACE('',(#1078),#1155,.T.);
#1217=ADVANCED_FACE('',(#1079),#1156,.T.);
#1218=ADVANCED_FACE('',(#1080),#1157,.T.);
#1219=ADVANCED_FACE('',(#1081),#1158,.T.);
#1220=ADVANCED_FACE('',(#1082,#1083),#17,.F.);
#1221=ADVANCED_FACE('',(#1084),#1159,.T.);
#1222=ADVANCED_FACE('',(#1085),#1160,.T.);
#1223=ADVANCED_FACE('',(#1086),#1161,.T.);
#1224=ADVANCED_FACE('',(#1087),#1162,.T.);
#1225=ADVANCED_FACE('',(#1088),#1163,.T.);
#1226=ADVANCED_FACE('',(#1089,#1090),#10,.F.);
#1227=ADVANCED_FACE('',(#1091,#1092),#1164,.T.);
#1228=ADVANCED_FACE('',(#1093,#1094),#1165,.T.);
#1229=ADVANCED_FACE('',(#1095,#1096),#11,.F.);
#1230=ADVANCED_FACE('',(#1097),#1166,.T.);
#1231=ADVANCED_FACE('',(#1098),#1167,.T.);
#1232=ADVANCED_FACE('',(#1099),#1168,.F.);
#1233=ADVANCED_FACE('',(#1100),#18,.F.);
#1234=ADVANCED_FACE('',(#1101),#19,.F.);
#1235=ADVANCED_FACE('',(#1102),#20,.F.);
#1236=ADVANCED_FACE('',(#1103),#1169,.F.);
#1237=ADVANCED_FACE('',(#1104,#1105),#21,.T.);
#1238=ADVANCED_FACE('',(#1106,#1107),#22,.F.);
#1239=ADVANCED_FACE('',(#1108,#1109),#1170,.T.);
#1240=ADVANCED_FACE('',(#1110),#1171,.F.);
#1241=ADVANCED_FACE('',(#1111),#1172,.T.);
#1242=ADVANCED_FACE('',(#1112),#1173,.T.);
#1243=ADVANCED_FACE('',(#1113),#1174,.T.);
#1244=ADVANCED_FACE('',(#1114),#1175,.T.);
#1245=ADVANCED_FACE('',(#1115),#1176,.F.);
#1246=ADVANCED_FACE('',(#1116),#1177,.T.);
#1247=ADVANCED_FACE('',(#1117),#1178,.T.);
#1248=ADVANCED_FACE('',(#1118),#1179,.F.);
#1249=ADVANCED_FACE('',(#1119),#1180,.T.);
#1250=ADVANCED_FACE('',(#1120),#1181,.T.);
#1251=ADVANCED_FACE('',(#1121),#1182,.F.);
#1252=ADVANCED_FACE('',(#1122),#1183,.T.);
#1253=ADVANCED_FACE('',(#1123),#1184,.T.);
#1254=ADVANCED_FACE('',(#1124),#1185,.F.);
#1255=ADVANCED_FACE('',(#1125),#1186,.T.);
#1256=ADVANCED_FACE('',(#1126),#1187,.T.);
#1257=ADVANCED_FACE('',(#1127),#1188,.F.);
#1258=ADVANCED_FACE('',(#1128,#1129),#23,.T.);
#1259=ADVANCED_FACE('',(#1130,#1131),#1189,.T.);
#1260=ADVANCED_FACE('',(#1132),#1190,.F.);
#1261=ADVANCED_FACE('',(#1133),#1191,.T.);
#1262=ADVANCED_FACE('',(#1134),#1192,.T.);
#1263=ADVANCED_FACE('',(#1135),#1193,.T.);
#1264=ADVANCED_FACE('',(#1136),#1194,.T.);
#1265=ADVANCED_FACE('',(#1137),#1195,.F.);
#1266=ADVANCED_FACE('',(#1138),#1196,.T.);
#1267=ADVANCED_FACE('',(#1139),#1197,.T.);
#1268=ADVANCED_FACE('',(#1140),#1198,.F.);
#1269=ADVANCED_FACE('',(#1141),#1199,.T.);
#1270=ADVANCED_FACE('',(#1142),#1200,.T.);
#1271=ADVANCED_FACE('',(#1143),#1201,.F.);
#1272=ADVANCED_FACE('',(#1144),#1202,.T.);
#1273=ADVANCED_FACE('',(#1145),#1203,.T.);
#1274=ADVANCED_FACE('',(#1146),#1204,.F.);
#1275=ADVANCED_FACE('',(#1147),#1205,.T.);
#1276=ADVANCED_FACE('',(#1148),#1206,.T.);
#1277=ADVANCED_FACE('',(#1149),#1207,.F.);
#1278=CLOSED_SHELL('',(#1208,#1209,#1210,#1211,#1212,#1213));
#1279=CLOSED_SHELL('',(#1214,#1215,#1216,#1217,#1218,#1219,#1220,#1221,
#1222,#1223,#1224,#1225,#1226,#1227,#1228,#1229,#1230,#1231,#1232,#1233,
#1234,#1235,#1236,#1237,#1238,#1239,#1240,#1241,#1242,#1243,#1244,#1245,
#1246,#1247,#1248,#1249,#1250,#1251,#1252,#1253,#1254,#1255,#1256,#1257,
#1258,#1259,#1260,#1261,#1262,#1263,#1264,#1265,#1266,#1267,#1268,#1269,
#1270,#1271,#1272,#1273,#1274,#1275,#1276,#1277));
#1280=STYLED_ITEM('',(#1282),#1295);
#1281=STYLED_ITEM('',(#1283),#1296);
#1282=PRESENTATION_STYLE_ASSIGNMENT((#1284));
#1283=PRESENTATION_STYLE_ASSIGNMENT((#1285));
#1284=SURFACE_STYLE_USAGE(.BOTH.,#1286);
#1285=SURFACE_STYLE_USAGE(.BOTH.,#1287);
#1286=SURFACE_SIDE_STYLE('',(#1288));
#1287=SURFACE_SIDE_STYLE('',(#1289));
#1288=SURFACE_STYLE_FILL_AREA(#1290);
#1289=SURFACE_STYLE_FILL_AREA(#1291);
#1290=FILL_AREA_STYLE('',(#1292));
#1291=FILL_AREA_STYLE('',(#1293));
#1292=FILL_AREA_STYLE_COLOUR('',#1294);
#1293=FILL_AREA_STYLE_COLOUR('',#1294);
#1294=COLOUR_RGB('',0.611764705882353,0.658823529411765,0.670588235294118);
#1295=MANIFOLD_SOLID_BREP('Mirror Geometry (28)',#1278);
#1296=MANIFOLD_SOLID_BREP('Revolve (6)',#1279);
#1297=SHAPE_DEFINITION_REPRESENTATION(#2213,#1298);
#1298=SHAPE_REPRESENTATION('M03',(#1299),#2208);
#1299=AXIS2_PLACEMENT_3D('',#1830,#1438,#1439);
#1300=AXIS2_PLACEMENT_3D('',#1831,#1440,#1441);
#1301=AXIS2_PLACEMENT_3D('',#1835,#1443,#1444);
#1302=AXIS2_PLACEMENT_3D('',#1839,#1446,#1447);
#1303=AXIS2_PLACEMENT_3D('',#1840,#1448,#1449);
#1304=AXIS2_PLACEMENT_3D('',#1843,#1451,#1452);
#1305=AXIS2_PLACEMENT_3D('',#1846,#1454,#1455);
#1306=AXIS2_PLACEMENT_3D('',#1850,#1458,#1459);
#1307=AXIS2_PLACEMENT_3D('',#1854,#1462,#1463);
#1308=AXIS2_PLACEMENT_3D('',#1855,#1464,#1465);
#1309=AXIS2_PLACEMENT_3D('',#1856,#1466,#1467);
#1310=AXIS2_PLACEMENT_3D('',#1857,#1468,#1469);
#1311=AXIS2_PLACEMENT_3D('',#1861,#1471,#1472);
#1312=AXIS2_PLACEMENT_3D('',#1865,#1474,#1475);
#1313=AXIS2_PLACEMENT_3D('',#1869,#1477,#1478);
#1314=AXIS2_PLACEMENT_3D('',#1873,#1480,#1481);
#1315=AXIS2_PLACEMENT_3D('',#1877,#1483,#1484);
#1316=AXIS2_PLACEMENT_3D('',#1881,#1486,#1487);
#1317=AXIS2_PLACEMENT_3D('',#1885,#1489,#1490);
#1318=AXIS2_PLACEMENT_3D('',#1889,#1492,#1493);
#1319=AXIS2_PLACEMENT_3D('',#1893,#1495,#1496);
#1320=AXIS2_PLACEMENT_3D('',#1897,#1498,#1499);
#1321=AXIS2_PLACEMENT_3D('',#1901,#1501,#1502);
#1322=AXIS2_PLACEMENT_3D('',#1905,#1504,#1505);
#1323=AXIS2_PLACEMENT_3D('',#1909,#1507,#1508);
#1324=AXIS2_PLACEMENT_3D('',#1913,#1510,#1511);
#1325=AXIS2_PLACEMENT_3D('',#1914,#1512,#1513);
#1326=AXIS2_PLACEMENT_3D('',#1917,#1515,#1516);
#1327=AXIS2_PLACEMENT_3D('',#1920,#1518,#1519);
#1328=AXIS2_PLACEMENT_3D('',#1923,#1521,#1522);
#1329=AXIS2_PLACEMENT_3D('',#1926,#1524,#1525);
#1330=AXIS2_PLACEMENT_3D('',#1929,#1527,#1528);
#1331=AXIS2_PLACEMENT_3D('',#1932,#1530,#1531);
#1332=AXIS2_PLACEMENT_3D('',#1935,#1533,#1534);
#1333=AXIS2_PLACEMENT_3D('',#1938,#1536,#1537);
#1334=AXIS2_PLACEMENT_3D('',#1941,#1539,#1540);
#1335=AXIS2_PLACEMENT_3D('',#1944,#1542,#1543);
#1336=AXIS2_PLACEMENT_3D('',#1945,#1544,#1545);
#1337=AXIS2_PLACEMENT_3D('',#1947,#1546,#1547);
#1338=AXIS2_PLACEMENT_3D('',#1952,#1549,#1550);
#1339=AXIS2_PLACEMENT_3D('',#1956,#1552,#1553);
#1340=AXIS2_PLACEMENT_3D('',#1960,#1555,#1556);
#1341=AXIS2_PLACEMENT_3D('',#1964,#1558,#1559);
#1342=AXIS2_PLACEMENT_3D('',#1968,#1561,#1562);
#1343=AXIS2_PLACEMENT_3D('',#1972,#1564,#1565);
#1344=AXIS2_PLACEMENT_3D('',#1976,#1567,#1568);
#1345=AXIS2_PLACEMENT_3D('',#1980,#1570,#1571);
#1346=AXIS2_PLACEMENT_3D('',#1984,#1573,#1574);
#1347=AXIS2_PLACEMENT_3D('',#1988,#1576,#1577);
#1348=AXIS2_PLACEMENT_3D('',#1992,#1579,#1580);
#1349=AXIS2_PLACEMENT_3D('',#1995,#1582,#1583);
#1350=AXIS2_PLACEMENT_3D('',#1998,#1585,#1586);
#1351=AXIS2_PLACEMENT_3D('',#2001,#1588,#1589);
#1352=AXIS2_PLACEMENT_3D('',#2004,#1591,#1592);
#1353=AXIS2_PLACEMENT_3D('',#2007,#1594,#1595);
#1354=AXIS2_PLACEMENT_3D('',#2010,#1597,#1598);
#1355=AXIS2_PLACEMENT_3D('',#2013,#1600,#1601);
#1356=AXIS2_PLACEMENT_3D('',#2016,#1603,#1604);
#1357=AXIS2_PLACEMENT_3D('',#2019,#1606,#1607);
#1358=AXIS2_PLACEMENT_3D('',#2022,#1609,#1610);
#1359=AXIS2_PLACEMENT_3D('',#2025,#1612,#1613);
#1360=AXIS2_PLACEMENT_3D('',#2026,#1614,#1615);
#1361=AXIS2_PLACEMENT_3D('',#2028,#1616,#1617);
#1362=AXIS2_PLACEMENT_3D('',#2030,#1618,#1619);
#1363=AXIS2_PLACEMENT_3D('',#2035,#1622,#1623);
#1364=AXIS2_PLACEMENT_3D('',#2037,#1624,#1625);
#1365=AXIS2_PLACEMENT_3D('',#2039,#1626,#1627);
#1366=AXIS2_PLACEMENT_3D('',#2040,#1628,#1629);
#1367=AXIS2_PLACEMENT_3D('',#2041,#1630,#1631);
#1368=AXIS2_PLACEMENT_3D('',#2043,#1632,#1633);
#1369=AXIS2_PLACEMENT_3D('',#2044,#1634,#1635);
#1370=AXIS2_PLACEMENT_3D('',#2049,#1638,#1639);
#1371=AXIS2_PLACEMENT_3D('',#2050,#1640,#1641);
#1372=AXIS2_PLACEMENT_3D('',#2055,#1644,#1645);
#1373=AXIS2_PLACEMENT_3D('',#2057,#1646,#1647);
#1374=AXIS2_PLACEMENT_3D('',#2059,#1648,#1649);
#1375=AXIS2_PLACEMENT_3D('',#2064,#1652,#1653);
#1376=AXIS2_PLACEMENT_3D('',#2065,#1654,#1655);
#1377=AXIS2_PLACEMENT_3D('',#2067,#1657,#1658);
#1378=AXIS2_PLACEMENT_3D('',#2069,#1660,#1661);
#1379=AXIS2_PLACEMENT_3D('',#2071,#1663,#1664);
#1380=AXIS2_PLACEMENT_3D('',#2073,#1666,#1667);
#1381=AXIS2_PLACEMENT_3D('',#2074,#1668,#1669);
#1382=AXIS2_PLACEMENT_3D('',#2075,#1670,#1671);
#1383=AXIS2_PLACEMENT_3D('',#2079,#1673,#1674);
#1384=AXIS2_PLACEMENT_3D('',#2084,#1677,#1678);
#1385=AXIS2_PLACEMENT_3D('',#2089,#1681,#1682);
#1386=AXIS2_PLACEMENT_3D('',#2094,#1685,#1686);
#1387=AXIS2_PLACEMENT_3D('',#2099,#1689,#1690);
#1388=AXIS2_PLACEMENT_3D('',#2104,#1693,#1694);
#1389=AXIS2_PLACEMENT_3D('',#2107,#1696,#1697);
#1390=AXIS2_PLACEMENT_3D('',#2108,#1698,#1699);
#1391=AXIS2_PLACEMENT_3D('',#2110,#1700,#1701);
#1392=AXIS2_PLACEMENT_3D('',#2112,#1702,#1703);
#1393=AXIS2_PLACEMENT_3D('',#2113,#1704,#1705);
#1394=AXIS2_PLACEMENT_3D('',#2116,#1708,#1709);
#1395=AXIS2_PLACEMENT_3D('',#2117,#1710,#1711);
#1396=AXIS2_PLACEMENT_3D('',#2118,#1712,#1713);
#1397=AXIS2_PLACEMENT_3D('',#2120,#1715,#1716);
#1398=AXIS2_PLACEMENT_3D('',#2122,#1718,#1719);
#1399=AXIS2_PLACEMENT_3D('',#2123,#1720,#1721);
#1400=AXIS2_PLACEMENT_3D('',#2125,#1723,#1724);
#1401=AXIS2_PLACEMENT_3D('',#2127,#1726,#1727);
#1402=AXIS2_PLACEMENT_3D('',#2128,#1728,#1729);
#1403=AXIS2_PLACEMENT_3D('',#2130,#1731,#1732);
#1404=AXIS2_PLACEMENT_3D('',#2132,#1734,#1735);
#1405=AXIS2_PLACEMENT_3D('',#2133,#1736,#1737);
#1406=AXIS2_PLACEMENT_3D('',#2135,#1739,#1740);
#1407=AXIS2_PLACEMENT_3D('',#2137,#1742,#1743);
#1408=AXIS2_PLACEMENT_3D('',#2138,#1744,#1745);
#1409=AXIS2_PLACEMENT_3D('',#2140,#1747,#1748);
#1410=AXIS2_PLACEMENT_3D('',#2142,#1750,#1751);
#1411=AXIS2_PLACEMENT_3D('',#2143,#1752,#1753);
#1412=AXIS2_PLACEMENT_3D('',#2146,#1755,#1756);
#1413=AXIS2_PLACEMENT_3D('',#2151,#1759,#1760);
#1414=AXIS2_PLACEMENT_3D('',#2156,#1763,#1764);
#1415=AXIS2_PLACEMENT_3D('',#2161,#1767,#1768);
#1416=AXIS2_PLACEMENT_3D('',#2166,#1771,#1772);
#1417=AXIS2_PLACEMENT_3D('',#2171,#1775,#1776);
#1418=AXIS2_PLACEMENT_3D('',#2174,#1778,#1779);
#1419=AXIS2_PLACEMENT_3D('',#2176,#1780,#1781);
#1420=AXIS2_PLACEMENT_3D('',#2177,#1782,#1783);
#1421=AXIS2_PLACEMENT_3D('',#2180,#1786,#1787);
#1422=AXIS2_PLACEMENT_3D('',#2181,#1788,#1789);
#1423=AXIS2_PLACEMENT_3D('',#2182,#1790,#1791);
#1424=AXIS2_PLACEMENT_3D('',#2184,#1793,#1794);
#1425=AXIS2_PLACEMENT_3D('',#2186,#1796,#1797);
#1426=AXIS2_PLACEMENT_3D('',#2187,#1798,#1799);
#1427=AXIS2_PLACEMENT_3D('',#2189,#1801,#1802);
#1428=AXIS2_PLACEMENT_3D('',#2191,#1804,#1805);
#1429=AXIS2_PLACEMENT_3D('',#2192,#1806,#1807);
#1430=AXIS2_PLACEMENT_3D('',#2194,#1809,#1810);
#1431=AXIS2_PLACEMENT_3D('',#2196,#1812,#1813);
#1432=AXIS2_PLACEMENT_3D('',#2197,#1814,#1815);
#1433=AXIS2_PLACEMENT_3D('',#2199,#1817,#1818);
#1434=AXIS2_PLACEMENT_3D('',#2201,#1820,#1821);
#1435=AXIS2_PLACEMENT_3D('',#2202,#1822,#1823);
#1436=AXIS2_PLACEMENT_3D('',#2204,#1825,#1826);
#1437=AXIS2_PLACEMENT_3D('',#2206,#1828,#1829);
#1438=DIRECTION('',(0.,0.,1.));
#1439=DIRECTION('',(1.,0.,0.));
#1440=DIRECTION('',(0.,0.,1.));
#1441=DIRECTION('',(1.,0.,0.));
#1442=DIRECTION('',(-0.856400485140664,-0.516312123672139,0.));
#1443=DIRECTION('',(0.,0.,1.));
#1444=DIRECTION('',(1.,0.,0.));
#1445=DIRECTION('',(0.856400485140665,0.516312123672139,0.));
#1446=DIRECTION('',(0.,0.,-1.));
#1447=DIRECTION('',(-1.,0.,0.));
#1448=DIRECTION('',(0.,0.,1.));
#1449=DIRECTION('',(-1.,0.,0.));
#1450=DIRECTION('',(0.,0.,1.));
#1451=DIRECTION('',(0.,0.,-1.));
#1452=DIRECTION('',(1.,1.22464679914735E-16,0.));
#1453=DIRECTION('',(0.,0.,1.));
#1454=DIRECTION('',(0.516312123672139,-0.856400485140665,0.));
#1455=DIRECTION('',(0.856400485140665,0.516312123672139,0.));
#1456=DIRECTION('',(-0.856400485140665,-0.516312123672139,0.));
#1457=DIRECTION('',(0.,0.,1.));
#1458=DIRECTION('',(-0.516312123672139,0.856400485140664,0.));
#1459=DIRECTION('',(-0.856400485140664,-0.516312123672139,0.));
#1460=DIRECTION('',(0.,0.,1.));
#1461=DIRECTION('',(0.856400485140664,0.516312123672139,0.));
#1462=DIRECTION('',(0.,0.,1.));
#1463=DIRECTION('',(-1.,0.,0.));
#1464=DIRECTION('',(0.,0.,1.));
#1465=DIRECTION('',(1.,0.,0.));
#1466=DIRECTION('',(0.,0.,-1.));
#1467=DIRECTION('',(1.,0.,0.));
#1468=DIRECTION('',(0.,0.,-1.));
#1469=DIRECTION('',(-1.,0.,0.));
#1470=DIRECTION('',(0.,0.,1.));
#1471=DIRECTION('',(0.,0.,1.));
#1472=DIRECTION('',(1.,0.,0.));
#1473=DIRECTION('',(0.,0.,1.));
#1474=DIRECTION('',(0.,0.,-1.));
#1475=DIRECTION('',(-1.,0.,0.));
#1476=DIRECTION('',(0.,0.,1.));
#1477=DIRECTION('',(0.,0.,1.));
#1478=DIRECTION('',(1.,0.,0.));
#1479=DIRECTION('',(0.,0.,1.));
#1480=DIRECTION('',(0.,0.,1.));
#1481=DIRECTION('',(0.499999999999996,-0.866025403784441,0.));
#1482=DIRECTION('',(0.,0.,1.));
#1483=DIRECTION('',(0.,0.,1.));
#1484=DIRECTION('',(1.,0.,0.));
#1485=DIRECTION('',(0.,0.,1.));
#1486=DIRECTION('',(0.,0.,1.));
#1487=DIRECTION('',(-0.500000000000003,-0.866025403784437,0.));
#1488=DIRECTION('',(0.,0.,1.));
#1489=DIRECTION('',(0.,0.,1.));
#1490=DIRECTION('',(1.,0.,0.));
#1491=DIRECTION('',(0.,0.,1.));
#1492=DIRECTION('',(0.,0.,1.));
#1493=DIRECTION('',(-1.,2.34291072916505E-15,0.));
#1494=DIRECTION('',(0.,0.,1.));
#1495=DIRECTION('',(0.,0.,1.));
#1496=DIRECTION('',(1.,0.,0.));
#1497=DIRECTION('',(0.,0.,1.));
#1498=DIRECTION('',(0.,0.,1.));
#1499=DIRECTION('',(-0.499999999999999,0.866025403784439,0.));
#1500=DIRECTION('',(0.,0.,1.));
#1501=DIRECTION('',(0.,0.,1.));
#1502=DIRECTION('',(1.,0.,0.));
#1503=DIRECTION('',(0.,0.,1.));
#1504=DIRECTION('',(0.,0.,1.));
#1505=DIRECTION('',(0.500000000000001,0.866025403784438,0.));
#1506=DIRECTION('',(0.,0.,1.));
#1507=DIRECTION('',(0.,0.,1.));
#1508=DIRECTION('',(1.,0.,0.));
#1509=DIRECTION('',(0.,0.,1.));
#1510=DIRECTION('',(0.,0.,1.));
#1511=DIRECTION('',(1.,0.,0.));
#1512=DIRECTION('',(0.,0.,1.));
#1513=DIRECTION('',(1.,0.,0.));
#1514=DIRECTION('',(-0.875339657952296,0.483508514109067,0.));
#1515=DIRECTION('',(0.,0.,1.));
#1516=DIRECTION('',(1.,0.,0.));
#1517=DIRECTION('',(0.0189391728116302,-0.999820637781203,0.));
#1518=DIRECTION('',(0.,0.,1.));
#1519=DIRECTION('',(1.,0.,0.));
#1520=DIRECTION('',(-0.0189391728116299,0.999820637781203,0.));
#1521=DIRECTION('',(0.,0.,1.));
#1522=DIRECTION('',(1.,0.,0.));
#1523=DIRECTION('',(-0.856400485140666,-0.516312123672137,0.));
#1524=DIRECTION('',(0.,0.,1.));
#1525=DIRECTION('',(1.,0.,0.));
#1526=DIRECTION('',(0.856400485140666,0.516312123672137,0.));
#1527=DIRECTION('',(0.,0.,1.));
#1528=DIRECTION('',(1.,0.,0.));
#1529=DIRECTION('',(-0.875339657952297,0.483508514109065,0.));
#1530=DIRECTION('',(0.,0.,1.));
#1531=DIRECTION('',(1.,0.,0.));
#1532=DIRECTION('',(0.875339657952297,-0.483508514109065,0.));
#1533=DIRECTION('',(0.,0.,1.));
#1534=DIRECTION('',(1.,0.,0.));
#1535=DIRECTION('',(-0.0189391728116325,0.999820637781203,0.));
#1536=DIRECTION('',(0.,0.,1.));
#1537=DIRECTION('',(1.,0.,0.));
#1538=DIRECTION('',(0.0189391728116323,-0.999820637781203,0.));
#1539=DIRECTION('',(0.,0.,1.));
#1540=DIRECTION('',(1.,0.,0.));
#1541=DIRECTION('',(0.856400485140665,0.516312123672139,0.));
#1542=DIRECTION('',(0.,0.,-1.));
#1543=DIRECTION('',(-1.,0.,0.));
#1544=DIRECTION('',(0.,0.,-1.));
#1545=DIRECTION('',(-1.,0.,0.));
#1546=DIRECTION('',(0.,0.,-1.));
#1547=DIRECTION('',(-1.,0.,0.));
#1548=DIRECTION('',(0.,0.,-1.));
#1549=DIRECTION('',(0.,0.,-1.));
#1550=DIRECTION('',(1.,1.22464679914735E-16,0.));
#1551=DIRECTION('',(0.,0.,-1.));
#1552=DIRECTION('',(0.,0.,-1.));
#1553=DIRECTION('',(-1.,0.,0.));
#1554=DIRECTION('',(0.,0.,-1.));
#1555=DIRECTION('',(0.,0.,1.));
#1556=DIRECTION('',(0.500000000000001,0.866025403784438,0.));
#1557=DIRECTION('',(0.,0.,-1.));
#1558=DIRECTION('',(0.,0.,-1.));
#1559=DIRECTION('',(-1.,0.,0.));
#1560=DIRECTION('',(0.,0.,-1.));
#1561=DIRECTION('',(0.,0.,1.));
#1562=DIRECTION('',(-0.499999999999999,0.866025403784439,0.));
#1563=DIRECTION('',(0.,0.,-1.));
#1564=DIRECTION('',(0.,0.,-1.));
#1565=DIRECTION('',(-1.,0.,0.));
#1566=DIRECTION('',(0.,0.,-1.));
#1567=DIRECTION('',(0.,0.,1.));
#1568=DIRECTION('',(-1.,2.34291072916505E-15,0.));
#1569=DIRECTION('',(0.,0.,-1.));
#1570=DIRECTION('',(0.,0.,-1.));
#1571=DIRECTION('',(-1.,0.,0.));
#1572=DIRECTION('',(0.,0.,-1.));
#1573=DIRECTION('',(0.,0.,1.));
#1574=DIRECTION('',(-0.500000000000003,-0.866025403784437,0.));
#1575=DIRECTION('',(0.,0.,-1.));
#1576=DIRECTION('',(0.,0.,-1.));
#1577=DIRECTION('',(-1.,0.,0.));
#1578=DIRECTION('',(0.,0.,-1.));
#1579=DIRECTION('',(0.,0.,1.));
#1580=DIRECTION('',(0.499999999999996,-0.866025403784441,0.));
#1581=DIRECTION('',(0.,0.,-1.));
#1582=DIRECTION('',(0.,0.,-1.));
#1583=DIRECTION('',(-1.,0.,0.));
#1584=DIRECTION('',(-0.856400485140664,-0.516312123672139,0.));
#1585=DIRECTION('',(0.,0.,-1.));
#1586=DIRECTION('',(-1.,0.,0.));
#1587=DIRECTION('',(0.0189391728116323,-0.999820637781203,0.));
#1588=DIRECTION('',(0.,0.,-1.));
#1589=DIRECTION('',(-1.,0.,0.));
#1590=DIRECTION('',(-0.0189391728116325,0.999820637781203,0.));
#1591=DIRECTION('',(0.,0.,-1.));
#1592=DIRECTION('',(-1.,0.,0.));
#1593=DIRECTION('',(0.875339657952297,-0.483508514109065,0.));
#1594=DIRECTION('',(0.,0.,-1.));
#1595=DIRECTION('',(-1.,0.,0.));
#1596=DIRECTION('',(-0.875339657952297,0.483508514109065,0.));
#1597=DIRECTION('',(0.,0.,-1.));
#1598=DIRECTION('',(-1.,0.,0.));
#1599=DIRECTION('',(0.856400485140666,0.516312123672137,0.));
#1600=DIRECTION('',(0.,0.,-1.));
#1601=DIRECTION('',(-1.,0.,0.));
#1602=DIRECTION('',(-0.856400485140666,-0.516312123672137,0.));
#1603=DIRECTION('',(0.,0.,-1.));
#1604=DIRECTION('',(-1.,0.,0.));
#1605=DIRECTION('',(-0.0189391728116299,0.999820637781203,0.));
#1606=DIRECTION('',(0.,0.,-1.));
#1607=DIRECTION('',(-1.,0.,0.));
#1608=DIRECTION('',(0.0189391728116302,-0.999820637781203,0.));
#1609=DIRECTION('',(0.,0.,-1.));
#1610=DIRECTION('',(-1.,0.,0.));
#1611=DIRECTION('',(-0.875339657952296,0.483508514109067,0.));
#1612=DIRECTION('',(0.,0.,-1.));
#1613=DIRECTION('',(-1.,0.,0.));
#1614=DIRECTION('',(0.,0.,-1.));
#1615=DIRECTION('',(-1.,0.,0.));
#1616=DIRECTION('',(0.,0.,-1.));
#1617=DIRECTION('',(-1.,0.,0.));
#1618=DIRECTION('',(0.,0.,1.));
#1619=DIRECTION('',(1.,0.,0.));
#1620=DIRECTION('',(0.999847695156391,0.0174524064372835,0.));
#1621=DIRECTION('',(-0.999847695156391,0.0174524064372832,0.));
#1622=DIRECTION('',(0.,0.,1.));
#1623=DIRECTION('',(-1.83697019872103E-16,-1.,0.));
#1624=DIRECTION('',(0.,0.,1.));
#1625=DIRECTION('',(1.,0.,0.));
#1626=DIRECTION('',(0.,0.,1.));
#1627=DIRECTION('',(-1.83697019872103E-16,-1.,0.));
#1628=DIRECTION('',(0.,0.,-1.));
#1629=DIRECTION('',(-1.,0.,0.));
#1630=DIRECTION('',(0.,0.,-1.));
#1631=DIRECTION('',(-1.,0.,0.));
#1632=DIRECTION('',(0.,0.,-1.));
#1633=DIRECTION('',(-1.,0.,0.));
#1634=DIRECTION('',(0.,0.,-1.));
#1635=DIRECTION('',(-1.,0.,0.));
#1636=DIRECTION('',(0.856400485140665,0.516312123672139,0.));
#1637=DIRECTION('',(0.875339657952296,-0.483508514109067,0.));
#1638=DIRECTION('',(0.,0.,-1.));
#1639=DIRECTION('',(-1.,0.,0.));
#1640=DIRECTION('',(0.,0.,1.));
#1641=DIRECTION('',(1.,0.,0.));
#1642=DIRECTION('',(0.875339657952296,-0.483508514109067,0.));
#1643=DIRECTION('',(0.999847695156391,0.0174524064372835,0.));
#1644=DIRECTION('',(0.,0.,1.));
#1645=DIRECTION('',(-1.83697019872103E-16,-1.,0.));
#1646=DIRECTION('',(0.,0.,1.));
#1647=DIRECTION('',(1.,0.,0.));
#1648=DIRECTION('',(0.,0.,1.));
#1649=DIRECTION('',(-1.83697019872103E-16,-1.,0.));
#1650=DIRECTION('',(-0.999847695156391,0.0174524064372832,0.));
#1651=DIRECTION('',(-0.856400485140665,-0.516312123672139,0.));
#1652=DIRECTION('',(0.,0.,1.));
#1653=DIRECTION('',(1.,0.,0.));
#1654=DIRECTION('',(0.0174524064372835,-0.999847695156391,0.));
#1655=DIRECTION('',(0.999847695156391,0.0174524064372835,0.));
#1656=DIRECTION('',(0.,0.,1.));
#1657=DIRECTION('',(0.,0.,1.));
#1658=DIRECTION('',(1.,0.,0.));
#1659=DIRECTION('',(0.,0.,1.));
#1660=DIRECTION('',(0.,0.,1.));
#1661=DIRECTION('',(1.,0.,0.));
#1662=DIRECTION('',(0.,0.,1.));
#1663=DIRECTION('',(0.,0.,1.));
#1664=DIRECTION('',(1.,0.,0.));
#1665=DIRECTION('',(0.,0.,1.));
#1666=DIRECTION('',(0.0174524064372832,0.999847695156391,0.));
#1667=DIRECTION('',(-0.999847695156391,0.0174524064372832,0.));
#1668=DIRECTION('',(0.,0.,-1.));
#1669=DIRECTION('',(-1.,0.,0.));
#1670=DIRECTION('',(0.,0.,-1.));
#1671=DIRECTION('',(-1.,0.,0.));
#1672=DIRECTION('',(0.,0.,-1.));
#1673=DIRECTION('',(0.,0.,-1.));
#1674=DIRECTION('',(0.499999999999996,-0.866025403784441,0.));
#1675=DIRECTION('',(0.,0.,-1.));
#1676=DIRECTION('',(0.,0.,-1.));
#1677=DIRECTION('',(0.,0.,-1.));
#1678=DIRECTION('',(-0.500000000000003,-0.866025403784437,0.));
#1679=DIRECTION('',(0.,0.,-1.));
#1680=DIRECTION('',(0.,0.,-1.));
#1681=DIRECTION('',(0.,0.,-1.));
#1682=DIRECTION('',(-1.,2.22044604925031E-15,0.));
#1683=DIRECTION('',(0.,0.,-1.));
#1684=DIRECTION('',(0.,0.,-1.));
#1685=DIRECTION('',(0.,0.,-1.));
#1686=DIRECTION('',(-0.499999999999999,0.866025403784439,0.));
#1687=DIRECTION('',(0.,0.,-1.));
#1688=DIRECTION('',(0.,0.,-1.));
#1689=DIRECTION('',(0.,0.,-1.));
#1690=DIRECTION('',(0.500000000000001,0.866025403784438,0.));
#1691=DIRECTION('',(0.,0.,-1.));
#1692=DIRECTION('',(0.,0.,-1.));
#1693=DIRECTION('',(0.,0.,1.));
#1694=DIRECTION('',(1.,0.,0.));
#1695=DIRECTION('',(0.,0.,-1.));
#1696=DIRECTION('',(0.,0.,-1.));
#1697=DIRECTION('',(-1.,0.,0.));
#1698=DIRECTION('',(0.,0.,-1.));
#1699=DIRECTION('',(-1.,0.,0.));
#1700=DIRECTION('',(0.,0.,1.));
#1701=DIRECTION('',(1.,0.,0.));
#1702=DIRECTION('',(0.,0.,-1.));
#1703=DIRECTION('',(-1.,0.,0.));
#1704=DIRECTION('',(0.,0.,1.));
#1705=DIRECTION('',(1.,0.,0.));
#1706=DIRECTION('',(0.856400485140664,0.516312123672139,0.));
#1707=DIRECTION('',(-0.856400485140665,-0.516312123672139,0.));
#1708=DIRECTION('',(-0.516312123672139,0.856400485140664,0.));
#1709=DIRECTION('',(-0.856400485140664,-0.516312123672139,0.));
#1710=DIRECTION('',(0.516312123672139,-0.856400485140665,0.));
#1711=DIRECTION('',(0.856400485140665,0.516312123672139,0.));
#1712=DIRECTION('',(-0.999820637781203,-0.0189391728116325,0.));
#1713=DIRECTION('',(0.0189391728116325,-0.999820637781203,0.));
#1714=DIRECTION('',(0.0189391728116325,-0.999820637781203,0.));
#1715=DIRECTION('',(0.999820637781203,0.0189391728116323,0.));
#1716=DIRECTION('',(-0.0189391728116323,0.999820637781203,0.));
#1717=DIRECTION('',(-0.0189391728116324,0.999820637781203,0.));
#1718=DIRECTION('',(0.,0.,1.));
#1719=DIRECTION('',(-0.500000000000001,-0.866025403784438,0.));
#1720=DIRECTION('',(-0.483508514109065,-0.875339657952297,0.));
#1721=DIRECTION('',(0.875339657952297,-0.483508514109065,0.));
#1722=DIRECTION('',(0.875339657952297,-0.483508514109065,0.));
#1723=DIRECTION('',(0.483508514109065,0.875339657952297,0.));
#1724=DIRECTION('',(-0.875339657952297,0.483508514109065,0.));
#1725=DIRECTION('',(-0.875339657952297,0.483508514109065,0.));
#1726=DIRECTION('',(0.,0.,1.));
#1727=DIRECTION('',(0.499999999999999,-0.866025403784439,0.));
#1728=DIRECTION('',(0.516312123672137,-0.856400485140666,0.));
#1729=DIRECTION('',(0.856400485140666,0.516312123672137,0.));
#1730=DIRECTION('',(0.856400485140666,0.516312123672137,0.));
#1731=DIRECTION('',(-0.516312123672137,0.856400485140666,0.));
#1732=DIRECTION('',(-0.856400485140666,-0.516312123672137,0.));
#1733=DIRECTION('',(-0.856400485140666,-0.516312123672137,0.));
#1734=DIRECTION('',(0.,0.,1.));
#1735=DIRECTION('',(1.,-2.34291072916505E-15,0.));
#1736=DIRECTION('',(0.999820637781203,0.0189391728116302,0.));
#1737=DIRECTION('',(-0.0189391728116302,0.999820637781203,0.));
#1738=DIRECTION('',(-0.0189391728116302,0.999820637781203,0.));
#1739=DIRECTION('',(-0.999820637781203,-0.0189391728116299,0.));
#1740=DIRECTION('',(0.0189391728116299,-0.999820637781203,0.));
#1741=DIRECTION('',(0.01893917281163,-0.999820637781203,0.));
#1742=DIRECTION('',(0.,0.,1.));
#1743=DIRECTION('',(0.500000000000003,0.866025403784437,0.));
#1744=DIRECTION('',(0.483508514109067,0.875339657952296,0.));
#1745=DIRECTION('',(-0.875339657952296,0.483508514109067,0.));
#1746=DIRECTION('',(-0.875339657952296,0.483508514109067,0.));
#1747=DIRECTION('',(-0.483508514109067,-0.875339657952295,0.));
#1748=DIRECTION('',(0.875339657952296,-0.483508514109067,0.));
#1749=DIRECTION('',(0.875339657952296,-0.483508514109067,0.));
#1750=DIRECTION('',(0.,0.,1.));
#1751=DIRECTION('',(-0.499999999999996,0.866025403784441,0.));
#1752=DIRECTION('',(0.,0.,-1.));
#1753=DIRECTION('',(-1.,0.,0.));
#1754=DIRECTION('',(0.,0.,1.));
#1755=DIRECTION('',(0.,0.,-1.));
#1756=DIRECTION('',(-0.500000000000003,-0.866025403784437,0.));
#1757=DIRECTION('',(0.,0.,1.));
#1758=DIRECTION('',(0.,0.,1.));
#1759=DIRECTION('',(0.,0.,-1.));
#1760=DIRECTION('',(0.499999999999996,-0.866025403784441,0.));
#1761=DIRECTION('',(0.,0.,1.));
#1762=DIRECTION('',(0.,0.,1.));
#1763=DIRECTION('',(0.,0.,-1.));
#1764=DIRECTION('',(1.,1.22464679914735E-16,0.));
#1765=DIRECTION('',(0.,0.,1.));
#1766=DIRECTION('',(0.,0.,1.));
#1767=DIRECTION('',(0.,0.,-1.));
#1768=DIRECTION('',(0.500000000000001,0.866025403784438,0.));
#1769=DIRECTION('',(0.,0.,1.));
#1770=DIRECTION('',(0.,0.,1.));
#1771=DIRECTION('',(0.,0.,-1.));
#1772=DIRECTION('',(-0.499999999999999,0.866025403784439,0.));
#1773=DIRECTION('',(0.,0.,1.));
#1774=DIRECTION('',(0.,0.,1.));
#1775=DIRECTION('',(0.,0.,-1.));
#1776=DIRECTION('',(-1.,2.22044604925031E-15,0.));
#1777=DIRECTION('',(0.,0.,1.));
#1778=DIRECTION('',(0.,0.,1.));
#1779=DIRECTION('',(1.,0.,0.));
#1780=DIRECTION('',(0.,0.,1.));
#1781=DIRECTION('',(1.,0.,0.));
#1782=DIRECTION('',(0.,0.,-1.));
#1783=DIRECTION('',(-1.,0.,0.));
#1784=DIRECTION('',(0.856400485140664,0.516312123672139,0.));
#1785=DIRECTION('',(-0.856400485140664,-0.516312123672139,0.));
#1786=DIRECTION('',(0.516312123672139,-0.856400485140664,0.));
#1787=DIRECTION('',(0.856400485140665,0.516312123672139,0.));
#1788=DIRECTION('',(-0.516312123672139,0.856400485140665,0.));
#1789=DIRECTION('',(-0.856400485140665,-0.516312123672139,0.));
#1790=DIRECTION('',(0.483508514109067,0.875339657952296,0.));
#1791=DIRECTION('',(-0.875339657952296,0.483508514109067,0.));
#1792=DIRECTION('',(-0.875339657952296,0.483508514109067,0.));
#1793=DIRECTION('',(-0.483508514109067,-0.875339657952295,0.));
#1794=DIRECTION('',(0.875339657952296,-0.483508514109067,0.));
#1795=DIRECTION('',(0.875339657952296,-0.483508514109067,0.));
#1796=DIRECTION('',(0.,0.,-1.));
#1797=DIRECTION('',(-0.499999999999996,0.866025403784441,0.));
#1798=DIRECTION('',(-0.999820637781203,-0.0189391728116325,0.));
#1799=DIRECTION('',(0.0189391728116325,-0.999820637781203,0.));
#1800=DIRECTION('',(0.0189391728116325,-0.999820637781203,0.));
#1801=DIRECTION('',(0.999820637781203,0.0189391728116323,0.));
#1802=DIRECTION('',(-0.0189391728116323,0.999820637781203,0.));
#1803=DIRECTION('',(-0.0189391728116324,0.999820637781203,0.));
#1804=DIRECTION('',(0.,0.,-1.));
#1805=DIRECTION('',(-0.500000000000001,-0.866025403784438,0.));
#1806=DIRECTION('',(-0.483508514109065,-0.875339657952297,0.));
#1807=DIRECTION('',(0.875339657952297,-0.483508514109065,0.));
#1808=DIRECTION('',(0.875339657952297,-0.483508514109065,0.));
#1809=DIRECTION('',(0.483508514109065,0.875339657952297,0.));
#1810=DIRECTION('',(-0.875339657952297,0.483508514109065,0.));
#1811=DIRECTION('',(-0.875339657952297,0.483508514109065,0.));
#1812=DIRECTION('',(0.,0.,-1.));
#1813=DIRECTION('',(0.499999999999999,-0.866025403784439,0.));
#1814=DIRECTION('',(0.516312123672137,-0.856400485140666,0.));
#1815=DIRECTION('',(0.856400485140666,0.516312123672137,0.));
#1816=DIRECTION('',(0.856400485140666,0.516312123672137,0.));
#1817=DIRECTION('',(-0.516312123672137,0.856400485140666,0.));
#1818=DIRECTION('',(-0.856400485140666,-0.516312123672137,0.));
#1819=DIRECTION('',(-0.856400485140666,-0.516312123672137,0.));
#1820=DIRECTION('',(0.,0.,-1.));
#1821=DIRECTION('',(1.,-2.34291072916505E-15,0.));
#1822=DIRECTION('',(0.999820637781203,0.0189391728116302,0.));
#1823=DIRECTION('',(-0.0189391728116302,0.999820637781203,0.));
#1824=DIRECTION('',(-0.0189391728116302,0.999820637781203,0.));
#1825=DIRECTION('',(-0.999820637781203,-0.0189391728116299,0.));
#1826=DIRECTION('',(0.0189391728116299,-0.999820637781203,0.));
#1827=DIRECTION('',(0.01893917281163,-0.999820637781203,0.));
#1828=DIRECTION('',(0.,0.,-1.));
#1829=DIRECTION('',(0.500000000000003,0.866025403784437,0.));
#1830=CARTESIAN_POINT('',(0.,0.,0.));
#1831=CARTESIAN_POINT('',(0.,-9.92270989578189,11.1));
#1832=CARTESIAN_POINT('',(2.99740169799233,1.80709243285249,11.1));
#1833=CARTESIAN_POINT('',(5.4147718221513,3.264491773654,11.1));
#1834=CARTESIAN_POINT('',(2.99740169798183,1.8070924328699,11.1));
#1835=CARTESIAN_POINT('',(0.,0.,11.1));
#1836=CARTESIAN_POINT('',(5.65597028965239,2.82606802975225,11.1));
#1837=CARTESIAN_POINT('',(5.65597028967185,2.8260680297133,11.1));
#1838=CARTESIAN_POINT('',(3.22481436562854,1.36035741892923,11.1));
#1839=CARTESIAN_POINT('',(0.,0.,11.1));
#1840=CARTESIAN_POINT('',(0.,0.,-1.48999999999999));
#1841=CARTESIAN_POINT('',(5.4147718221513,3.264491773654,-1.48999999999999));
#1842=CARTESIAN_POINT('',(5.4147718221513,3.264491773654,14.9));
#1843=CARTESIAN_POINT('',(0.,0.,14.9));
#1844=CARTESIAN_POINT('',(5.65597028965239,2.82606802975225,14.9));
#1845=CARTESIAN_POINT('',(5.65597028965239,2.82606802975225,-1.48999999999999));
#1846=CARTESIAN_POINT('',(5.65597028967185,2.8260680297133,-1.48999999999999));
#1847=CARTESIAN_POINT('',(5.65597028967185,2.8260680297133,14.9));
#1848=CARTESIAN_POINT('',(3.22481436562854,1.36035741892923,14.9));
#1849=CARTESIAN_POINT('',(3.22481436562854,1.36035741892923,-1.48999999999999));
#1850=CARTESIAN_POINT('',(2.99740169799233,1.80709243285249,-1.48999999999999));
#1851=CARTESIAN_POINT('',(2.99740169798183,1.8070924328699,-1.48999999999999));
#1852=CARTESIAN_POINT('',(2.99740169798183,1.8070924328699,14.9));
#1853=CARTESIAN_POINT('',(2.99740169799233,1.80709243285249,14.9));
#1854=CARTESIAN_POINT('',(0.,0.,-1.48999999999999));
#1855=CARTESIAN_POINT('',(0.,0.,14.9));
#1856=CARTESIAN_POINT('',(0.,0.,14.9));
#1857=CARTESIAN_POINT('',(0.,0.,0.));
#1858=CARTESIAN_POINT('',(5.65597028967185,2.8260680297133,-1.49));
#1859=CARTESIAN_POINT('',(5.65597028967185,2.82606802971331,11.1));
#1860=CARTESIAN_POINT('',(5.65597028967185,2.82606802971331,14.9));
#1861=CARTESIAN_POINT('',(0.,0.,11.1));
#1862=CARTESIAN_POINT('',(6.15127195073044,1.46236582781983,11.1));
#1863=CARTESIAN_POINT('',(6.15127195073044,1.46236582781983,11.1));
#1864=CARTESIAN_POINT('',(6.15127195073044,1.46236582781983,20.4));
#1865=CARTESIAN_POINT('',(0.,0.,20.4));
#1866=CARTESIAN_POINT('',(6.08512845330496,-1.71693684595466,20.4));
#1867=CARTESIAN_POINT('',(6.08512845330496,-1.71693684595466,11.1));
#1868=CARTESIAN_POINT('',(6.08512845330496,-1.71693684595466,11.1));
#1869=CARTESIAN_POINT('',(0.,0.,11.1));
#1870=CARTESIAN_POINT('',(5.53451871750532,-3.0570840668522,11.1));
#1871=CARTESIAN_POINT('',(5.53451871750531,-3.05708406685222,-1.48999999999999));
#1872=CARTESIAN_POINT('',(5.53451871750531,-3.05708406685222,14.9));
#1873=CARTESIAN_POINT('',(0.,0.,14.9));
#1874=CARTESIAN_POINT('',(5.27543185139067,-3.48517993904922,14.9));
#1875=CARTESIAN_POINT('',(5.27543185139066,-3.48517993904922,-1.48999999999999));
#1876=CARTESIAN_POINT('',(5.27543185139067,-3.48517993904922,11.1));
#1877=CARTESIAN_POINT('',(0.,0.,11.1));
#1878=CARTESIAN_POINT('',(0.119746895354017,-6.32157584050618,11.1));
#1879=CARTESIAN_POINT('',(0.119746895354,-6.32157584050618,-1.48999999999999));
#1880=CARTESIAN_POINT('',(0.119746895354,-6.32157584050618,14.9));
#1881=CARTESIAN_POINT('',(0.,0.,14.9));
#1882=CARTESIAN_POINT('',(-0.380538438281186,-6.3112479687625,14.9));
#1883=CARTESIAN_POINT('',(-0.380538438281186,-6.3112479687625,-1.48999999999999));
#1884=CARTESIAN_POINT('',(-0.380538438281186,-6.31124796876251,11.1));
#1885=CARTESIAN_POINT('',(0.,0.,11.1));
#1886=CARTESIAN_POINT('',(-5.41477182215131,-3.26449177365399,11.1));
#1887=CARTESIAN_POINT('',(-5.41477182215131,-3.26449177365397,-1.48999999999999));
#1888=CARTESIAN_POINT('',(-5.41477182215131,-3.26449177365397,14.9));
#1889=CARTESIAN_POINT('',(0.,0.,14.9));
#1890=CARTESIAN_POINT('',(-5.65597028967186,-2.82606802971329,14.9));
#1891=CARTESIAN_POINT('',(-5.65597028967185,-2.82606802971329,-1.48999999999999));
#1892=CARTESIAN_POINT('',(-5.65597028967186,-2.82606802971329,11.1));
#1893=CARTESIAN_POINT('',(0.,0.,11.1));
#1894=CARTESIAN_POINT('',(-5.53451871750533,3.05708406685219,11.1));
#1895=CARTESIAN_POINT('',(-5.53451871750532,3.0570840668522,-1.49));
#1896=CARTESIAN_POINT('',(-5.53451871750532,3.0570840668522,14.9));
#1897=CARTESIAN_POINT('',(0.,0.,14.9));
#1898=CARTESIAN_POINT('',(-5.27543185139068,3.48517993904921,14.9));
#1899=CARTESIAN_POINT('',(-5.27543185139067,3.48517993904921,-1.49));
#1900=CARTESIAN_POINT('',(-5.27543185139068,3.48517993904921,11.1));
#1901=CARTESIAN_POINT('',(0.,0.,11.1));
#1902=CARTESIAN_POINT('',(-0.119746895354032,6.32157584050618,11.1));
#1903=CARTESIAN_POINT('',(-0.119746895354014,6.32157584050618,-1.48999999999999));
#1904=CARTESIAN_POINT('',(-0.119746895354014,6.32157584050618,14.9));
#1905=CARTESIAN_POINT('',(0.,0.,14.9));
#1906=CARTESIAN_POINT('',(0.380538438281171,6.31124796876251,14.9));
#1907=CARTESIAN_POINT('',(0.380538438281172,6.3112479687625,-1.48999999999999));
#1908=CARTESIAN_POINT('',(0.380538438281172,6.31124796876251,11.1));
#1909=CARTESIAN_POINT('',(0.,0.,11.1));
#1910=CARTESIAN_POINT('',(5.4147718221513,3.264491773654,11.1));
#1911=CARTESIAN_POINT('',(5.41477182215131,3.26449177365399,-1.49));
#1912=CARTESIAN_POINT('',(5.41477182215131,3.26449177365399,14.9));
#1913=CARTESIAN_POINT('',(0.,0.,14.9));
#1914=CARTESIAN_POINT('',(0.,-9.92270989578189,11.1));
#1915=CARTESIAN_POINT('',(2.79051126585214,-2.11259245363422,11.1));
#1916=CARTESIAN_POINT('',(2.79051126584592,-2.11259245364245,11.1));
#1917=CARTESIAN_POINT('',(0.,0.,11.1));
#1918=CARTESIAN_POINT('',(0.0662871048474792,-3.49937223223408,11.1));
#1919=CARTESIAN_POINT('',(0.119746895354017,-6.32157584050618,11.1));
#1920=CARTESIAN_POINT('',(0.,-9.92270989578189,11.1));
#1921=CARTESIAN_POINT('',(-0.434303099764461,-3.47294987259174,11.1));
#1922=CARTESIAN_POINT('',(-0.434303099774696,-3.47294987259046,11.1));
#1923=CARTESIAN_POINT('',(0.,0.,11.1));
#1924=CARTESIAN_POINT('',(-2.99740169798883,-1.80709243285828,11.1));
#1925=CARTESIAN_POINT('',(-5.4147718221513,-3.26449177365399,11.1));
#1926=CARTESIAN_POINT('',(0.,-9.92270989578189,11.1));
#1927=CARTESIAN_POINT('',(-3.2248143656166,-1.36035741895752,11.1));
#1928=CARTESIAN_POINT('',(-3.22481436562061,-1.36035741894802,11.1));
#1929=CARTESIAN_POINT('',(0.,0.,11.1));
#1930=CARTESIAN_POINT('',(-3.06368880283632,1.6922797993758,11.1));
#1931=CARTESIAN_POINT('',(-5.53451871750533,3.05708406685219,11.1));
#1932=CARTESIAN_POINT('',(0.,-9.92270989578189,11.1));
#1933=CARTESIAN_POINT('',(-2.79051126585215,2.11259245363422,11.1));
#1934=CARTESIAN_POINT('',(-2.79051126584592,2.11259245364244,11.1));
#1935=CARTESIAN_POINT('',(0.,0.,11.1));
#1936=CARTESIAN_POINT('',(-0.0662871048474874,3.49937223223408,11.1));
#1937=CARTESIAN_POINT('',(-0.119746895354032,6.32157584050618,11.1));
#1938=CARTESIAN_POINT('',(0.,-9.92270989578189,11.1));
#1939=CARTESIAN_POINT('',(0.434303099764453,3.47294987259174,11.1));
#1940=CARTESIAN_POINT('',(0.434303099774688,3.47294987259046,11.1));
#1941=CARTESIAN_POINT('',(0.,0.,11.1));
#1942=CARTESIAN_POINT('',(2.99740169798883,1.80709243285829,11.1));
#1943=CARTESIAN_POINT('',(5.4147718221513,3.264491773654,11.1));
#1944=CARTESIAN_POINT('',(0.,0.,0.));
#1945=CARTESIAN_POINT('',(0.,0.,0.));
#1946=CARTESIAN_POINT('',(-6.3227098957819,0.,0.));
#1947=CARTESIAN_POINT('',(0.,0.,9.3));
#1948=CARTESIAN_POINT('',(5.65597028965239,2.82606802975225,9.3));
#1949=CARTESIAN_POINT('',(5.53451871750531,-3.05708406685222,9.3));
#1950=CARTESIAN_POINT('',(5.65597028965239,2.82606802975225,21.89));
#1951=CARTESIAN_POINT('',(5.65597028965239,2.82606802975225,5.5));
#1952=CARTESIAN_POINT('',(0.,0.,5.5));
#1953=CARTESIAN_POINT('',(5.4147718221513,3.264491773654,5.5));
#1954=CARTESIAN_POINT('',(5.4147718221513,3.264491773654,21.89));
#1955=CARTESIAN_POINT('',(5.4147718221513,3.264491773654,9.3));
#1956=CARTESIAN_POINT('',(0.,0.,9.3));
#1957=CARTESIAN_POINT('',(0.380538438281172,6.31124796876251,9.3));
#1958=CARTESIAN_POINT('',(0.380538438281172,6.3112479687625,21.89));
#1959=CARTESIAN_POINT('',(0.380538438281172,6.31124796876251,5.5));
#1960=CARTESIAN_POINT('',(0.,0.,5.5));
#1961=CARTESIAN_POINT('',(-0.119746895354032,6.32157584050618,5.5));
#1962=CARTESIAN_POINT('',(-0.119746895354014,6.32157584050618,21.89));
#1963=CARTESIAN_POINT('',(-0.119746895354014,6.32157584050618,9.3));
#1964=CARTESIAN_POINT('',(0.,0.,9.3));
#1965=CARTESIAN_POINT('',(-5.27543185139068,3.48517993904921,9.3));
#1966=CARTESIAN_POINT('',(-5.27543185139067,3.48517993904921,21.89));
#1967=CARTESIAN_POINT('',(-5.27543185139068,3.48517993904921,5.5));
#1968=CARTESIAN_POINT('',(0.,0.,5.5));
#1969=CARTESIAN_POINT('',(-5.53451871750533,3.05708406685219,5.5));
#1970=CARTESIAN_POINT('',(-5.53451871750532,3.0570840668522,21.89));
#1971=CARTESIAN_POINT('',(-5.53451871750532,3.0570840668522,9.3));
#1972=CARTESIAN_POINT('',(0.,0.,9.3));
#1973=CARTESIAN_POINT('',(-5.65597028967186,-2.82606802971329,9.3));
#1974=CARTESIAN_POINT('',(-5.65597028967185,-2.82606802971329,21.89));
#1975=CARTESIAN_POINT('',(-5.65597028967186,-2.82606802971329,5.5));
#1976=CARTESIAN_POINT('',(0.,0.,5.5));
#1977=CARTESIAN_POINT('',(-5.41477182215131,-3.26449177365399,5.5));
#1978=CARTESIAN_POINT('',(-5.41477182215131,-3.26449177365397,21.89));
#1979=CARTESIAN_POINT('',(-5.41477182215131,-3.26449177365397,9.3));
#1980=CARTESIAN_POINT('',(0.,0.,9.3));
#1981=CARTESIAN_POINT('',(-0.380538438281187,-6.31124796876251,9.3));
#1982=CARTESIAN_POINT('',(-0.380538438281186,-6.3112479687625,21.89));
#1983=CARTESIAN_POINT('',(-0.380538438281187,-6.3112479687625,5.5));
#1984=CARTESIAN_POINT('',(0.,0.,5.5));
#1985=CARTESIAN_POINT('',(0.119746895354017,-6.32157584050618,5.5));
#1986=CARTESIAN_POINT('',(0.119746895354,-6.32157584050618,21.89));
#1987=CARTESIAN_POINT('',(0.119746895354,-6.32157584050618,9.3));
#1988=CARTESIAN_POINT('',(0.,0.,9.3));
#1989=CARTESIAN_POINT('',(5.27543185139067,-3.48517993904922,9.3));
#1990=CARTESIAN_POINT('',(5.27543185139066,-3.48517993904922,21.89));
#1991=CARTESIAN_POINT('',(5.27543185139067,-3.48517993904922,5.5));
#1992=CARTESIAN_POINT('',(0.,0.,5.5));
#1993=CARTESIAN_POINT('',(5.53451871750532,-3.0570840668522,5.5));
#1994=CARTESIAN_POINT('',(5.53451871750531,-3.05708406685222,21.89));
#1995=CARTESIAN_POINT('',(0.,0.,9.3));
#1996=CARTESIAN_POINT('',(2.99740169799233,1.80709243285249,9.3));
#1997=CARTESIAN_POINT('',(2.99740169798183,1.8070924328699,9.3));
#1998=CARTESIAN_POINT('',(0.,0.,9.3));
#1999=CARTESIAN_POINT('',(0.434303099774688,3.47294987259046,9.3));
#2000=CARTESIAN_POINT('',(0.434303099764453,3.47294987259174,9.3));
#2001=CARTESIAN_POINT('',(0.,0.,9.3));
#2002=CARTESIAN_POINT('',(-0.119746895354032,6.32157584050618,9.3));
#2003=CARTESIAN_POINT('',(-0.0662871048474874,3.49937223223408,9.3));
#2004=CARTESIAN_POINT('',(0.,0.,9.3));
#2005=CARTESIAN_POINT('',(-2.79051126584592,2.11259245364244,9.3));
#2006=CARTESIAN_POINT('',(-2.79051126585215,2.11259245363422,9.3));
#2007=CARTESIAN_POINT('',(0.,0.,9.3));
#2008=CARTESIAN_POINT('',(-5.53451871750533,3.05708406685219,9.3));
#2009=CARTESIAN_POINT('',(-3.06368880283632,1.6922797993758,9.3));
#2010=CARTESIAN_POINT('',(0.,0.,9.3));
#2011=CARTESIAN_POINT('',(-3.22481436562061,-1.36035741894802,9.3));
#2012=CARTESIAN_POINT('',(-3.2248143656166,-1.36035741895752,9.3));
#2013=CARTESIAN_POINT('',(0.,0.,9.3));
#2014=CARTESIAN_POINT('',(-5.4147718221513,-3.26449177365399,9.3));
#2015=CARTESIAN_POINT('',(-2.99740169798883,-1.80709243285828,9.3));
#2016=CARTESIAN_POINT('',(0.,0.,9.3));
#2017=CARTESIAN_POINT('',(-0.434303099774696,-3.47294987259046,9.3));
#2018=CARTESIAN_POINT('',(-0.434303099764461,-3.47294987259174,9.3));
#2019=CARTESIAN_POINT('',(0.,0.,9.3));
#2020=CARTESIAN_POINT('',(0.119746895354017,-6.32157584050618,9.3));
#2021=CARTESIAN_POINT('',(0.0662871048474792,-3.49937223223408,9.3));
#2022=CARTESIAN_POINT('',(0.,0.,9.3));
#2023=CARTESIAN_POINT('',(2.79051126584592,-2.11259245364245,9.3));
#2024=CARTESIAN_POINT('',(2.79051126585214,-2.11259245363422,9.3));
#2025=CARTESIAN_POINT('',(0.,0.,8.10733441961558));
#2026=CARTESIAN_POINT('',(0.,0.,20.4));
#2027=CARTESIAN_POINT('',(-9.9227098957819,0.,20.4));
#2028=CARTESIAN_POINT('',(0.,0.,10.2012039471057));
#2029=CARTESIAN_POINT('',(-13.140138468551,0.,10.2012039471057));
#2030=CARTESIAN_POINT('',(0.,-9.92270989578189,20.4));
#2031=CARTESIAN_POINT('',(6.08512845330496,-1.71693684595466,20.4));
#2032=CARTESIAN_POINT('',(7.95202905125768,-1.68434997480287,20.4));
#2033=CARTESIAN_POINT('',(7.87268598283825,1.43231843412105,20.4));
#2034=CARTESIAN_POINT('',(7.97302947028768,1.43056693203249,20.4));
#2035=CARTESIAN_POINT('',(7.95732230449413,0.530704006391742,20.4));
#2036=CARTESIAN_POINT('',(8.85532715611089,0.590597966684497,20.4));
#2037=CARTESIAN_POINT('',(0.,0.,20.4));
#2038=CARTESIAN_POINT('',(8.83195660284594,-0.873022087612352,20.4));
#2039=CARTESIAN_POINT('',(7.93632188546413,-0.784487049162118,20.4));
#2040=CARTESIAN_POINT('',(0.,-6.3227098957819,0.));
#2041=CARTESIAN_POINT('',(0.,0.,0.));
#2042=CARTESIAN_POINT('',(-10.0287051699513,0.,0.));
#2043=CARTESIAN_POINT('',(0.,0.,12.0768268943735));
#2044=CARTESIAN_POINT('',(0.,0.,9.3));
#2045=CARTESIAN_POINT('',(5.65597028967185,2.8260680297133,9.3));
#2046=CARTESIAN_POINT('',(3.22481436562854,1.36035741892923,9.3));
#2047=CARTESIAN_POINT('',(5.53451871750532,-3.0570840668522,9.3));
#2048=CARTESIAN_POINT('',(3.06368880283631,-1.6922797993758,9.3));
#2049=CARTESIAN_POINT('',(0.,0.,9.3));
#2050=CARTESIAN_POINT('',(0.,-9.92270989578189,11.1));
#2051=CARTESIAN_POINT('',(5.53451871750532,-3.0570840668522,11.1));
#2052=CARTESIAN_POINT('',(3.06368880283631,-1.69227979937581,11.1));
#2053=CARTESIAN_POINT('',(6.08512845330496,-1.71693684595466,11.1));
#2054=CARTESIAN_POINT('',(7.95202905125768,-1.68434997480287,11.1));
#2055=CARTESIAN_POINT('',(7.93632188546413,-0.784487049162118,11.1));
#2056=CARTESIAN_POINT('',(8.83195660284594,-0.873022087612352,11.1));
#2057=CARTESIAN_POINT('',(0.,0.,11.1));
#2058=CARTESIAN_POINT('',(8.85532715611671,0.590597966597148,11.1));
#2059=CARTESIAN_POINT('',(7.95732230449413,0.530704006391742,11.1));
#2060=CARTESIAN_POINT('',(7.97302947028768,1.43056693203249,11.1));
#2061=CARTESIAN_POINT('',(7.87268598283825,1.43231843412105,11.1));
#2062=CARTESIAN_POINT('',(3.2248143656166,1.36035741895753,11.1));
#2063=CARTESIAN_POINT('',(3.22481436562061,1.36035741894803,11.1));
#2064=CARTESIAN_POINT('',(0.,0.,11.1));
#2065=CARTESIAN_POINT('',(6.08512845330496,-1.71693684595466,11.1));
#2066=CARTESIAN_POINT('',(7.95202905125768,-1.68434997480287,11.1));
#2067=CARTESIAN_POINT('',(7.93632188546413,-0.784487049162118,11.1));
#2068=CARTESIAN_POINT('',(8.83195695717795,-0.873018502986056,15.75));
#2069=CARTESIAN_POINT('',(0.,0.,11.1));
#2070=CARTESIAN_POINT('',(8.85532732945271,0.590595367614634,15.75));
#2071=CARTESIAN_POINT('',(7.95732230449413,0.530704006391742,11.1));
#2072=CARTESIAN_POINT('',(7.97302947028768,1.43056693203249,11.1));
#2073=CARTESIAN_POINT('',(7.87268598283825,1.43231843412105,11.1));
#2074=CARTESIAN_POINT('',(0.,0.,8.4));
#2075=CARTESIAN_POINT('',(0.,0.,-1.25));
#2076=CARTESIAN_POINT('',(-3.5,0.,-1.25));
#2077=CARTESIAN_POINT('',(3.06368880283631,-1.6922797993758,21.89));
#2078=CARTESIAN_POINT('',(3.06368880283631,-1.6922797993758,5.5));
#2079=CARTESIAN_POINT('',(0.,0.,5.5));
#2080=CARTESIAN_POINT('',(2.79051126584592,-2.11259245364245,5.5));
#2081=CARTESIAN_POINT('',(2.79051126584592,-2.11259245364245,21.89));
#2082=CARTESIAN_POINT('',(0.0662871048474792,-3.49937223223408,21.89));
#2083=CARTESIAN_POINT('',(0.0662871048474792,-3.49937223223408,5.5));
#2084=CARTESIAN_POINT('',(0.,0.,5.5));
#2085=CARTESIAN_POINT('',(-0.434303099774696,-3.47294987259046,5.5));
#2086=CARTESIAN_POINT('',(-0.434303099774696,-3.47294987259046,21.89));
#2087=CARTESIAN_POINT('',(-2.99740169798883,-1.80709243285828,21.89));
#2088=CARTESIAN_POINT('',(-2.99740169798883,-1.80709243285828,5.5));
#2089=CARTESIAN_POINT('',(0.,0.,5.5));
#2090=CARTESIAN_POINT('',(-3.22481436562061,-1.36035741894802,5.5));
#2091=CARTESIAN_POINT('',(-3.22481436562061,-1.36035741894802,21.89));
#2092=CARTESIAN_POINT('',(-3.06368880283632,1.6922797993758,21.89));
#2093=CARTESIAN_POINT('',(-3.06368880283632,1.6922797993758,5.5));
#2094=CARTESIAN_POINT('',(0.,0.,5.5));
#2095=CARTESIAN_POINT('',(-2.79051126584592,2.11259245364244,5.5));
#2096=CARTESIAN_POINT('',(-2.79051126584592,2.11259245364244,21.89));
#2097=CARTESIAN_POINT('',(-0.0662871048474874,3.49937223223408,21.89));
#2098=CARTESIAN_POINT('',(-0.0662871048474874,3.49937223223408,5.5));
#2099=CARTESIAN_POINT('',(0.,0.,5.5));
#2100=CARTESIAN_POINT('',(0.434303099774688,3.47294987259046,5.5));
#2101=CARTESIAN_POINT('',(0.434303099774688,3.47294987259046,21.89));
#2102=CARTESIAN_POINT('',(2.99740169798183,1.8070924328699,21.89));
#2103=CARTESIAN_POINT('',(2.99740169798183,1.8070924328699,5.5));
#2104=CARTESIAN_POINT('',(0.,0.,5.5));
#2105=CARTESIAN_POINT('',(3.22481436562854,1.36035741892923,5.5));
#2106=CARTESIAN_POINT('',(3.22481436562854,1.36035741892923,21.89));
#2107=CARTESIAN_POINT('',(0.,0.,8.4));
#2108=CARTESIAN_POINT('',(0.,0.,-1.25));
#2109=CARTESIAN_POINT('',(-2.4,0.,-1.25));
#2110=CARTESIAN_POINT('',(0.,0.,21.65));
#2111=CARTESIAN_POINT('',(2.4,0.,21.65));
#2112=CARTESIAN_POINT('',(0.,-6.3227098957819,-1.25));
#2113=CARTESIAN_POINT('',(0.,0.,5.5));
#2114=CARTESIAN_POINT('',(2.99740169799233,1.80709243285249,5.5));
#2115=CARTESIAN_POINT('',(5.65597028967185,2.8260680297133,5.5));
#2116=CARTESIAN_POINT('',(2.99740169799233,1.80709243285249,21.89));
#2117=CARTESIAN_POINT('',(5.65597028967185,2.8260680297133,21.89));
#2118=CARTESIAN_POINT('',(-0.119746895354032,6.32157584050618,21.89));
#2119=CARTESIAN_POINT('',(-0.119746895354032,6.32157584050618,5.5));
#2120=CARTESIAN_POINT('',(0.434303099764453,3.47294987259174,21.89));
#2121=CARTESIAN_POINT('',(0.434303099764453,3.47294987259174,5.5));
#2122=CARTESIAN_POINT('',(0.,0.,5.5));
#2123=CARTESIAN_POINT('',(-5.53451871750533,3.05708406685219,21.89));
#2124=CARTESIAN_POINT('',(-5.53451871750533,3.05708406685219,5.5));
#2125=CARTESIAN_POINT('',(-2.79051126585215,2.11259245363422,21.89));
#2126=CARTESIAN_POINT('',(-2.79051126585215,2.11259245363422,5.5));
#2127=CARTESIAN_POINT('',(0.,0.,5.5));
#2128=CARTESIAN_POINT('',(-5.4147718221513,-3.26449177365399,21.89));
#2129=CARTESIAN_POINT('',(-5.4147718221513,-3.26449177365399,5.5));
#2130=CARTESIAN_POINT('',(-3.2248143656166,-1.36035741895752,21.89));
#2131=CARTESIAN_POINT('',(-3.2248143656166,-1.36035741895752,5.5));
#2132=CARTESIAN_POINT('',(0.,0.,5.5));
#2133=CARTESIAN_POINT('',(0.119746895354017,-6.32157584050618,21.89));
#2134=CARTESIAN_POINT('',(0.119746895354017,-6.32157584050618,5.5));
#2135=CARTESIAN_POINT('',(-0.434303099764461,-3.47294987259174,21.89));
#2136=CARTESIAN_POINT('',(-0.434303099764461,-3.47294987259174,5.5));
#2137=CARTESIAN_POINT('',(0.,0.,5.5));
#2138=CARTESIAN_POINT('',(5.53451871750532,-3.0570840668522,21.89));
#2139=CARTESIAN_POINT('',(5.53451871750532,-3.0570840668522,5.5));
#2140=CARTESIAN_POINT('',(2.79051126585214,-2.11259245363422,21.89));
#2141=CARTESIAN_POINT('',(2.79051126585214,-2.11259245363422,5.5));
#2142=CARTESIAN_POINT('',(0.,0.,5.5));
#2143=CARTESIAN_POINT('',(0.,0.,21.5));
#2144=CARTESIAN_POINT('',(-0.434303099774696,-3.47294987259046,-1.48999999999999));
#2145=CARTESIAN_POINT('',(-0.434303099774696,-3.47294987259046,14.9));
#2146=CARTESIAN_POINT('',(0.,0.,14.9));
#2147=CARTESIAN_POINT('',(0.0662871048474792,-3.49937223223408,14.9));
#2148=CARTESIAN_POINT('',(0.0662871048474792,-3.49937223223408,-1.48999999999999));
#2149=CARTESIAN_POINT('',(2.79051126584592,-2.11259245364245,-1.48999999999999));
#2150=CARTESIAN_POINT('',(2.79051126584592,-2.11259245364245,14.9));
#2151=CARTESIAN_POINT('',(0.,0.,14.9));
#2152=CARTESIAN_POINT('',(3.06368880283631,-1.6922797993758,14.9));
#2153=CARTESIAN_POINT('',(3.06368880283631,-1.6922797993758,-1.48999999999999));
#2154=CARTESIAN_POINT('',(3.22481436562061,1.36035741894803,-1.49));
#2155=CARTESIAN_POINT('',(3.22481436562061,1.36035741894803,14.9));
#2156=CARTESIAN_POINT('',(0.,0.,14.9));
#2157=CARTESIAN_POINT('',(2.99740169798883,1.80709243285829,14.9));
#2158=CARTESIAN_POINT('',(2.99740169798883,1.80709243285829,-1.49));
#2159=CARTESIAN_POINT('',(0.434303099774688,3.47294987259046,-1.48999999999999));
#2160=CARTESIAN_POINT('',(0.434303099774688,3.47294987259046,14.9));
#2161=CARTESIAN_POINT('',(0.,0.,14.9));
#2162=CARTESIAN_POINT('',(-0.0662871048474874,3.49937223223408,14.9));
#2163=CARTESIAN_POINT('',(-0.0662871048474874,3.49937223223408,-1.48999999999999));
#2164=CARTESIAN_POINT('',(-2.79051126584592,2.11259245364244,-1.49));
#2165=CARTESIAN_POINT('',(-2.79051126584592,2.11259245364244,14.9));
#2166=CARTESIAN_POINT('',(0.,0.,14.9));
#2167=CARTESIAN_POINT('',(-3.06368880283632,1.6922797993758,14.9));
#2168=CARTESIAN_POINT('',(-3.06368880283632,1.6922797993758,-1.49));
#2169=CARTESIAN_POINT('',(-3.22481436562061,-1.36035741894802,-1.48999999999999));
#2170=CARTESIAN_POINT('',(-3.22481436562061,-1.36035741894802,14.9));
#2171=CARTESIAN_POINT('',(0.,0.,14.9));
#2172=CARTESIAN_POINT('',(-2.99740169798883,-1.80709243285828,14.9));
#2173=CARTESIAN_POINT('',(-2.99740169798883,-1.80709243285828,-1.48999999999999));
#2174=CARTESIAN_POINT('',(0.,0.,21.65));
#2175=CARTESIAN_POINT('',(3.5,0.,21.65));
#2176=CARTESIAN_POINT('',(0.,-9.92270989578189,21.65));
#2177=CARTESIAN_POINT('',(0.,0.,14.9));
#2178=CARTESIAN_POINT('',(3.2248143656166,1.36035741895753,14.9));
#2179=CARTESIAN_POINT('',(5.4147718221513,3.264491773654,14.9));
#2180=CARTESIAN_POINT('',(3.2248143656166,1.36035741895753,-1.49));
#2181=CARTESIAN_POINT('',(5.4147718221513,3.264491773654,-1.49));
#2182=CARTESIAN_POINT('',(5.53451871750532,-3.0570840668522,-1.48999999999999));
#2183=CARTESIAN_POINT('',(5.53451871750532,-3.0570840668522,14.9));
#2184=CARTESIAN_POINT('',(2.79051126585214,-2.11259245363422,-1.48999999999999));
#2185=CARTESIAN_POINT('',(2.79051126585214,-2.11259245363422,14.9));
#2186=CARTESIAN_POINT('',(0.,0.,14.9));
#2187=CARTESIAN_POINT('',(-0.119746895354032,6.32157584050618,-1.48999999999999));
#2188=CARTESIAN_POINT('',(-0.119746895354032,6.32157584050618,14.9));
#2189=CARTESIAN_POINT('',(0.434303099764453,3.47294987259174,-1.48999999999999));
#2190=CARTESIAN_POINT('',(0.434303099764453,3.47294987259174,14.9));
#2191=CARTESIAN_POINT('',(0.,0.,14.9));
#2192=CARTESIAN_POINT('',(-5.53451871750533,3.05708406685219,-1.49));
#2193=CARTESIAN_POINT('',(-5.53451871750533,3.05708406685219,14.9));
#2194=CARTESIAN_POINT('',(-2.79051126585215,2.11259245363422,-1.49));
#2195=CARTESIAN_POINT('',(-2.79051126585215,2.11259245363422,14.9));
#2196=CARTESIAN_POINT('',(0.,0.,14.9));
#2197=CARTESIAN_POINT('',(-5.4147718221513,-3.26449177365399,-1.48999999999999));
#2198=CARTESIAN_POINT('',(-5.4147718221513,-3.26449177365399,14.9));
#2199=CARTESIAN_POINT('',(-3.2248143656166,-1.36035741895752,-1.48999999999999));
#2200=CARTESIAN_POINT('',(-3.2248143656166,-1.36035741895752,14.9));
#2201=CARTESIAN_POINT('',(0.,0.,14.9));
#2202=CARTESIAN_POINT('',(0.119746895354017,-6.32157584050618,-1.48999999999999));
#2203=CARTESIAN_POINT('',(0.119746895354017,-6.32157584050618,14.9));
#2204=CARTESIAN_POINT('',(-0.434303099764461,-3.47294987259174,-1.48999999999999));
#2205=CARTESIAN_POINT('',(-0.434303099764461,-3.47294987259174,14.9));
#2206=CARTESIAN_POINT('',(0.,0.,14.9));
#2207=MECHANICAL_DESIGN_GEOMETRIC_PRESENTATION_REPRESENTATION('',(#1280,
#1281),#2208);
#2208=(
GEOMETRIC_REPRESENTATION_CONTEXT(3)
GLOBAL_UNCERTAINTY_ASSIGNED_CONTEXT((#2209))
GLOBAL_UNIT_ASSIGNED_CONTEXT((#2212,#2211,#2210))
REPRESENTATION_CONTEXT('M03','TOP_LEVEL_ASSEMBLY_PART')
);
#2209=UNCERTAINTY_MEASURE_WITH_UNIT(LENGTH_MEASURE(0.005),#2212,
'DISTANCE_ACCURACY_VALUE','Maximum Tolerance applied to model');
#2210=(
NAMED_UNIT(*)
SI_UNIT($,.STERADIAN.)
SOLID_ANGLE_UNIT()
);
#2211=(
NAMED_UNIT(*)
PLANE_ANGLE_UNIT()
SI_UNIT($,.RADIAN.)
);
#2212=(
LENGTH_UNIT()
NAMED_UNIT(*)
SI_UNIT(.MILLI.,.METRE.)
);
#2213=PRODUCT_DEFINITION_SHAPE('','',#2214);
#2214=PRODUCT_DEFINITION('','',#2216,#2215);
#2215=PRODUCT_DEFINITION_CONTEXT('',#2222,'design');
#2216=PRODUCT_DEFINITION_FORMATION_WITH_SPECIFIED_SOURCE('','',#2218,
 .NOT_KNOWN.);
#2217=PRODUCT_RELATED_PRODUCT_CATEGORY('','',(#2218));
#2218=PRODUCT('M03','M03','M03',(#2220));
#2219=PRODUCT_CATEGORY('','');
#2220=PRODUCT_CONTEXT('',#2222,'mechanical');
#2221=APPLICATION_PROTOCOL_DEFINITION('international standard',
'ap242_managed_model_based_3d_engineering',2020,#2222);
#2222=APPLICATION_CONTEXT('managed model based 3d engineering');
ENDSEC;
END-ISO-10303-21;
