ISO-10303-21;
HEADER;
/* Generated by software containing ST-Developer
 * from STEP Tools, Inc. (www.steptools.com) 
 */
/* OPTION: using custom renumber hook */

FILE_DESCRIPTION(
/* description */ (
'CAx-IF Rec.Pracs.---Representation and Presentation of Product Manufa
cturing Information (PMI)---4.0---2014-10-13',
'CAx-IF Rec.Pracs.---3D Tessellated Geometry---0.4---2014-09-14','2;1'),

/* implementation_level */ '2;1');

FILE_NAME(
/* name */ 'M05-02',
/* time_stamp */ '2026-04-13T01:14:54+03:00',
/* author */ (''),
/* organization */ (''),
/* preprocessor_version */ 'ST-DEVELOPER v18.102',
/* originating_system */ 'SIEMENS PLM Software NX2206.9140',
/* authorisation */ $);

FILE_SCHEMA (('AP242_MANAGED_MODEL_BASED_3D_ENGINEERING_MIM_LF { 1 0 10303 442 3 1 4 }'));
ENDSEC;

DATA;
#10=SHAPE_REPRESENTATION_RELATIONSHIP('','',#410,#11);
#11=ADVANCED_BREP_SHAPE_REPRESENTATION('',(#408),#671);
#12=TOROIDAL_SURFACE('',#428,3.8,1.);
#13=LINE('',#569,#49);
#14=LINE('',#572,#50);
#15=LINE('',#574,#51);
#16=LINE('',#576,#52);
#17=LINE('',#577,#53);
#18=LINE('',#580,#54);
#19=LINE('',#582,#55);
#20=LINE('',#584,#56);
#21=LINE('',#613,#57);
#22=LINE('',#616,#58);
#23=LINE('',#618,#59);
#24=LINE('',#619,#60);
#25=LINE('',#621,#61);
#26=LINE('',#623,#62);
#27=LINE('',#626,#63);
#28=LINE('',#627,#64);
#29=LINE('',#629,#65);
#30=LINE('',#631,#66);
#31=LINE('',#632,#67);
#32=LINE('',#634,#68);
#33=LINE('',#636,#69);
#34=LINE('',#638,#70);
#35=LINE('',#640,#71);
#36=LINE('',#643,#72);
#37=LINE('',#645,#73);
#38=LINE('',#646,#74);
#39=LINE('',#648,#75);
#40=LINE('',#650,#76);
#41=LINE('',#653,#77);
#42=LINE('',#654,#78);
#43=LINE('',#656,#79);
#44=LINE('',#658,#80);
#45=LINE('',#659,#81);
#46=LINE('',#661,#82);
#47=LINE('',#663,#83);
#48=LINE('',#665,#84);
#49=VECTOR('',#461,1000.);
#50=VECTOR('',#462,1000.);
#51=VECTOR('',#463,1000.);
#52=VECTOR('',#464,1000.);
#53=VECTOR('',#465,1000.);
#54=VECTOR('',#466,1000.);
#55=VECTOR('',#467,1000.);
#56=VECTOR('',#468,1000.);
#57=VECTOR('',#507,1000.);
#58=VECTOR('',#508,1000.);
#59=VECTOR('',#509,1000.);
#60=VECTOR('',#510,1000.);
#61=VECTOR('',#511,1000.);
#62=VECTOR('',#514,1000.);
#63=VECTOR('',#515,1000.);
#64=VECTOR('',#516,1000.);
#65=VECTOR('',#519,1000.);
#66=VECTOR('',#520,1000.);
#67=VECTOR('',#521,1000.);
#68=VECTOR('',#522,1000.);
#69=VECTOR('',#525,1000.);
#70=VECTOR('',#528,1000.);
#71=VECTOR('',#531,1000.);
#72=VECTOR('',#532,1000.);
#73=VECTOR('',#533,1000.);
#74=VECTOR('',#534,1000.);
#75=VECTOR('',#535,1000.);
#76=VECTOR('',#538,1000.);
#77=VECTOR('',#539,1000.);
#78=VECTOR('',#540,1000.);
#79=VECTOR('',#543,1000.);
#80=VECTOR('',#544,1000.);
#81=VECTOR('',#545,1000.);
#82=VECTOR('',#546,1000.);
#83=VECTOR('',#549,1000.);
#84=VECTOR('',#552,1000.);
#85=CYLINDRICAL_SURFACE('',#414,3.2);
#86=CYLINDRICAL_SURFACE('',#422,13.75);
#87=CYLINDRICAL_SURFACE('',#426,4.8);
#88=CYLINDRICAL_SURFACE('',#431,1.15);
#89=CYLINDRICAL_SURFACE('',#434,4.9);
#90=ORIENTED_EDGE('',*,*,#184,.F.);
#91=ORIENTED_EDGE('',*,*,#185,.F.);
#92=ORIENTED_EDGE('',*,*,#184,.T.);
#93=ORIENTED_EDGE('',*,*,#186,.F.);
#94=ORIENTED_EDGE('',*,*,#187,.F.);
#95=ORIENTED_EDGE('',*,*,#188,.T.);
#96=ORIENTED_EDGE('',*,*,#189,.T.);
#97=ORIENTED_EDGE('',*,*,#190,.F.);
#98=ORIENTED_EDGE('',*,*,#191,.T.);
#99=ORIENTED_EDGE('',*,*,#192,.T.);
#100=ORIENTED_EDGE('',*,*,#193,.F.);
#101=ORIENTED_EDGE('',*,*,#194,.F.);
#102=ORIENTED_EDGE('',*,*,#195,.F.);
#103=ORIENTED_EDGE('',*,*,#196,.F.);
#104=ORIENTED_EDGE('',*,*,#197,.F.);
#105=ORIENTED_EDGE('',*,*,#195,.T.);
#106=ORIENTED_EDGE('',*,*,#197,.T.);
#107=ORIENTED_EDGE('',*,*,#198,.F.);
#108=ORIENTED_EDGE('',*,*,#199,.T.);
#109=ORIENTED_EDGE('',*,*,#200,.T.);
#110=ORIENTED_EDGE('',*,*,#194,.T.);
#111=ORIENTED_EDGE('',*,*,#199,.F.);
#112=ORIENTED_EDGE('',*,*,#200,.F.);
#113=ORIENTED_EDGE('',*,*,#201,.F.);
#114=ORIENTED_EDGE('',*,*,#201,.T.);
#115=ORIENTED_EDGE('',*,*,#198,.T.);
#116=ORIENTED_EDGE('',*,*,#185,.T.);
#117=ORIENTED_EDGE('',*,*,#202,.F.);
#118=ORIENTED_EDGE('',*,*,#202,.T.);
#119=ORIENTED_EDGE('',*,*,#196,.T.);
#120=ORIENTED_EDGE('',*,*,#203,.F.);
#121=ORIENTED_EDGE('',*,*,#204,.T.);
#122=ORIENTED_EDGE('',*,*,#205,.F.);
#123=ORIENTED_EDGE('',*,*,#193,.T.);
#124=ORIENTED_EDGE('',*,*,#206,.T.);
#125=ORIENTED_EDGE('',*,*,#207,.T.);
#126=ORIENTED_EDGE('',*,*,#208,.F.);
#127=ORIENTED_EDGE('',*,*,#209,.T.);
#128=ORIENTED_EDGE('',*,*,#203,.T.);
#129=ORIENTED_EDGE('',*,*,#210,.T.);
#130=ORIENTED_EDGE('',*,*,#211,.F.);
#131=ORIENTED_EDGE('',*,*,#212,.T.);
#132=ORIENTED_EDGE('',*,*,#208,.T.);
#133=ORIENTED_EDGE('',*,*,#213,.T.);
#134=ORIENTED_EDGE('',*,*,#214,.T.);
#135=ORIENTED_EDGE('',*,*,#191,.F.);
#136=ORIENTED_EDGE('',*,*,#205,.T.);
#137=ORIENTED_EDGE('',*,*,#215,.T.);
#138=ORIENTED_EDGE('',*,*,#211,.T.);
#139=ORIENTED_EDGE('',*,*,#190,.T.);
#140=ORIENTED_EDGE('',*,*,#214,.F.);
#141=ORIENTED_EDGE('',*,*,#216,.T.);
#142=ORIENTED_EDGE('',*,*,#206,.F.);
#143=ORIENTED_EDGE('',*,*,#192,.F.);
#144=ORIENTED_EDGE('',*,*,#217,.F.);
#145=ORIENTED_EDGE('',*,*,#218,.T.);
#146=ORIENTED_EDGE('',*,*,#219,.F.);
#147=ORIENTED_EDGE('',*,*,#186,.T.);
#148=ORIENTED_EDGE('',*,*,#220,.T.);
#149=ORIENTED_EDGE('',*,*,#221,.T.);
#150=ORIENTED_EDGE('',*,*,#222,.F.);
#151=ORIENTED_EDGE('',*,*,#223,.T.);
#152=ORIENTED_EDGE('',*,*,#217,.T.);
#153=ORIENTED_EDGE('',*,*,#224,.T.);
#154=ORIENTED_EDGE('',*,*,#225,.F.);
#155=ORIENTED_EDGE('',*,*,#226,.T.);
#156=ORIENTED_EDGE('',*,*,#222,.T.);
#157=ORIENTED_EDGE('',*,*,#227,.T.);
#158=ORIENTED_EDGE('',*,*,#228,.T.);
#159=ORIENTED_EDGE('',*,*,#188,.F.);
#160=ORIENTED_EDGE('',*,*,#219,.T.);
#161=ORIENTED_EDGE('',*,*,#229,.T.);
#162=ORIENTED_EDGE('',*,*,#225,.T.);
#163=ORIENTED_EDGE('',*,*,#187,.T.);
#164=ORIENTED_EDGE('',*,*,#228,.F.);
#165=ORIENTED_EDGE('',*,*,#230,.T.);
#166=ORIENTED_EDGE('',*,*,#220,.F.);
#167=ORIENTED_EDGE('',*,*,#189,.F.);
#168=ORIENTED_EDGE('',*,*,#218,.F.);
#169=ORIENTED_EDGE('',*,*,#223,.F.);
#170=ORIENTED_EDGE('',*,*,#226,.F.);
#171=ORIENTED_EDGE('',*,*,#229,.F.);
#172=ORIENTED_EDGE('',*,*,#221,.F.);
#173=ORIENTED_EDGE('',*,*,#230,.F.);
#174=ORIENTED_EDGE('',*,*,#227,.F.);
#175=ORIENTED_EDGE('',*,*,#224,.F.);
#176=ORIENTED_EDGE('',*,*,#204,.F.);
#177=ORIENTED_EDGE('',*,*,#209,.F.);
#178=ORIENTED_EDGE('',*,*,#212,.F.);
#179=ORIENTED_EDGE('',*,*,#215,.F.);
#180=ORIENTED_EDGE('',*,*,#207,.F.);
#181=ORIENTED_EDGE('',*,*,#216,.F.);
#182=ORIENTED_EDGE('',*,*,#213,.F.);
#183=ORIENTED_EDGE('',*,*,#210,.F.);
#184=EDGE_CURVE('',#231,#231,#266,.F.);
#185=EDGE_CURVE('',#232,#232,#267,.F.);
#186=EDGE_CURVE('',#233,#234,#13,.T.);
#187=EDGE_CURVE('',#235,#233,#14,.T.);
#188=EDGE_CURVE('',#235,#236,#15,.T.);
#189=EDGE_CURVE('',#236,#234,#16,.T.);
#190=EDGE_CURVE('',#237,#238,#17,.T.);
#191=EDGE_CURVE('',#237,#239,#18,.T.);
#192=EDGE_CURVE('',#239,#240,#19,.T.);
#193=EDGE_CURVE('',#238,#240,#20,.T.);
#194=EDGE_CURVE('',#241,#241,#268,.T.);
#195=EDGE_CURVE('',#242,#242,#269,.T.);
#196=EDGE_CURVE('',#243,#243,#270,.T.);
#197=EDGE_CURVE('',#244,#244,#271,.T.);
#198=EDGE_CURVE('',#245,#245,#272,.T.);
#199=EDGE_CURVE('',#246,#246,#273,.T.);
#200=EDGE_CURVE('',#247,#247,#274,.F.);
#201=EDGE_CURVE('',#248,#248,#275,.T.);
#202=EDGE_CURVE('',#249,#249,#276,.F.);
#203=EDGE_CURVE('',#250,#251,#21,.T.);
#204=EDGE_CURVE('',#250,#252,#22,.T.);
#205=EDGE_CURVE('',#238,#252,#23,.T.);
#206=EDGE_CURVE('',#240,#253,#24,.T.);
#207=EDGE_CURVE('',#253,#251,#25,.F.);
#208=EDGE_CURVE('',#254,#255,#26,.T.);
#209=EDGE_CURVE('',#254,#250,#27,.T.);
#210=EDGE_CURVE('',#251,#255,#28,.T.);
#211=EDGE_CURVE('',#256,#237,#29,.T.);
#212=EDGE_CURVE('',#256,#254,#30,.T.);
#213=EDGE_CURVE('',#255,#257,#31,.F.);
#214=EDGE_CURVE('',#257,#239,#32,.T.);
#215=EDGE_CURVE('',#252,#256,#33,.T.);
#216=EDGE_CURVE('',#257,#253,#34,.T.);
#217=EDGE_CURVE('',#258,#259,#35,.T.);
#218=EDGE_CURVE('',#258,#260,#36,.T.);
#219=EDGE_CURVE('',#233,#260,#37,.T.);
#220=EDGE_CURVE('',#234,#261,#38,.T.);
#221=EDGE_CURVE('',#261,#259,#39,.F.);
#222=EDGE_CURVE('',#262,#263,#40,.T.);
#223=EDGE_CURVE('',#262,#258,#41,.T.);
#224=EDGE_CURVE('',#259,#263,#42,.T.);
#225=EDGE_CURVE('',#264,#235,#43,.T.);
#226=EDGE_CURVE('',#264,#262,#44,.T.);
#227=EDGE_CURVE('',#263,#265,#45,.F.);
#228=EDGE_CURVE('',#265,#236,#46,.T.);
#229=EDGE_CURVE('',#260,#264,#47,.T.);
#230=EDGE_CURVE('',#265,#261,#48,.T.);
#231=VERTEX_POINT('',#564);
#232=VERTEX_POINT('',#567);
#233=VERTEX_POINT('',#570);
#234=VERTEX_POINT('',#571);
#235=VERTEX_POINT('',#573);
#236=VERTEX_POINT('',#575);
#237=VERTEX_POINT('',#578);
#238=VERTEX_POINT('',#579);
#239=VERTEX_POINT('',#581);
#240=VERTEX_POINT('',#583);
#241=VERTEX_POINT('',#586);
#242=VERTEX_POINT('',#588);
#243=VERTEX_POINT('',#591);
#244=VERTEX_POINT('',#593);
#245=VERTEX_POINT('',#597);
#246=VERTEX_POINT('',#599);
#247=VERTEX_POINT('',#602);
#248=VERTEX_POINT('',#606);
#249=VERTEX_POINT('',#610);
#250=VERTEX_POINT('',#614);
#251=VERTEX_POINT('',#615);
#252=VERTEX_POINT('',#617);
#253=VERTEX_POINT('',#620);
#254=VERTEX_POINT('',#624);
#255=VERTEX_POINT('',#625);
#256=VERTEX_POINT('',#630);
#257=VERTEX_POINT('',#633);
#258=VERTEX_POINT('',#641);
#259=VERTEX_POINT('',#642);
#260=VERTEX_POINT('',#644);
#261=VERTEX_POINT('',#647);
#262=VERTEX_POINT('',#651);
#263=VERTEX_POINT('',#652);
#264=VERTEX_POINT('',#657);
#265=VERTEX_POINT('',#660);
#266=CIRCLE('',#413,3.2);
#267=CIRCLE('',#415,3.2);
#268=CIRCLE('',#417,4.8);
#269=CIRCLE('',#418,13.75);
#270=CIRCLE('',#420,4.9);
#271=CIRCLE('',#421,13.75);
#272=CIRCLE('',#424,1.15);
#273=CIRCLE('',#425,3.8);
#274=CIRCLE('',#427,4.8);
#275=CIRCLE('',#430,1.15);
#276=CIRCLE('',#433,4.9);
#277=EDGE_LOOP('',(#90));
#278=EDGE_LOOP('',(#91));
#279=EDGE_LOOP('',(#92));
#280=EDGE_LOOP('',(#93,#94,#95,#96));
#281=EDGE_LOOP('',(#97,#98,#99,#100));
#282=EDGE_LOOP('',(#101));
#283=EDGE_LOOP('',(#102));
#284=EDGE_LOOP('',(#103));
#285=EDGE_LOOP('',(#104));
#286=EDGE_LOOP('',(#105));
#287=EDGE_LOOP('',(#106));
#288=EDGE_LOOP('',(#107));
#289=EDGE_LOOP('',(#108));
#290=EDGE_LOOP('',(#109));
#291=EDGE_LOOP('',(#110));
#292=EDGE_LOOP('',(#111));
#293=EDGE_LOOP('',(#112));
#294=EDGE_LOOP('',(#113));
#295=EDGE_LOOP('',(#114));
#296=EDGE_LOOP('',(#115));
#297=EDGE_LOOP('',(#116));
#298=EDGE_LOOP('',(#117));
#299=EDGE_LOOP('',(#118));
#300=EDGE_LOOP('',(#119));
#301=EDGE_LOOP('',(#120,#121,#122,#123,#124,#125));
#302=EDGE_LOOP('',(#126,#127,#128,#129));
#303=EDGE_LOOP('',(#130,#131,#132,#133,#134,#135));
#304=EDGE_LOOP('',(#136,#137,#138,#139));
#305=EDGE_LOOP('',(#140,#141,#142,#143));
#306=EDGE_LOOP('',(#144,#145,#146,#147,#148,#149));
#307=EDGE_LOOP('',(#150,#151,#152,#153));
#308=EDGE_LOOP('',(#154,#155,#156,#157,#158,#159));
#309=EDGE_LOOP('',(#160,#161,#162,#163));
#310=EDGE_LOOP('',(#164,#165,#166,#167));
#311=EDGE_LOOP('',(#168,#169,#170,#171));
#312=EDGE_LOOP('',(#172,#173,#174,#175));
#313=EDGE_LOOP('',(#176,#177,#178,#179));
#314=EDGE_LOOP('',(#180,#181,#182,#183));
#315=FACE_BOUND('',#277,.T.);
#316=FACE_BOUND('',#278,.T.);
#317=FACE_BOUND('',#279,.T.);
#318=FACE_BOUND('',#280,.T.);
#319=FACE_BOUND('',#281,.T.);
#320=FACE_BOUND('',#282,.T.);
#321=FACE_BOUND('',#283,.T.);
#322=FACE_BOUND('',#284,.T.);
#323=FACE_BOUND('',#285,.T.);
#324=FACE_BOUND('',#286,.T.);
#325=FACE_BOUND('',#287,.T.);
#326=FACE_BOUND('',#288,.T.);
#327=FACE_BOUND('',#289,.T.);
#328=FACE_BOUND('',#290,.T.);
#329=FACE_BOUND('',#291,.T.);
#330=FACE_BOUND('',#292,.T.);
#331=FACE_BOUND('',#293,.T.);
#332=FACE_BOUND('',#294,.T.);
#333=FACE_BOUND('',#295,.T.);
#334=FACE_BOUND('',#296,.T.);
#335=FACE_BOUND('',#297,.T.);
#336=FACE_BOUND('',#298,.T.);
#337=FACE_BOUND('',#299,.T.);
#338=FACE_BOUND('',#300,.T.);
#339=FACE_BOUND('',#301,.T.);
#340=FACE_BOUND('',#302,.T.);
#341=FACE_BOUND('',#303,.T.);
#342=FACE_BOUND('',#304,.T.);
#343=FACE_BOUND('',#305,.T.);
#344=FACE_BOUND('',#306,.T.);
#345=FACE_BOUND('',#307,.T.);
#346=FACE_BOUND('',#308,.T.);
#347=FACE_BOUND('',#309,.T.);
#348=FACE_BOUND('',#310,.T.);
#349=FACE_BOUND('',#311,.T.);
#350=FACE_BOUND('',#312,.T.);
#351=FACE_BOUND('',#313,.T.);
#352=FACE_BOUND('',#314,.T.);
#353=PLANE('',#412);
#354=PLANE('',#416);
#355=PLANE('',#419);
#356=PLANE('',#423);
#357=PLANE('',#429);
#358=PLANE('',#432);
#359=PLANE('',#435);
#360=PLANE('',#436);
#361=PLANE('',#437);
#362=PLANE('',#438);
#363=PLANE('',#439);
#364=PLANE('',#440);
#365=PLANE('',#441);
#366=PLANE('',#442);
#367=PLANE('',#443);
#368=PLANE('',#444);
#369=PLANE('',#445);
#370=PLANE('',#446);
#371=PLANE('',#447);
#372=PLANE('',#448);
#373=ADVANCED_FACE('',(#315),#353,.T.);
#374=ADVANCED_FACE('',(#316,#317),#85,.T.);
#375=ADVANCED_FACE('',(#318,#319,#320,#321),#354,.T.);
#376=ADVANCED_FACE('',(#322,#323),#355,.T.);
#377=ADVANCED_FACE('',(#324,#325),#86,.T.);
#378=ADVANCED_FACE('',(#326,#327),#356,.T.);
#379=ADVANCED_FACE('',(#328,#329),#87,.T.);
#380=ADVANCED_FACE('',(#330,#331),#12,.T.);
#381=ADVANCED_FACE('',(#332),#357,.T.);
#382=ADVANCED_FACE('',(#333,#334),#88,.T.);
#383=ADVANCED_FACE('',(#335,#336),#358,.T.);
#384=ADVANCED_FACE('',(#337,#338),#89,.T.);
#385=ADVANCED_FACE('',(#339),#359,.F.);
#386=ADVANCED_FACE('',(#340),#360,.F.);
#387=ADVANCED_FACE('',(#341),#361,.F.);
#388=ADVANCED_FACE('',(#342),#362,.T.);
#389=ADVANCED_FACE('',(#343),#363,.F.);
#390=ADVANCED_FACE('',(#344),#364,.F.);
#391=ADVANCED_FACE('',(#345),#365,.F.);
#392=ADVANCED_FACE('',(#346),#366,.F.);
#393=ADVANCED_FACE('',(#347),#367,.T.);
#394=ADVANCED_FACE('',(#348),#368,.F.);
#395=ADVANCED_FACE('',(#349),#369,.T.);
#396=ADVANCED_FACE('',(#350),#370,.F.);
#397=ADVANCED_FACE('',(#351),#371,.T.);
#398=ADVANCED_FACE('',(#352),#372,.F.);
#399=CLOSED_SHELL('',(#373,#374,#375,#376,#377,#378,#379,#380,#381,#382,
#383,#384,#385,#386,#387,#388,#389,#390,#391,#392,#393,#394,#395,#396,#397,
#398));
#400=STYLED_ITEM('',(#401),#408);
#401=PRESENTATION_STYLE_ASSIGNMENT((#402));
#402=SURFACE_STYLE_USAGE(.BOTH.,#403);
#403=SURFACE_SIDE_STYLE('',(#404));
#404=SURFACE_STYLE_FILL_AREA(#405);
#405=FILL_AREA_STYLE('',(#406));
#406=FILL_AREA_STYLE_COLOUR('',#407);
#407=COLOUR_RGB('',0.611764705882353,0.658823529411765,0.670588235294118);
#408=MANIFOLD_SOLID_BREP('Cylinder (56)',#399);
#409=SHAPE_DEFINITION_REPRESENTATION(#676,#410);
#410=SHAPE_REPRESENTATION('M05-02',(#411),#671);
#411=AXIS2_PLACEMENT_3D('',#561,#449,#450);
#412=AXIS2_PLACEMENT_3D('',#562,#451,#452);
#413=AXIS2_PLACEMENT_3D('',#563,#453,#454);
#414=AXIS2_PLACEMENT_3D('',#565,#455,#456);
#415=AXIS2_PLACEMENT_3D('',#566,#457,#458);
#416=AXIS2_PLACEMENT_3D('',#568,#459,#460);
#417=AXIS2_PLACEMENT_3D('',#585,#469,#470);
#418=AXIS2_PLACEMENT_3D('',#587,#471,#472);
#419=AXIS2_PLACEMENT_3D('',#589,#473,#474);
#420=AXIS2_PLACEMENT_3D('',#590,#475,#476);
#421=AXIS2_PLACEMENT_3D('',#592,#477,#478);
#422=AXIS2_PLACEMENT_3D('',#594,#479,#480);
#423=AXIS2_PLACEMENT_3D('',#595,#481,#482);
#424=AXIS2_PLACEMENT_3D('',#596,#483,#484);
#425=AXIS2_PLACEMENT_3D('',#598,#485,#486);
#426=AXIS2_PLACEMENT_3D('',#600,#487,#488);
#427=AXIS2_PLACEMENT_3D('',#601,#489,#490);
#428=AXIS2_PLACEMENT_3D('',#603,#491,#492);
#429=AXIS2_PLACEMENT_3D('',#604,#493,#494);
#430=AXIS2_PLACEMENT_3D('',#605,#495,#496);
#431=AXIS2_PLACEMENT_3D('',#607,#497,#498);
#432=AXIS2_PLACEMENT_3D('',#608,#499,#500);
#433=AXIS2_PLACEMENT_3D('',#609,#501,#502);
#434=AXIS2_PLACEMENT_3D('',#611,#503,#504);
#435=AXIS2_PLACEMENT_3D('',#612,#505,#506);
#436=AXIS2_PLACEMENT_3D('',#622,#512,#513);
#437=AXIS2_PLACEMENT_3D('',#628,#517,#518);
#438=AXIS2_PLACEMENT_3D('',#635,#523,#524);
#439=AXIS2_PLACEMENT_3D('',#637,#526,#527);
#440=AXIS2_PLACEMENT_3D('',#639,#529,#530);
#441=AXIS2_PLACEMENT_3D('',#649,#536,#537);
#442=AXIS2_PLACEMENT_3D('',#655,#541,#542);
#443=AXIS2_PLACEMENT_3D('',#662,#547,#548);
#444=AXIS2_PLACEMENT_3D('',#664,#550,#551);
#445=AXIS2_PLACEMENT_3D('',#666,#553,#554);
#446=AXIS2_PLACEMENT_3D('',#667,#555,#556);
#447=AXIS2_PLACEMENT_3D('',#668,#557,#558);
#448=AXIS2_PLACEMENT_3D('',#669,#559,#560);
#449=DIRECTION('',(0.,0.,1.));
#450=DIRECTION('',(1.,0.,0.));
#451=DIRECTION('',(0.,0.,1.));
#452=DIRECTION('',(1.,0.,0.));
#453=DIRECTION('',(0.,0.,1.));
#454=DIRECTION('',(1.,0.,0.));
#455=DIRECTION('',(0.,0.,1.));
#456=DIRECTION('',(1.,0.,0.));
#457=DIRECTION('',(0.,0.,1.));
#458=DIRECTION('',(1.,0.,0.));
#459=DIRECTION('',(0.,0.,-1.));
#460=DIRECTION('',(-1.,0.,0.));
#461=DIRECTION('',(1.,-2.34291072916505E-15,0.));
#462=DIRECTION('',(2.34291072916505E-15,1.,0.));
#463=DIRECTION('',(1.,-2.34291072916505E-15,0.));
#464=DIRECTION('',(2.34291072916505E-15,1.,0.));
#465=DIRECTION('',(0.,-1.,0.));
#466=DIRECTION('',(-1.,0.,0.));
#467=DIRECTION('',(0.,-1.,0.));
#468=DIRECTION('',(-1.,0.,0.));
#469=DIRECTION('',(0.,0.,-1.));
#470=DIRECTION('',(1.,0.,0.));
#471=DIRECTION('',(0.,0.,1.));
#472=DIRECTION('',(1.,0.,0.));
#473=DIRECTION('',(0.,0.,1.));
#474=DIRECTION('',(1.,0.,0.));
#475=DIRECTION('',(0.,0.,1.));
#476=DIRECTION('',(1.,0.,0.));
#477=DIRECTION('',(0.,0.,-1.));
#478=DIRECTION('',(1.,0.,0.));
#479=DIRECTION('',(0.,0.,-1.));
#480=DIRECTION('',(1.,0.,0.));
#481=DIRECTION('',(0.,0.,-1.));
#482=DIRECTION('',(-1.,0.,0.));
#483=DIRECTION('',(0.,0.,-1.));
#484=DIRECTION('',(-1.,0.,0.));
#485=DIRECTION('',(0.,0.,-1.));
#486=DIRECTION('',(-1.,0.,0.));
#487=DIRECTION('',(0.,0.,-1.));
#488=DIRECTION('',(1.,0.,0.));
#489=DIRECTION('',(0.,0.,-1.));
#490=DIRECTION('',(-1.,0.,0.));
#491=DIRECTION('',(0.,0.,-1.));
#492=DIRECTION('',(-1.,0.,0.));
#493=DIRECTION('',(0.,0.,-1.));
#494=DIRECTION('',(-1.,0.,0.));
#495=DIRECTION('',(0.,0.,1.));
#496=DIRECTION('',(1.,0.,0.));
#497=DIRECTION('',(0.,0.,-1.));
#498=DIRECTION('',(1.,0.,0.));
#499=DIRECTION('',(0.,0.,1.));
#500=DIRECTION('',(1.,0.,0.));
#501=DIRECTION('',(0.,0.,1.));
#502=DIRECTION('',(1.,0.,0.));
#503=DIRECTION('',(0.,0.,1.));
#504=DIRECTION('',(1.,0.,0.));
#505=DIRECTION('',(0.,1.,2.68949376120435E-16));
#506=DIRECTION('',(0.,-2.68949376120435E-16,1.));
#507=DIRECTION('',(-1.,0.,0.));
#508=DIRECTION('',(0.707106781186548,-1.90175927650651E-16,0.707106781186548));
#509=DIRECTION('',(0.,2.68949376120435E-16,-1.));
#510=DIRECTION('',(0.,2.68949376120435E-16,-1.));
#511=DIRECTION('',(-0.707106781186548,-1.90175927650651E-16,0.707106781186548));
#512=DIRECTION('',(0.,0.,1.));
#513=DIRECTION('',(1.,0.,0.));
#514=DIRECTION('',(-1.,0.,0.));
#515=DIRECTION('',(0.,-1.,0.));
#516=DIRECTION('',(0.,1.,0.));
#517=DIRECTION('',(0.,-1.,-2.68949376120435E-16));
#518=DIRECTION('',(0.,2.68949376120435E-16,-1.));
#519=DIRECTION('',(0.,-2.68949376120435E-16,1.));
#520=DIRECTION('',(-0.707106781186548,1.90175927650651E-16,-0.707106781186548));
#521=DIRECTION('',(0.707106781186548,1.90175927650651E-16,-0.707106781186548));
#522=DIRECTION('',(0.,-2.68949376120435E-16,1.));
#523=DIRECTION('',(1.,0.,0.));
#524=DIRECTION('',(0.,0.,-1.));
#525=DIRECTION('',(0.,1.,0.));
#526=DIRECTION('',(1.,0.,0.));
#527=DIRECTION('',(0.,0.,-1.));
#528=DIRECTION('',(0.,-1.,0.));
#529=DIRECTION('',(-2.34291072916505E-15,-1.,2.68949376120435E-16));
#530=DIRECTION('',(6.30124378914813E-31,2.68949376120435E-16,1.));
#531=DIRECTION('',(1.,-2.34291072916505E-15,0.));
#532=DIRECTION('',(-0.707106781186546,1.84686399195797E-15,0.707106781186549));
#533=DIRECTION('',(-6.30124378914813E-31,-2.68949376120435E-16,-1.));
#534=DIRECTION('',(-6.30124378914813E-31,-2.68949376120435E-16,-1.));
#535=DIRECTION('',(0.707106781186549,-1.46651213665668E-15,0.707106781186546));
#536=DIRECTION('',(0.,0.,1.));
#537=DIRECTION('',(-1.,2.34291072916505E-15,0.));
#538=DIRECTION('',(1.,-2.34291072916505E-15,0.));
#539=DIRECTION('',(2.34291072916505E-15,1.,0.));
#540=DIRECTION('',(-2.34291072916505E-15,-1.,0.));
#541=DIRECTION('',(2.34291072916505E-15,1.,-2.68949376120435E-16));
#542=DIRECTION('',(-6.30124378914813E-31,-2.68949376120435E-16,-1.));
#543=DIRECTION('',(6.30124378914813E-31,2.68949376120435E-16,1.));
#544=DIRECTION('',(0.707106781186546,-1.84686399195797E-15,-0.707106781186549));
#545=DIRECTION('',(-0.707106781186549,1.46651213665668E-15,-0.707106781186546));
#546=DIRECTION('',(6.30124378914813E-31,2.68949376120435E-16,1.));
#547=DIRECTION('',(-1.,2.34291072916505E-15,0.));
#548=DIRECTION('',(0.,0.,-1.));
#549=DIRECTION('',(-2.34291072916505E-15,-1.,0.));
#550=DIRECTION('',(-1.,2.34291072916505E-15,0.));
#551=DIRECTION('',(0.,0.,-1.));
#552=DIRECTION('',(2.34291072916505E-15,1.,0.));
#553=DIRECTION('',(-0.707106781186549,1.65668806430733E-15,-0.707106781186546));
#554=DIRECTION('',(2.34291072916505E-15,1.,0.));
#555=DIRECTION('',(-0.707106781186546,1.65668806430732E-15,0.707106781186549));
#556=DIRECTION('',(-2.34291072916505E-15,-1.,0.));
#557=DIRECTION('',(0.707106781186547,0.,-0.707106781186547));
#558=DIRECTION('',(0.,-1.,0.));
#559=DIRECTION('',(0.707106781186547,0.,0.707106781186547));
#560=DIRECTION('',(0.,1.,0.));
#561=CARTESIAN_POINT('',(0.,0.,0.));
#562=CARTESIAN_POINT('',(37.5980688282874,-0.594382039235552,11.));
#563=CARTESIAN_POINT('',(37.5980688282874,-0.594382039235552,11.));
#564=CARTESIAN_POINT('',(40.7980688282874,-0.594382039235552,11.));
#565=CARTESIAN_POINT('',(37.5980688282874,-0.594382039235552,0.));
#566=CARTESIAN_POINT('',(37.5980688282874,-0.594382039235552,2.8));
#567=CARTESIAN_POINT('',(40.7980688282874,-0.594382039235552,2.8));
#568=CARTESIAN_POINT('',(37.5980688282874,-0.594382039235552,-38.));
#569=CARTESIAN_POINT('',(36.3480688282874,-11.777690433528,-38.));
#570=CARTESIAN_POINT('',(36.3480688282874,-11.777690433528,-38.));
#571=CARTESIAN_POINT('',(38.8480688282874,-11.777690433528,-38.));
#572=CARTESIAN_POINT('',(36.3480688282874,-12.3911638427318,-38.));
#573=CARTESIAN_POINT('',(36.3480688282874,-12.3911638427318,-38.));
#574=CARTESIAN_POINT('',(36.3480688282874,-12.3911638427318,-38.));
#575=CARTESIAN_POINT('',(38.8480688282874,-12.3911638427318,-38.));
#576=CARTESIAN_POINT('',(38.8480688282874,-12.3911638427318,-38.));
#577=CARTESIAN_POINT('',(38.8480688282874,11.2023997642607,-38.));
#578=CARTESIAN_POINT('',(38.8480688282874,11.2023997642607,-38.));
#579=CARTESIAN_POINT('',(38.8480688282874,10.5889263550569,-38.));
#580=CARTESIAN_POINT('',(38.8480688282874,11.2023997642607,-38.));
#581=CARTESIAN_POINT('',(36.3480688282874,11.2023997642607,-38.));
#582=CARTESIAN_POINT('',(36.3480688282874,11.2023997642607,-38.));
#583=CARTESIAN_POINT('',(36.3480688282874,10.5889263550569,-38.));
#584=CARTESIAN_POINT('',(38.8480688282874,10.5889263550569,-38.));
#585=CARTESIAN_POINT('',(37.5980688282874,-0.594382039235552,-38.));
#586=CARTESIAN_POINT('',(42.3980688282874,-0.594382039235552,-38.));
#587=CARTESIAN_POINT('',(37.5980688282874,-0.594382039235552,-38.));
#588=CARTESIAN_POINT('',(51.3480688282874,-0.594382039235552,-38.));
#589=CARTESIAN_POINT('',(37.5980688282874,-0.594382039235552,0.));
#590=CARTESIAN_POINT('',(37.5980688282874,-0.594382039235552,0.));
#591=CARTESIAN_POINT('',(42.4980688282874,-0.594382039235552,0.));
#592=CARTESIAN_POINT('',(37.5980688282874,-0.594382039235552,0.));
#593=CARTESIAN_POINT('',(51.3480688282874,-0.594382039235552,0.));
#594=CARTESIAN_POINT('',(37.5980688282874,-0.594382039235552,0.));
#595=CARTESIAN_POINT('',(37.5980688282874,-0.594382039235552,-40.5));
#596=CARTESIAN_POINT('',(37.5980688282874,-0.594382039235552,-40.5));
#597=CARTESIAN_POINT('',(36.4480688282874,-0.594382039235552,-40.5));
#598=CARTESIAN_POINT('',(37.5980688282874,-0.594382039235552,-40.5));
#599=CARTESIAN_POINT('',(33.7980688282874,-0.594382039235552,-40.5));
#600=CARTESIAN_POINT('',(37.5980688282874,-0.594382039235552,-38.));
#601=CARTESIAN_POINT('',(37.5980688282874,-0.594382039235552,-39.5));
#602=CARTESIAN_POINT('',(32.7980688282874,-0.594382039235552,-39.5));
#603=CARTESIAN_POINT('',(37.5980688282874,-0.594382039235552,-39.5));
#604=CARTESIAN_POINT('',(37.5980688282874,-0.594382039235552,-41.9));
#605=CARTESIAN_POINT('',(37.5980688282874,-0.594382039235552,-41.9));
#606=CARTESIAN_POINT('',(38.7480688282874,-0.594382039235552,-41.9));
#607=CARTESIAN_POINT('',(37.5980688282874,-0.594382039235552,-40.5));
#608=CARTESIAN_POINT('',(37.5980688282874,-0.594382039235552,2.8));
#609=CARTESIAN_POINT('',(37.5980688282874,-0.594382039235552,2.8));
#610=CARTESIAN_POINT('',(42.4980688282874,-0.594382039235552,2.8));
#611=CARTESIAN_POINT('',(37.5980688282874,-0.594382039235552,0.));
#612=CARTESIAN_POINT('',(38.8480688282874,10.5889263550569,-38.));
#613=CARTESIAN_POINT('',(38.8480688282874,10.5889263550569,-44.45));
#614=CARTESIAN_POINT('',(38.0480688282874,10.5889263550569,-44.45));
#615=CARTESIAN_POINT('',(37.1480688282874,10.5889263550569,-44.45));
#616=CARTESIAN_POINT('',(38.8480688282874,10.5889263550569,-43.65));
#617=CARTESIAN_POINT('',(38.8480688282874,10.5889263550569,-43.65));
#618=CARTESIAN_POINT('',(38.8480688282874,10.5889263550569,-38.));
#619=CARTESIAN_POINT('',(36.3480688282874,10.5889263550569,-38.));
#620=CARTESIAN_POINT('',(36.3480688282874,10.5889263550569,-43.65));
#621=CARTESIAN_POINT('',(37.1480688282874,10.5889263550569,-44.45));
#622=CARTESIAN_POINT('',(38.8480688282874,10.5889263550569,-44.45));
#623=CARTESIAN_POINT('',(38.8480688282874,11.2023997642607,-44.45));
#624=CARTESIAN_POINT('',(38.0480688282874,11.2023997642607,-44.45));
#625=CARTESIAN_POINT('',(37.1480688282874,11.2023997642607,-44.45));
#626=CARTESIAN_POINT('',(38.0480688282874,10.5889263550569,-44.45));
#627=CARTESIAN_POINT('',(37.1480688282874,10.5889263550569,-44.45));
#628=CARTESIAN_POINT('',(38.8480688282874,11.2023997642607,-44.45));
#629=CARTESIAN_POINT('',(38.8480688282874,11.2023997642607,-44.45));
#630=CARTESIAN_POINT('',(38.8480688282874,11.2023997642607,-43.65));
#631=CARTESIAN_POINT('',(38.8480688282874,11.2023997642607,-43.65));
#632=CARTESIAN_POINT('',(37.1480688282874,11.2023997642607,-44.45));
#633=CARTESIAN_POINT('',(36.3480688282874,11.2023997642607,-43.65));
#634=CARTESIAN_POINT('',(36.3480688282874,11.2023997642607,-44.45));
#635=CARTESIAN_POINT('',(38.8480688282874,0.,0.));
#636=CARTESIAN_POINT('',(38.8480688282874,11.2023997642607,-43.65));
#637=CARTESIAN_POINT('',(36.3480688282874,0.,0.));
#638=CARTESIAN_POINT('',(36.3480688282874,0.,-43.65));
#639=CARTESIAN_POINT('',(36.3480688282874,-11.777690433528,-38.));
#640=CARTESIAN_POINT('',(36.3480688282874,-11.777690433528,-44.45));
#641=CARTESIAN_POINT('',(37.1480688282874,-11.777690433528,-44.45));
#642=CARTESIAN_POINT('',(38.0480688282874,-11.777690433528,-44.45));
#643=CARTESIAN_POINT('',(36.3480688282874,-11.777690433528,-43.65));
#644=CARTESIAN_POINT('',(36.3480688282874,-11.777690433528,-43.65));
#645=CARTESIAN_POINT('',(36.3480688282874,-11.777690433528,-38.));
#646=CARTESIAN_POINT('',(38.8480688282874,-11.777690433528,-38.));
#647=CARTESIAN_POINT('',(38.8480688282874,-11.777690433528,-43.65));
#648=CARTESIAN_POINT('',(38.0480688282874,-11.777690433528,-44.45));
#649=CARTESIAN_POINT('',(36.3480688282874,-11.777690433528,-44.45));
#650=CARTESIAN_POINT('',(36.3480688282874,-12.3911638427318,-44.45));
#651=CARTESIAN_POINT('',(37.1480688282874,-12.3911638427318,-44.45));
#652=CARTESIAN_POINT('',(38.0480688282874,-12.3911638427318,-44.45));
#653=CARTESIAN_POINT('',(37.1480688282874,-11.777690433528,-44.45));
#654=CARTESIAN_POINT('',(38.0480688282874,-11.777690433528,-44.45));
#655=CARTESIAN_POINT('',(36.3480688282874,-12.3911638427318,-44.45));
#656=CARTESIAN_POINT('',(36.3480688282874,-12.3911638427318,-44.45));
#657=CARTESIAN_POINT('',(36.3480688282874,-12.3911638427318,-43.65));
#658=CARTESIAN_POINT('',(36.3480688282874,-12.3911638427318,-43.65));
#659=CARTESIAN_POINT('',(38.0480688282874,-12.3911638427318,-44.45));
#660=CARTESIAN_POINT('',(38.8480688282874,-12.3911638427318,-43.65));
#661=CARTESIAN_POINT('',(38.8480688282874,-12.3911638427318,-44.45));
#662=CARTESIAN_POINT('',(36.3480688282874,-1.1887640784711,0.));
#663=CARTESIAN_POINT('',(36.3480688282874,-12.3911638427318,-43.65));
#664=CARTESIAN_POINT('',(38.8480688282874,-1.18876407847111,0.));
#665=CARTESIAN_POINT('',(38.8480688282874,-1.18876407847111,-43.65));
#666=CARTESIAN_POINT('',(36.3480688282874,-1.1887640784711,-43.65));
#667=CARTESIAN_POINT('',(38.0480688282874,-11.777690433528,-44.45));
#668=CARTESIAN_POINT('',(38.8480688282874,0.,-43.65));
#669=CARTESIAN_POINT('',(37.1480688282874,10.5889263550569,-44.45));
#670=MECHANICAL_DESIGN_GEOMETRIC_PRESENTATION_REPRESENTATION('',(#400),
#671);
#671=(
GEOMETRIC_REPRESENTATION_CONTEXT(3)
GLOBAL_UNCERTAINTY_ASSIGNED_CONTEXT((#672))
GLOBAL_UNIT_ASSIGNED_CONTEXT((#675,#674,#673))
REPRESENTATION_CONTEXT('M05-02','TOP_LEVEL_ASSEMBLY_PART')
);
#672=UNCERTAINTY_MEASURE_WITH_UNIT(LENGTH_MEASURE(0.005),#675,
'DISTANCE_ACCURACY_VALUE','Maximum Tolerance applied to model');
#673=(
NAMED_UNIT(*)
SI_UNIT($,.STERADIAN.)
SOLID_ANGLE_UNIT()
);
#674=(
NAMED_UNIT(*)
PLANE_ANGLE_UNIT()
SI_UNIT($,.RADIAN.)
);
#675=(
LENGTH_UNIT()
NAMED_UNIT(*)
SI_UNIT(.MILLI.,.METRE.)
);
#676=PRODUCT_DEFINITION_SHAPE('','',#677);
#677=PRODUCT_DEFINITION('','',#679,#678);
#678=PRODUCT_DEFINITION_CONTEXT('',#685,'design');
#679=PRODUCT_DEFINITION_FORMATION_WITH_SPECIFIED_SOURCE('','',#681,
 .NOT_KNOWN.);
#680=PRODUCT_RELATED_PRODUCT_CATEGORY('','',(#681));
#681=PRODUCT('M05-02','M05-02','M05-02',(#683));
#682=PRODUCT_CATEGORY('','');
#683=PRODUCT_CONTEXT('',#685,'mechanical');
#684=APPLICATION_PROTOCOL_DEFINITION('international standard',
'ap242_managed_model_based_3d_engineering',2020,#685);
#685=APPLICATION_CONTEXT('managed model based 3d engineering');
ENDSEC;
END-ISO-10303-21;
