ISO-10303-21;
HEADER;
/* Generated by software containing ST-Developer
 * from STEP Tools, Inc. (www.steptools.com) 
 */
/* OPTION: using custom renumber hook */

FILE_DESCRIPTION(
/* description */ (
'CAx-IF Rec.Pracs.---Representation and Presentation of Product Manufa
cturing Information (PMI)---4.0---2014-10-13',
'CAx-IF Rec.Pracs.---3D Tessellated Geometry---0.4---2014-09-14','2;1'),

/* implementation_level */ '2;1');

FILE_NAME(
/* name */ 'M06-02',
/* time_stamp */ '2026-04-13T01:14:50+03:00',
/* author */ (''),
/* organization */ (''),
/* preprocessor_version */ 'ST-DEVELOPER v18.102',
/* originating_system */ 'SIEMENS PLM Software NX2206.9140',
/* authorisation */ $);

FILE_SCHEMA (('AP242_MANAGED_MODEL_BASED_3D_ENGINEERING_MIM_LF { 1 0 10303 442 3 1 4 }'));
ENDSEC;

DATA;
#10=CYLINDRICAL_SURFACE('',#524,3.1);
#11=CYLINDRICAL_SURFACE('',#529,15.85);
#12=CYLINDRICAL_SURFACE('',#534,2.1);
#13=CYLINDRICAL_SURFACE('',#539,2.875);
#14=CYLINDRICAL_SURFACE('',#544,2.1);
#15=CYLINDRICAL_SURFACE('',#549,3.8);
#16=CIRCLE('',#521,3.1);
#17=CIRCLE('',#523,3.1);
#18=CIRCLE('',#526,15.85);
#19=CIRCLE('',#528,15.85);
#20=CIRCLE('',#531,2.1);
#21=CIRCLE('',#533,2.1);
#22=CIRCLE('',#536,2.875);
#23=CIRCLE('',#538,2.875);
#24=CIRCLE('',#541,2.1);
#25=CIRCLE('',#543,2.1);
#26=CIRCLE('',#546,3.8);
#27=CIRCLE('',#548,3.8);
#28=SHAPE_REPRESENTATION_RELATIONSHIP('','',#502,#29);
#29=ADVANCED_BREP_SHAPE_REPRESENTATION('',(#493,#494,#495,#496,#497,#498,
#499,#500),#800);
#30=ORIENTED_EDGE('',*,*,#126,.F.);
#31=ORIENTED_EDGE('',*,*,#127,.F.);
#32=ORIENTED_EDGE('',*,*,#128,.T.);
#33=ORIENTED_EDGE('',*,*,#129,.T.);
#34=ORIENTED_EDGE('',*,*,#130,.F.);
#35=ORIENTED_EDGE('',*,*,#131,.F.);
#36=ORIENTED_EDGE('',*,*,#132,.T.);
#37=ORIENTED_EDGE('',*,*,#127,.T.);
#38=ORIENTED_EDGE('',*,*,#133,.F.);
#39=ORIENTED_EDGE('',*,*,#134,.F.);
#40=ORIENTED_EDGE('',*,*,#135,.T.);
#41=ORIENTED_EDGE('',*,*,#131,.T.);
#42=ORIENTED_EDGE('',*,*,#136,.F.);
#43=ORIENTED_EDGE('',*,*,#137,.F.);
#44=ORIENTED_EDGE('',*,*,#138,.T.);
#45=ORIENTED_EDGE('',*,*,#134,.T.);
#46=ORIENTED_EDGE('',*,*,#139,.F.);
#47=ORIENTED_EDGE('',*,*,#140,.F.);
#48=ORIENTED_EDGE('',*,*,#141,.T.);
#49=ORIENTED_EDGE('',*,*,#137,.T.);
#50=ORIENTED_EDGE('',*,*,#142,.F.);
#51=ORIENTED_EDGE('',*,*,#129,.F.);
#52=ORIENTED_EDGE('',*,*,#143,.T.);
#53=ORIENTED_EDGE('',*,*,#140,.T.);
#54=ORIENTED_EDGE('',*,*,#128,.F.);
#55=ORIENTED_EDGE('',*,*,#132,.F.);
#56=ORIENTED_EDGE('',*,*,#135,.F.);
#57=ORIENTED_EDGE('',*,*,#138,.F.);
#58=ORIENTED_EDGE('',*,*,#141,.F.);
#59=ORIENTED_EDGE('',*,*,#143,.F.);
#60=ORIENTED_EDGE('',*,*,#126,.T.);
#61=ORIENTED_EDGE('',*,*,#142,.T.);
#62=ORIENTED_EDGE('',*,*,#139,.T.);
#63=ORIENTED_EDGE('',*,*,#136,.T.);
#64=ORIENTED_EDGE('',*,*,#133,.T.);
#65=ORIENTED_EDGE('',*,*,#130,.T.);
#66=ORIENTED_EDGE('',*,*,#144,.T.);
#67=ORIENTED_EDGE('',*,*,#145,.F.);
#68=ORIENTED_EDGE('',*,*,#146,.F.);
#69=ORIENTED_EDGE('',*,*,#147,.T.);
#70=ORIENTED_EDGE('',*,*,#148,.T.);
#71=ORIENTED_EDGE('',*,*,#149,.F.);
#72=ORIENTED_EDGE('',*,*,#150,.F.);
#73=ORIENTED_EDGE('',*,*,#145,.T.);
#74=ORIENTED_EDGE('',*,*,#151,.T.);
#75=ORIENTED_EDGE('',*,*,#152,.F.);
#76=ORIENTED_EDGE('',*,*,#153,.F.);
#77=ORIENTED_EDGE('',*,*,#149,.T.);
#78=ORIENTED_EDGE('',*,*,#154,.T.);
#79=ORIENTED_EDGE('',*,*,#155,.F.);
#80=ORIENTED_EDGE('',*,*,#156,.F.);
#81=ORIENTED_EDGE('',*,*,#152,.T.);
#82=ORIENTED_EDGE('',*,*,#157,.T.);
#83=ORIENTED_EDGE('',*,*,#158,.F.);
#84=ORIENTED_EDGE('',*,*,#159,.F.);
#85=ORIENTED_EDGE('',*,*,#155,.T.);
#86=ORIENTED_EDGE('',*,*,#160,.T.);
#87=ORIENTED_EDGE('',*,*,#147,.F.);
#88=ORIENTED_EDGE('',*,*,#161,.F.);
#89=ORIENTED_EDGE('',*,*,#158,.T.);
#90=ORIENTED_EDGE('',*,*,#146,.T.);
#91=ORIENTED_EDGE('',*,*,#150,.T.);
#92=ORIENTED_EDGE('',*,*,#153,.T.);
#93=ORIENTED_EDGE('',*,*,#156,.T.);
#94=ORIENTED_EDGE('',*,*,#159,.T.);
#95=ORIENTED_EDGE('',*,*,#161,.T.);
#96=ORIENTED_EDGE('',*,*,#144,.F.);
#97=ORIENTED_EDGE('',*,*,#160,.F.);
#98=ORIENTED_EDGE('',*,*,#157,.F.);
#99=ORIENTED_EDGE('',*,*,#154,.F.);
#100=ORIENTED_EDGE('',*,*,#151,.F.);
#101=ORIENTED_EDGE('',*,*,#148,.F.);
#102=ORIENTED_EDGE('',*,*,#162,.F.);
#103=ORIENTED_EDGE('',*,*,#163,.F.);
#104=ORIENTED_EDGE('',*,*,#162,.T.);
#105=ORIENTED_EDGE('',*,*,#163,.T.);
#106=ORIENTED_EDGE('',*,*,#164,.F.);
#107=ORIENTED_EDGE('',*,*,#165,.F.);
#108=ORIENTED_EDGE('',*,*,#164,.T.);
#109=ORIENTED_EDGE('',*,*,#165,.T.);
#110=ORIENTED_EDGE('',*,*,#166,.F.);
#111=ORIENTED_EDGE('',*,*,#167,.F.);
#112=ORIENTED_EDGE('',*,*,#166,.T.);
#113=ORIENTED_EDGE('',*,*,#167,.T.);
#114=ORIENTED_EDGE('',*,*,#168,.F.);
#115=ORIENTED_EDGE('',*,*,#169,.F.);
#116=ORIENTED_EDGE('',*,*,#168,.T.);
#117=ORIENTED_EDGE('',*,*,#169,.T.);
#118=ORIENTED_EDGE('',*,*,#170,.T.);
#119=ORIENTED_EDGE('',*,*,#171,.T.);
#120=ORIENTED_EDGE('',*,*,#170,.F.);
#121=ORIENTED_EDGE('',*,*,#171,.F.);
#122=ORIENTED_EDGE('',*,*,#172,.F.);
#123=ORIENTED_EDGE('',*,*,#173,.F.);
#124=ORIENTED_EDGE('',*,*,#172,.T.);
#125=ORIENTED_EDGE('',*,*,#173,.T.);
#126=EDGE_CURVE('',#174,#175,#210,.F.);
#127=EDGE_CURVE('',#176,#174,#211,.T.);
#128=EDGE_CURVE('',#176,#177,#212,.F.);
#129=EDGE_CURVE('',#177,#175,#213,.T.);
#130=EDGE_CURVE('',#178,#174,#214,.F.);
#131=EDGE_CURVE('',#179,#178,#215,.T.);
#132=EDGE_CURVE('',#179,#176,#216,.F.);
#133=EDGE_CURVE('',#180,#178,#217,.F.);
#134=EDGE_CURVE('',#181,#180,#218,.T.);
#135=EDGE_CURVE('',#181,#179,#219,.F.);
#136=EDGE_CURVE('',#182,#180,#220,.F.);
#137=EDGE_CURVE('',#183,#182,#221,.T.);
#138=EDGE_CURVE('',#183,#181,#222,.F.);
#139=EDGE_CURVE('',#184,#182,#223,.F.);
#140=EDGE_CURVE('',#185,#184,#224,.T.);
#141=EDGE_CURVE('',#185,#183,#225,.F.);
#142=EDGE_CURVE('',#175,#184,#226,.F.);
#143=EDGE_CURVE('',#177,#185,#227,.F.);
#144=EDGE_CURVE('',#186,#187,#228,.T.);
#145=EDGE_CURVE('',#188,#187,#229,.T.);
#146=EDGE_CURVE('',#189,#188,#230,.T.);
#147=EDGE_CURVE('',#189,#186,#231,.T.);
#148=EDGE_CURVE('',#187,#190,#232,.T.);
#149=EDGE_CURVE('',#191,#190,#233,.T.);
#150=EDGE_CURVE('',#188,#191,#234,.T.);
#151=EDGE_CURVE('',#190,#192,#235,.T.);
#152=EDGE_CURVE('',#193,#192,#236,.T.);
#153=EDGE_CURVE('',#191,#193,#237,.T.);
#154=EDGE_CURVE('',#192,#194,#238,.T.);
#155=EDGE_CURVE('',#195,#194,#239,.T.);
#156=EDGE_CURVE('',#193,#195,#240,.T.);
#157=EDGE_CURVE('',#194,#196,#241,.T.);
#158=EDGE_CURVE('',#197,#196,#242,.T.);
#159=EDGE_CURVE('',#195,#197,#243,.T.);
#160=EDGE_CURVE('',#196,#186,#244,.T.);
#161=EDGE_CURVE('',#197,#189,#245,.T.);
#162=EDGE_CURVE('',#198,#198,#16,.T.);
#163=EDGE_CURVE('',#199,#199,#17,.T.);
#164=EDGE_CURVE('',#200,#200,#18,.T.);
#165=EDGE_CURVE('',#201,#201,#19,.T.);
#166=EDGE_CURVE('',#202,#202,#20,.T.);
#167=EDGE_CURVE('',#203,#203,#21,.T.);
#168=EDGE_CURVE('',#204,#204,#22,.T.);
#169=EDGE_CURVE('',#205,#205,#23,.T.);
#170=EDGE_CURVE('',#206,#206,#24,.F.);
#171=EDGE_CURVE('',#207,#207,#25,.F.);
#172=EDGE_CURVE('',#208,#208,#26,.T.);
#173=EDGE_CURVE('',#209,#209,#27,.T.);
#174=VERTEX_POINT('',#683);
#175=VERTEX_POINT('',#684);
#176=VERTEX_POINT('',#686);
#177=VERTEX_POINT('',#688);
#178=VERTEX_POINT('',#692);
#179=VERTEX_POINT('',#694);
#180=VERTEX_POINT('',#698);
#181=VERTEX_POINT('',#700);
#182=VERTEX_POINT('',#704);
#183=VERTEX_POINT('',#706);
#184=VERTEX_POINT('',#710);
#185=VERTEX_POINT('',#712);
#186=VERTEX_POINT('',#721);
#187=VERTEX_POINT('',#722);
#188=VERTEX_POINT('',#724);
#189=VERTEX_POINT('',#726);
#190=VERTEX_POINT('',#730);
#191=VERTEX_POINT('',#732);
#192=VERTEX_POINT('',#736);
#193=VERTEX_POINT('',#738);
#194=VERTEX_POINT('',#742);
#195=VERTEX_POINT('',#744);
#196=VERTEX_POINT('',#748);
#197=VERTEX_POINT('',#750);
#198=VERTEX_POINT('',#759);
#199=VERTEX_POINT('',#762);
#200=VERTEX_POINT('',#766);
#201=VERTEX_POINT('',#769);
#202=VERTEX_POINT('',#773);
#203=VERTEX_POINT('',#776);
#204=VERTEX_POINT('',#780);
#205=VERTEX_POINT('',#783);
#206=VERTEX_POINT('',#787);
#207=VERTEX_POINT('',#790);
#208=VERTEX_POINT('',#794);
#209=VERTEX_POINT('',#797);
#210=LINE('',#682,#246);
#211=LINE('',#685,#247);
#212=LINE('',#687,#248);
#213=LINE('',#689,#249);
#214=LINE('',#691,#250);
#215=LINE('',#693,#251);
#216=LINE('',#695,#252);
#217=LINE('',#697,#253);
#218=LINE('',#699,#254);
#219=LINE('',#701,#255);
#220=LINE('',#703,#256);
#221=LINE('',#705,#257);
#222=LINE('',#707,#258);
#223=LINE('',#709,#259);
#224=LINE('',#711,#260);
#225=LINE('',#713,#261);
#226=LINE('',#715,#262);
#227=LINE('',#716,#263);
#228=LINE('',#720,#264);
#229=LINE('',#723,#265);
#230=LINE('',#725,#266);
#231=LINE('',#727,#267);
#232=LINE('',#729,#268);
#233=LINE('',#731,#269);
#234=LINE('',#733,#270);
#235=LINE('',#735,#271);
#236=LINE('',#737,#272);
#237=LINE('',#739,#273);
#238=LINE('',#741,#274);
#239=LINE('',#743,#275);
#240=LINE('',#745,#276);
#241=LINE('',#747,#277);
#242=LINE('',#749,#278);
#243=LINE('',#751,#279);
#244=LINE('',#753,#280);
#245=LINE('',#754,#281);
#246=VECTOR('',#554,1000.);
#247=VECTOR('',#555,1000.);
#248=VECTOR('',#556,1000.);
#249=VECTOR('',#557,1000.);
#250=VECTOR('',#560,1000.);
#251=VECTOR('',#561,1000.);
#252=VECTOR('',#562,1000.);
#253=VECTOR('',#565,1000.);
#254=VECTOR('',#566,1000.);
#255=VECTOR('',#567,1000.);
#256=VECTOR('',#570,1000.);
#257=VECTOR('',#571,1000.);
#258=VECTOR('',#572,1000.);
#259=VECTOR('',#575,1000.);
#260=VECTOR('',#576,1000.);
#261=VECTOR('',#577,1000.);
#262=VECTOR('',#580,1000.);
#263=VECTOR('',#581,1000.);
#264=VECTOR('',#588,1000.);
#265=VECTOR('',#589,1000.);
#266=VECTOR('',#590,1000.);
#267=VECTOR('',#591,1000.);
#268=VECTOR('',#594,1000.);
#269=VECTOR('',#595,1000.);
#270=VECTOR('',#596,1000.);
#271=VECTOR('',#599,1000.);
#272=VECTOR('',#600,1000.);
#273=VECTOR('',#601,1000.);
#274=VECTOR('',#604,1000.);
#275=VECTOR('',#605,1000.);
#276=VECTOR('',#606,1000.);
#277=VECTOR('',#609,1000.);
#278=VECTOR('',#610,1000.);
#279=VECTOR('',#611,1000.);
#280=VECTOR('',#614,1000.);
#281=VECTOR('',#615,1000.);
#282=EDGE_LOOP('',(#30,#31,#32,#33));
#283=EDGE_LOOP('',(#34,#35,#36,#37));
#284=EDGE_LOOP('',(#38,#39,#40,#41));
#285=EDGE_LOOP('',(#42,#43,#44,#45));
#286=EDGE_LOOP('',(#46,#47,#48,#49));
#287=EDGE_LOOP('',(#50,#51,#52,#53));
#288=EDGE_LOOP('',(#54,#55,#56,#57,#58,#59));
#289=EDGE_LOOP('',(#60,#61,#62,#63,#64,#65));
#290=EDGE_LOOP('',(#66,#67,#68,#69));
#291=EDGE_LOOP('',(#70,#71,#72,#73));
#292=EDGE_LOOP('',(#74,#75,#76,#77));
#293=EDGE_LOOP('',(#78,#79,#80,#81));
#294=EDGE_LOOP('',(#82,#83,#84,#85));
#295=EDGE_LOOP('',(#86,#87,#88,#89));
#296=EDGE_LOOP('',(#90,#91,#92,#93,#94,#95));
#297=EDGE_LOOP('',(#96,#97,#98,#99,#100,#101));
#298=EDGE_LOOP('',(#102));
#299=EDGE_LOOP('',(#103));
#300=EDGE_LOOP('',(#104));
#301=EDGE_LOOP('',(#105));
#302=EDGE_LOOP('',(#106));
#303=EDGE_LOOP('',(#107));
#304=EDGE_LOOP('',(#108));
#305=EDGE_LOOP('',(#109));
#306=EDGE_LOOP('',(#110));
#307=EDGE_LOOP('',(#111));
#308=EDGE_LOOP('',(#112));
#309=EDGE_LOOP('',(#113));
#310=EDGE_LOOP('',(#114));
#311=EDGE_LOOP('',(#115));
#312=EDGE_LOOP('',(#116));
#313=EDGE_LOOP('',(#117));
#314=EDGE_LOOP('',(#118));
#315=EDGE_LOOP('',(#119));
#316=EDGE_LOOP('',(#120));
#317=EDGE_LOOP('',(#121));
#318=EDGE_LOOP('',(#122));
#319=EDGE_LOOP('',(#123));
#320=EDGE_LOOP('',(#124));
#321=EDGE_LOOP('',(#125));
#322=FACE_BOUND('',#282,.T.);
#323=FACE_BOUND('',#283,.T.);
#324=FACE_BOUND('',#284,.T.);
#325=FACE_BOUND('',#285,.T.);
#326=FACE_BOUND('',#286,.T.);
#327=FACE_BOUND('',#287,.T.);
#328=FACE_BOUND('',#288,.T.);
#329=FACE_BOUND('',#289,.T.);
#330=FACE_BOUND('',#290,.T.);
#331=FACE_BOUND('',#291,.T.);
#332=FACE_BOUND('',#292,.T.);
#333=FACE_BOUND('',#293,.T.);
#334=FACE_BOUND('',#294,.T.);
#335=FACE_BOUND('',#295,.T.);
#336=FACE_BOUND('',#296,.T.);
#337=FACE_BOUND('',#297,.T.);
#338=FACE_BOUND('',#298,.T.);
#339=FACE_BOUND('',#299,.T.);
#340=FACE_BOUND('',#300,.T.);
#341=FACE_BOUND('',#301,.T.);
#342=FACE_BOUND('',#302,.T.);
#343=FACE_BOUND('',#303,.T.);
#344=FACE_BOUND('',#304,.T.);
#345=FACE_BOUND('',#305,.T.);
#346=FACE_BOUND('',#306,.T.);
#347=FACE_BOUND('',#307,.T.);
#348=FACE_BOUND('',#308,.T.);
#349=FACE_BOUND('',#309,.T.);
#350=FACE_BOUND('',#310,.T.);
#351=FACE_BOUND('',#311,.T.);
#352=FACE_BOUND('',#312,.T.);
#353=FACE_BOUND('',#313,.T.);
#354=FACE_BOUND('',#314,.T.);
#355=FACE_BOUND('',#315,.T.);
#356=FACE_BOUND('',#316,.T.);
#357=FACE_BOUND('',#317,.T.);
#358=FACE_BOUND('',#318,.T.);
#359=FACE_BOUND('',#319,.T.);
#360=FACE_BOUND('',#320,.T.);
#361=FACE_BOUND('',#321,.T.);
#362=PLANE('',#504);
#363=PLANE('',#505);
#364=PLANE('',#506);
#365=PLANE('',#507);
#366=PLANE('',#508);
#367=PLANE('',#509);
#368=PLANE('',#510);
#369=PLANE('',#511);
#370=PLANE('',#512);
#371=PLANE('',#513);
#372=PLANE('',#514);
#373=PLANE('',#515);
#374=PLANE('',#516);
#375=PLANE('',#517);
#376=PLANE('',#518);
#377=PLANE('',#519);
#378=PLANE('',#520);
#379=PLANE('',#522);
#380=PLANE('',#525);
#381=PLANE('',#527);
#382=PLANE('',#530);
#383=PLANE('',#532);
#384=PLANE('',#535);
#385=PLANE('',#537);
#386=PLANE('',#540);
#387=PLANE('',#542);
#388=PLANE('',#545);
#389=PLANE('',#547);
#390=ADVANCED_FACE('',(#322),#362,.F.);
#391=ADVANCED_FACE('',(#323),#363,.F.);
#392=ADVANCED_FACE('',(#324),#364,.F.);
#393=ADVANCED_FACE('',(#325),#365,.F.);
#394=ADVANCED_FACE('',(#326),#366,.F.);
#395=ADVANCED_FACE('',(#327),#367,.F.);
#396=ADVANCED_FACE('',(#328),#368,.T.);
#397=ADVANCED_FACE('',(#329),#369,.F.);
#398=ADVANCED_FACE('',(#330),#370,.F.);
#399=ADVANCED_FACE('',(#331),#371,.F.);
#400=ADVANCED_FACE('',(#332),#372,.F.);
#401=ADVANCED_FACE('',(#333),#373,.F.);
#402=ADVANCED_FACE('',(#334),#374,.F.);
#403=ADVANCED_FACE('',(#335),#375,.F.);
#404=ADVANCED_FACE('',(#336),#376,.T.);
#405=ADVANCED_FACE('',(#337),#377,.F.);
#406=ADVANCED_FACE('',(#338),#378,.T.);
#407=ADVANCED_FACE('',(#339),#379,.T.);
#408=ADVANCED_FACE('',(#340,#341),#10,.T.);
#409=ADVANCED_FACE('',(#342),#380,.T.);
#410=ADVANCED_FACE('',(#343),#381,.T.);
#411=ADVANCED_FACE('',(#344,#345),#11,.T.);
#412=ADVANCED_FACE('',(#346),#382,.T.);
#413=ADVANCED_FACE('',(#347),#383,.T.);
#414=ADVANCED_FACE('',(#348,#349),#12,.T.);
#415=ADVANCED_FACE('',(#350),#384,.T.);
#416=ADVANCED_FACE('',(#351),#385,.T.);
#417=ADVANCED_FACE('',(#352,#353),#13,.T.);
#418=ADVANCED_FACE('',(#354),#386,.T.);
#419=ADVANCED_FACE('',(#355),#387,.T.);
#420=ADVANCED_FACE('',(#356,#357),#14,.T.);
#421=ADVANCED_FACE('',(#358),#388,.T.);
#422=ADVANCED_FACE('',(#359),#389,.T.);
#423=ADVANCED_FACE('',(#360,#361),#15,.T.);
#424=CLOSED_SHELL('',(#390,#391,#392,#393,#394,#395,#396,#397));
#425=CLOSED_SHELL('',(#398,#399,#400,#401,#402,#403,#404,#405));
#426=CLOSED_SHELL('',(#406,#407,#408));
#427=CLOSED_SHELL('',(#409,#410,#411));
#428=CLOSED_SHELL('',(#412,#413,#414));
#429=CLOSED_SHELL('',(#415,#416,#417));
#430=CLOSED_SHELL('',(#418,#419,#420));
#431=CLOSED_SHELL('',(#421,#422,#423));
#432=STYLED_ITEM('',(#440),#493);
#433=STYLED_ITEM('',(#441),#494);
#434=STYLED_ITEM('',(#442),#495);
#435=STYLED_ITEM('',(#443),#496);
#436=STYLED_ITEM('',(#444),#497);
#437=STYLED_ITEM('',(#445),#498);
#438=STYLED_ITEM('',(#446),#499);
#439=STYLED_ITEM('',(#447),#500);
#440=PRESENTATION_STYLE_ASSIGNMENT((#448));
#441=PRESENTATION_STYLE_ASSIGNMENT((#449));
#442=PRESENTATION_STYLE_ASSIGNMENT((#450));
#443=PRESENTATION_STYLE_ASSIGNMENT((#451));
#444=PRESENTATION_STYLE_ASSIGNMENT((#452));
#445=PRESENTATION_STYLE_ASSIGNMENT((#453));
#446=PRESENTATION_STYLE_ASSIGNMENT((#454));
#447=PRESENTATION_STYLE_ASSIGNMENT((#455));
#448=SURFACE_STYLE_USAGE(.BOTH.,#456);
#449=SURFACE_STYLE_USAGE(.BOTH.,#457);
#450=SURFACE_STYLE_USAGE(.BOTH.,#458);
#451=SURFACE_STYLE_USAGE(.BOTH.,#459);
#452=SURFACE_STYLE_USAGE(.BOTH.,#460);
#453=SURFACE_STYLE_USAGE(.BOTH.,#461);
#454=SURFACE_STYLE_USAGE(.BOTH.,#462);
#455=SURFACE_STYLE_USAGE(.BOTH.,#463);
#456=SURFACE_SIDE_STYLE('',(#464));
#457=SURFACE_SIDE_STYLE('',(#465));
#458=SURFACE_SIDE_STYLE('',(#466));
#459=SURFACE_SIDE_STYLE('',(#467));
#460=SURFACE_SIDE_STYLE('',(#468));
#461=SURFACE_SIDE_STYLE('',(#469));
#462=SURFACE_SIDE_STYLE('',(#470));
#463=SURFACE_SIDE_STYLE('',(#471));
#464=SURFACE_STYLE_FILL_AREA(#472);
#465=SURFACE_STYLE_FILL_AREA(#473);
#466=SURFACE_STYLE_FILL_AREA(#474);
#467=SURFACE_STYLE_FILL_AREA(#475);
#468=SURFACE_STYLE_FILL_AREA(#476);
#469=SURFACE_STYLE_FILL_AREA(#477);
#470=SURFACE_STYLE_FILL_AREA(#478);
#471=SURFACE_STYLE_FILL_AREA(#479);
#472=FILL_AREA_STYLE('',(#480));
#473=FILL_AREA_STYLE('',(#481));
#474=FILL_AREA_STYLE('',(#482));
#475=FILL_AREA_STYLE('',(#483));
#476=FILL_AREA_STYLE('',(#484));
#477=FILL_AREA_STYLE('',(#485));
#478=FILL_AREA_STYLE('',(#486));
#479=FILL_AREA_STYLE('',(#487));
#480=FILL_AREA_STYLE_COLOUR('',#488);
#481=FILL_AREA_STYLE_COLOUR('',#488);
#482=FILL_AREA_STYLE_COLOUR('',#489);
#483=FILL_AREA_STYLE_COLOUR('',#490);
#484=FILL_AREA_STYLE_COLOUR('',#491);
#485=FILL_AREA_STYLE_COLOUR('',#492);
#486=FILL_AREA_STYLE_COLOUR('',#491);
#487=FILL_AREA_STYLE_COLOUR('',#491);
#488=COLOUR_RGB('',0.8,0.6,0.2);
#489=COLOUR_RGB('',0.611764705882353,0.658823529411765,0.670588235294118);
#490=COLOUR_RGB('',0.490196078431373,0.490196078431373,0.490196078431373);
#491=COLOUR_RGB('',0.8,0.8,0.8);
#492=COLOUR_RGB('',1.,0.862745098039216,0.227450980392157);
#493=MANIFOLD_SOLID_BREP('Cylinder (38)',#424);
#494=MANIFOLD_SOLID_BREP('Mirror Feature (44)',#425);
#495=MANIFOLD_SOLID_BREP('Cylinder (45)',#426);
#496=MANIFOLD_SOLID_BREP('Extrude (43)',#427);
#497=MANIFOLD_SOLID_BREP('Cylinder (40)',#428);
#498=MANIFOLD_SOLID_BREP('Cylinder (46)',#429);
#499=MANIFOLD_SOLID_BREP('Mirror Feature (41)',#430);
#500=MANIFOLD_SOLID_BREP('Cylinder (39)',#431);
#501=SHAPE_DEFINITION_REPRESENTATION(#805,#502);
#502=SHAPE_REPRESENTATION('M06-02',(#503),#800);
#503=AXIS2_PLACEMENT_3D('',#680,#550,#551);
#504=AXIS2_PLACEMENT_3D('',#681,#552,#553);
#505=AXIS2_PLACEMENT_3D('',#690,#558,#559);
#506=AXIS2_PLACEMENT_3D('',#696,#563,#564);
#507=AXIS2_PLACEMENT_3D('',#702,#568,#569);
#508=AXIS2_PLACEMENT_3D('',#708,#573,#574);
#509=AXIS2_PLACEMENT_3D('',#714,#578,#579);
#510=AXIS2_PLACEMENT_3D('',#717,#582,#583);
#511=AXIS2_PLACEMENT_3D('',#718,#584,#585);
#512=AXIS2_PLACEMENT_3D('',#719,#586,#587);
#513=AXIS2_PLACEMENT_3D('',#728,#592,#593);
#514=AXIS2_PLACEMENT_3D('',#734,#597,#598);
#515=AXIS2_PLACEMENT_3D('',#740,#602,#603);
#516=AXIS2_PLACEMENT_3D('',#746,#607,#608);
#517=AXIS2_PLACEMENT_3D('',#752,#612,#613);
#518=AXIS2_PLACEMENT_3D('',#755,#616,#617);
#519=AXIS2_PLACEMENT_3D('',#756,#618,#619);
#520=AXIS2_PLACEMENT_3D('',#757,#620,#621);
#521=AXIS2_PLACEMENT_3D('',#758,#622,#623);
#522=AXIS2_PLACEMENT_3D('',#760,#624,#625);
#523=AXIS2_PLACEMENT_3D('',#761,#626,#627);
#524=AXIS2_PLACEMENT_3D('',#763,#628,#629);
#525=AXIS2_PLACEMENT_3D('',#764,#630,#631);
#526=AXIS2_PLACEMENT_3D('',#765,#632,#633);
#527=AXIS2_PLACEMENT_3D('',#767,#634,#635);
#528=AXIS2_PLACEMENT_3D('',#768,#636,#637);
#529=AXIS2_PLACEMENT_3D('',#770,#638,#639);
#530=AXIS2_PLACEMENT_3D('',#771,#640,#641);
#531=AXIS2_PLACEMENT_3D('',#772,#642,#643);
#532=AXIS2_PLACEMENT_3D('',#774,#644,#645);
#533=AXIS2_PLACEMENT_3D('',#775,#646,#647);
#534=AXIS2_PLACEMENT_3D('',#777,#648,#649);
#535=AXIS2_PLACEMENT_3D('',#778,#650,#651);
#536=AXIS2_PLACEMENT_3D('',#779,#652,#653);
#537=AXIS2_PLACEMENT_3D('',#781,#654,#655);
#538=AXIS2_PLACEMENT_3D('',#782,#656,#657);
#539=AXIS2_PLACEMENT_3D('',#784,#658,#659);
#540=AXIS2_PLACEMENT_3D('',#785,#660,#661);
#541=AXIS2_PLACEMENT_3D('',#786,#662,#663);
#542=AXIS2_PLACEMENT_3D('',#788,#664,#665);
#543=AXIS2_PLACEMENT_3D('',#789,#666,#667);
#544=AXIS2_PLACEMENT_3D('',#791,#668,#669);
#545=AXIS2_PLACEMENT_3D('',#792,#670,#671);
#546=AXIS2_PLACEMENT_3D('',#793,#672,#673);
#547=AXIS2_PLACEMENT_3D('',#795,#674,#675);
#548=AXIS2_PLACEMENT_3D('',#796,#676,#677);
#549=AXIS2_PLACEMENT_3D('',#798,#678,#679);
#550=DIRECTION('',(0.,0.,1.));
#551=DIRECTION('',(1.,0.,0.));
#552=DIRECTION('',(-0.484809620246338,1.1398403843159E-15,0.874619707139396));
#553=DIRECTION('',(0.874619707139396,0.,0.484809620246338));
#554=DIRECTION('',(-5.10212787052002E-16,-1.,1.020425574104E-15));
#555=DIRECTION('',(0.874619707139396,0.,0.484809620246338));
#556=DIRECTION('',(-5.10212787052002E-16,-1.,1.020425574104E-15));
#557=DIRECTION('',(0.874619707139396,0.,0.484809620246338));
#558=DIRECTION('',(0.,1.,0.));
#559=DIRECTION('',(0.,0.,1.));
#560=DIRECTION('',(-0.484809620246338,0.,0.874619707139395));
#561=DIRECTION('',(0.874619707139396,0.,0.484809620246338));
#562=DIRECTION('',(-0.484809620246338,0.,0.874619707139395));
#563=DIRECTION('',(0.484809620246338,5.6992019215795E-16,-0.874619707139396));
#564=DIRECTION('',(-0.874619707139396,0.,-0.484809620246338));
#565=DIRECTION('',(-2.55106393526001E-16,1.,5.10212787052002E-16));
#566=DIRECTION('',(0.874619707139396,0.,0.484809620246338));
#567=DIRECTION('',(-2.55106393526001E-16,1.,5.10212787052002E-16));
#568=DIRECTION('',(0.342812170060661,-0.707106781186546,-0.61844952587766));
#569=DIRECTION('',(0.,0.658342466720149,-0.752718537378235));
#570=DIRECTION('',(0.342812170060661,0.707106781186549,-0.618449525877657));
#571=DIRECTION('',(0.874619707139396,0.,0.484809620246338));
#572=DIRECTION('',(0.342812170060661,0.707106781186549,-0.618449525877657));
#573=DIRECTION('',(0.,-1.,0.));
#574=DIRECTION('',(0.,0.,-1.));
#575=DIRECTION('',(0.484809620246337,0.,-0.874619707139396));
#576=DIRECTION('',(0.874619707139396,0.,0.484809620246338));
#577=DIRECTION('',(0.484809620246337,0.,-0.874619707139396));
#578=DIRECTION('',(-0.34281217006066,-0.707106781186548,0.618449525877658));
#579=DIRECTION('',(0.,-0.658342466720147,-0.752718537378237));
#580=DIRECTION('',(0.34281217006066,-0.707106781186547,-0.618449525877659));
#581=DIRECTION('',(0.34281217006066,-0.707106781186547,-0.618449525877659));
#582=DIRECTION('',(-0.874619707139396,-4.84699766808169E-17,-0.484809620246338));
#583=DIRECTION('',(-0.484809620246338,0.,0.874619707139395));
#584=DIRECTION('',(-0.874619707139396,-4.84699766808169E-17,-0.484809620246338));
#585=DIRECTION('',(-0.484809620246338,0.,0.874619707139395));
#586=DIRECTION('',(0.484809620246338,6.93598225925703E-16,-0.874619707139396));
#587=DIRECTION('',(-0.874619707139395,0.,-0.484809620246338));
#588=DIRECTION('',(-5.10212787052002E-16,1.,5.10212787052002E-16));
#589=DIRECTION('',(0.874619707139396,0.,0.484809620246338));
#590=DIRECTION('',(-5.10212787052002E-16,1.,5.10212787052002E-16));
#591=DIRECTION('',(0.874619707139396,0.,0.484809620246338));
#592=DIRECTION('',(0.34281217006066,-0.707106781186547,-0.618449525877659));
#593=DIRECTION('',(0.,0.658342466720148,-0.752718537378236));
#594=DIRECTION('',(0.342812170060661,0.707106781186548,-0.618449525877658));
#595=DIRECTION('',(0.874619707139396,0.,0.484809620246338));
#596=DIRECTION('',(0.342812170060661,0.707106781186548,-0.618449525877658));
#597=DIRECTION('',(0.,-1.,0.));
#598=DIRECTION('',(0.,0.,-1.));
#599=DIRECTION('',(0.484809620246338,0.,-0.874619707139395));
#600=DIRECTION('',(0.874619707139396,0.,0.484809620246338));
#601=DIRECTION('',(0.484809620246338,0.,-0.874619707139395));
#602=DIRECTION('',(-0.34281217006066,-0.707106781186547,0.618449525877659));
#603=DIRECTION('',(0.,-0.658342466720148,-0.752718537378236));
#604=DIRECTION('',(0.342812170060661,-0.707106781186548,-0.618449525877658));
#605=DIRECTION('',(0.874619707139396,0.,0.484809620246338));
#606=DIRECTION('',(0.342812170060661,-0.707106781186548,-0.618449525877658));
#607=DIRECTION('',(-0.484809620246338,6.93598225925703E-16,0.874619707139396));
#608=DIRECTION('',(0.874619707139395,0.,0.484809620246338));
#609=DIRECTION('',(-5.10212787052002E-16,-1.,5.10212787052002E-16));
#610=DIRECTION('',(0.874619707139396,0.,0.484809620246338));
#611=DIRECTION('',(-5.10212787052002E-16,-1.,5.10212787052002E-16));
#612=DIRECTION('',(0.,1.,0.));
#613=DIRECTION('',(0.,0.,1.));
#614=DIRECTION('',(-0.484809620246338,0.,0.874619707139396));
#615=DIRECTION('',(-0.484809620246338,0.,0.874619707139396));
#616=DIRECTION('',(-0.874619707139395,-1.9888609085469E-16,-0.484809620246338));
#617=DIRECTION('',(-0.484809620246338,0.,0.874619707139395));
#618=DIRECTION('',(-0.874619707139395,-1.9888609085469E-16,-0.484809620246338));
#619=DIRECTION('',(-0.484809620246338,0.,0.874619707139395));
#620=DIRECTION('',(0.,-1.,0.));
#621=DIRECTION('',(0.,0.,-1.));
#622=DIRECTION('',(0.,1.,0.));
#623=DIRECTION('',(0.484809620246338,0.,-0.874619707139395));
#624=DIRECTION('',(0.,1.,0.));
#625=DIRECTION('',(0.,0.,1.));
#626=DIRECTION('',(0.,-1.,0.));
#627=DIRECTION('',(0.484809620246338,0.,-0.874619707139395));
#628=DIRECTION('',(0.,-1.,0.));
#629=DIRECTION('',(0.484809620246338,0.,-0.874619707139395));
#630=DIRECTION('',(0.,-1.,0.));
#631=DIRECTION('',(0.,0.,-1.));
#632=DIRECTION('',(0.,1.,0.));
#633=DIRECTION('',(0.484809620246338,0.,-0.874619707139395));
#634=DIRECTION('',(0.,1.,0.));
#635=DIRECTION('',(0.,0.,1.));
#636=DIRECTION('',(0.,-1.,0.));
#637=DIRECTION('',(0.484809620246338,0.,-0.874619707139395));
#638=DIRECTION('',(0.,-1.,0.));
#639=DIRECTION('',(0.484809620246338,0.,-0.874619707139395));
#640=DIRECTION('',(0.,1.,0.));
#641=DIRECTION('',(0.,0.,1.));
#642=DIRECTION('',(0.,-1.,0.));
#643=DIRECTION('',(0.484809620246338,0.,-0.874619707139395));
#644=DIRECTION('',(0.,-1.,0.));
#645=DIRECTION('',(0.,0.,-1.));
#646=DIRECTION('',(0.,1.,0.));
#647=DIRECTION('',(0.484809620246338,0.,-0.874619707139395));
#648=DIRECTION('',(0.,1.,0.));
#649=DIRECTION('',(0.484809620246338,0.,-0.874619707139395));
#650=DIRECTION('',(0.,-1.,0.));
#651=DIRECTION('',(0.,0.,-1.));
#652=DIRECTION('',(0.,1.,0.));
#653=DIRECTION('',(0.484809620246338,0.,-0.874619707139395));
#654=DIRECTION('',(0.,1.,0.));
#655=DIRECTION('',(0.,0.,1.));
#656=DIRECTION('',(0.,-1.,0.));
#657=DIRECTION('',(0.484809620246338,0.,-0.874619707139395));
#658=DIRECTION('',(0.,-1.,0.));
#659=DIRECTION('',(0.484809620246338,0.,-0.874619707139395));
#660=DIRECTION('',(0.,1.,0.));
#661=DIRECTION('',(0.,0.,1.));
#662=DIRECTION('',(0.,-1.,0.));
#663=DIRECTION('',(-0.484809620246338,0.,0.874619707139396));
#664=DIRECTION('',(0.,-1.,0.));
#665=DIRECTION('',(0.,0.,-1.));
#666=DIRECTION('',(0.,1.,0.));
#667=DIRECTION('',(-0.484809620246338,0.,0.874619707139396));
#668=DIRECTION('',(0.,1.,0.));
#669=DIRECTION('',(-0.484809620246338,0.,0.874619707139396));
#670=DIRECTION('',(0.,1.,0.));
#671=DIRECTION('',(0.,0.,1.));
#672=DIRECTION('',(0.,-1.,0.));
#673=DIRECTION('',(0.484809620246338,0.,-0.874619707139395));
#674=DIRECTION('',(0.,-1.,0.));
#675=DIRECTION('',(0.,0.,-1.));
#676=DIRECTION('',(0.,1.,0.));
#677=DIRECTION('',(0.484809620246338,0.,-0.874619707139395));
#678=DIRECTION('',(0.,1.,0.));
#679=DIRECTION('',(0.484809620246338,0.,-0.874619707139395));
#680=CARTESIAN_POINT('',(0.,0.,0.));
#681=CARTESIAN_POINT('',(-4.58194150900185,4.6,7.75037495919302));
#682=CARTESIAN_POINT('',(-4.14463165543216,4.6,7.99277976931619));
#683=CARTESIAN_POINT('',(-4.14463165543216,1.2,7.99277976931619));
#684=CARTESIAN_POINT('',(-4.14463165543216,4.6,7.99277976931619));
#685=CARTESIAN_POINT('',(-4.58194150900185,1.2,7.75037495919302));
#686=CARTESIAN_POINT('',(-4.58194150900185,1.2,7.75037495919302));
#687=CARTESIAN_POINT('',(-4.58194150900185,4.6,7.75037495919302));
#688=CARTESIAN_POINT('',(-4.58194150900185,4.6,7.75037495919302));
#689=CARTESIAN_POINT('',(-4.58194150900185,4.6,7.75037495919302));
#690=CARTESIAN_POINT('',(-4.58194150900185,1.2,7.75037495919302));
#691=CARTESIAN_POINT('',(-4.14463165543216,1.2,7.99277976931619));
#692=CARTESIAN_POINT('',(-5.11425089592483,1.2,9.74201918359498));
#693=CARTESIAN_POINT('',(-5.55156074949453,1.2,9.49961437347181));
#694=CARTESIAN_POINT('',(-5.55156074949453,1.2,9.49961437347181));
#695=CARTESIAN_POINT('',(-4.58194150900185,1.2,7.75037495919302));
#696=CARTESIAN_POINT('',(-5.55156074949453,1.2,9.49961437347181));
#697=CARTESIAN_POINT('',(-5.11425089592483,1.2,9.74201918359498));
#698=CARTESIAN_POINT('',(-5.11425089592483,4.6,9.74201918359498));
#699=CARTESIAN_POINT('',(-5.55156074949453,4.6,9.49961437347181));
#700=CARTESIAN_POINT('',(-5.55156074949453,4.6,9.49961437347181));
#701=CARTESIAN_POINT('',(-5.55156074949453,1.2,9.49961437347181));
#702=CARTESIAN_POINT('',(-5.55156074949453,4.6,9.49961437347181));
#703=CARTESIAN_POINT('',(-5.11425089592483,4.6,9.74201918359498));
#704=CARTESIAN_POINT('',(-4.82336512377703,5.2,9.21724735931134));
#705=CARTESIAN_POINT('',(-5.26067497734673,5.2,8.97484254918818));
#706=CARTESIAN_POINT('',(-5.26067497734673,5.2,8.97484254918818));
#707=CARTESIAN_POINT('',(-5.55156074949453,4.6,9.49961437347181));
#708=CARTESIAN_POINT('',(-5.26067497734673,5.2,8.97484254918818));
#709=CARTESIAN_POINT('',(-4.82336512377703,5.2,9.21724735931134));
#710=CARTESIAN_POINT('',(-4.43551742757996,5.2,8.51755159359983));
#711=CARTESIAN_POINT('',(-4.87282728114966,5.2,8.27514678347666));
#712=CARTESIAN_POINT('',(-4.87282728114966,5.2,8.27514678347666));
#713=CARTESIAN_POINT('',(-5.26067497734673,5.2,8.97484254918818));
#714=CARTESIAN_POINT('',(-4.87282728114966,5.2,8.27514678347666));
#715=CARTESIAN_POINT('',(-4.43551742757996,5.2,8.51755159359983));
#716=CARTESIAN_POINT('',(-4.87282728114966,5.2,8.27514678347666));
#717=CARTESIAN_POINT('',(-0.218654926784801,2.64858320249023E-30,-0.121202405061558));
#718=CARTESIAN_POINT('',(0.218654926784897,2.64858320249023E-30,0.121202405061611));
#719=CARTESIAN_POINT('',(4.14463165543222,1.2,-7.9927797693161));
#720=CARTESIAN_POINT('',(4.58194150900192,1.2,-7.75037495919293));
#721=CARTESIAN_POINT('',(4.58194150900192,1.2,-7.75037495919293));
#722=CARTESIAN_POINT('',(4.58194150900192,4.6,-7.75037495919293));
#723=CARTESIAN_POINT('',(4.14463165543222,4.6,-7.9927797693161));
#724=CARTESIAN_POINT('',(4.14463165543222,4.6,-7.9927797693161));
#725=CARTESIAN_POINT('',(4.14463165543222,1.2,-7.9927797693161));
#726=CARTESIAN_POINT('',(4.14463165543222,1.2,-7.9927797693161));
#727=CARTESIAN_POINT('',(4.14463165543222,1.2,-7.9927797693161));
#728=CARTESIAN_POINT('',(4.14463165543222,4.6,-7.9927797693161));
#729=CARTESIAN_POINT('',(4.58194150900192,4.6,-7.75037495919293));
#730=CARTESIAN_POINT('',(4.87282728114972,5.2,-8.27514678347656));
#731=CARTESIAN_POINT('',(4.43551742758003,5.2,-8.51755159359973));
#732=CARTESIAN_POINT('',(4.43551742758003,5.2,-8.51755159359973));
#733=CARTESIAN_POINT('',(4.14463165543222,4.6,-7.9927797693161));
#734=CARTESIAN_POINT('',(4.43551742758003,5.2,-8.51755159359973));
#735=CARTESIAN_POINT('',(4.87282728114972,5.2,-8.27514678347656));
#736=CARTESIAN_POINT('',(5.26067497734679,5.2,-8.97484254918808));
#737=CARTESIAN_POINT('',(4.8233651237771,5.2,-9.21724735931125));
#738=CARTESIAN_POINT('',(4.8233651237771,5.2,-9.21724735931125));
#739=CARTESIAN_POINT('',(4.43551742758003,5.2,-8.51755159359973));
#740=CARTESIAN_POINT('',(4.8233651237771,5.2,-9.21724735931125));
#741=CARTESIAN_POINT('',(5.26067497734679,5.2,-8.97484254918808));
#742=CARTESIAN_POINT('',(5.5515607494946,4.6,-9.49961437347172));
#743=CARTESIAN_POINT('',(5.1142508959249,4.6,-9.74201918359489));
#744=CARTESIAN_POINT('',(5.1142508959249,4.6,-9.74201918359489));
#745=CARTESIAN_POINT('',(4.8233651237771,5.2,-9.21724735931125));
#746=CARTESIAN_POINT('',(5.1142508959249,4.6,-9.74201918359489));
#747=CARTESIAN_POINT('',(5.5515607494946,4.6,-9.49961437347172));
#748=CARTESIAN_POINT('',(5.55156074949459,1.2,-9.49961437347172));
#749=CARTESIAN_POINT('',(5.1142508959249,1.2,-9.74201918359488));
#750=CARTESIAN_POINT('',(5.1142508959249,1.2,-9.74201918359488));
#751=CARTESIAN_POINT('',(5.1142508959249,4.6,-9.74201918359489));
#752=CARTESIAN_POINT('',(5.1142508959249,1.2,-9.74201918359488));
#753=CARTESIAN_POINT('',(5.55156074949459,1.2,-9.49961437347172));
#754=CARTESIAN_POINT('',(5.1142508959249,1.2,-9.74201918359488));
#755=CARTESIAN_POINT('',(-0.218654926784804,1.00916118473884E-29,-0.12120240506156));
#756=CARTESIAN_POINT('',(0.218654926784893,1.00916118473884E-29,0.121202405061609));
#757=CARTESIAN_POINT('',(5.6843418860808E-14,-20.9,-5.75234304633909E-15));
#758=CARTESIAN_POINT('',(5.6843418860808E-14,-20.9,-5.75234304633909E-15));
#759=CARTESIAN_POINT('',(1.5029098227637,-20.9,-2.71132109213213));
#760=CARTESIAN_POINT('',(5.6843418860808E-14,-19.7,-5.75234304633909E-15));
#761=CARTESIAN_POINT('',(5.6843418860808E-14,-19.7,-5.75234304633909E-15));
#762=CARTESIAN_POINT('',(1.5029098227637,-19.7,-2.71132109213213));
#763=CARTESIAN_POINT('',(5.6843418860808E-14,-19.7,-5.75234304633909E-15));
#764=CARTESIAN_POINT('',(5.6843418860808E-14,-19.7,-5.75234304633909E-15));
#765=CARTESIAN_POINT('',(5.6843418860808E-14,-19.7,-5.75234304633909E-15));
#766=CARTESIAN_POINT('',(7.68423248090451,-19.7,-13.8627223581594));
#767=CARTESIAN_POINT('',(5.6843418860808E-14,-0.0500000000000084,-5.75234304633909E-15));
#768=CARTESIAN_POINT('',(5.6843418860808E-14,-0.0500000000000084,-5.75234304633909E-15));
#769=CARTESIAN_POINT('',(7.68423248090451,-0.0500000000000084,-13.8627223581594));
#770=CARTESIAN_POINT('',(5.6843418860808E-14,-0.0500000000000084,-5.75234304633909E-15));
#771=CARTESIAN_POINT('',(4.84809620246341,1.2,-8.74619707139391));
#772=CARTESIAN_POINT('',(4.84809620246341,1.2,-8.74619707139391));
#773=CARTESIAN_POINT('',(5.86619640498072,1.2,-10.5828984563866));
#774=CARTESIAN_POINT('',(4.84809620246341,-0.05,-8.74619707139391));
#775=CARTESIAN_POINT('',(4.84809620246341,-0.05,-8.74619707139391));
#776=CARTESIAN_POINT('',(5.86619640498072,-0.05,-10.5828984563866));
#777=CARTESIAN_POINT('',(4.84809620246341,-0.05,-8.74619707139391));
#778=CARTESIAN_POINT('',(5.6843418860808E-14,-26.9,-5.75234304633909E-15));
#779=CARTESIAN_POINT('',(5.6843418860808E-14,-26.9,-5.75234304633909E-15));
#780=CARTESIAN_POINT('',(1.39382765820828,-26.9,-2.51453165802577));
#781=CARTESIAN_POINT('',(5.6843418860808E-14,-20.9,-5.75234304633909E-15));
#782=CARTESIAN_POINT('',(5.6843418860808E-14,-20.9,-5.75234304633909E-15));
#783=CARTESIAN_POINT('',(1.39382765820828,-20.9,-2.51453165802577));
#784=CARTESIAN_POINT('',(5.6843418860808E-14,-20.9,-5.75234304633909E-15));
#785=CARTESIAN_POINT('',(-4.84809620246335,1.2,8.74619707139401));
#786=CARTESIAN_POINT('',(-4.84809620246335,1.2,8.74619707139401));
#787=CARTESIAN_POINT('',(-5.86619640498066,1.2,10.5828984563867));
#788=CARTESIAN_POINT('',(-4.84809620246335,-0.05,8.74619707139401));
#789=CARTESIAN_POINT('',(-4.84809620246335,-0.05,8.74619707139401));
#790=CARTESIAN_POINT('',(-5.86619640498066,-0.05,10.5828984563867));
#791=CARTESIAN_POINT('',(-4.84809620246335,-0.05,8.74619707139401));
#792=CARTESIAN_POINT('',(0.,3.25,0.));
#793=CARTESIAN_POINT('',(0.,3.25,0.));
#794=CARTESIAN_POINT('',(1.84227655693608,3.25,-3.3235548871297));
#795=CARTESIAN_POINT('',(0.,0.,0.));
#796=CARTESIAN_POINT('',(0.,0.,0.));
#797=CARTESIAN_POINT('',(1.84227655693608,0.,-3.3235548871297));
#798=CARTESIAN_POINT('',(0.,0.,0.));
#799=MECHANICAL_DESIGN_GEOMETRIC_PRESENTATION_REPRESENTATION('',(#432,#433,
#434,#435,#436,#437,#438,#439),#800);
#800=(
GEOMETRIC_REPRESENTATION_CONTEXT(3)
GLOBAL_UNCERTAINTY_ASSIGNED_CONTEXT((#801))
GLOBAL_UNIT_ASSIGNED_CONTEXT((#804,#803,#802))
REPRESENTATION_CONTEXT('M06-02','TOP_LEVEL_ASSEMBLY_PART')
);
#801=UNCERTAINTY_MEASURE_WITH_UNIT(LENGTH_MEASURE(0.005),#804,
'DISTANCE_ACCURACY_VALUE','Maximum Tolerance applied to model');
#802=(
NAMED_UNIT(*)
SI_UNIT($,.STERADIAN.)
SOLID_ANGLE_UNIT()
);
#803=(
NAMED_UNIT(*)
PLANE_ANGLE_UNIT()
SI_UNIT($,.RADIAN.)
);
#804=(
LENGTH_UNIT()
NAMED_UNIT(*)
SI_UNIT(.MILLI.,.METRE.)
);
#805=PRODUCT_DEFINITION_SHAPE('','',#806);
#806=PRODUCT_DEFINITION('','',#808,#807);
#807=PRODUCT_DEFINITION_CONTEXT('',#814,'design');
#808=PRODUCT_DEFINITION_FORMATION_WITH_SPECIFIED_SOURCE('','',#810,
 .NOT_KNOWN.);
#809=PRODUCT_RELATED_PRODUCT_CATEGORY('','',(#810));
#810=PRODUCT('M06-02','M06-02','M06-02',(#812));
#811=PRODUCT_CATEGORY('','');
#812=PRODUCT_CONTEXT('',#814,'mechanical');
#813=APPLICATION_PROTOCOL_DEFINITION('international standard',
'ap242_managed_model_based_3d_engineering',2020,#814);
#814=APPLICATION_CONTEXT('managed model based 3d engineering');
ENDSEC;
END-ISO-10303-21;
