ISO-10303-21;
HEADER;
/* Generated by software containing ST-Developer
 * from STEP Tools, Inc. (www.steptools.com) 
 */
/* OPTION: using custom renumber hook */

FILE_DESCRIPTION(
/* description */ (
'CAx-IF Rec.Pracs.---Representation and Presentation of Product Manufa
cturing Information (PMI)---4.0---2014-10-13',
'CAx-IF Rec.Pracs.---3D Tessellated Geometry---0.4---2014-09-14','2;1'),

/* implementation_level */ '2;1');

FILE_NAME(
/* name */ 'U01',
/* time_stamp */ '2026-04-13T01:14:50+03:00',
/* author */ (''),
/* organization */ (''),
/* preprocessor_version */ 'ST-DEVELOPER v18.102',
/* originating_system */ 'SIEMENS PLM Software NX2206.9140',
/* authorisation */ $);

FILE_SCHEMA (('AP242_MANAGED_MODEL_BASED_3D_ENGINEERING_MIM_LF { 1 0 10303 442 3 1 4 }'));
ENDSEC;

DATA;
#10=SHAPE_REPRESENTATION_RELATIONSHIP('','',#432,#11);
#11=ADVANCED_BREP_SHAPE_REPRESENTATION('',(#430),#730);
#12=CYLINDRICAL_SURFACE('',#471,163.5);
#13=CIRCLE('',#455,163.5);
#14=CIRCLE('',#465,163.5);
#15=B_SPLINE_SURFACE_WITH_KNOTS('',3,1,((#609,#610),(#611,#612),(#613,#614),
(#615,#616)),.SURF_OF_LINEAR_EXTRUSION.,.F.,.F.,.F.,(4,4),(2,2),(3.77650117043071,
3.93874707538381),(0.,1.),.PIECEWISE_BEZIER_KNOTS.);
#16=B_SPLINE_SURFACE_WITH_KNOTS('',3,1,((#624,#625),(#626,#627),(#628,#629),
(#630,#631)),.SURF_OF_LINEAR_EXTRUSION.,.F.,.F.,.F.,(4,4),(2,2),(2.34132411579908,
2.5005292242356),(0.,1.),.PIECEWISE_BEZIER_KNOTS.);
#17=LINE('',#599,#58);
#18=LINE('',#601,#59);
#19=LINE('',#603,#60);
#20=LINE('',#608,#61);
#21=LINE('',#640,#62);
#22=LINE('',#642,#63);
#23=LINE('',#644,#64);
#24=LINE('',#646,#65);
#25=LINE('',#648,#66);
#26=LINE('',#650,#67);
#27=LINE('',#652,#68);
#28=LINE('',#654,#69);
#29=LINE('',#656,#70);
#30=LINE('',#660,#71);
#31=LINE('',#662,#72);
#32=LINE('',#665,#73);
#33=LINE('',#667,#74);
#34=LINE('',#669,#75);
#35=LINE('',#671,#76);
#36=LINE('',#674,#77);
#37=LINE('',#676,#78);
#38=LINE('',#678,#79);
#39=LINE('',#680,#80);
#40=LINE('',#682,#81);
#41=LINE('',#684,#82);
#42=LINE('',#686,#83);
#43=LINE('',#690,#84);
#44=LINE('',#692,#85);
#45=LINE('',#694,#86);
#46=LINE('',#695,#87);
#47=LINE('',#697,#88);
#48=LINE('',#701,#89);
#49=LINE('',#702,#90);
#50=LINE('',#704,#91);
#51=LINE('',#708,#92);
#52=LINE('',#710,#93);
#53=LINE('',#714,#94);
#54=LINE('',#717,#95);
#55=LINE('',#721,#96);
#56=LINE('',#725,#97);
#57=LINE('',#726,#98);
#58=VECTOR('',#479,1000.);
#59=VECTOR('',#480,1000.);
#60=VECTOR('',#483,1000.);
#61=VECTOR('',#486,1000.);
#62=VECTOR('',#505,1000.);
#63=VECTOR('',#506,1000.);
#64=VECTOR('',#509,1000.);
#65=VECTOR('',#510,1000.);
#66=VECTOR('',#513,1000.);
#67=VECTOR('',#514,1000.);
#68=VECTOR('',#515,1000.);
#69=VECTOR('',#516,1000.);
#70=VECTOR('',#517,1000.);
#71=VECTOR('',#522,1000.);
#72=VECTOR('',#525,1000.);
#73=VECTOR('',#526,1000.);
#74=VECTOR('',#527,1000.);
#75=VECTOR('',#528,1000.);
#76=VECTOR('',#531,1000.);
#77=VECTOR('',#532,1000.);
#78=VECTOR('',#533,1000.);
#79=VECTOR('',#534,1000.);
#80=VECTOR('',#537,1000.);
#81=VECTOR('',#538,1000.);
#82=VECTOR('',#539,1000.);
#83=VECTOR('',#542,1000.);
#84=VECTOR('',#545,1000.);
#85=VECTOR('',#548,1000.);
#86=VECTOR('',#549,1000.);
#87=VECTOR('',#550,1000.);
#88=VECTOR('',#551,1000.);
#89=VECTOR('',#558,1000.);
#90=VECTOR('',#559,1000.);
#91=VECTOR('',#560,1000.);
#92=VECTOR('',#565,1000.);
#93=VECTOR('',#568,1000.);
#94=VECTOR('',#573,1000.);
#95=VECTOR('',#576,1000.);
#96=VECTOR('',#581,1000.);
#97=VECTOR('',#588,1000.);
#98=VECTOR('',#589,1000.);
#99=ORIENTED_EDGE('',*,*,#217,.T.);
#100=ORIENTED_EDGE('',*,*,#218,.F.);
#101=ORIENTED_EDGE('',*,*,#219,.T.);
#102=ORIENTED_EDGE('',*,*,#220,.F.);
#103=ORIENTED_EDGE('',*,*,#221,.F.);
#104=ORIENTED_EDGE('',*,*,#222,.T.);
#105=ORIENTED_EDGE('',*,*,#223,.F.);
#106=ORIENTED_EDGE('',*,*,#224,.F.);
#107=ORIENTED_EDGE('',*,*,#217,.F.);
#108=ORIENTED_EDGE('',*,*,#225,.T.);
#109=ORIENTED_EDGE('',*,*,#226,.T.);
#110=ORIENTED_EDGE('',*,*,#227,.F.);
#111=ORIENTED_EDGE('',*,*,#228,.F.);
#112=ORIENTED_EDGE('',*,*,#229,.T.);
#113=ORIENTED_EDGE('',*,*,#221,.T.);
#114=ORIENTED_EDGE('',*,*,#230,.T.);
#115=ORIENTED_EDGE('',*,*,#231,.F.);
#116=ORIENTED_EDGE('',*,*,#227,.T.);
#117=ORIENTED_EDGE('',*,*,#232,.F.);
#118=ORIENTED_EDGE('',*,*,#233,.F.);
#119=ORIENTED_EDGE('',*,*,#223,.T.);
#120=ORIENTED_EDGE('',*,*,#234,.F.);
#121=ORIENTED_EDGE('',*,*,#235,.F.);
#122=ORIENTED_EDGE('',*,*,#224,.T.);
#123=ORIENTED_EDGE('',*,*,#233,.T.);
#124=ORIENTED_EDGE('',*,*,#236,.F.);
#125=ORIENTED_EDGE('',*,*,#237,.F.);
#126=ORIENTED_EDGE('',*,*,#238,.F.);
#127=ORIENTED_EDGE('',*,*,#239,.F.);
#128=ORIENTED_EDGE('',*,*,#225,.F.);
#129=ORIENTED_EDGE('',*,*,#219,.F.);
#130=ORIENTED_EDGE('',*,*,#240,.F.);
#131=ORIENTED_EDGE('',*,*,#241,.F.);
#132=ORIENTED_EDGE('',*,*,#242,.T.);
#133=ORIENTED_EDGE('',*,*,#243,.T.);
#134=ORIENTED_EDGE('',*,*,#244,.F.);
#135=ORIENTED_EDGE('',*,*,#245,.F.);
#136=ORIENTED_EDGE('',*,*,#246,.F.);
#137=ORIENTED_EDGE('',*,*,#247,.T.);
#138=ORIENTED_EDGE('',*,*,#248,.T.);
#139=ORIENTED_EDGE('',*,*,#249,.T.);
#140=ORIENTED_EDGE('',*,*,#250,.F.);
#141=ORIENTED_EDGE('',*,*,#239,.T.);
#142=ORIENTED_EDGE('',*,*,#251,.F.);
#143=ORIENTED_EDGE('',*,*,#252,.F.);
#144=ORIENTED_EDGE('',*,*,#253,.F.);
#145=ORIENTED_EDGE('',*,*,#254,.F.);
#146=ORIENTED_EDGE('',*,*,#255,.F.);
#147=ORIENTED_EDGE('',*,*,#249,.F.);
#148=ORIENTED_EDGE('',*,*,#256,.F.);
#149=ORIENTED_EDGE('',*,*,#257,.T.);
#150=ORIENTED_EDGE('',*,*,#228,.T.);
#151=ORIENTED_EDGE('',*,*,#231,.T.);
#152=ORIENTED_EDGE('',*,*,#258,.T.);
#153=ORIENTED_EDGE('',*,*,#259,.T.);
#154=ORIENTED_EDGE('',*,*,#246,.T.);
#155=ORIENTED_EDGE('',*,*,#255,.T.);
#156=ORIENTED_EDGE('',*,*,#229,.F.);
#157=ORIENTED_EDGE('',*,*,#257,.F.);
#158=ORIENTED_EDGE('',*,*,#260,.F.);
#159=ORIENTED_EDGE('',*,*,#222,.F.);
#160=ORIENTED_EDGE('',*,*,#230,.F.);
#161=ORIENTED_EDGE('',*,*,#261,.F.);
#162=ORIENTED_EDGE('',*,*,#243,.F.);
#163=ORIENTED_EDGE('',*,*,#262,.T.);
#164=ORIENTED_EDGE('',*,*,#263,.T.);
#165=ORIENTED_EDGE('',*,*,#258,.F.);
#166=ORIENTED_EDGE('',*,*,#232,.T.);
#167=ORIENTED_EDGE('',*,*,#244,.T.);
#168=ORIENTED_EDGE('',*,*,#261,.T.);
#169=ORIENTED_EDGE('',*,*,#220,.T.);
#170=ORIENTED_EDGE('',*,*,#264,.F.);
#171=ORIENTED_EDGE('',*,*,#265,.F.);
#172=ORIENTED_EDGE('',*,*,#266,.T.);
#173=ORIENTED_EDGE('',*,*,#245,.T.);
#174=ORIENTED_EDGE('',*,*,#265,.T.);
#175=ORIENTED_EDGE('',*,*,#267,.F.);
#176=ORIENTED_EDGE('',*,*,#251,.T.);
#177=ORIENTED_EDGE('',*,*,#238,.T.);
#178=ORIENTED_EDGE('',*,*,#268,.T.);
#179=ORIENTED_EDGE('',*,*,#262,.F.);
#180=ORIENTED_EDGE('',*,*,#242,.F.);
#181=ORIENTED_EDGE('',*,*,#266,.F.);
#182=ORIENTED_EDGE('',*,*,#269,.T.);
#183=ORIENTED_EDGE('',*,*,#270,.T.);
#184=ORIENTED_EDGE('',*,*,#271,.F.);
#185=ORIENTED_EDGE('',*,*,#272,.T.);
#186=ORIENTED_EDGE('',*,*,#252,.T.);
#187=ORIENTED_EDGE('',*,*,#270,.F.);
#188=ORIENTED_EDGE('',*,*,#273,.F.);
#189=ORIENTED_EDGE('',*,*,#218,.T.);
#190=ORIENTED_EDGE('',*,*,#235,.T.);
#191=ORIENTED_EDGE('',*,*,#250,.T.);
#192=ORIENTED_EDGE('',*,*,#272,.F.);
#193=ORIENTED_EDGE('',*,*,#236,.T.);
#194=ORIENTED_EDGE('',*,*,#234,.T.);
#195=ORIENTED_EDGE('',*,*,#226,.F.);
#196=ORIENTED_EDGE('',*,*,#241,.T.);
#197=ORIENTED_EDGE('',*,*,#274,.T.);
#198=ORIENTED_EDGE('',*,*,#253,.T.);
#199=ORIENTED_EDGE('',*,*,#248,.F.);
#200=ORIENTED_EDGE('',*,*,#275,.T.);
#201=ORIENTED_EDGE('',*,*,#274,.F.);
#202=ORIENTED_EDGE('',*,*,#240,.T.);
#203=ORIENTED_EDGE('',*,*,#273,.T.);
#204=ORIENTED_EDGE('',*,*,#271,.T.);
#205=ORIENTED_EDGE('',*,*,#269,.F.);
#206=ORIENTED_EDGE('',*,*,#267,.T.);
#207=ORIENTED_EDGE('',*,*,#264,.T.);
#208=ORIENTED_EDGE('',*,*,#260,.T.);
#209=ORIENTED_EDGE('',*,*,#256,.T.);
#210=ORIENTED_EDGE('',*,*,#254,.T.);
#211=ORIENTED_EDGE('',*,*,#237,.T.);
#212=ORIENTED_EDGE('',*,*,#275,.F.);
#213=ORIENTED_EDGE('',*,*,#247,.F.);
#214=ORIENTED_EDGE('',*,*,#259,.F.);
#215=ORIENTED_EDGE('',*,*,#263,.F.);
#216=ORIENTED_EDGE('',*,*,#268,.F.);
#217=EDGE_CURVE('',#276,#277,#314,.F.);
#218=EDGE_CURVE('',#278,#277,#17,.T.);
#219=EDGE_CURVE('',#278,#276,#18,.T.);
#220=EDGE_CURVE('',#279,#280,#19,.T.);
#221=EDGE_CURVE('',#281,#279,#315,.T.);
#222=EDGE_CURVE('',#281,#280,#20,.T.);
#223=EDGE_CURVE('',#282,#283,#316,.F.);
#224=EDGE_CURVE('',#277,#282,#317,.F.);
#225=EDGE_CURVE('',#276,#284,#318,.F.);
#226=EDGE_CURVE('',#284,#283,#319,.F.);
#227=EDGE_CURVE('',#285,#286,#320,.F.);
#228=EDGE_CURVE('',#287,#285,#321,.T.);
#229=EDGE_CURVE('',#287,#281,#322,.F.);
#230=EDGE_CURVE('',#279,#286,#323,.T.);
#231=EDGE_CURVE('',#285,#288,#21,.T.);
#232=EDGE_CURVE('',#288,#286,#22,.F.);
#233=EDGE_CURVE('',#282,#289,#23,.T.);
#234=EDGE_CURVE('',#289,#283,#24,.T.);
#235=EDGE_CURVE('',#277,#290,#25,.T.);
#236=EDGE_CURVE('',#291,#289,#26,.T.);
#237=EDGE_CURVE('',#292,#291,#27,.T.);
#238=EDGE_CURVE('',#293,#292,#28,.T.);
#239=EDGE_CURVE('',#290,#293,#29,.T.);
#240=EDGE_CURVE('',#294,#278,#324,.T.);
#241=EDGE_CURVE('',#284,#294,#30,.T.);
#242=EDGE_CURVE('',#295,#296,#31,.T.);
#243=EDGE_CURVE('',#296,#297,#32,.T.);
#244=EDGE_CURVE('',#298,#297,#33,.T.);
#245=EDGE_CURVE('',#295,#298,#34,.F.);
#246=EDGE_CURVE('',#299,#300,#35,.T.);
#247=EDGE_CURVE('',#299,#301,#36,.T.);
#248=EDGE_CURVE('',#301,#302,#37,.T.);
#249=EDGE_CURVE('',#302,#300,#38,.T.);
#250=EDGE_CURVE('',#290,#303,#39,.F.);
#251=EDGE_CURVE('',#304,#293,#40,.T.);
#252=EDGE_CURVE('',#303,#304,#41,.T.);
#253=EDGE_CURVE('',#305,#302,#42,.T.);
#254=EDGE_CURVE('',#306,#305,#13,.T.);
#255=EDGE_CURVE('',#300,#306,#43,.T.);
#256=EDGE_CURVE('',#307,#306,#44,.T.);
#257=EDGE_CURVE('',#307,#287,#45,.T.);
#258=EDGE_CURVE('',#288,#308,#46,.T.);
#259=EDGE_CURVE('',#308,#299,#47,.T.);
#260=EDGE_CURVE('',#280,#307,#325,.T.);
#261=EDGE_CURVE('',#297,#279,#48,.T.);
#262=EDGE_CURVE('',#296,#309,#49,.T.);
#263=EDGE_CURVE('',#309,#308,#50,.T.);
#264=EDGE_CURVE('',#310,#280,#326,.T.);
#265=EDGE_CURVE('',#298,#310,#51,.F.);
#266=EDGE_CURVE('',#311,#295,#52,.T.);
#267=EDGE_CURVE('',#311,#310,#327,.T.);
#268=EDGE_CURVE('',#292,#309,#53,.T.);
#269=EDGE_CURVE('',#311,#312,#14,.T.);
#270=EDGE_CURVE('',#312,#304,#54,.T.);
#271=EDGE_CURVE('',#313,#312,#328,.T.);
#272=EDGE_CURVE('',#313,#303,#55,.T.);
#273=EDGE_CURVE('',#278,#313,#329,.T.);
#274=EDGE_CURVE('',#294,#305,#56,.T.);
#275=EDGE_CURVE('',#301,#291,#57,.T.);
#276=VERTEX_POINT('',#597);
#277=VERTEX_POINT('',#598);
#278=VERTEX_POINT('',#600);
#279=VERTEX_POINT('',#604);
#280=VERTEX_POINT('',#605);
#281=VERTEX_POINT('',#607);
#282=VERTEX_POINT('',#618);
#283=VERTEX_POINT('',#619);
#284=VERTEX_POINT('',#622);
#285=VERTEX_POINT('',#633);
#286=VERTEX_POINT('',#634);
#287=VERTEX_POINT('',#636);
#288=VERTEX_POINT('',#641);
#289=VERTEX_POINT('',#645);
#290=VERTEX_POINT('',#649);
#291=VERTEX_POINT('',#651);
#292=VERTEX_POINT('',#653);
#293=VERTEX_POINT('',#655);
#294=VERTEX_POINT('',#659);
#295=VERTEX_POINT('',#663);
#296=VERTEX_POINT('',#664);
#297=VERTEX_POINT('',#666);
#298=VERTEX_POINT('',#668);
#299=VERTEX_POINT('',#672);
#300=VERTEX_POINT('',#673);
#301=VERTEX_POINT('',#675);
#302=VERTEX_POINT('',#677);
#303=VERTEX_POINT('',#681);
#304=VERTEX_POINT('',#683);
#305=VERTEX_POINT('',#687);
#306=VERTEX_POINT('',#689);
#307=VERTEX_POINT('',#693);
#308=VERTEX_POINT('',#696);
#309=VERTEX_POINT('',#703);
#310=VERTEX_POINT('',#707);
#311=VERTEX_POINT('',#711);
#312=VERTEX_POINT('',#716);
#313=VERTEX_POINT('',#720);
#314=ELLIPSE('',#435,11192.2366424918,160.50004291928);
#315=ELLIPSE('',#437,11192.2366424919,160.50004291928);
#316=ELLIPSE('',#438,160.50101100034,160.5);
#317=ELLIPSE('',#439,11192.2366424918,160.50004291928);
#318=ELLIPSE('',#440,160.50101100034,160.5);
#319=ELLIPSE('',#441,53465.9401016993,160.500287817143);
#320=ELLIPSE('',#442,160.50101100034,160.5);
#321=ELLIPSE('',#443,53239.685189239,160.500281657327);
#322=ELLIPSE('',#444,160.50101100034,160.5);
#323=ELLIPSE('',#445,11192.2366424919,160.50004291928);
#324=ELLIPSE('',#450,163.501029897542,163.5);
#325=ELLIPSE('',#458,163.501029897542,163.5);
#326=ELLIPSE('',#461,163.500179648875,163.5);
#327=ELLIPSE('',#463,121703.108430845,163.5);
#328=ELLIPSE('',#467,121703.108430942,163.5);
#329=ELLIPSE('',#469,163.500179648875,163.5);
#330=EDGE_LOOP('',(#99,#100,#101));
#331=EDGE_LOOP('',(#102,#103,#104));
#332=EDGE_LOOP('',(#105,#106,#107,#108,#109));
#333=EDGE_LOOP('',(#110,#111,#112,#113,#114));
#334=EDGE_LOOP('',(#115,#116,#117));
#335=EDGE_LOOP('',(#118,#119,#120));
#336=EDGE_LOOP('',(#121,#122,#123,#124,#125,#126,#127));
#337=EDGE_LOOP('',(#128,#129,#130,#131));
#338=EDGE_LOOP('',(#132,#133,#134,#135));
#339=EDGE_LOOP('',(#136,#137,#138,#139));
#340=EDGE_LOOP('',(#140,#141,#142,#143));
#341=EDGE_LOOP('',(#144,#145,#146,#147));
#342=EDGE_LOOP('',(#148,#149,#150,#151,#152,#153,#154,#155));
#343=EDGE_LOOP('',(#156,#157,#158,#159));
#344=EDGE_LOOP('',(#160,#161,#162,#163,#164,#165,#166));
#345=EDGE_LOOP('',(#167,#168,#169,#170,#171));
#346=EDGE_LOOP('',(#172,#173,#174,#175));
#347=EDGE_LOOP('',(#176,#177,#178,#179,#180,#181,#182,#183));
#348=EDGE_LOOP('',(#184,#185,#186,#187));
#349=EDGE_LOOP('',(#188,#189,#190,#191,#192));
#350=EDGE_LOOP('',(#193,#194,#195,#196,#197,#198,#199,#200));
#351=EDGE_LOOP('',(#201,#202,#203,#204,#205,#206,#207,#208,#209,#210));
#352=EDGE_LOOP('',(#211,#212,#213,#214,#215,#216));
#353=FACE_BOUND('',#330,.T.);
#354=FACE_BOUND('',#331,.T.);
#355=FACE_BOUND('',#332,.T.);
#356=FACE_BOUND('',#333,.T.);
#357=FACE_BOUND('',#334,.T.);
#358=FACE_BOUND('',#335,.T.);
#359=FACE_BOUND('',#336,.T.);
#360=FACE_BOUND('',#337,.T.);
#361=FACE_BOUND('',#338,.T.);
#362=FACE_BOUND('',#339,.T.);
#363=FACE_BOUND('',#340,.T.);
#364=FACE_BOUND('',#341,.T.);
#365=FACE_BOUND('',#342,.T.);
#366=FACE_BOUND('',#343,.T.);
#367=FACE_BOUND('',#344,.T.);
#368=FACE_BOUND('',#345,.T.);
#369=FACE_BOUND('',#346,.T.);
#370=FACE_BOUND('',#347,.T.);
#371=FACE_BOUND('',#348,.T.);
#372=FACE_BOUND('',#349,.T.);
#373=FACE_BOUND('',#350,.T.);
#374=FACE_BOUND('',#351,.T.);
#375=FACE_BOUND('',#352,.T.);
#376=PLANE('',#434);
#377=PLANE('',#436);
#378=PLANE('',#446);
#379=PLANE('',#447);
#380=PLANE('',#448);
#381=PLANE('',#449);
#382=PLANE('',#451);
#383=PLANE('',#452);
#384=PLANE('',#453);
#385=PLANE('',#454);
#386=PLANE('',#456);
#387=PLANE('',#457);
#388=PLANE('',#459);
#389=PLANE('',#460);
#390=PLANE('',#462);
#391=PLANE('',#464);
#392=PLANE('',#466);
#393=PLANE('',#468);
#394=PLANE('',#470);
#395=PLANE('',#472);
#396=ADVANCED_FACE('',(#353),#376,.T.);
#397=ADVANCED_FACE('',(#354),#377,.T.);
#398=ADVANCED_FACE('',(#355),#15,.F.);
#399=ADVANCED_FACE('',(#356),#16,.F.);
#400=ADVANCED_FACE('',(#357),#378,.F.);
#401=ADVANCED_FACE('',(#358),#379,.F.);
#402=ADVANCED_FACE('',(#359),#380,.F.);
#403=ADVANCED_FACE('',(#360),#381,.F.);
#404=ADVANCED_FACE('',(#361),#382,.F.);
#405=ADVANCED_FACE('',(#362),#383,.F.);
#406=ADVANCED_FACE('',(#363),#384,.F.);
#407=ADVANCED_FACE('',(#364),#385,.F.);
#408=ADVANCED_FACE('',(#365),#386,.F.);
#409=ADVANCED_FACE('',(#366),#387,.F.);
#410=ADVANCED_FACE('',(#367),#388,.F.);
#411=ADVANCED_FACE('',(#368),#389,.F.);
#412=ADVANCED_FACE('',(#369),#390,.F.);
#413=ADVANCED_FACE('',(#370),#391,.T.);
#414=ADVANCED_FACE('',(#371),#392,.F.);
#415=ADVANCED_FACE('',(#372),#393,.F.);
#416=ADVANCED_FACE('',(#373),#394,.F.);
#417=ADVANCED_FACE('',(#374),#12,.T.);
#418=ADVANCED_FACE('',(#375),#395,.T.);
#419=CLOSED_SHELL('',(#396,#397,#398,#399,#400,#401,#402,#403,#404,#405,
#406,#407,#408,#409,#410,#411,#412,#413,#414,#415,#416,#417,#418));
#420=STYLED_ITEM('',(#421),#430);
#421=PRESENTATION_STYLE_ASSIGNMENT((#422));
#422=SURFACE_STYLE_USAGE(.BOTH.,#423);
#423=SURFACE_SIDE_STYLE('',(#426,#424));
#424=SURFACE_STYLE_RENDERING_WITH_PROPERTIES(.CONSTANT_SHADING.,#429,(#425));
#425=SURFACE_STYLE_TRANSPARENT(0.51);
#426=SURFACE_STYLE_FILL_AREA(#427);
#427=FILL_AREA_STYLE('',(#428));
#428=FILL_AREA_STYLE_COLOUR('',#429);
#429=COLOUR_RGB('',0.2,0.6,1.);
#430=MANIFOLD_SOLID_BREP('Body (7)',#419);
#431=SHAPE_DEFINITION_REPRESENTATION(#735,#432);
#432=SHAPE_REPRESENTATION('U01',(#433),#730);
#433=AXIS2_PLACEMENT_3D('',#594,#473,#474);
#434=AXIS2_PLACEMENT_3D('',#595,#475,#476);
#435=AXIS2_PLACEMENT_3D('',#596,#477,#478);
#436=AXIS2_PLACEMENT_3D('',#602,#481,#482);
#437=AXIS2_PLACEMENT_3D('',#606,#484,#485);
#438=AXIS2_PLACEMENT_3D('',#617,#487,#488);
#439=AXIS2_PLACEMENT_3D('',#620,#489,#490);
#440=AXIS2_PLACEMENT_3D('',#621,#491,#492);
#441=AXIS2_PLACEMENT_3D('',#623,#493,#494);
#442=AXIS2_PLACEMENT_3D('',#632,#495,#496);
#443=AXIS2_PLACEMENT_3D('',#635,#497,#498);
#444=AXIS2_PLACEMENT_3D('',#637,#499,#500);
#445=AXIS2_PLACEMENT_3D('',#638,#501,#502);
#446=AXIS2_PLACEMENT_3D('',#639,#503,#504);
#447=AXIS2_PLACEMENT_3D('',#643,#507,#508);
#448=AXIS2_PLACEMENT_3D('',#647,#511,#512);
#449=AXIS2_PLACEMENT_3D('',#657,#518,#519);
#450=AXIS2_PLACEMENT_3D('',#658,#520,#521);
#451=AXIS2_PLACEMENT_3D('',#661,#523,#524);
#452=AXIS2_PLACEMENT_3D('',#670,#529,#530);
#453=AXIS2_PLACEMENT_3D('',#679,#535,#536);
#454=AXIS2_PLACEMENT_3D('',#685,#540,#541);
#455=AXIS2_PLACEMENT_3D('',#688,#543,#544);
#456=AXIS2_PLACEMENT_3D('',#691,#546,#547);
#457=AXIS2_PLACEMENT_3D('',#698,#552,#553);
#458=AXIS2_PLACEMENT_3D('',#699,#554,#555);
#459=AXIS2_PLACEMENT_3D('',#700,#556,#557);
#460=AXIS2_PLACEMENT_3D('',#705,#561,#562);
#461=AXIS2_PLACEMENT_3D('',#706,#563,#564);
#462=AXIS2_PLACEMENT_3D('',#709,#566,#567);
#463=AXIS2_PLACEMENT_3D('',#712,#569,#570);
#464=AXIS2_PLACEMENT_3D('',#713,#571,#572);
#465=AXIS2_PLACEMENT_3D('',#715,#574,#575);
#466=AXIS2_PLACEMENT_3D('',#718,#577,#578);
#467=AXIS2_PLACEMENT_3D('',#719,#579,#580);
#468=AXIS2_PLACEMENT_3D('',#722,#582,#583);
#469=AXIS2_PLACEMENT_3D('',#723,#584,#585);
#470=AXIS2_PLACEMENT_3D('',#724,#586,#587);
#471=AXIS2_PLACEMENT_3D('',#727,#590,#591);
#472=AXIS2_PLACEMENT_3D('',#728,#592,#593);
#473=DIRECTION('',(0.,0.,1.));
#474=DIRECTION('',(1.,0.,0.));
#475=DIRECTION('',(0.0178131475136772,-0.999827659800288,-0.00522900314933207));
#476=DIRECTION('',(-0.0236336374940794,-0.00564942224377291,0.9997047240096));
#477=DIRECTION('',(0.0178131475136772,-0.999827659800288,-0.00522900314933207));
#478=DIRECTION('',(-0.999841065821413,-0.0178090736965598,-0.000824615771630833));
#479=DIRECTION('',(0.000755069294967317,0.00524328356954797,-0.999985968825448));
#480=DIRECTION('',(0.000731313528350538,0.00524286043557053,-0.99998598869933));
#481=DIRECTION('',(0.0178131475136772,0.999827659800288,-0.00522900314933207));
#482=DIRECTION('',(-0.0236336374940794,0.00564942224377291,0.9997047240096));
#483=DIRECTION('',(-0.000755069294967317,0.00524328356954797,0.999985968825448));
#484=DIRECTION('',(0.0178131475136772,0.999827659800288,-0.00522900314933207));
#485=DIRECTION('',(0.999841065821413,-0.0178090736965598,0.000824615771630836));
#486=DIRECTION('',(-0.000731313528350538,0.00524286043557053,0.99998598869933));
#487=DIRECTION('',(0.999993700972143,0.00346933031535991,0.000749508638025459));
#488=DIRECTION('',(0.00354936839952548,-0.977443891823758,-0.211165433535867));
#489=DIRECTION('',(0.0178131475136772,-0.999827659800288,-0.00522900314933207));
#490=DIRECTION('',(-0.999841065821413,-0.0178090736965598,-0.000824615771630833));
#491=DIRECTION('',(0.999993700972143,0.00346933031535991,0.000749508638025459));
#492=DIRECTION('',(0.00354936839952548,-0.977443891823758,-0.211165433535867));
#493=DIRECTION('',(4.82947015711943E-15,-0.939360993917921,0.342929909902206));
#494=DIRECTION('',(-0.999998206782318,-0.000649436472238321,-0.00177895036982206));
#495=DIRECTION('',(0.999993700972143,-0.00346933031535991,0.000749508638025459));
#496=DIRECTION('',(0.00354936839952548,0.977443891823744,-0.211165433535932));
#497=DIRECTION('',(5.6621374255883E-15,0.941662056891231,0.336559906422878));
#498=DIRECTION('',(-0.999998245160666,0.000630515642971563,-0.00176412176829815));
#499=DIRECTION('',(0.999993700972143,-0.00346933031535991,0.000749508638025459));
#500=DIRECTION('',(0.00354936839952548,0.977443891823744,-0.211165433535932));
#501=DIRECTION('',(0.0178131475136772,0.999827659800288,-0.00522900314933207));
#502=DIRECTION('',(0.999841065821413,-0.0178090736965598,0.000824615771630836));
#503=DIRECTION('',(0.999993700972143,-0.00346933031535991,0.000749508638025459));
#504=DIRECTION('',(-0.00227126587058701,-0.463201650828453,0.886250005371589));
#505=DIRECTION('',(0.00187342984520196,0.33655931580358,-0.941660404395577));
#506=DIRECTION('',(0.000731313528350538,-0.00524286043557053,-0.99998598869933));
#507=DIRECTION('',(0.999993700972143,0.00346933031535991,0.000749508638025459));
#508=DIRECTION('',(-0.00227126587058701,0.463201650828453,0.886250005371589));
#509=DIRECTION('',(0.000731313528350538,0.00524286043557053,-0.99998598869933));
#510=DIRECTION('',(-0.00189380484471226,0.342929294943144,0.939359309408816));
#511=DIRECTION('',(0.0178131475136772,-0.999827659800288,-0.00522900314933207));
#512=DIRECTION('',(-0.0236336374940794,-0.00564942224377291,0.9997047240096));
#513=DIRECTION('',(0.000755069294967317,0.00524328356954797,-0.999985968825448));
#514=DIRECTION('',(0.998690872835931,0.017541595703177,0.0480503166939767));
#515=DIRECTION('',(0.769909587620404,0.0170531642905784,-0.637925086885489));
#516=DIRECTION('',(-2.48635508164729E-16,0.00522983294966635,-0.999986324330147));
#517=DIRECTION('',(-0.548885672154983,-0.00540749452428143,-0.835879942279956));
#518=DIRECTION('',(0.999993700972143,0.00346933031535991,0.000749508638025459));
#519=DIRECTION('',(-0.00227126587058701,0.463201650828453,0.886250005371589));
#520=DIRECTION('',(0.999993700972143,0.00346933031535991,0.000749508638025459));
#521=DIRECTION('',(0.00354936839952548,-0.977443891823758,-0.211165433535867));
#522=DIRECTION('',(-0.00189380484471226,0.342929294943144,0.939359309408816));
#523=DIRECTION('',(0.798484769143489,0.299209493559323,-0.522394249977777));
#524=DIRECTION('',(0.101319592609523,0.788573704361204,0.606535945302081));
#525=DIRECTION('',(6.85236058709512E-17,-0.867742897518355,-0.497013343690539));
#526=DIRECTION('',(0.548885672154983,-0.00540749452428143,0.835879942279956));
#527=DIRECTION('',(-0.000723688527679284,-0.867265203898967,-0.497845902243855));
#528=DIRECTION('',(-0.471181206194118,-0.229501422872806,-0.851655662711646));
#529=DIRECTION('',(1.54459778300975E-14,9.29811783123569E-16,1.));
#530=DIRECTION('',(-0.703141377270524,0.711050071071025,1.02140518265514E-14));
#531=DIRECTION('',(1.,-5.55111512312578E-16,-1.54390389361936E-14));
#532=DIRECTION('',(-2.22044604925032E-16,1.,-9.29811783123565E-16));
#533=DIRECTION('',(1.,-5.55111512312578E-16,-1.54390389361936E-14));
#534=DIRECTION('',(-2.22044604925031E-16,-1.,9.22872889219661E-16));
#535=DIRECTION('',(0.798484769143489,-0.299209493559323,-0.522394249977777));
#536=DIRECTION('',(0.101319592609523,-0.788573704361204,0.606535945302081));
#537=DIRECTION('',(-0.000723688527679284,0.867265203898967,-0.497845902243855));
#538=DIRECTION('',(6.85236058709512E-17,0.867742897518355,-0.497013343690539));
#539=DIRECTION('',(-0.471181206194118,0.229501422872806,-0.851655662711646));
#540=DIRECTION('',(-1.,-2.22044604925031E-16,2.4980018054066E-16));
#541=DIRECTION('',(3.88578058618805E-16,-0.978951083706802,0.204095016375406));
#542=DIRECTION('',(-1.55431223447522E-14,-0.342929909902206,-0.939360993917921));
#543=DIRECTION('',(-1.,-2.22044604925031E-16,2.4980018054066E-16));
#544=DIRECTION('',(3.33066907387547E-16,-0.999088508172266,0.0426866822102056));
#545=DIRECTION('',(1.47104550762833E-14,-0.336559906422878,0.941662056891231));
#546=DIRECTION('',(5.6621374255883E-15,0.941662056891231,0.336559906422878));
#547=DIRECTION('',(-0.944116034423906,0.110934614259681,-0.310384318068317));
#548=DIRECTION('',(1.,-5.55111512312578E-16,-1.54390389361936E-14));
#549=DIRECTION('',(0.00187342984520196,0.33655931580358,-0.941660404395577));
#550=DIRECTION('',(-0.998641770975807,0.0175354276377033,-0.049062430024074));
#551=DIRECTION('',(0.750749568510386,0.222327073636829,-0.622049642480046));
#552=DIRECTION('',(0.999993700972143,-0.00346933031535991,0.000749508638025459));
#553=DIRECTION('',(-0.00227126587058701,-0.463201650828453,0.886250005371589));
#554=DIRECTION('',(0.999993700972143,-0.00346933031535991,0.000749508638025459));
#555=DIRECTION('',(0.00354936839952548,0.977443891823744,-0.211165433535932));
#556=DIRECTION('',(0.0178131475136772,0.999827659800288,-0.00522900314933207));
#557=DIRECTION('',(-0.0236336374940794,0.00564942224377291,0.9997047240096));
#558=DIRECTION('',(-0.000755069294967317,0.00524328356954797,0.999985968825448));
#559=DIRECTION('',(-2.48635508164729E-16,-0.00522983294966635,-0.999986324330147));
#560=DIRECTION('',(0.769909587620404,-0.0170531642905784,-0.637925086885489));
#561=DIRECTION('',(0.999998901231329,-0.00127172222129745,0.000761747153756069));
#562=DIRECTION('',(0.00126610062612028,0.999972293759753,0.00733544150435162));
#563=DIRECTION('',(0.999998901231329,-0.00127172222129745,0.000761747153756069));
#564=DIRECTION('',(0.00148240889581694,0.857874522711315,-0.513857086889632));
#565=DIRECTION('',(0.000405638472271187,-0.259501392321278,-0.965742648349315));
#566=DIRECTION('',(-0.00134343322950808,0.965741714894398,-0.259501705774714));
#567=DIRECTION('',(-0.49771421674626,0.224430887057734,0.837801489246191));
#568=DIRECTION('',(-1.83621666701595E-16,-0.259501939951037,-0.965742586387102));
#569=DIRECTION('',(-0.00134343322950808,0.965741714894398,-0.259501705774714));
#570=DIRECTION('',(0.999999097593172,0.00129741068169961,-0.000348623529266573));
#571=DIRECTION('',(-1.,-2.22044604925031E-16,2.4980018054066E-16));
#572=DIRECTION('',(3.88578058618805E-16,-0.978951083706802,0.204095016375406));
#573=DIRECTION('',(2.22044604925032E-16,-1.,9.29811783123565E-16));
#574=DIRECTION('',(-1.,-2.22044604925031E-16,2.4980018054066E-16));
#575=DIRECTION('',(2.4980018054066E-16,0.,1.));
#576=DIRECTION('',(-1.83621666701595E-16,0.259501939951037,-0.965742586387102));
#577=DIRECTION('',(-0.00134343322950808,-0.965741714894398,-0.259501705774714));
#578=DIRECTION('',(-0.49771421674626,-0.224430887057734,0.837801489246191));
#579=DIRECTION('',(-0.00134343322950808,-0.965741714894398,-0.259501705774714));
#580=DIRECTION('',(0.999999097593172,-0.00129741068169968,-0.000348623529266295));
#581=DIRECTION('',(0.000405638472271187,0.259501392321278,-0.965742648349315));
#582=DIRECTION('',(0.999998901231329,0.00127172222129745,0.000761747153756069));
#583=DIRECTION('',(0.00126610062612028,-0.999972293759753,0.00733544150435162));
#584=DIRECTION('',(0.999998901231329,0.00127172222129745,0.000761747153756069));
#585=DIRECTION('',(0.00148240889581694,-0.857874522711513,-0.513857086889302));
#586=DIRECTION('',(4.82947015711943E-15,-0.939360993917921,0.342929909902206));
#587=DIRECTION('',(0.957564472630581,0.0988389685271417,0.270741831005497));
#588=DIRECTION('',(1.,-5.55111512312578E-16,-1.54390389361936E-14));
#589=DIRECTION('',(-0.749947362164837,0.226847281050129,0.621384957222305));
#590=DIRECTION('',(1.,-5.55111512312578E-16,-1.54390389361936E-14));
#591=DIRECTION('',(-2.60902410786912E-15,0.978951083706802,-0.204095016375407));
#592=DIRECTION('',(-0.63801786475033,-8.57643545302786E-16,-0.770021560905557));
#593=DIRECTION('',(-2.22044604925032E-16,1.,-9.29811783123565E-16));
#594=CARTESIAN_POINT('',(0.,0.,0.));
#595=CARTESIAN_POINT('',(-50.693782158167,85.3861956796145,37.943035688891));
#596=CARTESIAN_POINT('',(-6051.3890323814,-21.0478172014495,-53.0111368825095));
#597=CARTESIAN_POINT('',(-49.3931732451655,85.1507246117164,87.3976674431633));
#598=CARTESIAN_POINT('',(-49.3930827346322,85.1507262281959,87.3976666928472));
#599=CARTESIAN_POINT('',(-49.3997722741542,85.1042733358622,96.2570464934758));
#600=CARTESIAN_POINT('',(-49.3957706230171,85.132103747949,90.9492788380728));
#601=CARTESIAN_POINT('',(-49.3639538956374,85.3602010751651,47.4436135473712));
#602=CARTESIAN_POINT('',(-50.693782158167,-85.3861956796145,37.943035688891));
#603=CARTESIAN_POINT('',(-49.3997722741542,-85.1042733358622,96.2570464934758));
#604=CARTESIAN_POINT('',(-49.3932829860049,-85.1493356608145,87.6628722366052));
#605=CARTESIAN_POINT('',(-49.395959563197,-85.1307492167453,91.2076325061922));
#606=CARTESIAN_POINT('',(-6021.94827414934,20.5234096458328,-52.9890695428896));
#607=CARTESIAN_POINT('',(-49.3933671962419,-85.1493341568831,87.6628729294233));
#608=CARTESIAN_POINT('',(-49.3639538956374,-85.3602010751651,47.4436135473712));
#609=CARTESIAN_POINT('',(-49.4537759518862,105.983718026175,71.8218487807726));
#610=CARTESIAN_POINT('',(-45.9177310998863,105.995985811052,71.824499093628));
#611=CARTESIAN_POINT('',(-49.4355028577441,99.4758124348736,77.565738710363));
#612=CARTESIAN_POINT('',(-45.8994580057443,99.4880802197502,77.5683890232184));
#613=CARTESIAN_POINT('',(-49.4152132894017,92.5010011344401,82.7804668033764));
#614=CARTESIAN_POINT('',(-45.8791684374019,92.5132689193168,82.7831171162318));
#615=CARTESIAN_POINT('',(-49.3931732451673,85.1507246117166,87.3976674431632));
#616=CARTESIAN_POINT('',(-45.8571283931675,85.1629923965932,87.4003177560186));
#617=CARTESIAN_POINT('',(-45.4590691846846,-0.211131057336218,-48.5096121404878));
#618=CARTESIAN_POINT('',(-45.857280953982,85.2138742077001,87.3683421989435));
#619=CARTESIAN_POINT('',(-45.9173799108926,105.870941768364,71.9347477316247));
#620=CARTESIAN_POINT('',(-6051.3890323814,-21.0478172014495,-53.0111368825095));
#621=CARTESIAN_POINT('',(-48.995114036682,-0.223398842212844,-48.5122624533433));
#622=CARTESIAN_POINT('',(-49.4534487832247,105.86722468022,71.9245658037327));
#623=CARTESIAN_POINT('',(19390.4120121714,67.2187504333411,-33.9421671167203));
#624=CARTESIAN_POINT('',(-49.3933671962419,-85.1493341568831,87.6628729294233));
#625=CARTESIAN_POINT('',(-45.8573223442449,-85.1616019417597,87.6655232422787));
#626=CARTESIAN_POINT('',(-49.4150598468863,-92.3759265552071,83.1546899531271));
#627=CARTESIAN_POINT('',(-45.8790149948892,-92.3881943400837,83.1573402659825));
#628=CARTESIAN_POINT('',(-49.4350725509166,-99.2428227239378,78.0700880052152));
#629=CARTESIAN_POINT('',(-45.8990276989195,-99.2550905088144,78.0727383180706));
#630=CARTESIAN_POINT('',(-49.453152645258,-105.663327177137,72.4732608678337));
#631=CARTESIAN_POINT('',(-45.9171077932609,-105.675594962014,72.4759111806892));
#632=CARTESIAN_POINT('',(-45.460534160668,-0.211131057336218,-48.5096121404878));
#633=CARTESIAN_POINT('',(-45.9167597582518,-105.55203219809,72.5835113094171));
#634=CARTESIAN_POINT('',(-45.857475066936,-85.2124825923575,87.6337690325233));
#635=CARTESIAN_POINT('',(19339.6912180451,-67.4650493334206,-33.9801819314896));
#636=CARTESIAN_POINT('',(-49.4528289387843,-105.548399848947,72.5733483479379));
#637=CARTESIAN_POINT('',(-48.9965790126654,-0.198863272459593,-48.5122624533433));
#638=CARTESIAN_POINT('',(-6021.94827414934,20.5234096458328,-52.9890695428896));
#639=CARTESIAN_POINT('',(-45.8452583433777,-90.3675456079375,47.4724400294654));
#640=CARTESIAN_POINT('',(-45.7723278556038,-79.6050225142619,-0.0137114814367813));
#641=CARTESIAN_POINT('',(-45.8056110201691,-85.5843011739662,16.7157317290341));
#642=CARTESIAN_POINT('',(-45.8211379910767,-85.4729867536798,37.9470542092823));
#643=CARTESIAN_POINT('',(-45.8452583433777,90.3675456079375,47.4724400294654));
#644=CARTESIAN_POINT('',(-45.8211379910767,85.4729867536798,37.9470542092823));
#645=CARTESIAN_POINT('',(-45.8053582577906,85.5861132529482,16.3701086450857));
#646=CARTESIAN_POINT('',(-45.9234416598404,106.96860043081,74.9414779769748));
#647=CARTESIAN_POINT('',(-50.693782158167,85.3861956796145,37.943035688891));
#648=CARTESIAN_POINT('',(-49.3997722741542,85.1042733358622,96.2570464934758));
#649=CARTESIAN_POINT('',(-49.3818741726948,85.2285597052502,72.5534600183749));
#650=CARTESIAN_POINT('',(-34.834376091125,85.778814056439,16.897958835661));
#651=CARTESIAN_POINT('',(-46.8938229473636,85.5669948169627,16.3177390135342));
#652=CARTESIAN_POINT('',(-63.3162196284499,85.2032458350683,29.9248676921491));
#653=CARTESIAN_POINT('',(-62.1999999999954,85.2279696169441,29.0000000000009));
#654=CARTESIAN_POINT('',(-62.1999999999954,85.6310010882991,-48.0628743802057));
#655=CARTESIAN_POINT('',(-62.1999999999954,85.1022784981811,53.0331576672581));
#656=CARTESIAN_POINT('',(-51.3881991611546,85.2087938561137,69.4980936631842));
#657=CARTESIAN_POINT('',(-49.3813031953751,90.3552778230609,47.46978971661));
#658=CARTESIAN_POINT('',(-48.995158584393,-0.211131057336216,-48.5096121404878));
#659=CARTESIAN_POINT('',(-49.4595594770488,106.97374625841,74.9555735387467));
#660=CARTESIAN_POINT('',(-49.4595183773755,106.966303948808,74.9351874040216));
#661=CARTESIAN_POINT('',(-55.4784929308547,-69.42559259033,72.2861151261194));
#662=CARTESIAN_POINT('',(-62.1999999999954,-64.9744798237575,64.5616697978845));
#663=CARTESIAN_POINT('',(-62.1999999999954,-48.8811792555989,73.7793599100968));
#664=CARTESIAN_POINT('',(-62.1999999999954,-85.1022784981811,53.0331576672581));
#665=CARTESIAN_POINT('',(-51.3881991611546,-85.2087938561137,69.4980936631842));
#666=CARTESIAN_POINT('',(-49.3818741726948,-85.2285597052502,72.5534600183749));
#667=CARTESIAN_POINT('',(-49.3720552717693,-73.4616312719549,79.3081609751024));
#668=CARTESIAN_POINT('',(-49.3463198809865,-42.6204501821877,97.0122675815632));
#669=CARTESIAN_POINT('',(-47.213846016794,-41.5817716872954,100.866694324713));
#670=CARTESIAN_POINT('',(-38.,79.609923141696,5.03069808033274E-13));
#671=CARTESIAN_POINT('',(-38.,-79.6099231416959,6.52256026967279E-13));
#672=CARTESIAN_POINT('',(-27.1999999999954,-79.6099231416959,4.85514406456318E-13));
#673=CARTESIAN_POINT('',(0.,-79.609923141696,6.93889390390723E-14));
#674=CARTESIAN_POINT('',(-27.1999999999954,79.609923141696,3.36253247468151E-13));
#675=CARTESIAN_POINT('',(-27.1999999999954,79.609923141696,2.70408695435196E-13));
#676=CARTESIAN_POINT('',(-37.9999999999999,79.609923141696,4.37150315946155E-13));
#677=CARTESIAN_POINT('',(5.55111512312578E-14,79.609923141696,-1.52655665885959E-13));
#678=CARTESIAN_POINT('',(2.77555756156289E-14,79.609923141696,-8.67361737988404E-14));
#679=CARTESIAN_POINT('',(-55.4784929308547,69.42559259033,72.2861151261194));
#680=CARTESIAN_POINT('',(-49.3720552717693,73.4616312719549,79.3081609751024));
#681=CARTESIAN_POINT('',(-49.3463198809865,42.6204501821877,97.0122675815632));
#682=CARTESIAN_POINT('',(-62.1999999999954,64.9744798237575,64.5616697978845));
#683=CARTESIAN_POINT('',(-62.1999999999954,48.8811792555989,73.7793599100968));
#684=CARTESIAN_POINT('',(-47.213846016794,41.5817716872954,100.866694324713));
#685=CARTESIAN_POINT('',(4.55191440096314E-12,-0.211131057336222,-48.5096121404885));
#686=CARTESIAN_POINT('',(1.27675647831893E-12,106.97374625841,74.9555735387459));
#687=CARTESIAN_POINT('',(1.27675647831893E-12,106.97374625841,74.9555735387459));
#688=CARTESIAN_POINT('',(4.55191440096314E-12,-0.211131057336222,-48.5096121404885));
#689=CARTESIAN_POINT('',(1.16573417585641E-12,-106.634614981585,75.6124732006166));
#690=CARTESIAN_POINT('',(0.,-79.6099231416959,2.08166817117217E-14));
#691=CARTESIAN_POINT('',(-38.,-79.6099231416959,6.10622663543836E-13));
#692=CARTESIAN_POINT('',(-37.9999999999988,-106.634614981585,75.6124732006171));
#693=CARTESIAN_POINT('',(-49.4588752662902,-106.634614981585,75.6124732006173));
#694=CARTESIAN_POINT('',(-49.30840484456,-79.6027929382298,-0.0199496194690445));
#695=CARTESIAN_POINT('',(-38.9448107113928,-85.7047718681108,17.0527970760299));
#696=CARTESIAN_POINT('',(-47.286359746433,-85.558300296681,16.6429837899063));
#697=CARTESIAN_POINT('',(-47.2173659517174,-85.5378684654531,16.5858175028561));
#698=CARTESIAN_POINT('',(-49.3813031953751,-90.3552778230609,47.46978971661));
#699=CARTESIAN_POINT('',(-48.9966235603763,-0.211131057336216,-48.5096121404878));
#700=CARTESIAN_POINT('',(-50.693782158167,-85.3861956796145,37.943035688891));
#701=CARTESIAN_POINT('',(-49.3997722741542,-85.1042733358622,96.2570464934758));
#702=CARTESIAN_POINT('',(-62.1999999999954,-85.6310010882991,-48.0628743802057));
#703=CARTESIAN_POINT('',(-62.1999999999954,-85.2279696169441,29.000000000001));
#704=CARTESIAN_POINT('',(-63.3162196284499,-85.2032458350683,29.9248676921491));
#705=CARTESIAN_POINT('',(-49.3615914900711,-55.1753909627477,96.1001475039346));
#706=CARTESIAN_POINT('',(-49.1815359487184,-0.211131057336216,-48.5096121404878));
#707=CARTESIAN_POINT('',(-49.3519057694758,-39.0469581703739,110.311131254216));
#708=CARTESIAN_POINT('',(-49.3494971841919,-40.5878160461483,104.576779879954));
#709=CARTESIAN_POINT('',(-54.4000797339919,-40.5949003771861,104.576562102659));
#710=CARTESIAN_POINT('',(-62.1999999999954,-76.2507700332765,-28.0772173123245));
#711=CARTESIAN_POINT('',(-62.1999999999954,-39.0660883121285,110.306452212991));
#712=CARTESIAN_POINT('',(58546.5130542247,-0.211131057368743,-48.5096121413925));
#713=CARTESIAN_POINT('',(-62.1999999999955,-0.211131057336228,-48.509612140488));
#714=CARTESIAN_POINT('',(-62.1999999999954,-79.6099231416959,29.000000000001));
#715=CARTESIAN_POINT('',(-62.1999999999955,-0.211131057336209,-48.5096121404876));
#716=CARTESIAN_POINT('',(-62.1999999999954,39.0959976131222,110.195144044335));
#717=CARTESIAN_POINT('',(-62.1999999999954,76.2507700332765,-28.0772173123245));
#718=CARTESIAN_POINT('',(-54.4000797339919,40.5949003771861,104.576562102659));
#719=CARTESIAN_POINT('',(58850.0608077458,-0.211131057368912,-48.5096121413971));
#720=CARTESIAN_POINT('',(-49.3518590429915,39.0768507682564,110.19988500468));
#721=CARTESIAN_POINT('',(-49.3494971841919,40.5878160461483,104.576779879954));
#722=CARTESIAN_POINT('',(-49.3615914900711,55.1753909627477,96.1001475039346));
#723=CARTESIAN_POINT('',(-49.1809989480139,-0.211131057336216,-48.5096121404878));
#724=CARTESIAN_POINT('',(-37.9999999999987,106.97374625841,74.9555735387465));
#725=CARTESIAN_POINT('',(-37.9999999999987,106.97374625841,74.9555735387465));
#726=CARTESIAN_POINT('',(-46.819472174333,85.5445048775924,16.2561340873089));
#727=CARTESIAN_POINT('',(-37.9999999999955,-0.211131057336222,-48.509612140488));
#728=CARTESIAN_POINT('',(-62.1999999999954,-0.211131057336156,29.0000000000009));
#729=MECHANICAL_DESIGN_GEOMETRIC_PRESENTATION_REPRESENTATION('',(#420),
#730);
#730=(
GEOMETRIC_REPRESENTATION_CONTEXT(3)
GLOBAL_UNCERTAINTY_ASSIGNED_CONTEXT((#731))
GLOBAL_UNIT_ASSIGNED_CONTEXT((#734,#733,#732))
REPRESENTATION_CONTEXT('U01','TOP_LEVEL_ASSEMBLY_PART')
);
#731=UNCERTAINTY_MEASURE_WITH_UNIT(LENGTH_MEASURE(0.005),#734,
'DISTANCE_ACCURACY_VALUE','Maximum Tolerance applied to model');
#732=(
NAMED_UNIT(*)
SI_UNIT($,.STERADIAN.)
SOLID_ANGLE_UNIT()
);
#733=(
NAMED_UNIT(*)
PLANE_ANGLE_UNIT()
SI_UNIT($,.RADIAN.)
);
#734=(
LENGTH_UNIT()
NAMED_UNIT(*)
SI_UNIT(.MILLI.,.METRE.)
);
#735=PRODUCT_DEFINITION_SHAPE('','',#736);
#736=PRODUCT_DEFINITION('','',#738,#737);
#737=PRODUCT_DEFINITION_CONTEXT('',#744,'design');
#738=PRODUCT_DEFINITION_FORMATION_WITH_SPECIFIED_SOURCE('','',#740,
 .NOT_KNOWN.);
#739=PRODUCT_RELATED_PRODUCT_CATEGORY('','',(#740));
#740=PRODUCT('U01','U01','U01',(#742));
#741=PRODUCT_CATEGORY('','');
#742=PRODUCT_CONTEXT('',#744,'mechanical');
#743=APPLICATION_PROTOCOL_DEFINITION('international standard',
'ap242_managed_model_based_3d_engineering',2020,#744);
#744=APPLICATION_CONTEXT('managed model based 3d engineering');
ENDSEC;
END-ISO-10303-21;
