ISO-10303-21;
HEADER;
/* Generated by software containing ST-Developer
 * from STEP Tools, Inc. (www.steptools.com) 
 */
/* OPTION: using custom renumber hook */

FILE_DESCRIPTION(
/* description */ (
'CAx-IF Rec.Pracs.---Representation and Presentation of Product Manufa
cturing Information (PMI)---4.0---2014-10-13',
'CAx-IF Rec.Pracs.---3D Tessellated Geometry---0.4---2014-09-14','2;1'),

/* implementation_level */ '2;1');

FILE_NAME(
/* name */ 'U05-5',
/* time_stamp */ '2026-04-13T01:14:50+03:00',
/* author */ (''),
/* organization */ (''),
/* preprocessor_version */ 'ST-DEVELOPER v18.102',
/* originating_system */ 'SIEMENS PLM Software NX2206.9140',
/* authorisation */ $);

FILE_SCHEMA (('AP242_MANAGED_MODEL_BASED_3D_ENGINEERING_MIM_LF { 1 0 10303 442 3 1 4 }'));
ENDSEC;

DATA;
#10=SHAPE_REPRESENTATION_RELATIONSHIP('','',#1361,#11);
#11=ADVANCED_BREP_SHAPE_REPRESENTATION('',(#1359),#2213);
#12=SPHERICAL_SURFACE('',#1451,0.5);
#13=SPHERICAL_SURFACE('',#1455,0.5);
#14=CYLINDRICAL_SURFACE('',#1428,0.5);
#15=CYLINDRICAL_SURFACE('',#1430,0.5);
#16=CYLINDRICAL_SURFACE('',#1432,0.5);
#17=CYLINDRICAL_SURFACE('',#1433,0.5);
#18=CYLINDRICAL_SURFACE('',#1443,0.5);
#19=CYLINDRICAL_SURFACE('',#1444,0.5);
#20=CYLINDRICAL_SURFACE('',#1445,0.5);
#21=CYLINDRICAL_SURFACE('',#1447,0.5);
#22=CYLINDRICAL_SURFACE('',#1449,0.5);
#23=CYLINDRICAL_SURFACE('',#1453,0.5);
#24=CYLINDRICAL_SURFACE('',#1457,0.5);
#25=CYLINDRICAL_SURFACE('',#1458,0.5);
#26=CYLINDRICAL_SURFACE('',#1459,0.5);
#27=CYLINDRICAL_SURFACE('',#1460,0.5);
#28=CYLINDRICAL_SURFACE('',#1461,0.5);
#29=CIRCLE('',#1369,0.5);
#30=CIRCLE('',#1370,0.5);
#31=CIRCLE('',#1371,0.5);
#32=CIRCLE('',#1372,0.5);
#33=CIRCLE('',#1373,0.5);
#34=CIRCLE('',#1375,0.5);
#35=CIRCLE('',#1376,0.5);
#36=CIRCLE('',#1378,0.5);
#37=CIRCLE('',#1379,0.5);
#38=CIRCLE('',#1380,0.5);
#39=CIRCLE('',#1381,0.5);
#40=CIRCLE('',#1391,0.5);
#41=CIRCLE('',#1395,0.5);
#42=CIRCLE('',#1396,0.5);
#43=CIRCLE('',#1401,0.5);
#44=CIRCLE('',#1402,0.5);
#45=CIRCLE('',#1407,0.5);
#46=CIRCLE('',#1408,0.5);
#47=CIRCLE('',#1420,0.5);
#48=CIRCLE('',#1446,0.5);
#49=CIRCLE('',#1448,0.5);
#50=CIRCLE('',#1450,0.5);
#51=CIRCLE('',#1452,0.5);
#52=CIRCLE('',#1454,0.5);
#53=CIRCLE('',#1456,0.5);
#54=ELLIPSE('',#1366,0.576219931096075,0.5);
#55=ELLIPSE('',#1367,0.576219931096075,0.5);
#56=ELLIPSE('',#1415,1.0059432695406,0.5);
#57=ELLIPSE('',#1429,0.707106781186547,0.5);
#58=ELLIPSE('',#1431,0.707106781186547,0.5);
#59=ORIENTED_EDGE('',*,*,#443,.F.);
#60=ORIENTED_EDGE('',*,*,#444,.T.);
#61=ORIENTED_EDGE('',*,*,#445,.T.);
#62=ORIENTED_EDGE('',*,*,#446,.F.);
#63=ORIENTED_EDGE('',*,*,#447,.F.);
#64=ORIENTED_EDGE('',*,*,#448,.T.);
#65=ORIENTED_EDGE('',*,*,#449,.T.);
#66=ORIENTED_EDGE('',*,*,#450,.F.);
#67=ORIENTED_EDGE('',*,*,#451,.F.);
#68=ORIENTED_EDGE('',*,*,#452,.T.);
#69=ORIENTED_EDGE('',*,*,#453,.T.);
#70=ORIENTED_EDGE('',*,*,#454,.T.);
#71=ORIENTED_EDGE('',*,*,#455,.T.);
#72=ORIENTED_EDGE('',*,*,#456,.F.);
#73=ORIENTED_EDGE('',*,*,#457,.F.);
#74=ORIENTED_EDGE('',*,*,#458,.T.);
#75=ORIENTED_EDGE('',*,*,#459,.F.);
#76=ORIENTED_EDGE('',*,*,#460,.T.);
#77=ORIENTED_EDGE('',*,*,#461,.F.);
#78=ORIENTED_EDGE('',*,*,#462,.T.);
#79=ORIENTED_EDGE('',*,*,#463,.F.);
#80=ORIENTED_EDGE('',*,*,#464,.T.);
#81=ORIENTED_EDGE('',*,*,#465,.F.);
#82=ORIENTED_EDGE('',*,*,#466,.T.);
#83=ORIENTED_EDGE('',*,*,#467,.T.);
#84=ORIENTED_EDGE('',*,*,#452,.F.);
#85=ORIENTED_EDGE('',*,*,#468,.F.);
#86=ORIENTED_EDGE('',*,*,#469,.F.);
#87=ORIENTED_EDGE('',*,*,#470,.F.);
#88=ORIENTED_EDGE('',*,*,#448,.F.);
#89=ORIENTED_EDGE('',*,*,#471,.F.);
#90=ORIENTED_EDGE('',*,*,#472,.F.);
#91=ORIENTED_EDGE('',*,*,#473,.F.);
#92=ORIENTED_EDGE('',*,*,#444,.F.);
#93=ORIENTED_EDGE('',*,*,#474,.F.);
#94=ORIENTED_EDGE('',*,*,#475,.F.);
#95=ORIENTED_EDGE('',*,*,#476,.F.);
#96=ORIENTED_EDGE('',*,*,#477,.F.);
#97=ORIENTED_EDGE('',*,*,#478,.T.);
#98=ORIENTED_EDGE('',*,*,#479,.F.);
#99=ORIENTED_EDGE('',*,*,#480,.T.);
#100=ORIENTED_EDGE('',*,*,#477,.T.);
#101=ORIENTED_EDGE('',*,*,#481,.T.);
#102=ORIENTED_EDGE('',*,*,#482,.F.);
#103=ORIENTED_EDGE('',*,*,#483,.T.);
#104=ORIENTED_EDGE('',*,*,#484,.T.);
#105=ORIENTED_EDGE('',*,*,#485,.T.);
#106=ORIENTED_EDGE('',*,*,#486,.F.);
#107=ORIENTED_EDGE('',*,*,#487,.T.);
#108=ORIENTED_EDGE('',*,*,#488,.T.);
#109=ORIENTED_EDGE('',*,*,#489,.T.);
#110=ORIENTED_EDGE('',*,*,#490,.T.);
#111=ORIENTED_EDGE('',*,*,#491,.T.);
#112=ORIENTED_EDGE('',*,*,#492,.T.);
#113=ORIENTED_EDGE('',*,*,#493,.F.);
#114=ORIENTED_EDGE('',*,*,#494,.T.);
#115=ORIENTED_EDGE('',*,*,#495,.T.);
#116=ORIENTED_EDGE('',*,*,#490,.F.);
#117=ORIENTED_EDGE('',*,*,#496,.T.);
#118=ORIENTED_EDGE('',*,*,#459,.T.);
#119=ORIENTED_EDGE('',*,*,#497,.T.);
#120=ORIENTED_EDGE('',*,*,#488,.F.);
#121=ORIENTED_EDGE('',*,*,#498,.T.);
#122=ORIENTED_EDGE('',*,*,#461,.T.);
#123=ORIENTED_EDGE('',*,*,#499,.T.);
#124=ORIENTED_EDGE('',*,*,#463,.T.);
#125=ORIENTED_EDGE('',*,*,#500,.T.);
#126=ORIENTED_EDGE('',*,*,#486,.T.);
#127=ORIENTED_EDGE('',*,*,#501,.T.);
#128=ORIENTED_EDGE('',*,*,#457,.T.);
#129=ORIENTED_EDGE('',*,*,#502,.T.);
#130=ORIENTED_EDGE('',*,*,#484,.F.);
#131=ORIENTED_EDGE('',*,*,#503,.T.);
#132=ORIENTED_EDGE('',*,*,#504,.F.);
#133=ORIENTED_EDGE('',*,*,#505,.T.);
#134=ORIENTED_EDGE('',*,*,#506,.F.);
#135=ORIENTED_EDGE('',*,*,#507,.F.);
#136=ORIENTED_EDGE('',*,*,#508,.T.);
#137=ORIENTED_EDGE('',*,*,#504,.T.);
#138=ORIENTED_EDGE('',*,*,#509,.T.);
#139=ORIENTED_EDGE('',*,*,#510,.F.);
#140=ORIENTED_EDGE('',*,*,#493,.T.);
#141=ORIENTED_EDGE('',*,*,#511,.T.);
#142=ORIENTED_EDGE('',*,*,#512,.F.);
#143=ORIENTED_EDGE('',*,*,#513,.T.);
#144=ORIENTED_EDGE('',*,*,#514,.F.);
#145=ORIENTED_EDGE('',*,*,#515,.F.);
#146=ORIENTED_EDGE('',*,*,#511,.F.);
#147=ORIENTED_EDGE('',*,*,#492,.F.);
#148=ORIENTED_EDGE('',*,*,#516,.T.);
#149=ORIENTED_EDGE('',*,*,#517,.T.);
#150=ORIENTED_EDGE('',*,*,#518,.T.);
#151=ORIENTED_EDGE('',*,*,#514,.T.);
#152=ORIENTED_EDGE('',*,*,#519,.T.);
#153=ORIENTED_EDGE('',*,*,#520,.T.);
#154=ORIENTED_EDGE('',*,*,#521,.T.);
#155=ORIENTED_EDGE('',*,*,#454,.F.);
#156=ORIENTED_EDGE('',*,*,#522,.T.);
#157=ORIENTED_EDGE('',*,*,#482,.T.);
#158=ORIENTED_EDGE('',*,*,#523,.F.);
#159=ORIENTED_EDGE('',*,*,#524,.F.);
#160=ORIENTED_EDGE('',*,*,#525,.F.);
#161=ORIENTED_EDGE('',*,*,#446,.T.);
#162=ORIENTED_EDGE('',*,*,#526,.F.);
#163=ORIENTED_EDGE('',*,*,#527,.F.);
#164=ORIENTED_EDGE('',*,*,#528,.F.);
#165=ORIENTED_EDGE('',*,*,#450,.T.);
#166=ORIENTED_EDGE('',*,*,#529,.F.);
#167=ORIENTED_EDGE('',*,*,#530,.F.);
#168=ORIENTED_EDGE('',*,*,#531,.F.);
#169=ORIENTED_EDGE('',*,*,#456,.T.);
#170=ORIENTED_EDGE('',*,*,#532,.T.);
#171=ORIENTED_EDGE('',*,*,#533,.T.);
#172=ORIENTED_EDGE('',*,*,#534,.T.);
#173=ORIENTED_EDGE('',*,*,#517,.F.);
#174=ORIENTED_EDGE('',*,*,#535,.T.);
#175=ORIENTED_EDGE('',*,*,#494,.F.);
#176=ORIENTED_EDGE('',*,*,#513,.F.);
#177=ORIENTED_EDGE('',*,*,#536,.T.);
#178=ORIENTED_EDGE('',*,*,#537,.T.);
#179=ORIENTED_EDGE('',*,*,#538,.F.);
#180=ORIENTED_EDGE('',*,*,#539,.T.);
#181=ORIENTED_EDGE('',*,*,#479,.T.);
#182=ORIENTED_EDGE('',*,*,#540,.T.);
#183=ORIENTED_EDGE('',*,*,#541,.F.);
#184=ORIENTED_EDGE('',*,*,#542,.T.);
#185=ORIENTED_EDGE('',*,*,#543,.F.);
#186=ORIENTED_EDGE('',*,*,#544,.T.);
#187=ORIENTED_EDGE('',*,*,#545,.T.);
#188=ORIENTED_EDGE('',*,*,#546,.T.);
#189=ORIENTED_EDGE('',*,*,#547,.F.);
#190=ORIENTED_EDGE('',*,*,#548,.T.);
#191=ORIENTED_EDGE('',*,*,#549,.T.);
#192=ORIENTED_EDGE('',*,*,#550,.T.);
#193=ORIENTED_EDGE('',*,*,#506,.T.);
#194=ORIENTED_EDGE('',*,*,#551,.T.);
#195=ORIENTED_EDGE('',*,*,#552,.T.);
#196=ORIENTED_EDGE('',*,*,#553,.T.);
#197=ORIENTED_EDGE('',*,*,#554,.T.);
#198=ORIENTED_EDGE('',*,*,#555,.T.);
#199=ORIENTED_EDGE('',*,*,#556,.T.);
#200=ORIENTED_EDGE('',*,*,#557,.T.);
#201=ORIENTED_EDGE('',*,*,#558,.T.);
#202=ORIENTED_EDGE('',*,*,#559,.T.);
#203=ORIENTED_EDGE('',*,*,#560,.T.);
#204=ORIENTED_EDGE('',*,*,#561,.F.);
#205=ORIENTED_EDGE('',*,*,#562,.F.);
#206=ORIENTED_EDGE('',*,*,#563,.T.);
#207=ORIENTED_EDGE('',*,*,#557,.F.);
#208=ORIENTED_EDGE('',*,*,#564,.F.);
#209=ORIENTED_EDGE('',*,*,#565,.F.);
#210=ORIENTED_EDGE('',*,*,#561,.T.);
#211=ORIENTED_EDGE('',*,*,#560,.F.);
#212=ORIENTED_EDGE('',*,*,#566,.F.);
#213=ORIENTED_EDGE('',*,*,#541,.T.);
#214=ORIENTED_EDGE('',*,*,#567,.T.);
#215=ORIENTED_EDGE('',*,*,#549,.F.);
#216=ORIENTED_EDGE('',*,*,#568,.F.);
#217=ORIENTED_EDGE('',*,*,#546,.F.);
#218=ORIENTED_EDGE('',*,*,#569,.T.);
#219=ORIENTED_EDGE('',*,*,#570,.T.);
#220=ORIENTED_EDGE('',*,*,#571,.T.);
#221=ORIENTED_EDGE('',*,*,#572,.T.);
#222=ORIENTED_EDGE('',*,*,#573,.T.);
#223=ORIENTED_EDGE('',*,*,#558,.F.);
#224=ORIENTED_EDGE('',*,*,#563,.F.);
#225=ORIENTED_EDGE('',*,*,#574,.T.);
#226=ORIENTED_EDGE('',*,*,#575,.F.);
#227=ORIENTED_EDGE('',*,*,#576,.F.);
#228=ORIENTED_EDGE('',*,*,#577,.T.);
#229=ORIENTED_EDGE('',*,*,#552,.F.);
#230=ORIENTED_EDGE('',*,*,#536,.F.);
#231=ORIENTED_EDGE('',*,*,#512,.T.);
#232=ORIENTED_EDGE('',*,*,#515,.T.);
#233=ORIENTED_EDGE('',*,*,#518,.F.);
#234=ORIENTED_EDGE('',*,*,#534,.F.);
#235=ORIENTED_EDGE('',*,*,#578,.T.);
#236=ORIENTED_EDGE('',*,*,#465,.T.);
#237=ORIENTED_EDGE('',*,*,#579,.T.);
#238=ORIENTED_EDGE('',*,*,#538,.T.);
#239=ORIENTED_EDGE('',*,*,#580,.T.);
#240=ORIENTED_EDGE('',*,*,#581,.T.);
#241=ORIENTED_EDGE('',*,*,#582,.T.);
#242=ORIENTED_EDGE('',*,*,#583,.T.);
#243=ORIENTED_EDGE('',*,*,#576,.T.);
#244=ORIENTED_EDGE('',*,*,#581,.F.);
#245=ORIENTED_EDGE('',*,*,#575,.T.);
#246=ORIENTED_EDGE('',*,*,#584,.T.);
#247=ORIENTED_EDGE('',*,*,#585,.F.);
#248=ORIENTED_EDGE('',*,*,#586,.T.);
#249=ORIENTED_EDGE('',*,*,#587,.F.);
#250=ORIENTED_EDGE('',*,*,#584,.F.);
#251=ORIENTED_EDGE('',*,*,#574,.F.);
#252=ORIENTED_EDGE('',*,*,#562,.T.);
#253=ORIENTED_EDGE('',*,*,#565,.T.);
#254=ORIENTED_EDGE('',*,*,#570,.F.);
#255=ORIENTED_EDGE('',*,*,#588,.F.);
#256=ORIENTED_EDGE('',*,*,#589,.F.);
#257=ORIENTED_EDGE('',*,*,#590,.T.);
#258=ORIENTED_EDGE('',*,*,#589,.T.);
#259=ORIENTED_EDGE('',*,*,#591,.F.);
#260=ORIENTED_EDGE('',*,*,#592,.T.);
#261=ORIENTED_EDGE('',*,*,#593,.T.);
#262=ORIENTED_EDGE('',*,*,#591,.T.);
#263=ORIENTED_EDGE('',*,*,#588,.T.);
#264=ORIENTED_EDGE('',*,*,#569,.F.);
#265=ORIENTED_EDGE('',*,*,#545,.F.);
#266=ORIENTED_EDGE('',*,*,#594,.F.);
#267=ORIENTED_EDGE('',*,*,#595,.T.);
#268=ORIENTED_EDGE('',*,*,#596,.T.);
#269=ORIENTED_EDGE('',*,*,#597,.T.);
#270=ORIENTED_EDGE('',*,*,#594,.T.);
#271=ORIENTED_EDGE('',*,*,#547,.T.);
#272=ORIENTED_EDGE('',*,*,#568,.T.);
#273=ORIENTED_EDGE('',*,*,#548,.F.);
#274=ORIENTED_EDGE('',*,*,#598,.T.);
#275=ORIENTED_EDGE('',*,*,#555,.F.);
#276=ORIENTED_EDGE('',*,*,#599,.T.);
#277=ORIENTED_EDGE('',*,*,#600,.T.);
#278=ORIENTED_EDGE('',*,*,#601,.T.);
#279=ORIENTED_EDGE('',*,*,#553,.F.);
#280=ORIENTED_EDGE('',*,*,#577,.F.);
#281=ORIENTED_EDGE('',*,*,#583,.F.);
#282=ORIENTED_EDGE('',*,*,#602,.F.);
#283=ORIENTED_EDGE('',*,*,#603,.T.);
#284=ORIENTED_EDGE('',*,*,#604,.T.);
#285=ORIENTED_EDGE('',*,*,#602,.T.);
#286=ORIENTED_EDGE('',*,*,#582,.F.);
#287=ORIENTED_EDGE('',*,*,#585,.T.);
#288=ORIENTED_EDGE('',*,*,#587,.T.);
#289=ORIENTED_EDGE('',*,*,#605,.T.);
#290=ORIENTED_EDGE('',*,*,#606,.T.);
#291=ORIENTED_EDGE('',*,*,#607,.T.);
#292=ORIENTED_EDGE('',*,*,#510,.T.);
#293=ORIENTED_EDGE('',*,*,#608,.F.);
#294=ORIENTED_EDGE('',*,*,#609,.T.);
#295=ORIENTED_EDGE('',*,*,#610,.T.);
#296=ORIENTED_EDGE('',*,*,#544,.F.);
#297=ORIENTED_EDGE('',*,*,#611,.F.);
#298=ORIENTED_EDGE('',*,*,#612,.T.);
#299=ORIENTED_EDGE('',*,*,#608,.T.);
#300=ORIENTED_EDGE('',*,*,#509,.F.);
#301=ORIENTED_EDGE('',*,*,#507,.T.);
#302=ORIENTED_EDGE('',*,*,#550,.F.);
#303=ORIENTED_EDGE('',*,*,#567,.F.);
#304=ORIENTED_EDGE('',*,*,#613,.F.);
#305=ORIENTED_EDGE('',*,*,#614,.T.);
#306=ORIENTED_EDGE('',*,*,#611,.T.);
#307=ORIENTED_EDGE('',*,*,#543,.T.);
#308=ORIENTED_EDGE('',*,*,#566,.T.);
#309=ORIENTED_EDGE('',*,*,#551,.F.);
#310=ORIENTED_EDGE('',*,*,#505,.F.);
#311=ORIENTED_EDGE('',*,*,#508,.F.);
#312=ORIENTED_EDGE('',*,*,#610,.F.);
#313=ORIENTED_EDGE('',*,*,#615,.T.);
#314=ORIENTED_EDGE('',*,*,#613,.T.);
#315=ORIENTED_EDGE('',*,*,#542,.F.);
#316=ORIENTED_EDGE('',*,*,#615,.F.);
#317=ORIENTED_EDGE('',*,*,#609,.F.);
#318=ORIENTED_EDGE('',*,*,#612,.F.);
#319=ORIENTED_EDGE('',*,*,#614,.F.);
#320=ORIENTED_EDGE('',*,*,#616,.T.);
#321=ORIENTED_EDGE('',*,*,#606,.F.);
#322=ORIENTED_EDGE('',*,*,#617,.T.);
#323=ORIENTED_EDGE('',*,*,#572,.F.);
#324=ORIENTED_EDGE('',*,*,#618,.F.);
#325=ORIENTED_EDGE('',*,*,#592,.F.);
#326=ORIENTED_EDGE('',*,*,#596,.F.);
#327=ORIENTED_EDGE('',*,*,#619,.T.);
#328=ORIENTED_EDGE('',*,*,#620,.T.);
#329=ORIENTED_EDGE('',*,*,#573,.F.);
#330=ORIENTED_EDGE('',*,*,#617,.F.);
#331=ORIENTED_EDGE('',*,*,#605,.F.);
#332=ORIENTED_EDGE('',*,*,#586,.F.);
#333=ORIENTED_EDGE('',*,*,#564,.T.);
#334=ORIENTED_EDGE('',*,*,#559,.F.);
#335=ORIENTED_EDGE('',*,*,#593,.F.);
#336=ORIENTED_EDGE('',*,*,#618,.T.);
#337=ORIENTED_EDGE('',*,*,#571,.F.);
#338=ORIENTED_EDGE('',*,*,#590,.F.);
#339=ORIENTED_EDGE('',*,*,#455,.F.);
#340=ORIENTED_EDGE('',*,*,#521,.F.);
#341=ORIENTED_EDGE('',*,*,#621,.F.);
#342=ORIENTED_EDGE('',*,*,#532,.F.);
#343=ORIENTED_EDGE('',*,*,#578,.F.);
#344=ORIENTED_EDGE('',*,*,#533,.F.);
#345=ORIENTED_EDGE('',*,*,#621,.T.);
#346=ORIENTED_EDGE('',*,*,#520,.F.);
#347=ORIENTED_EDGE('',*,*,#622,.F.);
#348=ORIENTED_EDGE('',*,*,#466,.F.);
#349=ORIENTED_EDGE('',*,*,#622,.T.);
#350=ORIENTED_EDGE('',*,*,#522,.F.);
#351=ORIENTED_EDGE('',*,*,#453,.F.);
#352=ORIENTED_EDGE('',*,*,#467,.F.);
#353=ORIENTED_EDGE('',*,*,#516,.F.);
#354=ORIENTED_EDGE('',*,*,#495,.F.);
#355=ORIENTED_EDGE('',*,*,#535,.F.);
#356=ORIENTED_EDGE('',*,*,#519,.F.);
#357=ORIENTED_EDGE('',*,*,#470,.T.);
#358=ORIENTED_EDGE('',*,*,#623,.F.);
#359=ORIENTED_EDGE('',*,*,#529,.T.);
#360=ORIENTED_EDGE('',*,*,#449,.F.);
#361=ORIENTED_EDGE('',*,*,#469,.T.);
#362=ORIENTED_EDGE('',*,*,#624,.F.);
#363=ORIENTED_EDGE('',*,*,#530,.T.);
#364=ORIENTED_EDGE('',*,*,#623,.T.);
#365=ORIENTED_EDGE('',*,*,#468,.T.);
#366=ORIENTED_EDGE('',*,*,#451,.T.);
#367=ORIENTED_EDGE('',*,*,#531,.T.);
#368=ORIENTED_EDGE('',*,*,#624,.T.);
#369=ORIENTED_EDGE('',*,*,#473,.T.);
#370=ORIENTED_EDGE('',*,*,#625,.F.);
#371=ORIENTED_EDGE('',*,*,#526,.T.);
#372=ORIENTED_EDGE('',*,*,#445,.F.);
#373=ORIENTED_EDGE('',*,*,#472,.T.);
#374=ORIENTED_EDGE('',*,*,#626,.F.);
#375=ORIENTED_EDGE('',*,*,#527,.T.);
#376=ORIENTED_EDGE('',*,*,#625,.T.);
#377=ORIENTED_EDGE('',*,*,#471,.T.);
#378=ORIENTED_EDGE('',*,*,#447,.T.);
#379=ORIENTED_EDGE('',*,*,#528,.T.);
#380=ORIENTED_EDGE('',*,*,#626,.T.);
#381=ORIENTED_EDGE('',*,*,#476,.T.);
#382=ORIENTED_EDGE('',*,*,#627,.F.);
#383=ORIENTED_EDGE('',*,*,#523,.T.);
#384=ORIENTED_EDGE('',*,*,#481,.F.);
#385=ORIENTED_EDGE('',*,*,#475,.T.);
#386=ORIENTED_EDGE('',*,*,#628,.F.);
#387=ORIENTED_EDGE('',*,*,#524,.T.);
#388=ORIENTED_EDGE('',*,*,#627,.T.);
#389=ORIENTED_EDGE('',*,*,#474,.T.);
#390=ORIENTED_EDGE('',*,*,#443,.T.);
#391=ORIENTED_EDGE('',*,*,#525,.T.);
#392=ORIENTED_EDGE('',*,*,#628,.T.);
#393=ORIENTED_EDGE('',*,*,#483,.F.);
#394=ORIENTED_EDGE('',*,*,#537,.F.);
#395=ORIENTED_EDGE('',*,*,#580,.F.);
#396=ORIENTED_EDGE('',*,*,#540,.F.);
#397=ORIENTED_EDGE('',*,*,#480,.F.);
#398=ORIENTED_EDGE('',*,*,#539,.F.);
#399=ORIENTED_EDGE('',*,*,#579,.F.);
#400=ORIENTED_EDGE('',*,*,#478,.F.);
#401=ORIENTED_EDGE('',*,*,#619,.F.);
#402=ORIENTED_EDGE('',*,*,#595,.F.);
#403=ORIENTED_EDGE('',*,*,#597,.F.);
#404=ORIENTED_EDGE('',*,*,#629,.T.);
#405=ORIENTED_EDGE('',*,*,#603,.F.);
#406=ORIENTED_EDGE('',*,*,#607,.F.);
#407=ORIENTED_EDGE('',*,*,#616,.F.);
#408=ORIENTED_EDGE('',*,*,#630,.T.);
#409=ORIENTED_EDGE('',*,*,#631,.F.);
#410=ORIENTED_EDGE('',*,*,#599,.F.);
#411=ORIENTED_EDGE('',*,*,#554,.F.);
#412=ORIENTED_EDGE('',*,*,#604,.F.);
#413=ORIENTED_EDGE('',*,*,#630,.F.);
#414=ORIENTED_EDGE('',*,*,#632,.F.);
#415=ORIENTED_EDGE('',*,*,#631,.T.);
#416=ORIENTED_EDGE('',*,*,#633,.F.);
#417=ORIENTED_EDGE('',*,*,#600,.F.);
#418=ORIENTED_EDGE('',*,*,#632,.T.);
#419=ORIENTED_EDGE('',*,*,#620,.F.);
#420=ORIENTED_EDGE('',*,*,#629,.F.);
#421=ORIENTED_EDGE('',*,*,#634,.F.);
#422=ORIENTED_EDGE('',*,*,#633,.T.);
#423=ORIENTED_EDGE('',*,*,#556,.F.);
#424=ORIENTED_EDGE('',*,*,#601,.F.);
#425=ORIENTED_EDGE('',*,*,#634,.T.);
#426=ORIENTED_EDGE('',*,*,#598,.F.);
#427=ORIENTED_EDGE('',*,*,#458,.F.);
#428=ORIENTED_EDGE('',*,*,#503,.F.);
#429=ORIENTED_EDGE('',*,*,#491,.F.);
#430=ORIENTED_EDGE('',*,*,#497,.F.);
#431=ORIENTED_EDGE('',*,*,#460,.F.);
#432=ORIENTED_EDGE('',*,*,#496,.F.);
#433=ORIENTED_EDGE('',*,*,#489,.F.);
#434=ORIENTED_EDGE('',*,*,#499,.F.);
#435=ORIENTED_EDGE('',*,*,#464,.F.);
#436=ORIENTED_EDGE('',*,*,#501,.F.);
#437=ORIENTED_EDGE('',*,*,#485,.F.);
#438=ORIENTED_EDGE('',*,*,#502,.F.);
#439=ORIENTED_EDGE('',*,*,#462,.F.);
#440=ORIENTED_EDGE('',*,*,#498,.F.);
#441=ORIENTED_EDGE('',*,*,#487,.F.);
#442=ORIENTED_EDGE('',*,*,#500,.F.);
#443=EDGE_CURVE('',#635,#636,#761,.F.);
#444=EDGE_CURVE('',#635,#637,#762,.F.);
#445=EDGE_CURVE('',#637,#638,#763,.F.);
#446=EDGE_CURVE('',#636,#638,#764,.F.);
#447=EDGE_CURVE('',#639,#640,#765,.F.);
#448=EDGE_CURVE('',#639,#641,#766,.F.);
#449=EDGE_CURVE('',#641,#642,#767,.F.);
#450=EDGE_CURVE('',#640,#642,#768,.F.);
#451=EDGE_CURVE('',#643,#644,#769,.F.);
#452=EDGE_CURVE('',#643,#645,#770,.F.);
#453=EDGE_CURVE('',#645,#646,#54,.T.);
#454=EDGE_CURVE('',#646,#647,#771,.F.);
#455=EDGE_CURVE('',#647,#648,#55,.T.);
#456=EDGE_CURVE('',#644,#648,#772,.F.);
#457=EDGE_CURVE('',#649,#650,#773,.F.);
#458=EDGE_CURVE('',#649,#651,#29,.F.);
#459=EDGE_CURVE('',#652,#651,#774,.F.);
#460=EDGE_CURVE('',#652,#653,#30,.F.);
#461=EDGE_CURVE('',#654,#653,#775,.F.);
#462=EDGE_CURVE('',#654,#655,#31,.F.);
#463=EDGE_CURVE('',#656,#655,#776,.F.);
#464=EDGE_CURVE('',#656,#650,#32,.F.);
#465=EDGE_CURVE('',#657,#658,#777,.F.);
#466=EDGE_CURVE('',#657,#659,#33,.T.);
#467=EDGE_CURVE('',#659,#645,#778,.T.);
#468=EDGE_CURVE('',#660,#643,#779,.F.);
#469=EDGE_CURVE('',#661,#660,#780,.F.);
#470=EDGE_CURVE('',#641,#661,#781,.F.);
#471=EDGE_CURVE('',#662,#639,#782,.F.);
#472=EDGE_CURVE('',#663,#662,#783,.F.);
#473=EDGE_CURVE('',#637,#663,#784,.F.);
#474=EDGE_CURVE('',#664,#635,#785,.F.);
#475=EDGE_CURVE('',#665,#664,#786,.F.);
#476=EDGE_CURVE('',#666,#665,#787,.F.);
#477=EDGE_CURVE('',#667,#666,#788,.F.);
#478=EDGE_CURVE('',#667,#658,#789,.T.);
#479=EDGE_CURVE('',#668,#669,#790,.F.);
#480=EDGE_CURVE('',#668,#667,#34,.T.);
#481=EDGE_CURVE('',#666,#670,#791,.F.);
#482=EDGE_CURVE('',#671,#670,#792,.F.);
#483=EDGE_CURVE('',#671,#669,#35,.T.);
#484=EDGE_CURVE('',#672,#673,#793,.F.);
#485=EDGE_CURVE('',#673,#674,#36,.F.);
#486=EDGE_CURVE('',#675,#674,#794,.F.);
#487=EDGE_CURVE('',#675,#676,#37,.F.);
#488=EDGE_CURVE('',#676,#677,#795,.F.);
#489=EDGE_CURVE('',#677,#678,#38,.F.);
#490=EDGE_CURVE('',#678,#679,#796,.T.);
#491=EDGE_CURVE('',#679,#672,#39,.F.);
#492=EDGE_CURVE('',#680,#681,#797,.F.);
#493=EDGE_CURVE('',#682,#681,#798,.F.);
#494=EDGE_CURVE('',#682,#683,#799,.F.);
#495=EDGE_CURVE('',#683,#680,#800,.F.);
#496=EDGE_CURVE('',#678,#652,#801,.F.);
#497=EDGE_CURVE('',#651,#679,#802,.T.);
#498=EDGE_CURVE('',#676,#654,#803,.F.);
#499=EDGE_CURVE('',#653,#677,#804,.T.);
#500=EDGE_CURVE('',#655,#675,#805,.T.);
#501=EDGE_CURVE('',#674,#656,#806,.F.);
#502=EDGE_CURVE('',#650,#673,#807,.T.);
#503=EDGE_CURVE('',#672,#649,#808,.F.);
#504=EDGE_CURVE('',#684,#685,#809,.F.);
#505=EDGE_CURVE('',#684,#686,#810,.F.);
#506=EDGE_CURVE('',#687,#686,#811,.F.);
#507=EDGE_CURVE('',#685,#687,#812,.F.);
#508=EDGE_CURVE('',#688,#684,#813,.F.);
#509=EDGE_CURVE('',#685,#689,#814,.F.);
#510=EDGE_CURVE('',#688,#689,#815,.F.);
#511=EDGE_CURVE('',#681,#690,#816,.F.);
#512=EDGE_CURVE('',#691,#690,#817,.F.);
#513=EDGE_CURVE('',#691,#682,#818,.F.);
#514=EDGE_CURVE('',#692,#693,#819,.F.);
#515=EDGE_CURVE('',#690,#692,#820,.F.);
#516=EDGE_CURVE('',#680,#693,#40,.F.);
#517=EDGE_CURVE('',#694,#695,#821,.F.);
#518=EDGE_CURVE('',#695,#692,#822,.F.);
#519=EDGE_CURVE('',#693,#694,#823,.T.);
#520=EDGE_CURVE('',#696,#697,#824,.F.);
#521=EDGE_CURVE('',#697,#647,#825,.T.);
#522=EDGE_CURVE('',#646,#696,#826,.F.);
#523=EDGE_CURVE('',#698,#670,#827,.F.);
#524=EDGE_CURVE('',#699,#698,#828,.F.);
#525=EDGE_CURVE('',#636,#699,#829,.F.);
#526=EDGE_CURVE('',#700,#638,#830,.F.);
#527=EDGE_CURVE('',#701,#700,#831,.F.);
#528=EDGE_CURVE('',#640,#701,#832,.F.);
#529=EDGE_CURVE('',#702,#642,#833,.F.);
#530=EDGE_CURVE('',#703,#702,#834,.F.);
#531=EDGE_CURVE('',#644,#703,#835,.F.);
#532=EDGE_CURVE('',#648,#704,#836,.F.);
#533=EDGE_CURVE('',#704,#705,#41,.F.);
#534=EDGE_CURVE('',#705,#695,#837,.F.);
#535=EDGE_CURVE('',#694,#683,#42,.T.);
#536=EDGE_CURVE('',#691,#706,#838,.F.);
#537=EDGE_CURVE('',#706,#671,#839,.F.);
#538=EDGE_CURVE('',#707,#708,#840,.F.);
#539=EDGE_CURVE('',#707,#668,#841,.F.);
#540=EDGE_CURVE('',#669,#708,#842,.T.);
#541=EDGE_CURVE('',#709,#710,#843,.F.);
#542=EDGE_CURVE('',#709,#711,#844,.F.);
#543=EDGE_CURVE('',#712,#711,#845,.F.);
#544=EDGE_CURVE('',#712,#710,#846,.F.);
#545=EDGE_CURVE('',#713,#714,#847,.F.);
#546=EDGE_CURVE('',#714,#715,#848,.F.);
#547=EDGE_CURVE('',#713,#715,#849,.F.);
#548=EDGE_CURVE('',#716,#717,#850,.F.);
#549=EDGE_CURVE('',#717,#718,#851,.F.);
#550=EDGE_CURVE('',#718,#687,#852,.F.);
#551=EDGE_CURVE('',#686,#719,#853,.F.);
#552=EDGE_CURVE('',#719,#720,#854,.F.);
#553=EDGE_CURVE('',#720,#721,#855,.F.);
#554=EDGE_CURVE('',#721,#722,#43,.F.);
#555=EDGE_CURVE('',#722,#723,#856,.F.);
#556=EDGE_CURVE('',#723,#716,#44,.F.);
#557=EDGE_CURVE('',#724,#725,#857,.F.);
#558=EDGE_CURVE('',#725,#726,#858,.F.);
#559=EDGE_CURVE('',#726,#727,#859,.F.);
#560=EDGE_CURVE('',#727,#724,#860,.F.);
#561=EDGE_CURVE('',#728,#724,#861,.F.);
#562=EDGE_CURVE('',#729,#728,#862,.F.);
#563=EDGE_CURVE('',#729,#725,#863,.F.);
#564=EDGE_CURVE('',#730,#727,#864,.F.);
#565=EDGE_CURVE('',#728,#730,#865,.F.);
#566=EDGE_CURVE('',#709,#719,#866,.F.);
#567=EDGE_CURVE('',#710,#718,#867,.F.);
#568=EDGE_CURVE('',#715,#717,#868,.F.);
#569=EDGE_CURVE('',#714,#731,#869,.F.);
#570=EDGE_CURVE('',#731,#732,#870,.F.);
#571=EDGE_CURVE('',#732,#733,#871,.F.);
#572=EDGE_CURVE('',#733,#734,#872,.T.);
#573=EDGE_CURVE('',#734,#726,#873,.F.);
#574=EDGE_CURVE('',#729,#735,#874,.F.);
#575=EDGE_CURVE('',#736,#735,#875,.F.);
#576=EDGE_CURVE('',#737,#736,#876,.F.);
#577=EDGE_CURVE('',#737,#720,#877,.F.);
#578=EDGE_CURVE('',#705,#657,#878,.T.);
#579=EDGE_CURVE('',#658,#707,#45,.T.);
#580=EDGE_CURVE('',#708,#706,#46,.T.);
#581=EDGE_CURVE('',#736,#738,#879,.F.);
#582=EDGE_CURVE('',#738,#739,#880,.F.);
#583=EDGE_CURVE('',#739,#737,#881,.F.);
#584=EDGE_CURVE('',#735,#740,#882,.F.);
#585=EDGE_CURVE('',#738,#740,#883,.F.);
#586=EDGE_CURVE('',#730,#741,#884,.T.);
#587=EDGE_CURVE('',#740,#741,#885,.F.);
#588=EDGE_CURVE('',#742,#731,#886,.F.);
#589=EDGE_CURVE('',#743,#742,#887,.F.);
#590=EDGE_CURVE('',#743,#732,#888,.F.);
#591=EDGE_CURVE('',#744,#742,#889,.F.);
#592=EDGE_CURVE('',#744,#745,#890,.T.);
#593=EDGE_CURVE('',#745,#743,#891,.F.);
#594=EDGE_CURVE('',#746,#713,#892,.F.);
#595=EDGE_CURVE('',#746,#747,#56,.T.);
#596=EDGE_CURVE('',#747,#744,#893,.F.);
#597=EDGE_CURVE('',#748,#746,#894,.F.);
#598=EDGE_CURVE('',#716,#748,#895,.T.);
#599=EDGE_CURVE('',#722,#749,#896,.T.);
#600=EDGE_CURVE('',#749,#750,#897,.F.);
#601=EDGE_CURVE('',#750,#723,#898,.F.);
#602=EDGE_CURVE('',#751,#739,#899,.T.);
#603=EDGE_CURVE('',#751,#752,#900,.F.);
#604=EDGE_CURVE('',#752,#721,#901,.F.);
#605=EDGE_CURVE('',#741,#753,#902,.F.);
#606=EDGE_CURVE('',#753,#754,#903,.T.);
#607=EDGE_CURVE('',#754,#751,#47,.T.);
#608=EDGE_CURVE('',#755,#689,#904,.F.);
#609=EDGE_CURVE('',#755,#756,#905,.F.);
#610=EDGE_CURVE('',#756,#688,#906,.F.);
#611=EDGE_CURVE('',#757,#712,#907,.F.);
#612=EDGE_CURVE('',#757,#755,#908,.F.);
#613=EDGE_CURVE('',#758,#711,#909,.F.);
#614=EDGE_CURVE('',#758,#757,#910,.F.);
#615=EDGE_CURVE('',#756,#758,#911,.F.);
#616=EDGE_CURVE('',#759,#754,#912,.T.);
#617=EDGE_CURVE('',#753,#734,#913,.F.);
#618=EDGE_CURVE('',#745,#733,#914,.F.);
#619=EDGE_CURVE('',#747,#760,#915,.T.);
#620=EDGE_CURVE('',#760,#759,#916,.T.);
#621=EDGE_CURVE('',#704,#697,#57,.F.);
#622=EDGE_CURVE('',#659,#696,#58,.F.);
#623=EDGE_CURVE('',#702,#661,#917,.T.);
#624=EDGE_CURVE('',#703,#660,#918,.T.);
#625=EDGE_CURVE('',#700,#663,#919,.T.);
#626=EDGE_CURVE('',#701,#662,#920,.T.);
#627=EDGE_CURVE('',#698,#665,#921,.T.);
#628=EDGE_CURVE('',#699,#664,#922,.T.);
#629=EDGE_CURVE('',#748,#760,#48,.T.);
#630=EDGE_CURVE('',#759,#752,#49,.F.);
#631=EDGE_CURVE('',#749,#752,#50,.F.);
#632=EDGE_CURVE('',#749,#759,#51,.F.);
#633=EDGE_CURVE('',#750,#760,#52,.F.);
#634=EDGE_CURVE('',#750,#748,#53,.F.);
#635=VERTEX_POINT('',#1827);
#636=VERTEX_POINT('',#1828);
#637=VERTEX_POINT('',#1830);
#638=VERTEX_POINT('',#1832);
#639=VERTEX_POINT('',#1836);
#640=VERTEX_POINT('',#1837);
#641=VERTEX_POINT('',#1839);
#642=VERTEX_POINT('',#1841);
#643=VERTEX_POINT('',#1845);
#644=VERTEX_POINT('',#1846);
#645=VERTEX_POINT('',#1848);
#646=VERTEX_POINT('',#1850);
#647=VERTEX_POINT('',#1852);
#648=VERTEX_POINT('',#1854);
#649=VERTEX_POINT('',#1858);
#650=VERTEX_POINT('',#1859);
#651=VERTEX_POINT('',#1861);
#652=VERTEX_POINT('',#1863);
#653=VERTEX_POINT('',#1865);
#654=VERTEX_POINT('',#1867);
#655=VERTEX_POINT('',#1869);
#656=VERTEX_POINT('',#1871);
#657=VERTEX_POINT('',#1874);
#658=VERTEX_POINT('',#1875);
#659=VERTEX_POINT('',#1877);
#660=VERTEX_POINT('',#1880);
#661=VERTEX_POINT('',#1882);
#662=VERTEX_POINT('',#1885);
#663=VERTEX_POINT('',#1887);
#664=VERTEX_POINT('',#1890);
#665=VERTEX_POINT('',#1892);
#666=VERTEX_POINT('',#1894);
#667=VERTEX_POINT('',#1896);
#668=VERTEX_POINT('',#1900);
#669=VERTEX_POINT('',#1901);
#670=VERTEX_POINT('',#1904);
#671=VERTEX_POINT('',#1906);
#672=VERTEX_POINT('',#1910);
#673=VERTEX_POINT('',#1911);
#674=VERTEX_POINT('',#1913);
#675=VERTEX_POINT('',#1915);
#676=VERTEX_POINT('',#1917);
#677=VERTEX_POINT('',#1919);
#678=VERTEX_POINT('',#1921);
#679=VERTEX_POINT('',#1923);
#680=VERTEX_POINT('',#1927);
#681=VERTEX_POINT('',#1928);
#682=VERTEX_POINT('',#1930);
#683=VERTEX_POINT('',#1932);
#684=VERTEX_POINT('',#1948);
#685=VERTEX_POINT('',#1949);
#686=VERTEX_POINT('',#1951);
#687=VERTEX_POINT('',#1953);
#688=VERTEX_POINT('',#1957);
#689=VERTEX_POINT('',#1959);
#690=VERTEX_POINT('',#1963);
#691=VERTEX_POINT('',#1965);
#692=VERTEX_POINT('',#1969);
#693=VERTEX_POINT('',#1970);
#694=VERTEX_POINT('',#1975);
#695=VERTEX_POINT('',#1976);
#696=VERTEX_POINT('',#1981);
#697=VERTEX_POINT('',#1982);
#698=VERTEX_POINT('',#1987);
#699=VERTEX_POINT('',#1989);
#700=VERTEX_POINT('',#1992);
#701=VERTEX_POINT('',#1994);
#702=VERTEX_POINT('',#1997);
#703=VERTEX_POINT('',#1999);
#704=VERTEX_POINT('',#2002);
#705=VERTEX_POINT('',#2004);
#706=VERTEX_POINT('',#2008);
#707=VERTEX_POINT('',#2012);
#708=VERTEX_POINT('',#2013);
#709=VERTEX_POINT('',#2018);
#710=VERTEX_POINT('',#2019);
#711=VERTEX_POINT('',#2021);
#712=VERTEX_POINT('',#2023);
#713=VERTEX_POINT('',#2027);
#714=VERTEX_POINT('',#2028);
#715=VERTEX_POINT('',#2030);
#716=VERTEX_POINT('',#2034);
#717=VERTEX_POINT('',#2035);
#718=VERTEX_POINT('',#2037);
#719=VERTEX_POINT('',#2040);
#720=VERTEX_POINT('',#2042);
#721=VERTEX_POINT('',#2044);
#722=VERTEX_POINT('',#2046);
#723=VERTEX_POINT('',#2048);
#724=VERTEX_POINT('',#2052);
#725=VERTEX_POINT('',#2053);
#726=VERTEX_POINT('',#2055);
#727=VERTEX_POINT('',#2057);
#728=VERTEX_POINT('',#2061);
#729=VERTEX_POINT('',#2063);
#730=VERTEX_POINT('',#2067);
#731=VERTEX_POINT('',#2074);
#732=VERTEX_POINT('',#2076);
#733=VERTEX_POINT('',#2078);
#734=VERTEX_POINT('',#2080);
#735=VERTEX_POINT('',#2083);
#736=VERTEX_POINT('',#2085);
#737=VERTEX_POINT('',#2087);
#738=VERTEX_POINT('',#2094);
#739=VERTEX_POINT('',#2096);
#740=VERTEX_POINT('',#2100);
#741=VERTEX_POINT('',#2104);
#742=VERTEX_POINT('',#2108);
#743=VERTEX_POINT('',#2110);
#744=VERTEX_POINT('',#2114);
#745=VERTEX_POINT('',#2116);
#746=VERTEX_POINT('',#2120);
#747=VERTEX_POINT('',#2122);
#748=VERTEX_POINT('',#2126);
#749=VERTEX_POINT('',#2130);
#750=VERTEX_POINT('',#2132);
#751=VERTEX_POINT('',#2136);
#752=VERTEX_POINT('',#2138);
#753=VERTEX_POINT('',#2142);
#754=VERTEX_POINT('',#2144);
#755=VERTEX_POINT('',#2148);
#756=VERTEX_POINT('',#2150);
#757=VERTEX_POINT('',#2154);
#758=VERTEX_POINT('',#2158);
#759=VERTEX_POINT('',#2164);
#760=VERTEX_POINT('',#2168);
#761=LINE('',#1826,#923);
#762=LINE('',#1829,#924);
#763=LINE('',#1831,#925);
#764=LINE('',#1833,#926);
#765=LINE('',#1835,#927);
#766=LINE('',#1838,#928);
#767=LINE('',#1840,#929);
#768=LINE('',#1842,#930);
#769=LINE('',#1844,#931);
#770=LINE('',#1847,#932);
#771=LINE('',#1851,#933);
#772=LINE('',#1855,#934);
#773=LINE('',#1857,#935);
#774=LINE('',#1862,#936);
#775=LINE('',#1866,#937);
#776=LINE('',#1870,#938);
#777=LINE('',#1873,#939);
#778=LINE('',#1878,#940);
#779=LINE('',#1879,#941);
#780=LINE('',#1881,#942);
#781=LINE('',#1883,#943);
#782=LINE('',#1884,#944);
#783=LINE('',#1886,#945);
#784=LINE('',#1888,#946);
#785=LINE('',#1889,#947);
#786=LINE('',#1891,#948);
#787=LINE('',#1893,#949);
#788=LINE('',#1895,#950);
#789=LINE('',#1897,#951);
#790=LINE('',#1899,#952);
#791=LINE('',#1903,#953);
#792=LINE('',#1905,#954);
#793=LINE('',#1909,#955);
#794=LINE('',#1914,#956);
#795=LINE('',#1918,#957);
#796=LINE('',#1922,#958);
#797=LINE('',#1926,#959);
#798=LINE('',#1929,#960);
#799=LINE('',#1931,#961);
#800=LINE('',#1933,#962);
#801=LINE('',#1935,#963);
#802=LINE('',#1936,#964);
#803=LINE('',#1938,#965);
#804=LINE('',#1939,#966);
#805=LINE('',#1941,#967);
#806=LINE('',#1942,#968);
#807=LINE('',#1944,#969);
#808=LINE('',#1945,#970);
#809=LINE('',#1947,#971);
#810=LINE('',#1950,#972);
#811=LINE('',#1952,#973);
#812=LINE('',#1954,#974);
#813=LINE('',#1956,#975);
#814=LINE('',#1958,#976);
#815=LINE('',#1960,#977);
#816=LINE('',#1962,#978);
#817=LINE('',#1964,#979);
#818=LINE('',#1966,#980);
#819=LINE('',#1968,#981);
#820=LINE('',#1971,#982);
#821=LINE('',#1974,#983);
#822=LINE('',#1977,#984);
#823=LINE('',#1978,#985);
#824=LINE('',#1980,#986);
#825=LINE('',#1983,#987);
#826=LINE('',#1984,#988);
#827=LINE('',#1986,#989);
#828=LINE('',#1988,#990);
#829=LINE('',#1990,#991);
#830=LINE('',#1991,#992);
#831=LINE('',#1993,#993);
#832=LINE('',#1995,#994);
#833=LINE('',#1996,#995);
#834=LINE('',#1998,#996);
#835=LINE('',#2000,#997);
#836=LINE('',#2001,#998);
#837=LINE('',#2005,#999);
#838=LINE('',#2007,#1000);
#839=LINE('',#2009,#1001);
#840=LINE('',#2011,#1002);
#841=LINE('',#2014,#1003);
#842=LINE('',#2015,#1004);
#843=LINE('',#2017,#1005);
#844=LINE('',#2020,#1006);
#845=LINE('',#2022,#1007);
#846=LINE('',#2024,#1008);
#847=LINE('',#2026,#1009);
#848=LINE('',#2029,#1010);
#849=LINE('',#2031,#1011);
#850=LINE('',#2033,#1012);
#851=LINE('',#2036,#1013);
#852=LINE('',#2038,#1014);
#853=LINE('',#2039,#1015);
#854=LINE('',#2041,#1016);
#855=LINE('',#2043,#1017);
#856=LINE('',#2047,#1018);
#857=LINE('',#2051,#1019);
#858=LINE('',#2054,#1020);
#859=LINE('',#2056,#1021);
#860=LINE('',#2058,#1022);
#861=LINE('',#2060,#1023);
#862=LINE('',#2062,#1024);
#863=LINE('',#2064,#1025);
#864=LINE('',#2066,#1026);
#865=LINE('',#2068,#1027);
#866=LINE('',#2070,#1028);
#867=LINE('',#2071,#1029);
#868=LINE('',#2072,#1030);
#869=LINE('',#2073,#1031);
#870=LINE('',#2075,#1032);
#871=LINE('',#2077,#1033);
#872=LINE('',#2079,#1034);
#873=LINE('',#2081,#1035);
#874=LINE('',#2082,#1036);
#875=LINE('',#2084,#1037);
#876=LINE('',#2086,#1038);
#877=LINE('',#2088,#1039);
#878=LINE('',#2089,#1040);
#879=LINE('',#2093,#1041);
#880=LINE('',#2095,#1042);
#881=LINE('',#2097,#1043);
#882=LINE('',#2099,#1044);
#883=LINE('',#2101,#1045);
#884=LINE('',#2103,#1046);
#885=LINE('',#2105,#1047);
#886=LINE('',#2107,#1048);
#887=LINE('',#2109,#1049);
#888=LINE('',#2111,#1050);
#889=LINE('',#2113,#1051);
#890=LINE('',#2115,#1052);
#891=LINE('',#2117,#1053);
#892=LINE('',#2119,#1054);
#893=LINE('',#2123,#1055);
#894=LINE('',#2125,#1056);
#895=LINE('',#2127,#1057);
#896=LINE('',#2129,#1058);
#897=LINE('',#2131,#1059);
#898=LINE('',#2133,#1060);
#899=LINE('',#2135,#1061);
#900=LINE('',#2137,#1062);
#901=LINE('',#2139,#1063);
#902=LINE('',#2141,#1064);
#903=LINE('',#2143,#1065);
#904=LINE('',#2147,#1066);
#905=LINE('',#2149,#1067);
#906=LINE('',#2151,#1068);
#907=LINE('',#2153,#1069);
#908=LINE('',#2155,#1070);
#909=LINE('',#2157,#1071);
#910=LINE('',#2159,#1072);
#911=LINE('',#2161,#1073);
#912=LINE('',#2163,#1074);
#913=LINE('',#2165,#1075);
#914=LINE('',#2166,#1076);
#915=LINE('',#2167,#1077);
#916=LINE('',#2169,#1078);
#917=LINE('',#2179,#1079);
#918=LINE('',#2181,#1080);
#919=LINE('',#2184,#1081);
#920=LINE('',#2186,#1082);
#921=LINE('',#2189,#1083);
#922=LINE('',#2191,#1084);
#923=VECTOR('',#1466,1000.);
#924=VECTOR('',#1467,1000.);
#925=VECTOR('',#1468,1000.);
#926=VECTOR('',#1469,1000.);
#927=VECTOR('',#1472,1000.);
#928=VECTOR('',#1473,1000.);
#929=VECTOR('',#1474,1000.);
#930=VECTOR('',#1475,1000.);
#931=VECTOR('',#1478,1000.);
#932=VECTOR('',#1479,1000.);
#933=VECTOR('',#1482,1000.);
#934=VECTOR('',#1485,1000.);
#935=VECTOR('',#1488,1000.);
#936=VECTOR('',#1491,1000.);
#937=VECTOR('',#1494,1000.);
#938=VECTOR('',#1497,1000.);
#939=VECTOR('',#1500,1000.);
#940=VECTOR('',#1503,1000.);
#941=VECTOR('',#1504,1000.);
#942=VECTOR('',#1505,1000.);
#943=VECTOR('',#1506,1000.);
#944=VECTOR('',#1507,1000.);
#945=VECTOR('',#1508,1000.);
#946=VECTOR('',#1509,1000.);
#947=VECTOR('',#1510,1000.);
#948=VECTOR('',#1511,1000.);
#949=VECTOR('',#1512,1000.);
#950=VECTOR('',#1513,1000.);
#951=VECTOR('',#1514,1000.);
#952=VECTOR('',#1517,1000.);
#953=VECTOR('',#1520,1000.);
#954=VECTOR('',#1521,1000.);
#955=VECTOR('',#1526,1000.);
#956=VECTOR('',#1529,1000.);
#957=VECTOR('',#1532,1000.);
#958=VECTOR('',#1535,1000.);
#959=VECTOR('',#1540,1000.);
#960=VECTOR('',#1541,1000.);
#961=VECTOR('',#1542,1000.);
#962=VECTOR('',#1543,1000.);
#963=VECTOR('',#1546,1000.);
#964=VECTOR('',#1547,1000.);
#965=VECTOR('',#1550,1000.);
#966=VECTOR('',#1551,1000.);
#967=VECTOR('',#1554,1000.);
#968=VECTOR('',#1555,1000.);
#969=VECTOR('',#1558,1000.);
#970=VECTOR('',#1559,1000.);
#971=VECTOR('',#1562,1000.);
#972=VECTOR('',#1563,1000.);
#973=VECTOR('',#1564,1000.);
#974=VECTOR('',#1565,1000.);
#975=VECTOR('',#1568,1000.);
#976=VECTOR('',#1569,1000.);
#977=VECTOR('',#1570,1000.);
#978=VECTOR('',#1573,1000.);
#979=VECTOR('',#1574,1000.);
#980=VECTOR('',#1575,1000.);
#981=VECTOR('',#1578,1000.);
#982=VECTOR('',#1579,1000.);
#983=VECTOR('',#1584,1000.);
#984=VECTOR('',#1585,1000.);
#985=VECTOR('',#1586,1000.);
#986=VECTOR('',#1589,1000.);
#987=VECTOR('',#1590,1000.);
#988=VECTOR('',#1591,1000.);
#989=VECTOR('',#1594,1000.);
#990=VECTOR('',#1595,1000.);
#991=VECTOR('',#1596,1000.);
#992=VECTOR('',#1597,1000.);
#993=VECTOR('',#1598,1000.);
#994=VECTOR('',#1599,1000.);
#995=VECTOR('',#1600,1000.);
#996=VECTOR('',#1601,1000.);
#997=VECTOR('',#1602,1000.);
#998=VECTOR('',#1603,1000.);
#999=VECTOR('',#1606,1000.);
#1000=VECTOR('',#1609,1000.);
#1001=VECTOR('',#1610,1000.);
#1002=VECTOR('',#1613,1000.);
#1003=VECTOR('',#1614,1000.);
#1004=VECTOR('',#1615,1000.);
#1005=VECTOR('',#1618,1000.);
#1006=VECTOR('',#1619,1000.);
#1007=VECTOR('',#1620,1000.);
#1008=VECTOR('',#1621,1000.);
#1009=VECTOR('',#1624,1000.);
#1010=VECTOR('',#1625,1000.);
#1011=VECTOR('',#1626,1000.);
#1012=VECTOR('',#1629,1000.);
#1013=VECTOR('',#1630,1000.);
#1014=VECTOR('',#1631,1000.);
#1015=VECTOR('',#1632,1000.);
#1016=VECTOR('',#1633,1000.);
#1017=VECTOR('',#1634,1000.);
#1018=VECTOR('',#1637,1000.);
#1019=VECTOR('',#1642,1000.);
#1020=VECTOR('',#1643,1000.);
#1021=VECTOR('',#1644,1000.);
#1022=VECTOR('',#1645,1000.);
#1023=VECTOR('',#1648,1000.);
#1024=VECTOR('',#1649,1000.);
#1025=VECTOR('',#1650,1000.);
#1026=VECTOR('',#1653,1000.);
#1027=VECTOR('',#1654,1000.);
#1028=VECTOR('',#1657,1000.);
#1029=VECTOR('',#1658,1000.);
#1030=VECTOR('',#1659,1000.);
#1031=VECTOR('',#1660,1000.);
#1032=VECTOR('',#1661,1000.);
#1033=VECTOR('',#1662,1000.);
#1034=VECTOR('',#1663,1000.);
#1035=VECTOR('',#1664,1000.);
#1036=VECTOR('',#1665,1000.);
#1037=VECTOR('',#1666,1000.);
#1038=VECTOR('',#1667,1000.);
#1039=VECTOR('',#1668,1000.);
#1040=VECTOR('',#1669,1000.);
#1041=VECTOR('',#1676,1000.);
#1042=VECTOR('',#1677,1000.);
#1043=VECTOR('',#1678,1000.);
#1044=VECTOR('',#1681,1000.);
#1045=VECTOR('',#1682,1000.);
#1046=VECTOR('',#1685,1000.);
#1047=VECTOR('',#1686,1000.);
#1048=VECTOR('',#1689,1000.);
#1049=VECTOR('',#1690,1000.);
#1050=VECTOR('',#1691,1000.);
#1051=VECTOR('',#1694,1000.);
#1052=VECTOR('',#1695,1000.);
#1053=VECTOR('',#1696,1000.);
#1054=VECTOR('',#1699,1000.);
#1055=VECTOR('',#1702,1000.);
#1056=VECTOR('',#1705,1000.);
#1057=VECTOR('',#1706,1000.);
#1058=VECTOR('',#1709,1000.);
#1059=VECTOR('',#1710,1000.);
#1060=VECTOR('',#1711,1000.);
#1061=VECTOR('',#1714,1000.);
#1062=VECTOR('',#1715,1000.);
#1063=VECTOR('',#1716,1000.);
#1064=VECTOR('',#1719,1000.);
#1065=VECTOR('',#1720,1000.);
#1066=VECTOR('',#1725,1000.);
#1067=VECTOR('',#1726,1000.);
#1068=VECTOR('',#1727,1000.);
#1069=VECTOR('',#1730,1000.);
#1070=VECTOR('',#1731,1000.);
#1071=VECTOR('',#1734,1000.);
#1072=VECTOR('',#1735,1000.);
#1073=VECTOR('',#1738,1000.);
#1074=VECTOR('',#1741,1000.);
#1075=VECTOR('',#1742,1000.);
#1076=VECTOR('',#1743,1000.);
#1077=VECTOR('',#1744,1000.);
#1078=VECTOR('',#1745,1000.);
#1079=VECTOR('',#1764,1000.);
#1080=VECTOR('',#1767,1000.);
#1081=VECTOR('',#1772,1000.);
#1082=VECTOR('',#1775,1000.);
#1083=VECTOR('',#1780,1000.);
#1084=VECTOR('',#1783,1000.);
#1085=EDGE_LOOP('',(#59,#60,#61,#62));
#1086=EDGE_LOOP('',(#63,#64,#65,#66));
#1087=EDGE_LOOP('',(#67,#68,#69,#70,#71,#72));
#1088=EDGE_LOOP('',(#73,#74,#75,#76,#77,#78,#79,#80));
#1089=EDGE_LOOP('',(#81,#82,#83,#84,#85,#86,#87,#88,#89,#90,#91,#92,#93,
#94,#95,#96,#97));
#1090=EDGE_LOOP('',(#98,#99,#100,#101,#102,#103));
#1091=EDGE_LOOP('',(#104,#105,#106,#107,#108,#109,#110,#111));
#1092=EDGE_LOOP('',(#112,#113,#114,#115));
#1093=EDGE_LOOP('',(#116,#117,#118,#119));
#1094=EDGE_LOOP('',(#120,#121,#122,#123));
#1095=EDGE_LOOP('',(#124,#125,#126,#127));
#1096=EDGE_LOOP('',(#128,#129,#130,#131));
#1097=EDGE_LOOP('',(#132,#133,#134,#135));
#1098=EDGE_LOOP('',(#136,#137,#138,#139));
#1099=EDGE_LOOP('',(#140,#141,#142,#143));
#1100=EDGE_LOOP('',(#144,#145,#146,#147,#148));
#1101=EDGE_LOOP('',(#149,#150,#151,#152));
#1102=EDGE_LOOP('',(#153,#154,#155,#156));
#1103=EDGE_LOOP('',(#157,#158,#159,#160,#161,#162,#163,#164,#165,#166,#167,
#168,#169,#170,#171,#172,#173,#174,#175,#176,#177,#178));
#1104=EDGE_LOOP('',(#179,#180,#181,#182));
#1105=EDGE_LOOP('',(#183,#184,#185,#186));
#1106=EDGE_LOOP('',(#187,#188,#189));
#1107=EDGE_LOOP('',(#190,#191,#192,#193,#194,#195,#196,#197,#198,#199));
#1108=EDGE_LOOP('',(#200,#201,#202,#203));
#1109=EDGE_LOOP('',(#204,#205,#206,#207));
#1110=EDGE_LOOP('',(#208,#209,#210,#211));
#1111=EDGE_LOOP('',(#212,#213,#214,#215,#216,#217,#218,#219,#220,#221,#222,
#223,#224,#225,#226,#227,#228,#229));
#1112=EDGE_LOOP('',(#230,#231,#232,#233,#234,#235,#236,#237,#238,#239));
#1113=EDGE_LOOP('',(#240,#241,#242,#243));
#1114=EDGE_LOOP('',(#244,#245,#246,#247));
#1115=EDGE_LOOP('',(#248,#249,#250,#251,#252,#253));
#1116=EDGE_LOOP('',(#254,#255,#256,#257));
#1117=EDGE_LOOP('',(#258,#259,#260,#261));
#1118=EDGE_LOOP('',(#262,#263,#264,#265,#266,#267,#268));
#1119=EDGE_LOOP('',(#269,#270,#271,#272,#273,#274));
#1120=EDGE_LOOP('',(#275,#276,#277,#278));
#1121=EDGE_LOOP('',(#279,#280,#281,#282,#283,#284));
#1122=EDGE_LOOP('',(#285,#286,#287,#288,#289,#290,#291));
#1123=EDGE_LOOP('',(#292,#293,#294,#295));
#1124=EDGE_LOOP('',(#296,#297,#298,#299,#300,#301,#302,#303));
#1125=EDGE_LOOP('',(#304,#305,#306,#307));
#1126=EDGE_LOOP('',(#308,#309,#310,#311,#312,#313,#314,#315));
#1127=EDGE_LOOP('',(#316,#317,#318,#319));
#1128=EDGE_LOOP('',(#320,#321,#322,#323,#324,#325,#326,#327,#328));
#1129=EDGE_LOOP('',(#329,#330,#331,#332,#333,#334));
#1130=EDGE_LOOP('',(#335,#336,#337,#338));
#1131=EDGE_LOOP('',(#339,#340,#341,#342));
#1132=EDGE_LOOP('',(#343,#344,#345,#346,#347,#348));
#1133=EDGE_LOOP('',(#349,#350,#351,#352));
#1134=EDGE_LOOP('',(#353,#354,#355,#356));
#1135=EDGE_LOOP('',(#357,#358,#359,#360));
#1136=EDGE_LOOP('',(#361,#362,#363,#364));
#1137=EDGE_LOOP('',(#365,#366,#367,#368));
#1138=EDGE_LOOP('',(#369,#370,#371,#372));
#1139=EDGE_LOOP('',(#373,#374,#375,#376));
#1140=EDGE_LOOP('',(#377,#378,#379,#380));
#1141=EDGE_LOOP('',(#381,#382,#383,#384));
#1142=EDGE_LOOP('',(#385,#386,#387,#388));
#1143=EDGE_LOOP('',(#389,#390,#391,#392));
#1144=EDGE_LOOP('',(#393,#394,#395,#396));
#1145=EDGE_LOOP('',(#397,#398,#399,#400));
#1146=EDGE_LOOP('',(#401,#402,#403,#404));
#1147=EDGE_LOOP('',(#405,#406,#407,#408));
#1148=EDGE_LOOP('',(#409,#410,#411,#412));
#1149=EDGE_LOOP('',(#413,#414,#415));
#1150=EDGE_LOOP('',(#416,#417,#418,#419));
#1151=EDGE_LOOP('',(#420,#421,#422));
#1152=EDGE_LOOP('',(#423,#424,#425,#426));
#1153=EDGE_LOOP('',(#427,#428,#429,#430));
#1154=EDGE_LOOP('',(#431,#432,#433,#434));
#1155=EDGE_LOOP('',(#435,#436,#437,#438));
#1156=EDGE_LOOP('',(#439,#440,#441,#442));
#1157=FACE_BOUND('',#1085,.T.);
#1158=FACE_BOUND('',#1086,.T.);
#1159=FACE_BOUND('',#1087,.T.);
#1160=FACE_BOUND('',#1088,.T.);
#1161=FACE_BOUND('',#1089,.T.);
#1162=FACE_BOUND('',#1090,.T.);
#1163=FACE_BOUND('',#1091,.T.);
#1164=FACE_BOUND('',#1092,.T.);
#1165=FACE_BOUND('',#1093,.T.);
#1166=FACE_BOUND('',#1094,.T.);
#1167=FACE_BOUND('',#1095,.T.);
#1168=FACE_BOUND('',#1096,.T.);
#1169=FACE_BOUND('',#1097,.T.);
#1170=FACE_BOUND('',#1098,.T.);
#1171=FACE_BOUND('',#1099,.T.);
#1172=FACE_BOUND('',#1100,.T.);
#1173=FACE_BOUND('',#1101,.T.);
#1174=FACE_BOUND('',#1102,.T.);
#1175=FACE_BOUND('',#1103,.T.);
#1176=FACE_BOUND('',#1104,.T.);
#1177=FACE_BOUND('',#1105,.T.);
#1178=FACE_BOUND('',#1106,.T.);
#1179=FACE_BOUND('',#1107,.T.);
#1180=FACE_BOUND('',#1108,.T.);
#1181=FACE_BOUND('',#1109,.T.);
#1182=FACE_BOUND('',#1110,.T.);
#1183=FACE_BOUND('',#1111,.T.);
#1184=FACE_BOUND('',#1112,.T.);
#1185=FACE_BOUND('',#1113,.T.);
#1186=FACE_BOUND('',#1114,.T.);
#1187=FACE_BOUND('',#1115,.T.);
#1188=FACE_BOUND('',#1116,.T.);
#1189=FACE_BOUND('',#1117,.T.);
#1190=FACE_BOUND('',#1118,.T.);
#1191=FACE_BOUND('',#1119,.T.);
#1192=FACE_BOUND('',#1120,.T.);
#1193=FACE_BOUND('',#1121,.T.);
#1194=FACE_BOUND('',#1122,.T.);
#1195=FACE_BOUND('',#1123,.T.);
#1196=FACE_BOUND('',#1124,.T.);
#1197=FACE_BOUND('',#1125,.T.);
#1198=FACE_BOUND('',#1126,.T.);
#1199=FACE_BOUND('',#1127,.T.);
#1200=FACE_BOUND('',#1128,.T.);
#1201=FACE_BOUND('',#1129,.T.);
#1202=FACE_BOUND('',#1130,.T.);
#1203=FACE_BOUND('',#1131,.T.);
#1204=FACE_BOUND('',#1132,.T.);
#1205=FACE_BOUND('',#1133,.T.);
#1206=FACE_BOUND('',#1134,.T.);
#1207=FACE_BOUND('',#1135,.T.);
#1208=FACE_BOUND('',#1136,.T.);
#1209=FACE_BOUND('',#1137,.T.);
#1210=FACE_BOUND('',#1138,.T.);
#1211=FACE_BOUND('',#1139,.T.);
#1212=FACE_BOUND('',#1140,.T.);
#1213=FACE_BOUND('',#1141,.T.);
#1214=FACE_BOUND('',#1142,.T.);
#1215=FACE_BOUND('',#1143,.T.);
#1216=FACE_BOUND('',#1144,.T.);
#1217=FACE_BOUND('',#1145,.T.);
#1218=FACE_BOUND('',#1146,.T.);
#1219=FACE_BOUND('',#1147,.T.);
#1220=FACE_BOUND('',#1148,.T.);
#1221=FACE_BOUND('',#1149,.T.);
#1222=FACE_BOUND('',#1150,.T.);
#1223=FACE_BOUND('',#1151,.T.);
#1224=FACE_BOUND('',#1152,.T.);
#1225=FACE_BOUND('',#1153,.T.);
#1226=FACE_BOUND('',#1154,.T.);
#1227=FACE_BOUND('',#1155,.T.);
#1228=FACE_BOUND('',#1156,.T.);
#1229=PLANE('',#1363);
#1230=PLANE('',#1364);
#1231=PLANE('',#1365);
#1232=PLANE('',#1368);
#1233=PLANE('',#1374);
#1234=PLANE('',#1377);
#1235=PLANE('',#1382);
#1236=PLANE('',#1383);
#1237=PLANE('',#1384);
#1238=PLANE('',#1385);
#1239=PLANE('',#1386);
#1240=PLANE('',#1387);
#1241=PLANE('',#1388);
#1242=PLANE('',#1389);
#1243=PLANE('',#1390);
#1244=PLANE('',#1392);
#1245=PLANE('',#1393);
#1246=PLANE('',#1394);
#1247=PLANE('',#1397);
#1248=PLANE('',#1398);
#1249=PLANE('',#1399);
#1250=PLANE('',#1400);
#1251=PLANE('',#1403);
#1252=PLANE('',#1404);
#1253=PLANE('',#1405);
#1254=PLANE('',#1406);
#1255=PLANE('',#1409);
#1256=PLANE('',#1410);
#1257=PLANE('',#1411);
#1258=PLANE('',#1412);
#1259=PLANE('',#1413);
#1260=PLANE('',#1414);
#1261=PLANE('',#1416);
#1262=PLANE('',#1417);
#1263=PLANE('',#1418);
#1264=PLANE('',#1419);
#1265=PLANE('',#1421);
#1266=PLANE('',#1422);
#1267=PLANE('',#1423);
#1268=PLANE('',#1424);
#1269=PLANE('',#1425);
#1270=PLANE('',#1426);
#1271=PLANE('',#1427);
#1272=PLANE('',#1434);
#1273=PLANE('',#1435);
#1274=PLANE('',#1436);
#1275=PLANE('',#1437);
#1276=PLANE('',#1438);
#1277=PLANE('',#1439);
#1278=PLANE('',#1440);
#1279=PLANE('',#1441);
#1280=PLANE('',#1442);
#1281=ADVANCED_FACE('',(#1157),#1229,.F.);
#1282=ADVANCED_FACE('',(#1158),#1230,.F.);
#1283=ADVANCED_FACE('',(#1159),#1231,.F.);
#1284=ADVANCED_FACE('',(#1160,#1161),#1232,.F.);
#1285=ADVANCED_FACE('',(#1162),#1233,.F.);
#1286=ADVANCED_FACE('',(#1163),#1234,.T.);
#1287=ADVANCED_FACE('',(#1164),#1235,.T.);
#1288=ADVANCED_FACE('',(#1165),#1236,.T.);
#1289=ADVANCED_FACE('',(#1166),#1237,.T.);
#1290=ADVANCED_FACE('',(#1167),#1238,.T.);
#1291=ADVANCED_FACE('',(#1168),#1239,.T.);
#1292=ADVANCED_FACE('',(#1169),#1240,.T.);
#1293=ADVANCED_FACE('',(#1170),#1241,.T.);
#1294=ADVANCED_FACE('',(#1171),#1242,.T.);
#1295=ADVANCED_FACE('',(#1172),#1243,.T.);
#1296=ADVANCED_FACE('',(#1173),#1244,.T.);
#1297=ADVANCED_FACE('',(#1174),#1245,.F.);
#1298=ADVANCED_FACE('',(#1175),#1246,.T.);
#1299=ADVANCED_FACE('',(#1176),#1247,.F.);
#1300=ADVANCED_FACE('',(#1177),#1248,.T.);
#1301=ADVANCED_FACE('',(#1178),#1249,.T.);
#1302=ADVANCED_FACE('',(#1179),#1250,.T.);
#1303=ADVANCED_FACE('',(#1180),#1251,.F.);
#1304=ADVANCED_FACE('',(#1181),#1252,.F.);
#1305=ADVANCED_FACE('',(#1182),#1253,.F.);
#1306=ADVANCED_FACE('',(#1183,#1184),#1254,.F.);
#1307=ADVANCED_FACE('',(#1185),#1255,.T.);
#1308=ADVANCED_FACE('',(#1186),#1256,.T.);
#1309=ADVANCED_FACE('',(#1187),#1257,.F.);
#1310=ADVANCED_FACE('',(#1188),#1258,.F.);
#1311=ADVANCED_FACE('',(#1189),#1259,.T.);
#1312=ADVANCED_FACE('',(#1190),#1260,.T.);
#1313=ADVANCED_FACE('',(#1191),#1261,.F.);
#1314=ADVANCED_FACE('',(#1192),#1262,.F.);
#1315=ADVANCED_FACE('',(#1193),#1263,.F.);
#1316=ADVANCED_FACE('',(#1194),#1264,.T.);
#1317=ADVANCED_FACE('',(#1195),#1265,.T.);
#1318=ADVANCED_FACE('',(#1196),#1266,.T.);
#1319=ADVANCED_FACE('',(#1197),#1267,.T.);
#1320=ADVANCED_FACE('',(#1198),#1268,.T.);
#1321=ADVANCED_FACE('',(#1199,#1200),#1269,.F.);
#1322=ADVANCED_FACE('',(#1201),#1270,.F.);
#1323=ADVANCED_FACE('',(#1202),#1271,.F.);
#1324=ADVANCED_FACE('',(#1203),#14,.T.);
#1325=ADVANCED_FACE('',(#1204),#15,.T.);
#1326=ADVANCED_FACE('',(#1205),#16,.T.);
#1327=ADVANCED_FACE('',(#1206),#17,.T.);
#1328=ADVANCED_FACE('',(#1207),#1272,.T.);
#1329=ADVANCED_FACE('',(#1208),#1273,.T.);
#1330=ADVANCED_FACE('',(#1209),#1274,.T.);
#1331=ADVANCED_FACE('',(#1210),#1275,.T.);
#1332=ADVANCED_FACE('',(#1211),#1276,.T.);
#1333=ADVANCED_FACE('',(#1212),#1277,.T.);
#1334=ADVANCED_FACE('',(#1213),#1278,.T.);
#1335=ADVANCED_FACE('',(#1214),#1279,.T.);
#1336=ADVANCED_FACE('',(#1215),#1280,.T.);
#1337=ADVANCED_FACE('',(#1216),#18,.T.);
#1338=ADVANCED_FACE('',(#1217),#19,.T.);
#1339=ADVANCED_FACE('',(#1218),#20,.T.);
#1340=ADVANCED_FACE('',(#1219),#21,.T.);
#1341=ADVANCED_FACE('',(#1220),#22,.T.);
#1342=ADVANCED_FACE('',(#1221),#12,.T.);
#1343=ADVANCED_FACE('',(#1222),#23,.T.);
#1344=ADVANCED_FACE('',(#1223),#13,.T.);
#1345=ADVANCED_FACE('',(#1224),#24,.T.);
#1346=ADVANCED_FACE('',(#1225),#25,.F.);
#1347=ADVANCED_FACE('',(#1226),#26,.F.);
#1348=ADVANCED_FACE('',(#1227),#27,.F.);
#1349=ADVANCED_FACE('',(#1228),#28,.F.);
#1350=CLOSED_SHELL('',(#1281,#1282,#1283,#1284,#1285,#1286,#1287,#1288,
#1289,#1290,#1291,#1292,#1293,#1294,#1295,#1296,#1297,#1298,#1299,#1300,
#1301,#1302,#1303,#1304,#1305,#1306,#1307,#1308,#1309,#1310,#1311,#1312,
#1313,#1314,#1315,#1316,#1317,#1318,#1319,#1320,#1321,#1322,#1323,#1324,
#1325,#1326,#1327,#1328,#1329,#1330,#1331,#1332,#1333,#1334,#1335,#1336,
#1337,#1338,#1339,#1340,#1341,#1342,#1343,#1344,#1345,#1346,#1347,#1348,
#1349));
#1351=STYLED_ITEM('',(#1352),#1359);
#1352=PRESENTATION_STYLE_ASSIGNMENT((#1353));
#1353=SURFACE_STYLE_USAGE(.BOTH.,#1354);
#1354=SURFACE_SIDE_STYLE('',(#1355));
#1355=SURFACE_STYLE_FILL_AREA(#1356);
#1356=FILL_AREA_STYLE('',(#1357));
#1357=FILL_AREA_STYLE_COLOUR('',#1358);
#1358=COLOUR_RGB('',0.611764705882353,0.658823529411765,0.670588235294118);
#1359=MANIFOLD_SOLID_BREP('Body (4)',#1350);
#1360=SHAPE_DEFINITION_REPRESENTATION(#2218,#1361);
#1361=SHAPE_REPRESENTATION('U05-5',(#1362),#2213);
#1362=AXIS2_PLACEMENT_3D('',#1824,#1462,#1463);
#1363=AXIS2_PLACEMENT_3D('',#1825,#1464,#1465);
#1364=AXIS2_PLACEMENT_3D('',#1834,#1470,#1471);
#1365=AXIS2_PLACEMENT_3D('',#1843,#1476,#1477);
#1366=AXIS2_PLACEMENT_3D('',#1849,#1480,#1481);
#1367=AXIS2_PLACEMENT_3D('',#1853,#1483,#1484);
#1368=AXIS2_PLACEMENT_3D('',#1856,#1486,#1487);
#1369=AXIS2_PLACEMENT_3D('',#1860,#1489,#1490);
#1370=AXIS2_PLACEMENT_3D('',#1864,#1492,#1493);
#1371=AXIS2_PLACEMENT_3D('',#1868,#1495,#1496);
#1372=AXIS2_PLACEMENT_3D('',#1872,#1498,#1499);
#1373=AXIS2_PLACEMENT_3D('',#1876,#1501,#1502);
#1374=AXIS2_PLACEMENT_3D('',#1898,#1515,#1516);
#1375=AXIS2_PLACEMENT_3D('',#1902,#1518,#1519);
#1376=AXIS2_PLACEMENT_3D('',#1907,#1522,#1523);
#1377=AXIS2_PLACEMENT_3D('',#1908,#1524,#1525);
#1378=AXIS2_PLACEMENT_3D('',#1912,#1527,#1528);
#1379=AXIS2_PLACEMENT_3D('',#1916,#1530,#1531);
#1380=AXIS2_PLACEMENT_3D('',#1920,#1533,#1534);
#1381=AXIS2_PLACEMENT_3D('',#1924,#1536,#1537);
#1382=AXIS2_PLACEMENT_3D('',#1925,#1538,#1539);
#1383=AXIS2_PLACEMENT_3D('',#1934,#1544,#1545);
#1384=AXIS2_PLACEMENT_3D('',#1937,#1548,#1549);
#1385=AXIS2_PLACEMENT_3D('',#1940,#1552,#1553);
#1386=AXIS2_PLACEMENT_3D('',#1943,#1556,#1557);
#1387=AXIS2_PLACEMENT_3D('',#1946,#1560,#1561);
#1388=AXIS2_PLACEMENT_3D('',#1955,#1566,#1567);
#1389=AXIS2_PLACEMENT_3D('',#1961,#1571,#1572);
#1390=AXIS2_PLACEMENT_3D('',#1967,#1576,#1577);
#1391=AXIS2_PLACEMENT_3D('',#1972,#1580,#1581);
#1392=AXIS2_PLACEMENT_3D('',#1973,#1582,#1583);
#1393=AXIS2_PLACEMENT_3D('',#1979,#1587,#1588);
#1394=AXIS2_PLACEMENT_3D('',#1985,#1592,#1593);
#1395=AXIS2_PLACEMENT_3D('',#2003,#1604,#1605);
#1396=AXIS2_PLACEMENT_3D('',#2006,#1607,#1608);
#1397=AXIS2_PLACEMENT_3D('',#2010,#1611,#1612);
#1398=AXIS2_PLACEMENT_3D('',#2016,#1616,#1617);
#1399=AXIS2_PLACEMENT_3D('',#2025,#1622,#1623);
#1400=AXIS2_PLACEMENT_3D('',#2032,#1627,#1628);
#1401=AXIS2_PLACEMENT_3D('',#2045,#1635,#1636);
#1402=AXIS2_PLACEMENT_3D('',#2049,#1638,#1639);
#1403=AXIS2_PLACEMENT_3D('',#2050,#1640,#1641);
#1404=AXIS2_PLACEMENT_3D('',#2059,#1646,#1647);
#1405=AXIS2_PLACEMENT_3D('',#2065,#1651,#1652);
#1406=AXIS2_PLACEMENT_3D('',#2069,#1655,#1656);
#1407=AXIS2_PLACEMENT_3D('',#2090,#1670,#1671);
#1408=AXIS2_PLACEMENT_3D('',#2091,#1672,#1673);
#1409=AXIS2_PLACEMENT_3D('',#2092,#1674,#1675);
#1410=AXIS2_PLACEMENT_3D('',#2098,#1679,#1680);
#1411=AXIS2_PLACEMENT_3D('',#2102,#1683,#1684);
#1412=AXIS2_PLACEMENT_3D('',#2106,#1687,#1688);
#1413=AXIS2_PLACEMENT_3D('',#2112,#1692,#1693);
#1414=AXIS2_PLACEMENT_3D('',#2118,#1697,#1698);
#1415=AXIS2_PLACEMENT_3D('',#2121,#1700,#1701);
#1416=AXIS2_PLACEMENT_3D('',#2124,#1703,#1704);
#1417=AXIS2_PLACEMENT_3D('',#2128,#1707,#1708);
#1418=AXIS2_PLACEMENT_3D('',#2134,#1712,#1713);
#1419=AXIS2_PLACEMENT_3D('',#2140,#1717,#1718);
#1420=AXIS2_PLACEMENT_3D('',#2145,#1721,#1722);
#1421=AXIS2_PLACEMENT_3D('',#2146,#1723,#1724);
#1422=AXIS2_PLACEMENT_3D('',#2152,#1728,#1729);
#1423=AXIS2_PLACEMENT_3D('',#2156,#1732,#1733);
#1424=AXIS2_PLACEMENT_3D('',#2160,#1736,#1737);
#1425=AXIS2_PLACEMENT_3D('',#2162,#1739,#1740);
#1426=AXIS2_PLACEMENT_3D('',#2170,#1746,#1747);
#1427=AXIS2_PLACEMENT_3D('',#2171,#1748,#1749);
#1428=AXIS2_PLACEMENT_3D('',#2172,#1750,#1751);
#1429=AXIS2_PLACEMENT_3D('',#2173,#1752,#1753);
#1430=AXIS2_PLACEMENT_3D('',#2174,#1754,#1755);
#1431=AXIS2_PLACEMENT_3D('',#2175,#1756,#1757);
#1432=AXIS2_PLACEMENT_3D('',#2176,#1758,#1759);
#1433=AXIS2_PLACEMENT_3D('',#2177,#1760,#1761);
#1434=AXIS2_PLACEMENT_3D('',#2178,#1762,#1763);
#1435=AXIS2_PLACEMENT_3D('',#2180,#1765,#1766);
#1436=AXIS2_PLACEMENT_3D('',#2182,#1768,#1769);
#1437=AXIS2_PLACEMENT_3D('',#2183,#1770,#1771);
#1438=AXIS2_PLACEMENT_3D('',#2185,#1773,#1774);
#1439=AXIS2_PLACEMENT_3D('',#2187,#1776,#1777);
#1440=AXIS2_PLACEMENT_3D('',#2188,#1778,#1779);
#1441=AXIS2_PLACEMENT_3D('',#2190,#1781,#1782);
#1442=AXIS2_PLACEMENT_3D('',#2192,#1784,#1785);
#1443=AXIS2_PLACEMENT_3D('',#2193,#1786,#1787);
#1444=AXIS2_PLACEMENT_3D('',#2194,#1788,#1789);
#1445=AXIS2_PLACEMENT_3D('',#2195,#1790,#1791);
#1446=AXIS2_PLACEMENT_3D('',#2196,#1792,#1793);
#1447=AXIS2_PLACEMENT_3D('',#2197,#1794,#1795);
#1448=AXIS2_PLACEMENT_3D('',#2198,#1796,#1797);
#1449=AXIS2_PLACEMENT_3D('',#2199,#1798,#1799);
#1450=AXIS2_PLACEMENT_3D('',#2200,#1800,#1801);
#1451=AXIS2_PLACEMENT_3D('',#2201,#1802,#1803);
#1452=AXIS2_PLACEMENT_3D('',#2202,#1804,#1805);
#1453=AXIS2_PLACEMENT_3D('',#2203,#1806,#1807);
#1454=AXIS2_PLACEMENT_3D('',#2204,#1808,#1809);
#1455=AXIS2_PLACEMENT_3D('',#2205,#1810,#1811);
#1456=AXIS2_PLACEMENT_3D('',#2206,#1812,#1813);
#1457=AXIS2_PLACEMENT_3D('',#2207,#1814,#1815);
#1458=AXIS2_PLACEMENT_3D('',#2208,#1816,#1817);
#1459=AXIS2_PLACEMENT_3D('',#2209,#1818,#1819);
#1460=AXIS2_PLACEMENT_3D('',#2210,#1820,#1821);
#1461=AXIS2_PLACEMENT_3D('',#2211,#1822,#1823);
#1462=DIRECTION('',(0.,0.,1.));
#1463=DIRECTION('',(1.,0.,0.));
#1464=DIRECTION('',(-5.11165184254499E-16,0.,1.));
#1465=DIRECTION('',(-1.,0.,-5.11165184254499E-16));
#1466=DIRECTION('',(0.,1.,0.));
#1467=DIRECTION('',(-1.,0.,-5.11165184254499E-16));
#1468=DIRECTION('',(0.,1.,0.));
#1469=DIRECTION('',(-1.,0.,-5.11165184254499E-16));
#1470=DIRECTION('',(-5.11165184254499E-16,0.,1.));
#1471=DIRECTION('',(-1.,0.,-5.11165184254499E-16));
#1472=DIRECTION('',(0.,1.,0.));
#1473=DIRECTION('',(-1.,0.,-5.11165184254499E-16));
#1474=DIRECTION('',(0.,1.,0.));
#1475=DIRECTION('',(-1.,0.,-5.11165184254499E-16));
#1476=DIRECTION('',(-5.11165184254499E-16,0.,1.));
#1477=DIRECTION('',(-1.,0.,-5.11165184254499E-16));
#1478=DIRECTION('',(0.,1.,0.));
#1479=DIRECTION('',(-1.,0.,-5.11165184254499E-16));
#1480=DIRECTION('',(5.11165184254499E-16,0.,-1.));
#1481=DIRECTION('',(-1.,0.,-5.11165184254499E-16));
#1482=DIRECTION('',(0.,1.,0.));
#1483=DIRECTION('',(5.11165184254499E-16,0.,-1.));
#1484=DIRECTION('',(1.,0.,5.11165184254499E-16));
#1485=DIRECTION('',(-1.,0.,-5.11165184254499E-16));
#1486=DIRECTION('',(0.,-1.,0.));
#1487=DIRECTION('',(-2.22044604925032E-16,0.,1.));
#1488=DIRECTION('',(2.82207528605839E-17,0.,-1.));
#1489=DIRECTION('',(0.,1.,0.));
#1490=DIRECTION('',(-2.22044604925032E-16,0.,1.));
#1491=DIRECTION('',(1.,0.,2.22044604925032E-16));
#1492=DIRECTION('',(0.,1.,0.));
#1493=DIRECTION('',(-2.22044604925032E-16,0.,1.));
#1494=DIRECTION('',(-3.67412493973367E-16,0.,1.));
#1495=DIRECTION('',(0.,1.,0.));
#1496=DIRECTION('',(-2.22044604925032E-16,0.,1.));
#1497=DIRECTION('',(-1.,0.,-1.66764750157237E-15));
#1498=DIRECTION('',(0.,1.,0.));
#1499=DIRECTION('',(-2.22044604925032E-16,0.,1.));
#1500=DIRECTION('',(1.,0.,1.43939441262805E-15));
#1501=DIRECTION('',(0.,1.,0.));
#1502=DIRECTION('',(-2.22044604925032E-16,0.,1.));
#1503=DIRECTION('',(-0.497045922110837,0.,-0.867724236905359));
#1504=DIRECTION('',(-2.22044604925032E-16,0.,1.));
#1505=DIRECTION('',(-1.,0.,-2.22044604925032E-16));
#1506=DIRECTION('',(2.22044604925032E-16,0.,-1.));
#1507=DIRECTION('',(1.51267887105173E-15,0.,1.));
#1508=DIRECTION('',(-1.,0.,-2.22044604925032E-16));
#1509=DIRECTION('',(-1.51267887105174E-15,0.,-1.));
#1510=DIRECTION('',(1.51267887105175E-15,0.,1.));
#1511=DIRECTION('',(-1.,0.,-2.22044604925032E-16));
#1512=DIRECTION('',(-1.51267887105175E-15,0.,-1.));
#1513=DIRECTION('',(-1.,0.,-5.11165184254499E-16));
#1514=DIRECTION('',(1.46215294456701E-15,0.,1.));
#1515=DIRECTION('',(-5.11165184254499E-16,0.,1.));
#1516=DIRECTION('',(-1.,0.,-5.11165184254499E-16));
#1517=DIRECTION('',(0.,1.,0.));
#1518=DIRECTION('',(5.11165184254499E-16,0.,-1.));
#1519=DIRECTION('',(-1.,0.,-5.11165184254499E-16));
#1520=DIRECTION('',(0.,1.,0.));
#1521=DIRECTION('',(-1.,0.,-5.11165184254499E-16));
#1522=DIRECTION('',(5.11165184254499E-16,0.,-1.));
#1523=DIRECTION('',(-1.,0.,-5.11165184254499E-16));
#1524=DIRECTION('',(0.,1.,0.));
#1525=DIRECTION('',(2.22044604925032E-16,0.,-1.));
#1526=DIRECTION('',(2.82207528605839E-17,0.,-1.));
#1527=DIRECTION('',(0.,-1.,0.));
#1528=DIRECTION('',(2.22044604925032E-16,0.,-1.));
#1529=DIRECTION('',(1.,0.,1.66764750157237E-15));
#1530=DIRECTION('',(0.,-1.,0.));
#1531=DIRECTION('',(2.22044604925032E-16,0.,-1.));
#1532=DIRECTION('',(-3.67412493973367E-16,0.,1.));
#1533=DIRECTION('',(0.,-1.,0.));
#1534=DIRECTION('',(2.22044604925032E-16,0.,-1.));
#1535=DIRECTION('',(-1.,0.,-5.11165184254499E-16));
#1536=DIRECTION('',(0.,-1.,0.));
#1537=DIRECTION('',(2.22044604925032E-16,0.,-1.));
#1538=DIRECTION('',(-0.593852296837114,0.,-0.804574079585767));
#1539=DIRECTION('',(0.804574079585767,0.,-0.593852296837114));
#1540=DIRECTION('',(0.804574079585767,0.,-0.593852296837114));
#1541=DIRECTION('',(0.,1.,0.));
#1542=DIRECTION('',(-0.804574079585767,0.,0.593852296837114));
#1543=DIRECTION('',(0.,1.,0.));
#1544=DIRECTION('',(-5.11165184254499E-16,0.,1.));
#1545=DIRECTION('',(-1.,0.,-5.11165184254499E-16));
#1546=DIRECTION('',(0.,-1.,0.));
#1547=DIRECTION('',(0.,-1.,0.));
#1548=DIRECTION('',(-1.,0.,-3.67412493973367E-16));
#1549=DIRECTION('',(3.67412493973367E-16,0.,-1.));
#1550=DIRECTION('',(0.,-1.,0.));
#1551=DIRECTION('',(0.,-1.,0.));
#1552=DIRECTION('',(1.66764750157237E-15,0.,-1.));
#1553=DIRECTION('',(1.,0.,1.66764750157237E-15));
#1554=DIRECTION('',(0.,-1.,0.));
#1555=DIRECTION('',(0.,-1.,0.));
#1556=DIRECTION('',(1.,0.,2.82207528605839E-17));
#1557=DIRECTION('',(-2.82207528605839E-17,0.,1.));
#1558=DIRECTION('',(0.,-1.,0.));
#1559=DIRECTION('',(0.,-1.,0.));
#1560=DIRECTION('',(1.11022302462516E-16,0.,-1.));
#1561=DIRECTION('',(1.,0.,1.11022302462516E-16));
#1562=DIRECTION('',(-1.,0.,-1.11022302462516E-16));
#1563=DIRECTION('',(0.,-1.,0.));
#1564=DIRECTION('',(1.,0.,1.31694423884573E-16));
#1565=DIRECTION('',(0.,-1.,0.));
#1566=DIRECTION('',(0.,1.,0.));
#1567=DIRECTION('',(2.22044604925032E-16,0.,-1.));
#1568=DIRECTION('',(2.82207528605839E-17,0.,-1.));
#1569=DIRECTION('',(-3.67412493973367E-16,0.,1.));
#1570=DIRECTION('',(-1.,0.,-2.22044604925032E-16));
#1571=DIRECTION('',(-1.,0.,-2.22044604925032E-16));
#1572=DIRECTION('',(2.22044604925032E-16,0.,-1.));
#1573=DIRECTION('',(2.22044604925032E-16,0.,-1.));
#1574=DIRECTION('',(0.,1.,0.));
#1575=DIRECTION('',(-2.22044604925032E-16,0.,1.));
#1576=DIRECTION('',(0.,-1.,0.));
#1577=DIRECTION('',(-2.22044604925032E-16,0.,1.));
#1578=DIRECTION('',(-7.98541560744735E-17,0.,1.));
#1579=DIRECTION('',(-1.,0.,-1.04810340300923E-15));
#1580=DIRECTION('',(0.,1.,0.));
#1581=DIRECTION('',(-2.22044604925032E-16,0.,1.));
#1582=DIRECTION('',(1.,0.,7.98541560744735E-17));
#1583=DIRECTION('',(-7.98541560744735E-17,0.,1.));
#1584=DIRECTION('',(7.98541560744735E-17,0.,-1.));
#1585=DIRECTION('',(0.,1.,0.));
#1586=DIRECTION('',(0.,1.,0.));
#1587=DIRECTION('',(-0.867724236905359,0.,0.497045922110837));
#1588=DIRECTION('',(-0.497045922110837,0.,-0.867724236905359));
#1589=DIRECTION('',(0.,1.,0.));
#1590=DIRECTION('',(-0.497045922110837,0.,-0.867724236905359));
#1591=DIRECTION('',(-0.497045922110837,0.,-0.867724236905359));
#1592=DIRECTION('',(0.,-1.,0.));
#1593=DIRECTION('',(-2.22044604925032E-16,0.,1.));
#1594=DIRECTION('',(1.51267887105175E-15,0.,1.));
#1595=DIRECTION('',(1.,0.,2.22044604925032E-16));
#1596=DIRECTION('',(-1.51267887105175E-15,0.,-1.));
#1597=DIRECTION('',(1.51267887105174E-15,0.,1.));
#1598=DIRECTION('',(1.,0.,2.22044604925032E-16));
#1599=DIRECTION('',(-1.51267887105173E-15,0.,-1.));
#1600=DIRECTION('',(-2.22044604925032E-16,0.,1.));
#1601=DIRECTION('',(1.,0.,2.22044604925032E-16));
#1602=DIRECTION('',(2.22044604925032E-16,0.,-1.));
#1603=DIRECTION('',(-0.497045922110837,0.,-0.867724236905359));
#1604=DIRECTION('',(0.,1.,0.));
#1605=DIRECTION('',(-2.22044604925032E-16,0.,1.));
#1606=DIRECTION('',(1.,0.,1.43939441262805E-15));
#1607=DIRECTION('',(0.,1.,0.));
#1608=DIRECTION('',(-2.22044604925032E-16,0.,1.));
#1609=DIRECTION('',(1.,0.,1.43939441262805E-15));
#1610=DIRECTION('',(1.46215294456701E-15,0.,1.));
#1611=DIRECTION('',(1.,0.,-1.46215294456701E-15));
#1612=DIRECTION('',(1.46215294456701E-15,0.,1.));
#1613=DIRECTION('',(0.,1.,0.));
#1614=DIRECTION('',(1.46215294456701E-15,0.,1.));
#1615=DIRECTION('',(1.46215294456701E-15,0.,1.));
#1616=DIRECTION('',(0.,1.,0.));
#1617=DIRECTION('',(2.22044604925032E-16,0.,-1.));
#1618=DIRECTION('',(-1.,0.,-1.66764750157237E-15));
#1619=DIRECTION('',(2.82207528605839E-17,0.,-1.));
#1620=DIRECTION('',(1.,0.,2.22044604925032E-16));
#1621=DIRECTION('',(-3.67412493973367E-16,0.,1.));
#1622=DIRECTION('',(0.,-1.,0.));
#1623=DIRECTION('',(-2.22044604925032E-16,0.,1.));
#1624=DIRECTION('',(-0.497045922110837,0.,-0.867724236905359));
#1625=DIRECTION('',(1.,0.,1.43939441262805E-15));
#1626=DIRECTION('',(3.67412493973367E-16,0.,-1.));
#1627=DIRECTION('',(0.,1.,0.));
#1628=DIRECTION('',(2.22044604925032E-16,0.,-1.));
#1629=DIRECTION('',(-3.67412493973367E-16,0.,1.));
#1630=DIRECTION('',(1.,0.,2.22044604925032E-16));
#1631=DIRECTION('',(3.55075546334296E-16,0.,-1.));
#1632=DIRECTION('',(-9.19509867020862E-18,0.,1.));
#1633=DIRECTION('',(1.,0.,2.22044604925032E-16));
#1634=DIRECTION('',(2.82207528605839E-17,0.,-1.));
#1635=DIRECTION('',(0.,-1.,0.));
#1636=DIRECTION('',(2.22044604925032E-16,0.,-1.));
#1637=DIRECTION('',(-1.,0.,-1.11022302462516E-16));
#1638=DIRECTION('',(0.,-1.,0.));
#1639=DIRECTION('',(2.22044604925032E-16,0.,-1.));
#1640=DIRECTION('',(0.,-1.,0.));
#1641=DIRECTION('',(-2.22044604925032E-16,0.,1.));
#1642=DIRECTION('',(2.22044604925032E-16,0.,-1.));
#1643=DIRECTION('',(-1.,0.,-1.43939441262805E-15));
#1644=DIRECTION('',(-7.98541560744735E-17,0.,1.));
#1645=DIRECTION('',(0.804574079585767,0.,-0.593852296837114));
#1646=DIRECTION('',(-1.,0.,-2.22044604925032E-16));
#1647=DIRECTION('',(2.22044604925032E-16,0.,-1.));
#1648=DIRECTION('',(0.,1.,0.));
#1649=DIRECTION('',(-2.22044604925032E-16,0.,1.));
#1650=DIRECTION('',(0.,1.,0.));
#1651=DIRECTION('',(-0.593852296837114,0.,-0.804574079585767));
#1652=DIRECTION('',(0.804574079585767,0.,-0.593852296837114));
#1653=DIRECTION('',(0.,1.,0.));
#1654=DIRECTION('',(-0.804574079585767,0.,0.593852296837114));
#1655=DIRECTION('',(1.43939441262805E-15,0.,-1.));
#1656=DIRECTION('',(1.,0.,1.43939441262805E-15));
#1657=DIRECTION('',(0.,-1.,0.));
#1658=DIRECTION('',(0.,-1.,0.));
#1659=DIRECTION('',(0.,-1.,0.));
#1660=DIRECTION('',(0.,1.,0.));
#1661=DIRECTION('',(1.,0.,1.43939441262805E-15));
#1662=DIRECTION('',(1.74246777720885E-15,-1.,3.86905569184936E-31));
#1663=DIRECTION('',(-1.,0.,-2.22044604925032E-16));
#1664=DIRECTION('',(0.,1.,0.));
#1665=DIRECTION('',(1.,0.,1.43939441262805E-15));
#1666=DIRECTION('',(0.,1.,0.));
#1667=DIRECTION('',(1.,0.,1.43939441262805E-15));
#1668=DIRECTION('',(0.,-1.,0.));
#1669=DIRECTION('',(0.,1.,0.));
#1670=DIRECTION('',(-1.43939441262805E-15,0.,1.));
#1671=DIRECTION('',(1.,0.,1.43939441262805E-15));
#1672=DIRECTION('',(-1.43939441262805E-15,0.,1.));
#1673=DIRECTION('',(1.,0.,1.43939441262805E-15));
#1674=DIRECTION('',(0.,-1.,0.));
#1675=DIRECTION('',(-2.22044604925032E-16,0.,1.));
#1676=DIRECTION('',(1.46215294456701E-15,0.,1.));
#1677=DIRECTION('',(-1.,0.,-5.11165184254499E-16));
#1678=DIRECTION('',(2.82207528605839E-17,0.,-1.));
#1679=DIRECTION('',(1.,0.,-1.46215294456701E-15));
#1680=DIRECTION('',(1.46215294456701E-15,0.,1.));
#1681=DIRECTION('',(1.46215294456701E-15,0.,1.));
#1682=DIRECTION('',(0.,1.,0.));
#1683=DIRECTION('',(0.,-1.,0.));
#1684=DIRECTION('',(-2.22044604925032E-16,0.,1.));
#1685=DIRECTION('',(2.22044604925031E-16,0.,-1.));
#1686=DIRECTION('',(-1.,0.,-5.11165184254499E-16));
#1687=DIRECTION('',(0.,-1.,0.));
#1688=DIRECTION('',(-2.22044604925032E-16,0.,1.));
#1689=DIRECTION('',(-0.497045922110837,0.,-0.867724236905359));
#1690=DIRECTION('',(-1.,0.,-5.11165184254499E-16));
#1691=DIRECTION('',(2.22044604925031E-16,0.,-1.));
#1692=DIRECTION('',(-5.11165184254499E-16,0.,1.));
#1693=DIRECTION('',(-1.,0.,-5.11165184254499E-16));
#1694=DIRECTION('',(0.,1.,0.));
#1695=DIRECTION('',(-1.,0.,-5.11165184254499E-16));
#1696=DIRECTION('',(-1.74246777720885E-15,1.,-8.90688862394489E-31));
#1697=DIRECTION('',(-0.867724236905359,0.,0.497045922110837));
#1698=DIRECTION('',(-0.497045922110837,0.,-0.867724236905359));
#1699=DIRECTION('',(0.,-1.,0.));
#1700=DIRECTION('',(0.867724236905359,0.,-0.497045922110837));
#1701=DIRECTION('',(0.497045922110837,0.,0.867724236905359));
#1702=DIRECTION('',(0.497045922110837,0.,0.867724236905359));
#1703=DIRECTION('',(-1.,0.,-3.67412493973367E-16));
#1704=DIRECTION('',(3.67412493973367E-16,0.,-1.));
#1705=DIRECTION('',(-3.67412493973367E-16,0.,1.));
#1706=DIRECTION('',(0.,-1.,0.));
#1707=DIRECTION('',(1.11022302462516E-16,0.,-1.));
#1708=DIRECTION('',(1.,0.,1.11022302462516E-16));
#1709=DIRECTION('',(0.,-1.,0.));
#1710=DIRECTION('',(-1.,0.,-1.11022302462516E-16));
#1711=DIRECTION('',(0.,-1.,0.));
#1712=DIRECTION('',(1.,0.,2.82207528605839E-17));
#1713=DIRECTION('',(-2.82207528605839E-17,0.,1.));
#1714=DIRECTION('',(0.,1.,0.));
#1715=DIRECTION('',(2.82207528605839E-17,0.,-1.));
#1716=DIRECTION('',(0.,-1.,0.));
#1717=DIRECTION('',(-5.11165184254499E-16,0.,1.));
#1718=DIRECTION('',(-1.,0.,-5.11165184254499E-16));
#1719=DIRECTION('',(3.75598609753907E-15,-1.,1.9199293256059E-30));
#1720=DIRECTION('',(-1.,0.,-5.11165184254499E-16));
#1721=DIRECTION('',(5.11165184254499E-16,0.,-1.));
#1722=DIRECTION('',(-1.,0.,-5.11165184254499E-16));
#1723=DIRECTION('',(2.22044604925032E-16,0.,-1.));
#1724=DIRECTION('',(1.,0.,2.22044604925032E-16));
#1725=DIRECTION('',(0.,-1.,0.));
#1726=DIRECTION('',(1.,0.,2.22044604925032E-16));
#1727=DIRECTION('',(0.,-1.,0.));
#1728=DIRECTION('',(-1.,0.,-3.67412493973367E-16));
#1729=DIRECTION('',(3.67412493973367E-16,0.,-1.));
#1730=DIRECTION('',(0.,-1.,0.));
#1731=DIRECTION('',(3.67412493973367E-16,0.,-1.));
#1732=DIRECTION('',(-2.22044604925032E-16,0.,1.));
#1733=DIRECTION('',(-1.,0.,-2.22044604925032E-16));
#1734=DIRECTION('',(0.,-1.,0.));
#1735=DIRECTION('',(-1.,0.,-2.22044604925032E-16));
#1736=DIRECTION('',(1.,0.,2.82207528605839E-17));
#1737=DIRECTION('',(-2.82207528605839E-17,0.,1.));
#1738=DIRECTION('',(-2.82207528605839E-17,0.,1.));
#1739=DIRECTION('',(0.,1.,0.));
#1740=DIRECTION('',(2.22044604925032E-16,0.,-1.));
#1741=DIRECTION('',(2.82207528605839E-17,0.,-1.));
#1742=DIRECTION('',(2.22044604925031E-16,0.,-1.));
#1743=DIRECTION('',(2.22044604925031E-16,0.,-1.));
#1744=DIRECTION('',(-3.67412493973367E-16,0.,1.));
#1745=DIRECTION('',(-1.,0.,-1.11022302462516E-16));
#1746=DIRECTION('',(1.,0.,7.98541560744735E-17));
#1747=DIRECTION('',(-7.98541560744735E-17,0.,1.));
#1748=DIRECTION('',(-1.,-1.74246777720885E-15,-2.22044604925031E-16));
#1749=DIRECTION('',(1.74246777720885E-15,-1.,3.86905569184936E-31));
#1750=DIRECTION('',(0.497045922110837,0.,0.867724236905359));
#1751=DIRECTION('',(-0.867724236905359,0.,0.497045922110837));
#1752=DIRECTION('',(-0.351464542085693,-0.707106781186547,-0.613573692115702));
#1753=DIRECTION('',(-0.351464542085693,0.707106781186547,-0.613573692115702));
#1754=DIRECTION('',(0.,1.,0.));
#1755=DIRECTION('',(2.22044604925032E-16,0.,-1.));
#1756=DIRECTION('',(0.351464542085693,-0.707106781186547,0.613573692115702));
#1757=DIRECTION('',(0.351464542085693,0.707106781186547,0.613573692115702));
#1758=DIRECTION('',(-0.497045922110837,0.,-0.867724236905359));
#1759=DIRECTION('',(0.867724236905359,0.,-0.497045922110837));
#1760=DIRECTION('',(0.,1.,0.));
#1761=DIRECTION('',(2.22044604925032E-16,0.,-1.));
#1762=DIRECTION('',(1.,0.,2.22044604925031E-16));
#1763=DIRECTION('',(-2.22044604925032E-16,0.,1.));
#1764=DIRECTION('',(0.,1.,0.));
#1765=DIRECTION('',(2.22044604925031E-16,0.,-1.));
#1766=DIRECTION('',(1.,0.,2.22044604925032E-16));
#1767=DIRECTION('',(0.,1.,0.));
#1768=DIRECTION('',(-1.,0.,-2.22044604925031E-16));
#1769=DIRECTION('',(2.22044604925032E-16,0.,-1.));
#1770=DIRECTION('',(1.,0.,-1.51267887105174E-15));
#1771=DIRECTION('',(1.51267887105174E-15,0.,1.));
#1772=DIRECTION('',(0.,1.,0.));
#1773=DIRECTION('',(2.22044604925031E-16,0.,-1.));
#1774=DIRECTION('',(1.,0.,2.22044604925032E-16));
#1775=DIRECTION('',(0.,1.,0.));
#1776=DIRECTION('',(-1.,0.,1.51267887105173E-15));
#1777=DIRECTION('',(-1.51267887105173E-15,0.,-1.));
#1778=DIRECTION('',(1.,0.,-1.51267887105175E-15));
#1779=DIRECTION('',(1.51267887105175E-15,0.,1.));
#1780=DIRECTION('',(0.,1.,0.));
#1781=DIRECTION('',(2.22044604925031E-16,0.,-1.));
#1782=DIRECTION('',(1.,0.,2.22044604925032E-16));
#1783=DIRECTION('',(0.,1.,0.));
#1784=DIRECTION('',(-1.,0.,1.51267887105175E-15));
#1785=DIRECTION('',(-1.51267887105175E-15,0.,-1.));
#1786=DIRECTION('',(-1.46215294456701E-15,0.,-1.));
#1787=DIRECTION('',(1.,0.,-1.46215294456701E-15));
#1788=DIRECTION('',(1.46215294456701E-15,0.,1.));
#1789=DIRECTION('',(-1.,0.,1.46215294456701E-15));
#1790=DIRECTION('',(-3.67412493973367E-16,0.,1.));
#1791=DIRECTION('',(-1.,0.,-3.67412493973367E-16));
#1792=DIRECTION('',(3.67412493973367E-16,0.,-1.));
#1793=DIRECTION('',(-1.,0.,-3.67412493973367E-16));
#1794=DIRECTION('',(2.82207528605839E-17,0.,-1.));
#1795=DIRECTION('',(1.,0.,2.82207528605839E-17));
#1796=DIRECTION('',(-2.82207528605839E-17,0.,1.));
#1797=DIRECTION('',(1.,0.,2.82207528605839E-17));
#1798=DIRECTION('',(0.,-1.,0.));
#1799=DIRECTION('',(-2.22044604925032E-16,0.,1.));
#1800=DIRECTION('',(0.,1.,0.));
#1801=DIRECTION('',(-2.22044604925032E-16,0.,1.));
#1802=DIRECTION('',(1.11022302462516E-16,0.,-1.));
#1803=DIRECTION('',(1.,0.,1.11022302462516E-16));
#1804=DIRECTION('',(-1.,0.,-2.22044604925032E-16));
#1805=DIRECTION('',(-2.22044604925032E-16,0.,1.));
#1806=DIRECTION('',(-1.,0.,-1.11022302462516E-16));
#1807=DIRECTION('',(1.11022302462516E-16,0.,-1.));
#1808=DIRECTION('',(-1.,0.,-2.22044604925032E-16));
#1809=DIRECTION('',(-2.22044604925032E-16,0.,1.));
#1810=DIRECTION('',(1.11022302462516E-16,0.,-1.));
#1811=DIRECTION('',(1.,0.,1.11022302462516E-16));
#1812=DIRECTION('',(0.,-1.,0.));
#1813=DIRECTION('',(2.22044604925032E-16,0.,-1.));
#1814=DIRECTION('',(0.,-1.,0.));
#1815=DIRECTION('',(-2.22044604925032E-16,0.,1.));
#1816=DIRECTION('',(0.,1.,0.));
#1817=DIRECTION('',(2.22044604925032E-16,0.,-1.));
#1818=DIRECTION('',(0.,1.,0.));
#1819=DIRECTION('',(2.22044604925032E-16,0.,-1.));
#1820=DIRECTION('',(0.,1.,0.));
#1821=DIRECTION('',(2.22044604925032E-16,0.,-1.));
#1822=DIRECTION('',(0.,1.,0.));
#1823=DIRECTION('',(2.22044604925032E-16,0.,-1.));
#1824=CARTESIAN_POINT('',(0.,0.,0.));
#1825=CARTESIAN_POINT('',(3.8,-9.,-28.2));
#1826=CARTESIAN_POINT('',(-3.69999999999999,-4.4,-28.2));
#1827=CARTESIAN_POINT('',(-3.69999999999999,9.9,-28.2));
#1828=CARTESIAN_POINT('',(-3.69999999999999,-4.4,-28.2));
#1829=CARTESIAN_POINT('',(3.8,9.9,-28.2));
#1830=CARTESIAN_POINT('',(-2.09999999999999,9.9,-28.2));
#1831=CARTESIAN_POINT('',(-2.09999999999999,-4.4,-28.2));
#1832=CARTESIAN_POINT('',(-2.09999999999999,-4.4,-28.2));
#1833=CARTESIAN_POINT('',(3.8,-4.4,-28.2));
#1834=CARTESIAN_POINT('',(3.8,-9.,-28.2));
#1835=CARTESIAN_POINT('',(-0.799999999999993,-4.4,-28.2));
#1836=CARTESIAN_POINT('',(-0.799999999999993,9.9,-28.2));
#1837=CARTESIAN_POINT('',(-0.799999999999993,-4.4,-28.2));
#1838=CARTESIAN_POINT('',(3.8,9.9,-28.2));
#1839=CARTESIAN_POINT('',(0.800000000000007,9.9,-28.2));
#1840=CARTESIAN_POINT('',(0.800000000000007,-4.4,-28.2));
#1841=CARTESIAN_POINT('',(0.800000000000007,-4.4,-28.2));
#1842=CARTESIAN_POINT('',(3.8,-4.4,-28.2));
#1843=CARTESIAN_POINT('',(3.8,-9.,-28.2));
#1844=CARTESIAN_POINT('',(2.10000000000001,-4.4,-28.2));
#1845=CARTESIAN_POINT('',(2.10000000000001,9.9,-28.2));
#1846=CARTESIAN_POINT('',(2.10000000000001,-4.4,-28.2));
#1847=CARTESIAN_POINT('',(3.8,9.9,-28.2));
#1848=CARTESIAN_POINT('',(3.22378006890393,9.9,-28.2));
#1849=CARTESIAN_POINT('',(3.22378006890393,9.4,-28.2));
#1850=CARTESIAN_POINT('',(3.80000000000001,9.4,-28.2));
#1851=CARTESIAN_POINT('',(3.80000000000001,-9.,-28.2));
#1852=CARTESIAN_POINT('',(3.80000000000001,-3.9,-28.2));
#1853=CARTESIAN_POINT('',(3.22378006890393,-3.9,-28.2));
#1854=CARTESIAN_POINT('',(3.22378006890393,-4.4,-28.2));
#1855=CARTESIAN_POINT('',(3.8,-4.4,-28.2));
#1856=CARTESIAN_POINT('',(0.,9.9,0.));
#1857=CARTESIAN_POINT('',(-2.4,9.9,-6.77298068654012E-17));
#1858=CARTESIAN_POINT('',(-2.4,9.9,-26.1));
#1859=CARTESIAN_POINT('',(-2.4,9.9,-20.));
#1860=CARTESIAN_POINT('',(-1.9,9.9,-26.1));
#1861=CARTESIAN_POINT('',(-1.9,9.9,-26.6));
#1862=CARTESIAN_POINT('',(5.90638649100584E-15,9.9,-26.6));
#1863=CARTESIAN_POINT('',(1.90000000000001,9.9,-26.6));
#1864=CARTESIAN_POINT('',(1.90000000000001,9.9,-26.1));
#1865=CARTESIAN_POINT('',(2.40000000000001,9.9,-26.1));
#1866=CARTESIAN_POINT('',(2.4,9.9,8.8178998553608E-16));
#1867=CARTESIAN_POINT('',(2.4,9.9,-20.));
#1868=CARTESIAN_POINT('',(1.9,9.9,-20.));
#1869=CARTESIAN_POINT('',(1.9,9.9,-19.5));
#1870=CARTESIAN_POINT('',(3.25191262806613E-14,9.9,-19.5));
#1871=CARTESIAN_POINT('',(-1.9,9.9,-19.5));
#1872=CARTESIAN_POINT('',(-1.9,9.9,-20.));
#1873=CARTESIAN_POINT('',(4.,9.9,-17.9));
#1874=CARTESIAN_POINT('',(8.83737230191364,9.9,-17.9));
#1875=CARTESIAN_POINT('',(-7.69999999999998,9.9,-17.9));
#1876=CARTESIAN_POINT('',(8.83737230191364,9.9,-18.4));
#1877=CARTESIAN_POINT('',(9.08589526296906,9.9,-17.9661378815473));
#1878=CARTESIAN_POINT('',(14.5899561924061,9.9,-8.3573535471064));
#1879=CARTESIAN_POINT('',(2.1,9.9,4.66293670342566E-16));
#1880=CARTESIAN_POINT('',(2.10000000000001,9.9,-27.7));
#1881=CARTESIAN_POINT('',(6.15063555642337E-15,9.9,-27.7));
#1882=CARTESIAN_POINT('',(0.800000000000007,9.9,-27.7));
#1883=CARTESIAN_POINT('',(0.800000000000001,9.9,1.77635683940025E-16));
#1884=CARTESIAN_POINT('',(-0.799999999999951,9.9,1.21014309684131E-15));
#1885=CARTESIAN_POINT('',(-0.799999999999993,9.9,-27.7));
#1886=CARTESIAN_POINT('',(6.15063555642337E-15,9.9,-27.7));
#1887=CARTESIAN_POINT('',(-2.09999999999999,9.9,-27.7));
#1888=CARTESIAN_POINT('',(-2.09999999999995,9.9,3.17662562920858E-15));
#1889=CARTESIAN_POINT('',(-3.69999999999995,9.9,5.5969118228914E-15));
#1890=CARTESIAN_POINT('',(-3.69999999999999,9.9,-27.7));
#1891=CARTESIAN_POINT('',(6.15063555642337E-15,9.9,-27.7));
#1892=CARTESIAN_POINT('',(-4.99999999999999,9.9,-27.7));
#1893=CARTESIAN_POINT('',(-4.99999999999995,9.9,7.56339435525868E-15));
#1894=CARTESIAN_POINT('',(-4.99999999999999,9.9,-28.2));
#1895=CARTESIAN_POINT('',(3.8,9.9,-28.2));
#1896=CARTESIAN_POINT('',(-7.69999999999999,9.9,-28.2));
#1897=CARTESIAN_POINT('',(-7.69999999999995,9.9,1.12585776731659E-14));
#1898=CARTESIAN_POINT('',(3.8,-9.,-28.2));
#1899=CARTESIAN_POINT('',(-8.19999999999999,-9.,-28.2));
#1900=CARTESIAN_POINT('',(-8.19999999999999,9.4,-28.2));
#1901=CARTESIAN_POINT('',(-8.19999999999999,-3.9,-28.2));
#1902=CARTESIAN_POINT('',(-7.69999999999999,9.4,-28.2));
#1903=CARTESIAN_POINT('',(-4.99999999999999,-4.4,-28.2));
#1904=CARTESIAN_POINT('',(-4.99999999999999,-4.4,-28.2));
#1905=CARTESIAN_POINT('',(3.8,-4.4,-28.2));
#1906=CARTESIAN_POINT('',(-7.69999999999999,-4.4,-28.2));
#1907=CARTESIAN_POINT('',(-7.69999999999999,-3.9,-28.2));
#1908=CARTESIAN_POINT('',(0.,1.6,0.));
#1909=CARTESIAN_POINT('',(-2.4,1.6,9.33331624277059E-16));
#1910=CARTESIAN_POINT('',(-2.4,1.6,-26.1));
#1911=CARTESIAN_POINT('',(-2.4,1.6,-20.));
#1912=CARTESIAN_POINT('',(-1.9,1.6,-20.));
#1913=CARTESIAN_POINT('',(-1.9,1.6,-19.5));
#1914=CARTESIAN_POINT('',(-2.4,1.6,-19.5));
#1915=CARTESIAN_POINT('',(1.9,1.6,-19.5));
#1916=CARTESIAN_POINT('',(1.9,1.6,-20.));
#1917=CARTESIAN_POINT('',(2.4,1.6,-20.));
#1918=CARTESIAN_POINT('',(2.4,1.6,-17.9));
#1919=CARTESIAN_POINT('',(2.40000000000001,1.6,-26.1));
#1920=CARTESIAN_POINT('',(1.90000000000001,1.6,-26.1));
#1921=CARTESIAN_POINT('',(1.90000000000001,1.6,-26.6));
#1922=CARTESIAN_POINT('',(1.35969939011697E-14,1.6,-26.6));
#1923=CARTESIAN_POINT('',(-1.9,1.6,-26.6));
#1924=CARTESIAN_POINT('',(-1.9,1.6,-26.1));
#1925=CARTESIAN_POINT('',(-2.79999999999998,-17.,-20.9));
#1926=CARTESIAN_POINT('',(-2.79999999999998,-9.3,-20.9));
#1927=CARTESIAN_POINT('',(0.603073851581468,-9.3,-23.4117926047387));
#1928=CARTESIAN_POINT('',(-2.79999999999998,-9.3,-20.9));
#1929=CARTESIAN_POINT('',(-2.79999999999998,-17.,-20.9));
#1930=CARTESIAN_POINT('',(-2.79999999999998,-4.4,-20.9));
#1931=CARTESIAN_POINT('',(-10.714495412844,-4.4,-15.0583486238532));
#1932=CARTESIAN_POINT('',(0.603073851581467,-4.4,-23.4117926047387));
#1933=CARTESIAN_POINT('',(0.603073851581468,-17.,-23.4117926047387));
#1934=CARTESIAN_POINT('',(3.8,-9.,-26.6));
#1935=CARTESIAN_POINT('',(1.90000000000001,1.6,-26.6));
#1936=CARTESIAN_POINT('',(-1.9,9.9,-26.6));
#1937=CARTESIAN_POINT('',(2.4,9.,-17.9));
#1938=CARTESIAN_POINT('',(2.4,1.6,-20.));
#1939=CARTESIAN_POINT('',(2.40000000000001,9.9,-26.1));
#1940=CARTESIAN_POINT('',(2.4,11.9,-19.5));
#1941=CARTESIAN_POINT('',(1.9,9.9,-19.5));
#1942=CARTESIAN_POINT('',(-1.9,1.6,-19.5));
#1943=CARTESIAN_POINT('',(-2.4,9.,9.33331624277059E-16));
#1944=CARTESIAN_POINT('',(-2.4,9.9,-20.));
#1945=CARTESIAN_POINT('',(-2.4,1.6,-26.1));
#1946=CARTESIAN_POINT('',(4.,9.,-1.6));
#1947=CARTESIAN_POINT('',(4.,1.6,-1.6));
#1948=CARTESIAN_POINT('',(-2.4,1.6,-1.6));
#1949=CARTESIAN_POINT('',(2.4,1.6,-1.6));
#1950=CARTESIAN_POINT('',(-2.4,9.,-1.6));
#1951=CARTESIAN_POINT('',(-2.4,9.,-1.6));
#1952=CARTESIAN_POINT('',(2.10711078215316E-16,9.,-1.6));
#1953=CARTESIAN_POINT('',(2.4,9.,-1.6));
#1954=CARTESIAN_POINT('',(2.4,9.,-1.6));
#1955=CARTESIAN_POINT('',(0.,1.6,0.));
#1956=CARTESIAN_POINT('',(-2.4,1.6,9.33331624277059E-16));
#1957=CARTESIAN_POINT('',(-2.4,1.6,-3.8));
#1958=CARTESIAN_POINT('',(2.4,1.6,-17.9));
#1959=CARTESIAN_POINT('',(2.4,1.60000000000001,-3.8));
#1960=CARTESIAN_POINT('',(-2.6,1.6,-3.8));
#1961=CARTESIAN_POINT('',(-2.79999999999998,-17.,-17.9));
#1962=CARTESIAN_POINT('',(-2.79999999999998,-9.3,-17.9));
#1963=CARTESIAN_POINT('',(-2.79999999999998,-9.3,-17.9));
#1964=CARTESIAN_POINT('',(-2.79999999999998,-17.,-17.9));
#1965=CARTESIAN_POINT('',(-2.79999999999998,-4.4,-17.9));
#1966=CARTESIAN_POINT('',(-2.79999999999998,-4.4,-7.10542735760097E-16));
#1967=CARTESIAN_POINT('',(0.,-9.3,0.));
#1968=CARTESIAN_POINT('',(1.40000000000002,-9.3,-24.));
#1969=CARTESIAN_POINT('',(1.40000000000002,-9.3,-17.9));
#1970=CARTESIAN_POINT('',(1.40000000000002,-9.3,-23.0095055649458));
#1971=CARTESIAN_POINT('',(1.00000000000002,-9.3,-17.9));
#1972=CARTESIAN_POINT('',(0.900000000000023,-9.3,-23.0095055649458));
#1973=CARTESIAN_POINT('',(1.40000000000002,-17.,-24.));
#1974=CARTESIAN_POINT('',(1.40000000000002,-4.4,7.98541560744752E-17));
#1975=CARTESIAN_POINT('',(1.40000000000002,-4.4,-23.0095055649458));
#1976=CARTESIAN_POINT('',(1.40000000000002,-4.4,-17.9));
#1977=CARTESIAN_POINT('',(1.40000000000002,-17.,-17.9));
#1978=CARTESIAN_POINT('',(1.40000000000002,-17.,-23.0095055649458));
#1979=CARTESIAN_POINT('',(9.7,-9.,-17.9));
#1980=CARTESIAN_POINT('',(9.27123442036632,-9.,-18.6485229610554));
#1981=CARTESIAN_POINT('',(9.27123442036632,9.4,-18.6485229610554));
#1982=CARTESIAN_POINT('',(9.27123442036632,-3.9,-18.6485229610554));
#1983=CARTESIAN_POINT('',(9.7,-3.9,-17.9));
#1984=CARTESIAN_POINT('',(9.7,9.4,-17.9));
#1985=CARTESIAN_POINT('',(0.,-4.4,0.));
#1986=CARTESIAN_POINT('',(-4.99999999999999,-4.4,-28.2));
#1987=CARTESIAN_POINT('',(-4.99999999999999,-4.4,-27.7));
#1988=CARTESIAN_POINT('',(-4.99999999999999,-4.4,-27.7));
#1989=CARTESIAN_POINT('',(-3.69999999999999,-4.4,-27.7));
#1990=CARTESIAN_POINT('',(-3.69999999999999,-4.4,-27.7));
#1991=CARTESIAN_POINT('',(-2.09999999999999,-4.4,-28.2));
#1992=CARTESIAN_POINT('',(-2.09999999999999,-4.4,-27.7));
#1993=CARTESIAN_POINT('',(-2.09999999999999,-4.4,-27.7));
#1994=CARTESIAN_POINT('',(-0.799999999999993,-4.4,-27.7));
#1995=CARTESIAN_POINT('',(-0.799999999999993,-4.4,-27.7));
#1996=CARTESIAN_POINT('',(0.800000000000007,-4.4,-28.2));
#1997=CARTESIAN_POINT('',(0.800000000000007,-4.4,-27.7));
#1998=CARTESIAN_POINT('',(0.800000000000007,-4.4,-27.7));
#1999=CARTESIAN_POINT('',(2.10000000000001,-4.4,-27.7));
#2000=CARTESIAN_POINT('',(2.10000000000001,-4.4,-27.7));
#2001=CARTESIAN_POINT('',(3.36613788154733,-4.4,-27.9514770389446));
#2002=CARTESIAN_POINT('',(9.08589526296906,-4.4,-17.9661378815473));
#2003=CARTESIAN_POINT('',(8.83737230191364,-4.4,-18.4));
#2004=CARTESIAN_POINT('',(8.83737230191364,-4.4,-17.9));
#2005=CARTESIAN_POINT('',(4.,-4.4,-17.9));
#2006=CARTESIAN_POINT('',(0.900000000000023,-4.4,-23.0095055649458));
#2007=CARTESIAN_POINT('',(4.,-4.4,-17.9));
#2008=CARTESIAN_POINT('',(-7.69999999999998,-4.4,-17.9));
#2009=CARTESIAN_POINT('',(-7.69999999999998,-4.4,-17.9));
#2010=CARTESIAN_POINT('',(-8.19999999999999,-9.,-28.2));
#2011=CARTESIAN_POINT('',(-8.19999999999998,-9.,-17.9));
#2012=CARTESIAN_POINT('',(-8.19999999999998,9.4,-17.9));
#2013=CARTESIAN_POINT('',(-8.19999999999998,-3.9,-17.9));
#2014=CARTESIAN_POINT('',(-8.19999999999999,9.4,-28.2));
#2015=CARTESIAN_POINT('',(-8.19999999999999,-3.9,-28.2));
#2016=CARTESIAN_POINT('',(0.,1.6,0.));
#2017=CARTESIAN_POINT('',(2.4,1.6,-17.9));
#2018=CARTESIAN_POINT('',(-2.4,1.6,-17.9));
#2019=CARTESIAN_POINT('',(2.4,1.6,-17.9));
#2020=CARTESIAN_POINT('',(-2.4,1.6,9.33331624277059E-16));
#2021=CARTESIAN_POINT('',(-2.4,1.60000000000001,-13.8));
#2022=CARTESIAN_POINT('',(2.6,1.6,-13.8));
#2023=CARTESIAN_POINT('',(2.4,1.60000000000001,-13.8));
#2024=CARTESIAN_POINT('',(2.4,1.6,-17.9));
#2025=CARTESIAN_POINT('',(0.,8.3,0.));
#2026=CARTESIAN_POINT('',(8.31164122095143,8.3,-17.1047265246227));
#2027=CARTESIAN_POINT('',(4.00000000000001,8.3,-24.6318289950972));
#2028=CARTESIAN_POINT('',(7.85609622049257,8.3,-17.9));
#2029=CARTESIAN_POINT('',(4.,8.3,-17.9));
#2030=CARTESIAN_POINT('',(4.,8.3,-17.9));
#2031=CARTESIAN_POINT('',(4.,8.3,-17.9));
#2032=CARTESIAN_POINT('',(0.,9.,0.));
#2033=CARTESIAN_POINT('',(4.,9.,-17.9));
#2034=CARTESIAN_POINT('',(4.,9.,-0.5));
#2035=CARTESIAN_POINT('',(4.,9.,-17.9));
#2036=CARTESIAN_POINT('',(-4.,9.,-17.9));
#2037=CARTESIAN_POINT('',(2.4,9.,-17.9));
#2038=CARTESIAN_POINT('',(2.4,9.,8.52181311202309E-16));
#2039=CARTESIAN_POINT('',(-2.4,9.,-2.20682368085006E-17));
#2040=CARTESIAN_POINT('',(-2.4,9.,-17.9));
#2041=CARTESIAN_POINT('',(-4.,9.,-17.9));
#2042=CARTESIAN_POINT('',(-4.,9.,-17.9));
#2043=CARTESIAN_POINT('',(-4.,9.,8.88178419700125E-16));
#2044=CARTESIAN_POINT('',(-4.,9.,-0.499999999999999));
#2045=CARTESIAN_POINT('',(-3.5,9.,-0.499999999999999));
#2046=CARTESIAN_POINT('',(-3.5,9.,9.43689570931383E-16));
#2047=CARTESIAN_POINT('',(4.,9.,1.77635683940025E-15));
#2048=CARTESIAN_POINT('',(3.5,9.,1.72084568816899E-15));
#2049=CARTESIAN_POINT('',(3.5,9.,-0.499999999999998));
#2050=CARTESIAN_POINT('',(0.,-7.7,0.));
#2051=CARTESIAN_POINT('',(-1.19999999999998,-7.7,-17.9));
#2052=CARTESIAN_POINT('',(-1.19999999999998,-7.7,-20.0923225697313));
#2053=CARTESIAN_POINT('',(-1.19999999999998,-7.7,-17.9));
#2054=CARTESIAN_POINT('',(2.57651599860422E-14,-7.7,-17.9));
#2055=CARTESIAN_POINT('',(-0.199999999999977,-7.7,-17.9));
#2056=CARTESIAN_POINT('',(-0.199999999999977,-7.7,-24.));
#2057=CARTESIAN_POINT('',(-0.199999999999977,-7.7,-20.8304178078266));
#2058=CARTESIAN_POINT('',(-1.8498363250606,-7.7,-19.6126814726628));
#2059=CARTESIAN_POINT('',(-1.19999999999998,-17.,-17.9));
#2060=CARTESIAN_POINT('',(-1.19999999999998,-17.,-20.0923225697313));
#2061=CARTESIAN_POINT('',(-1.19999999999998,-2.8,-20.0923225697313));
#2062=CARTESIAN_POINT('',(-1.19999999999998,-2.8,-3.55271367880046E-16));
#2063=CARTESIAN_POINT('',(-1.19999999999998,-2.8,-17.9));
#2064=CARTESIAN_POINT('',(-1.19999999999998,-17.,-17.9));
#2065=CARTESIAN_POINT('',(-1.8498363250606,-17.,-19.6126814726628));
#2066=CARTESIAN_POINT('',(-0.199999999999977,-17.,-20.8304178078266));
#2067=CARTESIAN_POINT('',(-0.199999999999977,-2.8,-20.8304178078266));
#2068=CARTESIAN_POINT('',(-9.76433173790464,-2.8,-13.771030096516));
#2069=CARTESIAN_POINT('',(4.,-9.,-17.9));
#2070=CARTESIAN_POINT('',(-2.4,10.3,-17.9));
#2071=CARTESIAN_POINT('',(2.4,10.3,-17.9));
#2072=CARTESIAN_POINT('',(4.,9.,-17.9));
#2073=CARTESIAN_POINT('',(7.85609622049257,-9.,-17.9));
#2074=CARTESIAN_POINT('',(7.85609622049257,-2.8,-17.9));
#2075=CARTESIAN_POINT('',(4.,-2.8,-17.9));
#2076=CARTESIAN_POINT('',(0.800000000000011,-2.8,-17.9));
#2077=CARTESIAN_POINT('',(0.800000000000009,-8.88178419700125E-16,-17.9));
#2078=CARTESIAN_POINT('',(0.800000000000014,0.,-17.9));
#2079=CARTESIAN_POINT('',(3.97459842815807E-15,0.,-17.9));
#2080=CARTESIAN_POINT('',(-0.199999999999988,0.,-17.9));
#2081=CARTESIAN_POINT('',(-0.199999999999978,-9.,-17.9));
#2082=CARTESIAN_POINT('',(4.,-2.8,-17.9));
#2083=CARTESIAN_POINT('',(-6.59999999999998,-2.8,-17.9));
#2084=CARTESIAN_POINT('',(-6.59999999999998,-9.,-17.9));
#2085=CARTESIAN_POINT('',(-6.59999999999998,8.3,-17.9));
#2086=CARTESIAN_POINT('',(4.,8.3,-17.9));
#2087=CARTESIAN_POINT('',(-4.,8.3,-17.9));
#2088=CARTESIAN_POINT('',(-4.,9.,-17.9));
#2089=CARTESIAN_POINT('',(8.83737230191364,-9.,-17.9));
#2090=CARTESIAN_POINT('',(-7.69999999999998,9.4,-17.9));
#2091=CARTESIAN_POINT('',(-7.69999999999998,-3.9,-17.9));
#2092=CARTESIAN_POINT('',(0.,8.3,0.));
#2093=CARTESIAN_POINT('',(-6.59999999999999,8.3,-28.2));
#2094=CARTESIAN_POINT('',(-6.59999999999999,8.3,-26.6));
#2095=CARTESIAN_POINT('',(3.8,8.3,-26.6));
#2096=CARTESIAN_POINT('',(-4.,8.3,-26.6));
#2097=CARTESIAN_POINT('',(-4.,8.3,-1.12883011442335E-16));
#2098=CARTESIAN_POINT('',(-6.59999999999999,-9.,-28.2));
#2099=CARTESIAN_POINT('',(-6.59999999999999,-2.8,-28.2));
#2100=CARTESIAN_POINT('',(-6.59999999999999,-2.8,-26.6));
#2101=CARTESIAN_POINT('',(-6.59999999999999,-9.,-26.6));
#2102=CARTESIAN_POINT('',(0.,-2.8,0.));
#2103=CARTESIAN_POINT('',(-0.199999999999978,-2.8,-17.9));
#2104=CARTESIAN_POINT('',(-0.199999999999981,-2.8,-26.6));
#2105=CARTESIAN_POINT('',(3.8,-2.8,-26.6));
#2106=CARTESIAN_POINT('',(0.,-2.8,0.));
#2107=CARTESIAN_POINT('',(8.31164122095143,-2.8,-17.1047265246227));
#2108=CARTESIAN_POINT('',(2.8726010748615,-2.8,-26.6));
#2109=CARTESIAN_POINT('',(3.8,-2.8,-26.6));
#2110=CARTESIAN_POINT('',(0.800000000000013,-2.8,-26.6));
#2111=CARTESIAN_POINT('',(0.800000000000014,-2.8,-17.9));
#2112=CARTESIAN_POINT('',(3.8,-9.,-26.6));
#2113=CARTESIAN_POINT('',(2.8726010748615,-9.,-26.6));
#2114=CARTESIAN_POINT('',(2.8726010748615,0.,-26.6));
#2115=CARTESIAN_POINT('',(1.35969939011697E-14,0.,-26.6));
#2116=CARTESIAN_POINT('',(0.800000000000013,0.,-26.6));
#2117=CARTESIAN_POINT('',(0.800000000000026,-9.00000000000001,-26.6));
#2118=CARTESIAN_POINT('',(8.31164122095143,-9.,-17.1047265246227));
#2119=CARTESIAN_POINT('',(4.00000000000001,9.,-24.6318289950972));
#2120=CARTESIAN_POINT('',(4.00000000000001,0.5,-24.6318289950972));
#2121=CARTESIAN_POINT('',(3.50000000000001,0.5,-25.5047103510294));
#2122=CARTESIAN_POINT('',(3.50000000000001,0.,-25.5047103510294));
#2123=CARTESIAN_POINT('',(8.31164122095143,0.,-17.1047265246227));
#2124=CARTESIAN_POINT('',(4.,9.,-17.9));
#2125=CARTESIAN_POINT('',(4.,0.5,-17.9));
#2126=CARTESIAN_POINT('',(4.,0.5,-0.5));
#2127=CARTESIAN_POINT('',(4.,9.,-0.5));
#2128=CARTESIAN_POINT('',(4.,9.,1.77635683940025E-15));
#2129=CARTESIAN_POINT('',(-3.5,9.,9.43689570931383E-16));
#2130=CARTESIAN_POINT('',(-3.5,0.5,9.43689570931383E-16));
#2131=CARTESIAN_POINT('',(4.,0.5,1.77635683940025E-15));
#2132=CARTESIAN_POINT('',(3.5,0.5,1.72084568816899E-15));
#2133=CARTESIAN_POINT('',(3.5,9.,1.72084568816899E-15));
#2134=CARTESIAN_POINT('',(-4.,9.,8.88178419700125E-16));
#2135=CARTESIAN_POINT('',(-4.,9.,-26.6));
#2136=CARTESIAN_POINT('',(-4.,0.5,-26.6));
#2137=CARTESIAN_POINT('',(-4.,0.5,8.88178419700125E-16));
#2138=CARTESIAN_POINT('',(-4.,0.5,-0.499999999999999));
#2139=CARTESIAN_POINT('',(-4.,9.,-0.499999999999999));
#2140=CARTESIAN_POINT('',(3.8,-9.,-26.6));
#2141=CARTESIAN_POINT('',(-0.199999999999952,-9.00000000000002,-26.6));
#2142=CARTESIAN_POINT('',(-0.199999999999981,0.,-26.6));
#2143=CARTESIAN_POINT('',(1.35969939011697E-14,0.,-26.6));
#2144=CARTESIAN_POINT('',(-3.5,0.,-26.6));
#2145=CARTESIAN_POINT('',(-3.5,0.5,-26.6));
#2146=CARTESIAN_POINT('',(-2.6,-1.3,-3.8));
#2147=CARTESIAN_POINT('',(2.4,-1.3,-3.8));
#2148=CARTESIAN_POINT('',(2.4,0.,-3.8));
#2149=CARTESIAN_POINT('',(8.4376949871512E-16,0.,-3.8));
#2150=CARTESIAN_POINT('',(-2.4,0.,-3.8));
#2151=CARTESIAN_POINT('',(-2.4,9.,-3.8));
#2152=CARTESIAN_POINT('',(2.4,9.,-17.9));
#2153=CARTESIAN_POINT('',(2.4,9.,-13.8));
#2154=CARTESIAN_POINT('',(2.4,0.,-13.8));
#2155=CARTESIAN_POINT('',(2.4,0.,8.8178998553608E-16));
#2156=CARTESIAN_POINT('',(2.6,-1.3,-13.8));
#2157=CARTESIAN_POINT('',(-2.4,-1.3,-13.8));
#2158=CARTESIAN_POINT('',(-2.4,0.,-13.8));
#2159=CARTESIAN_POINT('',(3.06421554796543E-15,0.,-13.8));
#2160=CARTESIAN_POINT('',(-2.4,9.,9.33331624277059E-16));
#2161=CARTESIAN_POINT('',(-2.4,0.,-6.77298068654012E-17));
#2162=CARTESIAN_POINT('',(0.,0.,0.));
#2163=CARTESIAN_POINT('',(-3.5,0.,-9.87726350120435E-17));
#2164=CARTESIAN_POINT('',(-3.5,0.,-0.499999999999999));
#2165=CARTESIAN_POINT('',(-0.199999999999988,0.,-17.9));
#2166=CARTESIAN_POINT('',(0.800000000000009,0.,-17.9));
#2167=CARTESIAN_POINT('',(3.5,0.,1.28594372890678E-15));
#2168=CARTESIAN_POINT('',(3.5,0.,-0.499999999999998));
#2169=CARTESIAN_POINT('',(5.55111512312577E-17,0.,-0.499999999999999));
#2170=CARTESIAN_POINT('',(-0.199999999999977,-17.,-24.));
#2171=CARTESIAN_POINT('',(0.800000000000009,-8.88178419700125E-16,-17.9));
#2172=CARTESIAN_POINT('',(14.5899561924061,-3.9,-8.3573535471064));
#2173=CARTESIAN_POINT('',(8.83737230191364,-3.9,-18.4));
#2174=CARTESIAN_POINT('',(8.83737230191364,-9.,-18.4));
#2175=CARTESIAN_POINT('',(8.83737230191364,9.4,-18.4));
#2176=CARTESIAN_POINT('',(9.26613788154732,9.4,-17.6514770389446));
#2177=CARTESIAN_POINT('',(0.900000000000023,-17.,-23.0095055649458));
#2178=CARTESIAN_POINT('',(0.800000000000007,-4.4,-28.2));
#2179=CARTESIAN_POINT('',(0.800000000000007,-4.4,-27.7));
#2180=CARTESIAN_POINT('',(0.800000000000007,-4.4,-27.7));
#2181=CARTESIAN_POINT('',(2.10000000000001,-4.4,-27.7));
#2182=CARTESIAN_POINT('',(2.10000000000001,-4.4,-27.7));
#2183=CARTESIAN_POINT('',(-2.09999999999999,-4.4,-28.2));
#2184=CARTESIAN_POINT('',(-2.09999999999999,-4.4,-27.7));
#2185=CARTESIAN_POINT('',(-2.09999999999999,-4.4,-27.7));
#2186=CARTESIAN_POINT('',(-0.799999999999993,-4.4,-27.7));
#2187=CARTESIAN_POINT('',(-0.799999999999993,-4.4,-27.7));
#2188=CARTESIAN_POINT('',(-4.99999999999999,-4.4,-28.2));
#2189=CARTESIAN_POINT('',(-4.99999999999999,-4.4,-27.7));
#2190=CARTESIAN_POINT('',(-4.99999999999999,-4.4,-27.7));
#2191=CARTESIAN_POINT('',(-3.69999999999999,-4.4,-27.7));
#2192=CARTESIAN_POINT('',(-3.69999999999999,-4.4,-27.7));
#2193=CARTESIAN_POINT('',(-7.69999999999995,-3.9,1.12585776731659E-14));
#2194=CARTESIAN_POINT('',(-7.69999999999999,9.4,-28.2));
#2195=CARTESIAN_POINT('',(3.5,0.5,-17.9));
#2196=CARTESIAN_POINT('',(3.5,0.5,-0.5));
#2197=CARTESIAN_POINT('',(-3.5,0.5,9.02288796130417E-16));
#2198=CARTESIAN_POINT('',(-3.5,0.5,-0.499999999999999));
#2199=CARTESIAN_POINT('',(-3.5,9.,-0.499999999999999));
#2200=CARTESIAN_POINT('',(-3.5,0.5,-0.499999999999999));
#2201=CARTESIAN_POINT('',(-3.5,0.5,-0.499999999999999));
#2202=CARTESIAN_POINT('',(-3.5,0.5,-0.499999999999999));
#2203=CARTESIAN_POINT('',(4.,0.5,-0.499999999999998));
#2204=CARTESIAN_POINT('',(3.5,0.5,-0.499999999999998));
#2205=CARTESIAN_POINT('',(3.5,0.5,-0.5));
#2206=CARTESIAN_POINT('',(3.5,0.5,-0.5));
#2207=CARTESIAN_POINT('',(3.5,9.,-0.499999999999998));
#2208=CARTESIAN_POINT('',(-1.9,9.,-26.1));
#2209=CARTESIAN_POINT('',(1.90000000000001,-9.,-26.1));
#2210=CARTESIAN_POINT('',(-1.9,11.9,-20.));
#2211=CARTESIAN_POINT('',(1.9,9.,-20.));
#2212=MECHANICAL_DESIGN_GEOMETRIC_PRESENTATION_REPRESENTATION('',(#1351),
#2213);
#2213=(
GEOMETRIC_REPRESENTATION_CONTEXT(3)
GLOBAL_UNCERTAINTY_ASSIGNED_CONTEXT((#2214))
GLOBAL_UNIT_ASSIGNED_CONTEXT((#2217,#2216,#2215))
REPRESENTATION_CONTEXT('U05-5','TOP_LEVEL_ASSEMBLY_PART')
);
#2214=UNCERTAINTY_MEASURE_WITH_UNIT(LENGTH_MEASURE(0.005),#2217,
'DISTANCE_ACCURACY_VALUE','Maximum Tolerance applied to model');
#2215=(
NAMED_UNIT(*)
SI_UNIT($,.STERADIAN.)
SOLID_ANGLE_UNIT()
);
#2216=(
NAMED_UNIT(*)
PLANE_ANGLE_UNIT()
SI_UNIT($,.RADIAN.)
);
#2217=(
LENGTH_UNIT()
NAMED_UNIT(*)
SI_UNIT(.MILLI.,.METRE.)
);
#2218=PRODUCT_DEFINITION_SHAPE('','',#2219);
#2219=PRODUCT_DEFINITION('','',#2221,#2220);
#2220=PRODUCT_DEFINITION_CONTEXT('',#2227,'design');
#2221=PRODUCT_DEFINITION_FORMATION_WITH_SPECIFIED_SOURCE('','',#2223,
 .NOT_KNOWN.);
#2222=PRODUCT_RELATED_PRODUCT_CATEGORY('','',(#2223));
#2223=PRODUCT('U05-5','U05-5','U05-5',(#2225));
#2224=PRODUCT_CATEGORY('','');
#2225=PRODUCT_CONTEXT('',#2227,'mechanical');
#2226=APPLICATION_PROTOCOL_DEFINITION('international standard',
'ap242_managed_model_based_3d_engineering',2020,#2227);
#2227=APPLICATION_CONTEXT('managed model based 3d engineering');
ENDSEC;
END-ISO-10303-21;
