ISO-10303-21;
HEADER;
/* Generated by software containing ST-Developer
 * from STEP Tools, Inc. (www.steptools.com) 
 */
/* OPTION: using custom renumber hook */

FILE_DESCRIPTION(
/* description */ (
'CAx-IF Rec.Pracs.---Representation and Presentation of Product Manufa
cturing Information (PMI)---4.0---2014-10-13',
'CAx-IF Rec.Pracs.---3D Tessellated Geometry---0.4---2014-09-14','2;1'),

/* implementation_level */ '2;1');

FILE_NAME(
/* name */ 'U05-3',
/* time_stamp */ '2026-04-13T01:14:50+03:00',
/* author */ (''),
/* organization */ (''),
/* preprocessor_version */ 'ST-DEVELOPER v18.102',
/* originating_system */ 'SIEMENS PLM Software NX2206.9140',
/* authorisation */ $);

FILE_SCHEMA (('AP242_MANAGED_MODEL_BASED_3D_ENGINEERING_MIM_LF { 1 0 10303 442 3 1 4 }'));
ENDSEC;

DATA;
#10=SHAPE_REPRESENTATION_RELATIONSHIP('','',#47,#11);
#11=ADVANCED_BREP_SHAPE_REPRESENTATION('',(#45),#617);
#12=(
BOUNDED_SURFACE()
B_SPLINE_SURFACE(4,3,((#70,#71,#72,#73,#74,#75,#76,#77,#78,#79,#80,#81,
#82,#83,#84,#85,#86,#87,#88,#89,#90,#91,#92,#93,#94,#95,#96,#97,#98,#99,
#100,#101,#102,#103,#104,#105,#106,#107,#108),(#109,#110,#111,#112,#113,
#114,#115,#116,#117,#118,#119,#120,#121,#122,#123,#124,#125,#126,#127,#128,
#129,#130,#131,#132,#133,#134,#135,#136,#137,#138,#139,#140,#141,#142,#143,
#144,#145,#146,#147),(#148,#149,#150,#151,#152,#153,#154,#155,#156,#157,
#158,#159,#160,#161,#162,#163,#164,#165,#166,#167,#168,#169,#170,#171,#172,
#173,#174,#175,#176,#177,#178,#179,#180,#181,#182,#183,#184,#185,#186),
(#187,#188,#189,#190,#191,#192,#193,#194,#195,#196,#197,#198,#199,#200,
#201,#202,#203,#204,#205,#206,#207,#208,#209,#210,#211,#212,#213,#214,#215,
#216,#217,#218,#219,#220,#221,#222,#223,#224,#225),(#226,#227,#228,#229,
#230,#231,#232,#233,#234,#235,#236,#237,#238,#239,#240,#241,#242,#243,#244,
#245,#246,#247,#248,#249,#250,#251,#252,#253,#254,#255,#256,#257,#258,#259,
#260,#261,#262,#263,#264),(#265,#266,#267,#268,#269,#270,#271,#272,#273,
#274,#275,#276,#277,#278,#279,#280,#281,#282,#283,#284,#285,#286,#287,#288,
#289,#290,#291,#292,#293,#294,#295,#296,#297,#298,#299,#300,#301,#302,#303),
(#304,#305,#306,#307,#308,#309,#310,#311,#312,#313,#314,#315,#316,#317,
#318,#319,#320,#321,#322,#323,#324,#325,#326,#327,#328,#329,#330,#331,#332,
#333,#334,#335,#336,#337,#338,#339,#340,#341,#342),(#343,#344,#345,#346,
#347,#348,#349,#350,#351,#352,#353,#354,#355,#356,#357,#358,#359,#360,#361,
#362,#363,#364,#365,#366,#367,#368,#369,#370,#371,#372,#373,#374,#375,#376,
#377,#378,#379,#380,#381),(#382,#383,#384,#385,#386,#387,#388,#389,#390,
#391,#392,#393,#394,#395,#396,#397,#398,#399,#400,#401,#402,#403,#404,#405,
#406,#407,#408,#409,#410,#411,#412,#413,#414,#415,#416,#417,#418,#419,#420),
(#421,#422,#423,#424,#425,#426,#427,#428,#429,#430,#431,#432,#433,#434,
#435,#436,#437,#438,#439,#440,#441,#442,#443,#444,#445,#446,#447,#448,#449,
#450,#451,#452,#453,#454,#455,#456,#457,#458,#459),(#460,#461,#462,#463,
#464,#465,#466,#467,#468,#469,#470,#471,#472,#473,#474,#475,#476,#477,#478,
#479,#480,#481,#482,#483,#484,#485,#486,#487,#488,#489,#490,#491,#492,#493,
#494,#495,#496,#497,#498),(#499,#500,#501,#502,#503,#504,#505,#506,#507,
#508,#509,#510,#511,#512,#513,#514,#515,#516,#517,#518,#519,#520,#521,#522,
#523,#524,#525,#526,#527,#528,#529,#530,#531,#532,#533,#534,#535,#536,#537),
(#538,#539,#540,#541,#542,#543,#544,#545,#546,#547,#548,#549,#550,#551,
#552,#553,#554,#555,#556,#557,#558,#559,#560,#561,#562,#563,#564,#565,#566,
#567,#568,#569,#570,#571,#572,#573,#574,#575,#576),(#577,#578,#579,#580,
#581,#582,#583,#584,#585,#586,#587,#588,#589,#590,#591,#592,#593,#594,#595,
#596,#597,#598,#599,#600,#601,#602,#603,#604,#605,#606,#607,#608,#609,#610,
#611,#612,#613,#614,#615)),.UNSPECIFIED.,.T.,.F.,.F.)
B_SPLINE_SURFACE_WITH_KNOTS((2,3,3,3,3,3,2),(4,1,1,1,1,1,1,1,1,1,1,1,1,
1,1,1,1,1,1,1,1,1,1,1,1,1,1,1,1,1,1,1,1,1,1,1,4),(-0.25,0.,0.25,0.5,0.75,
1.,1.25),(0.,0.0275997566269012,0.0694748456535505,0.0948995197066237,0.136242343724472,
0.15143790417689,0.173457017984307,0.202696173791855,0.218456175123735,
0.251023464719097,0.284075628016664,0.30883098161552,0.332807446427986,
0.372209029794033,0.402029127362653,0.431730777597962,0.450479094475433,
0.465525719833441,0.50035625568149,0.532858609625257,0.553647377822043,
0.574474648793069,0.617095909463733,0.633294212051264,0.656650832990608,
0.67174874319889,0.694024336996381,0.716266576155444,0.745861598653939,
0.766635249027981,0.803498727518108,0.826624221895526,0.85839718396811,
0.881996392684473,0.922734726195778,0.95447770351173,1.),.UNSPECIFIED.)
GEOMETRIC_REPRESENTATION_ITEM()
RATIONAL_B_SPLINE_SURFACE(((1.0166117137858,1.0166117137858,1.0166117137858,
1.0166117137858,1.0166117137858,1.0166117137858,1.0166117137858,1.0166117137858,
1.0166117137858,1.0166117137858,1.0166117137858,1.0166117137858,1.0166117137858,
1.0166117137858,1.0166117137858,1.01661171378581,1.0166117137858,1.0166117137858,
1.0166117137858,1.0166117137858,1.0166117137858,1.0166117137858,1.01661171378581,
1.0166117137858,1.01661171378581,1.0166117137858,1.01661171378581,1.0166117137858,
1.0166117137858,1.0166117137858,1.0166117137858,1.0166117137858,1.0166117137858,
1.0166117137858,1.0166117137858,1.0166117137858,1.0166117137858,1.01661171378581,
1.0166117137858),(1.0166117137858,1.0166117137858,1.0166117137858,1.0166117137858,
1.0166117137858,1.0166117137858,1.0166117137858,1.0166117137858,1.0166117137858,
1.0166117137858,1.0166117137858,1.0166117137858,1.0166117137858,1.0166117137858,
1.0166117137858,1.01661171378581,1.0166117137858,1.0166117137858,1.0166117137858,
1.0166117137858,1.0166117137858,1.0166117137858,1.01661171378581,1.0166117137858,
1.01661171378581,1.0166117137858,1.01661171378581,1.0166117137858,1.0166117137858,
1.0166117137858,1.0166117137858,1.0166117137858,1.0166117137858,1.0166117137858,
1.0166117137858,1.0166117137858,1.0166117137858,1.01661171378581,1.0166117137858),
(0.958470715535492,0.958470715535494,0.95847071553549,0.958470715535494,
0.958470715535491,0.958470715535494,0.958470715535491,0.958470715535494,
0.95847071553549,0.958470715535494,0.958470715535491,0.958470715535493,
0.958470715535492,0.958470715535492,0.958470715535491,0.958470715535494,
0.958470715535491,0.958470715535492,0.958470715535492,0.958470715535491,
0.958470715535494,0.95847071553549,0.958470715535496,0.95847071553549,0.958470715535493,
0.958470715535491,0.958470715535493,0.958470715535491,0.958470715535493,
0.958470715535491,0.958470715535493,0.958470715535492,0.958470715535493,
0.958470715535492,0.958470715535492,0.958470715535492,0.958470715535492,
0.958470715535492,0.958470715535492),(1.0166117137858,1.0166117137858,1.0166117137858,
1.0166117137858,1.0166117137858,1.0166117137858,1.0166117137858,1.0166117137858,
1.0166117137858,1.0166117137858,1.0166117137858,1.0166117137858,1.0166117137858,
1.0166117137858,1.0166117137858,1.01661171378581,1.0166117137858,1.0166117137858,
1.0166117137858,1.0166117137858,1.0166117137858,1.0166117137858,1.01661171378581,
1.0166117137858,1.01661171378581,1.0166117137858,1.01661171378581,1.0166117137858,
1.0166117137858,1.0166117137858,1.0166117137858,1.0166117137858,1.0166117137858,
1.0166117137858,1.0166117137858,1.0166117137858,1.0166117137858,1.01661171378581,
1.0166117137858),(1.0166117137858,1.0166117137858,1.0166117137858,1.0166117137858,
1.0166117137858,1.0166117137858,1.0166117137858,1.0166117137858,1.0166117137858,
1.0166117137858,1.0166117137858,1.0166117137858,1.0166117137858,1.0166117137858,
1.0166117137858,1.01661171378581,1.0166117137858,1.0166117137858,1.0166117137858,
1.0166117137858,1.0166117137858,1.0166117137858,1.01661171378581,1.0166117137858,
1.01661171378581,1.0166117137858,1.01661171378581,1.0166117137858,1.0166117137858,
1.0166117137858,1.0166117137858,1.0166117137858,1.0166117137858,1.0166117137858,
1.0166117137858,1.0166117137858,1.0166117137858,1.01661171378581,1.0166117137858),
(0.958470715535492,0.958470715535494,0.95847071553549,0.958470715535494,
0.958470715535491,0.958470715535494,0.958470715535491,0.958470715535494,
0.95847071553549,0.958470715535494,0.958470715535491,0.958470715535493,
0.958470715535492,0.958470715535492,0.958470715535491,0.958470715535494,
0.958470715535491,0.958470715535492,0.958470715535492,0.958470715535491,
0.958470715535494,0.95847071553549,0.958470715535496,0.95847071553549,0.958470715535493,
0.958470715535491,0.958470715535493,0.958470715535491,0.958470715535493,
0.958470715535491,0.958470715535493,0.958470715535492,0.958470715535493,
0.958470715535492,0.958470715535492,0.958470715535492,0.958470715535492,
0.958470715535492,0.958470715535492),(1.0166117137858,1.0166117137858,1.0166117137858,
1.0166117137858,1.0166117137858,1.0166117137858,1.0166117137858,1.0166117137858,
1.0166117137858,1.0166117137858,1.0166117137858,1.0166117137858,1.0166117137858,
1.0166117137858,1.0166117137858,1.01661171378581,1.0166117137858,1.0166117137858,
1.0166117137858,1.0166117137858,1.0166117137858,1.0166117137858,1.01661171378581,
1.0166117137858,1.01661171378581,1.0166117137858,1.01661171378581,1.0166117137858,
1.0166117137858,1.0166117137858,1.0166117137858,1.0166117137858,1.0166117137858,
1.0166117137858,1.0166117137858,1.0166117137858,1.0166117137858,1.01661171378581,
1.0166117137858),(1.0166117137858,1.0166117137858,1.0166117137858,1.0166117137858,
1.0166117137858,1.0166117137858,1.0166117137858,1.0166117137858,1.0166117137858,
1.0166117137858,1.0166117137858,1.0166117137858,1.0166117137858,1.0166117137858,
1.0166117137858,1.01661171378581,1.0166117137858,1.0166117137858,1.0166117137858,
1.0166117137858,1.0166117137858,1.0166117137858,1.01661171378581,1.0166117137858,
1.01661171378581,1.0166117137858,1.01661171378581,1.0166117137858,1.0166117137858,
1.0166117137858,1.0166117137858,1.0166117137858,1.0166117137858,1.0166117137858,
1.0166117137858,1.0166117137858,1.0166117137858,1.01661171378581,1.0166117137858),
(0.958470715535492,0.958470715535494,0.95847071553549,0.958470715535494,
0.958470715535491,0.958470715535494,0.958470715535491,0.958470715535494,
0.95847071553549,0.958470715535494,0.958470715535491,0.958470715535493,
0.958470715535492,0.958470715535492,0.958470715535491,0.958470715535494,
0.958470715535491,0.958470715535492,0.958470715535492,0.958470715535491,
0.958470715535494,0.95847071553549,0.958470715535496,0.95847071553549,0.958470715535493,
0.958470715535491,0.958470715535493,0.958470715535491,0.958470715535493,
0.958470715535491,0.958470715535493,0.958470715535492,0.958470715535493,
0.958470715535492,0.958470715535492,0.958470715535492,0.958470715535492,
0.958470715535492,0.958470715535492),(1.0166117137858,1.0166117137858,1.0166117137858,
1.0166117137858,1.0166117137858,1.0166117137858,1.0166117137858,1.0166117137858,
1.0166117137858,1.0166117137858,1.0166117137858,1.0166117137858,1.0166117137858,
1.0166117137858,1.0166117137858,1.01661171378581,1.0166117137858,1.0166117137858,
1.0166117137858,1.0166117137858,1.0166117137858,1.0166117137858,1.01661171378581,
1.0166117137858,1.01661171378581,1.0166117137858,1.01661171378581,1.0166117137858,
1.0166117137858,1.0166117137858,1.0166117137858,1.0166117137858,1.0166117137858,
1.0166117137858,1.0166117137858,1.0166117137858,1.0166117137858,1.01661171378581,
1.0166117137858),(1.0166117137858,1.0166117137858,1.0166117137858,1.0166117137858,
1.0166117137858,1.0166117137858,1.0166117137858,1.0166117137858,1.0166117137858,
1.0166117137858,1.0166117137858,1.0166117137858,1.0166117137858,1.0166117137858,
1.0166117137858,1.01661171378581,1.0166117137858,1.0166117137858,1.0166117137858,
1.0166117137858,1.0166117137858,1.0166117137858,1.01661171378581,1.0166117137858,
1.01661171378581,1.0166117137858,1.01661171378581,1.0166117137858,1.0166117137858,
1.0166117137858,1.0166117137858,1.0166117137858,1.0166117137858,1.0166117137858,
1.0166117137858,1.0166117137858,1.0166117137858,1.01661171378581,1.0166117137858),
(0.958470715535492,0.958470715535494,0.95847071553549,0.958470715535494,
0.958470715535491,0.958470715535494,0.958470715535491,0.958470715535494,
0.95847071553549,0.958470715535494,0.958470715535491,0.958470715535493,
0.958470715535492,0.958470715535492,0.958470715535491,0.958470715535494,
0.958470715535491,0.958470715535492,0.958470715535492,0.958470715535491,
0.958470715535494,0.95847071553549,0.958470715535496,0.95847071553549,0.958470715535493,
0.958470715535491,0.958470715535493,0.958470715535491,0.958470715535493,
0.958470715535491,0.958470715535493,0.958470715535492,0.958470715535493,
0.958470715535492,0.958470715535492,0.958470715535492,0.958470715535492,
0.958470715535492,0.958470715535492),(1.0166117137858,1.0166117137858,1.0166117137858,
1.0166117137858,1.0166117137858,1.0166117137858,1.0166117137858,1.0166117137858,
1.0166117137858,1.0166117137858,1.0166117137858,1.0166117137858,1.0166117137858,
1.0166117137858,1.0166117137858,1.01661171378581,1.0166117137858,1.0166117137858,
1.0166117137858,1.0166117137858,1.0166117137858,1.0166117137858,1.01661171378581,
1.0166117137858,1.01661171378581,1.0166117137858,1.01661171378581,1.0166117137858,
1.0166117137858,1.0166117137858,1.0166117137858,1.0166117137858,1.0166117137858,
1.0166117137858,1.0166117137858,1.0166117137858,1.0166117137858,1.01661171378581,
1.0166117137858),(1.0166117137858,1.0166117137858,1.0166117137858,1.0166117137858,
1.0166117137858,1.0166117137858,1.0166117137858,1.0166117137858,1.0166117137858,
1.0166117137858,1.0166117137858,1.0166117137858,1.0166117137858,1.0166117137858,
1.0166117137858,1.01661171378581,1.0166117137858,1.0166117137858,1.0166117137858,
1.0166117137858,1.0166117137858,1.0166117137858,1.01661171378581,1.0166117137858,
1.01661171378581,1.0166117137858,1.01661171378581,1.0166117137858,1.0166117137858,
1.0166117137858,1.0166117137858,1.0166117137858,1.0166117137858,1.0166117137858,
1.0166117137858,1.0166117137858,1.0166117137858,1.01661171378581,1.0166117137858)))
REPRESENTATION_ITEM('')
SURFACE()
);
#13=ORIENTED_EDGE('',*,*,#17,.T.);
#14=ORIENTED_EDGE('',*,*,#18,.T.);
#15=ORIENTED_EDGE('',*,*,#18,.F.);
#16=ORIENTED_EDGE('',*,*,#17,.F.);
#17=EDGE_CURVE('',#19,#19,#21,.T.);
#18=EDGE_CURVE('',#20,#20,#22,.T.);
#19=VERTEX_POINT('',#66);
#20=VERTEX_POINT('',#69);
#21=CIRCLE('',#50,0.250000000000002);
#22=CIRCLE('',#52,0.249999999999992);
#23=EDGE_LOOP('',(#13));
#24=EDGE_LOOP('',(#14));
#25=EDGE_LOOP('',(#15));
#26=EDGE_LOOP('',(#16));
#27=FACE_BOUND('',#23,.T.);
#28=FACE_BOUND('',#24,.T.);
#29=FACE_BOUND('',#25,.T.);
#30=FACE_BOUND('',#26,.T.);
#31=PLANE('',#49);
#32=PLANE('',#51);
#33=ADVANCED_FACE('',(#27),#31,.T.);
#34=ADVANCED_FACE('',(#28),#32,.F.);
#35=ADVANCED_FACE('',(#29,#30),#12,.F.);
#36=CLOSED_SHELL('',(#33,#34,#35));
#37=STYLED_ITEM('',(#38),#45);
#38=PRESENTATION_STYLE_ASSIGNMENT((#39));
#39=SURFACE_STYLE_USAGE(.BOTH.,#40);
#40=SURFACE_SIDE_STYLE('',(#41));
#41=SURFACE_STYLE_FILL_AREA(#42);
#42=FILL_AREA_STYLE('',(#43));
#43=FILL_AREA_STYLE_COLOUR('',#44);
#44=COLOUR_RGB('',0.611764705882353,0.658823529411765,0.670588235294118);
#45=MANIFOLD_SOLID_BREP('Tube (4)',#36);
#46=SHAPE_DEFINITION_REPRESENTATION(#622,#47);
#47=SHAPE_REPRESENTATION('U05-3',(#48),#617);
#48=AXIS2_PLACEMENT_3D('',#63,#53,#54);
#49=AXIS2_PLACEMENT_3D('',#64,#55,#56);
#50=AXIS2_PLACEMENT_3D('',#65,#57,#58);
#51=AXIS2_PLACEMENT_3D('',#67,#59,#60);
#52=AXIS2_PLACEMENT_3D('',#68,#61,#62);
#53=DIRECTION('',(0.,0.,1.));
#54=DIRECTION('',(1.,0.,0.));
#55=DIRECTION('',(0.,-0.988528264012813,-0.151035993219542));
#56=DIRECTION('',(-0.999486343848317,0.00484034061314809,-0.0316799552315381));
#57=DIRECTION('',(3.92523114670945E-17,-0.988528264012813,-0.151035993219542));
#58=DIRECTION('',(-0.0320475968010704,-0.150958412652499,0.988020500388891));
#59=DIRECTION('',(-4.11224914498136E-15,-0.988468186605559,-0.151428676507183));
#60=DIRECTION('',(1.22464679914735E-16,-0.151428676507183,0.98846818660556));
#61=DIRECTION('',(8.55700389982642E-15,0.988468186605559,0.151428676507184));
#62=DIRECTION('',(1.,-8.00568403193056E-15,0.));
#63=CARTESIAN_POINT('',(0.,0.,0.));
#64=CARTESIAN_POINT('',(2.5,5.42101086242752E-17,0.));
#65=CARTESIAN_POINT('',(2.5,2.73091419448862E-16,-1.99010056935625E-15));
#66=CARTESIAN_POINT('',(2.49198810079973,-0.0377396031631248,0.247005125097223));
#67=CARTESIAN_POINT('',(2.5,-3.46944695195361E-15,12.));
#68=CARTESIAN_POINT('',(2.50000000000001,-2.19370170366069E-15,12.));
#69=CARTESIAN_POINT('',(2.75,-4.19512271164326E-15,12.));
#70=CARTESIAN_POINT('',(2.75,-0.0133845305030459,12.087369069717));
#71=CARTESIAN_POINT('',(2.71555207067784,-1.10726171806072,11.9213098636333));
#72=CARTESIAN_POINT('',(1.37459731132547,-3.01373199597105,11.6041275881673));
#73=CARTESIAN_POINT('',(-1.53457786920349,-2.83481614800916,11.2256756594283));
#74=CARTESIAN_POINT('',(-3.22402481496828,-0.206519926280789,10.7840661082332));
#75=CARTESIAN_POINT('',(-2.26313397211284,2.19935810052983,10.4495494808028));
#76=CARTESIAN_POINT('',(0.0346814486887456,2.92075911612272,10.0965315666029));
#77=CARTESIAN_POINT('',(2.1365435750908,2.27431128742823,9.78559036269468));
#78=CARTESIAN_POINT('',(2.97859436558385,0.0961750479937015,9.46632599115719));
#79=CARTESIAN_POINT('',(2.16958124389917,-2.00606899023322,9.13532392801689));
#80=CARTESIAN_POINT('',(0.00854488695889642,-3.14645985335244,8.80152608468963));
#81=CARTESIAN_POINT('',(-2.33962383822427,-1.85689872846586,8.44067329319332));
#82=CARTESIAN_POINT('',(-2.84436768756428,0.349661848598158,8.11608328572833));
#83=CARTESIAN_POINT('',(-1.62566273909158,2.57796473334904,7.75411825499928));
#84=CARTESIAN_POINT('',(1.31035092657749,2.85746171589204,7.38037241163767));
#85=CARTESIAN_POINT('',(2.96571831156924,0.179625709460727,6.95640800947104));
#86=CARTESIAN_POINT('',(1.8910903994768,-2.005034616985,6.62757798678047));
#87=CARTESIAN_POINT('',(0.202599168158673,-2.56746204959298,6.36679613020146));
#88=CARTESIAN_POINT('',(-1.64915282395035,-2.15932380058352,6.08684334494759));
#89=CARTESIAN_POINT('',(-2.87311559408124,-0.057889580681263,5.76690431228507));
#90=CARTESIAN_POINT('',(-1.684517503692,1.99413250864571,5.4441627933494));
#91=CARTESIAN_POINT('',(0.0273063430994285,2.48937500114398,5.18425146314358));
#92=CARTESIAN_POINT('',(1.9606021554283,1.81204320003119,4.88611436638343));
#93=CARTESIAN_POINT('',(2.60877826091725,-0.111438485462195,4.62692534383921));
#94=CARTESIAN_POINT('',(1.60513586336023,-1.80558614345152,4.33719852595948));
#95=CARTESIAN_POINT('',(0.343057350857088,-2.39257174776063,4.13602575537079));
#96=CARTESIAN_POINT('',(-1.16669521610195,-2.09062818353911,3.90915283018118));
#97=CARTESIAN_POINT('',(-2.27418895718611,-0.949523335955264,3.68242653443402));
#98=CARTESIAN_POINT('',(-2.29847880542879,1.00878422911849,3.40052084355582));
#99=CARTESIAN_POINT('',(-0.875295638979207,2.39210923569749,3.13188577303951));
#100=CARTESIAN_POINT('',(1.65206634829987,2.09190211719765,2.77253469738469));
#101=CARTESIAN_POINT('',(2.62936498769536,-0.0764897675018409,2.46974557544873));
#102=CARTESIAN_POINT('',(1.42128278529552,-2.10986105229082,2.13200009082752));
#103=CARTESIAN_POINT('',(-0.55963547352809,-2.51090499005091,1.85515485328424));
#104=CARTESIAN_POINT('',(-2.52294235962967,-0.983100704810202,1.50224069404419));
#105=CARTESIAN_POINT('',(-2.32120240800539,1.62680398197368,1.16848214121439));
#106=CARTESIAN_POINT('',(0.632179937044848,2.91420180195214,0.73113296470511));
#107=CARTESIAN_POINT('',(2.42235021229325,1.25455109647943,0.435865854083193));
#108=CARTESIAN_POINT('',(2.40364515436992,-0.0373117734542735,0.244204986200734));
#109=CARTESIAN_POINT('',(2.75,0.0133845305030375,11.912630930283));
#110=CARTESIAN_POINT('',(2.71545986534517,-1.08060221171516,11.7467159657651));
#111=CARTESIAN_POINT('',(1.37802982871249,-2.97286703779091,11.430995859435));
#112=CARTESIAN_POINT('',(-1.48582077626802,-2.78841093478153,11.0590273095066));
#113=CARTESIAN_POINT('',(-3.13230079581311,-0.220055217902221,10.6266194799491));
#114=CARTESIAN_POINT('',(-2.1951898455799,2.10653218514092,10.3040967018738));
#115=CARTESIAN_POINT('',(0.0142204539385311,2.798590506132,9.96371348435245));
#116=CARTESIAN_POINT('',(2.02341219140053,2.17856351034502,9.66653266209224));
#117=CARTESIAN_POINT('',(2.82190309258998,0.105844874588885,9.3626920255979));
#118=CARTESIAN_POINT('',(2.05580917569063,-1.88212034217909,9.04876967099825));
#119=CARTESIAN_POINT('',(0.0170429760130988,-2.95545720371758,8.73474097578487));
#120=CARTESIAN_POINT('',(-2.18378309130629,-1.74337116034274,8.39432140789669));
#121=CARTESIAN_POINT('',(-2.65588130508611,0.320699406222818,8.09127928232981));
#122=CARTESIAN_POINT('',(-1.51675461947807,2.4012625248158,7.75244593859165));
#123=CARTESIAN_POINT('',(1.22092742638895,2.66183313544834,7.40253576187792));
#124=CARTESIAN_POINT('',(2.76671898593709,0.163326474025332,7.00768108897625));
#125=CARTESIAN_POINT('',(1.76288796414677,-1.87957855227428,6.69850960842611));
#126=CARTESIAN_POINT('',(0.179419130165501,-2.40768395216633,6.45378513427608));
#127=CARTESIAN_POINT('',(-1.56096472204935,-2.02509810863539,6.19117428100788));
#128=CARTESIAN_POINT('',(-2.72012797290328,-0.0409379082019022,5.88779924991535));
#129=CARTESIAN_POINT('',(-1.59321716227964,1.91095981001656,5.58030618486141));
#130=CARTESIAN_POINT('',(0.0464721898846027,2.38783001311823,5.3317325603086));
#131=CARTESIAN_POINT('',(1.90759001002798,1.7376058219081,5.04479933190577));
#132=CARTESIAN_POINT('',(2.54400747512426,-0.129764315602992,4.79226039634549));
#133=CARTESIAN_POINT('',(1.56161733215326,-1.79260442094387,4.50870163366018));
#134=CARTESIAN_POINT('',(0.315135147268415,-2.37323272266984,4.30960153787217));
#135=CARTESIAN_POINT('',(-1.18592735359462,-2.07498940884678,4.08415046435696));
#136=CARTESIAN_POINT('',(-2.29780450095189,-0.933046745623551,3.85705223516629));
#137=CARTESIAN_POINT('',(-2.32419158032024,1.0449017018592,3.57208422739974));
#138=CARTESIAN_POINT('',(-0.877878861985176,2.45979546383924,3.29837559781072));
#139=CARTESIAN_POINT('',(1.72623518728851,2.15434524435446,2.92809536416152));
#140=CARTESIAN_POINT('',(2.74824304113606,-0.0960191211756658,2.61390350151477));
#141=CARTESIAN_POINT('',(1.4842707227647,-2.23297019041404,2.258956145911));
#142=CARTESIAN_POINT('',(-0.606333172429349,-2.65702686608307,1.96808713190954));
#143=CARTESIAN_POINT('',(-2.69162824038883,-1.03892714796968,1.59293071199451));
#144=CARTESIAN_POINT('',(-2.47991242358004,1.74609114747434,1.23827442517647));
#145=CARTESIAN_POINT('',(0.680372071289155,3.12535585270147,0.770407577740591));
#146=CARTESIAN_POINT('',(2.60106622337889,1.34695840437657,0.455101420420148));
#147=CARTESIAN_POINT('',(2.58033104722955,-0.038167432871976,0.249805263993711));
#148=CARTESIAN_POINT('',(2.70580582617584,0.031164903875271,11.7965674882071));
#149=CARTESIAN_POINT('',(2.67166588739925,-1.04560873857458,11.6334273169862));
#150=CARTESIAN_POINT('',(1.35781472306519,-2.89874225945635,11.3233426933907));
#151=CARTESIAN_POINT('',(-1.43163847767293,-2.71372267513983,10.9618934340267));
#152=CARTESIAN_POINT('',(-3.02530940299454,-0.223825222423648,10.5413739561039));
#153=CARTESIAN_POINT('',(-2.11791038816709,2.01792902151021,10.2319295214083));
#154=CARTESIAN_POINT('',(0.00400971127188373,2.68179815029789,9.90399493486454));
#155=CARTESIAN_POINT('',(1.9277665775597,2.08705015108735,9.61957107634407));
#156=CARTESIAN_POINT('',(2.68944757732964,0.106852701217765,9.32917600606765));
#157=CARTESIAN_POINT('',(1.95912550016914,-1.7872505850659,9.02929667856509));
#158=CARTESIAN_POINT('',(0.0178074317652177,-2.80861770547282,8.73095995600574));
#159=CARTESIAN_POINT('',(-2.07352738752005,-1.65568935000698,8.40574082042431));
#160=CARTESIAN_POINT('',(-2.52306042401014,0.306479130737529,8.118172452613));
#161=CARTESIAN_POINT('',(-1.43926816552419,2.28584412695672,7.79511956787001));
#162=CARTESIAN_POINT('',(1.16894237654132,2.53637127060486,7.4608382912164));
#163=CARTESIAN_POINT('',(2.64995314541531,0.148200525266566,7.08363774660306));
#164=CARTESIAN_POINT('',(1.68753848514434,-1.81481814233437,6.7856875121948));
#165=CARTESIAN_POINT('',(0.159919775435805,-2.32485412608608,6.5494790566786));
#166=CARTESIAN_POINT('',(-1.5238744091253,-1.95615531988177,6.29573496589999));
#167=CARTESIAN_POINT('',(-2.65521330621253,-0.0259727422480182,5.99973444934931));
#168=CARTESIAN_POINT('',(-1.55409435066868,1.88736510235961,5.69838797122666));
#169=CARTESIAN_POINT('',(0.0635496345208426,2.35994083010409,5.45318484033805));
#170=CARTESIAN_POINT('',(1.90782207624595,1.71725134934623,5.16893007018198));
#171=CARTESIAN_POINT('',(2.54851065879945,-0.146268990540903,4.91649264652609));
#172=CARTESIAN_POINT('',(1.56199831566012,-1.81938800009431,4.63147593828114));
#173=CARTESIAN_POINT('',(0.30219734842564,-2.40688104324166,4.43032574286751));
#174=CARTESIAN_POINT('',(-1.22195122311662,-2.10540005312053,4.20119547535452));
#175=CARTESIAN_POINT('',(-2.35794202865836,-0.941056918163495,3.96964596697488));
#176=CARTESIAN_POINT('',(-2.38617961611943,1.08753761940669,3.67729360675449));
#177=CARTESIAN_POINT('',(-0.897621069408565,2.54882135494144,3.3951267349644));
#178=CARTESIAN_POINT('',(1.80257059650795,2.23429300822054,3.01127150729801));
#179=CARTESIAN_POINT('',(2.86936096456688,-0.107228394276814,2.68458749795198));
#180=CARTESIAN_POINT('',(1.54986898098924,-2.34223015437175,2.31315241267211));
#181=CARTESIAN_POINT('',(-0.639947464640313,-2.78646997574917,2.0095746950798));
#182=CARTESIAN_POINT('',(-2.82728594816851,-1.09025366954961,1.6156315607414));
#183=CARTESIAN_POINT('',(-2.60548189281814,1.83346786575739,1.24440462473355));
#184=CARTESIAN_POINT('',(0.710745183536572,3.27945924527896,0.753640019566136));
#185=CARTESIAN_POINT('',(2.72131970896307,1.41553907733711,0.424395474705924));
#186=CARTESIAN_POINT('',(2.69910453061058,-0.0320642911330026,0.209860294720844));
#187=CARTESIAN_POINT('',(2.58838834764832,0.0378571691267924,11.7528829533486));
#188=CARTESIAN_POINT('',(2.55545133612625,-0.993017831571737,11.5968965181039));
#189=CARTESIAN_POINT('',(1.29890683570286,-2.76370244044191,11.2995697759354));
#190=CARTESIAN_POINT('',(-1.36153728421067,-2.58557769593195,10.956248243767));
#191=CARTESIAN_POINT('',(-2.8799849465694,-0.213339416632913,10.5533763642509));
#192=CARTESIAN_POINT('',(-2.01550636731195,1.92312847269245,10.2605118747272));
#193=CARTESIAN_POINT('',(0.0078739060772929,2.55654895242811,9.94651347590677));
#194=CARTESIAN_POINT('',(1.84501233601521,1.9889434349815,9.67513990432903));
#195=CARTESIAN_POINT('',(2.57487576843961,0.0948832832278458,9.39710512504677));
#196=CARTESIAN_POINT('',(1.8745837368102,-1.72294279357696,9.10866512111385));
#197=CARTESIAN_POINT('',(0.00696626550500967,-2.70780183153957,8.82207498591963));
#198=CARTESIAN_POINT('',(-2.01664893439402,-1.59469388158675,8.506290599123));
#199=CARTESIAN_POINT('',(-2.4556785359442,0.312567882298963,8.22719477230339));
#200=CARTESIAN_POINT('',(-1.39836310833394,2.24684839261368,7.9110302699703));
#201=CARTESIAN_POINT('',(1.16627711725994,2.49935963637558,7.58216837462725));
#202=CARTESIAN_POINT('',(2.64115131087845,0.132701839528894,7.20777922666944));
#203=CARTESIAN_POINT('',(1.68153651832207,-1.83278980991873,6.90986504782239));
#204=CARTESIAN_POINT('',(0.14322406725397,-2.3468062108409,6.67195999635605));
#205=CARTESIAN_POINT('',(-1.55891101413805,-1.97629853425941,6.41550545379179));
#206=CARTESIAN_POINT('',(-2.71447769747001,-0.011889491531388,6.11400814584431));
#207=CARTESIAN_POINT('',(-1.5884450700637,1.95066063882414,5.80589513622132));
#208=CARTESIAN_POINT('',(0.0798910507691122,2.43965542041341,5.55247348182123));
#209=CARTESIAN_POINT('',(1.9887371263928,1.77592416551996,5.25836427675877));
#210=CARTESIAN_POINT('',(2.65858447712894,-0.162361030039376,4.99612354481994));
#211=CARTESIAN_POINT('',(1.62892886309426,-1.91021172305358,4.69789041963155));
#212=CARTESIAN_POINT('',(0.310117784439202,-2.52557290825026,4.48815388919006));
#213=CARTESIAN_POINT('',(-1.28853011706597,-2.20988504589959,4.24709483425501));
#214=CARTESIAN_POINT('',(-2.48194777069975,-0.987296177379892,4.00428230036096));
#215=CARTESIAN_POINT('',(-2.51192517340211,1.14610722944796,3.69694934037258));
#216=CARTESIAN_POINT('',(-0.946160381094109,2.68282458155732,3.39999516627368));
#217=CARTESIAN_POINT('',(1.89303773101214,2.35211879663035,2.99662775724388));
#218=CARTESIAN_POINT('',(3.01108683238284,-0.107428323390484,2.65402587859392));
#219=CARTESIAN_POINT('',(1.62874499002956,-2.44604224939554,2.26484129303486));
#220=CARTESIAN_POINT('',(-0.658521865438759,-2.9090479244759,1.94874047770638));
#221=CARTESIAN_POINT('',(-2.9321970600705,-1.14205940325724,1.53857454784166));
#222=CARTESIAN_POINT('',(-2.69870065408405,1.88492857963628,1.1549759990252));
#223=CARTESIAN_POINT('',(0.71844459252638,3.36905052513471,0.649601073492301));
#224=CARTESIAN_POINT('',(2.77011122244045,1.45777685929709,0.31367778174276));
#225=CARTESIAN_POINT('',(2.74703895183473,-0.0145530498112545,0.095249488279924));
#226=CARTESIAN_POINT('',(2.41161165235168,0.0378571691267931,11.7528829533486));
#227=CARTESIAN_POINT('',(2.38052040047251,-0.923874361732956,11.6076124624749));
#228=CARTESIAN_POINT('',(1.20892671470751,-2.5757755648999,11.328942880962));
#229=CARTESIAN_POINT('',(-1.27434857938883,-2.41011654532763,11.0104731185077));
#230=CARTESIAN_POINT('',(-2.695716725368,-0.192458137656106,10.6307070122951));
#231=CARTESIAN_POINT('',(-1.88690617896782,1.81534074593368,10.3582899866634));
#232=CARTESIAN_POINT('',(0.0213928162616607,2.41396371970005,10.0605175641917));
#233=CARTESIAN_POINT('',(1.76300347816036,1.87727788637382,9.80361251911678));
#234=CARTESIAN_POINT('',(2.4613595819104,0.0732232698620923,9.53838138871367));
#235=CARTESIAN_POINT('',(1.79012483761765,-1.67277725742566,9.26073519695294));
#236=CARTESIAN_POINT('',(-0.0125540955027342,-2.62791003990716,8.98438920719942));
#237=CARTESIAN_POINT('',(-1.98967226994214,-1.5455928420462,8.67511845265584));
#238=CARTESIAN_POINT('',(-2.42517585789889,0.332635768458413,8.4006680752699));
#239=CARTESIAN_POINT('',(-1.37777029291776,2.25464681481358,8.0861678880379));
#240=CARTESIAN_POINT('',(1.19592212434984,2.51726880227568,7.75649370071226));
#241=CARTESIAN_POINT('',(2.70280015274322,0.115502737423831,7.37538075800878));
#242=CARTESIAN_POINT('',(1.7207537874142,-1.90706664881037,7.07012168250453));
#243=CARTESIAN_POINT('',(0.126812630780746,-2.43999402364367,6.82361858083139));
#244=CARTESIAN_POINT('',(-1.64485269573222,-2.05714547928835,6.55655610253489));
#245=CARTESIAN_POINT('',(-2.86128484215339,0.00293304922133752,6.24054871479502));
#246=CARTESIAN_POINT('',(-1.6745255236814,2.07725954599097,5.91650913340337));
#247=CARTESIAN_POINT('',(0.0972799678377604,2.59788892130768,5.64644682221637));
#248=CARTESIAN_POINT('',(2.13051093504628,1.89227553965992,5.33328440488499));
#249=CARTESIAN_POINT('',(2.84868374930674,-0.179690670105974,5.05378140870107));
#250=CARTESIAN_POINT('',(1.74607519169056,-2.05183658426551,4.73332887761957));
#251=CARTESIAN_POINT('',(0.33255181432786,-2.71154716153104,4.50988515382376));
#252=CARTESIAN_POINT('',(-1.38152860892976,-2.37307756799274,4.25033167023417));
#253=CARTESIAN_POINT('',(-2.65975482371743,-1.06311276657961,3.99070219253426));
#254=CARTESIAN_POINT('',(-2.6915622213623,1.22069203870583,3.66196795236856));
#255=CARTESIAN_POINT('',(-1.01826596376686,2.85909570309562,3.3446605164478));
#256=CARTESIAN_POINT('',(2.00132357284298,2.50600756435652,2.91603031120997));
#257=CARTESIAN_POINT('',(3.17971686465081,-0.100378769496918,2.55375526587621));
#258=CARTESIAN_POINT('',(1.72378825359598,-2.55599906845242,2.14432262563199));
#259=CARTESIAN_POINT('',(-0.66891005451529,-3.03859583586039,1.81464612601696));
#260=CARTESIAN_POINT('',(-3.02665409206491,-1.19904276683466,1.38842778325137));
#261=CARTESIAN_POINT('',(-2.77930915171991,1.91750684019818,0.994068871027064));
#262=CARTESIAN_POINT('',(0.711897564856952,3.42445855841381,0.478183918253973));
#263=CARTESIAN_POINT('',(2.77630277127194,1.48658680246859,0.139747902722154));
#264=CARTESIAN_POINT('',(2.75270422008943,0.0121328795046803,-0.0794095106641537));
#265=CARTESIAN_POINT('',(2.29419417382416,0.0311649038752728,11.7965674882071));
#266=CARTESIAN_POINT('',(2.26435195186584,-0.884613207902893,11.6583786125267));
#267=CARTESIAN_POINT('',(1.14830256865167,-2.46116822497554,11.3917358278728));
#268=CARTESIAN_POINT('',(-1.22862593239428,-2.30517417273356,11.0881521032088));
#269=CARTESIAN_POINT('',(-2.59625427852046,-0.175204686054657,10.7214327345842));
#270=CARTESIAN_POINT('',(-1.81847422137915,1.76695315481037,10.4595987294468));
#271=CARTESIAN_POINT('',(0.0354875084421777,2.34979882682564,10.1694451463592));
#272=CARTESIAN_POINT('',(1.73681492846101,1.82704505880957,9.91871019740293));
#273=CARTESIAN_POINT('',(2.4251334095173,0.0564189385745831,9.65812749047245));
#274=CARTESIAN_POINT('',(1.76246910836298,-1.67044378996379,9.38338076801101));
#275=CARTESIAN_POINT('',(-0.0276443062900458,-2.62259549079134,9.10889679156569));
#276=CARTESIAN_POINT('',(-2.0107141902751,-1.54136115768753,8.79884417400286));
#277=CARTESIAN_POINT('',(-2.45203716107204,0.353205741207517,8.52209239665954));
#278=CARTESIAN_POINT('',(-1.39131929553426,2.30400218473717,8.20291474834202));
#279=CARTESIAN_POINT('',(1.23796861516272,2.57807145826824,7.86674210900298));
#280=CARTESIAN_POINT('',(2.79349798102244,0.108153669403857,7.47388569832256));
#281=CARTESIAN_POINT('',(1.77885303825693,-1.98776634875008,7.15883340730928));
#282=CARTESIAN_POINT('',(0.121706941595498,-2.54183515711183,6.90260501847156));
#283=CARTESIAN_POINT('',(-1.72398335169546,-2.14440153964004,6.62416112239651));
#284=CARTESIAN_POINT('',(-2.99704304399986,0.00854046369828666,6.29437494247492));
#285=CARTESIAN_POINT('',(-1.75452641378259,2.18214143177007,5.95594460264199));
#286=CARTESIAN_POINT('',(0.104038460693444,2.72837600562988,5.67199491511706));
#287=CARTESIAN_POINT('',(2.23793205789329,1.98816704489519,5.34337612870058));
#288=CARTESIAN_POINT('',(2.99114296053274,-0.186619794534049,5.0507447807418));
#289=CARTESIAN_POINT('',(1.83476500472819,-2.14915116847861,4.71399180511963));
#290=CARTESIAN_POINT('',(0.35443335213576,-2.83990853908503,4.48092540889562));
#291=CARTESIAN_POINT('',(-1.43849143413277,-2.48538194811797,4.20873221204677));
#292=CARTESIAN_POINT('',(-2.77195279387592,-1.11759032096187,3.93802567555421));
#293=CARTESIAN_POINT('',(-2.80445139119926,1.26120291237674,3.59584199406469));
#294=CARTESIAN_POINT('',(-1.06551366394942,2.95925581564063,3.26628403537148));
#295=CARTESIAN_POINT('',(2.05470628785284,2.59261178918793,2.82360622776741));
#296=CARTESIAN_POINT('',(3.26200370574643,-0.0908140217736774,2.45111468348513));
#297=CARTESIAN_POINT('',(1.7711702939017,-2.5982565944146,2.03253347845299));
#298=CARTESIAN_POINT('',(-0.664135605863104,-3.08811284657104,1.6973457693309));
#299=CARTESIAN_POINT('',(-3.04722226358731,-1.22293527896255,1.26602576137647));
#300=CARTESIAN_POINT('',(-2.79317290519851,1.90932397132676,0.869744103337679));
#301=CARTESIAN_POINT('',(0.695500906724606,3.40847281289486,0.354507665662391));
#302=CARTESIAN_POINT('',(2.73573627920651,1.48262093048002,0.0194124265905167));
#303=CARTESIAN_POINT('',(2.71229569488377,0.0300719505352796,-0.196820456001562));
#304=CARTESIAN_POINT('',(2.25,0.0133845305030398,11.912630930283));
#305=CARTESIAN_POINT('',(2.22068046198489,-0.88503494612409,11.7770252334911));
#306=CARTESIAN_POINT('',(1.12352761380129,-2.4413295655391,11.5140755464305));
#307=CARTESIAN_POINT('',(-1.23921387857845,-2.29213185707309,11.2123984160591));
#308=CARTESIAN_POINT('',(-2.61111156073834,-0.160994042044824,10.8453435824515));
#309=CARTESIAN_POINT('',(-1.83145358461989,1.80166245506169,10.5806549658804));
#310=CARTESIAN_POINT('',(0.0524577062010082,2.39529856629573,10.2861657399896));
#311=CARTESIAN_POINT('',(1.79145611337441,1.8627256437634,10.029908090545));
#312=CARTESIAN_POINT('',(2.50083083151303,0.0445811052628276,9.76228164183615));
#313=CARTESIAN_POINT('',(1.81692333428819,-1.74023077900133,9.47888879836372));
#314=CARTESIAN_POINT('',(-0.0381689425460348,-2.7294890932199,9.19383492198471));
#315=CARTESIAN_POINT('',(-2.10748156183541,-1.60449244825301,8.87183868824165));
#316=CARTESIAN_POINT('',(-2.56960670312536,0.377459959772532,8.58193587785962));
#317=CARTESIAN_POINT('',(-1.45850934178005,2.4233197936962,8.24780992809743));
#318=CARTESIAN_POINT('',(1.3047761685553,2.71248790606177,7.89560224270704));
#319=CARTESIAN_POINT('',(2.9410882424766,0.114680067110091,7.4817298063654));
#320=CARTESIAN_POINT('',(1.87381115180543,-2.08966517813581,7.15178382088167));
#321=CARTESIAN_POINT('',(0.133000578088581,-2.67125888959347,6.88274038830669));
#322=CARTESIAN_POINT('',(-1.80404450541659,-2.25376780090814,6.59012576187597));
#323=CARTESIAN_POINT('',(-3.13536128303229,0.000986568120768951,6.24571002751631));
#324=CARTESIAN_POINT('',(-1.8366894522024,2.26903559301043,5.89316981486776));
#325=CARTESIAN_POINT('',(0.0956554745915277,2.83538193909115,5.59752930528518));
#326=CARTESIAN_POINT('',(2.30858689600206,2.06669720452704,5.25670545448748));
#327=CARTESIAN_POINT('',(3.08168941294645,-0.178779939629438,4.95534146250175));
#328=CARTESIAN_POINT('',(1.89295718551949,-2.19318001993413,4.60893672949268));
#329=CARTESIAN_POINT('',(0.378588165922862,-2.89924734515361,4.37106683621712));
#330=CARTESIAN_POINT('',(-1.44896681054267,-2.5365675648908,4.09330561903879));
#331=CARTESIAN_POINT('',(-2.80071879267828,-1.14748844302179,3.81864188983227));
#332=CARTESIAN_POINT('',(-2.83228187938016,1.25585939945819,3.47314192070792));
#333=CARTESIAN_POINT('',(-1.0818242478624,2.95836548530758,3.14186557330485));
#334=CARTESIAN_POINT('',(2.03251379954882,2.58960840918493,2.70013136161397));
#335=CARTESIAN_POINT('',(3.2252007984496,-0.0760799717257473,2.33029538068907));
#336=CARTESIAN_POINT('',(1.75309366746037,-2.54397503998533,1.91807787799044));
#337=CARTESIAN_POINT('',(-0.635715408190405,-3.02344369259719,1.58881103031592));
#338=CARTESIAN_POINT('',(-2.95879307180483,-1.20010043917133,1.16825153033443));
#339=CARTESIAN_POINT('',(-2.70790768477834,1.83823638332465,0.783160339781536));
#340=CARTESIAN_POINT('',(0.661854280642477,3.28207343695692,0.285566646217685));
#341=CARTESIAN_POINT('',(2.61857856803808,1.42844522910522,-0.0368465672055652));
#342=CARTESIAN_POINT('',(2.59635484563008,0.0373117734542735,-0.244204986200734));
#343=CARTESIAN_POINT('',(2.25,-0.0133845305030435,12.087369069717));
#344=CARTESIAN_POINT('',(2.22077266731756,-0.91169445246965,11.9516191313593));
#345=CARTESIAN_POINT('',(1.12009509641427,-2.48219452371924,11.6872072751628));
#346=CARTESIAN_POINT('',(-1.28797097151392,-2.33853707030073,11.3790467659807));
#347=CARTESIAN_POINT('',(-2.7028355798935,-0.14745875042339,11.0027902107357));
#348=CARTESIAN_POINT('',(-1.89939771115284,1.8944883704506,10.7261077448094));
#349=CARTESIAN_POINT('',(0.0729187009512241,2.51746717628645,10.4189838222401));
#350=CARTESIAN_POINT('',(1.90458749706468,1.95847342084661,10.1489657911474));
#351=CARTESIAN_POINT('',(2.6575221045069,0.0349112786676433,9.86591560739544));
#352=CARTESIAN_POINT('',(1.93069540249673,-1.86417942705546,9.56544305538237));
#353=CARTESIAN_POINT('',(-0.0466670316002343,-2.92049174285476,9.26062003088945));
#354=CARTESIAN_POINT('',(-2.26332230875339,-1.71802001637613,8.91819057353833));
#355=CARTESIAN_POINT('',(-2.75809308560353,0.406422402147872,8.6067398812581));
#356=CARTESIAN_POINT('',(-1.56741746139356,2.60002200222944,8.2494822445051));
#357=CARTESIAN_POINT('',(1.39419966874384,2.90811648650546,7.87343889246675));
#358=CARTESIAN_POINT('',(3.14008756810875,0.130979302545487,7.43045672686022));
#359=CARTESIAN_POINT('',(2.00201358713544,-2.21512124284653,7.08085219923601));
#360=CARTESIAN_POINT('',(0.156180616081754,-2.83103698702012,6.7957513842321));
#361=CARTESIAN_POINT('',(-1.89223260731759,-2.38799349285626,6.48579482581565));
#362=CARTESIAN_POINT('',(-3.28834890421026,-0.0159651043585963,6.12481508988605));
#363=CARTESIAN_POINT('',(-1.92798979361476,2.35220829163958,5.75702642335573));
#364=CARTESIAN_POINT('',(0.0764896278063516,2.93692692711689,5.45004820812018));
#365=CARTESIAN_POINT('',(2.36159904140238,2.14113458265013,5.09802048896512));
#366=CARTESIAN_POINT('',(3.14646019873943,-0.160454109488643,4.79000640999549));
#367=CARTESIAN_POINT('',(1.93647571672645,-2.20616174244177,4.43743362179198));
#368=CARTESIAN_POINT('',(0.406510369511533,-2.91858637024439,4.19749105371575));
#369=CARTESIAN_POINT('',(-1.42973467305,-2.55220633958313,3.91830798486301));
#370=CARTESIAN_POINT('',(-2.7771032489125,-1.1639650333535,3.64401618910001));
#371=CARTESIAN_POINT('',(-2.80656910448871,1.21974192671747,3.301578536864));
#372=CARTESIAN_POINT('',(-1.07924102485643,2.89067925716582,2.97537574853365));
#373=CARTESIAN_POINT('',(1.95834496056017,2.52716528202813,2.54457069483713));
#374=CARTESIAN_POINT('',(3.10632274500889,-0.0565506180519217,2.18613745462303));
#375=CARTESIAN_POINT('',(1.6901057299912,-2.42086590186212,1.79112182290697));
#376=CARTESIAN_POINT('',(-0.58901770928915,-2.87732181656502,1.47587875169062));
#377=CARTESIAN_POINT('',(-2.79010719104567,-1.14427399601186,1.0775615123841));
#378=CARTESIAN_POINT('',(-2.54919766920369,1.71894921782401,0.713368055819455));
#379=CARTESIAN_POINT('',(0.613662146398171,3.07091938620759,0.2462920331822));
#380=CARTESIAN_POINT('',(2.43986255695244,1.33603792120809,-0.0560821335425169));
#381=CARTESIAN_POINT('',(2.41966895277045,0.038167432871976,-0.249805263993711));
#382=CARTESIAN_POINT('',(2.29419417382416,-0.031164903875277,12.2034325117929));
#383=CARTESIAN_POINT('',(2.26456664526347,-0.946687925610236,12.0649077801382));
#384=CARTESIAN_POINT('',(1.14031020206157,-2.5563193020538,11.7948604412071));
#385=CARTESIAN_POINT('',(-1.342153270109,-2.41322532994242,11.4761806414606));
#386=CARTESIAN_POINT('',(-2.80982697271209,-0.143688745901961,11.0880357345809));
#387=CARTESIAN_POINT('',(-1.97667716856565,1.9830915340813,10.7982749252748));
#388=CARTESIAN_POINT('',(0.083129443617872,2.63425953212056,10.478702371728));
#389=CARTESIAN_POINT('',(2.00023311090551,2.04998678010427,10.1959273768955));
#390=CARTESIAN_POINT('',(2.78997761976724,0.0339034520387621,9.89943162692571));
#391=CARTESIAN_POINT('',(2.02737907801822,-1.95904918416864,9.5849160478155));
#392=CARTESIAN_POINT('',(-0.0474314873523587,-3.06733124109953,9.26440105066859));
#393=CARTESIAN_POINT('',(-2.37357801253963,-1.80570182671188,8.9067711610107));
#394=CARTESIAN_POINT('',(-2.89091396667951,0.420642677633158,8.57984671097492));
#395=CARTESIAN_POINT('',(-1.64490391534744,2.71544040008853,8.20680861522672));
#396=CARTESIAN_POINT('',(1.44618471859147,3.03357835134894,7.81513636312831));
#397=CARTESIAN_POINT('',(3.25685340863053,0.146105251304256,7.35450006923339));
#398=CARTESIAN_POINT('',(2.07736306613787,-2.27988165278644,6.9936742954673));
#399=CARTESIAN_POINT('',(0.17567997081145,-2.91386681310038,6.7000574618296));
#400=CARTESIAN_POINT('',(-1.92932292024163,-2.45693628160988,6.38123414092351));
#401=CARTESIAN_POINT('',(-3.35326357090102,-0.0309302703124768,6.01287989045212));
#402=CARTESIAN_POINT('',(-1.96711260522571,2.37580299929652,5.63894463699045));
#403=CARTESIAN_POINT('',(0.0594121831701128,2.96481611013104,5.32859592809075));
#404=CARTESIAN_POINT('',(2.3613669751844,2.16148905521199,4.97388975068889));
#405=CARTESIAN_POINT('',(3.14195701506425,-0.143949434550731,4.6657741598149));
#406=CARTESIAN_POINT('',(1.9360947332196,-2.17937816329133,4.31465931717103));
#407=CARTESIAN_POINT('',(0.419448168354307,-2.88493804967257,4.0767668487204));
#408=CARTESIAN_POINT('',(-1.39371080352799,-2.52179569530939,3.80126297386546));
#409=CARTESIAN_POINT('',(-2.71696572120603,-1.15595486081356,3.53142245729142));
#410=CARTESIAN_POINT('',(-2.74458106868952,1.17710600916998,3.19636915750925));
#411=CARTESIAN_POINT('',(-1.05949881743305,2.80165336606363,2.87862461137997));
#412=CARTESIAN_POINT('',(1.88200955134073,2.44721751816204,2.46139455170063));
#413=CARTESIAN_POINT('',(2.98520482157808,-0.0453413449507739,2.11545345818582));
#414=CARTESIAN_POINT('',(1.62450747176666,-2.3116059379044,1.73692555614586));
#415=CARTESIAN_POINT('',(-0.555403417078186,-2.74787870689893,1.43439118852036));
#416=CARTESIAN_POINT('',(-2.65444948326598,-1.09294747443193,1.05486066363722));
#417=CARTESIAN_POINT('',(-2.4236281999656,1.63157249954096,0.70723785626238));
#418=CARTESIAN_POINT('',(0.583289034150757,2.91681599363009,0.263059591356657));
#419=CARTESIAN_POINT('',(2.31960907136826,1.26745724824755,-0.0253761878282961));
#420=CARTESIAN_POINT('',(2.30089546938942,0.0320642911330026,-0.209860294720844));
#421=CARTESIAN_POINT('',(2.41161165235168,-0.0378571691267984,12.2471170466514));
#422=CARTESIAN_POINT('',(2.38078119653648,-0.999278832613081,12.1014385790204));
#423=CARTESIAN_POINT('',(1.19921808942389,-2.69135912106823,11.8186333586625));
#424=CARTESIAN_POINT('',(-1.41225446357128,-2.54137030915031,11.4818258317203));
#425=CARTESIAN_POINT('',(-2.95515142913721,-0.154174551692696,11.0760333264338));
#426=CARTESIAN_POINT('',(-2.07908118942079,2.07789208289907,10.7696925719559));
#427=CARTESIAN_POINT('',(0.0792652488124618,2.75950872999034,10.4361838306857));
#428=CARTESIAN_POINT('',(2.08298735245,2.14809349621013,10.1403585489106));
#429=CARTESIAN_POINT('',(2.90454942865728,0.0458728700286816,9.83150250794658));
#430=CARTESIAN_POINT('',(2.11192084137715,-2.02335697565759,9.50554760526676));
#431=CARTESIAN_POINT('',(-0.0365903210921483,-3.16814711503277,9.17328602075471));
#432=CARTESIAN_POINT('',(-2.43045646566566,-1.86669729513212,8.80622138231198));
#433=CARTESIAN_POINT('',(-2.95829585474544,0.414553926071728,8.47082439128455));
#434=CARTESIAN_POINT('',(-1.68580897253769,2.75443613443155,8.09089791312641));
#435=CARTESIAN_POINT('',(1.44884997787285,3.07058998557822,7.69380627971746));
#436=CARTESIAN_POINT('',(3.26565524316739,0.161603937041927,7.230358589167));
#437=CARTESIAN_POINT('',(2.08336503296015,-2.26190998520209,6.86949675983975));
#438=CARTESIAN_POINT('',(0.192375678993283,-2.89191472834555,6.57757652215211));
#439=CARTESIAN_POINT('',(-1.89428631522888,-2.43679306723226,6.26146365303175));
#440=CARTESIAN_POINT('',(-3.29399917964354,-0.0450135210291051,5.89860619395707));
#441=CARTESIAN_POINT('',(-1.93276188583069,2.31250746283199,5.53143747199584));
#442=CARTESIAN_POINT('',(0.0430707669218399,2.88510151982172,5.22930728660753));
#443=CARTESIAN_POINT('',(2.28045192503756,2.10281623903827,4.88445554411214));
#444=CARTESIAN_POINT('',(3.03188319673475,-0.127857395052257,4.58614326152103));
#445=CARTESIAN_POINT('',(1.86916418578546,-2.08855444033207,4.24824483582062));
#446=CARTESIAN_POINT('',(0.411527732340747,-2.76624618466398,4.01893870239784));
#447=CARTESIAN_POINT('',(-1.32713190957865,-2.41731070253032,3.75536361496497));
#448=CARTESIAN_POINT('',(-2.59295997916465,-1.10971560159716,3.49678612390533));
#449=CARTESIAN_POINT('',(-2.61883551140684,1.11853639912871,3.17671342389118));
#450=CARTESIAN_POINT('',(-1.0109595057475,2.66765013944774,2.87375618007067));
#451=CARTESIAN_POINT('',(1.79154241683655,2.32939172975223,2.47603830175478));
#452=CARTESIAN_POINT('',(2.84347895376211,-0.0451414158371032,2.14601507754388));
#453=CARTESIAN_POINT('',(1.54563146272634,-2.20779384288062,1.78523667578311));
#454=CARTESIAN_POINT('',(-0.536829016279742,-2.6253007581722,1.49522540589378));
#455=CARTESIAN_POINT('',(-2.54953837136399,-1.0411417407243,1.13191767653695));
#456=CARTESIAN_POINT('',(-2.33040943869967,1.58011178566206,0.796666481970727));
#457=CARTESIAN_POINT('',(0.575589625160949,2.82722471377435,0.367098537430494));
#458=CARTESIAN_POINT('',(2.27081755789088,1.22521946628757,0.085341505134867));
#459=CARTESIAN_POINT('',(2.25296104816527,0.0145530498112545,-0.095249488279924));
#460=CARTESIAN_POINT('',(2.58838834764832,-0.0378571691267992,12.2471170466514));
#461=CARTESIAN_POINT('',(2.55571213219022,-1.06842230245186,12.0907226346495));
#462=CARTESIAN_POINT('',(1.28919821041925,-2.87928599661024,11.7892602536357));
#463=CARTESIAN_POINT('',(-1.49944316839311,-2.71683145975463,11.4276009569797));
#464=CARTESIAN_POINT('',(-3.13941965033862,-0.175055830669504,10.9987026783896));
#465=CARTESIAN_POINT('',(-2.20768137776491,2.18567980965783,10.6719144600198));
#466=CARTESIAN_POINT('',(0.0657463386280902,2.90209396271839,10.3221797424008));
#467=CARTESIAN_POINT('',(2.16499621030486,2.25975904481781,10.0118859341229));
#468=CARTESIAN_POINT('',(3.01806561518648,0.0675328833944335,9.69022624427969));
#469=CARTESIAN_POINT('',(2.19637974056971,-2.07352251180888,9.35347752942767));
#470=CARTESIAN_POINT('',(-0.0170699600844105,-3.24803890666519,9.0109717994749));
#471=CARTESIAN_POINT('',(-2.45743313011754,-1.91579833467266,8.63739352877915));
#472=CARTESIAN_POINT('',(-2.98879853279076,0.394486039912272,8.29735108831803));
#473=CARTESIAN_POINT('',(-1.70640178795386,2.74663771223166,7.91576029505883));
#474=CARTESIAN_POINT('',(1.41920497078295,3.05268081967812,7.51948095363245));
#475=CARTESIAN_POINT('',(3.20400640130262,0.178803039146991,7.06275705782766));
#476=CARTESIAN_POINT('',(2.04414776386802,-2.18763314631044,6.7092401251576));
#477=CARTESIAN_POINT('',(0.208787115466509,-2.79872691554278,6.42591793767678));
#478=CARTESIAN_POINT('',(-1.80834463363472,-2.3559461222033,6.12041300428865));
#479=CARTESIAN_POINT('',(-3.14719203496015,-0.0598360617818325,5.77206562500636));
#480=CARTESIAN_POINT('',(-1.846681432213,2.18590855566517,5.42082347481378));
#481=CARTESIAN_POINT('',(0.0256818498531933,2.72686801892744,5.1353339462124));
#482=CARTESIAN_POINT('',(2.13867811638408,1.98646486489831,4.80953541598591));
#483=CARTESIAN_POINT('',(2.84178392455695,-0.110527754985661,4.52848539763991));
#484=CARTESIAN_POINT('',(1.75201785718915,-1.94692957912013,4.21280637783259));
#485=CARTESIAN_POINT('',(0.389093702452088,-2.5802719313832,3.99720743776416));
#486=CARTESIAN_POINT('',(-1.23413341771485,-2.25411818043717,3.7521267789858));
#487=CARTESIAN_POINT('',(-2.41515292614696,-1.03389901239744,3.51036623173203));
#488=CARTESIAN_POINT('',(-2.43919846344666,1.04395158987084,3.21169481189518));
#489=CARTESIAN_POINT('',(-0.938853923074751,2.49137901790944,2.92909082989656));
#490=CARTESIAN_POINT('',(1.68325657500571,2.17550296202606,2.55663574778868));
#491=CARTESIAN_POINT('',(2.67484892149415,-0.0521909697306689,2.24628569026159));
#492=CARTESIAN_POINT('',(1.45058819915992,-2.09783702382373,1.90575534318598));
#493=CARTESIAN_POINT('',(-0.526440827203207,-2.49575284678771,1.6293197575832));
#494=CARTESIAN_POINT('',(-2.45508133936959,-0.984158377146877,1.28206444112725));
#495=CARTESIAN_POINT('',(-2.24980094106381,1.54753352510016,0.957573609968862));
#496=CARTESIAN_POINT('',(0.582136652830376,2.77181668049526,0.53851569266882));
#497=CARTESIAN_POINT('',(2.26462600905939,1.19640952311606,0.259271384155475));
#498=CARTESIAN_POINT('',(2.24729577991057,-0.0121328795046803,0.0794095106641537));
#499=CARTESIAN_POINT('',(2.70580582617584,-0.031164903875279,12.2034325117929));
#500=CARTESIAN_POINT('',(2.67188058079687,-1.10768345628192,12.0399564845976));
#501=CARTESIAN_POINT('',(1.34982235647509,-2.99389333653462,11.726467306725));
#502=CARTESIAN_POINT('',(-1.54516581538765,-2.82177383234869,11.3499219722785));
#503=CARTESIAN_POINT('',(-3.23888209718616,-0.192309282270955,10.9079769561005));
#504=CARTESIAN_POINT('',(-2.27611333535359,2.23406740078114,10.5706057172363));
#505=CARTESIAN_POINT('',(0.0516516464475767,2.96625885559281,10.2132521602333));
#506=CARTESIAN_POINT('',(2.1911847600042,2.30999187238206,9.89678825583671));
#507=CARTESIAN_POINT('',(3.05429178757959,0.0843372146819434,9.5704801425209));
#508=CARTESIAN_POINT('',(2.22403546982437,-2.07585597927076,9.23083195836959));
#509=CARTESIAN_POINT('',(-0.00197974929709639,-3.253353455781,8.88646421510862));
#510=CARTESIAN_POINT('',(-2.43639120978458,-1.92003001903134,8.51366780743217));
#511=CARTESIAN_POINT('',(-2.9619372296176,0.373916067163171,8.17592676692836));
#512=CARTESIAN_POINT('',(-1.69285278533737,2.69728234230807,7.79901343475474));
#513=CARTESIAN_POINT('',(1.37715847997006,2.99187816368556,7.40923254534172));
#514=CARTESIAN_POINT('',(3.11330857302341,0.186152107166964,6.96425211751388));
#515=CARTESIAN_POINT('',(1.98604851302528,-2.10693344637073,6.62052840035285));
#516=CARTESIAN_POINT('',(0.213892804651759,-2.69688578207463,6.34693150003662));
#517=CARTESIAN_POINT('',(-1.72921397767147,-2.26869006185161,6.05280798442702));
#518=CARTESIAN_POINT('',(-3.01143383311369,-0.0654434762587821,5.71823939732648));
#519=CARTESIAN_POINT('',(-1.7666805421118,2.08102666988606,5.38138800557515));
#520=CARTESIAN_POINT('',(0.0189233569975124,2.59638093460526,5.10978585331172));
#521=CARTESIAN_POINT('',(2.03125699353706,1.89057335966303,4.79944369217031));
#522=CARTESIAN_POINT('',(2.69932471333097,-0.103598630557583,4.53152202559919));
#523=CARTESIAN_POINT('',(1.66332804415153,-1.84961499490704,4.23214345033253));
#524=CARTESIAN_POINT('',(0.36721216464419,-2.4519105538292,4.02616718269228));
#525=CARTESIAN_POINT('',(-1.17717059251184,-2.14181380031195,3.79372623717321));
#526=CARTESIAN_POINT('',(-2.30295495598848,-0.979421458015182,3.56304274871208));
#527=CARTESIAN_POINT('',(-2.32630929360969,1.00344071619993,3.27782077019906));
#528=CARTESIAN_POINT('',(-0.891606222892195,2.39121890536444,3.00746731097289));
#529=CARTESIAN_POINT('',(1.62987385999584,2.08889873719465,2.64905983123123));
#530=CARTESIAN_POINT('',(2.59256208039853,-0.06175571745391,2.34892627265267));
#531=CARTESIAN_POINT('',(1.40320615885419,-2.05557949786155,2.01754449036497));
#532=CARTESIAN_POINT('',(-0.531215275855394,-2.44623583607706,1.74662011426927));
#533=CARTESIAN_POINT('',(-2.43451316784718,-0.960265865018984,1.40446646300214));
#534=CARTESIAN_POINT('',(-2.23593718758523,1.55571639397159,1.08189837765825));
#535=CARTESIAN_POINT('',(0.598533310962719,2.78780242601418,0.6621919452604));
#536=CARTESIAN_POINT('',(2.30519250112483,1.20037539510465,0.379606860287113));
#537=CARTESIAN_POINT('',(2.28770430511623,-0.0300719505352796,0.196820456001562));
#538=CARTESIAN_POINT('',(2.75,-0.0133845305030459,12.087369069717));
#539=CARTESIAN_POINT('',(2.71555207067784,-1.10726171806072,11.9213098636333));
#540=CARTESIAN_POINT('',(1.37459731132547,-3.01373199597105,11.6041275881673));
#541=CARTESIAN_POINT('',(-1.53457786920349,-2.83481614800916,11.2256756594283));
#542=CARTESIAN_POINT('',(-3.22402481496828,-0.206519926280789,10.7840661082332));
#543=CARTESIAN_POINT('',(-2.26313397211284,2.19935810052983,10.4495494808028));
#544=CARTESIAN_POINT('',(0.0346814486887456,2.92075911612272,10.0965315666029));
#545=CARTESIAN_POINT('',(2.1365435750908,2.27431128742823,9.78559036269468));
#546=CARTESIAN_POINT('',(2.97859436558385,0.0961750479937015,9.46632599115719));
#547=CARTESIAN_POINT('',(2.16958124389917,-2.00606899023322,9.13532392801689));
#548=CARTESIAN_POINT('',(0.00854488695889642,-3.14645985335244,8.80152608468963));
#549=CARTESIAN_POINT('',(-2.33962383822427,-1.85689872846586,8.44067329319332));
#550=CARTESIAN_POINT('',(-2.84436768756428,0.349661848598158,8.11608328572833));
#551=CARTESIAN_POINT('',(-1.62566273909158,2.57796473334904,7.75411825499928));
#552=CARTESIAN_POINT('',(1.31035092657749,2.85746171589204,7.38037241163767));
#553=CARTESIAN_POINT('',(2.96571831156924,0.179625709460727,6.95640800947104));
#554=CARTESIAN_POINT('',(1.8910903994768,-2.005034616985,6.62757798678047));
#555=CARTESIAN_POINT('',(0.202599168158673,-2.56746204959298,6.36679613020146));
#556=CARTESIAN_POINT('',(-1.64915282395035,-2.15932380058352,6.08684334494759));
#557=CARTESIAN_POINT('',(-2.87311559408124,-0.057889580681263,5.76690431228507));
#558=CARTESIAN_POINT('',(-1.684517503692,1.99413250864571,5.4441627933494));
#559=CARTESIAN_POINT('',(0.0273063430994285,2.48937500114398,5.18425146314358));
#560=CARTESIAN_POINT('',(1.9606021554283,1.81204320003119,4.88611436638343));
#561=CARTESIAN_POINT('',(2.60877826091725,-0.111438485462195,4.62692534383921));
#562=CARTESIAN_POINT('',(1.60513586336023,-1.80558614345152,4.33719852595948));
#563=CARTESIAN_POINT('',(0.343057350857088,-2.39257174776063,4.13602575537079));
#564=CARTESIAN_POINT('',(-1.16669521610195,-2.09062818353911,3.90915283018118));
#565=CARTESIAN_POINT('',(-2.27418895718611,-0.949523335955264,3.68242653443402));
#566=CARTESIAN_POINT('',(-2.29847880542879,1.00878422911849,3.40052084355582));
#567=CARTESIAN_POINT('',(-0.875295638979207,2.39210923569749,3.13188577303951));
#568=CARTESIAN_POINT('',(1.65206634829987,2.09190211719765,2.77253469738469));
#569=CARTESIAN_POINT('',(2.62936498769536,-0.0764897675018409,2.46974557544873));
#570=CARTESIAN_POINT('',(1.42128278529552,-2.10986105229082,2.13200009082752));
#571=CARTESIAN_POINT('',(-0.55963547352809,-2.51090499005091,1.85515485328424));
#572=CARTESIAN_POINT('',(-2.52294235962967,-0.983100704810202,1.50224069404419));
#573=CARTESIAN_POINT('',(-2.32120240800539,1.62680398197368,1.16848214121439));
#574=CARTESIAN_POINT('',(0.632179937044848,2.91420180195214,0.73113296470511));
#575=CARTESIAN_POINT('',(2.42235021229325,1.25455109647943,0.435865854083193));
#576=CARTESIAN_POINT('',(2.40364515436992,-0.0373117734542735,0.244204986200734));
#577=CARTESIAN_POINT('',(2.75,0.0133845305030375,11.912630930283));
#578=CARTESIAN_POINT('',(2.71545986534517,-1.08060221171516,11.7467159657651));
#579=CARTESIAN_POINT('',(1.37802982871249,-2.97286703779091,11.430995859435));
#580=CARTESIAN_POINT('',(-1.48582077626802,-2.78841093478153,11.0590273095066));
#581=CARTESIAN_POINT('',(-3.13230079581311,-0.220055217902221,10.6266194799491));
#582=CARTESIAN_POINT('',(-2.1951898455799,2.10653218514092,10.3040967018738));
#583=CARTESIAN_POINT('',(0.0142204539385311,2.798590506132,9.96371348435245));
#584=CARTESIAN_POINT('',(2.02341219140053,2.17856351034502,9.66653266209224));
#585=CARTESIAN_POINT('',(2.82190309258998,0.105844874588885,9.3626920255979));
#586=CARTESIAN_POINT('',(2.05580917569063,-1.88212034217909,9.04876967099825));
#587=CARTESIAN_POINT('',(0.0170429760130988,-2.95545720371758,8.73474097578487));
#588=CARTESIAN_POINT('',(-2.18378309130629,-1.74337116034274,8.39432140789669));
#589=CARTESIAN_POINT('',(-2.65588130508611,0.320699406222818,8.09127928232981));
#590=CARTESIAN_POINT('',(-1.51675461947807,2.4012625248158,7.75244593859165));
#591=CARTESIAN_POINT('',(1.22092742638895,2.66183313544834,7.40253576187792));
#592=CARTESIAN_POINT('',(2.76671898593709,0.163326474025332,7.00768108897625));
#593=CARTESIAN_POINT('',(1.76288796414677,-1.87957855227428,6.69850960842611));
#594=CARTESIAN_POINT('',(0.179419130165501,-2.40768395216633,6.45378513427608));
#595=CARTESIAN_POINT('',(-1.56096472204935,-2.02509810863539,6.19117428100788));
#596=CARTESIAN_POINT('',(-2.72012797290328,-0.0409379082019022,5.88779924991535));
#597=CARTESIAN_POINT('',(-1.59321716227964,1.91095981001656,5.58030618486141));
#598=CARTESIAN_POINT('',(0.0464721898846027,2.38783001311823,5.3317325603086));
#599=CARTESIAN_POINT('',(1.90759001002798,1.7376058219081,5.04479933190577));
#600=CARTESIAN_POINT('',(2.54400747512426,-0.129764315602992,4.79226039634549));
#601=CARTESIAN_POINT('',(1.56161733215326,-1.79260442094387,4.50870163366018));
#602=CARTESIAN_POINT('',(0.315135147268415,-2.37323272266984,4.30960153787217));
#603=CARTESIAN_POINT('',(-1.18592735359462,-2.07498940884678,4.08415046435696));
#604=CARTESIAN_POINT('',(-2.29780450095189,-0.933046745623551,3.85705223516629));
#605=CARTESIAN_POINT('',(-2.32419158032024,1.0449017018592,3.57208422739974));
#606=CARTESIAN_POINT('',(-0.877878861985176,2.45979546383924,3.29837559781072));
#607=CARTESIAN_POINT('',(1.72623518728851,2.15434524435446,2.92809536416152));
#608=CARTESIAN_POINT('',(2.74824304113606,-0.0960191211756658,2.61390350151477));
#609=CARTESIAN_POINT('',(1.4842707227647,-2.23297019041404,2.258956145911));
#610=CARTESIAN_POINT('',(-0.606333172429349,-2.65702686608307,1.96808713190954));
#611=CARTESIAN_POINT('',(-2.69162824038883,-1.03892714796968,1.59293071199451));
#612=CARTESIAN_POINT('',(-2.47991242358004,1.74609114747434,1.23827442517647));
#613=CARTESIAN_POINT('',(0.680372071289155,3.12535585270147,0.770407577740591));
#614=CARTESIAN_POINT('',(2.60106622337889,1.34695840437657,0.455101420420148));
#615=CARTESIAN_POINT('',(2.58033104722955,-0.038167432871976,0.249805263993711));
#616=MECHANICAL_DESIGN_GEOMETRIC_PRESENTATION_REPRESENTATION('',(#37),#617);
#617=(
GEOMETRIC_REPRESENTATION_CONTEXT(3)
GLOBAL_UNCERTAINTY_ASSIGNED_CONTEXT((#618))
GLOBAL_UNIT_ASSIGNED_CONTEXT((#621,#620,#619))
REPRESENTATION_CONTEXT('U05-3','TOP_LEVEL_ASSEMBLY_PART')
);
#618=UNCERTAINTY_MEASURE_WITH_UNIT(LENGTH_MEASURE(0.005),#621,
'DISTANCE_ACCURACY_VALUE','Maximum Tolerance applied to model');
#619=(
NAMED_UNIT(*)
SI_UNIT($,.STERADIAN.)
SOLID_ANGLE_UNIT()
);
#620=(
NAMED_UNIT(*)
PLANE_ANGLE_UNIT()
SI_UNIT($,.RADIAN.)
);
#621=(
LENGTH_UNIT()
NAMED_UNIT(*)
SI_UNIT(.MILLI.,.METRE.)
);
#622=PRODUCT_DEFINITION_SHAPE('','',#623);
#623=PRODUCT_DEFINITION('','',#625,#624);
#624=PRODUCT_DEFINITION_CONTEXT('',#631,'design');
#625=PRODUCT_DEFINITION_FORMATION_WITH_SPECIFIED_SOURCE('','',#627,
 .NOT_KNOWN.);
#626=PRODUCT_RELATED_PRODUCT_CATEGORY('','',(#627));
#627=PRODUCT('U05-3','U05-3','U05-3',(#629));
#628=PRODUCT_CATEGORY('','');
#629=PRODUCT_CONTEXT('',#631,'mechanical');
#630=APPLICATION_PROTOCOL_DEFINITION('international standard',
'ap242_managed_model_based_3d_engineering',2020,#631);
#631=APPLICATION_CONTEXT('managed model based 3d engineering');
ENDSEC;
END-ISO-10303-21;
